<?xml version="1.0" encoding="UTF-8"?>
<svg version="1.1" xmlns="http://www.w3.org/2000/svg" width="400" height="400">
<path d="M0 0 C132 0 264 0 400 0 C400 132 400 264 400 400 C268 400 136 400 0 400 C0 268 0 136 0 0 Z " fill="#FEF6EA" transform="translate(0,0)"/>
<path d="M0 0 C9.08083068 7.17829161 15.27831883 14.97180827 21 25 C21.42925781 25.72960937 21.85851562 26.45921875 22.30078125 27.2109375 C31.60842123 44.24499677 32.65557144 65.68548862 27.41796875 84.12109375 C25.03109191 91.08117647 21.51120889 97.55608803 18 104 C17.67 104.66 17.34 105.32 17 106 C16.34 106 15.68 106 15 106 C14.77441406 106.70769531 14.54882812 107.41539062 14.31640625 108.14453125 C8.40449016 120.96830177 -7.5539985 129.77246288 -20.140625 134.6953125 C-35.89841694 140.36796392 -55.04415185 141.56443444 -71 136 C-72.06476563 135.64808594 -73.12953125 135.29617188 -74.2265625 134.93359375 C-83.55656451 131.6233003 -92.13137524 127.24933375 -99 120 C-98.67 119.01 -98.34 118.02 -98 117 C-97.34 117 -96.68 117 -96 117 C-95.76587402 116.43990234 -95.53174805 115.87980469 -95.29052734 115.30273438 C-93.68058908 112.4300636 -91.69494454 110.47054672 -89.3515625 108.15625 C-88.42859375 107.23972656 -87.505625 106.32320313 -86.5546875 105.37890625 C-85.57824882 104.41914485 -84.60168518 103.45951056 -83.625 102.5 C-82.65578861 101.54083058 -81.68703384 100.58119952 -80.71875 99.62109375 C-78.93146054 97.85122912 -77.14212526 96.08342637 -75.35009766 94.31835938 C-73.81413598 92.803141 -72.30193325 91.26335136 -70.81787109 89.69726562 C-69 88 -69 88 -67 88 C-66.505 86.515 -66.505 86.515 -66 85 C-64.374214 83.27098949 -62.71256882 81.6405449 -61 80 C-59.50765563 78.51318283 -58.01836918 77.02329342 -56.53125 75.53125 C-46.46875 65.46875 -46.46875 65.46875 -44.10229492 63.10424805 C-42.86279494 61.86359652 -41.62516281 60.62106561 -40.3918457 59.37426758 C-37.74038693 56.69513281 -34.98645008 54.30383292 -32 52 C-27.7257442 53.5830577 -25.73468206 56.50568404 -23 60 C-23.48210937 60.39832031 -23.96421875 60.79664063 -24.4609375 61.20703125 C-25.09257812 61.73683594 -25.72421875 62.26664062 -26.375 62.8125 C-27.00148438 63.33457031 -27.62796875 63.85664063 -28.2734375 64.39453125 C-30.2221048 66.08225739 -30.2221048 66.08225739 -32 69 C-32.66 69 -33.32 69 -34 69 C-34.26264648 69.58789307 -34.52529297 70.17578613 -34.79589844 70.78149414 C-36.05855616 73.10788724 -37.39219361 74.63593987 -39.265625 76.49609375 C-39.90886719 77.13740234 -40.55210938 77.77871094 -41.21484375 78.43945312 C-41.88644531 79.09880859 -42.55804688 79.75816406 -43.25 80.4375 C-43.90613281 81.09298828 -44.56226562 81.74847656 -45.23828125 82.42382812 C-48.15917013 85.31858579 -51.08883636 88.13413929 -54.2734375 90.73828125 C-56.56491669 92.63909278 -58.4729364 94.47557474 -60.375 96.75 C-60.87773438 97.34296875 -61.38046875 97.9359375 -61.8984375 98.546875 C-63.10068419 99.82890717 -63.10068419 99.82890717 -63 101 C-52.1556147 104.04403798 -39.38836367 105.03371118 -29 100 C-18.54354921 93.80466198 -11.28517421 85.81726478 -6.87890625 74.4453125 C-3.66385126 61.84229694 -5.69012492 49.28769311 -12.25 38.1875 C-15.31857011 33.55520227 -18.34381538 30.94574945 -23 28 C-23 27.34 -23 26.68 -23 26 C-23.825 25.731875 -24.65 25.46375 -25.5 25.1875 C-28.69741031 24.10266436 -31.83309943 22.92272354 -34.97265625 21.68359375 C-45.10098197 18.26845502 -55.19935891 19.30326624 -64.90234375 23.4296875 C-73.11688979 27.41588063 -73.11688979 27.41588063 -79 34 C-79.66 34 -80.32 34 -81 34 C-81.27714844 34.71929687 -81.55429688 35.43859375 -81.83984375 36.1796875 C-82.96192552 38.90744183 -84.21826106 41.50072458 -85.5625 44.125 C-90.05745686 52.90150331 -90.59777759 63.66189647 -88.17578125 73.26953125 C-86.93633989 76.34279292 -85.49823334 79.16309824 -83.8046875 82.0078125 C-82.75785062 84.59949603 -82.98570459 85.39593883 -84 88 C-86.13305664 90.47363281 -86.13305664 90.47363281 -88.91015625 93.203125 C-89.39705429 93.6857782 -89.88395233 94.1684314 -90.38560486 94.66571045 C-91.9376545 96.2010085 -93.49982136 97.72552925 -95.0625 99.25 C-96.11852357 100.2909722 -97.17387038 101.3326314 -98.22851562 102.375 C-100.81121415 104.92467633 -103.40308882 107.46479196 -106 110 C-110.45417832 108.07736255 -112.20407029 105.01894041 -114.5625 100.9375 C-114.96162598 100.25357178 -115.36075195 99.56964355 -115.77197266 98.86499023 C-118.53730811 94.02536644 -120.78939246 89.46919861 -122 84 C-122.41185547 82.19595703 -122.41185547 82.19595703 -122.83203125 80.35546875 C-127.33381088 59.40799866 -125.10443796 38.87690245 -113.5 20.6875 C-110.87619322 16.62933809 -108.20860504 12.62327646 -105 9 C-104.34 9 -103.68 9 -103 9 C-102.75507812 8.41734375 -102.51015625 7.8346875 -102.2578125 7.234375 C-96.05219137 -3.78927497 -78.96000023 -10.04527477 -67.375 -13.4375 C-43.68570386 -19.71150599 -19.72557959 -14.55935636 0 0 Z " fill="#7E8CFD" transform="translate(167,132)"/>
<path d="M0 0 C13.21524119 11.45822357 13.21524119 11.45822357 15.25 17.5625 C15.68699219 17.96855469 16.12398437 18.37460938 16.57421875 18.79296875 C25.15775408 27.85670186 27.28704361 40.65562595 27.25 52.5625 C22.44450253 52.58718447 17.63904182 52.60535255 12.83349609 52.61743164 C11.19807289 52.62246621 9.5626542 52.62929427 7.92724609 52.63793945 C5.57909025 52.65004335 3.23099381 52.655737 0.8828125 52.66015625 C-0.21726639 52.66789818 -0.21726639 52.66789818 -1.33956909 52.67579651 C-6.52225659 52.67637171 -6.52225659 52.67637171 -8.75 51.5625 C-9.3828125 49.05859375 -9.3828125 49.05859375 -9.875 46 C-10.04257812 44.98808594 -10.21015625 43.97617188 -10.3828125 42.93359375 C-10.50398438 42.15113281 -10.62515625 41.36867187 -10.75 40.5625 C-11.41 40.5625 -12.07 40.5625 -12.75 40.5625 C-13.183125 39.428125 -13.61625 38.29375 -14.0625 37.125 C-18.31635195 28.66238994 -26.86007241 23.31410521 -35.55859375 20.21875 C-36.28175781 20.0021875 -37.00492187 19.785625 -37.75 19.5625 C-38.35714844 19.37171875 -38.96429688 19.1809375 -39.58984375 18.984375 C-50.87871368 16.77967708 -62.21827605 18.3501282 -71.75 24.75 C-72.471875 25.27980469 -73.19375 25.80960938 -73.9375 26.35546875 C-75.75 27.5625 -75.75 27.5625 -77.75 27.5625 C-77.75 28.2225 -77.75 28.8825 -77.75 29.5625 C-78.41 29.5625 -79.07 29.5625 -79.75 29.5625 C-79.75 30.2225 -79.75 30.8825 -79.75 31.5625 C-80.41 31.5625 -81.07 31.5625 -81.75 31.5625 C-82.0284375 32.12324219 -82.306875 32.68398437 -82.59375 33.26171875 C-83.37298846 34.81229798 -84.16497057 36.35653023 -84.96875 37.89453125 C-85.3915625 38.71308594 -85.814375 39.53164062 -86.25 40.375 C-86.6728125 41.18582031 -87.095625 41.99664062 -87.53125 42.83203125 C-92.10622399 53.08173259 -92.47831158 64.79470933 -88.8125 75.375 C-83.98939951 86.32547605 -76.36476014 94.47361022 -65.59375 99.5859375 C-55.77343722 103.25173919 -42.92906867 103.27937939 -33.1875 99.5 C-24.73319135 95.32546585 -18.72685996 90.45178523 -13.94140625 82.28515625 C-13.54824219 81.71667969 -13.15507812 81.14820313 -12.75 80.5625 C-12.09 80.5625 -11.43 80.5625 -10.75 80.5625 C-10.42 78.9125 -10.09 77.2625 -9.75 75.5625 C-29.22 75.5625 -48.69 75.5625 -68.75 75.5625 C-68.75 71.9325 -68.75 68.3025 -68.75 64.5625 C-37.07 64.5625 -5.39 64.5625 27.25 64.5625 C27.25 84.67324637 18.23075005 102.74979807 4.10107422 116.90112305 C-10.37243396 130.74024821 -29.9365851 137.52756728 -49.75 137.9375 C-60.89966541 137.68559204 -71.81924762 136.29456945 -81.6640625 130.734375 C-83.90673436 129.40018507 -83.90673436 129.40018507 -87.1875 128.3125 C-104.54637881 119.78533146 -116.88229861 102.28723098 -123.11572266 84.46484375 C-129.64755894 64.87436325 -128.30288397 44.8851751 -119.5 26.3125 C-108.41778958 5.39777522 -92.02511515 -8.09542294 -69.75 -15.4375 C-45.80360773 -22.73779926 -18.78864165 -15.78937831 0 0 Z " fill="#E280B0" transform="translate(333.75,131.4375)"/>
<path d="M0 0 C4.2742558 1.5830577 6.26531794 4.50568404 9 8 C8.51789063 8.39832031 8.03578125 8.79664063 7.5390625 9.20703125 C6.59160156 10.00173828 6.59160156 10.00173828 5.625 10.8125 C4.99851562 11.33457031 4.37203125 11.85664063 3.7265625 12.39453125 C1.7778952 14.08225739 1.7778952 14.08225739 0 17 C-0.66 17 -1.32 17 -2 17 C-2.39396973 17.8818396 -2.39396973 17.8818396 -2.79589844 18.78149414 C-4.05855616 21.10788724 -5.39219361 22.63593987 -7.265625 24.49609375 C-7.90886719 25.13740234 -8.55210938 25.77871094 -9.21484375 26.43945312 C-10.22224609 27.42848633 -10.22224609 27.42848633 -11.25 28.4375 C-11.90613281 29.09298828 -12.56226563 29.74847656 -13.23828125 30.42382812 C-16.15917013 33.31858579 -19.08883636 36.13413929 -22.2734375 38.73828125 C-24.56491669 40.63909278 -26.4729364 42.47557474 -28.375 44.75 C-28.87773438 45.34296875 -29.38046875 45.9359375 -29.8984375 46.546875 C-31.10068419 47.82890717 -31.10068419 47.82890717 -31 49 C-20.06755516 52.06875645 -7.53720748 52.87722175 3 48 C4.36063887 47.03748266 5.70227561 46.04579595 7 45 C7.66 45.33 8.32 45.66 9 46 C6.42215154 48.64752004 4.08351902 50.94432065 1 53 C0.67 53.99 0.34 54.98 0 56 C-0.33 55.01 -0.66 54.02 -1 53 C-1.66 53 -2.32 53 -3 53 C-3.495 53.99 -3.495 53.99 -4 55 C-6.328125 55.484375 -6.328125 55.484375 -9.25 55.75 C-10.20390625 55.84796875 -11.1578125 55.9459375 -12.140625 56.046875 C-15.23352175 55.99617177 -17.16896891 55.15901273 -20 54 C-20.99 54.33 -21.98 54.66 -23 55 C-25.15625 54.51171875 -25.15625 54.51171875 -27.5 53.6875 C-28.2734375 53.42324219 -29.046875 53.15898437 -29.84375 52.88671875 C-32 52 -32 52 -35 50 C-34.75 47.625 -34.75 47.625 -34 45 C-33.34 44.71125 -32.68 44.4225 -32 44.125 C-31.34 43.75375 -30.68 43.3825 -30 43 C-29.18129815 39.43793339 -29.18129815 39.43793339 -29 36 C-29.66 36 -30.32 36 -31 36 C-31 37.65 -31 39.3 -31 41 C-33.475 41.495 -33.475 41.495 -36 42 C-36 41.34 -36 40.68 -36 40 C-36.99 40.495 -36.99 40.495 -38 41 C-38.103125 41.804375 -38.20625 42.60875 -38.3125 43.4375 C-38.539375 44.283125 -38.76625 45.12875 -39 46 C-40.65697379 46.69040574 -42.3255761 47.3530635 -44 48 C-45.27937027 49.4712758 -46.55606178 50.94775729 -47.74609375 52.4921875 C-49 54 -49 54 -51.5625 56 C-54.39780709 58.32640582 -55.99344644 60.9555739 -58 64 C-58.66 64 -59.32 64 -60 64 C-60 65.98 -60 67.96 -60 70 C-59.34 70.33 -58.68 70.66 -58 71 C-58 71.66 -58 72.32 -58 73 C-56.02 72.505 -56.02 72.505 -54 72 C-54 73.32 -54 74.64 -54 76 C-52.906875 75.938125 -51.81375 75.87625 -50.6875 75.8125 C-46.50370644 76.02523527 -46.64224999 76.2566435 -44 79 C-37.45786284 82.01944792 -30.04051692 83.82503453 -23 82 C-20.24029592 81.93073032 -17.50803958 81.9058264 -14.75 81.9375 C-14.00492188 81.94201172 -13.25984375 81.94652344 -12.4921875 81.95117188 C-10.6614236 81.96290754 -8.83070127 81.9808415 -7 82 C-7 81.34 -7 80.68 -7 80 C-5.68 80 -4.36 80 -3 80 C-3 80.66 -3 81.32 -3 82 C-3.66 82 -4.32 82 -5 82 C-4.01 82.99 -4.01 82.99 -3 84 C-2.34 84 -1.68 84 -1 84 C-0.01 82.02 -0.01 82.02 1 80 C2.65 80 4.3 80 6 80 C6 80.66 6 81.32 6 82 C9.96 80.35 13.92 78.7 18 77 C18 76.01 18 75.02 18 74 C19.1446875 74.0928125 19.1446875 74.0928125 20.3125 74.1875 C23.50339968 73.96487909 23.96106145 73.31697562 26 71 C26.99 70.67 27.98 70.34 29 70 C29 68.68 29 67.36 29 66 C31.31 66.33 33.62 66.66 36 67 C28.42886771 74.9717944 19.43694163 79.79518303 9.1875 83.4375 C8.49495117 83.6842749 7.80240234 83.9310498 7.08886719 84.18530273 C-7.0454654 88.9231715 -24.97758976 88.89016828 -39 84 C-40.06476563 83.64808594 -41.12953125 83.29617188 -42.2265625 82.93359375 C-51.55656451 79.6233003 -60.13137524 75.24933375 -67 68 C-66.67 67.01 -66.34 66.02 -66 65 C-65.34 65 -64.68 65 -64 65 C-63.76587402 64.43990234 -63.53174805 63.87980469 -63.29052734 63.30273438 C-61.68058908 60.4300636 -59.69494454 58.47054672 -57.3515625 56.15625 C-56.42859375 55.23972656 -55.505625 54.32320312 -54.5546875 53.37890625 C-53.57824882 52.41914485 -52.60168518 51.45951056 -51.625 50.5 C-50.65578861 49.54083058 -49.68703384 48.58119952 -48.71875 47.62109375 C-46.93146054 45.85122912 -45.14212526 44.08342637 -43.35009766 42.31835938 C-41.81413598 40.803141 -40.30193325 39.26335136 -38.81787109 37.69726562 C-37 36 -37 36 -35 36 C-34.67 35.01 -34.34 34.02 -34 33 C-32.374214 31.27098949 -30.71256882 29.6405449 -29 28 C-27.50765563 26.51318283 -26.01836918 25.02329342 -24.53125 23.53125 C-14.46875 13.46875 -14.46875 13.46875 -12.10229492 11.10424805 C-10.86279494 9.86359652 -9.62516281 8.62106561 -8.3918457 7.37426758 C-5.74038693 4.69513281 -2.98645008 2.30383292 0 0 Z " fill="#67ADF5" transform="translate(135,184)"/>
<path d="M0 0 C9.08083068 7.17829161 15.27831883 14.97180827 21 25 C21.42925781 25.72960937 21.85851562 26.45921875 22.30078125 27.2109375 C31.60842123 44.24499677 32.65557144 65.68548862 27.41796875 84.12109375 C25.03109191 91.08117647 21.51120889 97.55608803 18 104 C17.67 104.66 17.34 105.32 17 106 C16.34 106 15.68 106 15 106 C14.62875 107.1446875 14.62875 107.1446875 14.25 108.3125 C12.89004442 111.2364045 11.68414174 112.30004356 9 114 C10.875 109.25 10.875 109.25 12 107 C12.66 107 13.32 107 14 107 C14.103125 106.443125 14.20625 105.88625 14.3125 105.3125 C15 103 15 103 16.5625 100.625 C18.26054198 97.52422769 18.24294519 95.48221436 18 92 C19.32 92 20.64 92 22 92 C23.24220774 86.68142124 24.27069583 81.41768812 25 76 C25.16113281 75.22398437 25.32226562 74.44796875 25.48828125 73.6484375 C26.02125526 70.88999185 26.35540349 68.17110096 26.625 65.375 C26.72039062 64.43398437 26.81578125 63.49296875 26.9140625 62.5234375 C27.15101248 59.8724809 27.15101248 59.8724809 26 57 C25.84693336 54.58494858 25.7261423 52.16778266 25.625 49.75 C25.14611763 41.28303778 23.13548421 36.37027007 18.06640625 29.63671875 C16.68096144 27.51034008 16.3554939 25.48845733 16 23 C13.96731398 20.83656989 13.96731398 20.83656989 11 19 C10.8125 16.375 10.8125 16.375 11 14 C10.34 14 9.68 14 9 14 C9 12.68 9 11.36 9 10 C8.01 10.66 7.02 11.32 6 12 C3.3125 12.125 3.3125 12.125 1 12 C0.01 9.525 0.01 9.525 -1 7 C-0.34 6.34 0.32 5.68 1 5 C-1.31 4.34 -3.62 3.68 -6 3 C-6.495 0.03 -6.495 0.03 -7 -3 C-8.051875 -3.1546875 -8.051875 -3.1546875 -9.125 -3.3125 C-12.39137647 -4.09359003 -15.0471852 -5.42058743 -18 -7 C-18 -6.34 -18 -5.68 -18 -5 C-19.32 -4.67 -20.64 -4.34 -22 -4 C-22.495 -6.475 -22.495 -6.475 -23 -9 C-38.16516771 -12.52009002 -55.15143829 -15.73488335 -70 -9 C-71.9959722 -8.32136945 -73.99568551 -7.65358081 -76 -7 C-79.0745356 -6.2236068 -79.0745356 -6.2236068 -81 -4 C-82.48918875 -3.67493454 -83.99211065 -3.41025638 -85.5 -3.1875 C-87.89953801 -2.77036561 -87.89953801 -2.77036561 -90 -2 C-91.67613187 0.47014472 -91.67613187 0.47014472 -92 3 C-93.32 3 -94.64 3 -96 3 C-96.33 3.99 -96.66 4.98 -97 6 C-98.32 5.67 -99.64 5.34 -101 5 C-72.45954129 -20.79618383 -30.93592259 -22.83365715 0 0 Z " fill="#B962E3" transform="translate(167,132)"/>
<path d="M0 0 C16.34725588 13.36598638 16.34725588 13.36598638 18.69921875 20.421875 C19.13621094 20.82792969 19.57320313 21.23398438 20.0234375 21.65234375 C28.60697283 30.71607686 30.73626236 43.51500095 30.69921875 55.421875 C25.89372128 55.44655947 21.08826057 55.46472755 16.28271484 55.47680664 C14.64729164 55.48184121 13.01187295 55.48866927 11.37646484 55.49731445 C9.028309 55.50941835 6.68021256 55.515112 4.33203125 55.51953125 C3.23195236 55.52727318 3.23195236 55.52727318 2.10964966 55.53517151 C-3.07303784 55.53574671 -3.07303784 55.53574671 -5.30078125 54.421875 C-5.93359375 51.91796875 -5.93359375 51.91796875 -6.42578125 48.859375 C-6.59335937 47.84746094 -6.7609375 46.83554688 -6.93359375 45.79296875 C-7.05476563 45.01050781 -7.1759375 44.22804687 -7.30078125 43.421875 C-7.96078125 43.421875 -8.62078125 43.421875 -9.30078125 43.421875 C-9.73390625 42.2875 -10.16703125 41.153125 -10.61328125 39.984375 C-14.64812347 31.95746274 -23.05152627 26.09158625 -31.3984375 23.12890625 C-37.602386 21.61758098 -43.95386928 21.02034313 -50.30078125 20.421875 C-50.30078125 20.091875 -50.30078125 19.761875 -50.30078125 19.421875 C-41.44612523 19.10310738 -33.64194681 19.11574029 -25.30078125 22.421875 C-24.63304687 22.66164062 -23.9653125 22.90140625 -23.27734375 23.1484375 C-17.61763769 25.32157358 -14.94210901 28.13921948 -12.30078125 33.421875 C-10.81578125 34.411875 -10.81578125 34.411875 -9.30078125 35.421875 C-8.63411458 37.08854167 -7.96744792 38.75520833 -7.30078125 40.421875 C-5.81578125 41.411875 -5.81578125 41.411875 -4.30078125 42.421875 C-3.55818776 44.73216585 -2.88934325 47.067627 -2.30078125 49.421875 C-1.97078125 50.081875 -1.64078125 50.741875 -1.30078125 51.421875 C-1.63078125 52.081875 -1.96078125 52.741875 -2.30078125 53.421875 C-1.64335937 53.33808594 -0.9859375 53.25429687 -0.30859375 53.16796875 C9.11396362 52.15932101 18.28028469 52.74161865 27.69921875 53.421875 C26.79431375 43.53545023 25.09747986 35.43663154 20.69921875 26.421875 C17.77375435 26.1982682 17.77375435 26.1982682 15.69921875 27.421875 C16.02921875 26.101875 16.35921875 24.781875 16.69921875 23.421875 C15.70921875 23.421875 14.71921875 23.421875 13.69921875 23.421875 C12.70921875 20.451875 11.71921875 17.481875 10.69921875 14.421875 C10.03921875 14.421875 9.37921875 14.421875 8.69921875 14.421875 C8.69921875 13.431875 8.69921875 12.441875 8.69921875 11.421875 C8.03921875 11.421875 7.37921875 11.421875 6.69921875 11.421875 C6.20421875 9.936875 6.20421875 9.936875 5.69921875 8.421875 C3.91933743 7.41866916 2.13692417 6.41882633 0.328125 5.46875 C-1.30078125 4.421875 -1.30078125 4.421875 -2.30078125 2.234375 C-2.79578125 1.3371875 -2.79578125 1.3371875 -3.30078125 0.421875 C-6.86284786 -0.39682685 -6.86284786 -0.39682685 -10.30078125 -0.578125 C-10.30078125 -1.238125 -10.30078125 -1.898125 -10.30078125 -2.578125 C-11.62078125 -2.578125 -12.94078125 -2.578125 -14.30078125 -2.578125 C-14.79578125 -4.063125 -14.79578125 -4.063125 -15.30078125 -5.578125 C-16.29078125 -6.073125 -16.29078125 -6.073125 -17.30078125 -6.578125 C-17.63078125 -5.918125 -17.96078125 -5.258125 -18.30078125 -4.578125 C-22.30078125 -4.578125 -22.30078125 -4.578125 -23.86328125 -6.015625 C-24.33765625 -6.53125 -24.81203125 -7.046875 -25.30078125 -7.578125 C-26.29078125 -7.908125 -27.28078125 -8.238125 -28.30078125 -8.578125 C-28.79578125 -9.568125 -28.79578125 -9.568125 -29.30078125 -10.578125 C-32.08414363 -11.00919193 -32.08414363 -11.00919193 -35.30078125 -11.140625 C-41.20441079 -11.48175454 -41.20441079 -11.48175454 -42.30078125 -12.578125 C-45.75899527 -12.82816464 -45.75899527 -12.82816464 -49.30078125 -12.578125 C-49.96078125 -11.918125 -50.62078125 -11.258125 -51.30078125 -10.578125 C-51.63078125 -11.238125 -51.96078125 -11.898125 -52.30078125 -12.578125 C-52.96078125 -12.578125 -53.62078125 -12.578125 -54.30078125 -12.578125 C-54.63078125 -11.258125 -54.96078125 -9.938125 -55.30078125 -8.578125 C-56.07421875 -8.60132812 -56.84765625 -8.62453125 -57.64453125 -8.6484375 C-63.97534215 -8.75812977 -69.23686855 -8.35547872 -75.30078125 -6.578125 C-77.29679431 -6.2216941 -79.29562625 -5.87889825 -81.30078125 -5.578125 C-77.89892193 -8.52353231 -74.20701418 -9.84844763 -69.98828125 -11.203125 C-69.34955078 -11.4196875 -68.71082031 -11.63625 -68.05273438 -11.859375 C-45.65798615 -19.2108425 -18.45988728 -14.65792253 0 0 Z M16.69921875 21.421875 C17.69921875 23.421875 17.69921875 23.421875 17.69921875 23.421875 Z " fill="#F7E66A" transform="translate(330.30078125,128.578125)"/>
<path d="M0 0 C0.33 0 0.66 0 1 0 C1.19491452 1.45736087 1.38069358 2.91594593 1.5625 4.375 C1.66691406 5.18710938 1.77132812 5.99921875 1.87890625 6.8359375 C2 9 2 9 1 11 C1.66 11.66 2.32 12.32 3 13 C2.625 15.125 2.625 15.125 2 17 C-0.31 16.67 -2.62 16.34 -5 16 C-5.08692074 20.27070558 -5.14036515 24.54118458 -5.1875 28.8125 C-5.21263672 30.02744141 -5.23777344 31.24238281 -5.26367188 32.49414062 C-5.27333984 33.65751953 -5.28300781 34.82089844 -5.29296875 36.01953125 C-5.3086792 37.09307861 -5.32438965 38.16662598 -5.34057617 39.27270508 C-4.94990853 42.40112671 -4.27740183 42.98077125 -2 45 C-2 45.99 -2 46.98 -2 48 C-1.01 48 -0.02 48 1 48 C0.835 48.639375 0.67 49.27875 0.5 49.9375 C-0.13334894 52.55006439 0.09051772 54.68509707 0.3125 57.375 C0.37050781 58.16648438 0.42851562 58.95796875 0.48828125 59.7734375 C1.09460411 62.41163622 1.82975605 63.40883556 4 65 C6.65466049 64.76956136 6.65466049 64.76956136 9 64 C8.62875 64.886875 8.2575 65.77375 7.875 66.6875 C6.86803908 70.49956634 7.28391862 71.56783723 9 75 C9.12375 75.721875 9.2475 76.44375 9.375 77.1875 C9.85656267 79.17781331 9.85656267 79.17781331 11.875 80.25 C14.09591691 81.16641006 14.09591691 81.16641006 17 81 C17.103125 81.763125 17.20625 82.52625 17.3125 83.3125 C18.07046269 86.27544506 18.58806197 87.19104648 21 89 C23.59915538 90.19027984 23.59915538 90.19027984 26 91 C26 91.66 26 92.32 26 93 C26.66 93 27.32 93 28 93 C28 93.66 28 94.32 28 95 C29.60875 95.2165625 29.60875 95.2165625 31.25 95.4375 C33.91662949 95.83749442 36.41399729 96.27591924 39 97 C38.67 97.66 38.34 98.32 38 99 C49.53030022 104.35627421 60.41817908 106.05884017 73 107 C73 106.01 73 105.02 73 104 C78.61 104 84.22 104 90 104 C90.33 104.66 90.66 105.32 91 106 C73.43881566 110.60981089 53.38501354 111.37733323 37.0859375 102.171875 C34.84326564 100.83768507 34.84326564 100.83768507 31.5625 99.75 C14.20362119 91.22283146 1.86770139 73.72473098 -4.36572266 55.90234375 C-9.86214979 39.41729363 -10.09040703 21.33740571 -4 5 C-3.34 4.01 -2.68 3.02 -2 2 C-1.34 2 -0.68 2 0 2 C0 1.34 0 0.68 0 0 Z " fill="#AE74EA" transform="translate(215,160)"/>
<path d="M0 0 C0.33 0.99 0.66 1.98 1 3 C0.34 3.66 -0.32 4.32 -1 5 C-1.103125 5.825 -1.20625 6.65 -1.3125 7.5 C-1.539375 8.325 -1.76625 9.15 -2 10 C-3.65697379 10.69040574 -5.3255761 11.3530635 -7 12 C-8.27937027 13.4712758 -9.55606178 14.94775729 -10.74609375 16.4921875 C-12 18 -12 18 -14.5625 20 C-17.39780709 22.32640582 -18.99344644 24.9555739 -21 28 C-21.66 28 -22.32 28 -23 28 C-23 29.98 -23 31.96 -23 34 C-22.34 34.33 -21.68 34.66 -21 35 C-21 35.66 -21 36.32 -21 37 C-19.02 36.505 -19.02 36.505 -17 36 C-17 37.32 -17 38.64 -17 40 C-15.906875 39.938125 -14.81375 39.87625 -13.6875 39.8125 C-9.50370644 40.02523527 -9.64224999 40.2566435 -7 43 C-0.45786284 46.01944792 6.95948308 47.82503453 14 46 C16.75970408 45.93073032 19.49196042 45.9058264 22.25 45.9375 C22.99507812 45.94201172 23.74015625 45.94652344 24.5078125 45.95117188 C26.3385764 45.96290754 28.16929873 45.9808415 30 46 C30 45.34 30 44.68 30 44 C31.32 44 32.64 44 34 44 C34 44.66 34 45.32 34 46 C33.34 46 32.68 46 32 46 C32.66 46.66 33.32 47.32 34 48 C34.66 48 35.32 48 36 48 C36.66 46.68 37.32 45.36 38 44 C39.65 44 41.3 44 43 44 C43 44.66 43 45.32 43 46 C46.96 44.35 50.92 42.7 55 41 C55 40.01 55 39.02 55 38 C56.1446875 38.0928125 56.1446875 38.0928125 57.3125 38.1875 C60.50339968 37.96487909 60.96106145 37.31697562 63 35 C63.99 34.67 64.98 34.34 66 34 C66 32.68 66 31.36 66 30 C68.31 30.33 70.62 30.66 73 31 C65.42886771 38.9717944 56.43694163 43.79518303 46.1875 47.4375 C45.49495117 47.6842749 44.80240234 47.9310498 44.08886719 48.18530273 C29.9545346 52.9231715 12.02241024 52.89016828 -2 48 C-3.06476563 47.64808594 -4.12953125 47.29617188 -5.2265625 46.93359375 C-14.55656451 43.6233003 -23.13137524 39.24933375 -30 32 C-29.505 30.515 -29.505 30.515 -29 29 C-28.34 29 -27.68 29 -27 29 C-26.76587402 28.43990234 -26.53174805 27.87980469 -26.29052734 27.30273438 C-24.68058908 24.4300636 -22.69494454 22.47054672 -20.3515625 20.15625 C-18.96710938 18.78146484 -18.96710938 18.78146484 -17.5546875 17.37890625 C-16.57824882 16.41914485 -15.60168518 15.45951056 -14.625 14.5 C-13.65578861 13.54083058 -12.68703384 12.58119952 -11.71875 11.62109375 C-9.93146054 9.85122912 -8.14212526 8.08342637 -6.35009766 6.31835938 C-4.22423472 4.22120641 -2.10880926 2.11428352 0 0 Z " fill="#6EB9EB" transform="translate(98,220)"/>
<path d="M0 0 C4.2742558 1.5830577 6.26531794 4.50568404 9 8 C8.51789063 8.39832031 8.03578125 8.79664063 7.5390625 9.20703125 C6.90742188 9.73683594 6.27578125 10.26664063 5.625 10.8125 C4.99851563 11.33457031 4.37203125 11.85664063 3.7265625 12.39453125 C1.7778952 14.08225739 1.7778952 14.08225739 0 17 C-0.66 17 -1.32 17 -2 17 C-2.38285156 17.87398437 -2.38285156 17.87398437 -2.7734375 18.765625 C-4.11741087 21.21388223 -5.61810296 22.81743248 -7.625 24.75 C-8.25664063 25.36359375 -8.88828125 25.9771875 -9.5390625 26.609375 C-10.02117187 27.06828125 -10.50328125 27.5271875 -11 28 C-12 25 -12 25 -11 22 C-11.99 21.34 -12.98 20.68 -14 20 C-14 19.34 -14 18.68 -14 18 C-14.928125 18.845625 -15.85625 19.69125 -16.8125 20.5625 C-18.39453125 22.00390625 -18.39453125 22.00390625 -20 23 C-20.99 22.67 -21.98 22.34 -23 22 C-13.33203125 12.33203125 -13.33203125 12.33203125 -11.62036133 10.62231445 C-10.15891095 9.15910249 -8.70404647 7.68931972 -7.25 6.21875 C-4.9556442 3.95626025 -2.54978442 1.96697655 0 0 Z " fill="#7E8EFA" transform="translate(135,184)"/>
<path d="M0 0 C0.66 0.99 1.32 1.98 2 3 C1.525625 3.515625 1.05125 4.03125 0.5625 4.5625 C-1.42809407 7.66782675 -1.65060818 10.36632504 -2 14 C-2.99 14 -3.98 14 -5 14 C-5.33 13.34 -5.66 12.68 -6 12 C-6.4125 13.155 -6.825 14.31 -7.25 15.5 C-9.36464736 21.11920377 -11.82793439 26.30701634 -15.25 31.25 C-17.35791699 34.01917412 -17.35791699 34.01917412 -17 38 C-17.99 38.495 -17.99 38.495 -19 39 C-18.98839844 39.77085937 -18.97679687 40.54171875 -18.96484375 41.3359375 C-18.95130859 42.84027344 -18.95130859 42.84027344 -18.9375 44.375 C-18.92589844 45.37273437 -18.91429687 46.37046875 -18.90234375 47.3984375 C-19 50 -19 50 -20 52 C-19.34 52.66 -18.68 53.32 -18 54 C-18.0234375 56.42578125 -18.0234375 56.42578125 -18.375 59.3125 C-18.79681882 62.90776971 -19.06596657 66.37843552 -19 70 C-18.34 70 -17.68 70 -17 70 C-17.03480469 70.56847656 -17.06960937 71.13695312 -17.10546875 71.72265625 C-17.30222512 77.33489751 -16.75861609 81.07389983 -14 86 C-13.29875 86.495 -12.5975 86.99 -11.875 87.5 C-10 89 -10 89 -9.25 92.6875 C-9.12625 94.3271875 -9.12625 94.3271875 -9 96 C-9.99 96 -10.98 96 -12 96 C-23.8287446 76.22308709 -25.2511006 54.1123269 -20 32 C-17.13125345 21.56819438 -10.12256302 11.04306375 -3 3 C-2.34 3 -1.68 3 -1 3 C-0.67 2.01 -0.34 1.02 0 0 Z " fill="#77BCED" transform="translate(65,138)"/>
<path d="M0 0 C0.66 0.33 1.32 0.66 2 1 C1.67 1.66 1.34 2.32 1 3 C0.34 3 -0.32 3 -1 3 C-1.27714844 3.71929687 -1.55429688 4.43859375 -1.83984375 5.1796875 C-2.96192552 7.90744183 -4.21826106 10.50072458 -5.5625 13.125 C-10.05745686 21.90150331 -10.59777759 32.66189647 -8.17578125 42.26953125 C-6.93633989 45.34279292 -5.49823334 48.16309824 -3.8046875 51.0078125 C-2.75785062 53.59949603 -2.98570459 54.39593883 -4 57 C-6.13305664 59.47363281 -6.13305664 59.47363281 -8.91015625 62.203125 C-9.39705429 62.6857782 -9.88395233 63.1684314 -10.38560486 63.66571045 C-11.9376545 65.2010085 -13.49982136 66.72552925 -15.0625 68.25 C-16.11852357 69.2909722 -17.17387038 70.3326314 -18.22851562 71.375 C-20.81121415 73.92467633 -23.40308882 76.46479196 -26 79 C-29.84375 77.328125 -29.84375 77.328125 -31.25 74.375 C-31.4975 73.59125 -31.745 72.8075 -32 72 C-28.25 69 -28.25 69 -26 69 C-25.67 68.01 -25.34 67.02 -25 66 C-23.66666667 65.66666667 -22.33333333 65.33333333 -21 65 C-20.67 64.01 -20.34 63.02 -20 62 C-19.34 62.33 -18.68 62.66 -18 63 C-14.9995242 62.02484536 -13.2474649 61.2474649 -11 59 C-9.67607028 57.98758315 -8.34400833 56.98560611 -7 56 C-7.58803797 52.97580475 -8.22678118 49.98241547 -9 47 C-9.99 47.495 -9.99 47.495 -11 48 C-11.44277596 44.33919162 -11.73438704 40.67771789 -12 37 C-12.11472656 35.69546875 -12.22945312 34.3909375 -12.34765625 33.046875 C-13.05448895 21.6658056 -10.19444935 13.52905256 -4 4 C-1.734375 1.55078125 -1.734375 1.55078125 0 0 Z " fill="#5BB7F6" transform="translate(87,163)"/>
<path d="M0 0 C0.825 0.45375 1.65 0.9075 2.5 1.375 C5.36026493 3.2341722 6.96260147 5.28346862 9 8 C9.47050781 8.45890625 9.94101563 8.9178125 10.42578125 9.390625 C15.96782583 15.05643732 19.89531954 21.97533793 20.0625 30 C20.041875 30.99 20.02125 31.98 20 33 C20.185625 34.0725 20.37125 35.145 20.5625 36.25 C21.10552927 40.90453664 20.9665375 45.40264337 20 50 C19.34 50.66 18.68 51.32 18 52 C17.855625 52.680625 17.71125 53.36125 17.5625 54.0625 C17.2840625 55.0215625 17.2840625 55.0215625 17 56 C16.01 56.33 15.02 56.66 14 57 C14.32484375 56.21302734 14.32484375 56.21302734 14.65625 55.41015625 C18.28412489 45.31593028 18.81290516 32.52223952 15.10546875 22.33984375 C11.35960133 14.41131165 7.42275819 8.69603069 0 4 C0 3.34 0 2.68 0 2 C-0.825 1.731875 -1.65 1.46375 -2.5 1.1875 C-5.69741031 0.10266436 -8.83309943 -1.07727646 -11.97265625 -2.31640625 C-21.87578433 -5.65561129 -32.36973216 -4.6521106 -42 -1 C-41 -4 -41 -4 -39.20703125 -4.9140625 C-25.104373 -9.10114863 -12.04624577 -9.52126849 0 0 Z " fill="#A57BE8" transform="translate(144,156)"/>
<path d="M0 0 C0.99 0 1.98 0 3 0 C2.52354792 4.28806873 1.34097516 6.26647487 -2 9 C-2.66 9 -3.32 9 -4 9 C-4.33 10.32 -4.66 11.64 -5 13 C-5.99 13 -6.98 13 -8 13 C-8.2475 13.556875 -8.495 14.11375 -8.75 14.6875 C-10 17 -10 17 -12.125 19.5 C-14.4 22.0125 -14.4 22.0125 -14 26 C-14.55233783 29.03785804 -15.21478137 30.32217206 -17 33 C-18.66666667 33 -20.33333333 33 -22 33 C-27.84211312 35.31250311 -31.54038536 38.81057804 -35 44 C-34.278125 43.79375 -33.55625 43.5875 -32.8125 43.375 C-30 43 -30 43 -27.8125 43.9375 C-20.59907951 46.66256996 -13.98676408 45.04241782 -7.12890625 42.0703125 C-4.79354561 40.95036797 -4.79354561 40.95036797 -2 39 C0.1875 39.375 0.1875 39.375 2 40 C-8.03731781 47.66005833 -19.67170643 48.23297872 -31.92578125 46.61328125 C-34.375 46.125 -34.375 46.125 -38 45 C-38.33 44.34 -38.66 43.68 -39 43 C-35.6979196 39.02718452 -32.39110183 35.21378686 -28.4375 31.875 C-24.36708613 28.41913881 -20.58946939 24.70710114 -16.8125 20.9375 C-16.21816162 20.34759277 -15.62382324 19.75768555 -15.01147461 19.14990234 C-12.3084704 16.43818487 -9.70667021 13.71044553 -7.28125 10.74609375 C-4.72949989 7.67438086 -2.11722962 5.46478621 1 3 C0.505 1.515 0.505 1.515 0 0 Z " fill="#F6F7F0" transform="translate(142,189)"/>
<path d="M0 0 C12.22153256 -0.02313273 24.44305994 -0.04091986 36.66460991 -0.05181217 C42.33907721 -0.05703895 48.01352958 -0.06413291 53.68798828 -0.07543945 C59.16037265 -0.08627557 64.63274261 -0.09227838 70.10513687 -0.09487724 C72.19680127 -0.09673018 74.28846484 -0.10034829 76.38012314 -0.10573006 C79.30144731 -0.11295007 82.22271136 -0.11399053 85.14404297 -0.11352539 C86.01582184 -0.11712067 86.88760071 -0.12071594 87.78579712 -0.12442017 C93.77189568 -0.11405216 93.77189568 -0.11405216 96 1 C96.05406122 2.93719378 96.09282025 4.87481921 96.125 6.8125 C96.14820313 7.89144531 96.17140625 8.97039062 96.1953125 10.08203125 C96 13 96 13 94 16 C94.495 9.565 94.495 9.565 95 3 C63.32 3 31.64 3 -1 3 C-0.67 2.01 -0.34 1.02 0 0 Z " fill="#FAD6D1" transform="translate(266,193)"/>
<path d="M0 0 C2.769807 2.39102997 3.84454644 4.63546469 5.0625 8.0625 C5.38347656 8.94035156 5.70445312 9.81820312 6.03515625 10.72265625 C13.01864078 34.44388508 8.55940038 55.78572287 -3 77 C-3.495 77.99 -3.495 77.99 -4 79 C-4.66 79 -5.32 79 -6 79 C-6.2475 79.763125 -6.495 80.52625 -6.75 81.3125 C-8.10995558 84.2364045 -9.31585826 85.30004356 -12 87 C-10.125 82.25 -10.125 82.25 -9 80 C-8.34 80 -7.68 80 -7 80 C-6.896875 79.443125 -6.79375 78.88625 -6.6875 78.3125 C-6 76 -6 76 -4.4375 73.625 C-2.73945802 70.52422769 -2.75705481 68.48221436 -3 65 C-1.68 65 -0.36 65 1 65 C2.24220774 59.68142124 3.27069583 54.41768812 4 49 C4.16113281 48.22398437 4.32226562 47.44796875 4.48828125 46.6484375 C5.02125526 43.88999185 5.35540349 41.17110096 5.625 38.375 C5.76808594 36.96347656 5.76808594 36.96347656 5.9140625 35.5234375 C6.15101248 32.8724809 6.15101248 32.8724809 5 30 C4.87165605 27.64702758 4.77134967 25.29247784 4.6875 22.9375 C4.40881186 17.13883097 3.41687785 12.37587323 0.83984375 7.1484375 C-0.13943697 4.64330078 -0.145026 2.66660715 0 0 Z " fill="#B577E7" transform="translate(188,159)"/>
<path d="M0 0 C8.85465602 -0.31876762 16.65883444 -0.30613471 25 3 C25.66773438 3.23976562 26.33546875 3.47953125 27.0234375 3.7265625 C32.68314356 5.89969858 35.35867224 8.71734448 38 14 C38.99 14.66 39.98 15.32 41 16 C41.66666667 17.66666667 42.33333333 19.33333333 43 21 C43.99 21.66 44.98 22.32 46 23 C46.74259349 25.31029085 47.411438 27.645752 48 30 C48.495 30.99 48.495 30.99 49 32 C48.505 32.99 48.505 32.99 48 34 C48.63421875 33.90460938 49.2684375 33.80921875 49.921875 33.7109375 C60.08783041 32.50337926 69.88380086 33.79045445 80 35 C80 32.69 80 30.38 80 28 C80.33 28 80.66 28 81 28 C81 30.64 81 33.28 81 36 C76.19450253 36.02468447 71.38904182 36.04285255 66.58349609 36.05493164 C64.94807289 36.05996621 63.3126542 36.06679427 61.67724609 36.07543945 C59.32909025 36.08754335 56.98099381 36.093237 54.6328125 36.09765625 C53.53273361 36.10539818 53.53273361 36.10539818 52.41043091 36.11329651 C47.22774341 36.11387171 47.22774341 36.11387171 45 35 C44.3671875 32.49609375 44.3671875 32.49609375 43.875 29.4375 C43.62363281 27.91962891 43.62363281 27.91962891 43.3671875 26.37109375 C43.18542969 25.19740234 43.18542969 25.19740234 43 24 C42.34 24 41.68 24 41 24 C40.566875 22.865625 40.13375 21.73125 39.6875 20.5625 C35.65265778 12.53558774 27.24925498 6.66971125 18.90234375 3.70703125 C12.69839525 2.19570598 6.34691197 1.59846813 0 1 C0 0.67 0 0.34 0 0 Z " fill="#F5C3A4" transform="translate(280,148)"/>
<path d="M0 0 C19.14 0 38.28 0 58 0 C58 15.58033694 52.08937416 34.37772685 41 46 C37.625 47.5 37.625 47.5 35 48 C34.505 48.99 34.505 48.99 34 50 C33 49 33 49 32.9375 45.9375 C32.958125 44.968125 32.97875 43.99875 33 43 C33.7425 43.2475 34.485 43.495 35.25 43.75 C38.12546153 44.32823819 38.12546153 44.32823819 40.3125 42.1875 C42.20360115 40.19653167 42.20360115 40.19653167 42 38 C42.66 38 43.32 38 44 38 C44 37.01 44 36.02 44 35 C44.66 35 45.32 35 46 35 C46 34.34 46 33.68 46 33 C46.66 33 47.32 33 48 33 C48.185625 31.4221875 48.185625 31.4221875 48.375 29.8125 C48.91140782 26.54041229 49.63880035 23.99463924 51 21 C51.66 21 52.32 21 53 21 C53 18.69 53 16.38 53 14 C53.66 14 54.32 14 55 14 C55.66 10.04 56.32 6.08 57 2 C38.19 2 19.38 2 0 2 C0 1.34 0 0.68 0 0 Z " fill="#F3A193" transform="translate(303,196)"/>
<path d="M0 0 C2.33678478 2.10832817 3.56323271 3.85471969 4.625 6.8125 C4.86476562 7.45832031 5.10453125 8.10414063 5.3515625 8.76953125 C7.03248343 14.55149421 7.19283319 20.21550917 7.1875 26.1875 C7.18737915 27.44409424 7.18737915 27.44409424 7.18725586 28.72607422 C7.03829069 44.96170931 7.03829069 44.96170931 4 48 C3.71778828 50.58022142 3.55179803 53.16030185 3.37890625 55.75 C3.19134766 56.86375 3.19134766 56.86375 3 58 C2.01 58.495 2.01 58.495 1 59 C-1.09486699 62.38340781 -2.78713271 65.82922988 -3.5 69.75 C-4.17090393 72.76906768 -5.74793311 73.95906438 -8 76 C-8.495 76.99 -8.495 76.99 -9 78 C-9.66 78 -10.32 78 -11 78 C-11.103125 78.61875 -11.20625 79.2375 -11.3125 79.875 C-12 82 -12 82 -15 84 C-17.1875 83.625 -17.1875 83.625 -19 83 C-18.43410156 82.37351562 -17.86820313 81.74703125 -17.28515625 81.1015625 C-16.55167969 80.28429687 -15.81820312 79.46703125 -15.0625 78.625 C-14.33160156 77.81289062 -13.60070312 77.00078125 -12.84765625 76.1640625 C-10.97010529 74.14075833 -10.97010529 74.14075833 -10 72 C-9.34 72 -8.68 72 -8 72 C-7.74089844 71.1440625 -7.48179687 70.288125 -7.21484375 69.40625 C-5.95499938 65.87382463 -4.35146602 62.79323638 -2.5625 59.5 C6.10523692 42.56512644 6.45301664 22.05428826 1 4 C0.65987104 2.668384 0.32371131 1.33570202 0 0 Z " fill="#F6E1FC" transform="translate(192,166)"/>
<path d="M0 0 C3.94782614 1.00795561 7.50724627 2.18467842 11.1875 3.9375 C27.02317877 11.0079452 47.15102868 11.51909796 63.54296875 5.75390625 C65.83398367 4.87197793 68.1153033 3.96415475 70.3828125 3.0234375 C73 2 73 2 75 2 C74.33984375 3.8984375 74.33984375 3.8984375 73 6 C70.50390625 6.9765625 70.50390625 6.9765625 67.5625 7.625 C64.04625099 8.42095517 62.0430843 8.97127713 59 11 C43.78679065 15.02859633 23.24038459 13.86033126 9 7 C8.34 6.34 7.68 5.68 7 5 C5.4840625 4.5359375 5.4840625 4.5359375 3.9375 4.0625 C2.968125 3.711875 1.99875 3.36125 1 3 C0.67 2.01 0.34 1.02 0 0 Z " fill="#E2F4FA" transform="translate(80,261)"/>
<path d="M0 0 C0.33 0 0.66 0 1 0 C1.19491452 1.45736087 1.38069358 2.91594593 1.5625 4.375 C1.66691406 5.18710938 1.77132812 5.99921875 1.87890625 6.8359375 C2 9 2 9 1 11 C1.66 11.66 2.32 12.32 3 13 C2.625 15.125 2.625 15.125 2 17 C-0.31 16.67 -2.62 16.34 -5 16 C-5.02891949 20.29165262 -5.04677118 24.58328036 -5.0625 28.875 C-5.07087891 30.09832031 -5.07925781 31.32164062 -5.08789062 32.58203125 C-5.09111328 33.74863281 -5.09433594 34.91523438 -5.09765625 36.1171875 C-5.10289307 37.19597168 -5.10812988 38.27475586 -5.11352539 39.38623047 C-5.17883106 41.98232186 -5.17883106 41.98232186 -4 44 C-3.93003986 45.70702735 -3.91559846 47.41668003 -3.9375 49.125 C-3.94652344 50.03507812 -3.95554688 50.94515625 -3.96484375 51.8828125 C-3.97644531 52.58148438 -3.98804688 53.28015625 -4 54 C-10.20545354 44.6918197 -9.33846219 28.42204317 -7.63085938 17.67724609 C-6.47082423 12.12512042 -5.17222124 6.75833186 -2 2 C-1.34 2 -0.68 2 0 2 C0 1.34 0 0.68 0 0 Z " fill="#BA72E1" transform="translate(215,160)"/>
<path d="M0 0 C0.69416016 -0.00386719 1.38832031 -0.00773437 2.10351562 -0.01171875 C5.84083371 -0.00462033 9.30460894 0.23271097 12.9375 1.125 C12.9375 1.455 12.9375 1.785 12.9375 2.125 C12.23254395 2.1751123 11.52758789 2.22522461 10.80126953 2.27685547 C7.5545052 2.51138832 4.30853858 2.7556353 1.0625 3 C-0.60039063 3.11794922 -0.60039063 3.11794922 -2.296875 3.23828125 C-14.02226383 3.44504199 -14.02226383 3.44504199 -24.0625 8.125 C-25.7640625 8.3415625 -25.7640625 8.3415625 -27.5 8.5625 C-30.98347309 8.74738091 -30.98347309 8.74738091 -32.5 10.60546875 C-34.50112679 12.55156456 -35.89141238 12.63071798 -38.625 13 C-40.99422603 13.39095841 -40.99422603 13.39095841 -43.0625 14.125 C-44.73863187 16.59514472 -44.73863187 16.59514472 -45.0625 19.125 C-46.3825 19.125 -47.7025 19.125 -49.0625 19.125 C-49.3925 20.115 -49.7225 21.105 -50.0625 22.125 C-51.3825 21.795 -52.7025 21.465 -54.0625 21.125 C-39.30200016 7.78377899 -19.96724303 -0.11186131 0 0 Z " fill="#A87FE9" transform="translate(120.0625,115.875)"/>
<path d="M0 0 C0.66 0 1.32 0 2 0 C7.13854415 7.91473747 7.13854415 7.91473747 6.625 11.9375 C4.65314288 14.44024172 2.92714812 14.8741738 0 16 C-0.36548445 17.32488113 -0.6937566 18.66018514 -1 20 C-3.73239505 23.02778911 -6.58192072 25.76056875 -10 28 C-10.66 28 -11.32 28 -12 28 C-12 29.32 -12 30.64 -12 32 C-14.97234301 34.48847322 -16.97499518 35.91086915 -20.875 36.25 C-21.57625 36.1675 -22.2775 36.085 -23 36 C-23 35.01 -23 34.02 -23 33 C-23.66 33 -24.32 33 -25 33 C-26.01866229 31.34467377 -27.01810813 29.67739862 -28 28 C-28.66 27.67 -29.32 27.34 -30 27 C-31.61287128 23.18004171 -32.20681069 20.94567184 -31 17 C-30.39671875 18.0828125 -29.7934375 19.165625 -29.171875 20.28125 C-28.36536718 21.68794969 -27.55803245 23.09417552 -26.75 24.5 C-26.35425781 25.21542969 -25.95851563 25.93085938 -25.55078125 26.66796875 C-25.15761719 27.34472656 -24.76445313 28.02148438 -24.359375 28.71875 C-23.82521973 29.66137695 -23.82521973 29.66137695 -23.28027344 30.62304688 C-22.64653809 31.30463867 -22.64653809 31.30463867 -22 32 C-16.12254689 32 -14.18464378 28.76802381 -10.13476562 24.77929688 C-9.65177002 24.29195068 -9.16877441 23.80460449 -8.67114258 23.30249023 C-7.19227777 21.81729821 -5.68876689 20.36073449 -4.18164062 18.90429688 C-3.24900391 17.97294922 -2.31636719 17.04160156 -1.35546875 16.08203125 C-0.06612427 14.80162964 -0.06612427 14.80162964 1.24926758 13.49536133 C3.27179467 11.14853708 3.27179467 11.14853708 2.8972168 8.36987305 C2.02150286 5.78940921 2.02150286 5.78940921 0 3 C0 2.01 0 1.02 0 0 Z " fill="#E5F5F8" transform="translate(80,208)"/>
<path d="M0 0 C0.66 0.33 1.32 0.66 2 1 C1.67 1.66 1.34 2.32 1 3 C0.34 3 -0.32 3 -1 3 C-1.27714844 3.71929687 -1.55429688 4.43859375 -1.83984375 5.1796875 C-2.96192552 7.90744183 -4.21826106 10.50072458 -5.5625 13.125 C-10.05745686 21.90150331 -10.59777759 32.66189647 -8.17578125 42.26953125 C-6.93633989 45.34279292 -5.49823334 48.16309824 -3.8046875 51.0078125 C-3 53 -3 53 -3.15234375 55.046875 C-4.21061384 57.48528535 -5.49536732 58.59629386 -7.5625 60.25 C-8.52349609 61.03117187 -8.52349609 61.03117187 -9.50390625 61.828125 C-9.99761719 62.21484375 -10.49132812 62.6015625 -11 63 C-10.203125 59.1796875 -10.203125 59.1796875 -8.375 57.5625 C-7.92125 57.046875 -7.4675 56.53125 -7 56 C-7.18068911 53.51176074 -7.18068911 53.51176074 -8 51 C-8.185625 50.236875 -8.37125 49.47375 -8.5625 48.6875 C-8.706875 48.130625 -8.85125 47.57375 -9 47 C-9.99 47.495 -9.99 47.495 -11 48 C-11.44277596 44.33919162 -11.73438704 40.67771789 -12 37 C-12.11472656 35.69546875 -12.22945313 34.3909375 -12.34765625 33.046875 C-13.05448895 21.6658056 -10.19444935 13.52905256 -4 4 C-1.734375 1.55078125 -1.734375 1.55078125 0 0 Z " fill="#77BBED" transform="translate(87,163)"/>
<path d="M0 0 C0.66 0 1.32 0 2 0 C2.226875 0.721875 2.45375 1.44375 2.6875 2.1875 C4.27485382 5.58897247 6.2869353 7.41025643 9 10 C9.92319735 11.14057812 10.83951521 12.28674839 11.75 13.4375 C15.20166566 17.55781294 19.43783471 20.23228639 24 23 C23.67 24.65 23.34 26.3 23 28 C21.35 28 19.7 28 18 28 C16.9375 26.1875 16.9375 26.1875 16 24 C16.33 23.01 16.66 22.02 17 21 C16.01 21 15.02 21 14 21 C13.34 20.01 12.68 19.02 12 18 C8.93443402 17.26656572 8.93443402 17.26656572 6 17 C5.67 14.69 5.34 12.38 5 10 C4.01 10.66 3.02 11.32 2 12 C0.48046875 10.79296875 0.48046875 10.79296875 -1 9 C-1.07421875 6.73828125 -1.07421875 6.73828125 -0.6875 4.3125 C-0.56761719 3.50425781 -0.44773438 2.69601563 -0.32421875 1.86328125 C-0.21722656 1.24839844 -0.11023438 0.63351563 0 0 Z " fill="#C16CDC" transform="translate(242,207)"/>
<path d="M0 0 C0.96974128 3.87896512 0.99763073 4.50151736 0 8 C-0.90405282 19.60201117 -0.15582095 30.79825716 3 42 C3.28617188 43.01578125 3.57234375 44.0315625 3.8671875 45.078125 C4.54729666 47.39697337 5.25337425 49.70187534 6 52 C5.34 52 4.68 52 4 52 C0.2833778 43.51574359 -1.99880945 35.25433265 -3.74316406 26.1862793 C-4.17370071 22.2722986 -4.17370071 22.2722986 -6 19 C-6.23961213 14.76685233 -6.32488647 11.63263511 -4 8 C-3.67 8.33 -3.34 8.66 -3 9 C-2.01 6.03 -1.02 3.06 0 0 Z " fill="#FBE7F9" transform="translate(208,172)"/>
<path d="M0 0 C0 4.03306015 -1.55210364 6.95490849 -3.125 10.625 C-4.17285268 13.04732871 -4.17285268 13.04732871 -4 16 C-3.01 15.67 -2.02 15.34 -1 15 C-1 14.34 -1 13.68 -1 13 C0.32 13.66 1.64 14.32 3 15 C0.03 17.97 -2.94 20.94 -6 24 C-7 21 -7 21 -6 18 C-6.99 17.34 -7.98 16.68 -9 16 C-9 15.34 -9 14.68 -9 14 C-9.928125 14.845625 -10.85625 15.69125 -11.8125 16.5625 C-13.39453125 18.00390625 -13.39453125 18.00390625 -15 19 C-15.99 18.67 -16.98 18.34 -18 18 C-12 12 -6 6 0 0 Z " fill="#7796F8" transform="translate(130,188)"/>
<path d="M0 0 C0.66 0 1.32 0 2 0 C2 0.66 2 1.32 2 2 C3.32 2.66 4.64 3.32 6 4 C5.34 5.98 4.68 7.96 4 10 C3.113125 9.79375 2.22625 9.5875 1.3125 9.375 C-2.3092752 8.96498771 -3.79379192 9.39689596 -7 11 C-7.639375 11.28875 -8.27875 11.5775 -8.9375 11.875 C-11.7469986 13.40745378 -14.3574632 15.19827036 -17 17 C-17.66 16.67 -18.32 16.34 -19 16 C-17.83202835 14.83202835 -16.66285145 13.66524186 -15.48828125 12.50390625 C-14.48541051 11.49050668 -13.50368922 10.45578791 -12.54296875 9.40234375 C-9.2240179 5.83819337 -6.75687084 4.40543911 -2 3 C-1.34 2.01 -0.68 1.02 0 0 Z " fill="#6AA1FA" transform="translate(119,202)"/>
<path d="M0 0 C0.8125 1.6875 0.8125 1.6875 1 4 C-1.125 6.4375 -1.125 6.4375 -4 9 C-4.928125 9.928125 -5.85625 10.85625 -6.8125 11.8125 C-7.534375 12.534375 -8.25625 13.25625 -9 14 C-8.278125 13.79375 -7.55625 13.5875 -6.8125 13.375 C-4 13 -4 13 -1.8125 13.9375 C5.40092049 16.66256996 12.01323592 15.04241782 18.87109375 12.0703125 C21.20645439 10.95036797 21.20645439 10.95036797 24 9 C26.1875 9.375 26.1875 9.375 28 10 C17.96268219 17.66005833 6.32829357 18.23297872 -5.92578125 16.61328125 C-8.375 16.125 -8.375 16.125 -12 15 C-12.33 14.34 -12.66 13.68 -13 13 C-8.96476648 8.18876004 -4.95532767 3.86757281 0 0 Z " fill="#E3F4FB" transform="translate(116,219)"/>
<path d="M0 0 C0.99 0.33 1.98 0.66 3 1 C2.41197376 4.2598348 1.57826636 7.20983593 0.4375 10.3125 C-2.63620628 20.50746636 -2.12786311 31.26382027 2.22265625 40.9609375 C2.47917969 41.63382813 2.73570312 42.30671875 3 43 C2.67 43.66 2.34 44.32 2 45 C-3.21280324 39.78719676 -4.26210749 32.79404993 -4.390625 25.6796875 C-4.36434367 23.07783547 -4.31709237 20.47611963 -4.25 17.875 C-4.22988593 16.52346424 -4.2116439 15.17189926 -4.1953125 13.8203125 C-4.14853822 10.54611309 -4.0830014 7.27344752 -4 4 C-3.34 4 -2.68 4 -2 4 C-2 3.34 -2 2.68 -2 2 C-1.34 2 -0.68 2 0 2 C0 1.34 0 0.68 0 0 Z " fill="#CE70C3" transform="translate(244,168)"/>
<path d="M0 0 C0.66 0.99 1.32 1.98 2 3 C1.525625 3.515625 1.05125 4.03125 0.5625 4.5625 C-1.42809407 7.66782675 -1.65060818 10.36632504 -2 14 C-2.99 14 -3.98 14 -5 14 C-5.33 13.34 -5.66 12.68 -6 12 C-6.4125 13.155 -6.825 14.31 -7.25 15.5 C-11.61767036 27.07844691 -11.61767036 27.07844691 -16 30 C-15.67 27.69 -15.34 25.38 -15 23 C-14.34 23 -13.68 23 -13 23 C-13.020625 21.9275 -13.04125 20.855 -13.0625 19.75 C-12.30699246 13.18652824 -7.30369715 7.73801521 -3 3 C-2.34 3 -1.68 3 -1 3 C-0.67 2.01 -0.34 1.02 0 0 Z " fill="#7FA6F0" transform="translate(65,138)"/>
<path d="M0 0 C1.42989258 -0.01836914 1.42989258 -0.01836914 2.88867188 -0.03710938 C3.79810547 -0.03904297 4.70753906 -0.04097656 5.64453125 -0.04296875 C6.46928955 -0.04707764 7.29404785 -0.05118652 8.14379883 -0.05541992 C10.1875 0.1875 10.1875 0.1875 12.1875 2.1875 C10.38152344 2.15269531 10.38152344 2.15269531 8.5390625 2.1171875 C6.96354785 2.09843137 5.38802652 2.08023101 3.8125 2.0625 C3.0184375 2.04574219 2.224375 2.02898437 1.40625 2.01171875 C-0.66742015 1.99414527 -2.74133241 2.08414832 -4.8125 2.1875 C-5.4725 2.8475 -6.1325 3.5075 -6.8125 4.1875 C-7.1425 3.5275 -7.4725 2.8675 -7.8125 2.1875 C-8.4725 2.1875 -9.1325 2.1875 -9.8125 2.1875 C-10.1425 3.5075 -10.4725 4.8275 -10.8125 6.1875 C-11.5859375 6.16429688 -12.359375 6.14109375 -13.15625 6.1171875 C-19.4870609 6.00749523 -24.7485873 6.41014628 -30.8125 8.1875 C-32.80851306 8.5439309 -34.807345 8.88672675 -36.8125 9.1875 C-33.41064068 6.24209269 -29.71873293 4.91717737 -25.5 3.5625 C-24.86126953 3.3459375 -24.22253906 3.129375 -23.56445312 2.90625 C-15.71011735 0.32792701 -8.18090216 0.0056459 0 0 Z " fill="#F3AC9A" transform="translate(285.8125,113.8125)"/>
<path d="M0 0 C0.66 0 1.32 0 2 0 C2 0.99 2 1.98 2 3 C2.99 3 3.98 3 5 3 C4.835 3.639375 4.67 4.27875 4.5 4.9375 C3.86665106 7.55006439 4.09051772 9.68509707 4.3125 12.375 C4.37050781 13.16648438 4.42851562 13.95796875 4.48828125 14.7734375 C5.09460411 17.41163622 5.82975605 18.40883556 8 20 C10.65466049 19.76956136 10.65466049 19.76956136 13 19 C12.67 19.928125 12.34 20.85625 12 21.8125 C10.85032996 24.92029291 10.85032996 24.92029291 11 28 C9.19921875 27.8671875 9.19921875 27.8671875 7 27 C5.33203125 24.3828125 5.33203125 24.3828125 3.8125 21.125 C3.30332031 20.05507812 2.79414063 18.98515625 2.26953125 17.8828125 C0.37211791 13.57422466 -0.11285939 10.49592335 -0.0625 5.8125 C-0.05347656 4.72582031 -0.04445312 3.63914063 -0.03515625 2.51953125 C-0.02355469 1.68808594 -0.01195312 0.85664063 0 0 Z " fill="#A873E2" transform="translate(211,205)"/>
<path d="M0 0 C2.31 0.33 4.62 0.66 7 1 C-3.17225214 11.83278799 -15.39809485 17.22158962 -30 18 C-29.34 16.68 -28.68 15.36 -28 14 C-26.35 14 -24.7 14 -23 14 C-23 14.66 -23 15.32 -23 16 C-19.04 14.35 -15.08 12.7 -11 11 C-11 10.01 -11 9.02 -11 8 C-10.236875 8.061875 -9.47375 8.12375 -8.6875 8.1875 C-5.49660032 7.96487909 -5.03893855 7.31697562 -3 5 C-2.01 4.67 -1.02 4.34 0 4 C0 2.68 0 1.36 0 0 Z " fill="#69AEEC" transform="translate(164,250)"/>
<path d="M0 0 C2.68631455 8.34072491 -3.50610237 17.37096002 -7.21850586 24.64160156 C-8.14113722 26.4300803 -9.07011251 28.21528319 -10 30 C-10.33 30.66 -10.66 31.32 -11 32 C-11.66 32 -12.32 32 -13 32 C-13.2475 32.763125 -13.495 33.52625 -13.75 34.3125 C-15.10995558 37.2364045 -16.31585826 38.30004356 -19 40 C-17.125 35.25 -17.125 35.25 -16 33 C-15.34 33 -14.68 33 -14 33 C-13.896875 32.443125 -13.79375 31.88625 -13.6875 31.3125 C-13 29 -13 29 -11.4375 26.625 C-9.73945802 23.52422769 -9.75705481 21.48221436 -10 18 C-8.68 18 -7.36 18 -6 18 C-5.90203125 17.45472656 -5.8040625 16.90945312 -5.703125 16.34765625 C-4.54000257 10.48190953 -2.61460097 5.36881656 0 0 Z " fill="#9685EC" transform="translate(195,206)"/>
<path d="M0 0 C0.66 0.33 1.32 0.66 2 1 C1.9278125 1.73605469 1.855625 2.47210938 1.78125 3.23046875 C1.6884375 4.20628906 1.595625 5.18210938 1.5 6.1875 C1.4071875 7.15042969 1.314375 8.11335937 1.21875 9.10546875 C1.01875156 11.75187667 0.96120817 14.34760865 1 17 C1.66 17 2.32 17 3 17 C2.96519531 17.56847656 2.93039063 18.13695312 2.89453125 18.72265625 C2.69777488 24.33489751 3.24138391 28.07389983 6 33 C6.70125 33.495 7.4025 33.99 8.125 34.5 C10 36 10 36 10.75 39.6875 C10.87375 41.3271875 10.87375 41.3271875 11 43 C10.01 43 9.02 43 8 43 C1.49842903 32.12978451 -1.18584823 22.33379016 -1.125 9.6875 C-1.12886719 8.86443359 -1.13273437 8.04136719 -1.13671875 7.19335938 C-1.12671604 1.12671604 -1.12671604 1.12671604 0 0 Z " fill="#5DB7F3" transform="translate(45,191)"/>
<path d="M0 0 C0.87180908 0.21438721 0.87180908 0.21438721 1.76123047 0.43310547 C8.62414675 1.97965913 15.10961595 2.24103053 22.125 2.125 C23.176875 2.11597656 24.22875 2.10695312 25.3125 2.09765625 C27.87524878 2.07435853 30.43749512 2.04165112 33 2 C32.67 2.66 32.34 3.32 32 4 C31.34 4 30.68 4 30 4 C29.67 4.99 29.34 5.98 29 7 C29 6.34 29 5.68 29 5 C23.6913151 5.58174845 23.6913151 5.58174845 19 8 C15.5 8.3125 15.5 8.3125 12 8 C10.375 6.5625 10.375 6.5625 9 5 C8.195625 4.855625 7.39125 4.71125 6.5625 4.5625 C3.34399364 3.8559986 2.12802304 2.44328571 0 0 Z " fill="#D275CD" transform="translate(266,231)"/>
<path d="M0 0 C0.66 0.33 1.32 0.66 2 1 C-0.57784846 3.64752004 -2.91648098 5.94432065 -6 8 C-6.33 8.99 -6.66 9.98 -7 11 C-7.33 10.01 -7.66 9.02 -8 8 C-8.66 8 -9.32 8 -10 8 C-10.33 8.66 -10.66 9.32 -11 10 C-13.3984375 10.484375 -13.3984375 10.484375 -16.375 10.75 C-17.35210937 10.84796875 -18.32921875 10.9459375 -19.3359375 11.046875 C-22 11 -22 11 -25 9 C-26.88033997 8.40678131 -28.77870208 7.86904181 -30.6875 7.375 C-32.17830078 6.98441406 -32.17830078 6.98441406 -33.69921875 6.5859375 C-34.83810547 6.29589844 -34.83810547 6.29589844 -36 6 C-32.98968256 5.06576355 -32.13349732 4.95550089 -29 6 C-18.66581146 6.65136704 -8.40485279 6.77321094 0 0 Z " fill="#85BFF1" transform="translate(142,229)"/>
<path d="M0 0 C1.04055458 3.15681762 0.99104495 4.8653054 -0.25 7.9375 C-0.50265625 8.58589844 -0.7553125 9.23429688 -1.015625 9.90234375 C-2 12 -2 12 -3.54321289 14.28613281 C-5.18233864 17.33968096 -5.35052728 19.08520543 -5.29296875 22.51953125 C-5.28330078 23.54111328 -5.27363281 24.56269531 -5.26367188 25.61523438 C-5.2259668 27.19788086 -5.2259668 27.19788086 -5.1875 28.8125 C-5.17396484 29.88693359 -5.16042969 30.96136719 -5.14648438 32.06835938 C-5.11122577 34.71275455 -5.06194366 37.35611748 -5 40 C-9.5421668 33.1867498 -8.83907377 23.94129497 -8 16 C-6.3553157 9.96102407 -3.88464228 4.89852252 0 0 Z " fill="#DAECF9" transform="translate(85,168)"/>
<path d="M0 0 C1.1446875 0.3403125 1.1446875 0.3403125 2.3125 0.6875 C0.88887507 2.34839575 -0.53508734 4.00898195 -1.9609375 5.66796875 C-3.09805215 6.99803272 -4.22846303 8.33386193 -5.3515625 9.67578125 C-5.87492187 10.29839844 -6.39828125 10.92101562 -6.9375 11.5625 C-7.41703125 12.13742188 -7.8965625 12.71234375 -8.390625 13.3046875 C-9.6875 14.6875 -9.6875 14.6875 -11.6875 15.6875 C-11.378125 16.30625 -11.06875 16.925 -10.75 17.5625 C-10.0625 18.9375 -9.375 20.3125 -8.6875 21.6875 C-10.6675 21.0275 -12.6475 20.3675 -14.6875 19.6875 C-14.6875 16.3875 -14.6875 13.0875 -14.6875 9.6875 C-10.92062136 7.80406068 -9.65791037 7.46692165 -5.6875 7.6875 C-5.749375 6.924375 -5.81125 6.16125 -5.875 5.375 C-5.6875 2.6875 -5.6875 2.6875 -4.5 0.8125 C-2.6875 -0.3125 -2.6875 -0.3125 0 0 Z " fill="#EBF6F7" transform="translate(80.6875,234.3125)"/>
<path d="M0 0 C0.66 0 1.32 0 2 0 C1.9278125 0.64324219 1.855625 1.28648437 1.78125 1.94921875 C0.40004046 15.39682825 -0.17430307 30.02649736 5.1640625 42.78125 C6 45 6 45 5 48 C2.77435323 43.93577546 1.7397295 40.54405263 1 36 C0.34 35.67 -0.32 35.34 -1 35 C-3.33031199 23.87605784 -3.06069481 10.90372525 0 0 Z " fill="#CCEBF9" transform="translate(42,176)"/>
<path d="M0 0 C5.61 0 11.22 0 17 0 C17.495 0.99 17.495 0.99 18 2 C8.46561751 4.5027754 -4.92023129 7.93304704 -14.4609375 3.98046875 C-15.22277344 3.49513672 -15.22277344 3.49513672 -16 3 C-10.47032059 2.28966569 -5.50016964 1.69732824 0 3 C0 2.01 0 1.02 0 0 Z " fill="#BA6BDE" transform="translate(288,264)"/>
<path d="M0 0 C7.26 0 14.52 0 22 0 C22 0.33 22 0.66 22 1 C17.05 1.33 12.1 1.66 7 2 C6.67 3.98 6.34 5.96 6 8 C10.29 8.33 14.58 8.66 19 9 C19 9.33 19 9.66 19 10 C12.73 10 6.46 10 0 10 C0 6.7 0 3.4 0 0 Z " fill="#D371AB" transform="translate(266,196)"/>
<path d="M0 0 C0.99 0.33 1.98 0.66 3 1 C1.68 2.32 0.36 3.64 -1 5 C-0.34 5.33 0.32 5.66 1 6 C-1 6 -3 6 -5 6 C-11.66932524 6.97260993 -15.54663602 10.63917251 -20.546875 15.00390625 C-23 17 -23 17 -26 18 C-25.65815229 15.06142453 -25.05827414 14.05622375 -22.890625 11.96484375 C-22.01921875 11.29582031 -21.1478125 10.62679687 -20.25 9.9375 C-18.95835937 8.93009766 -18.95835937 8.93009766 -17.640625 7.90234375 C-13.8278912 5.15559617 -10.44596523 2.86084367 -5.8125 1.875 C-2.21987582 1.2081898 -2.21987582 1.2081898 0 0 Z " fill="#EC829A" transform="translate(257,120)"/>
<path d="M0 0 C1.98 0.66 3.96 1.32 6 2 C6 2.33 6 2.66 6 3 C4.98421875 3.14695313 3.9684375 3.29390625 2.921875 3.4453125 C-5.33278044 4.75132698 -12.16577853 6.55117733 -19.546875 10.6953125 C-21.74427332 11.8639925 -23.57123792 12.53467642 -26 13 C-25.3125 11.125 -25.3125 11.125 -24 9 C-22.35448038 8.28272222 -20.68577711 7.61674772 -19 7 C-18.2265625 6.195625 -18.2265625 6.195625 -17.4375 5.375 C-16 4 -16 4 -12 4 C-12 3.34 -12 2.68 -12 2 C-11.21753906 1.93941406 -10.43507813 1.87882813 -9.62890625 1.81640625 C-8.11103516 1.69072266 -8.11103516 1.69072266 -6.5625 1.5625 C-5.55316406 1.48128906 -4.54382813 1.40007812 -3.50390625 1.31640625 C-1.06359221 1.26788532 -1.06359221 1.26788532 0 0 Z " fill="#EA8295" transform="translate(282,145)"/>
<path d="M0 0 C-2.15756857 0.69350418 -3.56579557 1.11329392 -5.78808594 0.53344727 C-8.46606495 -0.11240087 -10.8861935 -0.11230748 -13.640625 -0.09765625 C-15.24550781 -0.09282227 -15.24550781 -0.09282227 -16.8828125 -0.08789062 C-17.99398438 -0.07951172 -19.10515625 -0.07113281 -20.25 -0.0625 C-21.37664062 -0.05798828 -22.50328125 -0.05347656 -23.6640625 -0.04882812 C-26.44276217 -0.03705397 -29.22135409 -0.0206084 -32 0 C-32 0.66 -32 1.32 -32 2 C-31.34 2.33 -30.68 2.66 -30 3 C-30.66 3 -31.32 3 -32 3 C-32.33 3.99 -32.66 4.98 -33 6 C-33.33 5.34 -33.66 4.68 -34 4 C-35.98 4 -37.96 4 -40 4 C-31.33068304 -6.70915624 -11.22893322 -4.43873125 0 0 Z " fill="#FDE2D2" transform="translate(302,152)"/>
<path d="M0 0 C0.99 0 1.98 0 3 0 C4.31457484 3.94372453 3.76330208 5.25298309 2 9 C0.2721655 10.68311408 -1.51662262 12.15287736 -3.44140625 13.60546875 C-5.28255048 15.02075321 -5.28255048 15.02075321 -6 18 C-8.875 19.75 -8.875 19.75 -12 21 C-12.99 20.67 -13.98 20.34 -15 20 C-14.13375 19.360625 -13.2675 18.72125 -12.375 18.0625 C-8.83464175 15.15974181 -6.65519886 11.67913145 -4.296875 7.79296875 C-3.86890625 7.20128906 -3.4409375 6.60960937 -3 6 C-2.34 6 -1.68 6 -1 6 C-0.67 4.02 -0.34 2.04 0 0 Z " fill="#E47EA0" transform="translate(324,206)"/>
<path d="M0 0 C1.45945288 0.08708669 2.91765868 0.19526907 4.375 0.3125 C5.59316406 0.39951172 5.59316406 0.39951172 6.8359375 0.48828125 C9 1 9 1 11 4 C13.20746332 4.4320056 13.20746332 4.4320056 15.75390625 4.328125 C16.69041016 4.32296875 17.62691406 4.3178125 18.59179688 4.3125 C19.57212891 4.291875 20.55246094 4.27125 21.5625 4.25 C22.54669922 4.24484375 23.53089844 4.2396875 24.54492188 4.234375 C29.11335344 4.60070637 29.11335344 4.60070637 33 3 C34.99958364 2.95919217 37.00045254 2.95745644 39 3 C35.14439592 6.85560408 30.99385713 7.27715139 25.76757812 7.37963867 C24.99865234 7.37810791 24.22972656 7.37657715 23.4375 7.375 C22.64408203 7.37411377 21.85066406 7.37322754 21.03320312 7.37231445 C14.31490602 7.2383565 8.00083414 6.2040168 2 3 C1.34 2.01 0.68 1.02 0 0 Z " fill="#F8D5F0" transform="translate(262,227)"/>
<path d="M0 0 C4.10146797 1.36715599 4.82059566 3.41259593 7.0625 7.0625 C7.75472656 8.16722656 8.44695312 9.27195313 9.16015625 10.41015625 C12.75252814 16.90613699 13.32739543 23.5050813 13.25 30.8125 C13.25773438 31.56208984 13.26546875 32.31167969 13.2734375 33.08398438 C13.25974378 36.91480258 13.17235592 38.74146612 11 42 C11 34.08 11 26.16 11 18 C9.68 17.67 8.36 17.34 7 17 C6.87882813 16.38511719 6.75765625 15.77023438 6.6328125 15.13671875 C6.46523437 14.32847656 6.29765625 13.52023438 6.125 12.6875 C5.88136719 11.48673828 5.88136719 11.48673828 5.6328125 10.26171875 C5.05521001 7.74698882 5.05521001 7.74698882 3 5 C2.01 5 1.02 5 0 5 C0 3.35 0 1.7 0 0 Z " fill="#F0DFFC" transform="translate(149,164)"/>
<path d="M0 0 C0.66 0 1.32 0 2 0 C2 4.29 2 8.58 2 13 C1.01 13 0.02 13 -1 13 C-1 12.34 -1 11.68 -1 11 C-1.99 11 -2.98 11 -4 11 C-4 11.99 -4 12.98 -4 14 C-4.99 14 -5.98 14 -7 14 C-7 14.66 -7 15.32 -7 16 C-7.66 15.67 -8.32 15.34 -9 15 C-3.71306632 3.84110309 -3.71306632 3.84110309 0 0 Z " fill="#D176C3" transform="translate(222,146)"/>
<path d="M0 0 C1.32 0 2.64 0 4 0 C4 0.66 4 1.32 4 2 C3.34 2 2.68 2 2 2 C2.33 2.99 2.66 3.98 3 5 C-5.25 5 -13.5 5 -22 5 C-18.90267129 1.90267129 -16.44694906 2.0112186 -12.109375 1.90234375 C-10.65621776 1.90894901 -9.20307644 1.92081273 -7.75 1.9375 C-7.00492188 1.94201172 -6.25984375 1.94652344 -5.4921875 1.95117188 C-3.6614236 1.96290754 -1.83070127 1.9808415 0 2 C0 1.34 0 0.68 0 0 Z " fill="#52B6FC" transform="translate(128,264)"/>
<path d="M0 0 C0.66 0.33 1.32 0.66 2 1 C4.64364139 8.93092417 5.45853767 17.24095856 2 25 C1.690625 25.9075 1.38125 26.815 1.0625 27.75 C0.711875 28.4925 0.36125 29.235 0 30 C-0.99 30.33 -1.98 30.66 -3 31 C-2.78561279 30.40719238 -2.57122559 29.81438477 -2.3503418 29.20361328 C-0.14344836 22.60284963 0.37716067 16.80004605 0.1875 9.875 C0.17396484 8.91851562 0.16042969 7.96203125 0.14648438 6.9765625 C0.11159222 4.6504189 0.06258339 2.3255347 0 0 Z " fill="#9C84EC" transform="translate(161,182)"/>
<path d="M0 0 C2.50375982 3.12595163 4.32999633 6.36102283 6.125 9.9375 C6.64320313 10.95714844 7.16140625 11.97679687 7.6953125 13.02734375 C9.82495739 17.87961849 10.12038789 22.04470206 10.0625 27.3125 C10.05347656 28.38113281 10.04445313 29.44976562 10.03515625 30.55078125 C10.02355469 31.35902344 10.01195312 32.16726562 10 33 C7.36 33 4.72 33 2 33 C2 32.67 2 32.34 2 32 C3.98 32 5.96 32 8 32 C7.18749396 23.12306837 5.96127518 15.72210824 2.12109375 7.5859375 C1.01881817 5.04340638 0.43824898 2.72797677 0 0 Z " fill="#F6E183" transform="translate(350,150)"/>
<path d="M0 0 C0.66 0 1.32 0 2 0 C2.66 1.98 3.32 3.96 4 6 C5.32 5.67 6.64 5.34 8 5 C8.33 5.66 8.66 6.32 9 7 C3.375 8.125 3.375 8.125 0 7 C-3.64930981 9.71757113 -6.8427946 12.72136362 -10 16 C-10.33 14.68 -10.66 13.36 -11 12 C-9.8803014 10.99406757 -8.7540588 9.9954151 -7.625 9 C-6.99851563 8.443125 -6.37203125 7.88625 -5.7265625 7.3125 C-4 6 -4 6 -2 6 C-1.34 4.02 -0.68 2.04 0 0 Z " fill="#F2EDF6" transform="translate(135,178)"/>
<path d="M0 0 C8.85465602 -0.31876762 16.65883444 -0.30613471 25 3 C25.66773438 3.23976562 26.33546875 3.47953125 27.0234375 3.7265625 C30.79744507 5.17565401 33.45542412 6.84472591 36 10 C36 10.66 36 11.32 36 12 C31.90047016 10.92117636 28.67488741 9.24607074 25.125 7 C17.04360374 2.05736032 9.35091049 1.59222433 0 1 C0 0.67 0 0.34 0 0 Z " fill="#F0B099" transform="translate(280,148)"/>
<path d="M0 0 C0.66 0.99 1.32 1.98 2 3 C1.67 3.99 1.34 4.98 1 6 C0.96079185 7.99961564 0.95556653 10.00049364 1 12 C0.34 11.34 -0.32 10.68 -1 10 C-3.28288174 16.27792478 -3.45084429 22.3526679 -3 29 C-2.67 29.33 -2.34 29.66 -2 30 C-1.95919217 31.99958364 -1.95745644 34.00045254 -2 36 C-6.27534084 29.58698873 -5.722278 21.47347357 -5 14 C-3.84809143 9.10438857 -2.24959624 4.49919249 0 0 Z " fill="#FBDFEF" transform="translate(247,170)"/>
<path d="M0 0 C19.47 0 38.94 0 59 0 C58.67 1.65 58.34 3.3 58 5 C57.34 4.01 56.68 3.02 56 2 C53.54018574 1.52264442 53.54018574 1.52264442 50.63232422 1.56762695 C49.51131317 1.54783279 48.39030212 1.52803864 47.23532104 1.50764465 C46.02071198 1.50125473 44.80610291 1.49486481 43.5546875 1.48828125 C42.31453888 1.47033005 41.07439026 1.45237885 39.79666138 1.43388367 C36.49883932 1.38880026 33.20121493 1.35655106 29.90319824 1.33044434 C26.53819195 1.30067269 23.17342267 1.25413089 19.80859375 1.20898438 C13.20583821 1.12381922 6.60306736 1.05556371 0 1 C0 0.67 0 0.34 0 0 Z " fill="#FED2E5" transform="translate(265,207)"/>
<path d="M0 0 C2 2 2 2 3 11 C14.55 11.33 26.1 11.66 38 12 C38 12.66 38 13.32 38 14 C33.39190905 14.09915614 28.78444408 14.17160182 24.17553711 14.21972656 C22.60902077 14.23979558 21.04257891 14.26705751 19.47631836 14.30175781 C17.21970206 14.35048754 14.96407917 14.3730147 12.70703125 14.390625 C12.01100296 14.41127014 11.31497467 14.43191528 10.59785461 14.45318604 C7.02064001 14.45482279 5.10176902 14.0642539 2.04882812 12.13671875 C0 10 0 10 -0.48828125 7.421875 C-0.43027344 6.54015625 -0.37226563 5.6584375 -0.3125 4.75 C-0.26738281 3.85796875 -0.22226562 2.9659375 -0.17578125 2.046875 C-0.11777344 1.37140625 -0.05976563 0.6959375 0 0 Z " fill="#FEEFD8" transform="translate(322,172)"/>
<path d="M0 0 C0 0.33 0 0.66 0 1 C-7.92 0.67 -15.84 0.34 -24 0 C-23.67 0.99 -23.34 1.98 -23 3 C-26.69418201 4.231394 -29.2056261 3.64432764 -33 3 C-24.85451958 -5.14548042 -10.00481197 -2.71316935 0 0 Z " fill="#EEDDFC" transform="translate(134,153)"/>
<path d="M0 0 C0.66 0 1.32 0 2 0 C0.73882275 3.88862987 -0.45264167 5.89375599 -4 8 C-4.66 8 -5.32 8 -6 8 C-6 9.65 -6 11.3 -6 13 C-7.65 13.33 -9.3 13.66 -11 14 C-12 11 -12 11 -11.34765625 9.01171875 C-9.69014018 6.53745563 -7.95643001 5.38531505 -5.4375 3.8125 C-2.56549652 2.10136748 -2.56549652 2.10136748 0 0 Z " fill="#56B1FC" transform="translate(110,212)"/>
<path d="M0 0 C0.66 1.32 1.32 2.64 2 4 C0.7934375 5.175625 0.7934375 5.175625 -0.4375 6.375 C-2.98690417 8.71982856 -2.98690417 8.71982856 -4 11 C-4.66 11 -5.32 11 -6 11 C-6.103125 11.61875 -6.20625 12.2375 -6.3125 12.875 C-7 15 -7 15 -10 17 C-12.1875 16.625 -12.1875 16.625 -14 16 C-13.43410156 15.37351563 -12.86820313 14.74703125 -12.28515625 14.1015625 C-11.18494141 12.87566406 -11.18494141 12.87566406 -10.0625 11.625 C-8.96615234 10.40683594 -8.96615234 10.40683594 -7.84765625 9.1640625 C-5.97010529 7.14075833 -5.97010529 7.14075833 -5 5 C-4.34 5 -3.68 5 -3 5 C-2.87625 4.360625 -2.7525 3.72125 -2.625 3.0625 C-2.41875 2.381875 -2.2125 1.70125 -2 1 C-1.34 0.67 -0.68 0.34 0 0 Z " fill="#F2EEF6" transform="translate(187,233)"/>
<path d="M0 0 C0.33 0 0.66 0 1 0 C1.45447512 5.23429963 0.27820579 7.92237489 -2.625 12.25 C-3.63433594 13.80460938 -3.63433594 13.80460938 -4.6640625 15.390625 C-7.32644862 18.36466167 -9.21728132 18.96160664 -13 20 C-13.33 20.66 -13.66 21.32 -14 22 C-15 21 -15 21 -15.0625 17.9375 C-15.041875 16.968125 -15.02125 15.99875 -15 15 C-14.2575 15.2475 -13.515 15.495 -12.75 15.75 C-9.87453847 16.32823819 -9.87453847 16.32823819 -7.6875 14.1875 C-5.79639885 12.19653167 -5.79639885 12.19653167 -6 10 C-5.34 10 -4.68 10 -4 10 C-4 9.01 -4 8.02 -4 7 C-3.34 7 -2.68 7 -2 7 C-2 6.34 -2 5.68 -2 5 C-1.34 5 -0.68 5 0 5 C0 3.35 0 1.7 0 0 Z " fill="#EF888E" transform="translate(351,224)"/>
<path d="M0 0 C0.33 0 0.66 0 1 0 C1.19491452 1.45736087 1.38069358 2.91594593 1.5625 4.375 C1.66691406 5.18710938 1.77132812 5.99921875 1.87890625 6.8359375 C2 9 2 9 1 11 C1.66 11.66 2.32 12.32 3 13 C2.625 15.125 2.625 15.125 2 17 C0.02 16.67 -1.96 16.34 -4 16 C-4.20086443 12.28400809 -4.1519437 11.22791555 -2 8 C-1.33841957 5.95415921 -1.33841957 5.95415921 -0.875 3.8125 C-0.58625 2.554375 -0.2975 1.29625 0 0 Z " fill="#CB58E3" transform="translate(215,160)"/>
<path d="M0 0 C0.99 0 1.98 0 3 0 C1.88820837 3.33537489 0.52588702 4.63707344 -2 7 C0.22825644 9.22825644 1.65761628 9.69239369 4.625 10.625 C5.44226563 10.88539063 6.25953125 11.14578125 7.1015625 11.4140625 C7.72804688 11.60742188 8.35453125 11.80078125 9 12 C6 14 6 14 3.84375 13.609375 C3.0703125 13.32578125 2.296875 13.0421875 1.5 12.75 C0.7265625 12.47671875 -0.046875 12.2034375 -0.84375 11.921875 C-3 11 -3 11 -6 9 C-5.75 6.625 -5.75 6.625 -5 4 C-3 2.8125 -3 2.8125 -1 2 C-0.67 1.34 -0.34 0.68 0 0 Z " fill="#67B7ED" transform="translate(106,225)"/>
<path d="M0 0 C0.33 0 0.66 0 1 0 C1.88021369 6.71162938 2.11381955 13.23405981 2 20 C2.99 20.33 3.98 20.66 5 21 C4.67 22.32 4.34 23.64 4 25 C3.67 24.01 3.34 23.02 3 22 C2.01 22 1.02 22 0 22 C-0.33 22 -0.66 22 -1 22 C-1.0270817 19.27076612 -1.04687847 16.54180363 -1.0625 13.8125 C-1.07087891 13.04357422 -1.07925781 12.27464844 -1.08789062 11.48242188 C-1.10491934 7.51473211 -0.98604115 3.87428766 0 0 Z " fill="#F8F8F3" transform="translate(39,191)"/>
<path d="M0 0 C3.88410072 3.36464652 5.81169742 8.00729514 8.18359375 12.48046875 C8.78300781 13.31191406 9.38242187 14.14335937 10 15 C11.32 15 12.64 15 14 15 C14.33 15.99 14.66 16.98 15 18 C14 19 14 19 11.4375 19.0625 C10.633125 19.041875 9.82875 19.02125 9 19 C9 18.01 9 17.02 9 16 C8.34 16 7.68 16 7 16 C5.98133771 14.34467377 4.98189187 12.67739862 4 11 C3.34 10.67 2.68 10.34 2 10 C0.55487596 6.3871899 0 3.93312158 0 0 Z " fill="#D6EFFA" transform="translate(48,225)"/>
<path d="M0 0 C4.2742558 1.5830577 6.26531794 4.50568404 9 8 C8.52949219 8.39832031 8.05898437 8.79664063 7.57421875 9.20703125 C6.95160156 9.73683594 6.32898438 10.26664063 5.6875 10.8125 C5.07261719 11.33457031 4.45773438 11.85664063 3.82421875 12.39453125 C2.14575321 13.87172469 0.56117966 15.40039131 -1 17 C-0.34 15.02 0.32 13.04 1 11 C1.66 11 2.32 11 3 11 C3 10.34 3 9.68 3 9 C3.66 9 4.32 9 5 9 C4.34 7.35 3.68 5.7 3 4 C0.69 4 -1.62 4 -4 4 C-2.68 2.68 -1.36 1.36 0 0 Z " fill="#9890DC" transform="translate(135,184)"/>
<path d="M0 0 C-0.65234375 1.89453125 -0.65234375 1.89453125 -2 4 C-4.56640625 5.01171875 -4.56640625 5.01171875 -7.5625 5.6875 C-11.08027875 6.2600097 -11.08027875 6.2600097 -14 8 C-16.18639453 8.07258946 -18.37500389 8.08373783 -20.5625 8.0625 C-22.35880859 8.04896484 -22.35880859 8.04896484 -24.19140625 8.03515625 C-25.11824219 8.02355469 -26.04507813 8.01195312 -27 8 C-27 7.67 -27 7.34 -27 7 C-26.28457031 6.91363281 -25.56914062 6.82726562 -24.83203125 6.73828125 C-17.62596645 5.72216086 -11.33614944 3.81092051 -4.6171875 1.0234375 C-2 0 -2 0 0 0 Z " fill="#D6ECF7" transform="translate(155,263)"/>
<path d="M0 0 C0.8125 1.6875 0.8125 1.6875 1 4 C-2.13538129 7.89547373 -5.45929827 9.99364342 -10 12 C-10 12.99 -10 13.98 -10 15 C-10.99 14.67 -11.98 14.34 -13 14 C-10.72289827 9.5723022 -7.86988543 7.0801129 -4 4 C-2.64900897 2.68456137 -1.30794331 1.35824882 0 0 Z " fill="#DAF0F8" transform="translate(116,219)"/>
<path d="M0 0 C4.92717161 2.2087321 7.66343712 5.11445943 10 10 C10.52777341 12.99071598 10.80859508 15.97052209 11 19 C8.68041326 15.52061988 6.53000397 11.95769411 4.375 8.375 C3.95476562 7.68148437 3.53453125 6.98796875 3.1015625 6.2734375 C0 1.11759334 0 1.11759334 0 0 Z " fill="#FBDFFA" transform="translate(181,146)"/>
<path d="M0 0 C0.66 0 1.32 0 2 0 C2.28875 0.78375 2.5775 1.5675 2.875 2.375 C3.84912254 5.09671632 3.84912254 5.09671632 6 7 C4.515 9.475 4.515 9.475 3 12 C2.01 11.67 1.02 11.34 0 11 C-1.28571429 3.57142857 -1.28571429 3.57142857 0 0 Z " fill="#C157EE" transform="translate(242,207)"/>
<path d="M0 0 C0.99 0 1.98 0 3 0 C2.52354792 4.28806873 1.34097516 6.26647487 -2 9 C-2.66 9 -3.32 9 -4 9 C-4.33 10.32 -4.66 11.64 -5 13 C-5.99 13 -6.98 13 -8 13 C-8.2475 13.5775 -8.495 14.155 -8.75 14.75 C-10.16683317 17.3002997 -11.87627537 19.01785701 -14 21 C-14.66 20.67 -15.32 20.34 -16 20 C-11.89201254 15.05757759 -7.655264 10.64217317 -2.69921875 6.54296875 C-0.76731446 4.91432017 -0.76731446 4.91432017 1 2 C0.67 1.34 0.34 0.68 0 0 Z " fill="#E6E8FA" transform="translate(142,189)"/>
<path d="M0 0 C3.70700465 1.62016355 6.57336358 3.93884107 9.6875 6.5 C10.66074219 7.2940625 11.63398438 8.088125 12.63671875 8.90625 C15 11 15 11 16 13 C6.13485114 10.01751313 6.13485114 10.01751313 3.875 6 C3.58625 5.34 3.2975 4.68 3 4 C2.01904252 2.98131338 1.02297922 1.97648017 0 1 C0 0.67 0 0.34 0 0 Z " fill="#F5EA76" transform="translate(324,125)"/>
<path d="M0 0 C0.66 0.33 1.32 0.66 2 1 C1.01 2.485 1.01 2.485 0 4 C-0.99 4.12375 -1.98 4.2475 -3 4.375 C-4.485 4.684375 -4.485 4.684375 -6 5 C-7.45291273 7.46255685 -7.45291273 7.46255685 -8 10 C-9.32 10 -10.64 10 -12 10 C-12.33 10.99 -12.66 11.98 -13 13 C-14.32 12.67 -15.64 12.34 -17 12 C-5.98202516 2.86638706 -5.98202516 2.86638706 0 0 Z " fill="#9496E7" transform="translate(83,125)"/>
<path d="M0 0 C2.33667859 6.86794044 -2.14422199 14.74448626 -5 21 C-5.33 21 -5.66 21 -6 21 C-6.40257261 15.63236519 -5.05988065 11.8342244 -3 7 C-2.71382812 6.31808594 -2.42765625 5.63617188 -2.1328125 4.93359375 C-1.43309417 3.28425769 -0.71811649 1.64140911 0 0 Z " fill="#A583E8" transform="translate(195,206)"/>
<path d="M0 0 C0.33 0.66 0.66 1.32 1 2 C0.34 2 -0.32 2 -1 2 C-1.33 2.99 -1.66 3.98 -2 5 C-3.9609375 6.203125 -3.9609375 6.203125 -6.375 7.25 C-7.56222656 7.78367187 -7.56222656 7.78367187 -8.7734375 8.328125 C-11 9 -11 9 -14 8 C-13.38125 7.7525 -12.7625 7.505 -12.125 7.25 C-9.83742705 6.20423613 -9.83742705 6.20423613 -9.25 4 C-7.66309 1.460944 -6.72068627 1.44894049 -3.875 0.75 C-2.59625 0.5025 -1.3175 0.255 0 0 Z " fill="#D268C8" transform="translate(321,256)"/>
<path d="M0 0 C0.66 1.32 1.32 2.64 2 4 C1.01 4.66 0.02 5.32 -1 6 C-1 5.34 -1 4.68 -1 4 C-3.64 4.66 -6.28 5.32 -9 6 C-7.01260984 0.46369883 -5.82303895 -0.15323787 0 0 Z " fill="#8685F9" transform="translate(138,187)"/>
<path d="M0 0 C5.33333333 4 10.66666667 8 16 12 C15.01 12.495 15.01 12.495 14 13 C13.01 12.67 12.02 12.34 11 12 C11 11.34 11 10.68 11 10 C5.67189766 7.7459852 5.67189766 7.7459852 0 7 C0 6.34 0 5.68 0 5 C0.66 5 1.32 5 2 5 C1.34 3.35 0.68 1.7 0 0 Z " fill="#F9E7F9" transform="translate(230,247)"/>
<path d="M0 0 C1.64637489 5.65709266 0.40351885 10.71225854 -2 16 C-2.66 16 -3.32 16 -4 16 C-4.33 16.66 -4.66 17.32 -5 18 C-5.66 18 -6.32 18 -7 18 C-5.64474464 13.78224268 -4.09799886 9.70578678 -2.375 5.625 C-1.92898438 4.56539062 -1.48296875 3.50578125 -1.0234375 2.4140625 C-0.68570312 1.61742187 -0.34796875 0.82078125 0 0 Z " fill="#FDD8CB" transform="translate(358,214)"/>
<path d="M0 0 C2.31 0.33 4.62 0.66 7 1 C1.35475578 6.80205656 1.35475578 6.80205656 -2 9 C-2.66 9 -3.32 9 -4 9 C-4.33 8.01 -4.66 7.02 -5 6 C-3.35 5.34 -1.7 4.68 0 4 C0 2.68 0 1.36 0 0 Z " fill="#79A3EB" transform="translate(164,250)"/>
<path d="M0 0 C0.99 0 1.98 0 3 0 C4.28610235 3.85830705 3.67580926 5.34368888 2 9 C-0.625 10.875 -0.625 10.875 -3 12 C-2.40075776 7.80530429 -1.42500059 3.99000166 0 0 Z " fill="#F17F88" transform="translate(324,206)"/>
<path d="M0 0 C1.2065625 0.0309375 1.2065625 0.0309375 2.4375 0.0625 C2.1075 2.7025 1.7775 5.3425 1.4375 8.0625 C-0.2125 8.0625 -1.8625 8.0625 -3.5625 8.0625 C-3.60491723 5.72955225 -3.60342937 3.39547433 -3.5625 1.0625 C-2.5625 0.0625 -2.5625 0.0625 0 0 Z " fill="#DC67BB" transform="translate(270.5625,196.9375)"/>
<path d="M0 0 C2.87770097 2.45596893 3.96687126 4.90889595 5.25 8.4375 C5.60578125 9.38496094 5.9615625 10.33242187 6.328125 11.30859375 C7.01466386 14.05874071 6.96622898 15.38003295 6 18 C6 17.01 6 16.02 6 15 C5.34 15 4.68 15 4 15 C3.32243118 13.44219668 2.65840543 11.87849904 2 10.3125 C1.62875 9.44238281 1.2575 8.57226562 0.875 7.67578125 C-0.01870488 4.9427998 -0.16449676 2.85299066 0 0 Z " fill="#BF6EE7" transform="translate(188,159)"/>
<path d="M0 0 C1.42989258 -0.01836914 1.42989258 -0.01836914 2.88867188 -0.03710938 C3.79810547 -0.03904297 4.70753906 -0.04097656 5.64453125 -0.04296875 C6.46928955 -0.04707764 7.29404785 -0.05118652 8.14379883 -0.05541992 C10.1875 0.1875 10.1875 0.1875 12.1875 2.1875 C10.38152344 2.15269531 10.38152344 2.15269531 8.5390625 2.1171875 C6.96354785 2.09843137 5.38802652 2.08023101 3.8125 2.0625 C3.0184375 2.04574219 2.224375 2.02898437 1.40625 2.01171875 C-0.66742015 1.99414527 -2.74133241 2.08414832 -4.8125 2.1875 C-5.4725 2.8475 -6.1325 3.5075 -6.8125 4.1875 C-7.1425 3.5275 -7.4725 2.8675 -7.8125 2.1875 C-11.1125 2.1875 -14.4125 2.1875 -17.8125 2.1875 C-17.8125 1.8575 -17.8125 1.5275 -17.8125 1.1875 C-11.85526458 0.1575492 -6.03855584 0.0041674 0 0 Z " fill="#F8CE9E" transform="translate(285.8125,113.8125)"/>
<path d="M0 0 C0.99 1.32 1.98 2.64 3 4 C2.67 4.66 2.34 5.32 2 6 C3.09054687 5.87431641 3.09054687 5.87431641 4.203125 5.74609375 C11.62274904 4.99461901 18.59655712 5.14676633 26 6 C26 6.33 26 6.66 26 7 C17.42 7 8.84 7 0 7 C0 4.69 0 2.38 0 0 Z " fill="#F4B392" transform="translate(326,176)"/>
<path d="M0 0 C0.33 0 0.66 0 1 0 C1.25 5.625 1.25 5.625 -1 9 C-1.5827119 10.54766142 -2.12264187 12.11192222 -2.625 13.6875 C-3.01558594 14.89986328 -3.01558594 14.89986328 -3.4140625 16.13671875 C-3.70410156 17.05904297 -3.70410156 17.05904297 -4 18 C-5.5411298 14.04963563 -4.39859394 11.23429099 -3.125 7.3125 C-2.75632813 6.15363281 -2.38765625 4.99476563 -2.0078125 3.80078125 C-1 1 -1 1 0 0 Z " fill="#C777D6" transform="translate(213,162)"/>
<path d="M0 0 C0.66 0.33 1.32 0.66 2 1 C1.67 1.66 1.34 2.32 1 3 C0.34 3 -0.32 3 -1 3 C-1.27585937 3.71542969 -1.55171875 4.43085938 -1.8359375 5.16796875 C-2.98248522 7.95738855 -4.26227115 10.62290358 -5.625 13.3125 C-6.07101563 14.19550781 -6.51703125 15.07851562 -6.9765625 15.98828125 C-7.48316406 16.98408203 -7.48316406 16.98408203 -8 18 C-8.33 18 -8.66 18 -9 18 C-8.70823107 11.28931467 -5.90171372 6.40237284 -2 1 C-1.34 0.67 -0.68 0.34 0 0 Z " fill="#7DA1ED" transform="translate(87,163)"/>
<path d="M0 0 C1.65 0.33 3.3 0.66 5 1 C3.35 2.98 1.7 4.96 0 7 C-2.62187494 5.95125002 -3.79371361 5.35068687 -5.25 2.875 C-5.4975 2.25625 -5.745 1.6375 -6 1 C-3.525 1.495 -3.525 1.495 -1 2 C-0.67 1.34 -0.34 0.68 0 0 Z " fill="#6CB6E9" transform="translate(61,235)"/>
<path d="M0 0 C5.28 0 10.56 0 16 0 C15.67 0.99 15.34 1.98 15 3 C15 2.34 15 1.68 15 1 C9.6913151 1.58174845 9.6913151 1.58174845 5 4 C1.8125 3.625 1.8125 3.625 -1 3 C-0.67 2.01 -0.34 1.02 0 0 Z " fill="#CE60CB" transform="translate(280,235)"/>
<path d="M0 0 C0.66 0 1.32 0 2 0 C2.19335938 0.78503906 2.38671875 1.57007813 2.5859375 2.37890625 C3.96653221 7.9491275 5.37388447 13.49622437 7 19 C2.57175551 16.04783701 1.49550338 11.9924516 0 7 C-0.28210363 4.5391883 -0.21574504 2.48106797 0 0 Z " fill="#C26BCF" transform="translate(240,194)"/>
<path d="M0 0 C0.721875 0.103125 1.44375 0.20625 2.1875 0.3125 C1.25475891 1.44144876 0.31609878 2.56550876 -0.625 3.6875 C-1.14707031 4.31398437 -1.66914062 4.94046875 -2.20703125 5.5859375 C-3.8125 7.3125 -3.8125 7.3125 -6.8125 9.3125 C-7.625 7.625 -7.625 7.625 -7.8125 5.3125 C-5.38938332 2.17670194 -4.02309723 0.4470108 0 0 Z " fill="#F2F4F1" transform="translate(121.8125,193.6875)"/>
<path d="M0 0 C0 0.66 0 1.32 0 2 C-4.47080482 6.06436802 -9.71108377 9.13517038 -15 12 C-15 11.34 -15 10.68 -15 10 C-14.34 10 -13.68 10 -13 10 C-12.67 9.01 -12.34 8.02 -12 7 C-9.78515625 5.17578125 -9.78515625 5.17578125 -7.0625 3.3125 C-6.16660156 2.68988281 -5.27070312 2.06726563 -4.34765625 1.42578125 C-2 0 -2 0 0 0 Z " fill="#DEE5F9" transform="translate(101,156)"/>
<path d="M0 0 C0.94875 0.350625 1.8975 0.70125 2.875 1.0625 C2.875 1.3925 2.875 1.7225 2.875 2.0625 C1.14692682 2.40145656 -0.58251974 2.73341525 -2.3125 3.0625 C-3.75689453 3.3409375 -3.75689453 3.3409375 -5.23046875 3.625 C-7.9184206 4.03127612 -10.41271019 4.14183572 -13.125 4.0625 C-12.795 3.0725 -12.465 2.0825 -12.125 1.0625 C-11.01125 0.918125 -9.8975 0.77375 -8.75 0.625 C-1.60984848 -0.48295455 -1.60984848 -0.48295455 0 0 Z " fill="#F4918D" transform="translate(285.125,145.9375)"/>
<path d="M0 0 C0.66 0 1.32 0 2 0 C2 0.99 2 1.98 2 3 C2.99 3 3.98 3 5 3 C4.835 3.639375 4.67 4.27875 4.5 4.9375 C3.96073333 6.80826821 3.96073333 6.80826821 4 8 C3.67449498 9.66821323 3.34153937 11.33499557 3 13 C0.95204577 11.0373772 0.05023362 9.5722693 -0.19921875 6.73046875 C-0.18858877 4.48045617 -0.12958525 2.24614438 0 0 Z " fill="#A961F7" transform="translate(211,205)"/>
<path d="M0 0 C0.66 0 1.32 0 2 0 C1.85962479 1.81293089 1.71255111 3.6253443 1.5625 5.4375 C1.48128906 6.44683594 1.40007813 7.45617187 1.31640625 8.49609375 C1 11 1 11 0 12 C-0.23427778 14.01594582 -0.41336124 16.038474 -0.5625 18.0625 C-0.64628906 19.16722656 -0.73007812 20.27195313 -0.81640625 21.41015625 C-0.87699219 22.26480469 -0.93757813 23.11945313 -1 24 C-1.33 24 -1.66 24 -2 24 C-2.19676277 15.70316995 -2.25943749 8.04924606 0 0 Z " fill="#DDF3FA" transform="translate(42,176)"/>
<path d="M0 0 C0.66 0.33 1.32 0.66 2 1 C1.2179176 4.91041199 -0.27432634 8.41590856 -2 12 C-2.99 12.66 -3.98 13.32 -5 14 C-4.67 11.69 -4.34 9.38 -4 7 C-3.34 7 -2.68 7 -2 7 C-1.34 4.69 -0.68 2.38 0 0 Z " fill="#63ACF5" transform="translate(54,154)"/>
<path d="M0 0 C0.66 0.33 1.32 0.66 2 1 C1.0453859 3.27246186 0.08648542 5.5429472 -0.875 7.8125 C-1.14441406 8.45509766 -1.41382813 9.09769531 -1.69140625 9.75976562 C-2.94695731 12.71490408 -4.21277178 15.31915767 -6 18 C-5.8349028 10.67568804 -4.43630328 5.86050397 0 0 Z " fill="#E1F6FD" transform="translate(50,155)"/>
<path d="M0 0 C2.31 0 4.62 0 7 0 C6.67 0.99 6.34 1.98 6 3 C8.475 3.99 8.475 3.99 11 5 C11 5.33 11 5.66 11 6 C4.67741935 6.36476427 4.67741935 6.36476427 1.5625 4.6875 C0 3 0 3 0 0 Z " fill="#A968F1" transform="translate(247,256)"/>
<path d="M0 0 C1.32 0.66 2.64 1.32 4 2 C1.03 4.97 -1.94 7.94 -5 11 C-6 8 -6 8 -4.75 5.375 C-3 3 -3 3 0 2 C0 1.34 0 0.68 0 0 Z " fill="#8AA3EB" transform="translate(129,201)"/>
<path d="M0 0 C0.99 0.33 1.98 0.66 3 1 C-7.10679612 10 -7.10679612 10 -12 10 C-12 9.34 -12 8.68 -12 8 C-11.071875 7.54625 -10.14375 7.0925 -9.1875 6.625 C-5.96078611 5.0578367 -5.96078611 5.0578367 -3 3 C-2.34 3 -1.68 3 -1 3 C-0.67 2.01 -0.34 1.02 0 0 Z " fill="#FDDDE3" transform="translate(313,220)"/>
<path d="M0 0 C0.33 0.66 0.66 1.32 1 2 C-1.14712285 6.96522159 -4.6252119 9.11098899 -9 12 C-9.66 11.67 -10.32 11.34 -11 11 C-7.33333333 7.33333333 -3.66666667 3.66666667 0 0 Z " fill="#7EB4EE" transform="translate(111,207)"/>
<path d="M0 0 C0.33 0 0.66 0 1 0 C0.40711812 7.34164374 -0.238212 14.67386859 -1 22 C-1.33 22 -1.66 22 -2 22 C-2.05416741 19.27056463 -2.09375225 16.54221436 -2.125 13.8125 C-2.14175781 13.04357422 -2.15851563 12.27464844 -2.17578125 11.48242188 C-2.21266851 7.1850566 -1.9958504 3.92098169 0 0 Z " fill="#64AFEB" transform="translate(77,178)"/>
<path d="M0 0 C0.99 0.33 1.98 0.66 3 1 C1.79023695 4.62928915 0.72124626 5.11351038 -2.4375 7.125 C-3.24058594 7.64320313 -4.04367188 8.16140625 -4.87109375 8.6953125 C-7 10 -7 10 -9 11 C-9 9.68 -9 8.36 -9 7 C-7.35 6.67 -5.7 6.34 -4 6 C-3.67 5.01 -3.34 4.02 -3 3 C-2.01 3 -1.02 3 0 3 C0 2.01 0 1.02 0 0 Z " fill="#8D96EA" transform="translate(99,152)"/>
<path d="M0 0 C1.13199353 0.9080162 2.25532363 1.82683826 3.375 2.75 C4.00148437 3.26046875 4.62796875 3.7709375 5.2734375 4.296875 C7.08312318 6.08199481 8.00117455 7.67949644 9 10 C8.34 10.66 7.68 11.32 7 12 C7 11.34 7 10.68 7 10 C6.34 10 5.68 10 5 10 C5 8.68 5 7.36 5 6 C3.02 6.99 3.02 6.99 1 8 C0.67 5.36 0.34 2.72 0 0 Z " fill="#C36FDF" transform="translate(171,136)"/>
<path d="M0 0 C0.66 0 1.32 0 2 0 C2.33 2.97 2.66 5.94 3 9 C2.01 9 1.02 9 0 9 C-1.6875 7 -1.6875 7 -3 5 C-1.625 2.5 -1.625 2.5 0 0 Z " fill="#DD64C2" transform="translate(221,150)"/>
<path d="M0 0 C1.9375 0.8125 1.9375 0.8125 4 2 C4.33 2.99 4.66 3.98 5 5 C4.67 5.66 4.34 6.32 4 7 C2.68 7 1.36 7 0 7 C-0.66 5.35 -1.32 3.7 -2 2 C-1.34 1.34 -0.68 0.68 0 0 Z " fill="#C255EE" transform="translate(168,137)"/>
<path d="M0 0 C-0.33 0.763125 -0.66 1.52625 -1 2.3125 C-2.17436686 4.99069135 -2.17436686 4.99069135 -2 8 C-2.66 8 -3.32 8 -4 8 C-7 2.25 -7 2.25 -7 0 C-3.86650268 -1.04449911 -3.01031744 -0.93423645 0 0 Z " fill="#A962FA" transform="translate(224,225)"/>
<path d="M0 0 C-1.32 1.32 -2.64 2.64 -4 4 C-3.34 4.33 -2.68 4.66 -2 5 C-5.55824425 5 -8.57015811 4.94616328 -12 4 C-10.720327 1.44065399 -9.75798964 1.3010767 -7.125 0.3125 C-6.07699219 -0.09548828 -6.07699219 -0.09548828 -5.0078125 -0.51171875 C-3 -1 -3 -1 0 0 Z " fill="#F98B88" transform="translate(260,121)"/>
<path d="M0 0 C1.79133978 -0.05391993 3.58313899 -0.09275571 5.375 -0.125 C6.37273437 -0.14820313 7.37046875 -0.17140625 8.3984375 -0.1953125 C11 0 11 0 13 2 C8.59085217 3.10228696 4.51617599 3.07654536 0 3 C0 2.01 0 1.02 0 0 Z " fill="#C355EE" transform="translate(288,264)"/>
<path d="M0 0 C2.5 1.3125 2.5 1.3125 5 3 C5 3.99 5 4.98 5 6 C5.99 6 6.98 6 8 6 C8.33 7.32 8.66 8.64 9 10 C5.05860922 8.33248852 2.2107188 5.77289351 -1 3 C-0.67 2.01 -0.34 1.02 0 0 Z " fill="#7DBCE9" transform="translate(69,249)"/>
<path d="M0 0 C0.66 0.33 1.32 0.66 2 1 C-5.76965554 8.96607941 -5.76965554 8.96607941 -9 11 C-9.66 11 -10.32 11 -11 11 C-11 10.34 -11 9.68 -11 9 C-10.34 9 -9.68 9 -9 9 C-8.67 8.01 -8.34 7.02 -8 6 C-5.4375 4.8125 -5.4375 4.8125 -3 4 C-3 3.34 -3 2.68 -3 2 C-2.01 1.34 -1.02 0.68 0 0 Z " fill="#DA7F9F" transform="translate(341,242)"/>
<path d="M0 0 C1 2 1 2 0.25 5 C-1 8 -1 8 -4 10 C-5.32 9.67 -6.64 9.34 -8 9 C-5.36 6.03 -2.72 3.06 0 0 Z " fill="#E6E9F8" transform="translate(181,240)"/>
<path d="M0 0 C0.33 0.66 0.66 1.32 1 2 C-1.01048605 7.20361095 -4.0035161 10.26994836 -8 14 C-8.66 13.67 -9.32 13.34 -10 13 C-9.16855469 11.96939453 -9.16855469 11.96939453 -8.3203125 10.91796875 C-7.59585937 10.01691406 -6.87140625 9.11585938 -6.125 8.1875 C-5.40570313 7.29417969 -4.68640625 6.40085938 -3.9453125 5.48046875 C-1.92059294 2.96429047 -1.92059294 2.96429047 0 0 Z " fill="#FDD9D5" transform="translate(350,232)"/>
<path d="M0 0 C0.66 0 1.32 0 2 0 C2 0.99 2 1.98 2 3 C3.32 3 4.64 3 6 3 C6 4.32 6 5.64 6 7 C4.35 7 2.7 7 1 7 C-0.0625 5.1875 -0.0625 5.1875 -1 3 C-0.67 2.01 -0.34 1.02 0 0 Z " fill="#C556E9" transform="translate(259,228)"/>
<path d="M0 0 C0 4.06447787 -0.97918272 6.47986667 -3 10 C-6.6875 10.9375 -6.6875 10.9375 -10 11 C-6.83451967 7.11098131 -3.59634744 3.49359465 0 0 Z " fill="#8F9DE7" transform="translate(130,188)"/>
<path d="M0 0 C1.72863281 0.02707031 1.72863281 0.02707031 3.4921875 0.0546875 C4.36101562 0.07789063 5.22984375 0.10109375 6.125 0.125 C6.125 0.455 6.125 0.785 6.125 1.125 C5.18398437 1.24617187 4.24296875 1.36734375 3.2734375 1.4921875 C1.40558594 1.74355469 1.40558594 1.74355469 -0.5 2 C-2.34464844 2.24363281 -2.34464844 2.24363281 -4.2265625 2.4921875 C-7.61461517 3.07983689 -10.65198651 3.94488122 -13.875 5.125 C-13.545 4.135 -13.215 3.145 -12.875 2.125 C-8.5215531 0.17434575 -4.72758049 -0.09648123 0 0 Z " fill="#9384E0" transform="translate(115.875,149.875)"/>
<path d="M0 0 C0.99 0.33 1.98 0.66 3 1 C0.9375 3.5 0.9375 3.5 -2 6 C-5.8125 6.3125 -5.8125 6.3125 -9 6 C-6.11861791 3.75892504 -3.25320657 1.66831106 0 0 Z " fill="#F8D4E8" transform="translate(326,256)"/>
<path d="M0 0 C0.33 0.99 0.66 1.98 1 3 C0.34 3.66 -0.32 4.32 -1 5 C-1.64767793 7.57061311 -1.64767793 7.57061311 -2 10 C-2.66 10 -3.32 10 -4 10 C-4 9.34 -4 8.68 -4 8 C-5.32 8.33 -6.64 8.66 -8 9 C-5.50174717 5.78796065 -2.9297008 2.82506863 0 0 Z " fill="#6CBBF1" transform="translate(98,220)"/>
<path d="M0 0 C1 2 1 2 0.25 4.5625 C-1 7 -1 7 -4 8 C-4.99 9.485 -4.99 9.485 -6 11 C-7.32 10.67 -8.64 10.34 -10 10 C-9.44570312 9.52949219 -8.89140625 9.05898437 -8.3203125 8.57421875 C-7.59585938 7.95160156 -6.87140625 7.32898438 -6.125 6.6875 C-5.40570313 6.07261719 -4.68640625 5.45773438 -3.9453125 4.82421875 C-1.80820669 2.9587676 -1.80820669 2.9587676 0 0 Z " fill="#91A4E7" transform="translate(154,218)"/>
<path d="M0 0 C2.49118953 3.7367843 2.2065226 5.74451819 2.125 10.1875 C2.10695312 11.45980469 2.08890625 12.73210937 2.0703125 14.04296875 C2.03550781 15.50669922 2.03550781 15.50669922 2 17 C1.34 17.33 0.68 17.66 0 18 C0.020625 16.845 0.04125 15.69 0.0625 14.5 C0.07323307 11.48400635 -0.13607584 8.60996914 -0.5625 5.625 C-1 2 -1 2 0 0 Z " fill="#B259EF" transform="translate(193,174)"/>
<path d="M0 0 C5.28 0.33 10.56 0.66 16 1 C16.66 2.65 17.32 4.3 18 6 C16.0625 5.625 16.0625 5.625 14 5 C13.67 4.34 13.34 3.68 13 3 C10.21533348 2.60740407 10.21533348 2.60740407 7 2.5 C3.6875 2.34375 3.6875 2.34375 1 2 C0.67 1.34 0.34 0.68 0 0 Z " fill="#F6D579" transform="translate(288,115)"/>
<path d="M0 0 C0.33 0.66 0.66 1.32 1 2 C-0.35513665 6.06540996 -2.30796918 6.97300269 -6 9 C-8.19921875 8.609375 -8.19921875 8.609375 -10 8 C-9.36191406 7.50628906 -8.72382813 7.01257813 -8.06640625 6.50390625 C-7.24011719 5.86324219 -6.41382813 5.22257813 -5.5625 4.5625 C-4.73878906 3.92441406 -3.91507813 3.28632813 -3.06640625 2.62890625 C-1.12498733 1.16417803 -1.12498733 1.16417803 0 0 Z " fill="#DEEAF9" transform="translate(172,250)"/>
<path d="M0 0 C1.9375 0.75 1.9375 0.75 4 2 C4.33333333 3.33333333 4.66666667 4.66666667 5 6 C6.9837767 7.28436734 6.9837767 7.28436734 9 8 C9 8.66 9 9.32 9 10 C8.01 10 7.02 10 6 10 C4.39453125 8.3203125 4.39453125 8.3203125 2.8125 6.125 C2.01779297 5.04605469 2.01779297 5.04605469 1.20703125 3.9453125 C0 2 0 2 0 0 Z " fill="#A674E6" transform="translate(220,233)"/>
<path d="M0 0 C4.95 0 9.9 0 15 0 C14.67 0.66 14.34 1.32 14 2 C11.6015625 2.51953125 11.6015625 2.51953125 8.625 2.8125 C7.64789063 2.92207031 6.67078125 3.03164062 5.6640625 3.14453125 C3 3 3 3 0 0 Z " fill="#61B0F5" transform="translate(117,237)"/>
<path d="M0 0 C1.6256807 0.30893932 3.25052748 0.6222695 4.875 0.9375 C5.77992188 1.11152344 6.68484375 1.28554687 7.6171875 1.46484375 C10 2 10 2 12 3 C12 3.66 12 4.32 12 5 C8.8125 5.3125 8.8125 5.3125 5 5 C2.0625 2.5 2.0625 2.5 0 0 Z " fill="#C16AD9" transform="translate(266,231)"/>
<path d="M0 0 C1.65 0 3.3 0 5 0 C5.0825 0.78375 5.165 1.5675 5.25 2.375 C5.72806339 5.14749104 5.72806339 5.14749104 8.0625 6.3125 C8.701875 6.539375 9.34125 6.76625 10 7 C10 7.66 10 8.32 10 9 C4.98709528 7.56774151 3.01961382 5.05490999 0 1 C0 0.67 0 0.34 0 0 Z " fill="#F8DCF6" transform="translate(252,218)"/>
<path d="M0 0 C1.98 0 3.96 0 6 0 C6.75 1.625 6.75 1.625 7 4 C5.0625 7.25 5.0625 7.25 3 10 C2.34 9.34 1.68 8.68 1 8 C1.66 7.67 2.32 7.34 3 7 C3.65555119 4.47266765 3.65555119 4.47266765 4 2 C2.68 1.34 1.36 0.68 0 0 Z " fill="#FEEAE2" transform="translate(315,208)"/>
<path d="M0 0 C4.43601966 3.51822249 5.52033129 7.75390186 7 13 C4.37752662 12.00302665 3.23076132 11.46152265 1.953125 8.90625 C1.60507813 7.71515625 1.60507813 7.71515625 1.25 6.5 C1.00765625 5.7059375 0.7653125 4.911875 0.515625 4.09375 C0 2 0 2 0 0 Z " fill="#A172E6" transform="translate(157,170)"/>
<path d="M0 0 C4.18385169 2.51031102 7.01140213 4.47041597 9 9 C9.1875 11.8125 9.1875 11.8125 9 14 C6.98518772 11.61885822 5.97006279 9.90020929 5.0625 6.875 C4.28265553 3.88182911 4.28265553 3.88182911 1.875 2.625 C1.25625 2.41875 0.6375 2.2125 0 2 C0 1.34 0 0.68 0 0 Z " fill="#FDF5BD" transform="translate(347,146)"/>
<path d="M0 0 C0.66 0 1.32 0 2 0 C1.67 1.32 1.34 2.64 1 4 C0.34 4 -0.32 4 -1 4 C-0.67 2.68 -0.34 1.36 0 0 Z M-1 4 C-1 5.98 -1 7.96 -1 10 C-1.33 9.34 -1.66 8.68 -2 8 C-4.02463255 7.34786708 -4.02463255 7.34786708 -6 7 C-6 6.34 -6 5.68 -6 5 C-2.125 4 -2.125 4 -1 4 Z " fill="#54B6F9" transform="translate(76,244)"/>
<path d="M0 0 C2.66735273 2.48952921 4.55746343 4.63408134 6 8 C3.69 8 1.38 8 -1 8 C-0.67 5.36 -0.34 2.72 0 0 Z " fill="#F2E3F9" transform="translate(218,232)"/>
<path d="M0 0 C6.6 0 13.2 0 20 0 C19.67 1.65 19.34 3.3 19 5 C18.34 4.01 17.68 3.02 17 2 C14.06402461 1.61615491 11.31972627 1.396157 8.375 1.3125 C7.57320313 1.27833984 6.77140625 1.24417969 5.9453125 1.20898438 C3.96403682 1.12643122 1.98203963 1.06154084 0 1 C0 0.67 0 0.34 0 0 Z " fill="#FDD0CB" transform="translate(304,207)"/>
<path d="M0 0 C0.99 0.33 1.98 0.66 3 1 C2.44271087 4.34373475 1.64826111 7.03312999 0 10 C-0.33 10 -0.66 10 -1 10 C-1.33 7.36 -1.66 4.72 -2 2 C-1.34 2 -0.68 2 0 2 C0 1.34 0 0.68 0 0 Z " fill="#D570B0" transform="translate(244,168)"/>
<path d="M0 0 C1.32 0.33 2.64 0.66 4 1 C1.81482901 3.40575607 -0.25919671 4.79535581 -3.1875 6.1875 C-3.90292969 6.53167969 -4.61835938 6.87585938 -5.35546875 7.23046875 C-5.89816406 7.48441406 -6.44085938 7.73835938 -7 8 C-7 7.34 -7 6.68 -7 6 C-3.53846154 3 -3.53846154 3 -1 3 C-0.67 2.01 -0.34 1.02 0 0 Z " fill="#D679B7" transform="translate(327,252)"/>
<path d="M0 0 C0.99 0 1.98 0 3 0 C3 0.99 3 1.98 3 3 C3.99 3.33 4.98 3.66 6 4 C5.01 5.485 5.01 5.485 4 7 C3.34 7 2.68 7 2 7 C2 6.01 2 5.02 2 4 C1.01 4 0.02 4 -1 4 C-0.67 2.68 -0.34 1.36 0 0 Z " fill="#EEF3F5" transform="translate(99,210)"/>
<path d="M0 0 C0.99 0 1.98 0 3 0 C3 0.66 3 1.32 3 2 C3.99 2.33 4.98 2.66 6 3 C4.35 4.32 2.7 5.64 1 7 C1 6.01 1 5.02 1 4 C0.01 3.67 -0.98 3.34 -2 3 C-1.34 2.01 -0.68 1.02 0 0 Z " fill="#79A8F3" transform="translate(117,210)"/>
<path d="M0 0 C-0.66 0 -1.32 0 -2 0 C-1.67 0.99 -1.34 1.98 -1 3 C-4.69418201 4.231394 -7.2056261 3.64432764 -11 3 C-7.68381684 -0.31618316 -4.50821267 -1.6697084 0 0 Z " fill="#F1E9F6" transform="translate(112,153)"/>
<path d="M0 0 C0.66 0.33 1.32 0.66 2 1 C1.67 1.99 1.34 2.98 1 4 C-1.1875 5.0625 -1.1875 5.0625 -4 6 C-5.6396875 6.556875 -5.6396875 6.556875 -7.3125 7.125 C-8.6428125 7.558125 -8.6428125 7.558125 -10 8 C-6.91367389 4.7373124 -4.06516496 1.97764782 0 0 Z " fill="#EB8E93" transform="translate(247,123)"/>
<path d="M0 0 C1.33333333 0.66666667 2.66666667 1.33333333 4 2 C5.03125 2.45375 6.0625 2.9075 7.125 3.375 C10.08373111 5.04732628 10.916826 5.85879539 12 9 C7.09198451 7.51272258 3.59508707 4.55364515 0 1 C0 0.67 0 0.34 0 0 Z " fill="#B58AE8" transform="translate(236,251)"/>
<path d="M0 0 C2.31 0.66 4.62 1.32 7 2 C5.625 3.5 5.625 3.5 4 5 C3.34 5 2.68 5 2 5 C1.67 5.66 1.34 6.32 1 7 C0 6 0 6 -0.0625 2.9375 C-0.041875 1.968125 -0.02125 0.99875 0 0 Z " fill="#ED7198" transform="translate(336,239)"/>
<path d="M0 0 C0.66 0.33 1.32 0.66 2 1 C-0.0625 3.5 -0.0625 3.5 -3 6 C-6.8125 6.3125 -6.8125 6.3125 -10 6 C-7.75421292 3.75421292 -5.930208 3.14349581 -3 2 C-2.01 1.34 -1.02 0.68 0 0 Z " fill="#8BB5F2" transform="translate(142,229)"/>
<path d="M0 0 C1.32 0.33 2.64 0.66 4 1 C-0.625 6.875 -0.625 6.875 -4 8 C-4 6.68 -4 5.36 -4 4 C-2.68 3.67 -1.36 3.34 0 3 C0 2.01 0 1.02 0 0 Z " fill="#DCF3FA" transform="translate(97,217)"/>
<path d="M0 0 C5.01113235 1.4317521 6.94469549 3.98445693 10 8 C9.34 8.66 8.68 9.32 8 10 C6.66370254 8.52351062 5.33103329 7.0437367 4 5.5625 C3.2575 4.73878906 2.515 3.91507813 1.75 3.06640625 C0 1 0 1 0 0 Z " fill="#FBDDFB" transform="translate(172,136)"/>
<path d="M0 0 C1.29640378 0.59393382 2.58698839 1.20057989 3.875 1.8125 C4.59429687 2.14894531 5.31359375 2.48539062 6.0546875 2.83203125 C8 4 8 4 10 7 C8.35 7 6.7 7 5 7 C5 6.01 5 5.02 5 4 C3.35 3.67 1.7 3.34 0 3 C0 2.01 0 1.02 0 0 Z " fill="#BF6BDC" transform="translate(155,125)"/>
<path d="M0 0 C0.66 1.32 1.32 2.64 2 4 C1.236875 4.598125 0.47375 5.19625 -0.3125 5.8125 C-2.3483575 7.46959332 -4.1978279 9.10297674 -6 11 C-5.34 9.02 -4.68 7.04 -4 5 C-3.34 5 -2.68 5 -2 5 C-2 4.34 -2 3.68 -2 3 C-1.34 3 -0.68 3 0 3 C0 2.01 0 1.02 0 0 Z " fill="#9795EE" transform="translate(140,190)"/>
<path d="M0 0 C3.74981988 1.24993996 4.86618551 2.7230706 7 6 C6.75 8.3125 6.75 8.3125 6 10 C4.10786631 7.61426621 2.97608217 5.92824652 2 3 C1.34 3 0.68 3 0 3 C0 2.01 0 1.02 0 0 Z " fill="#F5EA56" transform="translate(337,137)"/>
<path d="M0 0 C2.31 0.66 4.62 1.32 7 2 C6.01 2.495 6.01 2.495 5 3 C5 3.66 5 4.32 5 5 C3.68 5.33 2.36 5.66 1 6 C0 1.125 0 1.125 0 0 Z " fill="#BA54F6" transform="translate(144,122)"/>
<path d="M0 0 C3.63 0.33 7.26 0.66 11 1 C11 1.66 11 2.32 11 3 C11.66 3 12.32 3 13 3 C12.67 3.66 12.34 4.32 12 5 C8.04 3.68 4.08 2.36 0 1 C0 0.67 0 0.34 0 0 Z " fill="#F7D7F8" transform="translate(138,118)"/>
<path d="M0 0 C0.66 0.33 1.32 0.66 2 1 C2 1.66 2 2.32 2 3 C-4.27 3 -10.54 3 -17 3 C-17 2.67 -17 2.34 -17 2 C-15.85660156 1.93941406 -14.71320313 1.87882813 -13.53515625 1.81640625 C-12.04425695 1.73201572 -10.55337225 1.64736698 -9.0625 1.5625 C-8.30775391 1.52318359 -7.55300781 1.48386719 -6.77539062 1.44335938 C-3.08055813 1.55961976 -3.08055813 1.55961976 0 0 Z " fill="#ED7B88" transform="translate(321,203)"/>
<path d="M0 0 C0.33 2.97 0.66 5.94 1 9 C-0.32 9 -1.64 9 -3 9 C-3 6.36 -3 3.72 -3 1 C-1 0 -1 0 0 0 Z " fill="#D96AC1" transform="translate(243,171)"/>
<path d="M0 0 C0.66 0.33 1.32 0.66 2 1 C2 1.99 2 2.98 2 4 C2.66 4.66 3.32 5.32 4 6 C2.35 6.33 0.7 6.66 -1 7 C-2 4 -2 4 -1.0625 1.8125 C-0.5365625 0.9153125 -0.5365625 0.9153125 0 0 Z " fill="#5AB4F2" transform="translate(100,219)"/>
<path d="M0 0 C0.33 0.66 0.66 1.32 1 2 C-0.125 4.5625 -0.125 4.5625 -2 7 C-4.6875 7.8125 -4.6875 7.8125 -7 8 C-6.02133662 6.85373678 -5.04205413 5.70800212 -4.0625 4.5625 C-3.51722656 3.92441406 -2.97195312 3.28632813 -2.41015625 2.62890625 C-1.63204305 1.73008851 -0.84063472 0.84063472 0 0 Z " fill="#88ADED" transform="translate(119,199)"/>
<path d="M0 0 C1.32 0.33 2.64 0.66 4 1 C2.02 3.31 0.04 5.62 -2 8 C-2.33 7.01 -2.66 6.02 -3 5 C-1.5625 2.3125 -1.5625 2.3125 0 0 Z " fill="#E7F0FC" transform="translate(61,138)"/>
<path d="M0 0 C0.66 0.33 1.32 0.66 2 1 C1.67 1.66 1.34 2.32 1 3 C1.721875 2.79375 2.44375 2.5875 3.1875 2.375 C6.44641585 1.94047789 8.08304504 2.58319331 11 4 C11 4.33 11 4.66 11 5 C6.45194365 5.17835515 3.1205746 4.99785435 -1 3 C-0.67 2.01 -0.34 1.02 0 0 Z " fill="#EFFBF7" transform="translate(106,230)"/>
<path d="M0 0 C4.39158329 1.4638611 4.87947433 3.97831338 7 8 C6.01 7.67 5.02 7.34 4 7 C3.67 6.34 3.34 5.68 3 5 C2.01 5 1.02 5 0 5 C0 3.35 0 1.7 0 0 Z " fill="#F4DFF7" transform="translate(149,164)"/>
<path d="M0 0 C2.1875 0.3125 2.1875 0.3125 4 1 C4 2.32 4 3.64 4 5 C3.67 4.34 3.34 3.68 3 3 C1.02 3 -0.96 3 -3 3 C-1.75 1.4375 -1.75 1.4375 0 0 Z M5 1 C7 2 7 2 7 2 Z " fill="#FDE8DF" transform="translate(265,153)"/>
<path d="M0 0 C1 3 1 3 1 6 C-4.75 4.25 -4.75 4.25 -7 2 C-4.69 1.34 -2.38 0.68 0 0 Z " fill="#FAE5F8" transform="translate(159,121)"/>
<path d="M0 0 C0.66 0 1.32 0 2 0 C0.6062718 4.43458973 -1.60582235 6.87378374 -5 10 C-3.125 5.25 -3.125 5.25 -2 3 C-1.34 3 -0.68 3 0 3 C0 2.01 0 1.02 0 0 Z " fill="#8B8FE0" transform="translate(181,236)"/>
<path d="M0 0 C0 0.99 0 1.98 0 3 C-2 4.6875 -2 4.6875 -4 6 C-4.66 5.34 -5.32 4.68 -6 4 C-4 1 -4 1 -1.875 0.3125 C-1.25625 0.209375 -0.6375 0.10625 0 0 Z " fill="#DA78AB" transform="translate(311,226)"/>
<path d="M0 0 C1.2077558 3.62326739 0.54311128 4.64146369 -1 8 C-1.99 8 -2.98 8 -4 8 C-4 8.66 -4 9.32 -4 10 C-4.66 9.67 -5.32 9.34 -6 9 C-4.02 6.03 -2.04 3.06 0 0 Z " fill="#ED92A3" transform="translate(321,212)"/>
<path d="M0 0 C0.66 0.33 1.32 0.66 2 1 C-0.97 4.96 -0.97 4.96 -4 9 C-4.66 8.01 -5.32 7.02 -6 6 C-5.01 6 -4.02 6 -3 6 C-2.87625 5.38125 -2.7525 4.7625 -2.625 4.125 C-2 2 -2 2 0 0 Z " fill="#EBEEF9" transform="translate(155,214)"/>
<path d="M0 0 C2.7972908 2.06756277 3.02692273 3.14440371 3.6875 6.6875 C3.790625 7.780625 3.89375 8.87375 4 10 C1.47411298 7.63707344 0.11179163 6.33537489 -1 3 C-0.67 2.01 -0.34 1.02 0 0 Z " fill="#C056F3" transform="translate(185,156)"/>
<path d="M0 0 C0.66 0 1.32 0 2 0 C2 1.32 2 2.64 2 4 C-0.31 4.33 -2.62 4.66 -5 5 C-4.67 4.01 -4.34 3.02 -4 2 C-2.68 2 -1.36 2 0 2 C0 1.34 0 0.68 0 0 Z " fill="#F08389" transform="translate(270,147)"/>
<path d="M0 0 C0.66 0 1.32 0 2 0 C2 1.65 2 3.3 2 5 C1.38125 5.12375 0.7625 5.2475 0.125 5.375 C-2.19120832 5.87197356 -2.19120832 5.87197356 -4 8 C-3.40312566 4.65750371 -2.26396123 2.53563658 0 0 Z " fill="#D173B0" transform="translate(222,146)"/>
<path d="M0 0 C2.475 0.495 2.475 0.495 5 1 C5.33 1.99 5.66 2.98 6 4 C6.99 3.67 7.98 3.34 9 3 C8.67 3.99 8.34 4.98 8 6 C4.63408134 4.55746343 2.48952921 2.66735273 0 0 Z " fill="#F6D6F5" transform="translate(164,130)"/>
<path d="M0 0 C-0.33 1.32 -0.66 2.64 -1 4 C-1.66 4 -2.32 4 -3 4 C-3 4.66 -3 5.32 -3 6 C-4.32 5.34 -5.64 4.68 -7 4 C-2.25 0 -2.25 0 0 0 Z " fill="#FDFAD8" transform="translate(333,122)"/>
<path d="M0 0 C1.98 0 3.96 0 6 0 C6 0.66 6 1.32 6 2 C3 4 3 4 -1 4 C-0.67 2.68 -0.34 1.36 0 0 Z " fill="#55B6F9" transform="translate(135,264)"/>
<path d="M0 0 C0.66 0.33 1.32 0.66 2 1 C0.9375 2.5 0.9375 2.5 -1 4 C-4.6875 4.1875 -4.6875 4.1875 -8 4 C-5.31143836 2.20762558 -3.0466145 1.01553817 0 0 Z " fill="#DD85C0" transform="translate(304,229)"/>
<path d="M0 0 C0.66 0 1.32 0 2 0 C3.7143618 1.95927063 5.38405168 3.95880212 7 6 C5.35 6.33 3.7 6.66 2 7 C1.34 4.69 0.68 2.38 0 0 Z " fill="#F8E8F8" transform="translate(142,158)"/>
<path d="M0 0 C3.50015029 2.33343353 4.40382422 4.16917814 6 8 C5.67 8.66 5.34 9.32 5 10 C4.15801693 8.90241493 3.32669329 7.79664683 2.5 6.6875 C2.0359375 6.07261719 1.571875 5.45773438 1.09375 4.82421875 C0 3 0 3 0 0 Z " fill="#FBDBFA" transform="translate(246,208)"/>
<path d="M0 0 C0.66 0 1.32 0 2 0 C2 0.99 2 1.98 2 3 C2.99 3 3.98 3 5 3 C4.67 4.32 4.34 5.64 4 7 C2 5.75 2 5.75 0 4 C0 2.68 0 1.36 0 0 Z " fill="#B25CF4" transform="translate(211,205)"/>
<path d="M0 0 C0.33 0 0.66 0 1 0 C1.33 2.97 1.66 5.94 2 9 C1.01 8.67 0.02 8.34 -1 8 C-1.125 2.25 -1.125 2.25 0 0 Z " fill="#D65CD5" transform="translate(215,160)"/>
<path d="M0 0 C0 0.66 0 1.32 0 2 C-1.95927063 3.7143618 -3.95880212 5.38405168 -6 7 C-6.66 6.67 -7.32 6.34 -8 6 C-3.38461538 0 -3.38461538 0 0 0 Z " fill="#F1EEFB" transform="translate(101,156)"/>
<path d="M0 0 C-0.33 1.32 -0.66 2.64 -1 4 C-1.99 4 -2.98 4 -4 4 C-4.66 2.68 -5.32 1.36 -6 0 C-3.50907189 -1.24546405 -2.58919267 -0.7767578 0 0 Z " fill="#6DA0F6" transform="translate(64,148)"/>
<path d="M0 0 C2.95409701 1.37154504 5.44008376 2.98863724 8 5 C5.69 4.67 3.38 4.34 1 4 C0.67 2.68 0.34 1.36 0 0 Z " fill="#E1F5FA" transform="translate(72,256)"/>
<path d="M0 0 C3 1 3 1 4.1875 3.0625 C4.455625 3.701875 4.72375 4.34125 5 5 C3.02 5 1.04 5 -1 5 C-0.67 3.35 -0.34 1.7 0 0 Z " fill="#C255F1" transform="translate(249,219)"/>
<path d="M0 0 C1.485 0.99 1.485 0.99 3 2 C2.67 3.32 2.34 4.64 2 6 C1.01 6 0.02 6 -1 6 C-1.042721 4.33388095 -1.04063832 2.66617115 -1 1 C-0.67 0.67 -0.34 0.34 0 0 Z " fill="#C95CD7" transform="translate(215,171)"/>
<path d="M0 0 C2.89932357 2.39509338 3.50168276 4.31245243 4 8 C3.01 7.67 2.02 7.34 1 7 C0.67 4.69 0.34 2.38 0 0 Z " fill="#BB72DC" transform="translate(188,159)"/>
<path d="M0 0 C0.66 0.33 1.32 0.66 2 1 C-0.475 4.465 -0.475 4.465 -3 8 C-4.24546405 5.50907189 -3.7767578 4.58919267 -3 2 C-2.01 2 -1.02 2 0 2 C0 1.34 0 0.68 0 0 Z " fill="#FCDFEB" transform="translate(221,144)"/>
</svg>
