<?xml version="1.0" encoding="UTF-8"?>
<svg version="1.1" xmlns="http://www.w3.org/2000/svg" width="400" height="400">
<path d="M0 0 C132 0 264 0 400 0 C400 132 400 264 400 400 C268 400 136 400 0 400 C0 268 0 136 0 0 Z " fill="#000000" transform="translate(0,0)"/>
<path d="M0 0 C11.22 0 22.44 0 34 0 C36.64 4.95 39.28 9.9 42 15 C44.55286042 19.68281651 47.11307426 24.36116356 49.68554688 29.03320312 C52.06779434 33.38025548 54.39148772 37.7403422 56.58984375 42.18359375 C59.01892373 47.09242992 61.68488245 51.8329823 64.4296875 56.5703125 C68.25543792 63.26537573 71.52802536 70.05605071 75 77 C75.33 51.59 75.66 26.18 76 0 C85.24 0 94.48 0 104 0 C104 38.28 104 76.56 104 116 C92.78 116 81.56 116 70 116 C61.29464286 99.66071429 61.29464286 99.66071429 57.5625 92.125 C54.7421912 86.43836338 51.83030508 80.80514854 48.875 75.1875 C48.46709229 74.41100098 48.05918457 73.63450195 47.63891602 72.83447266 C44.83014148 67.51180805 41.92505964 62.26510735 39 57 C35.7 50.73 32.4 44.46 29 38 C28.67 63.74 28.34 89.48 28 116 C18.76 116 9.52 116 0 116 C0 77.72 0 39.44 0 0 Z " fill="#FCFCFC" transform="translate(210,158)"/>
<path d="M0 0 C11.88 0 23.76 0 36 0 C38.45979775 4.9195955 40.55604992 9.1621404 42.33203125 14.23828125 C42.9357959 15.94914917 42.9357959 15.94914917 43.55175781 17.69458008 C44.1758252 19.48545044 44.1758252 19.48545044 44.8125 21.3125 C45.69855464 23.82315114 46.58527538 26.3335673 47.47265625 28.84375 C48.11871826 30.67679688 48.11871826 30.67679688 48.77783203 32.546875 C52.33032466 42.58412145 55.98730675 52.57472239 60 62.4375 C62.65134112 68.98497634 65.01201529 75.60900278 67.31103516 82.28759766 C68.8093114 86.63118609 70.34277283 90.95481755 71.96484375 95.25390625 C72.28461182 96.10307617 72.60437988 96.95224609 72.93383789 97.82714844 C73.54291389 99.43555147 74.15762216 101.04183767 74.77905273 102.64550781 C75.05563721 103.37737305 75.33222168 104.10923828 75.6171875 104.86328125 C75.86065918 105.49532471 76.10413086 106.12736816 76.35498047 106.77856445 C77.22562804 109.77705886 77.5584347 112.90904287 78 116 C68.43 116 58.86 116 49 116 C45 106 45 106 42 95 C26.16 95 10.32 95 -6 95 C-6.33 96.98 -6.66 98.96 -7 101 C-7.36148867 102.29950937 -7.75479984 103.59095339 -8.19140625 104.8671875 C-8.39193604 105.46128418 -8.59246582 106.05538086 -8.79907227 106.66748047 C-9.17696899 107.76020264 -9.17696899 107.76020264 -9.5625 108.875 C-10.366875 111.22625 -11.17125 113.5775 -12 116 C-21.9 116 -31.8 116 -42 116 C-39.75914994 104.7957497 -39.75914994 104.7957497 -37.5 99.0625 C-36.9675437 97.69057173 -36.43640007 96.31813361 -35.90625 94.9453125 C-35.60847656 94.17864258 -35.31070313 93.41197266 -35.00390625 92.62207031 C-33.39866871 88.42940223 -31.85872611 84.21291246 -30.30957031 79.99926758 C-26.78613124 70.41622271 -23.19311118 60.88410075 -19.34765625 51.42578125 C-17.60113382 46.9860706 -16.0326478 42.49405291 -14.46655273 37.98828125 C-12.17196015 31.41662741 -9.75409152 24.89332297 -7.3125 18.375 C-6.93182373 17.35543213 -6.55114746 16.33586426 -6.15893555 15.28540039 C-5.79324463 14.31207764 -5.42755371 13.33875488 -5.05078125 12.3359375 C-4.72762939 11.47532715 -4.40447754 10.6147168 -4.0715332 9.72802734 C-2.78637847 6.45613876 -1.38471893 3.23101085 0 0 Z " fill="#FBFBFB" transform="translate(115,158)"/>
<path d="M0 0 C2.87408156 5.36655958 4.65929755 11.21797412 6.68579102 16.94213867 C7.42698501 19.03284015 8.1751242 21.1209625 8.92382812 23.20898438 C9.406679 24.56755594 9.88911337 25.92627562 10.37109375 27.28515625 C10.80349365 28.50082275 11.23589355 29.71648926 11.68139648 30.96899414 C13.3021488 35.92367689 14.62836012 40.97065379 16 46 C5.44 46 -5.12 46 -16 46 C-14.12584214 39.75280714 -12.23122305 33.56447581 -10.1171875 27.40234375 C-9.72758347 26.26183311 -9.72758347 26.26183311 -9.33010864 25.09828186 C-8.78826187 23.51416394 -8.24544029 21.93037912 -7.70166016 20.34692383 C-6.86653599 17.91283039 -6.03666112 15.47698644 -5.20703125 13.04101562 C-4.67739782 11.49468392 -4.14746126 9.94845599 -3.6171875 8.40234375 C-3.3692746 7.6732933 -3.12136169 6.94424286 -2.86593628 6.19309998 C-1.11460418 1.11460418 -1.11460418 1.11460418 0 0 Z " fill="#090909" transform="translate(133,185)"/>
<path d="M0 0 C0.33 0.66 0.66 1.32 1 2 C1.99 2.33 2.98 2.66 4 3 C3.01 4.32 2.02 5.64 1 7 C0.34 6.67 -0.32 6.34 -1 6 C-0.67 4.02 -0.34 2.04 0 0 Z " fill="#E2E2E2" transform="translate(107,178)"/>
</svg>
