<?xml version="1.0" encoding="UTF-8"?>
<svg version="1.1" xmlns="http://www.w3.org/2000/svg" width="279" height="279">
<path d="M0 0 C92.07 0 184.14 0 279 0 C279 92.07 279 184.14 279 279 C186.93 279 94.86 279 0 279 C0 186.93 0 94.86 0 0 Z " fill="#000000" transform="translate(0,0)"/>
<path d="M0 0 C16.60645987 11.47299183 27.32312811 29.70744347 34.74609375 48.10546875 C35.87092681 50.62077467 35.87092681 50.62077467 38.26171875 51.29296875 C38.86757812 51.34453125 39.4734375 51.39609375 40.09765625 51.44921875 C40.09765625 50.78921875 40.09765625 50.12921875 40.09765625 49.44921875 C41.74765625 49.44921875 43.39765625 49.44921875 45.09765625 49.44921875 C45.75765625 48.12921875 46.41765625 46.80921875 47.09765625 45.44921875 C48.08765625 45.44921875 49.07765625 45.44921875 50.09765625 45.44921875 C50.09765625 44.78921875 50.09765625 44.12921875 50.09765625 43.44921875 C50.75765625 43.44921875 51.41765625 43.44921875 52.09765625 43.44921875 C52.07703125 42.66546875 52.05640625 41.88171875 52.03515625 41.07421875 C52.09765625 38.44921875 52.09765625 38.44921875 53.09765625 36.44921875 C52.76765625 35.78921875 52.43765625 35.12921875 52.09765625 34.44921875 C44.61088225 34.72909815 38.73494937 35.92571746 32.09765625 39.44921875 C31.10765625 36.97421875 31.10765625 36.97421875 30.09765625 34.44921875 C32.03390723 33.46758453 33.97170164 32.48899421 35.91015625 31.51171875 C36.98910156 30.96644531 38.06804687 30.42117187 39.1796875 29.859375 C44.56913913 27.25483412 49.18793917 26.90254636 55.09765625 27.44921875 C59.61081414 29.47553454 59.61081414 29.47553454 61.09765625 32.44921875 C62.23292196 41.20698279 58.22441048 47.96685648 53.3046875 55.01953125 C51.31276415 57.57412161 49.23870484 60.01823649 47.09765625 62.44921875 C46.27265625 63.39539063 45.44765625 64.3415625 44.59765625 65.31640625 C26.43337627 85.81072953 4.44213959 103.77785735 -20.90234375 114.44921875 C-21.66417969 114.81015625 -22.42601562 115.17109375 -23.2109375 115.54296875 C-28.3121511 117.69084816 -33.50154055 117.78124105 -38.96484375 117.88671875 C-39.72128174 117.90919678 -40.47771973 117.9316748 -41.25708008 117.95483398 C-47.81203202 117.92700737 -52.79151927 115.96110256 -57.890625 111.84375 C-64.70306256 103.70499716 -65.93304462 95.1071017 -65.14355469 84.61816406 C-62.08441939 57.11071673 -46.79578306 21.95738 -26.33984375 2.88671875 C-18.58182496 -3.15918555 -8.76750345 -4.96767094 0 0 Z " fill="#5D51F6" transform="translate(141.90234375,82.55078125)"/>
<path d="M0 0 C6.95477186 4.38453008 11.90634604 9.54210088 15.875 16.8125 C16.24940471 18.80521981 16.58786931 20.80534603 16.875 22.8125 C17.431875 23.6375 17.98875 24.4625 18.5625 25.3125 C19.875 27.8125 19.875 27.8125 19.3515625 30.64453125 C17.51927834 34.57570177 14.99190453 36.53510111 11.5625 39 C10.29248886 39.95205461 9.02430318 40.90654846 7.7578125 41.86328125 C7.11231445 42.34748535 6.46681641 42.83168945 5.80175781 43.33056641 C2.7539608 45.67472858 -0.15139962 48.17710403 -3.0625 50.6875 C-7.27374148 54.2978569 -11.52363012 57.70925055 -16.125 60.8125 C-15.465 62.1325 -14.805 63.4525 -14.125 64.8125 C-10.26486862 62.01201253 -6.50372608 59.17118934 -2.91015625 56.03515625 C-2.34772217 55.54635986 -1.78528809 55.05756348 -1.20581055 54.55395508 C-0.08716029 53.57587659 1.0249429 52.59024799 2.12963867 51.59643555 C5.57381836 48.59140062 8.51257914 47.07821647 12.875 45.8125 C14.56389872 44.5074419 16.2353279 43.17889342 17.875 41.8125 C18.535 41.8125 19.195 41.8125 19.875 41.8125 C19.875 41.1525 19.875 40.4925 19.875 39.8125 C20.865 39.4825 21.855 39.1525 22.875 38.8125 C24.195 39.4725 25.515 40.1325 26.875 40.8125 C26.545 44.4425 26.215 48.0725 25.875 51.8125 C27.525 51.4825 29.175 51.1525 30.875 50.8125 C32.34473071 55.65396588 32.34473071 55.65396588 31.875 58.8125 C29.33175816 62.05436731 26.15873026 64.35464768 22.875 66.8125 C22.1428125 67.42222656 21.410625 68.03195313 20.65625 68.66015625 C15.13038252 73.21499267 9.20589554 76.51244471 2.875 79.8125 C0.00885171 81.40770347 -2.85424739 83.00814544 -5.71484375 84.61328125 C-10.1916956 86.84082342 -13.88263892 86.92492361 -18.875 86.875 C-20.04546875 86.86597656 -21.2159375 86.85695313 -22.421875 86.84765625 C-23.75992188 86.83025391 -23.75992188 86.83025391 -25.125 86.8125 C-26.125 83.8125 -26.125 83.8125 -25.0625 81.3125 C-22.74276481 78.31929331 -20.54833368 77.34207462 -17.125 75.8125 C-14.844279 73.93825284 -14.844279 73.93825284 -14.75 70.9375 C-14.88592815 67.76922843 -14.88592815 67.76922843 -16.75 65.4375 C-20.66279633 62.76032356 -23.98162467 63.64311106 -28.5 64.3125 C-29.36625 64.4775 -30.2325 64.6425 -31.125 64.8125 C-31.125 67.7825 -31.125 70.7525 -31.125 73.8125 C-32.115 74.3075 -32.115 74.3075 -33.125 74.8125 C-33.785 72.1725 -34.445 69.5325 -35.125 66.8125 C-36.115 67.8025 -37.105 68.7925 -38.125 69.8125 C-41.64732923 62.76784154 -40.01508953 50.29383247 -37.9140625 42.9296875 C-33.10851504 28.57115871 -25.58468932 9.77855416 -13.75 -0.1875 C-8.85251352 -2.05320914 -4.78161605 -1.8170141 0 0 Z " fill="#010105" transform="translate(137.125,94.1875)"/>
<path d="M0 0 C19.79954213 13.67901328 29.95996746 36.00873829 39.09765625 57.44921875 C37.64477964 58.78849596 36.18518366 60.12048722 34.72265625 61.44921875 C33.91054687 62.19171875 33.0984375 62.93421875 32.26171875 63.69921875 C30.09765625 65.44921875 30.09765625 65.44921875 28.09765625 65.44921875 C27.71395874 64.52979492 27.71395874 64.52979492 27.32250977 63.59179688 C16.28625754 34.23043424 16.28625754 34.23043424 -4.90234375 12.44921875 C-9.58494849 10.8883505 -13.89345083 10.53465212 -18.390625 12.58203125 C-32.07945498 22.75817546 -41.83088958 50.69039752 -44.625 66.81640625 C-45.51164799 75.23331814 -45.49153761 83.35798794 -42.90234375 91.44921875 C-43.89234375 91.44921875 -44.88234375 91.44921875 -45.90234375 91.44921875 C-46.24085553 88.76228153 -46.57327975 86.07481586 -46.90234375 83.38671875 C-46.99773437 82.63455078 -47.093125 81.88238281 -47.19140625 81.10742188 C-47.62064565 77.5661968 -47.90041732 74.21419401 -47.87109375 70.63671875 C-47.899829 67.70572358 -48.13755632 66.09399308 -49.40234375 63.51171875 C-49.89734375 62.50109375 -50.39234375 61.49046875 -50.90234375 60.44921875 C-52.950603 63.82699336 -52.950603 63.82699336 -54.88671875 67.26953125 C-56.6589842 70.52777312 -57.76382223 72.35687107 -60.90234375 74.44921875 C-60.75796875 73.64484375 -60.61359375 72.84046875 -60.46484375 72.01171875 C-59.88856986 68.73054243 -59.88856986 68.73054243 -59.78466797 66.51708984 C-59.34452532 59.89961412 -57.17730494 54.51370644 -54.46484375 48.51171875 C-54.01890869 47.50971436 -53.57297363 46.50770996 -53.11352539 45.4753418 C-35.01039947 5.47814223 -35.01039947 5.47814223 -19.02734375 -1.42578125 C-12.34531601 -3.58002571 -6.16729643 -3.49439261 0 0 Z " fill="#8B68DB" transform="translate(141.90234375,82.55078125)"/>
<path d="M0 0 C2.75885196 2.31387584 2.90387527 3.3656092 3.375 7 C3.20778061 17.25612254 -4.61316888 26.30232196 -11.0625 33.625 C-11.8875 34.57117188 -12.7125 35.51734375 -13.5625 36.4921875 C-20.2574278 44.04218071 -27.4912418 50.96010877 -35.0625 57.625 C-35.85527344 58.33233276 -35.85527344 58.33233276 -36.6640625 59.05395508 C-40.1301069 62.06577995 -42.43667908 63.29458422 -47.0625 63.625 C-48.3825 61.975 -49.7025 60.325 -51.0625 58.625 C-47.54378988 54.10755825 -43.91312726 50.6983549 -39.3125 47.3125 C-38.15073668 46.44181305 -36.98926294 45.57073953 -35.828125 44.69921875 C-34.91546875 44.01472656 -34.0028125 43.33023438 -33.0625 42.625 C-31.85688816 41.64232141 -31.85688816 41.64232141 -31.96484375 39.77734375 C-31.97644531 39.04644531 -31.98804688 38.31554687 -32 37.5625 C-32.020625 36.263125 -32.04125 34.96375 -32.0625 33.625 C-34.5375 34.12 -34.5375 34.12 -37.0625 34.625 C-36.7325 30.995 -36.4025 27.365 -36.0625 23.625 C-38.3725 23.295 -40.6825 22.965 -43.0625 22.625 C-43.0625 23.285 -43.0625 23.945 -43.0625 24.625 C-45.03571053 25.9976682 -47.03793152 27.32927617 -49.0625 28.625 C-49.7225 29.285 -50.3825 29.945 -51.0625 30.625 C-52.34060547 30.9653125 -52.34060547 30.9653125 -53.64453125 31.3125 C-58.47303505 33.16664546 -61.85684955 36.27937632 -65.75 39.625 C-67.25301852 40.89688313 -68.75688996 42.1677592 -70.26171875 43.4375 C-70.92002686 44.00082031 -71.57833496 44.56414062 -72.2565918 45.14453125 C-74.0625 46.625 -74.0625 46.625 -77.0625 48.625 C-78.0525 47.635 -79.0425 46.645 -80.0625 45.625 C-78.8871664 42.09899921 -77.90504254 41.47121784 -75 39.25 C-74.10539062 38.55519531 -73.21078125 37.86039063 -72.2890625 37.14453125 C-71.7827832 36.75217285 -71.27650391 36.35981445 -70.75488281 35.95556641 C-66.73769588 32.79721834 -62.80821713 29.5269143 -58.86108398 26.28173828 C-55.70334376 23.7030151 -52.53405361 21.22524863 -49.1796875 18.90625 C-45.9525906 16.85421061 -45.9525906 16.85421061 -44.375 13.8125 C-43.93013999 9.2749279 -45.7294453 6.42344444 -48.0625 2.625 C-47.0725 2.625 -46.0825 2.625 -45.0625 2.625 C-30.0625 29.85833333 -30.0625 29.85833333 -30.0625 36.625 C-26.7625 33.985 -23.4625 31.345 -20.0625 28.625 C-20.7225 26.645 -21.3825 24.665 -22.0625 22.625 C-20.7425 22.625 -19.4225 22.625 -18.0625 22.625 C-18.0625 21.965 -18.0625 21.305 -18.0625 20.625 C-16.4125 20.625 -14.7625 20.625 -13.0625 20.625 C-12.4025 19.305 -11.7425 17.985 -11.0625 16.625 C-10.0725 16.625 -9.0825 16.625 -8.0625 16.625 C-8.0625 15.965 -8.0625 15.305 -8.0625 14.625 C-7.4025 14.625 -6.7425 14.625 -6.0625 14.625 C-6.083125 13.84125 -6.10375 13.0575 -6.125 12.25 C-6.0625 9.625 -6.0625 9.625 -5.0625 7.625 C-5.5575 6.635 -5.5575 6.635 -6.0625 5.625 C-13.549274 5.9048794 -19.42520688 7.10149871 -26.0625 10.625 C-26.7225 8.975 -27.3825 7.325 -28.0625 5.625 C-26.12624902 4.64336578 -24.18845461 3.66477546 -22.25 2.6875 C-21.17105469 2.14222656 -20.09210938 1.59695312 -18.98046875 1.03515625 C-12.87704418 -1.91442376 -6.31136239 -2.83367291 0 0 Z " fill="#6655DF" transform="translate(200.0625,111.375)"/>
<path d="M0 0 C4.35394705 1.45131568 5.33064419 4.75074278 7.3125 8.625 C7.70622803 9.38176025 8.09995605 10.13852051 8.50561523 10.91821289 C18 29.49855935 18 29.49855935 18 35 C21.3 32.36 24.6 29.72 28 27 C27.34 25.02 26.68 23.04 26 21 C27.32 21 28.64 21 30 21 C30 20.34 30 19.68 30 19 C31.65 19 33.3 19 35 19 C35.66 17.68 36.32 16.36 37 15 C37.99 15 38.98 15 40 15 C40 14.34 40 13.68 40 13 C40.66 13 41.32 13 42 13 C41.979375 12.21625 41.95875 11.4325 41.9375 10.625 C42 8 42 8 43 6 C42.505 5.01 42.505 5.01 42 4 C39.03 4 36.06 4 33 4 C36.20380017 1.86413322 37.01939967 1.76867825 40.6875 1.875 C41.89986328 1.90207031 41.89986328 1.90207031 43.13671875 1.9296875 C44.05904297 1.96449219 44.05904297 1.96449219 45 2 C46.18232757 5.9410919 46.05831479 7.84095966 44.625 11.75 C39.93608318 20.12985473 32.48860401 26.61368062 25.5625 33.125 C24.94713379 33.70596436 24.33176758 34.28692871 23.69775391 34.88549805 C19.24331793 39 19.24331793 39 17 39 C16.505 35.535 16.505 35.535 16 32 C13.525 32.495 13.525 32.495 11 33 C11.33 29.37 11.66 25.74 12 22 C9.69 21.67 7.38 21.34 5 21 C5 21.66 5 22.32 5 23 C3.02678947 24.3726682 1.02456848 25.70427617 -1 27 C-1.66 27.66 -2.32 28.32 -3 29 C-4.27810547 29.3403125 -4.27810547 29.3403125 -5.58203125 29.6875 C-10.41053505 31.54164546 -13.79434955 34.65437632 -17.6875 38 C-19.19051852 39.27188313 -20.69438996 40.5427592 -22.19921875 41.8125 C-22.85752686 42.37582031 -23.51583496 42.93914062 -24.1940918 43.51953125 C-26 45 -26 45 -29 47 C-29.99 46.01 -30.98 45.02 -32 44 C-30.8246664 40.47399921 -29.84254254 39.84621784 -26.9375 37.625 C-26.04289062 36.93019531 -25.14828125 36.23539063 -24.2265625 35.51953125 C-23.7202832 35.12717285 -23.21400391 34.73481445 -22.69238281 34.33056641 C-18.67519588 31.17221834 -14.74571713 27.9019143 -10.79858398 24.65673828 C-7.64084376 22.0780151 -4.47155361 19.60024863 -1.1171875 17.28125 C2.1099094 15.22921061 2.1099094 15.22921061 3.6875 12.1875 C4.13710839 7.60149446 2.24029007 4.87884934 0 1 C0 0.67 0 0.34 0 0 Z " fill="#090524" transform="translate(152,113)"/>
<path d="M0 0 C0.99 0.66 1.98 1.32 3 2 C3.825 2.309375 4.65 2.61875 5.5 2.9375 C8.01718003 4.00730151 9.16333248 5.04053204 11 7 C10.69763428 7.78479736 10.69763428 7.78479736 10.38916016 8.58544922 C4.16944066 24.82245387 -1.57599938 40.57500194 4 58 C3.01 58 2.02 58 1 58 C0.66148822 55.31306278 0.329064 52.62559711 0 49.9375 C-0.09539062 49.18533203 -0.19078125 48.43316406 -0.2890625 47.65820312 C-0.7183019 44.11697805 -0.99807357 40.76497526 -0.96875 37.1875 C-0.99748525 34.25650483 -1.23521257 32.64477433 -2.5 30.0625 C-3.2425 28.5465625 -3.2425 28.5465625 -4 27 C-6.04825925 30.37777461 -6.04825925 30.37777461 -7.984375 33.8203125 C-9.75664045 37.07855437 -10.86147848 38.90765232 -14 41 C-13.855625 40.195625 -13.71125 39.39125 -13.5625 38.5625 C-12.93052395 34.94378051 -12.93052395 34.94378051 -12.7734375 31.01953125 C-12.10378271 24.90667318 -9.59150928 19.67250422 -7.0625 14.125 C-6.60681641 13.09375 -6.15113281 12.0625 -5.68164062 11 C-3.96223363 7.14329206 -2.34621636 3.51932454 0 0 Z " fill="#7E5FE8" transform="translate(95,116)"/>
<path d="M0 0 C0.33 0 0.66 0 1 0 C1.33 4.62 1.66 9.24 2 14 C2.33 14 2.66 14 3 14 C3.33 13.34 3.66 12.68 4 12 C4.66 12 5.32 12 6 12 C6.66 14.64 7.32 17.28 8 20 C8.495 15.545 8.495 15.545 9 11 C13.14345411 9.42154129 16.56709907 8.33978071 21 9 C24.36344489 11.48602449 25.80057749 12.91425523 26.5625 17.0625 C25.86156472 20.72293977 24.94395274 21.75329923 22 24 C20.4221875 24.680625 20.4221875 24.680625 18.8125 25.375 C15.66630128 26.75355085 15.66630128 26.75355085 15.125 30.1875 C15.08375 31.115625 15.0425 32.04375 15 33 C18.3 33 21.6 33 25 33 C25 33.33 25 33.66 25 34 C12.38750712 34.62198595 12.38750712 34.62198595 7.375 32.375 C2.20098601 27.20098601 -0.74724686 21.84698847 -1.23046875 14.4921875 C-1.21628906 13.29851562 -1.20210938 12.10484375 -1.1875 10.875 C-1.18105469 9.67617187 -1.17460938 8.47734375 -1.16796875 7.2421875 C-1.03261095 4.62946722 -0.77128695 2.48045882 0 0 Z " fill="#06051C" transform="translate(97,148)"/>
<path d="M0 0 C0.81210938 -0.020625 1.62421875 -0.04125 2.4609375 -0.0625 C7.24767973 -0.09368399 10.34433046 0.17913006 14.25 3.25 C14.91 3.91 15.57 4.57 16.25 5.25 C15.93770276 6.58841672 15.60169068 7.92139075 15.25 9.25 C15.46140625 9.84554687 15.6728125 10.44109375 15.890625 11.0546875 C16.4171273 14.27092983 15.13396899 15.78247122 13.4375 18.5 C12.89480469 19.39203125 12.35210937 20.2840625 11.79296875 21.203125 C11.02919922 22.21632812 11.02919922 22.21632812 10.25 23.25 C9.59 23.25 8.93 23.25 8.25 23.25 C8.4665625 22.693125 8.683125 22.13625 8.90625 21.5625 C10.86077295 16.20565933 11.74158949 11.95243807 11.25 6.25 C9.52773504 3.00150023 9.52773504 3.00150023 6.25 2.25 C-2.79699922 0.84584884 -9.82841551 4.41476601 -17.75 8.25 C-17.09 9.57 -16.43 10.89 -15.75 12.25 C-14.656875 11.610625 -13.56375 10.97125 -12.4375 10.3125 C-7.36779324 7.73668849 -2.35985308 7.4562446 3.25 7.25 C4.3046875 9.046875 4.3046875 9.046875 5.25 11.25 C4.375 14.5 4.375 14.5 3.25 17.25 C2.59 17.25 1.93 17.25 1.25 17.25 C1.25 17.91 1.25 18.57 1.25 19.25 C0.26 19.58 -0.73 19.91 -1.75 20.25 C-1.75 21.24 -1.75 22.23 -1.75 23.25 C-4.88349732 24.29449911 -5.73968256 24.18423645 -8.75 23.25 C-8.75 23.91 -8.75 24.57 -8.75 25.25 C-10.98046875 25.28515625 -10.98046875 25.28515625 -13.75 24.25 C-15.5992565 21.58368435 -16.80109283 18.66748469 -18.0625 15.6875 C-18.42150391 14.88119141 -18.78050781 14.07488281 -19.15039062 13.24414062 C-20.03408011 11.25289365 -20.89951391 9.25560026 -21.75 7.25 C-18.89367832 5.48696006 -16.11462759 3.87911996 -13 2.625 C-8.27682246 0.62673258 -5.30218135 0.0330354 0 0 Z " fill="#030209" transform="translate(190.75,108.75)"/>
<path d="M0 0 C0.99 0.33 1.98 0.66 3 1 C5.6082665 12.71685291 6.46422742 29.50342492 0 40 C-1.57083302 42.10538515 -2.88421813 43.38532436 -5 45 C-5.66 45 -6.32 45 -7 45 C-6.99476318 44.26998779 -6.98952637 43.53997559 -6.98413086 42.7878418 C-6.96310683 39.42107026 -6.95025998 36.05431261 -6.9375 32.6875 C-6.92912109 31.53958984 -6.92074219 30.39167969 -6.91210938 29.20898438 C-6.89650948 23.70222096 -7.02992979 18.40043268 -7.75 12.9375 C-8.21988409 8.37583025 -8.21988409 8.37583025 -6.34765625 5.17578125 C-5.59355469 4.56089844 -4.83945313 3.94601563 -4.0625 3.3125 C-3.31097656 2.66925781 -2.55945313 2.02601563 -1.78515625 1.36328125 C-1.19605469 0.91339844 -0.60695312 0.46351563 0 0 Z " fill="#7D61D1" transform="translate(184,152)"/>
<path d="M0 0 C0.99 1.32 1.98 2.64 3 4 C1.74458443 6.51083114 0.49936512 6.87125446 -2 8 C-2 9.98 -2 11.96 -2 14 C-2.99 14.33 -3.98 14.66 -5 15 C-4.88506243 16.89646998 -4.75760358 18.79218332 -4.625 20.6875 C-4.52058594 22.27111328 -4.52058594 22.27111328 -4.4140625 23.88671875 C-4.13701356 26.98661631 -4.13701356 26.98661631 -2.9140625 29.6328125 C-1.87608008 32.32092083 -1.96866076 33.45809199 -2.75 36.1875 C-2.93046875 36.86167969 -3.1109375 37.53585938 -3.296875 38.23046875 C-4 40 -4 40 -6 42 C-6.03758423 41.03960815 -6.03758423 41.03960815 -6.07592773 40.05981445 C-6.1923546 37.14386274 -6.31486867 34.2281971 -6.4375 31.3125 C-6.47681641 30.30509766 -6.51613281 29.29769531 -6.55664062 28.25976562 C-6.59853516 27.28330078 -6.64042969 26.30683594 -6.68359375 25.30078125 C-6.73858032 23.95753784 -6.73858032 23.95753784 -6.79467773 22.5871582 C-7.00061751 19.99221912 -7.43767822 17.53945316 -8 15 C-11.93267715 16.6022018 -14.5232485 18.53254791 -17 22 C-17.04689358 24.32997218 -17.04689358 24.32997218 -16.640625 26.8984375 C-15.92616532 33.18350665 -15.88719192 39.36803115 -15.9375 45.6875 C-15.94201172 46.78255859 -15.94652344 47.87761719 -15.95117188 49.00585938 C-15.96280844 51.67063309 -15.97915436 54.33528517 -16 57 C-16.33 57 -16.66 57 -17 57 C-17.495 44.625 -17.495 44.625 -18 32 C-18.99 31.67 -19.98 31.34 -21 31 C-21 30.34 -21 29.68 -21 29 C-26.95313641 31.23754442 -26.95313641 31.23754442 -31 36 C-31.99 36.495 -31.99 36.495 -33 37 C-34.03432904 38.98246398 -35.03238392 40.98413316 -36 43 C-36.66 43.99 -37.32 44.98 -38 46 C-39.175625 46.185625 -39.175625 46.185625 -40.375 46.375 C-43.24919124 46.75399884 -43.24919124 46.75399884 -44.8125 49.5625 C-47 52 -47 52 -48.88671875 52.2578125 C-50.29537877 52.21094396 -51.70341236 52.13800061 -53.109375 52.0390625 C-55.50561632 51.98955338 -56.91954187 52.88546886 -59 54 C-61.109375 53.55859375 -61.109375 53.55859375 -63 53 C-62.40574219 52.731875 -61.81148437 52.46375 -61.19921875 52.1875 C-54.17371701 48.86595641 -48.14069544 44.74065233 -42 40 C-41.19949219 39.38253906 -40.39898437 38.76507813 -39.57421875 38.12890625 C-24.96462329 26.62773535 -11.56515588 14.62732481 0 0 Z " fill="#0D082B" transform="translate(194,138)"/>
<path d="M0 0 C2.75885196 2.31387584 2.90387527 3.3656092 3.375 7 C3.2070362 17.30177996 -4.65766292 26.22696751 -11.0625 33.625 C-11.65933594 34.34300781 -12.25617188 35.06101563 -12.87109375 35.80078125 C-14.23708882 37.43538926 -15.64510681 39.03475398 -17.0625 40.625 C-17.3925 40.625 -17.7225 40.625 -18.0625 40.625 C-18.26336443 36.90900809 -18.2144437 35.85291555 -16.0625 32.625 C-15.0725 32.625 -14.0825 32.625 -13.0625 32.625 C-13.3925 31.305 -13.7225 29.985 -14.0625 28.625 C-15.0525 28.625 -16.0425 28.625 -17.0625 28.625 C-16.54300781 28.1403125 -16.02351562 27.655625 -15.48828125 27.15625 C-8.01500315 19.97306218 -3.33307341 14.25115565 -3.0625 3.625 C-11.5268265 4.61472055 -18.48767641 6.71829964 -26.0625 10.625 C-26.7225 8.975 -27.3825 7.325 -28.0625 5.625 C-26.12624902 4.64336578 -24.18845461 3.66477546 -22.25 2.6875 C-21.17105469 2.14222656 -20.09210938 1.59695312 -18.98046875 1.03515625 C-12.87704418 -1.91442376 -6.31136239 -2.83367291 0 0 Z " fill="#7960CC" transform="translate(200.0625,111.375)"/>
<path d="M0 0 C2.75312607 3.42003238 4.82495191 7.13505061 6.875 11 C7.22433594 11.65556885 7.57367188 12.3111377 7.93359375 12.98657227 C11.00851118 18.84636072 13.60899307 24.82706384 16 31 C14.54712339 32.33927721 13.08752741 33.67126847 11.625 35 C10.40683594 36.11375 10.40683594 36.11375 9.1640625 37.25 C7 39 7 39 5 39 C2.03 31.74 -0.94 24.48 -4 17 C-3.01 16.67 -2.02 16.34 -1 16 C-0.34 17.32 0.32 18.64 1 20 C1.33 18.35 1.66 16.7 2 15 C2.66 15 3.32 15 4 15 C3.55149342 13.18504338 3.09090429 11.37306866 2.625 9.5625 C2.24214844 8.04849609 2.24214844 8.04849609 1.8515625 6.50390625 C1.27426046 3.84429676 1.27426046 3.84429676 -1 3 C-0.67 2.01 -0.34 1.02 0 0 Z " fill="#745DD6" transform="translate(165,109)"/>
<path d="M0 0 C0.99 0.33 1.98 0.66 3 1 C3.495 2.485 3.495 2.485 4 4 C-2.28618934 9.21539556 -8.64448084 14.29814583 -15.13891602 19.24951172 C-19.76805662 22.791029 -24.27447896 26.4624751 -28.7578125 30.1875 C-31 32 -31 32 -34 34 C-34.99 33.01 -35.98 32.02 -37 31 C-35.8246664 27.47399921 -34.84254254 26.84621784 -31.9375 24.625 C-31.03902344 23.92761719 -30.14054687 23.23023438 -29.21484375 22.51171875 C-28.70808105 22.11903809 -28.20131836 21.72635742 -27.67919922 21.32177734 C-25.11412092 19.30268256 -22.60141174 17.22094135 -20.08105469 15.14648438 C-4.30799866 2.19348201 -4.30799866 2.19348201 0 0 Z " fill="#5F52E0" transform="translate(157,126)"/>
<path d="M0 0 C0.09765625 6.15234375 0.09765625 6.15234375 0 8 C-0.33 8.33 -0.66 8.66 -1 9 C-1.39569108 11.01311449 -1.74252191 13.03597208 -2.0625 15.0625 C-2.23910156 16.16722656 -2.41570312 17.27195313 -2.59765625 18.41015625 C-2.73042969 19.26480469 -2.86320312 20.11945313 -3 21 C-3.66 21 -4.32 21 -5 21 C-5.99 18.69 -6.98 16.38 -8 14 C-10.04825925 17.37777461 -10.04825925 17.37777461 -11.984375 20.8203125 C-13.75664045 24.07855437 -14.86147848 25.90765232 -18 28 C-17.855625 27.195625 -17.71125 26.39125 -17.5625 25.5625 C-17.25542605 23.61769834 -16.97328356 21.66576033 -16.81640625 19.703125 C-16.75324219 18.91421875 -16.69007812 18.1253125 -16.625 17.3125 C-16.55152344 16.19294922 -16.55152344 16.19294922 -16.4765625 15.05078125 C-15.89272853 12.53838099 -14.85801379 11.72938207 -13 10 C-12.67 9.01 -12.34 8.02 -12 7 C-11.34 7 -10.68 7 -10 7 C-9.6596875 6.1028125 -9.6596875 6.1028125 -9.3125 5.1875 C-7.08163328 1.4693888 -4.28634971 0 0 0 Z " fill="#775CF0" transform="translate(99,129)"/>
<path d="M0 0 C0.99 0.33 1.98 0.66 3 1 C2.57589844 1.64324219 2.15179688 2.28648438 1.71484375 2.94921875 C-2.93551906 10.11384364 -7.04434624 17.43736712 -11 25 C-11.94101563 24.51917969 -12.88203125 24.03835937 -13.8515625 23.54296875 C-16.3295454 22.32857266 -18.3236407 21.51468448 -21 21 C-21.58714628 16.12852074 -19.58557216 13.10516592 -17 9.1875 C-16.6184375 8.59001953 -16.236875 7.99253906 -15.84375 7.37695312 C-14.90586141 5.9115022 -13.9542705 4.4548365 -13 3 C-12.34 3.33 -11.68 3.66 -11 4 C-11.350625 4.78375 -11.70125 5.5675 -12.0625 6.375 C-12.371875 7.24125 -12.68125 8.1075 -13 9 C-12.67 9.66 -12.34 10.32 -12 11 C-11.67 10.34 -11.34 9.68 -11 9 C-10.34 9.33 -9.68 9.66 -9 10 C-9 9.34 -9 8.68 -9 8 C-7.88625 7.608125 -6.7725 7.21625 -5.625 6.8125 C-2.68039334 5.57517033 -2.14117455 5.26393503 -0.5625 2.3125 C-0.376875 1.549375 -0.19125 0.78625 0 0 Z " fill="#8563E0" transform="translate(117,97)"/>
<path d="M0 0 C3.36344489 2.48602449 4.80057749 3.91425523 5.5625 8.0625 C5 11 5 11 3.5 13.375 C0.46640767 15.34683501 -1.51931016 15.64552934 -5.08984375 15.4453125 C-7 15 -7 15 -9.5625 12.9375 C-11.44610971 9.08838451 -11.207644 7.07579849 -10 3 C-7.0879799 -0.34343049 -4.29142741 -0.70064121 0 0 Z " fill="#755DF2" transform="translate(118,157)"/>
<path d="M0 0 C2.97 0 5.94 0 9 0 C9 0.66 9 1.32 9 2 C11.475 2.495 11.475 2.495 14 3 C14 3.66 14 4.32 14 5 C14.66 5 15.32 5 16 5 C16.33 6.98 16.66 8.96 17 11 C16.34 11 15.68 11 15 11 C14.67 11.66 14.34 12.32 14 13 C14.99 13.33 15.98 13.66 17 14 C16.67 14.33 16.34 14.66 16 15 C13.66055264 14.71269945 11.3260857 14.38063221 9 14 C8.67 13.01 8.34 12.02 8 11 C6.1927779 10.23300838 6.1927779 10.23300838 4.0625 9.875 C1.81226851 9.40943487 0.06266481 9.03133241 -2 8 C-2 7.01 -2 6.02 -2 5 C-3.65 5 -5.3 5 -7 5 C-6.34 4.01 -5.68 3.02 -5 2 C-3.0546875 1.70703125 -3.0546875 1.70703125 -0.875 1.8125 C0.40375 1.874375 1.6825 1.93625 3 2 C2.01 1.34 1.02 0.68 0 0 Z " fill="#986AE5" transform="translate(128,81)"/>
<path d="M0 0 C0.66 0 1.32 0 2 0 C2 0.66 2 1.32 2 2 C2.66 2 3.32 2 4 2 C4.05398987 4.27057377 4.09278742 6.54151288 4.125 8.8125 C4.14820313 10.07707031 4.17140625 11.34164062 4.1953125 12.64453125 C4 16 4 16 2 19 C1.75849227 21.51584891 1.75849227 21.51584891 1.875 24.1875 C1.89304688 25.08855469 1.91109375 25.98960937 1.9296875 26.91796875 C1.95289063 27.60503906 1.97609375 28.29210937 2 29 C1.01 29.33 0.02 29.66 -1 30 C-1.33 28.68 -1.66 27.36 -2 26 C-2.66 26 -3.32 26 -4 26 C-4 19.4 -4 12.8 -4 6 C-3.34 6 -2.68 6 -2 6 C-1.34 4.02 -0.68 2.04 0 0 Z " fill="#785DEC" transform="translate(183,158)"/>
<path d="M0 0 C0.81210938 -0.020625 1.62421875 -0.04125 2.4609375 -0.0625 C7.24767973 -0.09368399 10.34433046 0.17913006 14.25 3.25 C14.91 3.91 15.57 4.57 16.25 5.25 C15.93770276 6.58841672 15.60169068 7.92139075 15.25 9.25 C15.46140625 9.84554687 15.6728125 10.44109375 15.890625 11.0546875 C16.4171273 14.27092983 15.13396899 15.78247122 13.4375 18.5 C12.89480469 19.39203125 12.35210937 20.2840625 11.79296875 21.203125 C11.02919922 22.21632812 11.02919922 22.21632812 10.25 23.25 C9.59 23.25 8.93 23.25 8.25 23.25 C8.4665625 22.693125 8.683125 22.13625 8.90625 21.5625 C10.86077295 16.20565933 11.74158949 11.95243807 11.25 6.25 C9.52773504 3.00150023 9.52773504 3.00150023 6.25 2.25 C-2.79699922 0.84584884 -9.82841551 4.41476601 -17.75 8.25 C-17.09 9.57 -16.43 10.89 -15.75 12.25 C-14.76 12.25 -13.77 12.25 -12.75 12.25 C-13.141875 12.806875 -13.53375 13.36375 -13.9375 13.9375 C-14.3396875 15.0821875 -14.3396875 15.0821875 -14.75 16.25 C-13.41299965 18.83944746 -13.41299965 18.83944746 -11.75 21.25 C-11.75 22.24 -11.75 23.23 -11.75 24.25 C-12.41 24.25 -13.07 24.25 -13.75 24.25 C-17.71 15.835 -17.71 15.835 -21.75 7.25 C-16.16704036 3.90022422 -16.16704036 3.90022422 -13 2.625 C-8.27682246 0.62673258 -5.30218135 0.0330354 0 0 Z " fill="#0B0420" transform="translate(190.75,108.75)"/>
<path d="M0 0 C0.66 0 1.32 0 2 0 C1.67 1.65 1.34 3.3 1 5 C0.01 5.33 -0.98 5.66 -2 6 C-3.06775224 7.96466413 -4.06553465 9.96855359 -5 12 C-5.99 13.485 -5.99 13.485 -7 15 C-8.175625 15.185625 -8.175625 15.185625 -9.375 15.375 C-12.24919124 15.75399884 -12.24919124 15.75399884 -13.8125 18.5625 C-16 21 -16 21 -17.88671875 21.2578125 C-19.29537877 21.21094396 -20.70341236 21.13800061 -22.109375 21.0390625 C-24.50561632 20.98955338 -25.91954187 21.88546886 -28 23 C-30.109375 22.55859375 -30.109375 22.55859375 -32 22 C-31.40574219 21.731875 -30.81148437 21.46375 -30.19921875 21.1875 C-19.35714759 16.06154412 -8.50710371 8.50710371 0 0 Z " fill="#040315" transform="translate(163,169)"/>
<path d="M0 0 C0.33 1.32 0.66 2.64 1 4 C3.97 4.495 3.97 4.495 7 5 C6 7 6 7 2.9375 8.125 C1.968125 8.41375 0.99875 8.7025 0 9 C-0.33 10.65 -0.66 12.3 -1 14 C-1.66 14 -2.32 14 -3 14 C-3.0825 14.598125 -3.165 15.19625 -3.25 15.8125 C-4.22409548 18.65361183 -5.40494247 19.54982079 -8 21 C-8.99 20.67 -9.98 20.34 -11 20 C-11 20.66 -11 21.32 -11 22 C-11.66 22.33 -12.32 22.66 -13 23 C-13.66 23.66 -14.32 24.32 -15 25 C-15.70110456 21.9852504 -16.07504854 19.51283168 -15.625 16.4375 C-13.41788257 13.12682386 -10.6962534 11.98261445 -7.19921875 10.203125 C-4.67468213 8.82202859 -2.86271837 7.18666939 -1 5 C-1.33 4.34 -1.66 3.68 -2 3 C-1.34 2.01 -0.68 1.02 0 0 Z " fill="#8F68E7" transform="translate(119,85)"/>
<path d="M0 0 C0.66 0 1.32 0 2 0 C1.82984375 0.52464844 1.6596875 1.04929688 1.484375 1.58984375 C-6.27489541 26.18661007 -6.27489541 26.18661007 -2 51 C-1.67 51.99 -1.34 52.98 -1 54 C-3.31 54 -5.62 54 -8 54 C-9.24985407 46.58766279 -8.72486669 39.64848917 -8.1875 32.1875 C-8.10306037 30.83922114 -8.0190721 29.49091394 -7.93554688 28.14257812 C-7.84724609 26.87220703 -7.75894531 25.60183594 -7.66796875 24.29296875 C-7.58828857 23.1330542 -7.5086084 21.97313965 -7.42651367 20.77807617 C-7 18 -7 18 -5 16 C-4.0570373 13.29684026 -3.18930012 10.61616146 -2.375 7.875 C-2.14554687 7.12089844 -1.91609375 6.36679688 -1.6796875 5.58984375 C-1.11414562 3.72826841 -0.55633178 1.86434849 0 0 Z " fill="#04031C" transform="translate(83,138)"/>
<path d="M0 0 C7.08020157 2.30876138 11.69182239 6.90543115 17 12 C16.67 12.99 16.34 13.98 16 15 C14.68 14.34 13.36 13.68 12 13 C12 15.64 12 18.28 12 21 C12.66 20.67 13.32 20.34 14 20 C14.99 23.63 15.98 27.26 17 31 C17.66 31 18.32 31 19 31 C19 31.66 19 32.32 19 33 C15.40896995 31.80298998 15.01677407 30.88098551 13.0625 27.75 C10.08719366 23.11028962 7.01071378 18.81017809 3 15 C4.32 14.67 5.64 14.34 7 14 C6.34 13.67 5.68 13.34 5 13 C6 10 6 10 7 8 C7 7.01 7 6.02 7 5 C6.34 5 5.68 5 5 5 C5 4.34 5 3.68 5 3 C3.35 2.67 1.7 2.34 0 2 C0 1.34 0 0.68 0 0 Z " fill="#9269E2" transform="translate(137,81)"/>
<path d="M0 0 C4.15451755 2.54936304 7.57691935 4.71301116 10 9 C10.22766749 11.5258205 10.18418449 13.95137113 10.07421875 16.484375 C9.97719814 19.77286317 10.4375328 22.7658136 11 26 C10.01 25.34 9.02 24.68 8 24 C8 23.34 8 22.68 8 22 C7.34 21.67 6.68 21.34 6 21 C6.33 20.34 6.66 19.68 7 19 C6.34 19 5.68 19 5 19 C4.73445312 18.36191406 4.46890625 17.72382812 4.1953125 17.06640625 C3.84210938 16.24011719 3.48890625 15.41382812 3.125 14.5625 C2.77695313 13.73878906 2.42890625 12.91507813 2.0703125 12.06640625 C1.1755063 9.84253285 1.1755063 9.84253285 -1 9 C-1.09765625 2.84765625 -1.09765625 2.84765625 -1 1 C-0.67 0.67 -0.34 0.34 0 0 Z " fill="#8F67EC" transform="translate(149,93)"/>
<path d="M0 0 C1.21236328 0.02707031 1.21236328 0.02707031 2.44921875 0.0546875 C3.37154297 0.08949219 3.37154297 0.08949219 4.3125 0.125 C5.49482757 4.0660919 5.37081479 5.96595966 3.9375 9.875 C0.95277347 15.3103441 -3.41007647 19.69002865 -7.6875 24.125 C-8.23277344 24.71667969 -8.77804688 25.30835938 -9.33984375 25.91796875 C-10.6875 27.125 -10.6875 27.125 -12.6875 27.125 C-12.831875 26.361875 -12.97625 25.59875 -13.125 24.8125 C-13.6507594 22.04327092 -13.6507594 22.04327092 -14.6875 19.125 C-13.3675 19.125 -12.0475 19.125 -10.6875 19.125 C-10.6875 18.465 -10.6875 17.805 -10.6875 17.125 C-9.0375 17.125 -7.3875 17.125 -5.6875 17.125 C-5.0275 15.805 -4.3675 14.485 -3.6875 13.125 C-2.6975 13.125 -1.7075 13.125 -0.6875 13.125 C-0.6875 12.465 -0.6875 11.805 -0.6875 11.125 C-0.0275 11.125 0.6325 11.125 1.3125 11.125 C1.291875 10.34125 1.27125 9.5575 1.25 8.75 C1.3125 6.125 1.3125 6.125 2.3125 4.125 C1.9825 3.465 1.6525 2.805 1.3125 2.125 C-1.6575 2.125 -4.6275 2.125 -7.6875 2.125 C-4.48369983 -0.01086678 -3.66810033 -0.10632175 0 0 Z " fill="#060419" transform="translate(192.6875,114.875)"/>
<path d="M0 0 C-1.19161049 4.63404081 -3.46655266 6.4048178 -7.24609375 8.984375 C-9 10 -9 10 -12 11 C-12.495 11.66 -12.99 12.32 -13.5 13 C-15 15 -15 15 -18 16 C-19.37334617 18.28891028 -20.15250816 20.45752447 -21 23 C-20.34 23 -19.68 23 -19 23 C-18.67 24.32 -18.34 25.64 -18 27 C-20.8125 28.5625 -20.8125 28.5625 -24 30 C-24.99 29.67 -25.98 29.34 -27 29 C-26.505 28.62875 -26.01 28.2575 -25.5 27.875 C-23.75742715 26.0171668 -23.75742715 26.0171668 -23.5625 23.125 C-24.09082572 19.35124488 -25.42297737 17.73808654 -28 15 C-27.34 14.34 -26.68 13.68 -26 13 C-24.68 14.32 -23.36 15.64 -22 17 C-21.39414063 16.443125 -20.78828125 15.88625 -20.1640625 15.3125 C-3.35135135 0 -3.35135135 0 0 0 Z " fill="#0F0A3E" transform="translate(146,142)"/>
<path d="M0 0 C1.65 0.33 3.3 0.66 5 1 C5 1.99 5 2.98 5 4 C5.99 4.33 6.98 4.66 8 5 C9.16796875 7.06640625 9.16796875 7.06640625 10.1875 9.5625 C10.53167969 10.38878906 10.87585938 11.21507812 11.23046875 12.06640625 C11.48441406 12.70449219 11.73835937 13.34257812 12 14 C9 16 9 16 5 16 C5 14.02 5 12.04 5 10 C4.34 9.67 3.68 9.34 3 9 C3 10.98 3 12.96 3 15 C2.34 15 1.68 15 1 15 C1 14.34 1 13.68 1 13 C0.34 13 -0.32 13 -1 13 C-1.33 11.35 -1.66 9.7 -2 8 C-1.01 7.34 -0.02 6.68 1 6 C0.67 4.02 0.34 2.04 0 0 Z " fill="#795EEF" transform="translate(169,126)"/>
<path d="M0 0 C0.99 0.33 1.98 0.66 3 1 C3.33 1.99 3.66 2.98 4 4 C-8.90937697 14.75015733 -8.90937697 14.75015733 -13 17 C-13.99 16.67 -14.98 16.34 -16 16 C-15.67 15.34 -15.34 14.68 -15 14 C-14.34 14 -13.68 14 -13 14 C-12.95617187 13.27554688 -12.91234375 12.55109375 -12.8671875 11.8046875 C-11.68245716 7.97299206 -9.26545113 6.36082469 -6.125 4.125 C-5.58230469 3.70992187 -5.03960937 3.29484375 -4.48046875 2.8671875 C-2.8828125 1.6953125 -2.8828125 1.6953125 0 0 Z " fill="#8467C1" transform="translate(157,126)"/>
<path d="M0 0 C0.33 0 0.66 0 1 0 C1.125 5.75 1.125 5.75 0 8 C-0.20329268 9.82963411 -0.36472196 11.66408368 -0.5 13.5 C-0.88888889 18.77777778 -0.88888889 18.77777778 -2 21 C-3.17034722 33.49508062 -3.17034722 33.49508062 1.703125 44.55859375 C2.34507813 45.27208984 2.34507813 45.27208984 3 46 C3.515625 46.78375 4.03125 47.5675 4.5625 48.375 C6.20017491 50.22628468 7.73071492 51.06098548 10 52 C8.515 52.495 8.515 52.495 7 53 C1.18053808 49.32763794 -2.92839379 44.47915977 -4.54296875 37.73046875 C-6.75413743 24.52015333 -3.62266634 12.61188895 0 0 Z " fill="#5C50C1" transform="translate(82,145)"/>
<path d="M0 0 C2.64 0.99 5.28 1.98 8 3 C3.99904368 7.00095632 -1.8720494 8.75876285 -7 11 C-7.73476562 11.34933594 -8.46953125 11.69867188 -9.2265625 12.05859375 C-14.49780923 14.25319647 -19.74260497 14.27367502 -25.375 14.3125 C-26.17317139 14.31813965 -26.97134277 14.3237793 -27.79370117 14.32958984 C-31.69048061 14.28061551 -33.69114787 14.20590142 -37 12 C-36.00202393 11.91697632 -36.00202393 11.91697632 -34.98388672 11.83227539 C-31.94737287 11.57821917 -28.91119027 11.32039327 -25.875 11.0625 C-24.30492188 10.93198242 -24.30492188 10.93198242 -22.703125 10.79882812 C-17.76042438 10.37650877 -12.87811856 9.93680132 -8 9 C-8.33 8.34 -8.66 7.68 -9 7 C-6.03 6.34 -3.06 5.68 0 5 C0 3.35 0 1.7 0 0 Z " fill="#524BD7" transform="translate(128,186)"/>
<path d="M0 0 C0 0.66 0 1.32 0 2 C0.99 2 1.98 2 3 2 C2.66142425 5.04718178 2.16892978 6.7747603 0.3125 9.25 C-2.46594942 11.35261037 -4.56753564 11.68795779 -8 12 C-9.32 10.35 -10.64 8.7 -12 7 C-9.73442515 3.60163773 -8.69277466 3.35101512 -5 2 C-2 0 -2 0 0 0 Z " fill="#6254EC" transform="translate(161,163)"/>
<path d="M0 0 C0.66 0.33 1.32 0.66 2 1 C1.67 2.32 1.34 3.64 1 5 C0.01 5 -0.98 5 -2 5 C-2.66 7.64 -3.32 10.28 -4 13 C-4.99 12.67 -5.98 12.34 -7 12 C-7 12.66 -7 13.32 -7 14 C-7.66 14 -8.32 14 -9 14 C-9.33 14.66 -9.66 15.32 -10 16 C-10.66 15.67 -11.32 15.34 -12 15 C-12.33 15.66 -12.66 16.32 -13 17 C-13 16.01 -13 15.02 -13 14 C-12.34 14 -11.68 14 -11 14 C-11 13.34 -11 12.68 -11 12 C-11.66 12 -12.32 12 -13 12 C-11.64891639 8.90989789 -10.20982067 7.03089847 -7.625 4.875 C-7.03976563 4.37742188 -6.45453125 3.87984375 -5.8515625 3.3671875 C-3.95143888 1.96414264 -2.19508738 0.8762283 0 0 Z " fill="#6D5AD9" transform="translate(186,139)"/>
<path d="M0 0 C5.12576145 3.2314583 9.37847955 6.83668244 12.875 11.8125 C12.875 12.4725 12.875 13.1325 12.875 13.8125 C11.885 13.4825 10.895 13.1525 9.875 12.8125 C9.875 12.1525 9.875 11.4925 9.875 10.8125 C9.29234375 10.55597656 8.7096875 10.29945312 8.109375 10.03515625 C5.68421386 8.70810129 4.08503884 7.1897905 2.125 5.25 C-1.95018664 1.55781962 -4.68965718 0.90955969 -10.125 0.8125 C-10.125 1.4725 -10.125 2.1325 -10.125 2.8125 C-11.775 2.8125 -13.425 2.8125 -15.125 2.8125 C-14.795 3.8025 -14.465 4.7925 -14.125 5.8125 C-16.105 6.4725 -18.085 7.1325 -20.125 7.8125 C-15.17635304 -0.43524493 -9.28019983 -3.52647593 0 0 Z " fill="#140A2E" transform="translate(137.125,94.1875)"/>
<path d="M0 0 C0.66 0 1.32 0 2 0 C2.69937202 1.4317616 3.38412718 2.87067032 4.0625 4.3125 C4.63677734 5.51326172 4.63677734 5.51326172 5.22265625 6.73828125 C6 9 6 9 5 12 C4 14 3 16 2 18 C1.54625 17.195625 1.0925 16.39125 0.625 15.5625 C-0.74725665 12.91143428 -0.74725665 12.91143428 -3 12 C-3 10.68 -3 9.36 -3 8 C-2.34 7.67 -1.68 7.34 -1 7 C-1 5.68 -1 4.36 -1 3 C-0.34 3 0.32 3 1 3 C0.67 2.01 0.34 1.02 0 0 Z " fill="#8162ED" transform="translate(164,113)"/>
<path d="M0 0 C0.48210937 0.42152344 0.96421875 0.84304687 1.4609375 1.27734375 C2.09257813 1.82519531 2.72421875 2.37304688 3.375 2.9375 C4.00148438 3.48277344 4.62796875 4.02804688 5.2734375 4.58984375 C8.33899744 7.09361555 10.7359305 7.24594783 14.625 7.5625 C16.12933594 7.68818359 16.12933594 7.68818359 17.6640625 7.81640625 C18.43492188 7.87699219 19.20578125 7.93757812 20 8 C19.67 8.66 19.34 9.32 19 10 C16.890625 10.6328125 16.890625 10.6328125 14.25 11.125 C13.38890625 11.29257813 12.5278125 11.46015625 11.640625 11.6328125 C9.05466179 11.9923991 6.60686191 12.06564041 4 12 C1 6.25 1 6.25 1 4 C0.34 4 -0.32 4 -1 4 C-0.67 2.68 -0.34 1.36 0 0 Z " fill="#5A51E4" transform="translate(99,174)"/>
<path d="M0 0 C0.99 0.66 1.98 1.32 3 2 C2.67 2.99 2.34 3.98 2 5 C1.34 4.67 0.68 4.34 0 4 C-0.33 4.99 -0.66 5.98 -1 7 C-3.97 7 -6.94 7 -10 7 C-9.6875 4.625 -9.6875 4.625 -9 2 C-5.53001271 -0.31332486 -4.07490752 -0.33957563 0 0 Z " fill="#8167CD" transform="translate(118,157)"/>
<path d="M0 0 C1.08141333 2.08558285 2.04233815 4.11682193 2.84375 6.328125 C4.51109151 10.18103579 7.02024252 13.2615049 9.5390625 16.59765625 C11 19 11 19 11 23 C11.99 23.33 12.98 23.66 14 24 C13.01 24.66 12.02 25.32 11 26 C10.50371094 25.0821875 10.00742188 24.164375 9.49609375 23.21875 C5.60895603 16.15455071 1.73137918 9.7672003 -4 4 C-2.68 2.68 -1.36 1.36 0 0 Z " fill="#0F0726" transform="translate(157,89)"/>
<path d="M0 0 C0.66 0.33 1.32 0.66 2 1 C1.48050781 1.94359375 0.96101563 2.8871875 0.42578125 3.859375 C-3.87679644 11.75328373 -7.74857914 19.60570671 -11 28 C-13.475 27.01 -13.475 27.01 -16 26 C-15.505 24.515 -15.505 24.515 -15 23 C-14.01 23.33 -13.02 23.66 -12 24 C-11.814375 22.7934375 -11.814375 22.7934375 -11.625 21.5625 C-11.41875 20.716875 -11.2125 19.87125 -11 19 C-10.34 18.67 -9.68 18.34 -9 18 C-8.09274566 15.88672575 -8.09274566 15.88672575 -7.375 13.4375 C-7.11460938 12.61121094 -6.85421875 11.78492187 -6.5859375 10.93359375 C-6.39257812 10.29550781 -6.19921875 9.65742187 -6 9 C-5.34 9 -4.68 9 -4 9 C-3.71125 8.071875 -3.4225 7.14375 -3.125 6.1875 C-2 3 -2 3 0 0 Z " fill="#0B0622" transform="translate(97,109)"/>
<path d="M0 0 C0.33 0 0.66 0 1 0 C1 1.98 1 3.96 1 6 C1.66 6 2.32 6 3 6 C3.33 7.32 3.66 8.64 4 10 C4.99 9.67 5.98 9.34 7 9 C6.58682778 13.82034262 4.61980085 15.90992611 1 19 C0.34 19 -0.32 19 -1 19 C-0.67 12.73 -0.34 6.46 0 0 Z " fill="#5B53E1" transform="translate(178,178)"/>
<path d="M0 0 C0.66 0.33 1.32 0.66 2 1 C1.67 1.99 1.34 2.98 1 4 C0.34 4 -0.32 4 -1 4 C-0.67 5.32 -0.34 6.64 0 8 C-2.25 10.0625 -2.25 10.0625 -5 12 C-7.3125 11.75 -7.3125 11.75 -9 11 C-9.33 11.66 -9.66 12.32 -10 13 C-10.33 12.34 -10.66 11.68 -11 11 C-7.6189962 6.86378916 -4.33409466 3.18683431 0 0 Z " fill="#6C5BC1" transform="translate(143,136)"/>
<path d="M0 0 C1.45606519 4.52092968 0.27032841 7.51648796 -1 12 C-0.34 12.33 0.32 12.66 1 13 C0.67 14.65 0.34 16.3 0 18 C-0.99 18.33 -1.98 18.66 -3 19 C-3.66 18.34 -4.32 17.68 -5 17 C-5.99 16.34 -6.98 15.68 -8 15 C-7.236875 14.195625 -6.47375 13.39125 -5.6875 12.5625 C-2.51756027 8.80720208 -1.27944127 4.6808827 0 0 Z " fill="#05041A" transform="translate(187,181)"/>
<path d="M0 0 C2 2 2 2 2.375 4.875 C2 8 2 8 0.5 10.375 C-2.53383528 12.34699293 -4.51996694 12.63719326 -8.08984375 12.45703125 C-10 12 -10 12 -12.5625 9.75 C-14 7 -14 7 -13.75 4.6875 C-13.5025 4.130625 -13.255 3.57375 -13 3 C-12.67 4.65 -12.34 6.3 -12 8 C-11.34 8 -10.68 8 -10 8 C-10 7.34 -10 6.68 -10 6 C-7.69 6 -5.38 6 -3 6 C-3.33 6.66 -3.66 7.32 -4 8 C-5.33333333 8.33333333 -6.66666667 8.66666667 -8 9 C-8.33 9.66 -8.66 10.32 -9 11 C-4.66770285 10.1395861 -4.66770285 10.1395861 -1 8 C-0.76924918 6.65252916 -0.58846937 5.29622435 -0.4375 3.9375 C-0.293125 2.638125 -0.14875 1.33875 0 0 Z " fill="#6153BE" transform="translate(121,160)"/>
<path d="M0 0 C2 1 2 1 2.625 2.625 C3.12095645 5.7660575 3.06103811 8.82601831 3 12 C2.01 12.33 1.02 12.66 0 13 C-0.33 11.68 -0.66 10.36 -1 9 C-1.66 9 -2.32 9 -3 9 C-3 6.36 -3 3.72 -3 1 C-2.01 0.67 -1.02 0.34 0 0 Z " fill="#6857F1" transform="translate(182,175)"/>
<path d="M0 0 C1.22534651 3.67603953 0.58819311 5.11544618 -0.4375 8.8125 C-2.82560796 18.62784279 -3.09398775 28.3312883 0 38 C-0.99 38 -1.98 38 -3 38 C-4.67461042 28.59085798 -5.29774468 20.04459719 -3.75 10.5625 C-3.6161792 9.74031982 -3.4823584 8.91813965 -3.34448242 8.07104492 C-2.29014226 2.29014226 -2.29014226 2.29014226 0 0 Z " fill="#6255D0" transform="translate(99,136)"/>
<path d="M0 0 C0.66 0 1.32 0 2 0 C2 0.66 2 1.32 2 2 C2.66 2 3.32 2 4 2 C3.67 5.96 3.34 9.92 3 14 C2.67 12.68 2.34 11.36 2 10 C0.35 10.66 -1.3 11.32 -3 12 C-3.33 10.02 -3.66 8.04 -4 6 C-3.34 6 -2.68 6 -2 6 C-1.34 4.02 -0.68 2.04 0 0 Z " fill="#8663EB" transform="translate(183,158)"/>
<path d="M0 0 C1.65 1.32 3.3 2.64 5 4 C3.56006357 7.21272249 1.76981628 9.6206664 -0.5625 12.25 C-1.18253906 12.95640625 -1.80257812 13.6628125 -2.44140625 14.390625 C-3.21291016 15.18726563 -3.21291016 15.18726563 -4 16 C-4.33 16 -4.66 16 -5 16 C-5.20086443 12.28400809 -5.1519437 11.22791555 -3 8 C-2.01 8 -1.02 8 0 8 C-0.33 6.68 -0.66 5.36 -1 4 C-1.99 4 -2.98 4 -4 4 C-2.68 2.68 -1.36 1.36 0 0 Z " fill="#6C5ACF" transform="translate(187,136)"/>
<path d="M0 0 C3.48846099 1.16282033 3.64041683 1.63109739 5.26171875 4.74609375 C5.85629883 5.87821289 5.85629883 5.87821289 6.46289062 7.03320312 C6.86701172 7.82662109 7.27113281 8.62003906 7.6875 9.4375 C8.10322266 10.22705078 8.51894531 11.01660156 8.94726562 11.83007812 C12 17.70997537 12 17.70997537 12 20 C11.01 20 10.02 20 9 20 C8.34 18.02 7.68 16.04 7 14 C5.68 14 4.36 14 3 14 C3.2475 13.34 3.495 12.68 3.75 12 C4.07531223 8.09625323 2.77193963 6.02939622 0.91015625 2.671875 C0 1 0 1 0 0 Z " fill="#0F0727" transform="translate(152,113)"/>
<path d="M0 0 C0.66 0 1.32 0 2 0 C1.61271765 5.71241466 1.12989477 8.73688282 -3 13 C-5.475 12.01 -5.475 12.01 -8 11 C-8 10.34 -8 9.68 -8 9 C-7.01 9 -6.02 9 -5 9 C-4.5978125 8.1646875 -4.5978125 8.1646875 -4.1875 7.3125 C-2.89100504 4.78774666 -1.57523677 2.36285516 0 0 Z " fill="#7760D8" transform="translate(196,127)"/>
<path d="M0 0 C1.21236328 0.02707031 1.21236328 0.02707031 2.44921875 0.0546875 C3.37154297 0.08949219 3.37154297 0.08949219 4.3125 0.125 C5.51464714 4.13215713 5.4043452 6.55283915 3.625 10.25 C1.91190322 13.36580668 0.03307291 15.79308036 -2.6875 18.125 C-2.11165568 15.73935923 -1.46522405 13.45817216 -0.6875 11.125 C-0.0275 11.125 0.6325 11.125 1.3125 11.125 C1.291875 10.34125 1.27125 9.5575 1.25 8.75 C1.3125 6.125 1.3125 6.125 2.3125 4.125 C1.9825 3.465 1.6525 2.805 1.3125 2.125 C-1.6575 2.125 -4.6275 2.125 -7.6875 2.125 C-4.48369983 -0.01086678 -3.66810033 -0.10632175 0 0 Z " fill="#10072D" transform="translate(192.6875,114.875)"/>
<path d="M0 0 C3.90733591 4.75675676 3.90733591 4.75675676 4 8 C2.3067377 12.02942097 0.66955982 14.55362679 -3 17 C-2.855625 16.195625 -2.71125 15.39125 -2.5625 14.5625 C-2.00471254 11.02984612 -1.62019113 7.51200686 -1.28125 3.953125 C-1 2 -1 2 0 0 Z " fill="#6D57E7" transform="translate(84,140)"/>
<path d="M0 0 C3.38890801 1.23783869 6.15704326 2.78881142 9 5 C8.67 5.99 8.34 6.98 8 8 C7.113125 7.38125 6.22625 6.7625 5.3125 6.125 C-1.07208526 2.02922833 -6.65336921 0.86616239 -14.13671875 2.453125 C-15.77313716 2.917828 -17.38963357 3.45179015 -19 4 C-18.67 3.01 -18.34 2.02 -18 1 C-13.11837818 -1.44081091 -5.36965316 -0.69139457 0 0 Z " fill="#120827" transform="translate(139,79)"/>
<path d="M0 0 C0.66 0 1.32 0 2 0 C2.04898438 0.59167969 2.09796875 1.18335938 2.1484375 1.79296875 C2.58315929 6.82200248 2.58315929 6.82200248 4.1875 11.5625 C5.41284221 15.23852664 4.40880454 18.45450857 3 22 C2.34 22.66 1.68 23.32 1 24 C0.67 16.08 0.34 8.16 0 0 Z " fill="#180F3B" transform="translate(187,156)"/>
<path d="M0 0 C0.28875 0.61875 0.5775 1.2375 0.875 1.875 C2.52703842 4.99551702 3.62072216 5.87357405 7 7 C5.02 8.32 3.04 9.64 1 11 C0.5978125 9.5459375 0.5978125 9.5459375 0.1875 8.0625 C-0.204375 7.051875 -0.59625 6.04125 -1 5 C-1.99 4.67 -2.98 4.34 -4 4 C-4 4.66 -4 5.32 -4 6 C-5.98 6 -7.96 6 -10 6 C-2.6 0 -2.6 0 0 0 Z " fill="#5B51D3" transform="translate(150,168)"/>
<path d="M0 0 C0 0.99 0 1.98 0 3 C-2.93774463 3.05390357 -5.87450232 3.0936255 -8.8125 3.125 C-9.64587891 3.14175781 -10.47925781 3.15851563 -11.33789062 3.17578125 C-12.14033203 3.18222656 -12.94277344 3.18867188 -13.76953125 3.1953125 C-14.87711792 3.21102295 -14.87711792 3.21102295 -16.00708008 3.22705078 C-18 3 -18 3 -21 1 C-18.81274749 0.83011631 -16.62518299 0.66424731 -14.4375 0.5 C-12.61025391 0.36078125 -12.61025391 0.36078125 -10.74609375 0.21875 C-7.15365784 0.00897272 -3.59752457 -0.03704015 0 0 Z " fill="#4D48CB" transform="translate(112,197)"/>
<path d="M0 0 C0.33 0 0.66 0 1 0 C1.05837668 3.70826651 1.09372277 7.4164137 1.125 11.125 C1.14175781 12.17171875 1.15851563 13.2184375 1.17578125 14.296875 C1.20929909 19.59269336 1.17213685 24.0571059 -1 29 C-1.33 29 -1.66 29 -2 29 C-2.22245393 27.39773045 -2.42746669 25.79303233 -2.625 24.1875 C-2.74101562 23.29417969 -2.85703125 22.40085938 -2.9765625 21.48046875 C-3 19 -3 19 -1 16 C-0.69933846 13.24582682 -0.49074701 10.57354853 -0.375 7.8125 C-0.33632812 7.06291016 -0.29765625 6.31332031 -0.2578125 5.54101562 C-0.16371784 3.69440801 -0.08077681 1.8472381 0 0 Z " fill="#715CD2" transform="translate(187,158)"/>
<path d="M0 0 C1.74627478 2.61941217 2.38722388 4.03824877 3 7 C4.32 6.67 5.64 6.34 7 6 C7.99 9.63 8.98 13.26 10 17 C10.66 17 11.32 17 12 17 C12 17.66 12 18.32 12 19 C8.40896995 17.80298998 8.01677407 16.88098551 6.0625 13.75 C3.08719366 9.11028962 0.01071378 4.81017809 -4 1 C-2.68 0.67 -1.36 0.34 0 0 Z " fill="#8266CA" transform="translate(144,95)"/>
<path d="M0 0 C0.33 0.99 0.66 1.98 1 3 C0.29875 3.70125 -0.4025 4.4025 -1.125 5.125 C-1.57617188 5.57875 -2.02734375 6.0325 -2.4921875 6.5 C-3.52880571 7.53124713 -4.57638043 8.55156022 -5.6328125 9.5625 C-9.01645334 12.81037174 -9.01645334 12.81037174 -11 17 C-13.9375 18.75 -13.9375 18.75 -17 20 C-17.66 19.67 -18.32 19.34 -19 19 C-18.13117188 18.21496094 -17.26234375 17.42992187 -16.3671875 16.62109375 C-10.55797065 11.33738862 -4.90179311 6.16225419 0 0 Z " fill="#0F0740" transform="translate(187,146)"/>
<path d="M0 0 C0.33 0.99 0.66 1.98 1 3 C0.67 3.33 0.34 3.66 0 4 C0.99 4.33 1.98 4.66 3 5 C1.7391988 6.03319813 0.46596742 7.05124379 -0.8125 8.0625 C-1.52019531 8.63097656 -2.22789062 9.19945312 -2.95703125 9.78515625 C-3.63121094 10.18605469 -4.30539063 10.58695313 -5 11 C-5.99 10.67 -6.98 10.34 -8 10 C-7.67 9.34 -7.34 8.68 -7 8 C-6.34 8 -5.68 8 -5 8 C-4.9175 7.236875 -4.835 6.47375 -4.75 5.6875 C-3.85384206 2.47626739 -2.78388975 1.70625501 0 0 Z " fill="#7962CE" transform="translate(149,132)"/>
<path d="M0 0 C0.99 0.33 1.98 0.66 3 1 C3 3.31 3 5.62 3 8 C2.34 8 1.68 8 1 8 C0.67 7.67 0.34 7.34 0 7 C-2.16666667 7.83333333 -2.16666667 7.83333333 -3 10 C-3 9.01 -3 8.02 -3 7 C-3.66 7 -4.32 7 -5 7 C-3.70700306 4.11562221 -2.34058637 2.12780579 0 0 Z " fill="#916CE0" transform="translate(184,152)"/>
<path d="M0 0 C0.28875 0.639375 0.5775 1.27875 0.875 1.9375 C1.82823451 4.15206079 1.82823451 4.15206079 4 5 C3.39816251 7.02045442 2.72693904 9.02111039 2 11 C1.01 11.495 1.01 11.495 0 12 C-0.33 11.01 -0.66 10.02 -1 9 C-0.34 9 0.32 9 1 9 C1 8.01 1 7.02 1 6 C-1.91488977 8.6234008 -3.88503898 11.71816394 -6 15 C-6.99 14.67 -7.98 14.34 -9 14 C-8.51789063 13.40832031 -8.03578125 12.81664062 -7.5390625 12.20703125 C-6.59160156 11.02173828 -6.59160156 11.02173828 -5.625 9.8125 C-4.99851563 9.03519531 -4.37203125 8.25789062 -3.7265625 7.45703125 C-2.02192866 5.03120618 -0.98012094 2.78690955 0 0 Z " fill="#725DC4" transform="translate(197,121)"/>
<path d="M0 0 C0 2.31 0 4.62 0 7 C-0.99 6.67 -1.98 6.34 -3 6 C-3 6.66 -3 7.32 -3 8 C-3.66 8 -4.32 8 -5 8 C-5.33 8.66 -5.66 9.32 -6 10 C-6.66 9.67 -7.32 9.34 -8 9 C-8.33 9.66 -8.66 10.32 -9 11 C-9 10.01 -9 9.02 -9 8 C-8.34 8 -7.68 8 -7 8 C-7 7.34 -7 6.68 -7 6 C-7.66 5.67 -8.32 5.34 -9 5 C-8.360625 4.896875 -7.72125 4.79375 -7.0625 4.6875 C-6.381875 4.460625 -5.70125 4.23375 -5 4 C-4.67 3.01 -4.34 2.02 -4 1 C-2 0 -2 0 0 0 Z " fill="#6E5CEF" transform="translate(182,145)"/>
<path d="M0 0 C0.66 0.66 1.32 1.32 2 2 C-0.28999061 3.81465313 -2.58189032 5.62679598 -4.875 7.4375 C-5.85146484 8.2119043 -5.85146484 8.2119043 -6.84765625 9.00195312 C-7.78544922 9.74155273 -7.78544922 9.74155273 -8.7421875 10.49609375 C-9.3182373 10.95169678 -9.89428711 11.4072998 -10.48779297 11.87670898 C-12 13 -12 13 -14 14 C-14.33 13.01 -14.66 12.02 -15 11 C-10.25 8 -10.25 8 -8 8 C-7.67 7.01 -7.34 6.02 -7 5 C-6.34 5 -5.68 5 -5 5 C-4.731875 4.360625 -4.46375 3.72125 -4.1875 3.0625 C-3 1 -3 1 0 0 Z " fill="#0C0627" transform="translate(148,130)"/>
<path d="M0 0 C0.33 0 0.66 0 1 0 C2.46917359 7.22343682 2.46917359 7.22343682 0.1875 11 C-2 13 -2 13 -4 13 C-4.33 14.32 -4.66 15.64 -5 17 C-6.36420006 12.90739982 -4.7664515 10.52987341 -3.0625 6.8125 C-2.77181641 6.15830078 -2.48113281 5.50410156 -2.18164062 4.83007812 C-1.46304657 3.21618656 -0.7326412 1.60756345 0 0 Z M3 5 C3.33 5.66 3.66 6.32 4 7 C3.34 6.67 2.68 6.34 2 6 C2.33 5.67 2.66 5.34 3 5 Z " fill="#725CD1" transform="translate(91,123)"/>
<path d="M0 0 C3.74192393 3.4211876 6.23779658 6.79019934 8.69140625 11.23046875 C10.22774661 13.3079678 11.63645061 14.02559803 14 15 C13.01 15.33 12.02 15.66 11 16 C5.95558889 12.8167325 2.04965746 8.636558 0 3 C0 2.01 0 1.02 0 0 Z " fill="#544ECC" transform="translate(78,182)"/>
<path d="M0 0 C0.99 0.33 1.98 0.66 3 1 C-0.3810038 5.13621084 -3.66590534 8.81316569 -8 12 C-8.33 11.34 -8.66 10.68 -9 10 C-8.67 9.01 -8.34 8.02 -8 7 C-7.01 7 -6.02 7 -5 7 C-5 5.68 -5 4.36 -5 3 C-3.35 2.67 -1.7 2.34 0 2 C0 1.34 0 0.68 0 0 Z " fill="#6252CF" transform="translate(179,151)"/>
<path d="M0 0 C4.875 1.75 4.875 1.75 6 4 C5.26711523 6.23601706 4.44009385 8.44171775 3.5625 10.625 C3.08941406 11.81351563 2.61632812 13.00203125 2.12890625 14.2265625 C1.75636719 15.14179688 1.38382812 16.05703125 1 17 C0.67 17 0.34 17 0 17 C0.55312735 12.97007218 1.1558062 8.97977076 2 5 C1.34 4.67 0.68 4.34 0 4 C0 2.68 0 1.36 0 0 Z " fill="#7960D5" transform="translate(100,119)"/>
<path d="M0 0 C0 0.99 0 1.98 0 3 C-0.99 3 -1.98 3 -3 3 C-3.33 3.99 -3.66 4.98 -4 6 C-6.96712603 7.11601362 -10.10808526 7.27311312 -13.25 7.5625 C-14.14203125 7.64628906 -15.0340625 7.73007813 -15.953125 7.81640625 C-16.96632813 7.90728516 -16.96632813 7.90728516 -18 8 C-15.5410484 6.36069893 -13.84082063 5.4977145 -11.125 4.5625 C-7.44892706 3.23803254 -3.80144496 0 0 0 Z " fill="#544AC5" transform="translate(140,174)"/>
<path d="M0 0 C0.66 0.33 1.32 0.66 2 1 C2 1.99 2 2.98 2 4 C2.66 4 3.32 4 4 4 C4.33 5.32 4.66 6.64 5 8 C2.1875 9.5625 2.1875 9.5625 -1 11 C-1.99 10.67 -2.98 10.34 -4 10 C-3.525625 9.649375 -3.05125 9.29875 -2.5625 8.9375 C-0.32126175 6.15836457 -0.32882342 3.4855283 0 0 Z " fill="#05020E" transform="translate(123,161)"/>
<path d="M0 0 C3 1 3 1 4.5 3.0625 C5.2425 4.0215625 5.2425 4.0215625 6 5 C6.99 5 7.98 5 9 5 C8.608125 5.556875 8.21625 6.11375 7.8125 6.6875 C7.4103125 7.8321875 7.4103125 7.8321875 7 9 C8.33700035 11.58944746 8.33700035 11.58944746 10 14 C10 14.99 10 15.98 10 17 C9.34 17 8.68 17 8 17 C4.04 8.585 4.04 8.585 0 0 Z " fill="#120936" transform="translate(169,116)"/>
<path d="M0 0 C0.99 0.33 1.98 0.66 3 1 C2.773125 2.0725 2.54625 3.145 2.3125 4.25 C1.69514507 7.86968881 1.69514507 7.86968881 3.125 10.375 C5.38923394 12.33733608 7.05436986 12.6815535 10 13 C10 13.33 10 13.66 10 14 C7.36 14 4.72 14 2 14 C-0.3992233 9.35150485 -0.19957409 5.08913926 0 0 Z " fill="#0D092F" transform="translate(106,159)"/>
<path d="M0 0 C-1.36157378 5.29500913 -4.60343955 7.23745533 -9 10 C-9.66 9.67 -10.32 9.34 -11 9 C-4.25 0 -4.25 0 0 0 Z " fill="#070527" transform="translate(146,142)"/>
<path d="M0 0 C0.99 0 1.98 0 3 0 C2.53198701 4.99213851 0.08284263 9.12963993 -3 13 C-3.66 13 -4.32 13 -5 13 C-4.1875 10.0625 -4.1875 10.0625 -3 7 C-2.01 6.67 -1.02 6.34 0 6 C0 4.02 0 2.04 0 0 Z " fill="#070417" transform="translate(204,119)"/>
<path d="M0 0 C-1.65 0.66 -3.3 1.32 -5 2 C-5 2.66 -5 3.32 -5 4 C-8.3 4.66 -11.6 5.32 -15 6 C-15 5.01 -15 4.02 -15 3 C-3 -1 -3 -1 0 0 Z " fill="#090423" transform="translate(124,153)"/>
<path d="M0 0 C1.5 1.375 1.5 1.375 3 3 C3 3.66 3 4.32 3 5 C3.66 5.33 4.32 5.66 5 6 C4.01 6.33 3.02 6.66 2 7 C2.33 8.32 2.66 9.64 3 11 C2.34 11 1.68 11 1 11 C-0.65 7.7 -2.3 4.4 -4 1 C-3.34 1 -2.68 1 -2 1 C-1.34 1.99 -0.68 2.98 0 4 C0 2.68 0 1.36 0 0 Z " fill="#7C60D7" transform="translate(159,114)"/>
<path d="M0 0 C2.14909962 2.76854598 4.01778828 5.57834526 5.75 8.625 C6.19859375 9.40101562 6.6471875 10.17703125 7.109375 10.9765625 C7.40328125 11.64429687 7.6971875 12.31203125 8 13 C7.67 13.66 7.34 14.32 7 15 C6.34 15 5.68 15 5 15 C4.32880451 13.5437455 3.66318193 12.08492133 3 10.625 C2.62875 9.81289062 2.2575 9.00078125 1.875 8.1640625 C1 6 1 6 1 4 C0.34 3.67 -0.32 3.34 -1 3 C-0.67 2.01 -0.34 1.02 0 0 Z " fill="#7660C4" transform="translate(165,109)"/>
<path d="M0 0 C0.33 1.32 0.66 2.64 1 4 C3.97 4.495 3.97 4.495 7 5 C6 7 6 7 3.0625 8.0625 C2.051875 8.371875 1.04125 8.68125 0 9 C-0.99 9.495 -0.99 9.495 -2 10 C-1.7215625 8.824375 -1.7215625 8.824375 -1.4375 7.625 C-0.74037734 5.02910225 -0.74037734 5.02910225 -2 3 C-1.34 2.01 -0.68 1.02 0 0 Z " fill="#9769ED" transform="translate(119,85)"/>
<path d="M0 0 C2.64 0 5.28 0 8 0 C4.87378374 3.39417765 2.43458973 5.6062718 -2 7 C-2.33 6.01 -2.66 5.02 -3 4 C-2.01 3.34 -1.02 2.68 0 2 C0 1.34 0 0.68 0 0 Z " fill="#564DD0" transform="translate(138,182)"/>
<path d="M0 0 C-0.33 0.66 -0.66 1.32 -1 2 C-0.34 2.33 0.32 2.66 1 3 C1 3.66 1 4.32 1 5 C-1.97 5 -4.94 5 -8 5 C-8 3 -8 3 -6.8125 1.375 C-4.44439338 -0.42149467 -2.90102749 -0.23521845 0 0 Z " fill="#8364E9" transform="translate(116,159)"/>
<path d="M0 0 C0.33 0 0.66 0 1 0 C1.38349307 5.11324087 0.45775975 9.50927848 -2 14 C-2.99 14.66 -3.98 15.32 -5 16 C-4.54548816 14.26982492 -4.08621143 12.54090123 -3.625 10.8125 C-3.36976562 9.84957031 -3.11453125 8.88664063 -2.8515625 7.89453125 C-2.05233704 5.17789793 -1.0968638 2.60862825 0 0 Z " fill="#140D3C" transform="translate(103,128)"/>
<path d="M0 0 C0.33 0.99 0.66 1.98 1 3 C-0.97420135 5.52259061 -1.96745642 5.9929808 -5.1875 6.6875 C-6.5796875 6.8421875 -6.5796875 6.8421875 -8 7 C-8 6.34 -8 5.68 -8 5 C-7.34 5 -6.68 5 -6 5 C-6 4.01 -6 3.02 -6 2 C-2.25 0 -2.25 0 0 0 Z " fill="#8368D7" transform="translate(156,130)"/>
<path d="M0 0 C0.66 0 1.32 0 2 0 C1.3359375 1.88671875 1.3359375 1.88671875 0 4 C-2.4609375 5.08203125 -2.4609375 5.08203125 -5.375 5.8125 C-6.33148438 6.06644531 -7.28796875 6.32039062 -8.2734375 6.58203125 C-10.94051248 6.99088085 -12.48215199 6.87707028 -15 6 C-14.00097656 5.65066406 -13.00195312 5.30132812 -11.97265625 4.94140625 C-10.66921795 4.48192081 -9.3658354 4.02227721 -8.0625 3.5625 C-7.0734668 3.21735352 -7.0734668 3.21735352 -6.06445312 2.86523438 C-2.77671378 1.88035408 -2.77671378 1.88035408 0 0 Z " fill="#0D0B45" transform="translate(129,192)"/>
<path d="M0 0 C1.98 0 3.96 0 6 0 C2.25572134 4.19813062 -0.8403063 6.07776117 -6 8 C-5.67 6.68 -5.34 5.36 -5 4 C-3.68 4 -2.36 4 -1 4 C-0.67 2.68 -0.34 1.36 0 0 Z " fill="#0B0833" transform="translate(150,163)"/>
<path d="M0 0 C0.66 0.33 1.32 0.66 2 1 C1.59007813 1.66386719 1.18015625 2.32773438 0.7578125 3.01171875 C-0.05042969 4.33623047 -0.05042969 4.33623047 -0.875 5.6875 C-1.40867187 6.55761719 -1.94234375 7.42773438 -2.4921875 8.32421875 C-3.90640814 10.83391082 -4.99894789 13.30299069 -6 16 C-6.66 15.67 -7.32 15.34 -8 15 C-6.62712658 11.30123909 -4.93644547 8.0485524 -2.875 4.6875 C-2.33617188 3.80449219 -1.79734375 2.92148438 -1.2421875 2.01171875 C-0.83226563 1.34785156 -0.42234375 0.68398437 0 0 Z " fill="#7D64C3" transform="translate(104,100)"/>
<path d="M0 0 C5.23973548 1.99109948 8.88116041 4.18253892 13 8 C13 8.33 13 8.66 13 9 C11.35 9 9.7 9 8 9 C7.67 7.68 7.34 6.36 7 5 C6.34 5 5.68 5 5 5 C5 4.34 5 3.68 5 3 C3.35 2.67 1.7 2.34 0 2 C0 1.34 0 0.68 0 0 Z " fill="#8A69C3" transform="translate(137,81)"/>
<path d="M0 0 C0.99 0.495 0.99 0.495 2 1 C2 2.32 2 3.64 2 5 C2.66 5 3.32 5 4 5 C4 4.34 4 3.68 4 3 C6.31 3 8.62 3 11 3 C10 5 10 5 7.6875 6.1875 C4.88010429 7.03624754 3.698065 6.99928333 1 6 C0.67 4.02 0.34 2.04 0 0 Z " fill="#6154D1" transform="translate(107,163)"/>
<path d="M0 0 C0.33 1.65 0.66 3.3 1 5 C0.01 5.33 -0.98 5.66 -2 6 C-2 6.99 -2 7.98 -2 9 C-2.66 9 -3.32 9 -4 9 C-4.6875 6.1875 -4.6875 6.1875 -5 3 C-3.41464922 0.73521317 -2.79754986 0 0 0 Z " fill="#08040F" transform="translate(191,147)"/>
<path d="M0 0 C1.32 0 2.64 0 4 0 C3.34 1.98 2.68 3.96 2 6 C0.68 5.67 -0.64 5.34 -2 5 C-2.33 5.66 -2.66 6.32 -3 7 C-3.33 6.34 -3.66 5.68 -4 5 C-2.25 2.5 -2.25 2.5 0 0 Z " fill="#6E5CDE" transform="translate(136,142)"/>
<path d="M0 0 C0.33 0.99 0.66 1.98 1 3 C-0.125 4.5 -0.125 4.5 -2 6 C-5.1875 6.1875 -5.1875 6.1875 -8 6 C-7.67 5.01 -7.34 4.02 -7 3 C-3.4375 1.3125 -3.4375 1.3125 0 0 Z " fill="#6252F2" transform="translate(120,165)"/>
<path d="M0 0 C0.33 0.99 0.66 1.98 1 3 C2.32 3 3.64 3 5 3 C3.35 4.65 1.7 6.3 0 8 C-0.33 7.01 -0.66 6.02 -1 5 C-1.99 4.67 -2.98 4.34 -4 4 C-2.68 2.68 -1.36 1.36 0 0 Z " fill="#6355CB" transform="translate(132,145)"/>
<path d="M0 0 C0.99 0.33 1.98 0.66 3 1 C0.14723863 3.93200474 -2.65079784 6.64315404 -6 9 C-6.66 8.34 -7.32 7.68 -8 7 C-6.74057614 5.80040625 -5.46704714 4.61560557 -4.1875 3.4375 C-3.12595703 2.44556641 -3.12595703 2.44556641 -2.04296875 1.43359375 C-1.36878906 0.96050781 -0.69460937 0.48742187 0 0 Z " fill="#120A48" transform="translate(178,141)"/>
<path d="M0 0 C0.79921875 0.00902344 1.5984375 0.01804687 2.421875 0.02734375 C3.02515625 0.03894531 3.6284375 0.05054687 4.25 0.0625 C2.25 3.0625 2.25 3.0625 0.41015625 3.6796875 C-5.30527899 4.38214323 -5.30527899 4.38214323 -7.75 2.625 C-8.08 2.109375 -8.41 1.59375 -8.75 1.0625 C-5.75519083 0.1901588 -3.11424089 -0.04579766 0 0 Z " fill="#8966C1" transform="translate(131.75,79.9375)"/>
<path d="M0 0 C0.99 0 1.98 0 3 0 C3 0.66 3 1.32 3 2 C2.01 2.495 2.01 2.495 1 3 C0.27840576 4.64363134 -0.39351421 6.31050386 -1 8 C-2.32 7.34 -3.64 6.68 -5 6 C-5 5.34 -5 4.68 -5 4 C-4.01 4 -3.02 4 -2 4 C-1.34 2.68 -0.68 1.36 0 0 Z " fill="#785FEC" transform="translate(193,132)"/>
<path d="M0 0 C0.33 0 0.66 0 1 0 C1 5.28 1 10.56 1 16 C1.66 16.33 2.32 16.66 3 17 C1.02 17.99 1.02 17.99 -1 19 C-0.67 12.73 -0.34 6.46 0 0 Z " fill="#5C51BD" transform="translate(178,178)"/>
<path d="M0 0 C0.66 0 1.32 0 2 0 C1 3 1 3 -0.70703125 4.203125 C-1.40183594 4.54859375 -2.09664062 4.8940625 -2.8125 5.25 C-3.49957031 5.60578125 -4.18664062 5.9615625 -4.89453125 6.328125 C-7.35077442 7.11193544 -8.60042386 6.84119973 -11 6 C-10.28972656 5.65066406 -9.57945312 5.30132812 -8.84765625 4.94140625 C-7.92855469 4.48636719 -7.00945312 4.03132812 -6.0625 3.5625 C-4.68771484 2.88380859 -4.68771484 2.88380859 -3.28515625 2.19140625 C-1.09471096 1.19474606 -1.09471096 1.19474606 0 0 Z " fill="#070731" transform="translate(142,185)"/>
<path d="M0 0 C-2.64 1.98 -5.28 3.96 -8 6 C-8.66 5.67 -9.32 5.34 -10 5 C-10 4.01 -10 3.02 -10 2 C-3.375 -1.125 -3.375 -1.125 0 0 Z " fill="#0B072B" transform="translate(134,145)"/>
<path d="M0 0 C1.26977059 3.80931176 0.52074507 5.81618993 -0.4375 9.6875 C-0.86869141 11.45673828 -0.86869141 11.45673828 -1.30859375 13.26171875 C-1.65083984 14.61716797 -1.65083984 14.61716797 -2 16 C-2.33 16 -2.66 16 -3 16 C-2.88628503 13.70774565 -2.75869036 11.41617612 -2.625 9.125 C-2.55539063 7.84882813 -2.48578125 6.57265625 -2.4140625 5.2578125 C-2 2 -2 2 0 0 Z " fill="#6C5BC9" transform="translate(99,136)"/>
<path d="M0 0 C0.33 0 0.66 0 1 0 C2.33333333 4 3.66666667 8 5 12 C3.0625 11.6875 3.0625 11.6875 1 11 C-0.28317892 7.15046324 -0.06643637 4.05261865 0 0 Z " fill="#0C0B39" transform="translate(77,180)"/>
<path d="M0 0 C-0.1875 2.375 -0.1875 2.375 -1 5 C-3.375 6.375 -3.375 6.375 -6 7 C-6.99 6.67 -7.98 6.34 -9 6 C-7.8803014 4.99406757 -6.7540588 3.9954151 -5.625 3 C-4.68527344 2.1646875 -4.68527344 2.1646875 -3.7265625 1.3125 C-2 0 -2 0 0 0 Z " fill="#0A0730" transform="translate(165,169)"/>
<path d="M0 0 C0.33 0.99 0.66 1.98 1 3 C1.99 3.33 2.98 3.66 4 4 C1.525 5.485 1.525 5.485 -1 7 C-1.66 5.35 -2.32 3.7 -3 2 C-2.01 1.34 -1.02 0.68 0 0 Z " fill="#7362BE" transform="translate(175,115)"/>
<path d="M0 0 C3.28788824 3.11016455 5.83735988 6.01618925 8 10 C4.20401451 8.50871999 2.28279601 6.34266559 0 3 C0 2.01 0 1.02 0 0 Z " fill="#7E64BD" transform="translate(154,94)"/>
<path d="M0 0 C1 3 1 3 -0.1875 5.625 C-2 8 -2 8 -6 9 C-4.02 6.03 -2.04 3.06 0 0 Z " fill="#8365C5" transform="translate(111,90)"/>
<path d="M0 0 C2.64465038 3.1254959 3.84414715 6.08788267 5 10 C4.01 10 3.02 10 2 10 C1.46987262 8.71211992 0.9511671 7.41953322 0.4375 6.125 C0.14746094 5.40570313 -0.14257812 4.68640625 -0.44140625 3.9453125 C-1 2 -1 2 0 0 Z " fill="#1E1048" transform="translate(159,123)"/>
<path d="M0 0 C1 2 2 4 3 6 C1.68 6.33 0.36 6.66 -1 7 C-1.99 5.68 -2.98 4.36 -4 3 C-3.01 2.67 -2.02 2.34 -1 2 C-0.67 1.34 -0.34 0.68 0 0 Z " fill="#0B0518" transform="translate(157,89)"/>
<path d="M0 0 C6 4 6 4 12 8 C7.02833396 7.526508 3.89003364 6.14907485 0 3 C0 2.01 0 1.02 0 0 Z " fill="#080837" transform="translate(82,192)"/>
<path d="M0 0 C7.425 0.99 7.425 0.99 15 2 C15 2.33 15 2.66 15 3 C10.05 3 5.1 3 0 3 C0 2.01 0 1.02 0 0 Z " fill="#4C45B8" transform="translate(104,180)"/>
<path d="M0 0 C0.99 0.33 1.98 0.66 3 1 C2.67 2.32 2.34 3.64 2 5 C1.34 4.67 0.68 4.34 0 4 C-2.60931266 4.89363605 -2.60931266 4.89363605 -5 6 C-3.35 4.02 -1.7 2.04 0 0 Z " fill="#755DAC" transform="translate(184,152)"/>
<path d="M0 0 C1.32 0 2.64 0 4 0 C4 0.99 4 1.98 4 3 C4.66 3.33 5.32 3.66 6 4 C4.35 4.33 2.7 4.66 1 5 C0.67 3.35 0.34 1.7 0 0 Z " fill="#5149F3" transform="translate(90,193)"/>
<path d="M0 0 C-3.20336822 2.83374881 -5.78087253 3.5205537 -10 4 C-10 3.34 -10 2.68 -10 2 C-6.37626474 -0.79545292 -4.37834956 -1.37605272 0 0 Z " fill="#090833" transform="translate(133,177)"/>
<path d="M0 0 C0 3.10551666 -0.5393715 4.35261084 -2 7 C-1.34 7.33 -0.68 7.66 0 8 C-0.99 8 -1.98 8 -3 8 C-3.66 6.68 -4.32 5.36 -5 4 C-3.35 2.68 -1.7 1.36 0 0 Z " fill="#574BBF" transform="translate(125,151)"/>
<path d="M0 0 C2.32472205 2.85306797 3.7508258 5.54074837 5 9 C4.01 9.33 3.02 9.66 2 10 C0.68373308 6.38026598 0 3.90432869 0 0 Z " fill="#6B5ABE" transform="translate(176,131)"/>
<path d="M0 0 C0.33 0 0.66 0 1 0 C1 2.64 1 5.28 1 8 C-0.32 8.33 -1.64 8.66 -3 9 C-2.01 6.03 -1.02 3.06 0 0 Z " fill="#6D58BD" transform="translate(91,123)"/>
<path d="M0 0 C0.66 0 1.32 0 2 0 C2.66 0.99 3.32 1.98 4 3 C3.67 3.99 3.34 4.98 3 6 C2.67 6 2.34 6 2 6 C1.01 6.495 1.01 6.495 0 7 C-0.66 5.35 -1.32 3.7 -2 2 C-1.34 2 -0.68 2 0 2 C0 1.34 0 0.68 0 0 Z " fill="#8563E0" transform="translate(154,105)"/>
<path d="M0 0 C2.0625 0.4375 2.0625 0.4375 4 1 C3.67 2.65 3.34 4.3 3 6 C2.01 6 1.02 6 0 6 C-0.38218767 4.34385343 -0.71395102 2.67542976 -1 1 C-0.67 0.67 -0.34 0.34 0 0 Z " fill="#04030B" transform="translate(163,96)"/>
<path d="M0 0 C-0.33 0.99 -0.66 1.98 -1 3 C-4.3 3.33 -7.6 3.66 -11 4 C-7.61125486 1.74083657 -4.15175481 0 0 0 Z " fill="#594ECE" transform="translate(133,178)"/>
<path d="M0 0 C0 0.66 0 1.32 0 2 C-1.65 2.66 -3.3 3.32 -5 4 C-5 6.31 -5 8.62 -5 11 C-5.33 11 -5.66 11 -6 11 C-6.34886026 5.67988107 -6.34886026 5.67988107 -6 3 C-3.95950963 0.82347693 -2.99435075 0 0 0 Z " fill="#030115" transform="translate(104,141)"/>
<path d="M0 0 C0.66 0 1.32 0 2 0 C2.33 0.99 2.66 1.98 3 3 C3.66 3.66 4.32 4.32 5 5 C3.68 5.99 2.36 6.98 1 8 C0.40267181 5.23735711 0 2.83967231 0 0 Z " fill="#040412" transform="translate(80,192)"/>
<path d="M0 0 C1.13757948 4.55031791 0.4283779 6.63084406 -1 11 C-1.66 11 -2.32 11 -3 11 C-2.01 7.37 -1.02 3.74 0 0 Z " fill="#141042" transform="translate(187,181)"/>
<path d="M0 0 C2.31 0 4.62 0 7 0 C7.66 1.32 8.32 2.64 9 4 C7.35 4 5.7 4 4 4 C4 3.34 4 2.68 4 2 C2.68 1.34 1.36 0.68 0 0 Z " fill="#5A51E5" transform="translate(119,182)"/>
<path d="M0 0 C1.125 1.75 1.125 1.75 2 4 C1.125 6.25 1.125 6.25 0 8 C-1.32 7.67 -2.64 7.34 -4 7 C-3.525625 6.5875 -3.05125 6.175 -2.5625 5.75 C-0.83733482 3.817815 -0.43415125 2.51807725 0 0 Z " fill="#0E0A33" transform="translate(123,164)"/>
<path d="M0 0 C-1.45381897 0.69699552 -2.91322953 1.38233866 -4.375 2.0625 C-5.18710938 2.44535156 -5.99921875 2.82820313 -6.8359375 3.22265625 C-7.55007812 3.47917969 -8.26421875 3.73570313 -9 4 C-9.66 3.67 -10.32 3.34 -11 3 C-7.56065558 -0.95524608 -4.91824601 -1.35534128 0 0 Z " fill="#0B0423" transform="translate(182,113)"/>
<path d="M0 0 C0.33 0 0.66 0 1 0 C1 1.65 1 3.3 1 5 C0.34 5 -0.32 5 -1 5 C-1.33 5.99 -1.66 6.98 -2 8 C-2.66 8 -3.32 8 -4 8 C-2.87548273 5.0280615 -1.77706209 2.66559313 0 0 Z " fill="#12082A" transform="translate(116,103)"/>
<path d="M0 0 C1.32 0.33 2.64 0.66 4 1 C2.25 5.875 2.25 5.875 0 7 C0 4.69 0 2.38 0 0 Z " fill="#8B64E3" transform="translate(151,99)"/>
</svg>
