<?xml version="1.0" encoding="UTF-8"?>
<svg version="1.1" xmlns="http://www.w3.org/2000/svg" width="400" height="400">
<path d="M0 0 C132 0 264 0 400 0 C400 132 400 264 400 400 C268 400 136 400 0 400 C0 268 0 136 0 0 Z " fill="#030602" transform="translate(0,0)"/>
<path d="M0 0 C12.87 0 25.74 0 39 0 C39 83.49 39 166.98 39 253 C26.13 253 13.26 253 0 253 C0 169.51 0 86.02 0 0 Z " fill="#DAFCB3" transform="translate(30,65)"/>
<path d="M0 0 C3.63 0 7.26 0 11 0 C11 13.53 11 27.06 11 41 C19.25 41 27.5 41 36 41 C36.33 41.66 36.66 42.32 37 43 C37.37809814 41.98164063 37.75619629 40.96328125 38.14575195 39.9140625 C39.56017223 36.10460648 40.97476357 32.295214 42.3894043 28.48583984 C42.99947639 26.8429533 43.60950324 25.20004995 44.21948242 23.55712891 C45.10062712 21.1838741 45.98193916 18.8106815 46.86328125 16.4375 C47.13215652 15.71320801 47.4010318 14.98891602 47.67805481 14.24267578 C49.4427262 9.491598 51.21838357 4.74475043 53 0 C57.29 0 61.58 0 66 0 C69.67711333 8.50332458 72.90579447 17.11200674 76.0390625 25.82788086 C78.31243228 32.14526746 80.67959146 38.40819588 83.1875 44.63671875 C84 47 84 47 84 50 C80.37 50 76.74 50 73 50 C71.68 46.7 70.36 43.4 69 40 C62.73 39.67 56.46 39.34 50 39 C49.01 42.63 48.02 46.26 47 50 C31.49 50 15.98 50 0 50 C0 33.5 0 17 0 0 Z " fill="#CAF89C" transform="translate(96,208)"/>
<path d="M0 0 C4.269375 -0.0825 8.53875 -0.165 12.9375 -0.25 C14.26515381 -0.28641602 15.59280762 -0.32283203 16.96069336 -0.36035156 C25.68813336 -0.44154314 31.87967065 0.7952994 38.8125 6.1875 C44.86005299 13.96292527 45.99043162 21.25270344 45 31 C43.81321149 37.12565454 41.57034291 41.63278344 37 46 C29.59776026 50.91994463 22.67457862 50.46919217 14 50.25 C9.38 50.1675 4.76 50.085 0 50 C0 33.5 0 17 0 0 Z " fill="#C6F798" transform="translate(349,139)"/>
<path d="M0 0 C5.15625 -0.0825 10.3125 -0.165 15.625 -0.25 C17.24100098 -0.28641602 18.85700195 -0.32283203 20.52197266 -0.36035156 C21.8063623 -0.3703418 23.09075195 -0.38033203 24.4140625 -0.390625 C25.7232666 -0.41157227 27.0324707 -0.43251953 28.38134766 -0.45410156 C33.37776989 0.17289516 36.36707701 2.33945886 39.84765625 5.87890625 C42.19630931 10.20202018 41.60348759 15.24347955 41 20 C39.125 23.25 39.125 23.25 37 25 C36.34 25 35.68 25 35 25 C35.79921875 25.82113281 36.5984375 26.64226562 37.421875 27.48828125 C40.50292662 31.18749872 40.92123899 34.49400398 41.25 39.1875 C41.69797464 44.67005686 41.69797464 44.67005686 43 50 C39.04 50 35.08 50 31 50 C30.89042969 48.95199219 30.78085937 47.90398437 30.66796875 46.82421875 C30.50849426 45.44523349 30.34830034 44.06633129 30.1875 42.6875 C30.11724609 41.99720703 30.04699219 41.30691406 29.97460938 40.59570312 C29.6431574 37.85128078 29.27514741 35.48740399 27.90625 33.0625 C24.87606764 31.3735459 21.69972626 31.42407157 18.3125 31.3125 C15.899375 31.209375 13.48625 31.10625 11 31 C11 37.27 11 43.54 11 50 C7.37 50 3.74 50 0 50 C0 33.5 0 17 0 0 Z " fill="#C8F599" transform="translate(268,208)"/>
<path d="M0 0 C12 0 12 0 14.67578125 2.10791016 C15.21589844 3.07519043 15.75601562 4.0424707 16.3125 5.0390625 C16.93253906 6.09480469 17.55257813 7.15054688 18.19140625 8.23828125 C19.08666016 9.91470703 19.08666016 9.91470703 20 11.625 C20.62777344 12.71941406 21.25554687 13.81382812 21.90234375 14.94140625 C23.07554775 16.9876923 24.23021933 19.04480457 25.359375 21.11572266 C27.0937641 24.16484064 29.05417796 27.08126695 31 30 C31.33 20.1 31.66 10.2 32 0 C35.63 0 39.26 0 43 0 C43 16.5 43 33 43 50 C31 50 31 50 28.46484375 47.7890625 C27.96082031 46.74492187 27.45679688 45.70078125 26.9375 44.625 C26.32777344 43.45839844 25.71804688 42.29179687 25.08984375 41.08984375 C24.76741699 40.44257324 24.44499023 39.79530273 24.11279297 39.12841797 C21.96410751 35.01866812 19.44454266 31.12555088 17 27.1875 C15.35 24.485625 13.7 21.78375 12 19 C11.67 29.23 11.34 39.46 11 50 C7.37 50 3.74 50 0 50 C0 33.5 0 17 0 0 Z " fill="#C4F396" transform="translate(254,139)"/>
<path d="M0 0 C1.8203125 1.390625 1.8203125 1.390625 3.4375 2.875 C3.95054687 3.34421875 4.46359375 3.8134375 4.9921875 4.296875 C8.3914754 7.86900804 9.1478531 11.04755169 9.4375 15.875 C5.8075 15.875 2.1775 15.875 -1.5625 15.875 C-1.975 14.92625 -2.3875 13.9775 -2.8125 13 C-4.27435166 9.92016611 -4.27435166 9.92016611 -6.3125 8.5 C-10.46990536 7.34516518 -14.22811649 7.5191644 -18.375 8.625 C-21.87111664 10.62278094 -22.33136619 13.18159857 -23.5625 16.875 C-23.70898082 19.14263574 -23.7834626 21.41532366 -23.8125 23.6875 C-23.83828125 24.89019531 -23.8640625 26.09289062 -23.890625 27.33203125 C-23.46234967 31.95638511 -21.97319445 35.24727563 -18.9375 38.75 C-15.1955751 40.52249074 -11.62442356 40.40450075 -7.5625 39.875 C-4.02463383 38.44479878 -2.92514849 37.61756596 -1.25 34.1875 C-1.023125 33.424375 -0.79625 32.66125 -0.5625 31.875 C-3.8625 31.545 -7.1625 31.215 -10.5625 30.875 C-10.5625 27.905 -10.5625 24.935 -10.5625 21.875 C-3.6325 21.875 3.2975 21.875 10.4375 21.875 C10.4375 30.785 10.4375 39.695 10.4375 48.875 C8.1275 48.875 5.8175 48.875 3.4375 48.875 C2.7775 47.555 2.1175 46.235 1.4375 44.875 C0.674375 45.514375 -0.08875 46.15375 -0.875 46.8125 C-6.21047182 50.90716442 -12.09990914 50.42962534 -18.5625 49.875 C-24.87850208 48.37255708 -28.78150295 45.3829511 -32.34375 40 C-36.89299923 32.06797571 -38.06259829 24.15219701 -35.90625 15.12890625 C-33.29587704 7.73660008 -29.06364751 3.09001169 -22.5 -1.0625 C-15.61544595 -3.53907035 -6.37932279 -3.75967693 0 0 Z " fill="#C7F49A" transform="translate(236.5625,140.125)"/>
<path d="M0 0 C4.29 0 8.58 0 13 0 C13.49628906 1.37929687 13.99257812 2.75859375 14.50390625 4.1796875 C17.83764836 13.41209692 21.2030843 22.62134168 24.8125 31.75 C27.18815817 37.76516121 29.28773242 43.75525941 31 50 C27.04 50 23.08 50 19 50 C16 41.25 16 41.25 16 39 C9.73 39.33 3.46 39.66 -3 40 C-3.99 42.97 -4.98 45.94 -6 49 C-7 50 -7 50 -9.50390625 50.09765625 C-10.51324219 50.08605469 -11.52257812 50.07445312 -12.5625 50.0625 C-13.57441406 50.05347656 -14.58632812 50.04445312 -15.62890625 50.03515625 C-16.41136719 50.02355469 -17.19382812 50.01195312 -18 50 C-16.12433025 43.35792241 -14.06546625 36.93287521 -11.25 30.625 C-6.83679927 20.66700862 -3.49496252 10.3074783 0 0 Z " fill="#C8F799" transform="translate(109,139)"/>
<path d="M0 0 C12.54 0 25.08 0 38 0 C38 2.97 38 5.94 38 9 C29.09 9 20.18 9 11 9 C11 12.63 11 16.26 11 20 C19.25 20 27.5 20 36 20 C36 22.97 36 25.94 36 29 C27.75 29 19.5 29 11 29 C11 32.96 11 36.92 11 41 C19.91 41 28.82 41 38 41 C38 43.97 38 46.94 38 50 C25.46 50 12.92 50 0 50 C0 33.5 0 17 0 0 Z " fill="#C6F698" transform="translate(305,139)"/>
<path d="M0 0 C12.54 0 25.08 0 38 0 C38 2.97 38 5.94 38 9 C29.09 9 20.18 9 11 9 C11 12.63 11 16.26 11 20 C19.25 20 27.5 20 36 20 C36 22.64 36 25.28 36 28 C27.75 28 19.5 28 11 28 C11 32.29 11 36.58 11 41 C19.91 41 28.82 41 38 41 C38 43.97 38 46.94 38 50 C25.46 50 12.92 50 0 50 C0 33.5 0 17 0 0 Z " fill="#C5F597" transform="translate(223,208)"/>
<path d="M0 0 C4.68379696 -1.12323031 8.37013728 -1.4668872 13 0 C17.09446665 4.32314357 19.59152733 9.96553359 22.0612793 15.32592773 C22.89616259 17.18200486 22.89616259 17.18200486 25 18 C25.26039063 17.31550781 25.52078125 16.63101563 25.7890625 15.92578125 C28.20447998 10.08982095 30.70534439 4.65588833 35 0 C39.20235886 -1.10966933 42.76153594 -0.82650049 47 0 C45.64210315 3.62675688 44.01031448 6.86894299 42.03125 10.1953125 C41.46019531 11.15824219 40.88914063 12.12117187 40.30078125 13.11328125 C39.70652344 14.10714844 39.11226562 15.10101563 38.5 16.125 C37.90574219 17.12660156 37.31148437 18.12820312 36.69921875 19.16015625 C32.34617624 26.48073564 32.34617624 26.48073564 30 30 C29.6349209 32.22131423 29.6349209 32.22131423 29.5859375 34.66796875 C29.54726562 35.56064453 29.50859375 36.45332031 29.46875 37.37304688 C29.42234375 38.76620117 29.42234375 38.76620117 29.375 40.1875 C29.33632812 41.12787109 29.29765625 42.06824219 29.2578125 43.03710938 C29.16357326 45.35775066 29.08069877 47.67884841 29 50 C25.37 50 21.74 50 18 50 C18.04382813 48.75347656 18.08765625 47.50695312 18.1328125 46.22265625 C18.24164588 33.41575109 15.53575799 25.37325436 8.296875 14.91015625 C6.33629478 12.02243418 4.61590318 9.02517602 2.875 6 C2.03582031 4.576875 2.03582031 4.576875 1.1796875 3.125 C0 1 0 1 0 0 Z " fill="#C9F89A" transform="translate(173,208)"/>
<path d="M0 0 C3.63 0 7.26 0 11 0 C11 13.53 11 27.06 11 41 C19.25 41 27.5 41 36 41 C36 43.97 36 46.94 36 50 C24.12 50 12.24 50 0 50 C0 33.5 0 17 0 0 Z " fill="#C9F99A" transform="translate(143,139)"/>
<path d="M0 0 C10.56 0 21.12 0 32 0 C31.01 1.485 31.01 1.485 30 3 C30.66 3.66 31.32 4.32 32 5 C31.34 6.98 30.68 8.96 30 11 C29.32582031 10.68289062 28.65164063 10.36578125 27.95703125 10.0390625 C24.46775527 8.81297609 21.37559942 8.58180931 17.6875 8.375 C15.480625 8.25125 13.27375 8.1275 11 8 C11 12.62 11 17.24 11 22 C10.01 21.67 9.02 21.34 8 21 C7.17361624 23.89234315 7 25.88742431 7 29 C8.32 29 9.64 29 11 29 C11 35.93 11 42.86 11 50 C7.37 50 3.74 50 0 50 C0 33.5 0 17 0 0 Z " fill="#C7F699" transform="translate(268,208)"/>
<path d="M0 0 C0.99 0 1.98 0 3 0 C3 83.49 3 166.98 3 253 C2.34 253.33 1.68 253.66 1 254 C1 253.01 1 252.02 1 251 C0.34 250.67 -0.32 250.34 -1 250 C-0.01 249.01 -0.01 249.01 1 248 C1.27827252 245.3784358 1.27827252 245.3784358 1.1953125 242.3359375 C1.18886719 241.21445312 1.18242187 240.09296875 1.17578125 238.9375 C1.15902344 237.761875 1.14226563 236.58625 1.125 235.375 C1.11146484 233.59996094 1.11146484 233.59996094 1.09765625 231.7890625 C1.07402812 228.85917477 1.04108514 225.9296866 1 223 C0.67 223 0.34 223 0 223 C-0.02332585 197.33166256 -0.04097763 171.6633267 -0.05181217 145.99498081 C-0.0569758 134.07762359 -0.06401976 122.16027293 -0.07543945 110.24291992 C-0.08538426 99.85980679 -0.09185294 89.47669842 -0.09408849 79.09358066 C-0.09539595 73.59215674 -0.09848398 68.09074643 -0.10573006 62.58932686 C-0.11248707 57.41761015 -0.11461762 52.24591275 -0.11310768 47.07419205 C-0.11338415 45.17018085 -0.11539116 43.26616904 -0.11920547 41.36216164 C-0.12413776 38.77446234 -0.12300002 36.18683715 -0.12025452 33.59913635 C-0.12316736 32.83553238 -0.1260802 32.07192841 -0.12908131 31.28518492 C-0.11412121 26.11412121 -0.11412121 26.11412121 1 25 C1.08631874 23.65732587 1.10706473 22.31025678 1.09765625 20.96484375 C1.09443359 20.15595703 1.09121094 19.34707031 1.08789062 18.51367188 C1.07951172 17.66353516 1.07113281 16.81339844 1.0625 15.9375 C1.05573242 14.65649414 1.05573242 14.65649414 1.04882812 13.34960938 C1.03700373 11.23304337 1.01906769 9.11651315 1 7 C0.01 6.67 -0.98 6.34 -2 6 C-1.34 4.02 -0.68 2.04 0 0 Z " fill="#2E5F18" transform="translate(27,65)"/>
<path d="M0 0 C14.2247191 0 14.2247191 0 19 4 C22.28391749 8.20490284 23.62778886 12.67322586 23.32421875 17.98046875 C22.58785206 22.56723478 21.3878948 26.6121052 18.0625 29.9375 C12.02492831 33.04776421 7.21246009 32 0 32 C0 21.44 0 10.88 0 0 Z " fill="#070B07" transform="translate(360,148)"/>
<path d="M0 0 C4.29 0 8.58 0 13 0 C17.00390625 9.1796875 17.00390625 9.1796875 18 12 C17.67 12.66 17.34 13.32 17 14 C16.34 13.67 15.68 13.34 15 13 C14.67 13.99 14.34 14.98 14 16 C13.01 16.33 12.02 16.66 11 17 C11.66 21.62 12.32 26.24 13 31 C9.94010417 31.22786458 6.88020833 31.45572917 3.8203125 31.68359375 C1.05271029 31.83001703 1.05271029 31.83001703 -1 33 C-3.1640625 32.44140625 -3.1640625 32.44140625 -5.625 31.5625 C-6.85089844 31.13130859 -6.85089844 31.13130859 -8.1015625 30.69140625 C-8.72804687 30.46324219 -9.35453125 30.23507813 -10 30 C-9.2488863 25.35591895 -7.71426127 21.09479284 -6.125 16.6875 C-5.86847656 15.96626953 -5.61195313 15.24503906 -5.34765625 14.50195312 C-3.61529883 9.64874077 -1.81951114 4.82115977 0 0 Z " fill="#C6F397" transform="translate(149,208)"/>
<path d="M0 0 C3.3 0 6.6 0 10 0 C10 16.5 10 33 10 50 C6.04 50 2.08 50 -2 50 C-6.03315964 44.01136902 -6.03315964 44.01136902 -5.875 39.1875 C-5 36 -5 36 -3 34 C-2.01 34 -1.02 34 0 34 C0 22.78 0 11.56 0 0 Z " fill="#CAFC99" transform="translate(287,139)"/>
<path d="M0 0 C3.63 0 7.26 0 11 0 C11 16.5 11 33 11 50 C7.37 50 3.74 50 0 50 C0 33.5 0 17 0 0 Z " fill="#CBFD99" transform="translate(183,139)"/>
<path d="M0 0 C0.33 0.66 0.66 1.32 1 2 C1.99 2.33 2.98 2.66 4 3 C5.2109375 5.34155273 5.2109375 5.34155273 6.375 8.43359375 C6.80296875 9.55830078 7.2309375 10.68300781 7.671875 11.84179688 C8.32929688 13.62166992 8.32929688 13.62166992 9 15.4375 C9.43828125 16.58927734 9.8765625 17.74105469 10.328125 18.92773438 C12.82176059 25.54863731 15.08681675 32.18817325 17 39 C16.34 38.67 15.68 38.34 15 38 C15 37.01 15 36.02 15 35 C13.35 35 11.7 35 10 35 C9.67 34.01 9.34 33.02 9 32 C6.84206588 28.64265361 6.84206588 28.64265361 4 26 C2.989375 26 1.97875 26 0.9375 26 C-0.031875 26 -1.00125 26 -2 26 C-2.66 25.01 -3.32 24.02 -4 23 C-3.34 23 -2.68 23 -2 23 C-2 22.34 -2 21.68 -2 21 C-5.96 20.67 -9.92 20.34 -14 20 C-12.31108451 14.12900806 -10.53630629 8.55571853 -8 3 C-5.13546142 6.41016497 -3.65296434 9.90694544 -2 14 C-0.35448669 9.16025497 0.069122 5.98923601 -1 1 C-0.67 0.67 -0.34 0.34 0 0 Z " fill="#C8F897" transform="translate(123,150)"/>
<path d="M0 0 C0.99 0 1.98 0 3 0 C3 83.49 3 166.98 3 253 C2.34 253.33 1.68 253.66 1 254 C1 253.01 1 252.02 1 251 C0.34 250.67 -0.32 250.34 -1 250 C-0.01 249.01 -0.01 249.01 1 248 C1.29937769 246.1422332 1.29937769 246.1422332 1.24609566 243.99011803 C1.25007775 243.1466376 1.25405985 242.30315717 1.25816262 241.43411672 C1.25233693 240.50222386 1.24651125 239.57033101 1.24050903 238.61019897 C1.24221788 237.62435401 1.24392673 236.63850904 1.24568737 235.62278998 C1.24899825 232.29842162 1.2379523 228.9742523 1.22705078 225.64990234 C1.22648701 223.27525334 1.22680255 220.900604 1.22793579 218.5259552 C1.22845177 212.73359088 1.21975576 206.94129242 1.20706047 201.14894317 C1.1927844 194.41071212 1.18977198 187.67249055 1.18748413 180.9342465 C1.18310387 168.91708789 1.16978582 156.89995638 1.15087891 144.8828125 C1.13252865 133.20735815 1.11836797 121.53191116 1.10986328 109.85644531 C1.10933783 109.13710483 1.10881239 108.41776434 1.10827102 107.67662565 C1.105661 104.0680058 1.10313357 100.45938589 1.10064721 96.85076594 C1.07990442 66.90049163 1.04452153 36.95024898 1 7 C0.01 6.67 -0.98 6.34 -2 6 C-1.34 4.02 -0.68 2.04 0 0 Z " fill="#406B24" transform="translate(27,65)"/>
<path d="M0 0 C0.33 0 0.66 0 1 0 C1.02505615 1.11036621 1.0501123 2.22073242 1.07592773 3.36474609 C1.16994915 7.47603319 1.27018257 11.58714923 1.37231445 15.69824219 C1.4156833 17.47912603 1.45735694 19.26005198 1.49731445 21.04101562 C1.5549699 23.59778548 1.6186777 26.15434298 1.68359375 28.7109375 C1.70030624 29.50994476 1.71701874 30.30895203 1.73423767 31.13217163 C1.75392991 35.19806368 1.75392991 35.19806368 3 39 C4.485 38.505 4.485 38.505 6 38 C6.33 25.46 6.66 12.92 7 0 C7.33 0 7.66 0 8 0 C8 16.5 8 33 8 50 C20.54 50 33.08 50 46 50 C46 47.03 46 44.06 46 41 C43.69 41 41.38 41 39 41 C39.495 40.01 39.495 40.01 40 39 C42.31 39.33 44.62 39.66 47 40 C47.495 42.475 47.495 42.475 48 45 C48.99 45.33 49.98 45.66 51 46 C51 47.32 51 48.64 51 50 C45.83789132 52.1153816 41.55973946 52.19616446 36.1015625 51.9765625 C34.84912247 51.93902359 34.84912247 51.93902359 33.57138062 51.90072632 C30.92214487 51.8189952 28.27370777 51.72222678 25.625 51.625 C23.8216465 51.5667124 22.01826086 51.5094102 20.21484375 51.453125 C15.80944207 51.3134868 11.40469385 51.16036661 7 51 C6.67 51.66 6.34 52.32 6 53 C4.02 53 2.04 53 0 53 C0 35.51 0 18.02 0 0 Z M1 42 C1 44.64 1 47.28 1 50 C1.66 49.67 2.32 49.34 3 49 C2.67 46.69 2.34 44.38 2 42 C1.67 42 1.34 42 1 42 Z " fill="#091604" transform="translate(297,139)"/>
<path d="M0 0 C3.11494689 2.56157524 3.98547054 5.27219254 5.1875 9.0625 C5.53167969 10.12597656 5.87585938 11.18945312 6.23046875 12.28515625 C7 15 7 15 7 17 C6.15695313 17.06058594 5.31390625 17.12117188 4.4453125 17.18359375 C3.34960938 17.26738281 2.25390625 17.35117188 1.125 17.4375 C-0.51082031 17.55931641 -0.51082031 17.55931641 -2.1796875 17.68359375 C-4.94728971 17.83001703 -4.94728971 17.83001703 -7 19 C-9.1640625 18.44140625 -9.1640625 18.44140625 -11.625 17.5625 C-12.85089844 17.13130859 -12.85089844 17.13130859 -14.1015625 16.69140625 C-14.72804687 16.46324219 -15.35453125 16.23507813 -16 16 C-15.75 13.625 -15.75 13.625 -15 11 C-13.66666667 10.33333333 -12.33333333 9.66666667 -11 9 C-10.18828772 6.44480079 -10.18828772 6.44480079 -10 4 C-6.92382812 3.70703125 -6.92382812 3.70703125 -3.84765625 3.4140625 C-2.93306641 3.20910156 -2.93306641 3.20910156 -2 3 C-1.67 2.34 -1.34 1.68 -1 1 C-0.67 0.67 -0.34 0.34 0 0 Z " fill="#C9FB9A" transform="translate(155,222)"/>
<path d="M0 0 C2.206875 -0.061875 4.41375 -0.12375 6.6875 -0.1875 C8.54955078 -0.23970703 8.54955078 -0.23970703 10.44921875 -0.29296875 C14.23847018 0.01967576 16.09574738 0.57069094 19 3 C19.62890625 4.9375 19.62890625 4.9375 19.5625 7 C19.56443359 8.0209375 19.56443359 8.0209375 19.56640625 9.0625 C19 11 19 11 17.44921875 12.73828125 C14.06917388 14.47951649 10.95231325 14.32397469 7.25 14.1875 C6.55261719 14.17396484 5.85523438 14.16042969 5.13671875 14.14648438 C3.42414459 14.1112945 1.71197059 14.05749155 0 14 C0 9.38 0 4.76 0 0 Z " fill="#010402" transform="translate(279,216)"/>
<path d="M0 0 C0.33 0.66 0.66 1.32 1 2 C1.99 2 2.98 2 4 2 C3.67 3.32 3.34 4.64 3 6 C4.32 5.67 5.64 5.34 7 5 C7 5.66 7 6.32 7 7 C6.34 7 5.68 7 5 7 C5 7.66 5 8.32 5 9 C5.66 9.33 6.32 9.66 7 10 C4.36 10 1.72 10 -1 10 C-1.33 10.66 -1.66 11.32 -2 12 C-6.95 11.67 -11.9 11.34 -17 11 C-17 10.34 -17 9.68 -17 9 C-18.32 9 -19.64 9 -21 9 C-21 8.34 -21 7.68 -21 7 C-21.66 6.67 -22.32 6.34 -23 6 C-22.06640625 3.515625 -22.06640625 3.515625 -20 1 C-16.97024888 0.36870467 -14.01401086 0.57681096 -10.9375 0.75 C-9.30092022 0.81113294 -7.66419819 0.86860065 -6.02734375 0.921875 C-5.30281006 0.95893555 -4.57827637 0.99599609 -3.83178711 1.03417969 C-1.9005011 1.12960445 -1.9005011 1.12960445 0 0 Z " fill="#BFEC91" transform="translate(296,228)"/>
<path d="M0 0 C4.43457314 1.01926724 7.19078321 2.89506899 9.71875 6.68359375 C12.97341186 12.38620641 14.40553579 16.57604111 14.33984375 23.2109375 C14.33082031 24.39042969 14.32179688 25.56992188 14.3125 26.78515625 C14.30089844 27.68878906 14.28929687 28.59242188 14.27734375 29.5234375 C13.94734375 29.5234375 13.61734375 29.5234375 13.27734375 29.5234375 C12.78234375 24.5734375 12.78234375 24.5734375 12.27734375 19.5234375 C11.94734375 19.5234375 11.61734375 19.5234375 11.27734375 19.5234375 C11.27734375 16.8834375 11.27734375 14.2434375 11.27734375 11.5234375 C10.61734375 11.5234375 9.95734375 11.5234375 9.27734375 11.5234375 C9.27734375 10.8634375 9.27734375 10.2034375 9.27734375 9.5234375 C8.61734375 9.5234375 7.95734375 9.5234375 7.27734375 9.5234375 C5.65234375 8.0234375 5.65234375 8.0234375 4.27734375 6.5234375 C2.29734375 7.1834375 0.31734375 7.8434375 -1.72265625 8.5234375 C-1.72265625 9.1834375 -1.72265625 9.8434375 -1.72265625 10.5234375 C-0.73265625 10.8534375 0.25734375 11.1834375 1.27734375 11.5234375 C1.97671907 12.83990869 2.64463508 14.17365901 3.27734375 15.5234375 C3.93734375 15.8534375 4.59734375 16.1834375 5.27734375 16.5234375 C4.94734375 20.8134375 4.61734375 25.1034375 4.27734375 29.5234375 C3.94734375 29.5234375 3.61734375 29.5234375 3.27734375 29.5234375 C3.15617187 28.63140625 3.035 27.739375 2.91015625 26.8203125 C2.74257813 25.64984375 2.575 24.479375 2.40234375 23.2734375 C2.23992187 22.11328125 2.0775 20.953125 1.91015625 19.7578125 C1.34640987 16.87644209 0.93317194 14.92003093 -0.72265625 12.5234375 C-2.64957258 11.19963411 -2.64957258 11.19963411 -4.84765625 10.2734375 C-5.57210938 9.93828125 -6.2965625 9.603125 -7.04296875 9.2578125 C-7.59726562 9.01546875 -8.1515625 8.773125 -8.72265625 8.5234375 C-8.72265625 7.8634375 -8.72265625 7.2034375 -8.72265625 6.5234375 C-9.71265625 6.1934375 -10.70265625 5.8634375 -11.72265625 5.5234375 C-11.06265625 5.1934375 -10.40265625 4.8634375 -9.72265625 4.5234375 C-9.72265625 3.5334375 -9.72265625 2.5434375 -9.72265625 1.5234375 C-5.96594455 -0.98103697 -4.3072822 -0.62829076 0 0 Z " fill="#C6F399" transform="translate(379.72265625,140.4765625)"/>
<path d="M0 0 C6.6 0 13.2 0 20 0 C20 4.62 20 9.24 20 14 C18.68 14.33 17.36 14.66 16 15 C16 12.03 16 9.06 16 6 C15.01 6.66 14.02 7.32 13 8 C9.86328125 8.1953125 9.86328125 8.1953125 6.3125 8.125 C5.13300781 8.10695312 3.95351562 8.08890625 2.73828125 8.0703125 C1.83464844 8.04710937 0.93101562 8.02390625 0 8 C0 5.36 0 2.72 0 0 Z " fill="#CAFC9A" transform="translate(226,162)"/>
<path d="M0 0 C0.33 0 0.66 0 1 0 C1 8.91 1 17.82 1 27 C-1.31 27 -3.62 27 -6 27 C-6.4640625 25.2984375 -6.4640625 25.2984375 -6.9375 23.5625 C-7.62924531 20.21224901 -7.62924531 20.21224901 -9 19 C-9 18.01 -9 17.02 -9 16 C-10.32 16.33 -11.64 16.66 -13 17 C-12.01 14.69 -11.02 12.38 -10 10 C-13.3 9.67 -16.6 9.34 -20 9 C-20 8.67 -20 8.34 -20 8 C-18.64455078 7.90912109 -18.64455078 7.90912109 -17.26171875 7.81640625 C-16.08222656 7.73261719 -14.90273437 7.64882812 -13.6875 7.5625 C-11.92986328 7.44068359 -11.92986328 7.44068359 -10.13671875 7.31640625 C-6.97409042 7.1132629 -6.97409042 7.1132629 -4 6 C-3.67 8.64 -3.34 11.28 -3 14 C-2.01 14 -1.02 14 0 14 C0 9.38 0 4.76 0 0 Z " fill="#BEEA93" transform="translate(246,162)"/>
<path d="M0 0 C7.59 0 15.18 0 23 0 C23 2.64 23 5.28 23 8 C15.41 8 7.82 8 0 8 C0 7.34 0 6.68 0 6 C0.99 5.34 1.98 4.68 3 4 C3 3.01 3 2.02 3 1 C2.01 0.67 1.02 0.34 0 0 Z " fill="#CBFA9F" transform="translate(236,228)"/>
<path d="M0 0 C0.33 0.66 0.66 1.32 1 2 C1.99 2 2.98 2 4 2 C4.33 2.66 4.66 3.32 5 4 C5.61875 3.79375 6.2375 3.5875 6.875 3.375 C7.926875 3.189375 7.926875 3.189375 9 3 C9.66 3.66 10.32 4.32 11 5 C10.01 6.485 10.01 6.485 9 8 C14.94 8 20.88 8 27 8 C27 8.33 27 8.66 27 9 C20.73 9 14.46 9 8 9 C7.01 12.63 6.02 16.26 5 20 C4.34 20 3.68 20 3 20 C3 19.34 3 18.68 3 18 C1.68 17.67 0.36 17.34 -1 17 C-1.12375 16.38125 -1.2475 15.7625 -1.375 15.125 C-1.87197356 12.80879168 -1.87197356 12.80879168 -4 11 C-2.68 7.37 -1.36 3.74 0 0 Z " fill="#C3F095" transform="translate(138,238)"/>
<path d="M0 0 C3.3 0 6.6 0 10 0 C10 16.5 10 33 10 50 C6.7 50 3.4 50 0 50 C0 49.34 0 48.68 0 48 C3.465 47.505 3.465 47.505 7 47 C7 32.81 7 18.62 7 4 C5.68 4 4.36 4 3 4 C1.78306124 6.43387753 1.68040104 8.41838846 1.4375 11.125 C1.35371094 12.03507813 1.26992188 12.94515625 1.18359375 13.8828125 C1.12300781 14.58148438 1.06242187 15.28015625 1 16 C0.67 16 0.34 16 0 16 C0 10.72 0 5.44 0 0 Z " fill="#D1F6AD" transform="translate(287,139)"/>
<path d="M0 0 C0.33 0.99 0.66 1.98 1 3 C1.66 2.67 2.32 2.34 3 2 C4.99960012 1.960008 7.00047242 1.95653201 9 2 C9 2.33 9 2.66 9 3 C7.02 3.66 5.04 4.32 3 5 C2.67 19.52 2.34 34.04 2 49 C4.64 49 7.28 49 10 49 C9.91621094 48.39414063 9.83242187 47.78828125 9.74609375 47.1640625 C8.98842045 40.93004164 9.14052933 35.21463404 10 29 C10.33 29 10.66 29 11 29 C11 35.93 11 42.86 11 50 C7.37 50 3.74 50 0 50 C0 33.5 0 17 0 0 Z " fill="#BFE298" transform="translate(183,139)"/>
<path d="M0 0 C1.65322266 0.01740234 1.65322266 0.01740234 3.33984375 0.03515625 C4.99693359 0.04869141 4.99693359 0.04869141 6.6875 0.0625 C7.54214844 0.07410156 8.39679688 0.08570313 9.27734375 0.09765625 C5.63143809 9.59959621 5.63143809 9.59959621 1.21484375 12.41015625 C-0.4243233 12.99179617 -2.0726089 13.54764047 -3.72265625 14.09765625 C-4.55813455 9.45611012 -4.81966304 5.70508477 -3.72265625 1.09765625 C-2.72265625 0.09765625 -2.72265625 0.09765625 0 0 Z " fill="#C8F69D" transform="translate(210.72265625,207.90234375)"/>
<path d="M0 0 C0.33 0 0.66 0 1 0 C1 11.22 1 22.44 1 34 C-0.32 34.66 -1.64 35.32 -3 36 C-4.29231642 39.04199472 -4.29231642 39.04199472 -5 42 C-7.95749791 38.53258866 -10.07848152 35.13126473 -12 31 C-10.68 31.33 -9.36 31.66 -8 32 C-6.69951159 29.39902318 -6.43528578 26.86044938 -6 24 C-5.360625 24.804375 -4.72125 25.60875 -4.0625 26.4375 C-2.59396498 28.2750504 -2.59396498 28.2750504 -1 30 C-0.67 20.1 -0.34 10.2 0 0 Z " fill="#ABD282" transform="translate(286,139)"/>
<path d="M0 0 C4.25264401 4.65765772 6 10.81742008 6 17 C2.04 17 -1.92 17 -6 17 C-4.31108451 11.12900806 -2.53630629 5.55571853 0 0 Z " fill="#090F06" transform="translate(115,153)"/>
<path d="M0 0 C2.58110119 2.26298228 3.64929044 4.18004885 4.6875 7.4375 C5.06455078 8.58025391 5.06455078 8.58025391 5.44921875 9.74609375 C6 12 6 12 6 16 C2.37 16 -1.26 16 -5 16 C-3.85388265 10.26941324 -2.47605477 5.28975338 0 0 Z " fill="#0B1507" transform="translate(155,222)"/>
<path d="M0 0 C0.33 0 0.66 0 1 0 C1 3.96 1 7.92 1 12 C1.66 12.33 2.32 12.66 3 13 C3.33 13.33 3.66 13.66 4 14 C4.33 13.01 4.66 12.02 5 11 C5.99 12.485 5.99 12.485 7 14 C9.55183303 14.40062795 9.55183303 14.40062795 12.5234375 14.2578125 C13.626875 14.24363281 14.7303125 14.22945312 15.8671875 14.21484375 C17.60355469 14.17037109 17.60355469 14.17037109 19.375 14.125 C21.65356686 14.0815744 23.93221842 14.04233855 26.2109375 14.0078125 C27.22462402 13.98348145 28.23831055 13.95915039 29.28271484 13.93408203 C31.71604695 13.99311165 33.68370746 14.29233983 36 15 C36 12.69 36 10.38 36 8 C35.27981689 8.16298584 34.55963379 8.32597168 33.81762695 8.49389648 C31.10597883 8.98096403 28.66780647 9.11452642 25.91796875 9.09765625 C24.98662109 9.09443359 24.05527344 9.09121094 23.09570312 9.08789062 C22.13599609 9.07951172 21.17628906 9.07113281 20.1875 9.0625 C19.20845703 9.05798828 18.22941406 9.05347656 17.22070312 9.04882812 C14.81373889 9.03708684 12.40690143 9.02066419 10 9 C9.67 8.34 9.34 7.68 9 7 C18.24 7 27.48 7 37 7 C37 9.97 37 12.94 37 16 C24.79 16 12.58 16 0 16 C0 10.72 0 5.44 0 0 Z " fill="#D2F6AA" transform="translate(306,173)"/>
<path d="M0 0 C8.91 0 17.82 0 27 0 C27 0.66 27 1.32 27 2 C18.42 2 9.84 2 1 2 C1.71626123 10.04115119 1.71626123 10.04115119 3 18 C1.68 18.33 0.36 18.66 -1 19 C-1.22237877 16.58388467 -1.42832339 14.1682283 -1.625 11.75 C-1.72167969 10.72712891 -1.72167969 10.72712891 -1.8203125 9.68359375 C-2.14562321 5.49521834 -1.94591829 3.89183658 0 0 Z " fill="#CFF8A7" transform="translate(233,215)"/>
<path d="M0 0 C3.3 0 6.6 0 10 0 C10 13.53 10 27.06 10 41 C17.92 41 25.84 41 34 41 C33.505 41.99 33.505 41.99 33 43 C25.08 42.67 17.16 42.34 9 42 C8.09940978 37.49704891 7.95057247 33.60232249 8.12109375 29.07421875 C8.14470474 28.32662796 8.16831573 27.57903717 8.19264221 26.80879211 C8.2688557 24.43481426 8.35306015 22.06119807 8.4375 19.6875 C8.49076315 18.07228298 8.54350322 16.45704861 8.59570312 14.84179688 C8.72441304 10.89430478 8.86028744 6.94711738 9 3 C6.03 3 3.06 3 0 3 C0 2.01 0 1.02 0 0 Z " fill="#D3F5AE" transform="translate(144,139)"/>
<path d="M0 0 C3.0279691 3.40646524 3 4.0180495 3 9 C-0.63 9 -4.26 9 -8 9 C-9.33333333 6.33333333 -10.66666667 3.66666667 -12 1 C-8.7 1 -5.4 1 -2 1 C-2 1.66 -2 2.32 -2 3 C-1.34 3 -0.68 3 0 3 C0 2.01 0 1.02 0 0 Z " fill="#C8F19B" transform="translate(243,147)"/>
<path d="M0 0 C7.92 0 15.84 0 24 0 C24 2.64 24 5.28 24 8 C16.08 8 8.16 8 0 8 C0 7.34 0 6.68 0 6 C6.93 6 13.86 6 21 6 C21 5.01 21 4.02 21 3 C14.07 3 7.14 3 0 3 C0 2.01 0 1.02 0 0 Z " fill="#D0F7A9" transform="translate(316,159)"/>
<path d="M0 0 C0.66 0.33 1.32 0.66 2 1 C1.67 5.29 1.34 9.58 1 14 C9.91 14 18.82 14 28 14 C28 16.97 28 19.94 28 23 C27.01 22.67 26.02 22.34 25 22 C25.66 22 26.32 22 27 22 C27 20.02 27 18.04 27 16 C19.74 16 12.48 16 5 16 C5 16.66 5 17.32 5 18 C3.68 18 2.36 18 1 18 C1 17.34 1 16.68 1 16 C0.34 15.67 -0.32 15.34 -1 15 C-1.02685412 12.68756208 -1.04632841 10.3750373 -1.0625 8.0625 C-1.07410156 6.77472656 -1.08570313 5.48695313 -1.09765625 4.16015625 C-1 1 -1 1 0 0 Z " fill="#D1F7A7" transform="translate(233,235)"/>
<path d="M0 0 C0.66 0.99 1.32 1.98 2 3 C4.78554953 6.9384875 4.78554953 6.9384875 9 9 C9.33 10.32 9.66 11.64 10 13 C6.37 13 2.74 13 -1 13 C-3.4950495 6.76237624 -3.4950495 6.76237624 -3 3 C-1.5 1.1875 -1.5 1.1875 0 0 Z " fill="#CCF5A0" transform="translate(129,176)"/>
<path d="M0 0 C0.99 0.33 1.98 0.66 3 1 C3.6875 3.0625 3.6875 3.0625 4 5 C3.01 5.33 2.02 5.66 1 6 C1.33 7.98 1.66 9.96 2 12 C2.66 12 3.32 12 4 12 C3.67 13.32 3.34 14.64 3 16 C-0.465 10.06 -0.465 10.06 -4 4 C-4.33 14.23 -4.66 24.46 -5 35 C-5.33 35 -5.66 35 -6 35 C-6 24.11 -6 13.22 -6 2 C-4.68 1.67 -3.36 1.34 -2 1 C-1.67 1.33 -1.34 1.66 -1 2 C-0.67 1.34 -0.34 0.68 0 0 Z " fill="#B6DC91" transform="translate(270,154)"/>
<path d="M0 0 C7.26 0 14.52 0 22 0 C22 0.33 22 0.66 22 1 C16.70154155 2.21338743 11.39648258 2.40435371 5.984375 2.71875 C3.11860784 2.66884444 3.11860784 2.66884444 2 4 C1.83989519 6.73701178 1.74053172 9.4516759 1.68359375 12.19140625 C1.66281265 13.01124496 1.64203156 13.83108368 1.62062073 14.67576599 C1.55503506 17.30458901 1.49619874 19.93351504 1.4375 22.5625 C1.39432333 24.34050561 1.35070933 26.11850065 1.30664062 27.89648438 C1.19934457 32.26421634 1.09810296 36.63205227 1 41 C0.67 41 0.34 41 0 41 C0 27.47 0 13.94 0 0 Z " fill="#CFF7A8" transform="translate(350,139)"/>
<path d="M0 0 C0.33 0 0.66 0 1 0 C1.08114106 1.77007714 1.13925505 3.54122098 1.1875 5.3125 C1.23970703 6.79169922 1.23970703 6.79169922 1.29296875 8.30078125 C1 11 1 11 -0.51171875 12.85546875 C-1.00285156 13.23316406 -1.49398438 13.61085937 -2 14 C-2.33 13.01 -2.66 12.02 -3 11 C-14.385 10.505 -14.385 10.505 -26 10 C-26 12.97 -26 15.94 -26 19 C-18.08 19 -10.16 19 -2 19 C-2 19.33 -2 19.66 -2 20 C-10.25 20 -18.5 20 -27 20 C-27 16.37 -27 12.74 -27 9 C-18.09 9 -9.18 9 0 9 C0 6.03 0 3.06 0 0 Z " fill="#31451F" transform="translate(261,208)"/>
<path d="M0 0 C5.75 -0.125 5.75 -0.125 8 1 C8.625 3.5625 8.625 3.5625 9 6 C9.99 6.33 10.98 6.66 12 7 C12 8.32 12 9.64 12 11 C6.89793677 13.07914399 2.71012022 13.19950775 -2.6796875 12.9765625 C-3.49245148 12.95153656 -4.30521545 12.92651062 -5.14260864 12.90072632 C-7.72052822 12.81901804 -10.29762431 12.72224129 -12.875 12.625 C-14.63017546 12.56671004 -16.38538403 12.50940789 -18.140625 12.453125 C-22.42755091 12.31351316 -26.71380329 12.16039162 -31 12 C-31 11.67 -31 11.34 -31 11 C-18.46 11 -5.92 11 7 11 C7 8.03 7 5.06 7 2 C4.69 2 2.38 2 0 2 C0 1.34 0 0.68 0 0 Z " fill="#253616" transform="translate(336,178)"/>
<path d="M0 0 C0.33 0 0.66 0 1 0 C1.06058594 0.67546875 1.12117187 1.3509375 1.18359375 2.046875 C1.26738281 2.93890625 1.35117188 3.8309375 1.4375 4.75 C1.55931641 6.07257813 1.55931641 6.07257813 1.68359375 7.421875 C1.96238465 9.69350452 2.38790577 11.79851823 3 14 C2.34 14 1.68 14 1 14 C0.67 14.99 0.34 15.98 0 17 C-0.99 17 -1.98 17 -3 17 C-5.1519437 13.77208445 -5.20086443 12.71599191 -5 9 C-4.34 8.67 -3.68 8.34 -3 8 C-2.09656316 6.11736119 -2.09656316 6.11736119 -1.375 3.9375 C-1.11460937 3.20402344 -0.85421875 2.47054687 -0.5859375 1.71484375 C-0.39257812 1.14894531 -0.19921875 0.58304688 0 0 Z " fill="#C7FC92" transform="translate(211,161)"/>
<path d="M0 0 C6.6 0 13.2 0 20 0 C20 0.33 20 0.66 20 1 C16.7 1 13.4 1 10 1 C10 1.66 10 2.32 10 3 C8.68 3 7.36 3 6 3 C5.01 4.485 5.01 4.485 4 6 C4.66 6.66 5.32 7.32 6 8 C4.02 8 2.04 8 0 8 C0 5.36 0 2.72 0 0 Z " fill="#CCF3A5" transform="translate(226,162)"/>
<path d="M0 0 C0.33 0 0.66 0 1 0 C1 10.23 1 20.46 1 31 C-2.04367695 27.19540381 -3.52334445 25.30691203 -5 21 C-3.68 20.67 -2.36 20.34 -1 20 C-1.01160156 18.72382813 -1.02320313 17.44765625 -1.03515625 16.1328125 C-1.04453417 14.46354313 -1.05363437 12.79427217 -1.0625 11.125 C-1.07087891 10.28324219 -1.07925781 9.44148437 -1.08789062 8.57421875 C-1.09111328 7.76855469 -1.09433594 6.96289062 -1.09765625 6.1328125 C-1.10289307 5.38918457 -1.10812988 4.64555664 -1.11352539 3.87939453 C-1 2 -1 2 0 0 Z " fill="#000A00" transform="translate(285,140)"/>
<path d="M0 0 C1.1446875 0.3403125 1.1446875 0.3403125 2.3125 0.6875 C1.6525 2.0075 0.9925 3.3275 0.3125 4.6875 C6.2525 4.6875 12.1925 4.6875 18.3125 4.6875 C18.3125 5.0175 18.3125 5.3475 18.3125 5.6875 C12.0425 5.6875 5.7725 5.6875 -0.6875 5.6875 C-0.6875 6.3475 -0.6875 7.0075 -0.6875 7.6875 C-2.0075 7.6875 -3.3275 7.6875 -4.6875 7.6875 C-5.375 5.375 -5.375 5.375 -5.6875 2.6875 C-4.0011022 -0.12316299 -3.27764429 -0.38112143 0 0 Z " fill="#BCE793" transform="translate(146.6875,241.3125)"/>
<path d="M0 0 C0.99 0.33 1.98 0.66 3 1 C3.185625 2.7015625 3.185625 2.7015625 3.375 4.4375 C3.684375 6.2009375 3.684375 6.2009375 4 8 C4.66 8.33 5.32 8.66 6 9 C6.66 8.34 7.32 7.68 8 7 C8 7.66 8 8.32 8 9 C8.66 9.33 9.32 9.66 10 10 C9.34 12.97 8.68 15.94 8 19 C7.34 19 6.68 19 6 19 C4.99394407 16.39802798 3.99497475 13.79370638 3 11.1875 C2.57074219 10.08051758 2.57074219 10.08051758 2.1328125 8.95117188 C1.86210937 8.23896484 1.59140625 7.52675781 1.3125 6.79296875 C1.06113281 6.1383667 0.80976563 5.48376465 0.55078125 4.80932617 C0 3 0 3 0 0 Z " fill="#070A04" transform="translate(174,239)"/>
<path d="M0 0 C3.63 0 7.26 0 11 0 C12.32 2.31 13.64 4.62 15 7 C13.35 7.33 11.7 7.66 10 8 C9.67 6.35 9.34 4.7 9 3 C6.36 3 3.72 3 1 3 C0.67 3.66 0.34 4.32 0 5 C0 3.35 0 1.7 0 0 Z " fill="#C8EE9F" transform="translate(255,139)"/>
<path d="M0 0 C2.25245881 2.68841859 3.88213958 4.64641875 5 8 C3.02 8.99 3.02 8.99 1 10 C1.061875 10.763125 1.12375 11.52625 1.1875 12.3125 C1 15 1 15 -0.5 16.8125 C-0.995 17.204375 -1.49 17.59625 -2 18 C-2.66 16.35 -3.32 14.7 -4 13 C-3.01 13 -2.02 13 -1 13 C-1 12.34 -1 11.68 -1 11 C-1.66 11 -2.32 11 -3 11 C-3 10.34 -3 9.68 -3 9 C-3.66 9 -4.32 9 -5 9 C-5 8.34 -5 7.68 -5 7 C-3.35 7 -1.7 7 0 7 C0.33 6.01 0.66 5.02 1 4 C0.34 4 -0.32 4 -1 4 C-0.67 2.68 -0.34 1.36 0 0 Z " fill="#C4F494" transform="translate(189,215)"/>
<path d="M0 0 C1 4 1 4 0 6 C1.32 5.67 2.64 5.34 4 5 C5.78293548 7.74297766 7.13130811 9.83698528 6.75390625 13.1796875 C6.24768949 15.14171384 5.63079683 17.07440967 5 19 C4.67 19 4.34 19 4 19 C4.020625 17.906875 4.04125 16.81375 4.0625 15.6875 C4.18544452 12.05615809 4.18544452 12.05615809 3 9 C1.02 9.99 1.02 9.99 -1 11 C-1.66 10.34 -2.32 9.68 -3 9 C-2.01 6.03 -1.02 3.06 0 0 Z " fill="#C2F095" transform="translate(106,147)"/>
<path d="M0 0 C3.3 0 6.6 0 10 0 C10 9.57 10 19.14 10 29 C9.67 29 9.34 29 9 29 C8.67 20.42 8.34 11.84 8 3 C5.36 3 2.72 3 0 3 C0 2.01 0 1.02 0 0 Z " fill="#D3F4B2" transform="translate(184,139)"/>
<path d="M0 0 C3.99112081 4.60513939 6.94456259 9.75483244 10 15 C9.34 15 8.68 15 8 15 C7.67 16.32 7.34 17.64 7 19 C6.73445313 18.36191406 6.46890625 17.72382813 6.1953125 17.06640625 C5.84210938 16.24011719 5.48890625 15.41382813 5.125 14.5625 C4.60292969 13.32693359 4.60292969 13.32693359 4.0703125 12.06640625 C3.1755063 9.84253285 3.1755063 9.84253285 1 9 C0.5859375 6.93359375 0.5859375 6.93359375 0.375 4.4375 C0.30023438 3.61121094 0.22546875 2.78492188 0.1484375 1.93359375 C0.09945313 1.29550781 0.05046875 0.65742188 0 0 Z " fill="#C3EA9C" transform="translate(270,147)"/>
<path d="M0 0 C7.92 0 15.84 0 24 0 C26 5 26 5 26 8 C25.34 8 24.68 8 24 8 C24 9.65 24 11.3 24 13 C23.67 13 23.34 13 23 13 C23 9.04 23 5.08 23 1 C15.41 1 7.82 1 0 1 C0 0.67 0 0.34 0 0 Z " fill="#22420D" transform="translate(46,64)"/>
<path d="M0 0 C0.99 0 1.98 0 3 0 C3.81567174 1.43570266 4.62742093 2.87363434 5.4375 4.3125 C5.88996094 5.11300781 6.34242188 5.91351563 6.80859375 6.73828125 C8.98564578 10.87111116 9.10817744 14.07407842 9.0625 18.6875 C9.05347656 19.86699219 9.04445313 21.04648438 9.03515625 22.26171875 C9.02355469 23.16535156 9.01195312 24.06898438 9 25 C8.67 25 8.34 25 8 25 C7.67 21.7 7.34 18.4 7 15 C6.67 15 6.34 15 6 15 C6 12.36 6 9.72 6 7 C5.34 7 4.68 7 4 7 C4 6.34 4 5.68 4 5 C3.34 5 2.68 5 2 5 C1.34 3.35 0.68 1.7 0 0 Z " fill="#ACCE8E" transform="translate(385,145)"/>
<path d="M0 0 C0.99 0 1.98 0 3 0 C3 6.6 3 13.2 3 20 C1 18 1 18 0.8046875 15.3984375 C0.82789063 14.40070313 0.85109375 13.40296875 0.875 12.375 C0.89304687 11.37210938 0.91109375 10.36921875 0.9296875 9.3359375 C0.95289063 8.56507812 0.97609375 7.79421875 1 7 C0.01 6.67 -0.98 6.34 -2 6 C-1.34 4.02 -0.68 2.04 0 0 Z " fill="#2F5216" transform="translate(27,65)"/>
<path d="M0 0 C0.66 0 1.32 0 2 0 C1.01 3.63 0.02 7.26 -1 11 C4.94 10.505 4.94 10.505 11 10 C11 10.66 11 11.32 11 12 C6.71 12 2.42 12 -2 12 C-2.66 10.35 -3.32 8.7 -4 7 C-3.67 6.34 -3.34 5.68 -3 5 C-2.34 5 -1.68 5 -1 5 C-0.67 3.35 -0.34 1.7 0 0 Z " fill="#A4C982" transform="translate(151,227)"/>
<path d="M0 0 C0.33 1.32 0.66 2.64 1 4 C1.66 4 2.32 4 3 4 C2.67 5.98 2.34 7.96 2 10 C1.01 10 0.02 10 -1 10 C-1.33 11.65 -1.66 13.3 -2 15 C-2.99 15.33 -3.98 15.66 -5 16 C-3.41078475 10.63904723 -1.81027062 5.29156027 0 0 Z " fill="#B7DB8F" transform="translate(146,216)"/>
<path d="M0 0 C0.87454834 0.04713135 1.74909668 0.0942627 2.65014648 0.14282227 C4.06650391 0.21533203 4.06650391 0.21533203 5.51147461 0.28930664 C6.50469727 0.34538086 7.49791992 0.40145508 8.52124023 0.45922852 C9.51833008 0.51143555 10.51541992 0.56364258 11.54272461 0.61743164 C14.01501545 0.74755221 16.48694653 0.88253033 18.95874023 1.02172852 C18.95874023 1.35172852 18.95874023 1.68172852 18.95874023 2.02172852 C12.02874023 2.02172852 5.09874023 2.02172852 -2.04125977 2.02172852 C-2.04125977 5.32172852 -2.04125977 8.62172852 -2.04125977 12.02172852 C-2.37125977 11.36172852 -2.70125977 10.70172852 -3.04125977 10.02172852 C-3.70125977 10.02172852 -4.36125977 10.02172852 -5.04125977 10.02172852 C-5.04125977 9.03172852 -5.04125977 8.04172852 -5.04125977 7.02172852 C-4.38125977 7.02172852 -3.72125977 7.02172852 -3.04125977 7.02172852 C-3.06188477 6.05235352 -3.08250977 5.08297852 -3.10375977 4.08422852 C-3.02106445 0.0321582 -3.02106445 0.0321582 0 0 Z " fill="#CEF8A7" transform="translate(318.041259765625,145.978271484375)"/>
<path d="M0 0 C0.99 0 1.98 0 3 0 C3 4.29 3 8.58 3 13 C2.01 12.67 1.02 12.34 0 12 C0 8.04 0 4.08 0 0 Z " fill="#D0F8A5" transform="translate(275,216)"/>
<path d="M0 0 C2.37616467 2.37616467 3.04068181 4.35349521 4.1875 7.5 C4.55230469 8.4796875 4.91710937 9.459375 5.29296875 10.46875 C6 13 6 13 5 15 C4.67 13.68 4.34 12.36 4 11 C2.35 11 0.7 11 -1 11 C-0.67 7.37 -0.34 3.74 0 0 Z " fill="#B9DE94" transform="translate(134,174)"/>
<path d="M0 0 C0.66 0.99 1.32 1.98 2 3 C1.67 3.66 1.34 4.32 1 5 C0.92907158 7.2072923 0.91584975 9.41667452 0.9375 11.625 C0.95103516 13.40777344 0.95103516 13.40777344 0.96484375 15.2265625 C0.97644531 16.14179688 0.98804688 17.05703125 1 18 C0.34 18.33 -0.32 18.66 -1 19 C-2.06385483 15.80843552 -2.16677982 13.41502524 -2.1875 10.0625 C-2.20167969 9.02222656 -2.21585938 7.98195312 -2.23046875 6.91015625 C-2.00392282 4.04953387 -1.47733619 2.42329849 0 0 Z " fill="#AECE8E" transform="translate(202,154)"/>
<path d="M0 0 C4.62 0 9.24 0 14 0 C10.09567131 1.95216435 7.27786748 2.50639991 3 3 C2.34 5.31 1.68 7.62 1 10 C0.67 10 0.34 10 0 10 C0 6.7 0 3.4 0 0 Z " fill="#203117" transform="translate(279,216)"/>
<path d="M0 0 C0 0.99 0 1.98 0 3 C0.66 3.33 1.32 3.66 2 4 C-1.3 4 -4.6 4 -8 4 C-8.33 3.01 -8.66 2.02 -9 1 C-5.64919071 -1.10976881 -3.77897651 -1.0497157 0 0 Z " fill="#C8FC95" transform="translate(231,141)"/>
<path d="M0 0 C0.99 0.33 1.98 0.66 3 1 C3 3 3 5 3 7 C0.69 7.33 -1.62 7.66 -4 8 C-4 7.34 -4 6.68 -4 6 C-3.34 6 -2.68 6 -2 6 C-1.855625 5.195625 -1.71125 4.39125 -1.5625 3.5625 C-1 1 -1 1 0 0 Z " fill="#C4EF94" transform="translate(378,181)"/>
<path d="M0 0 C0.66 0 1.32 0 2 0 C2 3.3 2 6.6 2 10 C0.33333333 10 -1.33333333 10 -3 10 C-2.49287967 6.28111761 -1.88391785 3.26545761 0 0 Z " fill="#BFE692" transform="translate(100,164)"/>
<path d="M0 0 C0.33 0.66 0.66 1.32 1 2 C1.66 2.33 2.32 2.66 3 3 C2.67 3.66 2.34 4.32 2 5 C-3.61 4.67 -9.22 4.34 -15 4 C-15.33 3.34 -15.66 2.68 -16 2 C-15.32453125 2.01160156 -14.6490625 2.02320313 -13.953125 2.03515625 C-13.06109375 2.04417969 -12.1690625 2.05320313 -11.25 2.0625 C-10.36828125 2.07410156 -9.4865625 2.08570313 -8.578125 2.09765625 C-6.0375963 2.09271615 -6.0375963 2.09271615 -3.796875 1.43359375 C-2 1 -2 1 0 2 C0 1.34 0 0.68 0 0 Z " fill="#D1F9A7" transform="translate(165,242)"/>
<path d="M0 0 C3 2 3 2 3.875 4.3125 C4.0354818 7.76285874 3.08386548 9.2986929 1 12 C0.34 12 -0.32 12 -1 12 C-0.67 8.04 -0.34 4.08 0 0 Z " fill="#C7ECA1" transform="translate(298,218)"/>
<path d="M0 0 C0.33257812 0.49242187 0.66515625 0.98484375 1.0078125 1.4921875 C4.05326753 3.79717896 7.2234491 3.27632553 10.875 3.125 C15.37288199 2.98572132 19.60109852 2.87871139 24 4 C24 4.33 24 4.66 24 5 C16.08 5 8.16 5 0 5 C0 3.35 0 1.7 0 0 Z " fill="#D2F5A8" transform="translate(350,184)"/>
<path d="M0 0 C1 2 1 2 0.44140625 3.9453125 C0.15136719 4.66460937 -0.13867188 5.38390625 -0.4375 6.125 C-0.72496094 6.84945312 -1.01242188 7.57390625 -1.30859375 8.3203125 C-1.53675781 8.87460938 -1.76492187 9.42890625 -2 10 C-3.65 9.67 -5.3 9.34 -7 9 C-6.67 8.01 -6.34 7.02 -6 6 C-5.34 6 -4.68 6 -4 6 C-3.67 5.01 -3.34 4.02 -3 3 C-2.34 3 -1.68 3 -1 3 C-0.67 2.01 -0.34 1.02 0 0 Z " fill="#0B1E06" transform="translate(95,174)"/>
<path d="M0 0 C0.33 0 0.66 0 1 0 C1.06058594 0.67546875 1.12117187 1.3509375 1.18359375 2.046875 C1.26738281 2.93890625 1.35117188 3.8309375 1.4375 4.75 C1.55931641 6.07257813 1.55931641 6.07257813 1.68359375 7.421875 C1.96238465 9.69350452 2.38790577 11.79851823 3 14 C2.01 14 1.02 14 0 14 C-0.144375 13.2575 -0.28875 12.515 -0.4375 11.75 C-0.91855534 9.09708653 -0.91855534 9.09708653 -1.6875 7 C-2.12029274 4.23012648 -1.17531853 2.48890983 0 0 Z " fill="#B7DA8E" transform="translate(211,161)"/>
<path d="M0 0 C3.63 0 7.26 0 11 0 C11 0.66 11 1.32 11 2 C7.7 2.33 4.4 2.66 1 3 C0.67 3.99 0.34 4.98 0 6 C-1 4 -1 4 0 0 Z " fill="#D1F4B2" transform="translate(110,139)"/>
<path d="M0 0 C0.99 0.33 1.98 0.66 3 1 C3 2.98 3 4.96 3 7 C0.83125748 6.49396008 -0.99967627 6.00016187 -3 5 C-2.625 3.0625 -2.625 3.0625 -2 1 C-1.34 0.67 -0.68 0.34 0 0 Z M-3 6 C-1 7 -1 7 -1 7 Z " fill="#C6FB91" transform="translate(169,239)"/>
<path d="M0 0 C1.32 0.33 2.64 0.66 4 1 C3.67 1.99 3.34 2.98 3 4 C2.67 4 2.34 4 2 4 C1.67 5.98 1.34 7.96 1 10 C-0.5625 8.25 -0.5625 8.25 -2 6 C-1.72330471 3.64809002 -1.05656463 2.11312926 0 0 Z " fill="#C6F59F" transform="translate(190,228)"/>
<path d="M0 0 C0.33 0.99 0.66 1.98 1 3 C0.01 3.66 -0.98 4.32 -2 5 C-2 4.34 -2 3.68 -2 3 C-8.27 3 -14.54 3 -21 3 C-21 2.67 -21 2.34 -21 2 C-20.15236084 1.96241577 -20.15236084 1.96241577 -19.28759766 1.92407227 C-16.73316258 1.80820044 -14.1791045 1.68543463 -11.625 1.5625 C-10.29082031 1.50352539 -10.29082031 1.50352539 -8.9296875 1.44335938 C-8.07890625 1.40146484 -7.228125 1.35957031 -6.3515625 1.31640625 C-5.56604004 1.27974854 -4.78051758 1.24309082 -3.97119141 1.20532227 C-1.92476504 1.109109 -1.92476504 1.109109 0 0 Z " fill="#C0E996" transform="translate(127,175)"/>
<path d="M0 0 C2.475 0.495 2.475 0.495 5 1 C5.33 3.97 5.66 6.94 6 10 C3.25722422 6.80009492 1.3697164 3.99500618 0 0 Z " fill="#0C190B" transform="translate(280,161)"/>
<path d="M0 0 C5.46428571 0.60714286 5.46428571 0.60714286 7.875 2.375 C9 4 9 4 9 7 C7.35 6.67 5.7 6.34 4 6 C3.67 5.01 3.34 4.02 3 3 C1.50014391 1.33289654 1.50014391 1.33289654 0 0 Z " fill="#CDF1A8" transform="translate(298,209)"/>
<path d="M0 0 C0.33 0 0.66 0 1 0 C1 3.96 1 7.92 1 12 C-0.32 11.67 -1.64 11.34 -3 11 C-2.53199289 6.94393835 -2.12046792 3.53411321 0 0 Z " fill="#D0F9A3" transform="translate(315,168)"/>
<path d="M0 0 C0.33 0 0.66 0 1 0 C1 5.28 1 10.56 1 16 C0.34 16.33 -0.32 16.66 -1 17 C-1 16.01 -1 15.02 -1 14 C-1.66 13.67 -2.32 13.34 -3 13 C-2.34 12.34 -1.68 11.68 -1 11 C-0.79492953 8.59255904 -0.79492953 8.59255904 -0.9375 5.9375 C-0.99178494 4.29243023 -1.02031901 2.64583976 -1 1 C-0.67 0.67 -0.34 0.34 0 0 Z " fill="#254412" transform="translate(29,302)"/>
<path d="M0 0 C0 2.97 0 5.94 0 9 C-0.33 8.34 -0.66 7.68 -1 7 C-3.02463255 6.34786708 -3.02463255 6.34786708 -5 6 C-2.84615385 0 -2.84615385 0 0 0 Z " fill="#C9EF9B" transform="translate(261,208)"/>
<path d="M0 0 C1.98 0.66 3.96 1.32 6 2 C5.67 2.99 5.34 3.98 5 5 C5 4.34 5 3.68 5 3 C4.34 3 3.68 3 3 3 C2.67 3.66 2.34 4.32 2 5 C1 6 1 6 -1.06640625 6.09765625 C-1.89011719 6.08605469 -2.71382812 6.07445312 -3.5625 6.0625 C-4.38878906 6.05347656 -5.21507812 6.04445312 -6.06640625 6.03515625 C-6.70449219 6.02355469 -7.34257812 6.01195312 -8 6 C-8 5.67 -8 5.34 -8 5 C-5.36 5 -2.72 5 0 5 C0 3.35 0 1.7 0 0 Z " fill="#121D0B" transform="translate(248,184)"/>
<path d="M0 0 C1.65 0 3.3 0 5 0 C5 2.31 5 4.62 5 7 C8.3 7 11.6 7 15 7 C15 7.33 15 7.66 15 8 C11.37 8 7.74 8 4 8 C2.66666667 5.33333333 1.33333333 2.66666667 0 0 Z " fill="#AFCD8E" transform="translate(231,148)"/>
<path d="M0 0 C2.475 0.99 2.475 0.99 5 2 C2.64031256 4.09749995 1.45383006 4.96905704 -1.75 5.1875 C-2.86375 5.0946875 -2.86375 5.0946875 -4 5 C-3.67 4.01 -3.34 3.02 -3 2 C-2.01 2 -1.02 2 0 2 C0 1.34 0 0.68 0 0 Z " fill="#C9FB92" transform="translate(223,183)"/>
<path d="M0 0 C0.99 0 1.98 0 3 0 C3.66 1.65 4.32 3.3 5 5 C3.02 5.99 3.02 5.99 1 7 C0.34 5.02 -0.32 3.04 -1 1 C-0.67 0.67 -0.34 0.34 0 0 Z " fill="#C3F099" transform="translate(203,173)"/>
<path d="M0 0 C0.33 0 0.66 0 1 0 C1 2.97 1 5.94 1 9 C-0.65 9 -2.3 9 -4 9 C-3.67 7.68 -3.34 6.36 -3 5 C-2.34 5 -1.68 5 -1 5 C-0.67 3.35 -0.34 1.7 0 0 Z " fill="#B8DD97" transform="translate(342,139)"/>
<path d="M0 0 C2.64 0 5.28 0 8 0 C7.01 0.495 7.01 0.495 6 1 C5.27840576 2.64363134 4.60648579 4.31050386 4 6 C1.7522025 3.94766315 0.9977758 2.99332739 0 0 Z " fill="#CAEFA4" transform="translate(173,208)"/>
<path d="M0 0 C0.81210938 0.29003906 1.62421875 0.58007812 2.4609375 0.87890625 C3.27820313 1.16636719 4.09546875 1.45382813 4.9375 1.75 C5.56398437 1.97816406 6.19046875 2.20632812 6.8359375 2.44140625 C3.109529 3.48842811 -0.29419292 3.51582682 -4.1640625 3.44140625 C-4.1640625 2.45140625 -4.1640625 1.46140625 -4.1640625 0.44140625 C-2.1640625 -0.55859375 -2.1640625 -0.55859375 0 0 Z " fill="#0F1612" transform="translate(211.1640625,186.55859375)"/>
<path d="M0 0 C0.66 0.33 1.32 0.66 2 1 C2 2.32 2 3.64 2 5 C0.02 5 -1.96 5 -4 5 C-4.33 4.01 -4.66 3.02 -5 2 C-2.625 0.9375 -2.625 0.9375 0 0 Z " fill="#000606" transform="translate(118,164)"/>
<path d="M0 0 C1.25541557 3.76624671 0.37061958 5.37188934 -1 9 C-1.66 9 -2.32 9 -3 9 C-3.33 6.69 -3.66 4.38 -4 2 C-2.68 1.34 -1.36 0.68 0 0 Z " fill="#CCF3A3" transform="translate(213,151)"/>
<path d="M0 0 C3.63 0 7.26 0 11 0 C8.24433749 2.75566251 5.78460367 2.45934233 2 3 C1.34 3.66 0.68 4.32 0 5 C0 3.35 0 1.7 0 0 Z " fill="#D2F1B5" transform="translate(255,139)"/>
<path d="M0 0 C2 2 2 2 2.1953125 4.8203125 C2.16050781 6.45613281 2.16050781 6.45613281 2.125 8.125 C2.10695313 9.22070312 2.08890625 10.31640625 2.0703125 11.4453125 C2.04710937 12.28835937 2.02390625 13.13140625 2 14 C1.67 14 1.34 14 1 14 C0.86722656 13.38511719 0.73445313 12.77023438 0.59765625 12.13671875 C0.42105469 11.32847656 0.24445313 10.52023438 0.0625 9.6875 C-0.11152344 8.88699219 -0.28554688 8.08648437 -0.46484375 7.26171875 C-0.99886159 4.854599 -0.99886159 4.854599 -2 2 C-1.34 2 -0.68 2 0 2 C0 1.34 0 0.68 0 0 Z " fill="#BEDF99" transform="translate(307,214)"/>
<path d="M0 0 C0.33 0 0.66 0 1 0 C1 2.97 1 5.94 1 9 C-0.98 9 -2.96 9 -5 9 C-4.67 8.01 -4.34 7.02 -4 6 C-3.01 5.67 -2.02 5.34 -1 5 C-0.67 3.35 -0.34 1.7 0 0 Z " fill="#D0F8A6" transform="translate(245,180)"/>
<path d="M0 0 C0.66 0.66 1.32 1.32 2 2 C3.98821313 2.39764263 5.98944339 2.73775349 8 3 C8.33 2.01 8.66 1.02 9 0 C9 1.32 9 2.64 9 4 C5.04 4 1.08 4 -3 4 C-3 3.34 -3 2.68 -3 2 C-2.01 1.34 -1.02 0.68 0 0 Z " fill="#182B0C" transform="translate(112,166)"/>
<path d="M0 0 C0.33 0 0.66 0 1 0 C2.0024305 5.34629602 1.84888195 9.62374766 1 15 C0.01 15.33 -0.98 15.66 -2 16 C-1.34 10.72 -0.68 5.44 0 0 Z " fill="#0A1804" transform="translate(394,161)"/>
<path d="M0 0 C3 3.75 3 3.75 3 6 C1 7 -1 8 -3 9 C-2.01 6.03 -1.02 3.06 0 0 Z " fill="#17280D" transform="translate(115,153)"/>
<path d="M0 0 C0.33 0.66 0.66 1.32 1 2 C1.99 2 2.98 2 4 2 C3.625 4.4375 3.625 4.4375 3 7 C2.01 7.495 2.01 7.495 1 8 C-0.20628008 5.66785852 -1.1654738 3.50357861 -2 1 C-1.34 0.67 -0.68 0.34 0 0 Z " fill="#CBF7A3" transform="translate(141,247)"/>
<path d="M0 0 C0.66 0.66 1.32 1.32 2 2 C0.35 4.64 -1.3 7.28 -3 10 C-3.95904856 6.16380575 -3.91892116 4.67568464 -3 1 C-2.67 1.66 -2.34 2.32 -2 3 C-1.34 3 -0.68 3 0 3 C0 2.01 0 1.02 0 0 Z " fill="#BFE49A" transform="translate(212,218)"/>
<path d="M0 0 C1.45792884 -0.05399736 2.91642712 -0.09279177 4.375 -0.125 C5.18710937 -0.14820313 5.99921875 -0.17140625 6.8359375 -0.1953125 C9 0 9 0 11 2 C9.741875 2.185625 8.48375 2.37125 7.1875 2.5625 C6.12595703 2.71912109 6.12595703 2.71912109 5.04296875 2.87890625 C3 3 3 3 0 2 C0 1.34 0 0.68 0 0 Z " fill="#D2F8A8" transform="translate(362,180)"/>
<path d="M0 0 C0.99 0.33 1.98 0.66 3 1 C4.125 7.625 4.125 7.625 3 11 C2.49384702 9.73160474 1.99530901 8.46016898 1.5 7.1875 C1.2215625 6.47980469 0.943125 5.77210938 0.65625 5.04296875 C0 3 0 3 0 0 Z " fill="#0F1D0B" transform="translate(174,239)"/>
<path d="M0 0 C2.25245881 2.68841859 3.88213958 4.64641875 5 8 C3.68 8 2.36 8 1 8 C1 6.68 1 5.36 1 4 C0.34 4 -0.32 4 -1 4 C-0.67 2.68 -0.34 1.36 0 0 Z " fill="#C1E697" transform="translate(189,215)"/>
<path d="M0 0 C0.99 0.33 1.98 0.66 3 1 C2.67 1.66 2.34 2.32 2 3 C-1.14930893 4.04976964 -3.38814456 4.10131595 -6.6875 4.0625 C-7.68136719 4.05347656 -8.67523438 4.04445312 -9.69921875 4.03515625 C-10.83810547 4.01775391 -10.83810547 4.01775391 -12 4 C-12 3.67 -12 3.34 -12 3 C-10.95199219 2.92652344 -10.95199219 2.92652344 -9.8828125 2.8515625 C-8.97273437 2.77679688 -8.06265625 2.70203125 -7.125 2.625 C-6.22007812 2.55539063 -5.31515625 2.48578125 -4.3828125 2.4140625 C-1.82058097 2.20431868 -1.82058097 2.20431868 0 0 Z " fill="#D0F1A6" transform="translate(231,186)"/>
<path d="M0 0 C0.598125 0.165 1.19625 0.33 1.8125 0.5 C4.11344336 1.1114124 4.11344336 1.1114124 7 1 C6.34 2.65 5.68 4.3 5 6 C4.01 5.67 3.02 5.34 2 5 C0.8125 2.4375 0.8125 2.4375 0 0 Z " fill="#BFEA9A" transform="translate(274,170)"/>
<path d="M0 0 C0.33 0 0.66 0 1 0 C1.1799928 5.21979128 0.97094808 9.07262981 -1 14 C-1.66 13.67 -2.32 13.34 -3 13 C-2.690625 12.154375 -2.38125 11.30875 -2.0625 10.4375 C-0.98461179 6.9502146 -0.43418696 3.61822465 0 0 Z " fill="#2D4020" transform="translate(382,160)"/>
<path d="M0 0 C0.99 0.33 1.98 0.66 3 1 C2.67 5.29 2.34 9.58 2 14 C1.67 14 1.34 14 1 14 C0.67 9.38 0.34 4.76 0 0 Z " fill="#D1F5A6" transform="translate(382,156)"/>
<path d="M0 0 C-1.2065625 0.4021875 -1.2065625 0.4021875 -2.4375 0.8125 C-3.283125 1.204375 -4.12875 1.59625 -5 2 C-5.33 2.99 -5.66 3.98 -6 5 C-6.99 4.67 -7.98 4.34 -9 4 C-8.25 2.0625 -8.25 2.0625 -7 0 C-4.04680182 -1.23843794 -3.12561472 -1.04187157 0 0 Z " fill="#BFE591" transform="translate(221,148)"/>
<path d="M0 0 C1.32 0.66 2.64 1.32 4 2 C3.34 3.32 2.68 4.64 2 6 C1.01 5.67 0.02 5.34 -1 5 C-0.67 3.35 -0.34 1.7 0 0 Z " fill="#BEEA94" transform="translate(140,233)"/>
<path d="M0 0 C1.32 0.66 2.64 1.32 4 2 C4 4.64 4 7.28 4 10 C3.54625 9.38125 3.0925 8.7625 2.625 8.125 C1.02891081 5.94080167 1.02891081 5.94080167 -1 4 C-0.34 4 0.32 4 1 4 C0.67 2.68 0.34 1.36 0 0 Z " fill="#14220A" transform="translate(294,217)"/>
<path d="M0 0 C1.32 0.66 2.64 1.32 4 2 C2.02 4.97 2.02 4.97 0 8 C-0.66 7.67 -1.32 7.34 -2 7 C-1.34 4.69 -0.68 2.38 0 0 Z " fill="#BCE299" transform="translate(149,208)"/>
<path d="M0 0 C1.32 1.32 2.64 2.64 4 4 C3.34 5.32 2.68 6.64 2 8 C1.34 7.67 0.68 7.34 0 7 C0 4.69 0 2.38 0 0 Z " fill="#091606" transform="translate(266,159)"/>
<path d="M0 0 C0.66 0 1.32 0 2 0 C2.33 0.99 2.66 1.98 3 3 C3.66 3.66 4.32 4.32 5 5 C4.01 5.99 3.02 6.98 2 8 C0.68 6.02 -0.64 4.04 -2 2 C-1.34 1.67 -0.68 1.34 0 1 C0 0.67 0 0.34 0 0 Z " fill="#14210F" transform="translate(242,141)"/>
<path d="M0 0 C3.63 0 7.26 0 11 0 C11 0.99 11 1.98 11 3 C10.01 3.33 9.02 3.66 8 4 C7.67 3.34 7.34 2.68 7 2 C4.67843403 1.59270772 2.3431213 1.25561323 0 1 C0 0.67 0 0.34 0 0 Z " fill="#0F1C09" transform="translate(300,258)"/>
<path d="M0 0 C1.32 0 2.64 0 4 0 C4.33 2.31 4.66 4.62 5 7 C4.34 7 3.68 7 3 7 C0 2.61538462 0 2.61538462 0 0 Z " fill="#CCF6A7" transform="translate(295,238)"/>
<path d="M0 0 C0.66 0.33 1.32 0.66 2 1 C1.34 2.65 0.68 4.3 0 6 C-0.99 6 -1.98 6 -3 6 C-3.33 5.01 -3.66 4.02 -4 3 C-2.68 2.01 -1.36 1.02 0 0 Z " fill="#10220B" transform="translate(307,230)"/>
<path d="M0 0 C0.99 0.66 1.98 1.32 3 2 C2.01 3.485 2.01 3.485 1 5 C-0.32 4.67 -1.64 4.34 -3 4 C-3 3.01 -3 2.02 -3 1 C-2.01 0.67 -1.02 0.34 0 0 Z " fill="#C1F096" transform="translate(232,179)"/>
<path d="M0 0 C1.04973814 4.19895255 0.72795155 6.79405774 0 11 C-0.99 10.34 -1.98 9.68 -3 9 C-2.01 6.03 -1.02 3.06 0 0 Z " fill="#B5DB8C" transform="translate(106,147)"/>
<path d="M0 0 C0.66 0.66 1.32 1.32 2 2 C-5.625 3.25 -5.625 3.25 -9 1 C-5.98675805 -0.50662097 -3.31713623 -0.17770373 0 0 Z " fill="#2B3D1D" transform="translate(228,147)"/>
<path d="M0 0 C0.66 0.33 1.32 0.66 2 1 C2 2.98 2 4.96 2 7 C0.68 6.67 -0.64 6.34 -2 6 C-1.34 4.02 -0.68 2.04 0 0 Z " fill="#1A360E" transform="translate(27,65)"/>
<path d="M0 0 C0.66 0 1.32 0 2 0 C2.66 0.66 3.32 1.32 4 2 C4.33 2 4.66 2 5 2 C5 3.65 5 5.3 5 7 C4.34 7 3.68 7 3 7 C0 2.61538462 0 2.61538462 0 0 Z " fill="#C8E99C" transform="translate(282,182)"/>
<path d="M0 0 C0.66 0 1.32 0 2 0 C1.01 3.3 0.02 6.6 -1 10 C-1.66 9.01 -2.32 8.02 -3 7 C-2.21069203 4.51064409 -1.1651105 2.330221 0 0 Z " fill="#102007" transform="translate(104,148)"/>
<path d="M0 0 C1.32 0 2.64 0 4 0 C4 1.32 4 2.64 4 4 C2.35 3.67 0.7 3.34 -1 3 C-0.67 2.01 -0.34 1.02 0 0 Z " fill="#C5FC8D" transform="translate(217,142)"/>
<path d="M0 0 C0.66 1.32 1.32 2.64 2 4 C0.68 4.33 -0.64 4.66 -2 5 C-2 3.68 -2 2.36 -2 1 C-1.34 0.67 -0.68 0.34 0 0 Z " fill="#C6FD8F" transform="translate(162,219)"/>
<path d="M0 0 C1.9451 2.91765 2.45276317 4.62537285 3 8 C1.68 7.67 0.36 7.34 -1 7 C-1 6.01 -1 5.02 -1 4 C-0.67 4 -0.34 4 0 4 C0 2.68 0 1.36 0 0 Z " fill="#AED48A" transform="translate(131,165)"/>
<path d="M0 0 C0.99 0 1.98 0 3 0 C3.33 2.31 3.66 4.62 4 7 C3.01 7.495 3.01 7.495 2 8 C0.74335022 5.09399739 0 3.20395416 0 0 Z " fill="#C0E197" transform="translate(118,158)"/>
<path d="M0 0 C3 1 3 1 4.25 2.875 C5 5 5 5 4 8 C0 2.25 0 2.25 0 0 Z " fill="#0E1F08" transform="translate(377,152)"/>
<path d="M0 0 C2.9375 0.8125 2.9375 0.8125 6 2 C6.33 2.99 6.66 3.98 7 5 C3 5 3 5 1.25 3.625 C0 2 0 2 0 0 Z " fill="#CAF995" transform="translate(235,149)"/>
</svg>
