<?xml version="1.0" encoding="UTF-8"?>
<svg version="1.1" xmlns="http://www.w3.org/2000/svg" width="400" height="400">
<path d="M0 0 C132 0 264 0 400 0 C400 132 400 264 400 400 C268 400 136 400 0 400 C0 268 0 136 0 0 Z " fill="#FEFEFE" transform="translate(0,0)"/>
<path d="M0 0 C1.98141572 0.35748984 3.9699129 0.67521188 5.95898438 0.98730469 C25.36912379 4.4310391 45.49144525 15.47987604 60.22460938 28.40136719 C61.24748047 29.26181641 61.24748047 29.26181641 62.29101562 30.13964844 C64.306673 31.85552115 66.26999645 33.61638536 68.22460938 35.40136719 C68.90910156 36.00851563 69.59359375 36.61566406 70.29882812 37.24121094 C95.33061606 60.65514543 107.62477888 94.81194596 109.57226562 128.33105469 C109.95005132 139.81398255 108.17528387 151.11764413 106.22460938 162.40136719 C106.11246094 163.08247559 106.0003125 163.76358398 105.88476562 164.46533203 C100.71862218 195.24693671 79.38780086 225.20146886 54.35424805 243.31738281 C20.76945204 266.6557552 -16.50709747 273.59164325 -56.52539062 266.67089844 C-67.1453384 264.64506295 -77.49547095 261.33796939 -86.72070312 255.57714844 C-88.91977958 254.2588887 -88.91977958 254.2588887 -92.03710938 253.06933594 C-96.1864085 251.32484448 -99.77558177 248.96291475 -103.46289062 246.40136719 C-104.15697021 245.92151367 -104.8510498 245.44166016 -105.56616211 244.94726562 C-112.16713669 240.28703981 -118.00529923 235.03850716 -123.77539062 229.40136719 C-124.77119141 228.48097656 -124.77119141 228.48097656 -125.78710938 227.54199219 C-133.66468601 220.10697604 -139.48391516 210.78050745 -144.77539062 201.40136719 C-145.41476563 200.29148437 -146.05414063 199.18160156 -146.71289062 198.03808594 C-162.40056163 170.25191556 -166.51703576 137.58966022 -160.17675781 106.4296875 C-159.80691229 104.56066281 -159.49539807 102.68034628 -159.18945312 100.79980469 C-157.38194382 90.58855083 -153.2987594 81.6520535 -148.77539062 72.40136719 C-148.47584473 71.78310059 -148.17629883 71.16483398 -147.86767578 70.52783203 C-141.72079001 58.00561705 -133.28818264 47.5195187 -123.77539062 37.40136719 C-123.21078125 36.76070312 -122.64617187 36.12003906 -122.06445312 35.45996094 C-111.06841902 23.54344434 -96.48886178 14.88611427 -81.77539062 8.40136719 C-81.10668945 8.08973633 -80.43798828 7.77810547 -79.74902344 7.45703125 C-54.8219479 -4.09050445 -26.64423067 -4.8553164 0 0 Z " fill="#FBFBFB" transform="translate(226.775390625,66.5986328125)"/>
<path d="M0 0 C1.98141572 0.35748984 3.9699129 0.67521188 5.95898438 0.98730469 C25.36912379 4.4310391 45.49144525 15.47987604 60.22460938 28.40136719 C61.24748047 29.26181641 61.24748047 29.26181641 62.29101562 30.13964844 C64.306673 31.85552115 66.26999645 33.61638536 68.22460938 35.40136719 C68.90910156 36.00851563 69.59359375 36.61566406 70.29882812 37.24121094 C95.33061606 60.65514543 107.62477888 94.81194596 109.57226562 128.33105469 C109.95005132 139.81398255 108.17528387 151.11764413 106.22460938 162.40136719 C106.11246094 163.08247559 106.0003125 163.76358398 105.88476562 164.46533203 C100.71862218 195.24693671 79.38780086 225.20146886 54.35424805 243.31738281 C20.76945204 266.6557552 -16.50709747 273.59164325 -56.52539062 266.67089844 C-67.1453384 264.64506295 -77.49547095 261.33796939 -86.72070312 255.57714844 C-88.91977958 254.2588887 -88.91977958 254.2588887 -92.03710938 253.06933594 C-96.1864085 251.32484448 -99.77558177 248.96291475 -103.46289062 246.40136719 C-104.15697021 245.92151367 -104.8510498 245.44166016 -105.56616211 244.94726562 C-112.16713669 240.28703981 -118.00529923 235.03850716 -123.77539062 229.40136719 C-124.77119141 228.48097656 -124.77119141 228.48097656 -125.78710938 227.54199219 C-133.66468601 220.10697604 -139.48391516 210.78050745 -144.77539062 201.40136719 C-145.41476563 200.29148437 -146.05414063 199.18160156 -146.71289062 198.03808594 C-162.40056163 170.25191556 -166.51703576 137.58966022 -160.17675781 106.4296875 C-159.80691229 104.56066281 -159.49539807 102.68034628 -159.18945312 100.79980469 C-157.38194382 90.58855083 -153.2987594 81.6520535 -148.77539062 72.40136719 C-148.47584473 71.78310059 -148.17629883 71.16483398 -147.86767578 70.52783203 C-141.72079001 58.00561705 -133.28818264 47.5195187 -123.77539062 37.40136719 C-123.21078125 36.76070312 -122.64617187 36.12003906 -122.06445312 35.45996094 C-111.06841902 23.54344434 -96.48886178 14.88611427 -81.77539062 8.40136719 C-81.10668945 8.08973633 -80.43798828 7.77810547 -79.74902344 7.45703125 C-54.8219479 -4.09050445 -26.64423067 -4.8553164 0 0 Z M-71.77539062 33.40136719 C-72.4028418 33.70204102 -73.03029297 34.00271484 -73.67675781 34.3125 C-97.4935348 45.89026691 -114.81883876 63.49551726 -126.27539062 87.21386719 C-126.6970752 88.08519287 -127.11875977 88.95651855 -127.55322266 89.85424805 C-129.8230674 94.74618692 -131.43012707 99.38202608 -132.3984375 104.69311523 C-132.77539062 106.40136719 -132.77539062 106.40136719 -133.77539062 107.40136719 C-137.06560208 123.63627919 -139.50733885 148.25247604 -131.77539062 163.40136719 C-131.48019531 164.64402344 -131.185 165.88667969 -130.88085938 167.16699219 C-129.85025957 171.49771481 -128.13669453 175.21582821 -126.08789062 179.15136719 C-125.55071411 180.19333252 -125.55071411 180.19333252 -125.00268555 181.25634766 C-124.27447204 182.65793688 -123.54123897 184.05693081 -122.80273438 185.453125 C-121.90078736 187.16356635 -121.02354409 188.88698702 -120.15039062 190.61230469 C-115.40257244 199.4669856 -108.84491134 206.36915265 -101.77539062 213.40136719 C-101.07414062 214.10261719 -100.37289062 214.80386719 -99.65039062 215.52636719 C-78.90226295 234.8435895 -50.83447241 243.4091432 -22.94726562 242.62402344 C-16.8002647 242.34423085 -10.81475311 241.57944911 -4.77539062 240.40136719 C-3.50179687 240.15644531 -2.22820312 239.91152344 -0.91601562 239.65917969 C9.33879307 237.4903754 18.08625839 233.44660626 27.22460938 228.40136719 C28.578125 227.69367188 28.578125 227.69367188 29.95898438 226.97167969 C48.52578857 216.7174643 61.50114046 200.05762343 71.47460938 181.77636719 C71.80404541 181.17928955 72.13348145 180.58221191 72.47290039 179.96704102 C84.55795812 157.28322389 85.6541498 125.7665731 78.62255859 101.30712891 C77.1488661 96.8485192 75.26239232 92.63368562 73.22460938 88.40136719 C72.92393555 87.77391602 72.62326172 87.14646484 72.31347656 86.5 C66.84007003 75.24058325 60.25267718 65.18133541 51.22460938 56.40136719 C50.39445313 55.5621875 49.56429687 54.72300781 48.70898438 53.85839844 C27.58729515 33.43070757 0.01544418 23.95583042 -29.05810547 24.1015625 C-44.21169481 24.41985443 -58.07986081 26.8072232 -71.77539062 33.40136719 Z " fill="#191919" transform="translate(226.775390625,66.5986328125)"/>
<path d="M0 0 C1.53333984 -0.00386719 1.53333984 -0.00386719 3.09765625 -0.0078125 C6.205511 0.20593267 8.24001627 0.53671336 11 2 C13.26392883 5.04674115 14.80071746 8.10988783 16.390625 11.5546875 C17.86397591 14.70880279 19.46000841 17.31775493 21.5 20.125 C23.89989878 23.42751557 26.1183455 26.76829765 28.25 30.25 C40.34032756 49.36833534 56.5855629 67.3162272 75.6640625 79.50390625 C78 81 78 81 79 82 C79.65250051 91.49890172 78.85356186 99.87879333 76 109 C61.61382365 104.71201897 49.29347089 93.47574384 38 84 C38.28721924 84.56920166 38.57443848 85.13840332 38.87036133 85.72485352 C40.18656964 88.33631901 41.49955497 90.94939244 42.8125 93.5625 C43.49022461 94.90538086 43.49022461 94.90538086 44.18164062 96.27539062 C46.04206387 99.98265738 47.85615869 103.6499992 49.43359375 107.48828125 C52.0802573 113.42182372 55.58407484 118.89894064 58.96875 124.4375 C59.76539063 125.78714844 59.76539063 125.78714844 60.578125 127.1640625 C61.06700195 127.97311035 61.55587891 128.7821582 62.05957031 129.61572266 C63.22232503 132.56366206 62.98513634 134.01910272 62 137 C59.890625 139.75390625 59.890625 139.75390625 57.25 142.5625 C56.38890625 143.49191406 55.5278125 144.42132813 54.640625 145.37890625 C52.20991272 147.79163989 49.71851638 149.92199737 47 152 C39.58057611 148.92714847 36.22731946 139.76264762 32.640625 133.0234375 C31.45353756 130.83580493 30.24367346 128.68413868 28.984375 126.5390625 C25.50371611 120.60555237 22.23143633 114.77783334 19.88671875 108.28125 C18.77499864 105.42114188 17.39966822 102.72876494 16 100 C21.36286902 128.62346489 21.36286902 128.62346489 30.08203125 156.34765625 C31 159 31 159 31 162 C23.46735315 166.36893517 14.76734986 169 6 169 C0.15073812 154.90334428 -4.05155631 140.97419158 -7 126 C-7.22139648 126.78012451 -7.44279297 127.56024902 -7.67089844 128.36401367 C-8.51221849 131.32592424 -9.3548274 134.28746459 -10.19824219 137.2487793 C-10.73468267 139.13367924 -11.26970597 141.01898233 -11.8046875 142.90429688 C-18.23504601 165.47009202 -18.23504601 165.47009202 -20 169 C-26.14161575 168.67098487 -31.65043702 167.36672295 -37.5 165.5625 C-38.21865234 165.34505127 -38.93730469 165.12760254 -39.67773438 164.90356445 C-41.47312399 164.33208936 -43.23998628 163.67257667 -45 163 C-46 161 -46 161 -44.92578125 157.6484375 C-44.39233043 156.22233884 -43.85422823 154.79797494 -43.3125 153.375 C-37.67284908 137.91619823 -34.59049199 121.82332993 -31.171875 105.7578125 C-30.9459668 104.6970752 -30.72005859 103.63633789 -30.48730469 102.54345703 C-29.937277 100.10424079 -29.937277 100.10424079 -30 98 C-30.49628906 99.06476563 -30.99257812 100.12953125 -31.50390625 101.2265625 C-33.65297476 105.82546245 -35.82074521 110.41533198 -38 115 C-38.2985791 115.62874023 -38.5971582 116.25748047 -38.90478516 116.90527344 C-44.7240355 129.07558611 -51.41508937 140.84059125 -59 152 C-60.65 151.67 -62.3 151.34 -64 151 C-64 150.34 -64 149.68 -64 149 C-64.57492188 148.75121094 -65.14984375 148.50242187 -65.7421875 148.24609375 C-68.32567198 146.82026062 -70.0626556 145.16797328 -72.125 143.0625 C-72.80820313 142.37285156 -73.49140625 141.68320312 -74.1953125 140.97265625 C-76.33484777 138.63398674 -77.87470009 136.85954655 -78.33984375 133.66870117 C-77.89418987 130.16910164 -76.52317679 128.22961386 -74.5625 125.30078125 C-69.36397552 117.26610696 -65.21671485 108.76536262 -61 100.1875 C-60.21801792 98.60844155 -59.43546895 97.02966371 -58.65234375 95.45117188 C-56.76170202 91.63730612 -54.87868918 87.81976671 -53 84 C-53.42337646 84.3707666 -53.84675293 84.7415332 -54.28295898 85.12353516 C-81.80332805 109 -81.80332805 109 -91 109 C-92.22128507 105.37454997 -93.14844779 101.72921138 -94 98 C-94.15903809 97.36304199 -94.31807617 96.72608398 -94.48193359 96.06982422 C-95.63369261 91.11256678 -96.09454654 87.01322967 -95 82 C-91.13850193 78.14383549 -86.8020399 75.84383072 -82.05126953 73.23486328 C-78.78021125 71.26568775 -76.06961859 68.81161271 -73.3125 66.1875 C-72.5229895 65.43786987 -72.5229895 65.43786987 -71.7175293 64.6730957 C-62.55934945 55.81684937 -54.13775241 46.57804621 -47 36 C-46.22221191 34.8538623 -46.22221191 34.8538623 -45.42871094 33.68457031 C-38.86915165 23.99722564 -32.39733516 14.28243787 -26.453125 4.203125 C-25 2 -25 2 -23 1 C-15.32908644 -0.15063703 -7.74534239 -0.25904155 0 0 Z " fill="#181818" transform="translate(208,116)"/>
<path d="M0 0 C1.4800841 0.11362262 2.95910074 0.24122908 4.4375 0.375 C5.26121094 0.44460938 6.08492187 0.51421875 6.93359375 0.5859375 C7.95646484 0.79089844 7.95646484 0.79089844 9 1 C9.33 1.66 9.66 2.32 10 3 C12.97 2.01 15.94 1.02 19 0 C17.12078169 3.75843663 15.97529385 5.14975355 12.875 7.75 C11.78832031 8.67039062 11.78832031 8.67039062 10.6796875 9.609375 C9.84824219 10.29773438 9.84824219 10.29773438 9 11 C5.55984676 9.59600584 4.12265041 8.12216166 2.25 4.9375 C1.82203125 4.22464844 1.3940625 3.51179688 0.953125 2.77734375 C0 1 0 1 0 0 Z " fill="#1F1F1F" transform="translate(246,257)"/>
<path d="M0 0 C3.54107424 1.77053712 5.68323919 3.32131886 8.5625 5.9375 C9.32691406 6.62714844 10.09132812 7.31679687 10.87890625 8.02734375 C12.62531147 9.65153277 14.32998738 11.29797436 16 13 C15.34 13 14.68 13 14 13 C13.67 13.66 13.34 14.32 13 15 C11.68 16.32 10.36 17.64 9 19 C6.03 12.73 3.06 6.46 0 0 Z " fill="#EDEDED" transform="translate(245,199)"/>
<path d="M0 0 C4.43458973 1.3937282 6.87378374 3.60582235 10 7 C3.57451737 8.33359073 3.57451737 8.33359073 1.0625 6.875 C-0.30361625 4.46420662 -0.22111261 2.72705554 0 0 Z " fill="#232323" transform="translate(272,85)"/>
<path d="M0 0 C0.66 0.33 1.32 0.66 2 1 C1.690625 1.99 1.38125 2.98 1.0625 4 C-0.08433207 7.97731122 -0.56712356 11.88767379 -1 16 C-1.33 16 -1.66 16 -2 16 C-2.103125 15.05125 -2.20625 14.1025 -2.3125 13.125 C-2.68539295 9.70892499 -2.68539295 9.70892499 -6 8 C-6 7.34 -6 6.68 -6 6 C-4.02 5.67 -2.04 5.34 0 5 C0 3.35 0 1.7 0 0 Z " fill="#323232" transform="translate(94,166)"/>
<path d="M0 0 C1.32 0.99 2.64 1.98 4 3 C3.67 5.64 3.34 8.28 3 11 C0.35534962 7.8745041 -0.84414715 4.91211733 -2 1 C-1.34 0.67 -0.68 0.34 0 0 Z " fill="#262626" transform="translate(235,232)"/>
<path d="M0 0 C0.66 0.33 1.32 0.66 2 1 C2.66 1 3.32 1 4 1 C5 4 5 4 5 6 C5.99 7.485 5.99 7.485 7 9 C3.4213696 7.34832443 0.25179812 5.21713508 -3 3 C-2.01 2.01 -1.02 1.02 0 0 Z " fill="#262626" transform="translate(121,306)"/>
<path d="M0 0 C0.33 0.66 0.66 1.32 1 2 C2.98 1.34 4.96 0.68 7 0 C8 3 8 3 7 6 C3.22454612 4.90931332 0.52956528 4.0916909 -2 1 C-1.34 0.67 -0.68 0.34 0 0 Z " fill="#202020" transform="translate(277,219)"/>
<path d="M0 0 C1.20220203 3.53094302 0.79532349 6.12898982 0.0625 9.75 C-0.13214844 10.73484375 -0.32679688 11.7196875 -0.52734375 12.734375 C-0.68332031 13.48203125 -0.83929688 14.2296875 -1 15 C-1.33 15 -1.66 15 -2 15 C-2 13.35 -2 11.7 -2 10 C-2.66 10 -3.32 10 -4 10 C-2.8905928 6.51329166 -1.73662334 3.22515763 0 0 Z " fill="#D0D0D0" transform="translate(178,212)"/>
<path d="M0 0 C-1.29299694 2.88437779 -2.65941363 4.87219421 -5 7 C-5.99 6.67 -6.98 6.34 -8 6 C-7.8125 4.125 -7.8125 4.125 -7 2 C-4.55683729 0.74709605 -2.75474605 0 0 0 Z " fill="#292929" transform="translate(265,257)"/>
<path d="M0 0 C1.41377341 2.63904371 2.37240135 5.07120629 3 8 C2.01 8.495 2.01 8.495 1 9 C1 8.34 1 7.68 1 7 C-0.65 7.33 -2.3 7.66 -4 8 C-2.87548273 5.0280615 -1.77706209 2.66559313 0 0 Z " fill="#2B2B2B" transform="translate(173,134)"/>
<path d="M0 0 C0.66 0 1.32 0 2 0 C3.625 2.5 3.625 2.5 5 5 C3.3125 5.8125 3.3125 5.8125 1 6 C-1.75 3.5625 -1.75 3.5625 -4 1 C-2.68 1.33 -1.36 1.66 0 2 C0 1.34 0 0.68 0 0 Z " fill="#2D2D2D" transform="translate(268,212)"/>
<path d="M0 0 C2.31 0 4.62 0 7 0 C7 3 7 3 6 5 C6.66 5.33 7.32 5.66 8 6 C7.67 6.66 7.34 7.32 7 8 C4.35247996 5.42215154 2.05567935 3.08351902 0 0 Z " fill="#282828" transform="translate(276,121)"/>
<path d="M0 0 C2 0 4 0 6 0 C6.33 0.99 6.66 1.98 7 3 C7.66 2.67 8.32 2.34 9 2 C8.67 2.99 8.34 3.98 8 5 C4.17902761 4.46930939 1.93828597 3.50298434 -1 1 C-0.67 0.67 -0.34 0.34 0 0 Z " fill="#282828" transform="translate(142,321)"/>
<path d="M0 0 C2.40072955 2.88087546 4.47291037 5.56404834 6 9 C3.03 8.505 3.03 8.505 0 8 C0.33 7.01 0.66 6.02 1 5 C0.60602665 2.36195411 0.60602665 2.36195411 0 0 Z " fill="#292929" transform="translate(233,143)"/>
<path d="M0 0 C2 1 2 1 3.125 4.0625 C3.41375 5.031875 3.7025 6.00125 4 7 C3.01 7.33 2.02 7.66 1 8 C-0.5625 5.625 -0.5625 5.625 -2 3 C-1 1 -1 1 0 0 Z " fill="#333333" transform="translate(218,118)"/>
<path d="M0 0 C0 0.99 0 1.98 0 3 C-1.28650706 3.69710731 -2.57940665 4.38242876 -3.875 5.0625 C-4.95394531 5.63677734 -4.95394531 5.63677734 -6.0546875 6.22265625 C-6.69664063 6.47917969 -7.33859375 6.73570313 -8 7 C-8.66 6.67 -9.32 6.34 -10 6 C-8.71283353 4.99421411 -7.42011342 3.99553202 -6.125 3 C-5.40570313 2.443125 -4.68640625 1.88625 -3.9453125 1.3125 C-2 0 -2 0 0 0 Z " fill="#2F2F2F" transform="translate(125,87)"/>
<path d="M0 0 C1.875 0.25 1.875 0.25 4 1 C5.25 3.0625 5.25 3.0625 6 5 C3 5 3 5 0 3 C0 2.01 0 1.02 0 0 Z " fill="#202020" transform="translate(242,159)"/>
<path d="M0 0 C1.32 0.66 2.64 1.32 4 2 C3.01 3.98 2.02 5.96 1 8 C-1 5 -1 5 -0.625 2.3125 C-0.41875 1.549375 -0.2125 0.78625 0 0 Z " fill="#2A2A2A" transform="translate(101,145)"/>
<path d="M0 0 C-7.28571429 3.57142857 -7.28571429 3.57142857 -12 2 C-8.34215498 -0.11029521 -3.98761141 -1.99380571 0 0 Z M-9 3 C-8.34 3 -7.68 3 -7 3 C-7.33 3.66 -7.66 4.32 -8 5 C-8.33 4.34 -8.66 3.68 -9 3 Z " fill="#4D4D4D" transform="translate(234,305)"/>
<path d="M0 0 C2.15377564 2.62198774 3.40072174 4.64404172 4 8 C2.35 7.67 0.7 7.34 -1 7 C-1.33 6.01 -1.66 5.02 -2 4 C-1.34 3.67 -0.68 3.34 0 3 C0 2.01 0 1.02 0 0 Z " fill="#2B2B2B" transform="translate(100,245)"/>
<path d="M0 0 C3 1 3 1 5 4 C5.125 6.6875 5.125 6.6875 5 9 C0.57142857 3.85714286 0.57142857 3.85714286 0 0 Z " fill="#242424" transform="translate(290,136)"/>
<path d="M0 0 C0.99 0 1.98 0 3 0 C3.33 0.99 3.66 1.98 4 3 C3.01 3.99 2.02 4.98 1 6 C0.01 5.34 -0.98 4.68 -2 4 C-1.34 2.68 -0.68 1.36 0 0 Z " fill="#222222" transform="translate(139,232)"/>
<path d="M0 0 C0.66 0.33 1.32 0.66 2 1 C2 1.66 2 2.32 2 3 C2.66 3.33 3.32 3.66 4 4 C2.35 4.66 0.7 5.32 -1 6 C-1.33 4.68 -1.66 3.36 -2 2 C-1.34 2 -0.68 2 0 2 C0 1.34 0 0.68 0 0 Z " fill="#222222" transform="translate(118,219)"/>
<path d="M0 0 C1.32 1.32 2.64 2.64 4 4 C3.01 5.32 2.02 6.64 1 8 C0.34 7.67 -0.32 7.34 -1 7 C-0.67 4.69 -0.34 2.38 0 0 Z " fill="#282828" transform="translate(252,168)"/>
<path d="M0 0 C0.33 0.99 0.66 1.98 1 3 C1.66 3.33 2.32 3.66 3 4 C1.02 4.99 -0.96 5.98 -3 7 C-2.38722388 4.03824877 -1.74627478 2.61941217 0 0 Z " fill="#363636" transform="translate(133,243)"/>
<path d="M0 0 C0.99 1.32 1.98 2.64 3 4 C1.68 4.99 0.36 5.98 -1 7 C-2 4 -2 4 -1.0625 1.8125 C-0.5365625 0.9153125 -0.5365625 0.9153125 0 0 Z " fill="#242424" transform="translate(76,143)"/>
<path d="M0 0 C0.99 0.33 1.98 0.66 3 1 C2.67 3.31 2.34 5.62 2 8 C0.68 6.68 -0.64 5.36 -2 4 C-1.34 3.34 -0.68 2.68 0 2 C0 1.34 0 0.68 0 0 Z " fill="#3C3C3C" transform="translate(273,113)"/>
<path d="M0 0 C0.33 0.66 0.66 1.32 1 2 C3.02463255 2.65213292 3.02463255 2.65213292 5 3 C3.03533587 4.06775224 1.03144641 5.06553465 -1 6 C-1.66 5.67 -2.32 5.34 -3 5 C-2.67 4.34 -2.34 3.68 -2 3 C-1.34 3 -0.68 3 0 3 C0 2.01 0 1.02 0 0 Z " fill="#2F2F2F" transform="translate(150,98)"/>
</svg>
