<?xml version="1.0" encoding="UTF-8"?>
<svg version="1.1" xmlns="http://www.w3.org/2000/svg" width="236" height="236">
<path d="M0 0 C77.88 0 155.76 0 236 0 C236 77.88 236 155.76 236 236 C158.12 236 80.24 236 0 236 C0 158.12 0 80.24 0 0 Z " fill="#000001" transform="translate(0,0)"/>
<path d="M0 0 C0.66 0 1.32 0 2 0 C4 3 4 3 4 6 C4.66 6 5.32 6 6 6 C6.67154933 7.28913487 7.33708859 8.58140204 8 9.875 C8.37125 10.59429687 8.7425 11.31359375 9.125 12.0546875 C10 14 10 14 10 16 C10.66 16 11.32 16 12 16 C12.50789063 17.05058594 13.01578125 18.10117188 13.5390625 19.18359375 C16.96602163 26.19533251 20.31356291 32.99894553 24.96875 39.30078125 C26 41 26 41 26 44 C26.66 44 27.32 44 28 44 C28 45.32 28 46.64 28 48 C28.66 48 29.32 48 30 48 C30.67154933 49.28913487 31.33708859 50.58140204 32 51.875 C32.37125 52.59429687 32.7425 53.31359375 33.125 54.0546875 C34 56 34 56 34 58 C34.66 58 35.32 58 36 58 C37.17154293 60.28929053 38.33738074 62.58118362 39.5 64.875 C39.83386719 65.52597656 40.16773438 66.17695312 40.51171875 66.84765625 C43 71.7734375 43 71.7734375 43 74 C43.66 74 44.32 74 45 74 C45.38744385 74.69448242 45.7748877 75.38896484 46.17407227 76.10449219 C47.96903459 79.32032183 49.76575956 82.53516351 51.5625 85.75 C52.17158203 86.84183594 52.78066406 87.93367188 53.40820312 89.05859375 C59.04770419 99.14405068 64.78121866 109.15864795 70.93359375 118.94140625 C72 121 72 121 72 124 C68.43860935 124.23303424 64.87917554 124.37461781 61.3125 124.5 C59.80139648 124.60054687 59.80139648 124.60054687 58.25976562 124.703125 C50.95575376 124.8959702 50.95575376 124.8959702 48.21240234 122.32421875 C46.08044654 119.01619665 44.84823688 115.83513075 44 112 C43.34 112 42.68 112 42 112 C41.62488281 111.2265625 41.24976563 110.453125 40.86328125 109.65625 C38.27598921 104.3904264 35.65343138 99.28028913 32.4609375 94.359375 C30.46496178 91.13592758 28.64930408 87.8155536 26.8125 84.5 C23.64858907 78.79988524 20.31701521 73.24678542 16.8125 67.75 C13.24778524 62.15345909 10.11656064 56.4937177 7.25 50.5 C6.16288465 48.32576931 5.00599737 46.36977398 3.625 44.375 C2 42 2 42 2 40 C-1.23027109 43.03110548 -3.14934273 46.58144921 -5.25 50.4375 C-9.05711752 57.35765765 -13.0075189 64.18513779 -17 71 C-18.1789858 73.02308774 -19.3573757 75.04652287 -20.53515625 77.0703125 C-21.7109375 79.08854167 -22.88671875 81.10677083 -24.0625 83.125 C-24.64837891 84.13175781 -25.23425781 85.13851562 -25.83789062 86.17578125 C-28.60998208 90.93233329 -31.39849988 95.67647165 -34.2421875 100.390625 C-36.76611713 104.58226298 -39.11646805 108.84262097 -41.41015625 113.1640625 C-41.93480469 114.09992188 -42.45945312 115.03578125 -43 116 C-43.29656494 116.69254883 -43.59312988 117.38509766 -43.89868164 118.09863281 C-45.06464922 120.48497099 -46.06600722 122.16953062 -48 124 C-51.80973655 124.98839464 -55.40947266 124.7597024 -59.3125 124.5 C-60.33923828 124.46390625 -61.36597656 124.4278125 -62.42382812 124.390625 C-64.95304545 124.29651459 -67.4745974 124.16524592 -70 124 C-69.07457281 119.72735764 -67.03975021 116.25551362 -64.875 112.5 C-64.47120117 111.79093506 -64.06740234 111.08187012 -63.65136719 110.35131836 C-60.65651673 105.10442073 -57.61410922 99.88525741 -54.5546875 94.67578125 C-53.12662565 92.21793611 -51.74206677 89.74213724 -50.375 87.25 C-48.85191053 84.48164846 -47.26121306 81.7890135 -45.5625 79.125 C-43.7108615 76.20225985 -42.01365632 73.23474341 -40.375 70.1875 C-35.78247769 61.67851197 -30.86822184 53.35309165 -26 45 C-25.42056641 44.00548828 -24.84113281 43.01097656 -24.24414062 41.98632812 C-21.28451854 36.90770545 -18.32301904 31.83018291 -15.359375 26.75390625 C-14.81224854 25.81659668 -14.26512207 24.87928711 -13.70141602 23.91357422 C-12.50987836 21.87313651 -11.31759561 19.83313381 -10.12475586 17.79345703 C-9.50995361 16.7414209 -8.89515137 15.68938477 -8.26171875 14.60546875 C-7.70701904 13.65696045 -7.15231934 12.70845215 -6.58081055 11.73120117 C-4.33430918 7.84987133 -2.15504469 3.93270829 0 0 Z " fill="#057EF6" transform="translate(116,48)"/>
<path d="M0 0 C0.66 0 1.32 0 2 0 C3.67888863 2.57570504 5.23207839 5.14367913 6.75 7.8125 C7.20101074 8.59278564 7.65202148 9.37307129 8.11669922 10.17700195 C10.98782225 15.16409627 13.78141636 20.19010443 16.5078125 25.2578125 C21.94944958 35.25788901 27.73393857 45.07254245 33.703125 54.765625 C34.25484375 55.66796875 34.8065625 56.5703125 35.375 57.5 C35.87773437 58.3146875 36.38046875 59.129375 36.8984375 59.96875 C38 62 38 62 38 64 C37.34 64 36.68 64 36 64 C36 63.34 36 62.68 36 62 C30.94990405 61.06213918 30.94990405 61.06213918 26 62 C26 63.32 26 64.64 26 66 C25.34 66 24.68 66 24 66 C24 64.68 24 63.36 24 62 C23.34 62 22.68 62 22 62 C22 62.66 22 63.32 22 64 C21.34 64 20.68 64 20 64 C21.37065219 69.2084783 23.90524646 73.32407336 26.7578125 77.828125 C28 80 28 80 28 82 C28.66 82 29.32 82 30 82 C30 82.66 30 83.32 30 84 C30.66 84 31.32 84 32 84 C32 84.66 32 85.32 32 86 C28.95347629 86.89558984 26.30868572 87.09678466 23.13964844 87.02172852 C22.17895447 87.00163223 21.2182605 86.98153595 20.22845459 86.96083069 C19.19915833 86.93379562 18.16986206 86.90676056 17.109375 86.87890625 C16.04962463 86.85529526 14.98987427 86.83168427 13.89801025 86.80735779 C10.51520051 86.73082144 7.13262548 86.64675359 3.75 86.5625 C1.45574063 86.5092693 -0.83853018 86.45652897 -3.1328125 86.40429688 C-8.75535337 86.27521984 -14.37772008 86.1399597 -20 86 C-20 86.66 -20 87.32 -20 88 C-20.66 88 -21.32 88 -22 88 C-22 87.34 -22 86.68 -22 86 C-23.485 86.99 -23.485 86.99 -25 88 C-25.99 88 -26.98 88 -28 88 C-28 86.68 -28 85.36 -28 84 C-29.98 84 -31.96 84 -34 84 C-34 83.34 -34 82.68 -34 82 C-34.66 82 -35.32 82 -36 82 C-36.33 82.99 -36.66 83.98 -37 85 C-37.99 84.67 -38.98 84.34 -40 84 C-40 83.34 -40 82.68 -40 82 C-40.66 82 -41.32 82 -42 82 C-42 83.32 -42 84.64 -42 86 C-41.34 86 -40.68 86 -40 86 C-40 86.66 -40 87.32 -40 88 C-41.98 88 -43.96 88 -46 88 C-46.60204532 82.68193302 -46.06927053 79.61434686 -43.40625 74.9453125 C-42.8601709 73.98036865 -42.3140918 73.0154248 -41.75146484 72.02124023 C-41.17348145 71.02423096 -40.59549805 70.02722168 -40 69 C-39.16976318 67.55765991 -39.16976318 67.55765991 -38.32275391 66.08618164 C-36.60119422 63.1133699 -34.86507724 60.14950666 -33.125 57.1875 C-31.88496156 55.06927678 -30.64537538 52.95078872 -29.40625 50.83203125 C-28.81714844 49.82479004 -28.22804688 48.81754883 -27.62109375 47.77978516 C-24.37292207 42.20995342 -21.18391913 36.60676987 -18 31 C-15.71588925 26.97940341 -13.42605965 22.9622969 -11.12109375 18.95361328 C-10.31397351 17.54712893 -9.50961931 16.13905596 -8.70703125 14.72998047 C-7.35372776 12.35733699 -5.99031835 9.99074588 -4.625 7.625 C-4.19590332 6.86856201 -3.76680664 6.11212402 -3.32470703 5.33276367 C-2.27273379 3.52131195 -1.14326067 1.75526638 0 0 Z " fill="#03030A" transform="translate(116,88)"/>
<path d="M0 0 C0.33 0 0.66 0 1 0 C1 25.08 1 50.16 1 76 C-23.75 76 -48.5 76 -74 76 C-71.28061764 74.18707843 -68.5407493 72.7603801 -65.60620117 71.33618164 C-34.84695947 56.38619897 -11.57764123 32.38121532 0 0 Z " fill="#F0F0F0" transform="translate(235,160)"/>
<path d="M0 0 C24.09 0 48.18 0 73 0 C73 24.75 73 49.5 73 75 C70.74798849 71.62198273 69.02858709 68.07515703 67.25 64.4375 C52.5535015 34.88629894 30.67653594 13.59929155 0 1 C0 0.67 0 0.34 0 0 Z " fill="#F0F0F0" transform="translate(163,0)"/>
<path d="M0 0 C2.69200413 2.69200413 3.95079215 5.91599387 5.5625 9.3125 C11.38898468 21.23366198 18.82281464 31.39477427 28 41 C28.5259375 41.58910156 29.051875 42.17820313 29.59375 42.78515625 C41.05097058 55.14843254 56.62880787 63.56919513 72 70 C72 70.33 72 70.66 72 71 C48.24 71 24.48 71 0 71 C0 47.57 0 24.14 0 0 Z " fill="#F0F0F0" transform="translate(0,165)"/>
<path d="M0 0 C23.43 0 46.86 0 71 0 C68.32489708 1.78340194 65.65745544 3.14079388 62.75878906 4.51098633 C48.72550981 11.21169522 37.04751819 20.11423171 26 31 C24.94232422 32.03833984 24.94232422 32.03833984 23.86328125 33.09765625 C13.9185763 43.5668284 6.47261617 56.7225557 1 70 C0.67 70 0.34 70 0 70 C0 46.9 0 23.8 0 0 Z " fill="#F1F1F1" transform="translate(0,0)"/>
<path d="M0 0 C0.66 0 1.32 0 2 0 C2.81238982 1.42168219 3.62475423 2.84337891 4.43701172 4.26513672 C5.15697039 5.52481635 5.87736101 6.78424919 6.59814453 8.04345703 C8.39566497 11.1850343 10.18576056 14.33007654 11.9609375 17.484375 C14.78777078 22.49190824 17.62676976 27.45385386 20.7265625 32.296875 C21.18691895 33.01762207 21.64727539 33.73836914 22.12158203 34.48095703 C23.02307025 35.88316559 23.93260609 37.2802411 24.85107422 38.67138672 C27.09048312 42.1497299 28 43.75578168 28 48 C10.18 48 -7.64 48 -26 48 C-25 43 -25 43 -24 40 C-23.34 40 -22.68 40 -22 40 C-21.91621094 39.48824219 -21.83242187 38.97648437 -21.74609375 38.44921875 C-20.68444302 34.96411398 -18.87049413 31.95253962 -17.0625 28.8125 C-16.66861084 28.12067627 -16.27472168 27.42885254 -15.86889648 26.71606445 C-4.22487372 6.33731059 -4.22487372 6.33731059 0 0 Z " fill="#037EF9" transform="translate(116,124)"/>
<path d="M0 0 C0.66 0 1.32 0 2 0 C2 1.32 2 2.64 2 4 C3.32 4 4.64 4 6 4 C6 4.66 6 5.32 6 6 C6.66 6 7.32 6 8 6 C8 6.66 8 7.32 8 8 C8.66 8 9.32 8 10 8 C10 7.34 10 6.68 10 6 C10.66 6 11.32 6 12 6 C12.33 5.34 12.66 4.68 13 4 C14 5 14 5 14 12 C31.82 12 49.64 12 68 12 C68 11.34 68 10.68 68 10 C68.66 10 69.32 10 70 10 C70 10.66 70 11.32 70 12 C70.66 12 71.32 12 72 12 C72 12.66 72 13.32 72 14 C68.95347629 14.89558984 66.30868572 15.09678466 63.13964844 15.02172852 C62.17895447 15.00163223 61.2182605 14.98153595 60.22845459 14.96083069 C58.68451019 14.92027809 58.68451019 14.92027809 57.109375 14.87890625 C56.04962463 14.85529526 54.98987427 14.83168427 53.89801025 14.80735779 C50.51520051 14.73082144 47.13262548 14.64675359 43.75 14.5625 C41.45574063 14.5092693 39.16146982 14.45652897 36.8671875 14.40429688 C31.24464663 14.27521984 25.62227992 14.1399597 20 14 C20 14.66 20 15.32 20 16 C19.34 16 18.68 16 18 16 C18 15.34 18 14.68 18 14 C17.01 14.66 16.02 15.32 15 16 C14.01 16 13.02 16 12 16 C12 14.68 12 13.36 12 12 C10.02 12 8.04 12 6 12 C6 11.34 6 10.68 6 10 C5.34 10 4.68 10 4 10 C3.67 10.99 3.34 11.98 3 13 C2.01 12.67 1.02 12.34 0 12 C0 11.34 0 10.68 0 10 C-0.66 10 -1.32 10 -2 10 C-2 11.32 -2 12.64 -2 14 C-1.34 14 -0.68 14 0 14 C0 14.66 0 15.32 0 16 C-1.98 16 -3.96 16 -6 16 C-6.125 8.25 -6.125 8.25 -5 6 C-4.01 6 -3.02 6 -2 6 C-2 5.34 -2 4.68 -2 4 C-1.34 4 -0.68 4 0 4 C0 2.68 0 1.36 0 0 Z " fill="#050204" transform="translate(76,160)"/>
<path d="M0 0 C2.95709793 2.74226603 4.90212154 5.29881169 6.75 8.875 C9.47179619 14.04085808 12.33301541 19.10309288 15.28417969 24.14013672 C17.1412113 27.34882865 18.72220908 30.51867169 20 34 C19.34 34 18.68 34 18 34 C18 33.34 18 32.68 18 32 C12.94990405 31.06213918 12.94990405 31.06213918 8 32 C8 33.32 8 34.64 8 36 C7.34 36 6.68 36 6 36 C6 34.68 6 33.36 6 32 C5.34 32 4.68 32 4 32 C4 32.66 4 33.32 4 34 C3.34 34 2.68 34 2 34 C1.67 34.99 1.34 35.98 1 37 C-2 32.25 -2 32.25 -2 30 C-1.34 30 -0.68 30 0 30 C0 30.66 0 31.32 0 32 C0.66 32 1.32 32 2 32 C2 31.34 2 30.68 2 30 C2.66 30 3.32 30 4 30 C4 29.34 4 28.68 4 28 C4.66 28 5.32 28 6 28 C6 25.36 6 22.72 6 20 C5.34 20 4.68 20 4 20 C2.68373308 16.38026598 2 13.90432869 2 10 C2.66 10 3.32 10 4 10 C3.34 9.01 2.68 8.02 2 7 C2 6.01 2 5.02 2 4 C1.34 4 0.68 4 0 4 C0 2.68 0 1.36 0 0 Z " fill="#030613" transform="translate(134,118)"/>
<path d="M0 0 C0.66 0 1.32 0 2 0 C4 3 4 3 4 6 C4.66 6 5.32 6 6 6 C6.67154933 7.28913487 7.33708859 8.58140204 8 9.875 C8.37125 10.59429687 8.7425 11.31359375 9.125 12.0546875 C10 14 10 14 10 16 C10.66 16 11.32 16 12 16 C12.67154933 17.28913487 13.33708859 18.58140204 14 19.875 C14.37125 20.59429687 14.7425 21.31359375 15.125 22.0546875 C16 24 16 24 16 26 C15.34 26 14.68 26 14 26 C14 27.65 14 29.3 14 31 C13.34 30.67 12.68 30.34 12 30 C12 27.36 12 24.72 12 22 C11.01 21.67 10.02 21.34 9 21 C7.3125 19.5625 7.3125 19.5625 6 18 C6 17.34 6 16.68 6 16 C5.34 16 4.68 16 4 16 C4 14.02 4 12.04 4 10 C2.02 9.34 0.04 8.68 -2 8 C-2 8.66 -2 9.32 -2 10 C-2.66 10 -3.32 10 -4 10 C-4 10.66 -4 11.32 -4 12 C-4.66 12 -5.32 12 -6 12 C-4.68448876 7.39571066 -2.90803514 3.81679612 0 0 Z " fill="#0D79EA" transform="translate(116,48)"/>
<path d="M0 0 C0.66 0 1.32 0 2 0 C2 1.32 2 2.64 2 4 C19.82 4 37.64 4 56 4 C56 3.34 56 2.68 56 2 C56.66 2 57.32 2 58 2 C58 2.66 58 3.32 58 4 C58.66 4 59.32 4 60 4 C60 4.66 60 5.32 60 6 C56.95347629 6.89558984 54.30868572 7.09678466 51.13964844 7.02172852 C50.17895447 7.00163223 49.2182605 6.98153595 48.22845459 6.96083069 C47.19915833 6.93379562 46.16986206 6.90676056 45.109375 6.87890625 C44.04962463 6.85529526 42.98987427 6.83168427 41.89801025 6.80735779 C38.51520051 6.73082144 35.13262548 6.64675359 31.75 6.5625 C29.45574063 6.5092693 27.16146982 6.45652897 24.8671875 6.40429688 C19.24464663 6.27521984 13.62227992 6.1399597 8 6 C8 6.66 8 7.32 8 8 C7.34 8 6.68 8 6 8 C6 7.34 6 6.68 6 6 C5.01 6.66 4.02 7.32 3 8 C2.01 8 1.02 8 0 8 C0 5.36 0 2.72 0 0 Z " fill="#0A152E" transform="translate(88,168)"/>
<path d="M0 0 C0.33 1.32 0.66 2.64 1 4 C0.34 4 -0.32 4 -1 4 C-0.67 4.99 -0.34 5.98 0 7 C-0.27769908 9.3406065 -0.60539977 11.67624308 -1 14 C-0.34 14 0.32 14 1 14 C1 13.34 1 12.68 1 12 C1.66 12 2.32 12 3 12 C3 13.32 3 14.64 3 16 C2.34 16 1.68 16 1 16 C0.67 17.65 0.34 19.3 0 21 C-0.33 20.01 -0.66 19.02 -1 18 C-1.66 18 -2.32 18 -3 18 C-3 17.34 -3 16.68 -3 16 C-3.66 16 -4.32 16 -5 16 C-5 17.32 -5 18.64 -5 20 C-5.66 20 -6.32 20 -7 20 C-7 21.32 -7 22.64 -7 24 C-7.66 24 -8.32 24 -9 24 C-9 23.34 -9 22.68 -9 22 C-9.66 22 -10.32 22 -11 22 C-11 22.66 -11 23.32 -11 24 C-11.66 24 -12.32 24 -13 24 C-11.42567855 18.01757848 -8.25276405 13.18533535 -5 8 C-4.50371094 7.20078125 -4.00742188 6.4015625 -3.49609375 5.578125 C-2.33663432 3.71506198 -1.16920042 1.85696537 0 0 Z " fill="#060611" transform="translate(107,104)"/>
<path d="M0 0 C0.33 1.32 0.66 2.64 1 4 C0.34 4 -0.32 4 -1 4 C-1 7.96 -1 11.92 -1 16 C-1.66 16 -2.32 16 -3 16 C-3 14.68 -3 13.36 -3 12 C-3.66 12 -4.32 12 -5 12 C-5 13.65 -5 15.3 -5 17 C-4.34 17 -3.68 17 -3 17 C-3 17.99 -3 18.98 -3 20 C-3.66 20 -4.32 20 -5 20 C-5 21.32 -5 22.64 -5 24 C-6.32 24 -7.64 24 -9 24 C-9 22.68 -9 21.36 -9 20 C-9.66 20 -10.32 20 -11 20 C-9.4095488 15.6366679 -7.25824078 11.75213615 -4.9375 7.75 C-4.57333984 7.11320312 -4.20917969 6.47640625 -3.83398438 5.8203125 C-1.14074248 1.14074248 -1.14074248 1.14074248 0 0 Z " fill="#0B7AE9" transform="translate(91,92)"/>
<path d="M0 0 C2.1875 -0.5 2.1875 -0.5 5 0 C7.0261645 2.46938799 8.47568325 5.20274505 10 8 C10.99 9.485 10.99 9.485 12 11 C12 11.99 12 12.98 12 14 C10.02 14 8.04 14 6 14 C6 13.34 6 12.68 6 12 C5.34 12 4.68 12 4 12 C4 10.68 4 9.36 4 8 C3.34 8 2.68 8 2 8 C2 7.34 2 6.68 2 6 C1.34 6 0.68 6 0 6 C0 4.02 0 2.04 0 0 Z " fill="#077DEB" transform="translate(176,158)"/>
<path d="M0 0 C3.12971397 2.87906588 5.13739079 5.68601769 7.125 9.4375 C7.62257812 10.36433594 8.12015625 11.29117188 8.6328125 12.24609375 C9.89714723 14.79282513 10.98789074 17.34441809 12 20 C11.34 20 10.68 20 10 20 C10 19.34 10 18.68 10 18 C9.34 18 8.68 18 8 18 C8 18.66 8 19.32 8 20 C6.68 20 5.36 20 4 20 C2.68373308 16.38026598 2 13.90432869 2 10 C2.66 10 3.32 10 4 10 C3.34 9.01 2.68 8.02 2 7 C2 6.01 2 5.02 2 4 C1.34 4 0.68 4 0 4 C0 2.68 0 1.36 0 0 Z " fill="#080917" transform="translate(134,118)"/>
<path d="M0 0 C0.66 0 1.32 0 2 0 C6 5.41176471 6 5.41176471 6 8 C5.34 8 4.68 8 4 8 C4 7.34 4 6.68 4 6 C3.34 6 2.68 6 2 6 C2 5.34 2 4.68 2 4 C1.34 4 0.68 4 0 4 C0 5.32 0 6.64 0 8 C0.66 8 1.32 8 2 8 C2 9.32 2 10.64 2 12 C1.34 12 0.68 12 0 12 C0 13.32 0 14.64 0 16 C-0.66 16 -1.32 16 -2 16 C-2 14.02 -2 12.04 -2 10 C-2.66 10 -3.32 10 -4 10 C-4 10.66 -4 11.32 -4 12 C-4.66 12 -5.32 12 -6 12 C-4.68448876 7.39571066 -2.90803514 3.81679612 0 0 Z " fill="#0D7AEA" transform="translate(116,124)"/>
<path d="M0 0 C0.66 0 1.32 0 2 0 C4 3 4 3 4 6 C4.66 6 5.32 6 6 6 C6.66 7.65 7.32 9.3 8 11 C7.01 11 6.02 11 5 11 C4.67 11.66 4.34 12.32 4 13 C4 12.01 4 11.02 4 10 C2.02 9.34 0.04 8.68 -2 8 C-2 8.66 -2 9.32 -2 10 C-2.66 10 -3.32 10 -4 10 C-4 10.66 -4 11.32 -4 12 C-4.66 12 -5.32 12 -6 12 C-4.68448876 7.39571066 -2.90803514 3.81679612 0 0 Z " fill="#1171D8" transform="translate(116,48)"/>
<path d="M0 0 C1.32 0 2.64 0 4 0 C4 0.66 4 1.32 4 2 C4.66 2 5.32 2 6 2 C4.68572639 6.59995763 3.02413514 10.26430365 0 14 C-1.32 14 -2.64 14 -4 14 C-4 13.34 -4 12.68 -4 12 C-2.68 12 -1.36 12 0 12 C0 10.68 0 9.36 0 8 C-0.66 8 -1.32 8 -2 8 C-2.20086443 4.28400809 -2.1519437 3.22791555 0 0 Z " fill="#0D77E9" transform="translate(68,158)"/>
<path d="M0 0 C1.32 0 2.64 0 4 0 C4 2.64 4 5.28 4 8 C3.34 8 2.68 8 2 8 C1.67 8.99 1.34 9.98 1 11 C-6.59 11 -14.18 11 -22 11 C-22 10.67 -22 10.34 -22 10 C-14.74 10 -7.48 10 0 10 C-0.66 8.02 -1.32 6.04 -2 4 C-1.34 4 -0.68 4 0 4 C0 2.68 0 1.36 0 0 Z " fill="#0A1329" transform="translate(188,162)"/>
<path d="M0 0 C1.32 0 2.64 0 4 0 C2.89131683 2.21736634 1.50559539 4.03617993 0 6 C1.32 6 2.64 6 4 6 C2.6302836 9.99500618 0.74277578 12.80009492 -2 16 C-2.2165625 14.63875 -2.2165625 14.63875 -2.4375 13.25 C-2.86409473 10.78523044 -3.35074221 8.41152893 -4 6 C-3.34 6 -2.68 6 -2 6 C-2 4.68 -2 3.36 -2 2 C-1.34 2 -0.68 2 0 2 C0 1.34 0 0.68 0 0 Z " fill="#0C7AEB" transform="translate(104,96)"/>
<path d="M0 0 C0.33 1.32 0.66 2.64 1 4 C0.34 4 -0.32 4 -1 4 C-0.7215625 5.1446875 -0.7215625 5.1446875 -0.4375 6.3125 C0 9 0 9 -1 12 C-2.32 12 -3.64 12 -5 12 C-5 13.98 -5 15.96 -5 18 C-6.32 18 -7.64 18 -9 18 C-8.09476787 13.7997229 -6.09717906 10.42033539 -3.9375 6.75 C-3.56044922 6.1003125 -3.18339844 5.450625 -2.79492188 4.78125 C-1.86765885 3.18494909 -0.93441544 1.59212471 0 0 Z " fill="#1272DD" transform="translate(55,154)"/>
<path d="M0 0 C0.66 0.66 1.32 1.32 2 2 C1.01 2.33 0.02 2.66 -1 3 C-1.3721042 4.32303717 -1.70630173 5.65737935 -2 7 C-4.76452033 8.38226016 -7.0461363 8.09525387 -10.125 8.0625 C-11.22070312 8.05347656 -12.31640625 8.04445312 -13.4453125 8.03515625 C-14.70988281 8.01775391 -14.70988281 8.01775391 -16 8 C-12.8657518 5.9105012 -9.73890554 4.43554114 -6.3125 2.875 C-5.13300781 2.33617187 -3.95351562 1.79734375 -2.73828125 1.2421875 C-1.83464844 0.83226562 -0.93101562 0.42234375 0 0 Z " fill="#E8E8E8" transform="translate(177,228)"/>
<path d="M0 0 C0.94314127 3.41610225 1.08065117 6.45134864 1 10 C0.34 10 -0.32 10 -1 10 C-1 11.32 -1 12.64 -1 14 C-1.66 14 -2.32 14 -3 14 C-3 13.34 -3 12.68 -3 12 C-3.66 12 -4.32 12 -5 12 C-5 12.66 -5 13.32 -5 14 C-5.66 14 -6.32 14 -7 14 C-5.53967505 8.68972746 -3.01679014 4.53669968 0 0 Z " fill="#030D23" transform="translate(101,114)"/>
<path d="M0 0 C1.95803507 -0.05389087 3.91648909 -0.09274217 5.875 -0.125 C7.51082031 -0.15980469 7.51082031 -0.15980469 9.1796875 -0.1953125 C12 0 12 0 14 2 C14 2.99 14 3.98 14 5 C14.66 5 15.32 5 16 5 C16 5.66 16 6.32 16 7 C12.05050296 6.37183502 8.80107972 5.1354471 5.1875 3.4375 C3.72376953 2.75494141 3.72376953 2.75494141 2.23046875 2.05859375 C1.49441406 1.70925781 0.75835937 1.35992187 0 1 C0 0.67 0 0.34 0 0 Z " fill="#E7E7E7" transform="translate(163,0)"/>
<path d="M0 0 C2.95987945 2.95987945 4.40595059 5.17428142 6 9 C5.67 9.99 5.34 10.98 5 12 C3.35 12.33 1.7 12.66 0 13 C0 8.71 0 4.42 0 0 Z " fill="#077BF2" transform="translate(128,143)"/>
<path d="M0 0 C0.66 0 1.32 0 2 0 C2 1.32 2 2.64 2 4 C2.66 4 3.32 4 4 4 C4 2.68 4 1.36 4 0 C4.99 0 5.98 0 7 0 C5.43358249 4.30764815 3.31663844 8.06171464 1 12 C0.67 12 0.34 12 0 12 C0 10.02 0 8.04 0 6 C-0.66 6 -1.32 6 -2 6 C-2 4.68 -2 3.36 -2 2 C-1.34 2 -0.68 2 0 2 C0 1.34 0 0.68 0 0 Z " fill="#040513" transform="translate(72,112)"/>
<path d="M0 0 C4 4.625 4 4.625 4 8 C4.66 8 5.32 8 6 8 C6.66 9.98 7.32 11.96 8 14 C7.34 14 6.68 14 6 14 C6 13.34 6 12.68 6 12 C4.68 12 3.36 12 2 12 C1.67 10.68 1.34 9.36 1 8 C0.34 8.66 -0.32 9.32 -1 10 C-1.33 8.68 -1.66 7.36 -2 6 C-1.34 6 -0.68 6 0 6 C0 4.02 0 2.04 0 0 Z " fill="#040C20" transform="translate(154,152)"/>
<path d="M0 0 C0 1.32 0 2.64 0 4 C-0.66 4 -1.32 4 -2 4 C-2 6.64 -2 9.28 -2 12 C-2.66 12 -3.32 12 -4 12 C-4.67154933 10.71086513 -5.33708859 9.41859796 -6 8.125 C-6.37125 7.40570313 -6.7425 6.68640625 -7.125 5.9453125 C-8 4 -8 4 -8 2 C-2.25 0 -2.25 0 0 0 Z " fill="#0B78E7" transform="translate(162,148)"/>
<path d="M0 0 C1.32 0 2.64 0 4 0 C3.67 1.98 3.34 3.96 3 6 C3.66 5.67 4.32 5.34 5 5 C4.67 7.64 4.34 10.28 4 13 C0.90407165 9.4912812 -0.74194623 6.50802601 -2 2 C-1.34 2 -0.68 2 0 2 C0 1.34 0 0.68 0 0 Z " fill="#03030C" transform="translate(170,132)"/>
<path d="M0 0 C0.33 0 0.66 0 1 0 C1 3.63 1 7.26 1 11 C-0.65 11.33 -2.3 11.66 -4 12 C-4.33 12.66 -4.66 13.32 -5 14 C-5.66 14 -6.32 14 -7 14 C-5.23570801 9.02790438 -2.6060834 4.56561939 0 0 Z " fill="#1474DC" transform="translate(109,60)"/>
<path d="M0 0 C0.33 1.32 0.66 2.64 1 4 C1.66 4 2.32 4 3 4 C3 4.66 3 5.32 3 6 C2.34 6 1.68 6 1 6 C1 6.66 1 7.32 1 8 C0.34 8 -0.32 8 -1 8 C-1 8.66 -1 9.32 -1 10 C-1.66 10 -2.32 10 -3 10 C-3.33 11.32 -3.66 12.64 -4 14 C-4.99 14 -5.98 14 -7 14 C-5.23570801 9.02790438 -2.6060834 4.56561939 0 0 Z " fill="#1A73D3" transform="translate(101,74)"/>
<path d="M0 0 C0.66 0.33 1.32 0.66 2 1 C2.625 3.5625 2.625 3.5625 3 6 C3.66 6 4.32 6 5 6 C5.33 7.32 5.66 8.64 6 10 C5.34 10 4.68 10 4 10 C4 9.34 4 8.68 4 8 C3.34 8 2.68 8 2 8 C2 9.32 2 10.64 2 12 C1.34 12 0.68 12 0 12 C0 11.34 0 10.68 0 10 C-0.66 10 -1.32 10 -2 10 C-2 8.68 -2 7.36 -2 6 C-1.34 6 -0.68 6 0 6 C0 4.02 0 2.04 0 0 Z " fill="#0D77E1" transform="translate(156,116)"/>
<path d="M0 0 C1.32 0 2.64 0 4 0 C2.53967505 5.31027254 0.01679014 9.46330032 -3 14 C-3.33 12.68 -3.66 11.36 -4 10 C-3.34 10 -2.68 10 -2 10 C-2.04125 8.72125 -2.0825 7.4425 -2.125 6.125 C-2.1953125 3.9453125 -2.1953125 3.9453125 -2 2 C-1.34 1.34 -0.68 0.68 0 0 Z " fill="#040B1C" transform="translate(84,96)"/>
<path d="M0 0 C0.66 0 1.32 0 2 0 C0.23570801 4.97209562 -2.3939166 9.43438061 -5 14 C-5.33 14 -5.66 14 -6 14 C-6 12.02 -6 10.04 -6 8 C-6.66 8 -7.32 8 -8 8 C-8 7.34 -8 6.68 -8 6 C-6.02 5.67 -4.04 5.34 -2 5 C-1.855625 4.360625 -1.71125 3.72125 -1.5625 3.0625 C-1 1 -1 1 0 0 Z " fill="#040717" transform="translate(106,62)"/>
<path d="M0 0 C2.97 0.33 5.94 0.66 9 1 C9 2.98 9 4.96 9 7 C7.02 7.99 7.02 7.99 5 9 C3.35 6.03 1.7 3.06 0 0 Z " fill="#E7E7E7" transform="translate(222,48)"/>
<path d="M0 0 C1.32 0 2.64 0 4 0 C3.34 2.64 2.68 5.28 2 8 C2.99 7.67 3.98 7.34 5 7 C5 10 5 10 3 13 C1.35 9.7 -0.3 6.4 -2 3 C-1.34 2.01 -0.68 1.02 0 0 Z " fill="#0D7AE9" transform="translate(162,158)"/>
<path d="M0 0 C0.33 1.32 0.66 2.64 1 4 C0.34 4 -0.32 4 -1 4 C-1 5.32 -1 6.64 -1 8 C-0.34 8 0.32 8 1 8 C1 8.66 1 9.32 1 10 C0.34 10 -0.32 10 -1 10 C-1 10.66 -1 11.32 -1 12 C-2.65 12 -4.3 12 -6 12 C-4.43358249 7.69235185 -2.31663844 3.93828536 0 0 Z " fill="#1572D9" transform="translate(109,136)"/>
<path d="M0 0 C6 7.4 6 7.4 6 12 C4.68 12 3.36 12 2 12 C1.87625 11.195625 1.7525 10.39125 1.625 9.5625 C1.315625 8.2940625 1.315625 8.2940625 1 7 C0.34 6.67 -0.32 6.34 -1 6 C-0.67 4.02 -0.34 2.04 0 0 Z " fill="#1175DA" transform="translate(138,160)"/>
<path d="M0 0 C0.33 0.99 0.66 1.98 1 3 C2.32 3 3.64 3 5 3 C5 4.32 5 5.64 5 7 C4.34 7 3.68 7 3 7 C3 7.66 3 8.32 3 9 C2.34 9 1.68 9 1 9 C1 7.68 1 6.36 1 5 C0.34 5 -0.32 5 -1 5 C-1 5.66 -1 6.32 -1 7 C-1.66 7 -2.32 7 -3 7 C-1.125 1.125 -1.125 1.125 0 0 Z " fill="#010818" transform="translate(89,135)"/>
<path d="M0 0 C1.98 0 3.96 0 6 0 C4.66654496 3.59007126 3.1056769 6.79570907 1 10 C0.67 10 0.34 10 0 10 C0 6.7 0 3.4 0 0 Z " fill="#02091B" transform="translate(110,48)"/>
<path d="M0 0 C0.66 0 1.32 0 2 0 C2.67154933 1.28913487 3.33708859 2.58140204 4 3.875 C4.37125 4.59429687 4.7425 5.31359375 5.125 6.0546875 C6 8 6 8 6 10 C5.34 10 4.68 10 4 10 C4 11.65 4 13.3 4 15 C3.34 14.67 2.68 14.34 2 14 C2 10.7 2 7.4 2 4 C1.34 4 0.68 4 0 4 C0 2.68 0 1.36 0 0 Z " fill="#0F73DC" transform="translate(126,64)"/>
<path d="M0 0 C0.66 0 1.32 0 2 0 C2 1.32 2 2.64 2 4 C2.66 4 3.32 4 4 4 C2.79157144 8.43090471 1.48331435 10.98112756 -2 14 C-2 12.68 -2 11.36 -2 10 C-1.34 10 -0.68 10 0 10 C0 6.7 0 3.4 0 0 Z " fill="#1276E0" transform="translate(76,146)"/>
<path d="M0 0 C0.33 1.32 0.66 2.64 1 4 C-1.88087546 6.40072955 -4.56404834 8.47291037 -8 10 C-8 9.01 -8 8.02 -8 7 C-6.68 6.67 -5.36 6.34 -4 6 C-4 4.68 -4 3.36 -4 2 C-2.68 1.34 -1.36 0.68 0 0 Z " fill="#E9E9E9" transform="translate(53,4)"/>
<path d="M0 0 C0.66 0 1.32 0 2 0 C2 0.66 2 1.32 2 2 C2.66 2 3.32 2 4 2 C4 3.32 4 4.64 4 6 C3.34 6 2.68 6 2 6 C2 7.98 2 9.96 2 12 C0.4375 10.5 0.4375 10.5 -1 8 C-0.96823234 5.22562457 -0.50364148 2.74713533 0 0 Z " fill="#01081B" transform="translate(178,144)"/>
<path d="M0 0 C0.66 0 1.32 0 2 0 C6 5.41176471 6 5.41176471 6 8 C5.34 8 4.68 8 4 8 C4 7.34 4 6.68 4 6 C3.34 6 2.68 6 2 6 C2 5.34 2 4.68 2 4 C1.34 4 0.68 4 0 4 C-0.66 5.32 -1.32 6.64 -2 8 C-2.66 8 -3.32 8 -4 8 C-2.87548273 5.0280615 -1.77706209 2.66559313 0 0 Z " fill="#176ECE" transform="translate(116,124)"/>
<path d="M0 0 C0.66 0 1.32 0 2 0 C2 1.32 2 2.64 2 4 C1.34 4 0.68 4 0 4 C0 4.66 0 5.32 0 6 C-0.66 6 -1.32 6 -2 6 C-2.33 6.99 -2.66 7.98 -3 9 C-6 4.25 -6 4.25 -6 2 C-5.34 2 -4.68 2 -4 2 C-4 2.66 -4 3.32 -4 4 C-3.34 4 -2.68 4 -2 4 C-2 3.34 -2 2.68 -2 2 C-1.34 2 -0.68 2 0 2 C0 1.34 0 0.68 0 0 Z " fill="#030D26" transform="translate(138,146)"/>
<path d="M0 0 C0.66 0 1.32 0 2 0 C0.66511872 3.59391114 -0.96022723 6.75490696 -3 10 C-3.33 8.68 -3.66 7.36 -4 6 C-4.66 6 -5.32 6 -6 6 C-6 5.34 -6 4.68 -6 4 C-5.34 4 -4.68 4 -4 4 C-4 3.34 -4 2.68 -4 2 C-2.68 2 -1.36 2 0 2 C0 1.34 0 0.68 0 0 Z " fill="#050F28" transform="translate(60,142)"/>
<path d="M0 0 C0.33 1.32 0.66 2.64 1 4 C-1.54982433 5.27491216 -3.16465424 5.02596616 -6.0078125 4.87890625 C-6.99394531 4.83056641 -7.98007812 4.78222656 -8.99609375 4.73242188 C-10.54490234 4.64831055 -10.54490234 4.64831055 -12.125 4.5625 C-13.16527344 4.51029297 -14.20554687 4.45808594 -15.27734375 4.40429688 C-17.85185116 4.27439054 -20.42599296 4.13941748 -23 4 C-23 3.67 -23 3.34 -23 3 C-15.74 3 -8.48 3 -1 3 C-0.67 2.01 -0.34 1.02 0 0 Z " fill="#00082A" transform="translate(69,170)"/>
<path d="M0 0 C2.97 0 5.94 0 9 0 C6.02980547 1.98012969 3.30702837 3.6501925 0 5 C-2.375 4.1875 -2.375 4.1875 -4 3 C-2.68 2.67 -1.36 2.34 0 2 C0 1.34 0 0.68 0 0 Z " fill="#E2E2E2" transform="translate(62,0)"/>
<path d="M0 0 C0.66 0 1.32 0 2 0 C2.66 0.66 3.32 1.32 4 2 C5.32 2 6.64 2 8 2 C7.34 4.64 6.68 7.28 6 10 C3 6.25 3 6.25 3 4 C2.34 4 1.68 4 1 4 C0.67 2.68 0.34 1.36 0 0 Z " fill="#051129" transform="translate(158,118)"/>
<path d="M0 0 C1.37562854 1.28965176 2.70766393 2.62689293 4 4 C4 4.66 4 5.32 4 6 C2.68 6 1.36 6 0 6 C0 6.66 0 7.32 0 8 C-0.66 8 -1.32 8 -2 8 C-2.33 6.35 -2.66 4.7 -3 3 C-2.01 3 -1.02 3 0 3 C0 2.01 0 1.02 0 0 Z " fill="#0D7AE2" transform="translate(134,154)"/>
<path d="M0 0 C0.66 0 1.32 0 2 0 C2 1.32 2 2.64 2 4 C2.66 4 3.32 4 4 4 C4 5.32 4 6.64 4 8 C3.34 8 2.68 8 2 8 C2 7.34 2 6.68 2 6 C0.68 6 -0.64 6 -2 6 C-2 4.68 -2 3.36 -2 2 C-1.34 2 -0.68 2 0 2 C0 1.34 0 0.68 0 0 Z " fill="#0D0106" transform="translate(138,150)"/>
<path d="M0 0 C1.98 0 3.96 0 6 0 C6 0.66 6 1.32 6 2 C5.34 2 4.68 2 4 2 C4 3.32 4 4.64 4 6 C4.66 6 5.32 6 6 6 C5.67 7.32 5.34 8.64 5 10 C4.16121545 8.71186658 3.32913217 7.41936744 2.5 6.125 C2.0359375 5.40570313 1.571875 4.68640625 1.09375 3.9453125 C0 2 0 2 0 0 Z " fill="#1075D7" transform="translate(132,112)"/>
<path d="M0 0 C0.33 1.32 0.66 2.64 1 4 C0.34 4 -0.32 4 -1 4 C-1 5.98 -1 7.96 -1 10 C-2.32 10 -3.64 10 -5 10 C-4.38545304 6.00544473 -2.29353263 3.25533664 0 0 Z " fill="#146ECB" transform="translate(69,130)"/>
<path d="M0 0 C1.32 0 2.64 0 4 0 C4 2.64 4 5.28 4 8 C3.34 8 2.68 8 2 8 C-0.1519437 4.77208445 -0.20086443 3.71599191 0 0 Z " fill="#0C0101" transform="translate(104,128)"/>
<path d="M0 0 C1.65 0 3.3 0 5 0 C5.33 1.32 5.66 2.64 6 4 C6.66 4 7.32 4 8 4 C7.67 5.32 7.34 6.64 7 8 C4 4.25 4 4.25 4 2 C3.34 2 2.68 2 2 2 C1.67 2.99 1.34 3.98 1 5 C0.67 5 0.34 5 0 5 C0 3.35 0 1.7 0 0 Z " fill="#071336" transform="translate(114,122)"/>
<path d="M0 0 C0.33 0.66 0.66 1.32 1 2 C2.32 2 3.64 2 5 2 C5 2.66 5 3.32 5 4 C4.34 4 3.68 4 3 4 C3 5.98 3 7.96 3 10 C0.9375 7.8125 0.9375 7.8125 -1 5 C-0.75 2.1875 -0.75 2.1875 0 0 Z " fill="#040C22" transform="translate(147,94)"/>
<path d="M0 0 C0.66 0 1.32 0 2 0 C2 0.66 2 1.32 2 2 C2.66 2 3.32 2 4 2 C2.66511872 5.59391114 1.03977277 8.75490696 -1 12 C-1.33 10.68 -1.66 9.36 -2 8 C-1.34 8 -0.68 8 0 8 C0 5.36 0 2.72 0 0 Z " fill="#021236" transform="translate(96,74)"/>
<path d="M0 0 C4 4.625 4 4.625 4 8 C2.02 8 0.04 8 -2 8 C-2 7.34 -2 6.68 -2 6 C-1.34 6 -0.68 6 0 6 C0 4.02 0 2.04 0 0 Z " fill="#1472E1" transform="translate(184,164)"/>
<path d="M0 0 C0.33 1.32 0.66 2.64 1 4 C0.34 4 -0.32 4 -1 4 C-1 5.98 -1 7.96 -1 10 C-2.32 10 -3.64 10 -5 10 C-3.84414715 6.08788267 -2.64465038 3.1254959 0 0 Z " fill="#1174D3" transform="translate(101,150)"/>
<path d="M0 0 C0.66 0 1.32 0 2 0 C0.66511872 3.59391114 -0.96022723 6.75490696 -3 10 C-3.66 9.01 -4.32 8.02 -5 7 C-4.01 6.67 -3.02 6.34 -2 6 C-2 5.34 -2 4.68 -2 4 C-2.66 4 -3.32 4 -4 4 C-4 3.34 -4 2.68 -4 2 C-2.68 2 -1.36 2 0 2 C0 1.34 0 0.68 0 0 Z " fill="#040E28" transform="translate(54,152)"/>
<path d="M0 0 C1.32 0 2.64 0 4 0 C6.42857143 6.28571429 6.42857143 6.28571429 5 10 C4.67 8.68 4.34 7.36 4 6 C3.34 6 2.68 6 2 6 C1.34 4.02 0.68 2.04 0 0 Z " fill="#090C2A" transform="translate(118,48)"/>
<path d="M0 0 C1.11375 0.556875 1.11375 0.556875 2.25 1.125 C0.25 3.125 0.25 3.125 -2.1328125 3.3203125 C-3.03773438 3.29710937 -3.94265625 3.27390625 -4.875 3.25 C-6.24011719 3.22292969 -6.24011719 3.22292969 -7.6328125 3.1953125 C-8.33148438 3.17210937 -9.03015625 3.14890625 -9.75 3.125 C-3.42692308 -1.09038462 -3.42692308 -1.09038462 0 0 Z " fill="#DDDDDD" transform="translate(170.75,232.875)"/>
<path d="M0 0 C4.55384615 -0.36923077 4.55384615 -0.36923077 6.8125 1.5 C7.204375 1.995 7.59625 2.49 8 3 C5.23735711 3.59732819 2.83967231 4 0 4 C0 2.68 0 1.36 0 0 Z " fill="#060408" transform="translate(40,172)"/>
<path d="M0 0 C1.98 0 3.96 0 6 0 C6 1.32 6 2.64 6 4 C4.02 4 2.04 4 0 4 C0 2.68 0 1.36 0 0 Z " fill="#0185F4" transform="translate(50,166)"/>
<path d="M0 0 C0.66 0 1.32 0 2 0 C2 0.66 2 1.32 2 2 C2.66 2 3.32 2 4 2 C4 3.32 4 4.64 4 6 C3.34 6 2.68 6 2 6 C2 6.66 2 7.32 2 8 C1.34 8 0.68 8 0 8 C0 5.36 0 2.72 0 0 Z " fill="#030100" transform="translate(142,136)"/>
<path d="M0 0 C0.33 0 0.66 0 1 0 C1 2.64 1 5.28 1 8 C-0.98 8.33 -2.96 8.66 -5 9 C-3.35 6.03 -1.7 3.06 0 0 Z " fill="#1374DB" transform="translate(63,140)"/>
<path d="M0 0 C0.66 0 1.32 0 2 0 C2 0.66 2 1.32 2 2 C2.66 2 3.32 2 4 2 C3.39816251 4.02045442 2.72693904 6.02111039 2 8 C1.01 8.495 1.01 8.495 0 9 C0 6.03 0 3.06 0 0 Z " fill="#020B21" transform="translate(108,128)"/>
<path d="M0 0 C0.66 0 1.32 0 2 0 C2 0.66 2 1.32 2 2 C2.66 2 3.32 2 4 2 C4.66 2.66 5.32 3.32 6 4 C6.66 4 7.32 4 8 4 C8 4.66 8 5.32 8 6 C7.34 6 6.68 6 6 6 C5.67 7.32 5.34 8.64 5 10 C3.35 6.7 1.7 3.4 0 0 Z " fill="#1875DA" transform="translate(120,92)"/>
<path d="M0 0 C0.99 0.66 1.98 1.32 3 2 C1.68 4.97 0.36 7.94 -1 11 C-1.33 11 -1.66 11 -2 11 C-2.28571429 3.57142857 -2.28571429 3.57142857 0 0 Z " fill="#E6E6E6" transform="translate(2,59)"/>
<path d="M0 0 C2.74277578 3.19990508 4.6302836 6.00499382 6 10 C4.68 9.67 3.36 9.34 2 9 C2 7.35 2 5.7 2 4 C1.34 4 0.68 4 0 4 C0 2.68 0 1.36 0 0 Z " fill="#196FC4" transform="translate(170,140)"/>
<path d="M0 0 C0.33 1.32 0.66 2.64 1 4 C1.66 4 2.32 4 3 4 C2.67 5.32 2.34 6.64 2 8 C1.67 7.34 1.34 6.68 1 6 C-1.02463255 5.34786708 -1.02463255 5.34786708 -3 5 C-2.01 3.35 -1.02 1.7 0 0 Z " fill="#030C25" transform="translate(93,128)"/>
<path d="M0 0 C2 1.8125 2 1.8125 4 4 C4 4.99 4 5.98 4 7 C4.66 7 5.32 7 6 7 C6 7.66 6 8.32 6 9 C4.68 8.67 3.36 8.34 2 8 C2 7.01 2 6.02 2 5 C1.34 5 0.68 5 0 5 C0 3.35 0 1.7 0 0 Z " fill="#176ECC" transform="translate(138,85)"/>
<path d="M0 0 C2.09782787 2.09782787 2.6509396 3.3799207 3.625 6.125 C4.01558594 7.21167969 4.01558594 7.21167969 4.4140625 8.3203125 C4.70410156 9.15175781 4.70410156 9.15175781 5 10 C4.34 10 3.68 10 3 10 C3 9.34 3 8.68 3 8 C2.01 8 1.02 8 0 8 C0 5.36 0 2.72 0 0 Z " fill="#D7D7D7" transform="translate(0,165)"/>
<path d="M0 0 C3.48331435 3.01887244 4.79157144 5.56909529 6 10 C5.34 10 4.68 10 4 10 C2 7 2 7 2 4 C1.34 4 0.68 4 0 4 C0 2.68 0 1.36 0 0 Z " fill="#041136" transform="translate(134,118)"/>
<path d="M0 0 C0.66 0 1.32 0 2 0 C0.66511872 3.59391114 -0.96022723 6.75490696 -3 10 C-3.33 8.68 -3.66 7.36 -4 6 C-3.34 6 -2.68 6 -2 6 C-1.855625 5.195625 -1.71125 4.39125 -1.5625 3.5625 C-1 1 -1 1 0 0 Z " fill="#031436" transform="translate(106,62)"/>
<path d="M0 0 C0.66 0 1.32 0 2 0 C2 1.98 2 3.96 2 6 C0.68 6 -0.64 6 -2 6 C-2 4.68 -2 3.36 -2 2 C-1.34 2 -0.68 2 0 2 C0 1.34 0 0.68 0 0 Z " fill="#100100" transform="translate(42,166)"/>
<path d="M0 0 C1.98 0 3.96 0 6 0 C6 0.66 6 1.32 6 2 C5.34 2 4.68 2 4 2 C3.67 3.32 3.34 4.64 3 6 C0 2.25 0 2.25 0 0 Z " fill="#0B091B" transform="translate(88,162)"/>
<path d="M0 0 C1.98 0 3.96 0 6 0 C6 0.66 6 1.32 6 2 C5.34 2 4.68 2 4 2 C4 3.32 4 4.64 4 6 C3.34 6 2.68 6 2 6 C2 4.68 2 3.36 2 2 C1.34 2 0.68 2 0 2 C0 1.34 0 0.68 0 0 Z " fill="#0A7BF4" transform="translate(102,148)"/>
<path d="M0 0 C1.32 0 2.64 0 4 0 C4 0.66 4 1.32 4 2 C3.34 2 2.68 2 2 2 C2 2.66 2 3.32 2 4 C1.34 4 0.68 4 0 4 C0 4.66 0 5.32 0 6 C-0.66 6 -1.32 6 -2 6 C-2 4.68 -2 3.36 -2 2 C-1.34 2 -0.68 2 0 2 C0 1.34 0 0.68 0 0 Z " fill="#0C7CF0" transform="translate(72,142)"/>
<path d="M0 0 C1.32 0 2.64 0 4 0 C4 1.65 4 3.3 4 5 C2.68 5.33 1.36 5.66 0 6 C0 4.02 0 2.04 0 0 Z " fill="#01040D" transform="translate(56,132)"/>
<path d="M0 0 C0.33 1.32 0.66 2.64 1 4 C0.34 4 -0.32 4 -1 4 C-1 5.32 -1 6.64 -1 8 C-2.32 8.33 -3.64 8.66 -5 9 C-4.3566152 7.686298 -3.71021785 6.37407102 -3.0625 5.0625 C-2.70285156 4.33160156 -2.34320313 3.60070312 -1.97265625 2.84765625 C-1 1 -1 1 0 0 Z " fill="#1A6ECE" transform="translate(91,92)"/>
<path d="M0 0 C0.66 0 1.32 0 2 0 C3.2890625 1.53125 3.2890625 1.53125 4.625 3.5 C5.07101563 4.1496875 5.51703125 4.799375 5.9765625 5.46875 C6.31429688 5.9740625 6.65203125 6.479375 7 7 C6.01 7 5.02 7 4 7 C3.67 6.01 3.34 5.02 3 4 C2.34 4 1.68 4 1 4 C1 3.34 1 2.68 1 2 C0.34 1.67 -0.32 1.34 -1 1 C-0.67 0.67 -0.34 0.34 0 0 Z " fill="#E7E7E7" transform="translate(18,197)"/>
<path d="M0 0 C4 4.875 4 4.875 4 6 C2.02 6 0.04 6 -2 6 C-1.34 4.02 -0.68 2.04 0 0 Z " fill="#030B23" transform="translate(162,166)"/>
<path d="M0 0 C0.66 0 1.32 0 2 0 C2 0.66 2 1.32 2 2 C2.99 1.67 3.98 1.34 5 1 C5 4 5 4 3 7 C0 2.25 0 2.25 0 0 Z " fill="#1470D5" transform="translate(162,164)"/>
<path d="M0 0 C2 2 2 2 2.125 5.625 C2.08375 6.73875 2.0425 7.8525 2 9 C0.68 8.67 -0.64 8.34 -2 8 C-2 7.34 -2 6.68 -2 6 C-1.34 6 -0.68 6 0 6 C0 4.02 0 2.04 0 0 Z " fill="#0C76E0" transform="translate(168,136)"/>
<path d="M0 0 C3.875 0.875 3.875 0.875 5 2 C5.04080783 3.99958364 5.04254356 6.00045254 5 8 C2.74754119 5.31158141 1.11786042 3.35358125 0 0 Z " fill="#020E2D" transform="translate(127,140)"/>
<path d="M0 0 C1.32 0.33 2.64 0.66 4 1 C4 1.66 4 2.32 4 3 C3.01 3 2.02 3 1 3 C0.34 4.32 -0.32 5.64 -1 7 C-1.33 5.68 -1.66 4.36 -2 3 C-1.34 3 -0.68 3 0 3 C0 2.01 0 1.02 0 0 Z " fill="#1374E1" transform="translate(150,137)"/>
<path d="M0 0 C0.66 0 1.32 0 2 0 C1 4 1 4 0 8 C-0.66 8 -1.32 8 -2 8 C-2 6.02 -2 4.04 -2 2 C-1.34 2 -0.68 2 0 2 C0 1.34 0 0.68 0 0 Z " fill="#010311" transform="translate(82,94)"/>
<path d="M0 0 C1.98 0 3.96 0 6 0 C6 0.66 6 1.32 6 2 C4 3.625 4 3.625 2 5 C1.34 4.34 0.68 3.68 0 3 C0 2.01 0 1.02 0 0 Z " fill="#1076E5" transform="translate(112,86)"/>
<path d="M0 0 C0.99 0 1.98 0 3 0 C3.33 1.98 3.66 3.96 4 6 C4.66 6 5.32 6 6 6 C5.67 6.99 5.34 7.98 5 9 C4.16396622 7.68921847 3.3312426 6.37632511 2.5 5.0625 C2.0359375 4.33160156 1.571875 3.60070312 1.09375 2.84765625 C0 1 0 1 0 0 Z " fill="#021339" transform="translate(136,80)"/>
<path d="M0 0 C1.43088528 2.86177057 0.59991697 4.93375773 0 8 C-1.32 6.35 -2.64 4.7 -4 3 C-2 1 -2 1 0 0 Z " fill="#040C25" transform="translate(174,137)"/>
<path d="M0 0 C0.99 0 1.98 0 3 0 C1.8141763 3.37503669 0.72426311 5.64722731 -2 8 C-2 6.68 -2 5.36 -2 4 C-1.34 4 -0.68 4 0 4 C0 2.68 0 1.36 0 0 Z " fill="#030D2E" transform="translate(76,112)"/>
<path d="M0 0 C0.33 1.32 0.66 2.64 1 4 C1.66 4 2.32 4 3 4 C3 4.66 3 5.32 3 6 C2.34 6 1.68 6 1 6 C1 6.66 1 7.32 1 8 C0.34 8 -0.32 8 -1 8 C-1.125 2.25 -1.125 2.25 0 0 Z " fill="#127AE4" transform="translate(101,74)"/>
<path d="M0 0 C1.32 0 2.64 0 4 0 C4 1.32 4 2.64 4 4 C3.01 4.33 2.02 4.66 1 5 C0.67 3.35 0.34 1.7 0 0 Z " fill="#0A7AF8" transform="translate(72,152)"/>
<path d="M0 0 C2.50037734 2.17424117 3.43628586 3.73045798 4 7 C3.01 7 2.02 7 1 7 C0.67 4.69 0.34 2.38 0 0 Z " fill="#1174D8" transform="translate(128,143)"/>
<path d="M0 0 C0.66 0 1.32 0 2 0 C2 0.66 2 1.32 2 2 C1.34 2 0.68 2 0 2 C-0.33 3.65 -0.66 5.3 -1 7 C-1.99 7 -2.98 7 -4 7 C-2.68 4.69 -1.36 2.38 0 0 Z " fill="#011644" transform="translate(116,88)"/>
</svg>
