<?xml version="1.0" encoding="UTF-8"?>
<svg version="1.1" xmlns="http://www.w3.org/2000/svg" width="256" height="256">
<path d="M0 0 C84.48 0 168.96 0 256 0 C256 84.48 256 168.96 256 256 C171.52 256 87.04 256 0 256 C0 171.52 0 87.04 0 0 Z " fill="#000000" transform="translate(0,0)"/>
<path d="M0 0 C0.87454834 0.00523682 1.74909668 0.01047363 2.65014648 0.01586914 C3.59438477 0.0190918 4.53862305 0.02231445 5.51147461 0.02563477 C6.50469727 0.03401367 7.49791992 0.04239258 8.52124023 0.05102539 C9.51833008 0.05553711 10.51541992 0.06004883 11.54272461 0.06469727 C14.01478872 0.07652532 16.48673541 0.0930069 18.95874023 0.11352539 C23.96460817 11.352043 27.83318452 22.99081897 31.83374023 34.61352539 C32.52218757 36.60583551 33.21098763 38.59802378 33.90014648 40.59008789 C34.92275053 43.54642903 35.94508675 46.50285989 36.96611023 49.45974731 C39.22563644 56.00246861 41.497427 62.54078005 43.78295898 69.07446289 C44.06086273 69.86961304 44.33876648 70.66476318 44.62509155 71.48400879 C46.74143797 77.52582997 48.9113911 83.54681553 51.11108398 89.55883789 C51.95874023 92.11352539 51.95874023 92.11352539 51.95874023 94.11352539 C45.68874023 94.11352539 39.41874023 94.11352539 32.95874023 94.11352539 C30.64874023 86.85352539 28.33874023 79.59352539 25.95874023 72.11352539 C14.40874023 72.11352539 2.85874023 72.11352539 -9.04125977 72.11352539 C-11.35125977 79.37352539 -13.66125977 86.63352539 -16.04125977 94.11352539 C-22.31125977 94.11352539 -28.58125977 94.11352539 -35.04125977 94.11352539 C-33.02403852 86.41656558 -30.69562079 78.92509424 -28.04125977 71.42602539 C-27.69836914 70.44569336 -27.35547852 69.46536133 -27.00219727 68.45532227 C-25.60015621 64.46057552 -24.17930015 60.47873968 -22.68237305 56.51831055 C-20.64936102 51.11359465 -18.75439481 45.66084026 -16.84594727 40.21118164 C-16.04007899 37.91751922 -15.23408582 35.62390069 -14.42797852 33.33032227 C-13.16479719 29.73368885 -11.90250353 26.13675237 -10.64233398 22.5390625 C-9.42110685 19.05386086 -8.19632325 15.56992635 -6.97094727 12.08618164 C-6.59179169 11.00087662 -6.21263611 9.91557159 -5.82199097 8.79737854 C-5.47137604 7.80221725 -5.12076111 6.80705597 -4.75952148 5.78173828 C-4.45102264 4.90207901 -4.1425238 4.02241974 -3.82467651 3.11610413 C-2.66359593 0.14813684 -2.66359593 0.14813684 0 0 Z " fill="#F8F8F8" transform="translate(91.041259765625,80.886474609375)"/>
<path d="M0 0 C0 31.02 0 62.04 0 94 C-5.94 94 -11.88 94 -18 94 C-18 68.92 -18 43.84 -18 18 C-22.95 20.97 -27.9 23.94 -33 27 C-38 30 -38 30 -40 30 C-41.51238621 16.94306573 -41.51238621 16.94306573 -38.23046875 12.7265625 C-35.58223027 10.90402681 -32.85524554 9.47557909 -30 8 C-29.02289063 7.278125 -28.04578125 6.55625 -27.0390625 5.8125 C-17.02800381 -1.44993048 -14.00184229 0 0 0 Z " fill="#F5F5F5" transform="translate(188,81)"/>
<path d="M0 0 C2.13287308 2.13287308 2.6251624 3.34432183 3.5859375 6.1484375 C4.01990845 7.4015271 4.01990845 7.4015271 4.46264648 8.67993164 C4.76372314 9.5693042 5.0647998 10.45867676 5.375 11.375 C5.83918335 12.72742798 5.83918335 12.72742798 6.31274414 14.10717773 C6.92978305 15.90858273 7.54416949 17.71089869 8.15576172 19.51416016 C8.87818845 21.64132875 9.60997246 23.76480978 10.34765625 25.88671875 C13 33.6155914 13 33.6155914 13 37 C4.75 37 -3.5 37 -12 37 C-10.77651037 31.49429668 -9.6329711 26.52105155 -7.87109375 21.25 C-7.47599609 20.06535156 -7.08089844 18.88070312 -6.67382812 17.66015625 C-6.26583984 16.45230469 -5.85785156 15.24445313 -5.4375 14 C-5.02564453 12.76121094 -4.61378906 11.52242187 -4.18945312 10.24609375 C-1.13362536 1.13362536 -1.13362536 1.13362536 0 0 Z " fill="#0C0C0C" transform="translate(99,101)"/>
</svg>
