<?xml version="1.0" encoding="UTF-8"?>
<svg version="1.1" xmlns="http://www.w3.org/2000/svg" width="363" height="363">
<path d="M0 0 C119.79 0 239.58 0 363 0 C363 119.79 363 239.58 363 363 C243.21 363 123.42 363 0 363 C0 243.21 0 123.42 0 0 Z " fill="#FEFEFE" transform="translate(0,0)"/>
<path d="M0 0 C1.75570312 0.63615234 1.75570312 0.63615234 3.546875 1.28515625 C26.55332468 10.30187616 42.8882418 27.73033959 53 50 C60.8168733 70.79503742 60.89856289 96.09211235 51.90917969 116.47314453 C48.90588812 122.81628234 45.49558305 128.91774966 42 135 C41.46165527 135.93972656 40.92331055 136.87945312 40.36865234 137.84765625 C36.90010974 143.87778706 33.37609216 149.87425979 29.84130859 155.86572266 C26.71694975 161.18400943 23.64034008 166.52970005 20.5625 171.875 C19.94310547 172.94975586 19.32371094 174.02451172 18.68554688 175.13183594 C17.42638582 177.31677396 16.16743486 179.50183308 14.90869141 181.68701172 C12.97514555 185.04314081 11.04053831 188.39865548 9.10546875 191.75390625 C8.14640625 193.41691772 8.14640625 193.41691772 7.16796875 195.11352539 C5.89920879 197.31237556 4.62968949 199.51078778 3.359375 201.70874023 C0.5215872 206.619748 -2.30825055 211.53450412 -5.10546875 216.46875 C-9.95965508 225.00683648 -14.83917847 233.31498353 -21 241 C-21.60972656 241.7734375 -22.21945313 242.546875 -22.84765625 243.34375 C-35.95063987 259.05656813 -56.72925113 269.72449884 -77 272 C-100.87133399 273.57963031 -123.86436494 269.78497649 -142.69140625 254.08984375 C-143.45324219 253.40019531 -144.21507812 252.71054687 -145 252 C-145.49741699 251.55027832 -145.99483398 251.10055664 -146.50732422 250.63720703 C-157.92496419 240.16849528 -165.88793081 228.79043506 -171 214 C-171.39316406 212.87980469 -171.78632813 211.75960937 -172.19140625 210.60546875 C-178.66155091 189.07589331 -176.61759865 164.89578689 -166.1875 145 C-164.51444269 141.96609306 -162.76449414 138.98148634 -161 136 C-160.43345703 135.03626465 -159.86691406 134.0725293 -159.28320312 133.07958984 C-156.65463969 128.61475557 -154.01725211 124.15530731 -151.36035156 119.70727539 C-146.46059635 111.50194132 -141.66430639 103.2435853 -136.9375 94.9375 C-136.27173898 93.76846735 -135.60596751 92.59944065 -134.94018555 91.43041992 C-133.94608356 89.68456588 -132.95209488 87.93864772 -131.9584198 86.19255066 C-123.90760002 72.04944708 -115.79737669 57.93766845 -107.5 43.9375 C-107.04399414 43.15890625 -106.58798828 42.3803125 -106.11816406 41.578125 C-102.81273906 36.04413369 -99.0434846 31.01439978 -95 26 C-94.44119141 25.29415771 -93.88238281 24.58831543 -93.30664062 23.86108398 C-72.14574254 -2.49668171 -31.02764941 -12.0288351 0 0 Z " fill="#FBFBFC" transform="translate(242,44)"/>
<path d="M0 0 C1.75570312 0.63615234 1.75570312 0.63615234 3.546875 1.28515625 C26.55332468 10.30187616 42.8882418 27.73033959 53 50 C60.8168733 70.79503742 60.89856289 96.09211235 51.90917969 116.47314453 C48.90588812 122.81628234 45.49558305 128.91774966 42 135 C41.46165527 135.93972656 40.92331055 136.87945312 40.36865234 137.84765625 C36.90010974 143.87778706 33.37609216 149.87425979 29.84130859 155.86572266 C26.71694975 161.18400943 23.64034008 166.52970005 20.5625 171.875 C19.94310547 172.94975586 19.32371094 174.02451172 18.68554688 175.13183594 C17.42638582 177.31677396 16.16743486 179.50183308 14.90869141 181.68701172 C12.97514555 185.04314081 11.04053831 188.39865548 9.10546875 191.75390625 C8.14640625 193.41691772 8.14640625 193.41691772 7.16796875 195.11352539 C5.89920879 197.31237556 4.62968949 199.51078778 3.359375 201.70874023 C0.5215872 206.619748 -2.30825055 211.53450412 -5.10546875 216.46875 C-9.95965508 225.00683648 -14.83917847 233.31498353 -21 241 C-21.60972656 241.7734375 -22.21945313 242.546875 -22.84765625 243.34375 C-35.95063987 259.05656813 -56.72925113 269.72449884 -77 272 C-100.87133399 273.57963031 -123.86436494 269.78497649 -142.69140625 254.08984375 C-143.45324219 253.40019531 -144.21507812 252.71054687 -145 252 C-145.49741699 251.55027832 -145.99483398 251.10055664 -146.50732422 250.63720703 C-157.92496419 240.16849528 -165.88793081 228.79043506 -171 214 C-171.39316406 212.87980469 -171.78632813 211.75960937 -172.19140625 210.60546875 C-178.66155091 189.07589331 -176.61759865 164.89578689 -166.1875 145 C-164.51444269 141.96609306 -162.76449414 138.98148634 -161 136 C-160.43345703 135.03626465 -159.86691406 134.0725293 -159.28320312 133.07958984 C-156.65463969 128.61475557 -154.01725211 124.15530731 -151.36035156 119.70727539 C-146.46059635 111.50194132 -141.66430639 103.2435853 -136.9375 94.9375 C-136.27173898 93.76846735 -135.60596751 92.59944065 -134.94018555 91.43041992 C-133.94608356 89.68456588 -132.95209488 87.93864772 -131.9584198 86.19255066 C-123.90760002 72.04944708 -115.79737669 57.93766845 -107.5 43.9375 C-107.04399414 43.15890625 -106.58798828 42.3803125 -106.11816406 41.578125 C-102.81273906 36.04413369 -99.0434846 31.01439978 -95 26 C-94.44119141 25.29415771 -93.88238281 24.58831543 -93.30664062 23.86108398 C-72.14574254 -2.49668171 -31.02764941 -12.0288351 0 0 Z M-75 29 C-75 29.66 -75 30.32 -75 31 C-74.27973633 31.38986084 -74.27973633 31.38986084 -73.54492188 31.78759766 C-62.42624906 37.82023599 -51.43032861 44.03277016 -40.52099609 50.43603516 C-31.2622254 55.86542438 -21.94656516 61.19153167 -12.61523438 66.49487305 C6.21478374 77.21478374 6.21478374 77.21478374 8 79 C8.58230683 86.10414334 8.58230683 86.10414334 6.375 89.5 C3.23915622 91.48053291 1.68758673 91.3952537 -2 91 C-4.62776057 89.69933192 -6.97708809 88.37550889 -9.4375 86.8125 C-10.95435227 85.88446449 -12.47266053 84.95880581 -13.9921875 84.03515625 C-14.80139648 83.54031738 -15.61060547 83.04547852 -16.44433594 82.53564453 C-20.92768628 79.84169405 -25.49888333 77.30474078 -30.0625 74.75 C-38.16543275 70.19290359 -46.22419828 65.56658159 -54.25 60.875 C-55.2409668 60.29709717 -56.23193359 59.71919434 -57.25292969 59.1237793 C-62.05904806 56.31783333 -66.85332069 53.4943445 -71.62890625 50.63671875 C-72.50579102 50.11674316 -73.38267578 49.59676758 -74.28613281 49.06103516 C-75.92983148 48.08606198 -77.56880399 47.10306155 -79.20214844 46.11083984 C-79.92563477 45.68367676 -80.64912109 45.25651367 -81.39453125 44.81640625 C-82.33582886 44.25095093 -82.33582886 44.25095093 -83.29614258 43.67407227 C-85.20036781 42.70954049 -85.20036781 42.70954049 -88 44 C-89.59456632 46.18344569 -89.59456632 46.18344569 -91.08203125 48.94140625 C-91.67709473 49.98780273 -92.2721582 51.03419922 -92.88525391 52.11230469 C-93.52124512 53.25086914 -94.15723633 54.38943359 -94.8125 55.5625 C-95.48251579 56.74570978 -96.15359154 57.92831992 -96.82568359 59.11035156 C-98.21038436 61.5465502 -99.59142572 63.98476773 -100.97021484 66.42431641 C-103.97367171 71.72754273 -107.0490099 76.98862117 -110.125 82.25 C-110.68944824 83.22106689 -111.25389648 84.19213379 -111.83544922 85.19262695 C-114.77582114 90.24221333 -117.75709216 95.26192613 -120.80078125 100.25 C-121.41099121 101.25772461 -122.02120117 102.26544922 -122.64990234 103.30371094 C-123.81550455 105.22483732 -124.99116765 107.1399062 -126.17822266 109.04785156 C-126.69562012 109.9034668 -127.21301758 110.75908203 -127.74609375 111.640625 C-128.20685303 112.38860352 -128.6676123 113.13658203 -129.14233398 113.90722656 C-130.1502865 115.94789013 -130.1502865 115.94789013 -129.90332031 118.1015625 C-128.67530283 120.6823906 -127.295438 121.36588343 -124.80078125 122.734375 C-123.92752197 123.22236572 -123.0542627 123.71035645 -122.15454102 124.21313477 C-121.21666748 124.72030029 -120.27879395 125.22746582 -119.3125 125.75 C-117.3905782 126.81632191 -115.46870332 127.88272838 -113.546875 128.94921875 C-112.60134766 129.46790527 -111.65582031 129.9865918 -110.68164062 130.52099609 C-107.11462563 132.48831008 -103.58750668 134.52121455 -100.0625 136.5625 C-97.03810405 138.30518168 -94.03168321 139.98433819 -90.90234375 141.53125 C-88.28019482 142.85820558 -85.93434705 144.29931782 -83.5 145.9375 C-76.92278033 150.18962276 -70.04372175 153.8604309 -63.14453125 157.56030273 C-45.46566196 167.06867608 -45.46566196 167.06867608 -44 170 C-43.64705882 176.47058824 -43.64705882 176.47058824 -46 180 C-50.26494522 181.54011911 -52.90599871 180.74374129 -57 179 C-66.48257059 174.23299345 -75.57169394 168.63811242 -84.74609375 163.30908203 C-94.74699244 157.50050114 -104.82999624 151.87402051 -115.01098633 146.38696289 C-120.44300505 143.44656933 -125.75341 140.37496748 -130.99511719 137.10595703 C-132.91025506 135.83899489 -132.91025506 135.83899489 -135 136 C-135 135.34 -135 134.68 -135 134 C-136.32 133.67 -137.64 133.34 -139 133 C-152.99234425 155.741319 -163.03293166 174.93701161 -156.97265625 202.36328125 C-152.30192612 219.82693489 -141.72980291 235.68063998 -126.12402344 245.13671875 C-108.93255858 254.82444487 -89.98704902 258.17367415 -70.4375 253.9375 C-63.60160516 251.85744928 -57.26648253 248.38352977 -51 245 C-53.77737346 242.01114732 -56.43928991 239.98949092 -60.015625 238.0390625 C-61.00747803 237.49217773 -61.99933105 236.94529297 -63.02124023 236.38183594 C-64.08673096 235.80208008 -65.15222168 235.22232422 -66.25 234.625 C-68.51796579 233.3742775 -70.78486652 232.12162205 -73.05078125 230.8671875 C-73.62864883 230.54778198 -74.20651642 230.22837646 -74.80189514 229.89929199 C-80.73609168 226.61057604 -86.58954394 223.18897133 -92.4375 219.75 C-99.55334991 215.56870642 -106.70086412 211.46864971 -113.9375 207.5 C-128.48696835 199.51303165 -128.48696835 199.51303165 -132 196 C-132.36090226 188.54135338 -132.36090226 188.54135338 -130 185 C-126.20820592 183.61052378 -124.2395508 183.50154489 -120.47314453 185.01611328 C-117.43954358 186.60453379 -114.50202728 188.30601981 -111.5625 190.0625 C-110.46502441 190.69792725 -109.36754883 191.33335449 -108.23681641 191.98803711 C-105.94460204 193.31846601 -103.65737325 194.65448131 -101.37646484 196.00390625 C-98.2024376 197.88032322 -95.01952674 199.74032796 -91.83203125 201.59375 C-88.85456288 203.32607315 -85.87846095 205.06046972 -82.90722656 206.8034668 C-74.96222937 211.46333715 -66.95392937 216.00369413 -58.91235352 220.49462891 C-54.81562105 222.79327725 -50.75767017 225.10836603 -46.8125 227.66015625 C-46.20817139 228.05025879 -45.60384277 228.44036133 -44.98120117 228.84228516 C-43.45190467 229.84600485 -41.93798996 230.87305961 -40.42578125 231.90234375 C-38.11922512 233.2288145 -38.11922512 233.2288145 -35.95703125 232.59765625 C-33.15117964 230.30705085 -31.31430491 227.51502515 -29.375 224.5 C-28.93897461 223.83347412 -28.50294922 223.16694824 -28.05371094 222.48022461 C-24.46123091 216.90232472 -21.21085786 211.16056367 -18.03710938 205.33691406 C-14.43740326 198.73559829 -10.67549305 192.23752689 -6.875 185.75 C-6.27776123 184.72624268 -5.68052246 183.70248535 -5.06518555 182.64770508 C-2.49835759 178.2503207 0.07693239 173.85987545 2.70703125 169.5 C3.09165527 168.85321289 3.4762793 168.20642578 3.87255859 167.54003906 C4.85331941 165.89149751 5.84603234 164.25008214 6.83984375 162.609375 C8.17385715 160.17005857 8.17385715 160.17005857 7.83813477 158.00830078 C6.69390539 155.26654988 5.34399989 154.66829994 2.75 153.2578125 C1.8439502 152.75612549 0.93790039 152.25443848 0.00439453 151.73754883 C-1.48278076 150.93933716 -1.48278076 150.93933716 -3 150.125 C-4.53551514 149.27941528 -4.53551514 149.27941528 -6.10205078 148.41674805 C-8.28179403 147.21641758 -10.46434298 146.02117055 -12.64941406 144.83056641 C-18.07983554 141.86369813 -23.47676569 138.83741916 -28.875 135.8125 C-29.92034912 135.22815186 -30.96569824 134.64380371 -32.04272461 134.04174805 C-42.19512778 128.35624246 -52.30871889 122.59288027 -62.15625 116.390625 C-65.7596139 114.12699013 -69.45032033 112.09562892 -73.21484375 110.11328125 C-75 109 -75 109 -76 107 C-76.45229682 99.87632509 -76.45229682 99.87632509 -75 97.0625 C-71.78963377 95.35699294 -68.60700273 95.29565596 -65 95 C-65 95.66 -65 96.32 -65 97 C-48.0130115 106.71023351 -48.0130115 106.71023351 -30.75805664 115.93139648 C-26.34911587 118.21898389 -22.10138051 120.71630286 -17.85327148 123.28930664 C-12.79501773 126.32200828 -7.67585097 129.24924641 -2.55737305 132.17871094 C-0.67124224 133.25931441 1.21221148 134.3444921 3.09570312 135.4296875 C4.30973416 136.12528225 5.52392123 136.82060474 6.73828125 137.515625 C7.82149658 138.13727539 8.90471191 138.75892578 10.02075195 139.39941406 C12.64158089 140.80744115 15.2141609 141.96655917 18 143 C22.70750234 134.68918802 27.37172941 126.35519015 32 118 C32.42958008 117.23026855 32.85916016 116.46053711 33.30175781 115.66748047 C42.2538359 99.49794106 44.42942062 82.48277886 40.02734375 64.46875 C34.50964827 45.83866032 23.01245003 30.11710715 5.91015625 20.4140625 C2.27596678 18.64818788 -1.4150051 17.13089312 -5.1875 15.6875 C-5.85281738 15.43266846 -6.51813477 15.17783691 -7.20361328 14.9152832 C-29.37913718 6.83166257 -57.79917783 12.91232811 -75 29 Z " fill="#141178" transform="translate(242,44)"/>
<path d="M0 0 C6.50527441 3.6798904 6.50527441 3.6798904 7.765625 7.04296875 C8 9 8 9 7 11 C8.32 10.67 9.64 10.34 11 10 C11 11.32 11 12.64 11 14 C5.555 16.475 5.555 16.475 0 19 C0 18.34 0 17.68 0 17 C-0.721875 17.103125 -1.44375 17.20625 -2.1875 17.3125 C-6.1573703 16.8714033 -7.50403068 14.99516318 -10 12 C-10 11.34 -10 10.68 -10 10 C-10.66 9.67 -11.32 9.34 -12 9 C-11.525625 8.62875 -11.05125 8.2575 -10.5625 7.875 C-8.47794198 5.37353038 -8.35378509 3.18406582 -8 0 C-4.52931203 -1.15689599 -3.4505468 -1.09790125 0 0 Z " fill="#120F78" transform="translate(217,162)"/>
<path d="M0 0 C6.66500865 -0.59244521 11.86952975 1.51677155 18 4 C18 4.66 18 5.32 18 6 C18.33 6.99 18.66 7.98 19 9 C18.67 9.66 18.34 10.32 18 11 C17.34 11 16.68 11 16 11 C15.731875 11.639375 15.46375 12.27875 15.1875 12.9375 C14 15 14 15 11 16 C11 15.34 11 14.68 11 14 C10.30132812 13.87882813 9.60265625 13.75765625 8.8828125 13.6328125 C7.97273438 13.46523437 7.06265625 13.29765625 6.125 13.125 C5.22007813 12.96257812 4.31515625 12.80015625 3.3828125 12.6328125 C1 12 1 12 -1 10 C-1.23046875 8.125 -1.23046875 8.125 -1.1875 6 C-1.18105469 5.29875 -1.17460938 4.5975 -1.16796875 3.875 C-1 2 -1 2 0 0 Z " fill="#131077" transform="translate(110,230)"/>
<path d="M0 0 C1.7015625 0.2784375 1.7015625 0.2784375 3.4375 0.5625 C4.283125 0.706875 5.12875 0.85125 6 1 C6 1.66 6 2.32 6 3 C9.96 3.33 13.92 3.66 18 4 C17.01 4.99 16.02 5.98 15 7 C14.35933594 6.79503906 13.71867187 6.59007812 13.05859375 6.37890625 C12.19363281 6.10949219 11.32867187 5.84007812 10.4375 5.5625 C9.16712891 5.16224609 9.16712891 5.16224609 7.87109375 4.75390625 C-12.74027773 -0.65833143 -31.5309345 4.67377685 -50 14 C-47.50059751 8.85229446 -47.50059751 8.85229446 -45 7 C-42.3125 6.8125 -42.3125 6.8125 -40 7 C-39.67 6.34 -39.34 5.68 -39 5 C-27.78387116 -0.34391646 -12.16968992 -2.48361019 0 0 Z " fill="#201E71" transform="translate(224,54)"/>
<path d="M0 0 C2.0625 0.4375 2.0625 0.4375 4 1 C1.83266704 4.80535282 -0.33618584 8.60983429 -2.50634766 12.41357422 C-3.24177461 13.70305919 -3.97681216 14.99276634 -4.71142578 16.28271484 C-7.12954608 20.52844585 -9.56126738 24.76607256 -12 29 C-12.59135742 30.03801758 -13.18271484 31.07603516 -13.79199219 32.14550781 C-14.32211914 33.05913086 -14.85224609 33.97275391 -15.3984375 34.9140625 C-16.08558838 36.10829834 -16.08558838 36.10829834 -16.78662109 37.32666016 C-17.18703613 37.8788623 -17.58745117 38.43106445 -18 39 C-18.66 39 -19.32 39 -20 39 C-20 38.34 -20 37.68 -20 37 C-20.66 37 -21.32 37 -22 37 C-21.67 36.34 -21.34 35.68 -21 35 C-20.01 35 -19.02 35 -18 35 C-17.67 34.01 -17.34 33.02 -17 32 C-16 29 -15 26 -14 23 C-14.66 22.67 -15.32 22.34 -16 22 C-14.68 21.34 -13.36 20.68 -12 20 C-11.67 20.33 -11.34 20.66 -11 21 C-10.896875 20.401875 -10.79375 19.80375 -10.6875 19.1875 C-9.88730103 16.64141235 -8.86718082 15.86718082 -7 14 C-5.95377125 12.02379014 -4.94560065 10.0262871 -4 8 C-3.34 8 -2.68 8 -2 8 C-1.855625 6.865625 -1.71125 5.73125 -1.5625 4.5625 C-1 1 -1 1 0 0 Z " fill="#1E1B73" transform="translate(138,109)"/>
<path d="M0 0 C0.66 0.33 1.32 0.66 2 1 C2.25 3.75 2.25 3.75 2 7 C0 9.375 0 9.375 -2 11 C-1.34 11.33 -0.68 11.66 0 12 C-0.78375 12.391875 -1.5675 12.78375 -2.375 13.1875 C-5.42172708 15.29119251 -5.70933511 16.64427128 -7 20 C-7.64453125 20.29003906 -8.2890625 20.58007812 -8.953125 20.87890625 C-11.15674238 21.8332235 -11.15674238 21.8332235 -12.01171875 24.0234375 C-12.23472656 24.79945313 -12.45773438 25.57546875 -12.6875 26.375 C-12.91824219 27.14585937 -13.14898437 27.91671875 -13.38671875 28.7109375 C-13.94704364 30.80234124 -14.48618386 32.89671524 -15 35 C-17.475 35.495 -17.475 35.495 -20 36 C-15.60831449 27.89971219 -11.13450531 19.84770414 -6.625 11.8125 C-5.98433594 10.66974609 -5.34367188 9.52699219 -4.68359375 8.34960938 C-3.12295924 5.56608962 -1.56175232 2.78289268 0 0 Z " fill="#232173" transform="translate(235,228)"/>
<path d="M0 0 C0.99 0.33 1.98 0.66 3 1 C-1.9521339 9.69517537 -6.9402729 18.36684064 -12 27 C-12.99 26.34 -13.98 25.68 -15 25 C-13.62313063 22.0344352 -11.95648934 19.60865245 -10 17 C-9.30419733 15.68163705 -8.62775567 14.35208914 -8 13 C-7.34 13 -6.68 13 -6 13 C-6.2475 12.0925 -6.495 11.185 -6.75 10.25 C-7 7 -7 7 -5.0625 4.625 C-4.381875 4.08875 -3.70125 3.5525 -3 3 C-3 3.66 -3 4.32 -3 5 C-2.34 5 -1.68 5 -1 5 C-0.67 3.35 -0.34 1.7 0 0 Z " fill="#1F1D75" transform="translate(256,221)"/>
<path d="M0 0 C1.98 0.99 1.98 0.99 4 2 C4 2.66 4 3.32 4 4 C4.66 4 5.32 4 6 4 C7.2065625 5.2375 7.2065625 5.2375 8.4375 6.5 C10.76122416 9.34916193 10.76122416 9.34916193 14 9 C14.66 9.33 15.32 9.66 16 10 C16 11.32 16 12.64 16 14 C16.99 14.33 17.98 14.66 19 15 C18.67 15.66 18.34 16.32 18 17 C18.721875 17.103125 19.44375 17.20625 20.1875 17.3125 C23.24491993 18.05986932 25.38329635 19.28045189 28 21 C27.67 21.99 27.34 22.98 27 24 C19.09918115 19.41586673 12.08407777 14.56505495 5.625 8.0625 C5.06014893 7.4950708 4.49529785 6.9276416 3.91333008 6.34301758 C0 2.2828688 0 2.2828688 0 0 Z " fill="#19176D" transform="translate(86,283)"/>
<path d="M0 0 C5.63475364 2.7051804 11.16966157 5.57337957 16.625 8.625 C17.64851563 9.19476563 18.67203125 9.76453125 19.7265625 10.3515625 C20.47679687 10.89554688 21.22703125 11.43953125 22 12 C22 12.99 22 13.98 22 15 C19.03 14.505 19.03 14.505 16 14 C16 13.34 16 12.68 16 12 C14.35 11.67 12.7 11.34 11 11 C11 10.01 11 9.02 11 8 C9.68 7.67 8.36 7.34 7 7 C7 6.34 7 5.68 7 5 C5.8553125 5.12375 5.8553125 5.12375 4.6875 5.25 C2 5 2 5 0.1875 3 C-0.4003125 2.01 -0.4003125 2.01 -1 1 C-0.67 0.67 -0.34 0.34 0 0 Z " fill="#201C6F" transform="translate(217,103)"/>
<path d="M0 0 C0.66 0 1.32 0 2 0 C1.39048014 4.87615889 -0.74501073 8.71977509 -3 13 C-3.66944492 14.33194058 -4.33690395 15.66488733 -5 17 C-5.99 17 -6.98 17 -8 17 C-8.66 19.31 -9.32 21.62 -10 24 C-10.99 23.67 -11.98 23.34 -13 23 C-8.71 15.41 -4.42 7.82 0 0 Z " fill="#262474" transform="translate(117,118)"/>
<path d="M0 0 C0.33 0 0.66 0 1 0 C1.15855469 0.93199219 1.31710938 1.86398438 1.48046875 2.82421875 C3.10962686 11.72608269 5.43531742 19.6448349 9 28 C8.01 28 7.02 28 6 28 C5.731875 27.05125 5.46375 26.1025 5.1875 25.125 C4.25013412 21.74732727 4.25013412 21.74732727 1 20 C1.33 17.69 1.66 15.38 2 13 C1.01 13.33 0.02 13.66 -1 14 C-0.67 9.38 -0.34 4.76 0 0 Z " fill="#232072" transform="translate(83,235)"/>
<path d="M0 0 C4.50110136 0.5377422 7.70560916 1.67971007 11.625 3.9375 C14.72043216 5.70198304 17.79458202 7.44243774 21 9 C21 9.99 21 10.98 21 12 C16.26525903 10.3003494 12.03832889 7.86340973 7.6875 5.375 C6.94693359 4.95476562 6.20636719 4.53453125 5.44335938 4.1015625 C3.62730989 3.07051505 1.81343467 2.03563954 0 1 C0 0.67 0 0.34 0 0 Z " fill="#292773" transform="translate(176,98)"/>
<path d="M0 0 C0.99 0.33 1.98 0.66 3 1 C2.89047884 4.79228144 2.75976759 8.5835384 2.625 12.375 C2.5940625 13.45523438 2.563125 14.53546875 2.53125 15.6484375 C2.49257812 16.6796875 2.45390625 17.7109375 2.4140625 18.7734375 C2.36693115 20.20308838 2.36693115 20.20308838 2.31884766 21.66162109 C2 24 2 24 0 26 C0 17.42 0 8.84 0 0 Z " fill="#1F1F6E" transform="translate(67,216)"/>
<path d="M0 0 C3 1 3 1 4.3515625 3.29296875 C8.5883728 12.92326456 8.5883728 12.92326456 9 18 C8.34 18.33 7.68 18.66 7 19 C5.27858232 16.41787348 4.42841617 14.63616332 3.5 11.75 C3.24605469 10.96238281 2.99210937 10.17476562 2.73046875 9.36328125 C1.76964356 6.25472917 0.86737774 3.13590414 0 0 Z " fill="#2A2776" transform="translate(288,85)"/>
<path d="M0 0 C-0.33 1.32 -0.66 2.64 -1 4 C-0.34 4.33 0.32 4.66 1 5 C1 5.66 1 6.32 1 7 C2.32 6.67 3.64 6.34 5 6 C5 7.32 5 8.64 5 10 C0.02790438 8.23570801 -4.43438061 5.6060834 -9 3 C-7 0 -7 0 -5.0625 -0.75 C-3 -1 -3 -1 0 0 Z " fill="#201F7B" transform="translate(232,123)"/>
<path d="M0 0 C0.79019531 0.45503906 1.58039063 0.91007813 2.39453125 1.37890625 C2.98621094 1.72824219 3.57789063 2.07757813 4.1875 2.4375 C0.86174363 3.56615035 -0.93453171 3.3066177 -4.1875 2.0625 C-7.72396429 0.78235838 -11.06559231 -0.08212722 -14.8125 -0.5625 C-13.8125 -2.5625 -13.8125 -2.5625 -12.0625 -3.25 C-7.44248025 -3.89166941 -3.9340262 -2.28995555 0 0 Z " fill="#282775" transform="translate(125.8125,230.5625)"/>
<path d="M0 0 C0.33 0 0.66 0 1 0 C1.25748454 3.1858639 1.47577773 6.373294 1.6875 9.5625 C1.76033203 10.45775391 1.83316406 11.35300781 1.90820312 12.27539062 C2.27061672 18.09532654 1.75488251 21.83725103 -1 27 C-1.33 27 -1.66 27 -2 27 C-1.34 18.09 -0.68 9.18 0 0 Z " fill="#21237B" transform="translate(298,119)"/>
<path d="M0 0 C0.33 0.99 0.66 1.98 1 3 C2.299375 3.433125 2.299375 3.433125 3.625 3.875 C7.81160091 5.27053364 10.49619147 7.33710552 14 10 C13.34 10.66 12.68 11.32 12 12 C5.07 8.04 5.07 8.04 -2 4 C-1.34 2.68 -0.68 1.36 0 0 Z " fill="#201F6B" transform="translate(131,249)"/>
<path d="M0 0 C0.99 0 1.98 0 3 0 C4.32 2.97 5.64 5.94 7 9 C7.66 9 8.32 9 9 9 C10.125 10.75 10.125 10.75 11 13 C10.0546875 15.140625 10.0546875 15.140625 9 17 C7.68417937 14.73103368 6.37224764 12.45996813 5.0625 10.1875 C4.68931641 9.54490234 4.31613281 8.90230469 3.93164062 8.24023438 C2.36533365 5.51683576 0.99630626 2.98891878 0 0 Z " fill="#232270" transform="translate(73,263)"/>
<path d="M0 0 C0.66 0 1.32 0 2 0 C4.09230769 4.43076923 4.09230769 4.43076923 3.625 7.3125 C3.41875 7.869375 3.2125 8.42625 3 9 C0.125 9.625 0.125 9.625 -3 10 C-3.66 9.34 -4.32 8.68 -5 8 C-4.54625 7.608125 -4.0925 7.21625 -3.625 6.8125 C-1.72357081 4.69167513 -0.93795972 2.66957765 0 0 Z " fill="#110E7D" transform="translate(245,122)"/>
<path d="M0 0 C1.32 0 2.64 0 4 0 C2.36704731 4.64763458 2.36704731 4.64763458 0.4375 6.5 C-1.48593335 8.50706089 -1.63468585 10.29667526 -2 13 C-3.32 13.33 -4.64 13.66 -6 14 C-6.33 13.34 -6.66 12.68 -7 12 C-5.70703125 9.1796875 -5.70703125 9.1796875 -3.8125 5.875 C-3.20019531 4.77929688 -2.58789062 3.68359375 -1.95703125 2.5546875 C-1.31121094 1.71164063 -0.66539062 0.86859375 0 0 Z " fill="#201E74" transform="translate(138,82)"/>
<path d="M0 0 C1.98 0.495 1.98 0.495 4 1 C4 1.66 4 2.32 4 3 C4.87398437 2.66162109 4.87398437 2.66162109 5.765625 2.31640625 C8 2 8 2 9.921875 3.21484375 C10.52515625 3.78332031 11.1284375 4.35179687 11.75 4.9375 C12.36359375 5.50339844 12.9771875 6.06929688 13.609375 6.65234375 C14.06828125 7.09707031 14.5271875 7.54179687 15 8 C14.34 8.66 13.68 9.32 13 10 C6.07 6.04 6.07 6.04 -1 2 C-0.67 1.34 -0.34 0.68 0 0 Z " fill="#201D72" transform="translate(170,274)"/>
<path d="M0 0 C1.65 0.33 3.3 0.66 5 1 C6 4 6 4 5.00390625 6.04296875 C4.52824219 6.75066406 4.05257813 7.45835937 3.5625 8.1875 C3.08941406 8.90292969 2.61632812 9.61835938 2.12890625 10.35546875 C1.75636719 10.89816406 1.38382812 11.44085938 1 12 C0.84789062 11.38125 0.69578125 10.7625 0.5390625 10.125 C0.18776197 8.74016315 -0.19885436 7.36366604 -0.625 6 C-1.05725887 3.69461938 -0.71120955 2.21265195 0 0 Z " fill="#1E1B78" transform="translate(259,208)"/>
<path d="M0 0 C0.99 0 1.98 0 3 0 C2.04767238 2.63721495 1.17184804 4.78003451 -0.5625 7 C-2.23332631 9.32462791 -2.60987369 11.19109059 -3 14 C-3.99 14.33 -4.98 14.66 -6 15 C-7 12 -7 12 -5.671875 9.08203125 C-5.03765625 8.00308594 -4.4034375 6.92414063 -3.75 5.8125 C-3.12609375 4.72582031 -2.5021875 3.63914062 -1.859375 2.51953125 C-1.24578125 1.68808594 -0.6321875 0.85664062 0 0 Z " fill="#262476" transform="translate(128,99)"/>
<path d="M0 0 C3.79049707 1.42749981 7.27122456 3.16236542 10.8125 5.125 C12.27623047 5.93324219 12.27623047 5.93324219 13.76953125 6.7578125 C14.50558594 7.16773438 15.24164063 7.57765625 16 8 C15.01 8.66 14.02 9.32 13 10 C11.72791378 9.37755401 10.45738118 8.75193233 9.1875 8.125 C8.47980469 7.77695313 7.77210937 7.42890625 7.04296875 7.0703125 C3.39871992 5.16108845 1.62376324 3.74714593 0 0 Z " fill="#2B2877" transform="translate(118,167)"/>
<path d="M0 0 C0.66 0 1.32 0 2 0 C2.05395478 1.62463842 2.09277195 3.24978541 2.125 4.875 C2.14820313 5.77992188 2.17140625 6.68484375 2.1953125 7.6171875 C2 10 2 10 0 12 C-1.32 11.01 -2.64 10.02 -4 9 C-2.80100302 5.9168649 -1.52299523 2.93720508 0 0 Z " fill="#1F1B7B" transform="translate(278,153)"/>
<path d="M0 0 C2.6664882 -0.21620175 4.44004321 -0.30894168 6.8125 1 C8.78587049 4.32357135 8.30312838 7.18058245 8 11 C7.34 11.66 6.68 12.32 6 13 C5.34 12.34 4.68 11.68 4 11 C4.30791692 9.328451 4.64386903 7.66194453 5 6 C4.63143136 3.76832815 4.63143136 3.76832815 4 2 C2.68 1.67 1.36 1.34 0 1 C0 0.67 0 0.34 0 0 Z " fill="#23216E" transform="translate(243,120)"/>
<path d="M0 0 C2.17503665 1.00983845 4.03589517 2.02778981 5.9375 3.5 C8.20740748 5.15084181 10.39149635 5.98204735 13 7 C14.6829392 7.97236487 16.35443434 8.96564444 18 10 C17.67 10.99 17.34 11.98 17 13 C14.72311565 11.59236212 12.45378599 10.17452262 10.1875 8.75 C9.54490234 8.35425781 8.90230469 7.95851563 8.24023438 7.55078125 C4.80996644 5.38242536 2.17764602 3.52956753 0 0 Z " fill="#222063" transform="translate(96,294)"/>
<path d="M0 0 C1.31538327 4.15771494 0.34433068 6.8879297 -1 11 C-1.66 11 -2.32 11 -3 11 C-3.33 11.99 -3.66 12.98 -4 14 C-4.66 14 -5.32 14 -6 14 C-6 14.66 -6 15.32 -6 16 C-6.66 16 -7.32 16 -8 16 C-6.57250019 12.20950293 -4.83763458 8.72877544 -2.875 5.1875 C-2.33617188 4.21167969 -1.79734375 3.23585937 -1.2421875 2.23046875 C-0.83226563 1.49441406 -0.42234375 0.75835937 0 0 Z " fill="#2A2873" transform="translate(85,173)"/>
<path d="M0 0 C-0.33 1.32 -0.66 2.64 -1 4 C-2.99954746 4.04254356 -5.00041636 4.04080783 -7 4 C-7.33 3.67 -7.66 3.34 -8 3 C-10.52596259 2.76346477 -13.03107207 2.57826308 -15.5625 2.4375 C-16.27341797 2.39431641 -16.98433594 2.35113281 -17.71679688 2.30664062 C-19.47761912 2.20028223 -21.2387832 2.09961154 -23 2 C-23 1.67 -23 1.34 -23 1 C-19.91675903 0.83159521 -16.83339379 0.66558138 -13.75 0.5 C-12.87730469 0.45230469 -12.00460938 0.40460938 -11.10546875 0.35546875 C-10.26113281 0.31035156 -9.41679687 0.26523437 -8.546875 0.21875 C-7.38430176 0.1559082 -7.38430176 0.1559082 -6.19824219 0.09179688 C-4.13373418 0.00558463 -2.0663073 0 0 0 Z " fill="#49488B" transform="translate(169,298)"/>
<path d="M0 0 C0.79664062 0.27714844 1.59328125 0.55429687 2.4140625 0.83984375 C3.47367187 1.20207031 4.53328125 1.56429688 5.625 1.9375 C6.66914063 2.29714844 7.71328125 2.65679687 8.7890625 3.02734375 C11.85970286 3.95750123 14.827478 4.54746308 18 5 C18 5.33 18 5.66 18 6 C8.58997722 7.51708428 8.58997722 7.51708428 4 5 C4 4.34 4 3.68 4 3 C2.35 3 0.7 3 -1 3 C-0.67 2.01 -0.34 1.02 0 0 Z " fill="#202071" transform="translate(124,293)"/>
<path d="M0 0 C1.77433812 0.93084971 3.54435149 1.86994613 5.3125 2.8125 C6.29863281 3.33457031 7.28476563 3.85664063 8.30078125 4.39453125 C10.61665068 5.7719876 12.23611001 6.99530591 14 9 C13.34 9 12.68 9 12 9 C11.67 9.66 11.34 10.32 11 11 C11 10.34 11 9.68 11 9 C8.35261084 7.5393715 7.10551666 7 4 7 C4.33 6.01 4.66 5.02 5 4 C4.360625 3.896875 3.72125 3.79375 3.0625 3.6875 C2.381875 3.460625 1.70125 3.23375 1 3 C0.67 2.01 0.34 1.02 0 0 Z " fill="#22206F" transform="translate(190,268)"/>
<path d="M0 0 C3.63559661 3.43361902 6.36113346 6.7973607 9 11 C8.34 11 7.68 11 7 11 C6.67 11.99 6.34 12.98 6 14 C5.34 13.67 4.68 13.34 4 13 C3.31060191 10.67328146 2.64533078 8.33932406 2 6 C1.34 5.01 0.68 4.02 0 3 C0 2.01 0 1.02 0 0 Z " fill="#221F72" transform="translate(93,266)"/>
<path d="M0 0 C5.93280632 4.3715415 5.93280632 4.3715415 7 8 C6.625 11.25 6.625 11.25 6 14 C5.67 14 5.34 14 5 14 C4.34 11.36 3.68 8.72 3 6 C2.01 6 1.02 6 0 6 C0 4.02 0 2.04 0 0 Z " fill="#221F76" transform="translate(278,69)"/>
<path d="M0 0 C0.99 0 1.98 0 3 0 C2.57448104 1.91936213 2.13408062 3.83542874 1.6875 5.75 C1.44386719 6.81734375 1.20023437 7.8846875 0.94921875 8.984375 C0 12 0 12 -3 16 C-2.67 12.04 -2.34 8.08 -2 4 C-1.34 4 -0.68 4 0 4 C0 2.68 0 1.36 0 0 Z " fill="#1E1B76" transform="translate(85,204)"/>
<path d="M0 0 C1.98270912 0.95098266 3.96108379 1.91100703 5.9375 2.875 C7.03964844 3.40867188 8.14179688 3.94234375 9.27734375 4.4921875 C12 6 12 6 13 8 C8.68265992 8.37005772 6.57542309 7.35225203 3 5 C2.01 4.67 1.02 4.34 0 4 C-0.33 3.01 -0.66 2.02 -1 1 C-0.67 0.67 -0.34 0.34 0 0 Z " fill="#262473" transform="translate(187,146)"/>
<path d="M0 0 C2.97 1.65 5.94 3.3 9 5 C9 5.66 9 6.32 9 7 C7.54077307 6.88590407 6.08259402 6.75834456 4.625 6.625 C3.40683594 6.52058594 3.40683594 6.52058594 2.1640625 6.4140625 C0 6 0 6 -2 4 C-1.34 2.68 -0.68 1.36 0 0 Z " fill="#1E1B76" transform="translate(179,81)"/>
<path d="M0 0 C0.66 0.33 1.32 0.66 2 1 C1.67 2.32 1.34 3.64 1 5 C0.01 5 -0.98 5 -2 5 C-2.33 5.99 -2.66 6.98 -3 8 C-5.475 7.01 -5.475 7.01 -8 6 C-5.38485683 3.87961365 -2.80362384 1.86908256 0 0 Z " fill="#221D77" transform="translate(171,50)"/>
<path d="M0 0 C1.65 0 3.3 0 5 0 C5 0.66 5 1.32 5 2 C6.3921875 2.0928125 6.3921875 2.0928125 7.8125 2.1875 C11 3 11 3 12.875 5.5625 C13.431875 6.7690625 13.431875 6.7690625 14 8 C9.02790438 6.23570801 4.56561939 3.6060834 0 1 C0 0.67 0 0.34 0 0 Z " fill="#373480" transform="translate(212,179)"/>
<path d="M0 0 C3.45925163 1.2491742 6.14693203 2.67527795 9 5 C7.02 5.66 5.04 6.32 3 7 C2.67 6.01 2.34 5.02 2 4 C1.01 3.67 0.02 3.34 -1 3 C-0.67 2.01 -0.34 1.02 0 0 Z " fill="#272577" transform="translate(134,176)"/>
<path d="M0 0 C0 4.95 0 9.9 0 15 C-0.33 15 -0.66 15 -1 15 C-1.33 13.02 -1.66 11.04 -2 9 C-2.66 9 -3.32 9 -4 9 C-4.368 3.48 -4.368 3.48 -2.5625 1.125 C-1 0 -1 0 0 0 Z " fill="#CACCDC" transform="translate(284,119)"/>
<path d="M0 0 C9.41002278 0.96355353 9.41002278 0.96355353 14 2 C13.67 2.66 13.34 3.32 13 4 C8.71 3.67 4.42 3.34 0 3 C0 2.01 0 1.02 0 0 Z " fill="#221F70" transform="translate(222,40)"/>
<path d="M0 0 C3.11373372 1.49920512 6.12228205 3.08152136 9 5 C9 5.66 9 6.32 9 7 C6.69 7 4.38 7 2 7 C1.34 4.69 0.68 2.38 0 0 Z " fill="#2D2A7D" transform="translate(214,161)"/>
<path d="M0 0 C1.6875 2.0625 1.6875 2.0625 3 4 C2.67 4.66 2.34 5.32 2 6 C-1.45925163 4.7508258 -4.14693203 3.32472205 -7 1 C-3.375 -1.125 -3.375 -1.125 0 0 Z " fill="#E5E5F3" transform="translate(204,90)"/>
<path d="M0 0 C2.31 0 4.62 0 7 0 C7.66 1.65 8.32 3.3 9 5 C10.65 5 12.3 5 14 5 C12.328125 6.17578125 12.328125 6.17578125 10 7 C7.421875 5.91796875 7.421875 5.91796875 4.75 4.1875 C3.85796875 3.62417969 2.9659375 3.06085938 2.046875 2.48046875 C1.37140625 1.99191406 0.6959375 1.50335938 0 1 C0 0.67 0 0.34 0 0 Z " fill="#3F3E86" transform="translate(200,172)"/>
<path d="M0 0 C4.29 2.31 8.58 4.62 13 7 C9.16380575 7.95904856 7.67568464 7.91892116 4 7 C4 6.01 4 5.02 4 4 C2.68 3.34 1.36 2.68 0 2 C0 1.34 0 0.68 0 0 Z " fill="#262372" transform="translate(150,245)"/>
<path d="M0 0 C3.14624993 -0.26218749 4.61837017 -0.24754367 7.3125 1.5 C8.1478125 2.2425 8.1478125 2.2425 9 3 C8.67 3.99 8.34 4.98 8 6 C5.36 4.68 2.72 3.36 0 2 C0 1.34 0 0.68 0 0 Z " fill="#2C2A7C" transform="translate(125,188)"/>
<path d="M0 0 C1.32 0.33 2.64 0.66 4 1 C2.02 4.63 0.04 8.26 -2 12 C-2.33 12 -2.66 12 -3 12 C-3.32803732 7.29813179 -2.65796641 4.87620102 0 1 C0 0.67 0 0.34 0 0 Z " fill="#272470" transform="translate(281,176)"/>
<path d="M0 0 C3.61138104 -0.20063228 5.95990319 -0.02673121 9 2 C10.75 4.125 10.75 4.125 12 6 C11.01 6.495 11.01 6.495 10 7 C7.6171875 5.8203125 7.6171875 5.8203125 4.875 4.125 C3.96492188 3.57070312 3.05484375 3.01640625 2.1171875 2.4453125 C1.41851562 1.96835938 0.71984375 1.49140625 0 1 C0 0.67 0 0.34 0 0 Z " fill="#26246F" transform="translate(112,242)"/>
<path d="M0 0 C4.85077588 1.11940982 7.777893 2.1334716 11 6 C10.34 6 9.68 6 9 6 C8.67 6.66 8.34 7.32 8 8 C7.34 6.68 6.68 5.36 6 4 C4.68 4.33 3.36 4.66 2 5 C1.34 3.35 0.68 1.7 0 0 Z " fill="#3A3886" transform="translate(146,183)"/>
<path d="M0 0 C3.465 1.485 3.465 1.485 7 3 C7 4.65 7 6.3 7 8 C6.01 8.495 6.01 8.495 5 9 C2.5 6.75 2.5 6.75 0 4 C0 2.68 0 1.36 0 0 Z " fill="#272578" transform="translate(250,182)"/>
<path d="M0 0 C-1 2 -1 2 -2.5625 2.625 C-6.06398181 3.16368951 -9.45806833 3.05903219 -13 3 C-9.19777044 -0.80222956 -5.07002404 -1.49118354 0 0 Z " fill="#28267B" transform="translate(192,44)"/>
<path d="M0 0 C1.69433918 3.0469629 2.49467112 5.82821466 3.125 9.25 C3.29257813 10.14203125 3.46015625 11.0340625 3.6328125 11.953125 C3.75398438 12.62859375 3.87515625 13.3040625 4 14 C3.34 14 2.68 14 2 14 C1.46658816 12.42085985 0.94874237 10.83645613 0.4375 9.25 C0.14746094 8.36828125 -0.14257812 7.4865625 -0.44140625 6.578125 C-1.01697435 3.92165684 -0.89248371 2.52968894 0 0 Z " fill="#201C73" transform="translate(70,247)"/>
<path d="M0 0 C1.134375 0.020625 2.26875 0.04125 3.4375 0.0625 C2.4475 0.5575 2.4475 0.5575 1.4375 1.0625 C1.4375 1.7225 1.4375 2.3825 1.4375 3.0625 C-1.2025 3.7225 -3.8425 4.3825 -6.5625 5.0625 C-4.14811644 0.07277397 -4.14811644 0.07277397 0 0 Z " fill="#1E197D" transform="translate(177.5625,309.9375)"/>
<path d="M0 0 C2.99220268 1.36370299 5.29026529 2.94908083 7.75 5.125 C8.67039062 5.93324219 8.67039062 5.93324219 9.609375 6.7578125 C10.06828125 7.16773438 10.5271875 7.57765625 11 8 C10.01 8.33 9.02 8.66 8 9 C7.01 8.34 6.02 7.68 5 7 C5 6.34 5 5.68 5 5 C4.360625 4.731875 3.72125 4.46375 3.0625 4.1875 C1 3 1 3 0 0 Z " fill="#282471" transform="translate(103,279)"/>
<path d="M0 0 C0.66 0.99 1.32 1.98 2 3 C0.625 5 0.625 5 -1 7 C-1.66 7 -2.32 7 -3 7 C-3.33 5.02 -3.66 3.04 -4 1 C-2.68 0.67 -1.36 0.34 0 0 Z " fill="#1C1973" transform="translate(229,268)"/>
<path d="M0 0 C3.375 0.3125 3.375 0.3125 7 1 C9.29013653 4.4352048 9.17842973 5.985331 9 10 C8.01 10 7.02 10 6 10 C6.33 8.35 6.66 6.7 7 5 C3.535 3.02 3.535 3.02 0 1 C0 0.67 0 0.34 0 0 Z " fill="#333177" transform="translate(242,196)"/>
<path d="M0 0 C0.66 0 1.32 0 2 0 C2.69937202 1.4317616 3.38412718 2.87067032 4.0625 4.3125 C4.63677734 5.51326172 4.63677734 5.51326172 5.22265625 6.73828125 C6 9 6 9 5 12 C1.70343678 10.35171839 1.24171391 7.33005093 0 4 C0 2.68 0 1.36 0 0 Z " fill="#1D1B70" transform="translate(275,89)"/>
<path d="M0 0 C0.33 0.66 0.66 1.32 1 2 C-1.52956528 5.0916909 -4.22454612 5.90931332 -8 7 C-7.9375 5.1875 -7.9375 5.1875 -7 3 C-3.4375 1.25 -3.4375 1.25 0 0 Z " fill="#272478" transform="translate(184,292)"/>
<path d="M0 0 C1.65 0 3.3 0 5 0 C5.33 0.99 5.66 1.98 6 3 C6.66 3 7.32 3 8 3 C7.67 3.99 7.34 4.98 7 6 C3.535 4.02 3.535 4.02 0 2 C0 1.34 0 0.68 0 0 Z " fill="#252377" transform="translate(161,269)"/>
<path d="M0 0 C4.30764815 1.56641751 8.06171464 3.68336156 12 6 C11.67 6.66 11.34 7.32 11 8 C8.97954558 7.39816251 6.97888961 6.72693904 5 6 C4.67 5.34 4.34 4.68 4 4 C1.98330173 2.86649466 1.98330173 2.86649466 0 2 C0 1.34 0 0.68 0 0 Z " fill="#272571" transform="translate(170,257)"/>
<path d="M0 0 C0.66 0.99 1.32 1.98 2 3 C1.34 3 0.68 3 0 3 C-0.66 5.31 -1.32 7.62 -2 10 C-3.65 10 -5.3 10 -7 10 C-6.67 9.34 -6.34 8.68 -6 8 C-5.34 8.33 -4.68 8.66 -4 9 C-3.71125 8.071875 -3.4225 7.14375 -3.125 6.1875 C-2 3 -2 3 0 0 Z " fill="#2D2D74" transform="translate(264,178)"/>
<path d="M0 0 C2.01822917 0.06510417 4.03645833 0.13020833 6.0546875 0.1953125 C6.0546875 0.5253125 6.0546875 0.8553125 6.0546875 1.1953125 C4.9409375 1.3809375 4.9409375 1.3809375 3.8046875 1.5703125 C1.25327265 2.15017951 -0.6720698 2.93239989 -2.9453125 4.1953125 C-2.9453125 4.8553125 -2.9453125 5.5153125 -2.9453125 6.1953125 C-3.9353125 6.1953125 -4.9253125 6.1953125 -5.9453125 6.1953125 C-3.20430126 0.32171699 -3.20430126 0.32171699 0 0 Z " fill="#414181" transform="translate(170.9453125,138.8046875)"/>
<path d="M0 0 C0.33 0.66 0.66 1.32 1 2 C3.64 1.67 6.28 1.34 9 1 C7.875 2.5 7.875 2.5 6 4 C3 4.375 3 4.375 0 4 C-1.875 2.5 -1.875 2.5 -3 1 C-2.01 0.67 -1.02 0.34 0 0 Z " fill="#484483" transform="translate(240,132)"/>
<path d="M0 0 C4.75 1.875 4.75 1.875 7 3 C7.33 2.34 7.66 1.68 8 1 C8.66 1.66 9.32 2.32 10 3 C9.34 3 8.68 3 8 3 C8 3.99 8 4.98 8 6 C4.54074837 4.7508258 1.85306797 3.32472205 -1 1 C-0.67 0.67 -0.34 0.34 0 0 Z " fill="#2A297A" transform="translate(215,119)"/>
<path d="M0 0 C0.66 0 1.32 0 2 0 C3 3 3 3 2.00390625 5.04296875 C1.52824219 5.75066406 1.05257812 6.45835938 0.5625 7.1875 C0.08941406 7.90292969 -0.38367188 8.61835937 -0.87109375 9.35546875 C-1.24363281 9.89816406 -1.61617187 10.44085938 -2 11 C-3.53271273 6.41201223 -2.02911182 4.22055258 0 0 Z " fill="#1F1E70" transform="translate(145,97)"/>
<path d="M0 0 C1.1875 1.6875 1.1875 1.6875 2 4 C0.625 6.75 0.625 6.75 -1 9 C-2.65 8.67 -4.3 8.34 -6 8 C-5.01 7.67 -4.02 7.34 -3 7 C-3.33 6.01 -3.66 5.02 -4 4 C-3.01 4 -2.02 4 -1 4 C-0.67 2.68 -0.34 1.36 0 0 Z " fill="#242077" transform="translate(197,216)"/>
<path d="M0 0 C3.45925163 1.2491742 6.14693203 2.67527795 9 5 C2.25 5.125 2.25 5.125 0 4 C0 2.68 0 1.36 0 0 Z " fill="#302F7C" transform="translate(241,177)"/>
<path d="M0 0 C2.3125 -0.3125 2.3125 -0.3125 5 0 C6.8125 2.5 6.8125 2.5 8 5 C7.01 5.495 7.01 5.495 6 6 C3.5249829 4.88568235 1.32116581 3.41849022 -1 2 C-0.67 1.34 -0.34 0.68 0 0 Z " fill="#292777" transform="translate(168,92)"/>
<path d="M0 0 C3.40667322 0.44824648 5.07914607 1.05276405 8 3 C8 3.99 8 4.98 8 6 C4.54074837 4.7508258 1.85306797 3.32472205 -1 1 C-0.67 0.67 -0.34 0.34 0 0 Z " fill="#393682" transform="translate(115,182)"/>
<path d="M0 0 C3.94120709 0.56302958 6.7508723 1.6791945 10 4 C10 4.66 10 5.32 10 6 C5.56909529 4.79157144 3.01887244 3.48331435 0 0 Z " fill="#3A3980" transform="translate(178,159)"/>
<path d="M0 0 C1.0859375 3.75 1.0859375 3.75 0.3125 6 C-1.20988656 8.31982713 -2.97571423 10.11066661 -5 12 C-5 8.55639368 -4.20408468 7.25204608 -2.5 4.3125 C-2.0359375 3.50425781 -1.571875 2.69601563 -1.09375 1.86328125 C-0.7328125 1.24839844 -0.371875 0.63351563 0 0 Z " fill="#DCDFF0" transform="translate(144,105)"/>
<path d="M0 0 C6.91428571 0.94285714 6.91428571 0.94285714 10 3 C10.33 3.99 10.66 4.98 11 6 C6.49197399 4.74194623 3.5087188 3.09592835 0 0 Z " fill="#24216D" transform="translate(176,98)"/>
<path d="M0 0 C0.33 0.66 0.66 1.32 1 2 C1.66 2 2.32 2 3 2 C3 2.99 3 3.98 3 5 C0.03 4.01 -2.94 3.02 -6 2 C-6 1.67 -6 1.34 -6 1 C-4.02 0.67 -2.04 0.34 0 0 Z " fill="#2B2974" transform="translate(123,307)"/>
<path d="M0 0 C0.66 0.33 1.32 0.66 2 1 C2 1.99 2 2.98 2 4 C2.66 4.33 3.32 4.66 4 5 C3.01 5.33 2.02 5.66 1 6 C-1.6875 4.0625 -1.6875 4.0625 -4 2 C-2.125 0.9375 -2.125 0.9375 0 0 Z " fill="#24217A" transform="translate(173,212)"/>
<path d="M0 0 C3.45925163 1.2491742 6.14693203 2.67527795 9 5 C5.23375329 6.25541557 3.62811066 5.37061958 0 4 C0 2.68 0 1.36 0 0 Z " fill="#292576" transform="translate(178,201)"/>
<path d="M0 0 C0.33 1.98 0.66 3.96 1 6 C-0.98 5.34 -2.96 4.68 -5 4 C-5 3.01 -5 2.02 -5 1 C-2 0 -2 0 0 0 Z " fill="#1A176E" transform="translate(214,114)"/>
<path d="M0 0 C0.66 1.32 1.32 2.64 2 4 C0.02 4.99 0.02 4.99 -2 6 C-2.99 5.01 -3.98 4.02 -5 3 C-3.35 2.01 -1.7 1.02 0 0 Z " fill="#1E1C77" transform="translate(188,219)"/>
<path d="M0 0 C1.98 0.495 1.98 0.495 4 1 C3.67 2.32 3.34 3.64 3 5 C1.68 5 0.36 5 -1 5 C-0.67 3.35 -0.34 1.7 0 0 Z " fill="#E8EAED" transform="translate(276,148)"/>
<path d="M0 0 C2.0625 0.4375 2.0625 0.4375 4 1 C4 1.66 4 2.32 4 3 C5.32 2.67 6.64 2.34 8 2 C8 3.32 8 4.64 8 6 C4.54074837 4.7508258 1.85306797 3.32472205 -1 1 C-0.67 0.67 -0.34 0.34 0 0 Z " fill="#2E2B77" transform="translate(229,127)"/>
<path d="M0 0 C0.33 0.99 0.66 1.98 1 3 C3.01508358 3.73323796 3.01508358 3.73323796 5 4 C4.67 4.99 4.34 5.98 4 7 C2.02 6.01 0.04 5.02 -2 4 C-1.34 2.68 -0.68 1.36 0 0 Z " fill="#272378" transform="translate(131,249)"/>
<path d="M0 0 C-2.61673759 1.40182371 -5.0371669 2.60495559 -8 3 C-8.66 2.34 -9.32 1.68 -10 1 C-6.21812119 -0.83691257 -4.05431692 -1.15837626 0 0 Z " fill="#413F81" transform="translate(121,228)"/>
<path d="M0 0 C3 1 3 1 4.1875 3.0625 C4.455625 3.701875 4.72375 4.34125 5 5 C3.68 5 2.36 5 1 5 C0.34 4.34 -0.32 3.68 -1 3 C-0.67 2.01 -0.34 1.02 0 0 Z " fill="#24237A" transform="translate(156,203)"/>
<path d="M0 0 C0.33 0.99 0.66 1.98 1 3 C-2.79557881 3 -4.62902617 2.49821059 -8 1 C-8 0.67 -8 0.34 -8 0 C-4.71303767 -0.79953138 -3.28976808 -1.09658936 0 0 Z " fill="#262377" transform="translate(143,195)"/>
<path d="M0 0 C0.66 0.33 1.32 0.66 2 1 C1.01 3.31 0.02 5.62 -1 8 C-1.99 8 -2.98 8 -4 8 C-2.68 5.36 -1.36 2.72 0 0 Z " fill="#292673" transform="translate(98,151)"/>
<path d="M0 0 C2.66666667 1.33333333 5.33333333 2.66666667 8 4 C7.67 4.99 7.34 5.98 7 7 C3.42895561 5.12050295 1.45255699 3.82946843 0 0 Z " fill="#252372" transform="translate(106,300)"/>
<path d="M0 0 C0.66 0.33 1.32 0.66 2 1 C2 1.66 2 2.32 2 3 C1.34 3 0.68 3 0 3 C-0.103125 3.639375 -0.20625 4.27875 -0.3125 4.9375 C-0.539375 5.618125 -0.76625 6.29875 -1 7 C-1.99 7.33 -2.98 7.66 -4 8 C-2.87548273 5.0280615 -1.77706209 2.66559313 0 0 Z " fill="#2D2B75" transform="translate(93,160)"/>
<path d="M0 0 C0.66 0.99 1.32 1.98 2 3 C0.02 5.97 0.02 5.97 -2 9 C-2.6875 7.3125 -2.6875 7.3125 -3 5 C-1.5625 2.25 -1.5625 2.25 0 0 Z " fill="#242073" transform="translate(116,149)"/>
<path d="M0 0 C2.98704569 0.49784095 4.39324263 1.26216175 7 3 C6.67 3.66 6.34 4.32 6 5 C3.08482708 3.92598892 1.22189824 3.22189824 -1 1 C-0.67 0.67 -0.34 0.34 0 0 Z " fill="#2B2976" transform="translate(161,88)"/>
<path d="M0 0 C0.66 1.32 1.32 2.64 2 4 C0.35 5.65 -1.3 7.3 -3 9 C-3.33 8.34 -3.66 7.68 -4 7 C-3.22265625 5.2734375 -3.22265625 5.2734375 -2.0625 3.375 C-1.381875 2.26125 -0.70125 1.1475 0 0 Z " fill="#DCDEF4" transform="translate(274,194)"/>
<path d="M0 0 C4.875 2.625 4.875 2.625 6 6 C0.25 4.25 0.25 4.25 -2 2 C-1.34 1.34 -0.68 0.68 0 0 Z " fill="#31317B" transform="translate(172,153)"/>
<path d="M0 0 C0.66 1.32 1.32 2.64 2 4 C1.01 5.485 1.01 5.485 0 7 C-0.66 7 -1.32 7 -2 7 C-2 6.34 -2 5.68 -2 5 C-2.66 5 -3.32 5 -4 5 C-3.67 4.34 -3.34 3.68 -3 3 C-2.01 3 -1.02 3 0 3 C0 2.01 0 1.02 0 0 Z " fill="#24207D" transform="translate(120,141)"/>
<path d="M0 0 C0.33 0.66 0.66 1.32 1 2 C1.66 2 2.32 2 3 2 C3.33 3.32 3.66 4.64 4 6 C1.69 5.67 -0.62 5.34 -3 5 C-3 4.34 -3 3.68 -3 3 C-2.01 3 -1.02 3 0 3 C0 2.01 0 1.02 0 0 Z " fill="#19186C" transform="translate(157,83)"/>
<path d="M0 0 C0.66 0.33 1.32 0.66 2 1 C1.01 2.485 1.01 2.485 0 4 C-0.66 4 -1.32 4 -2 4 C-2 4.99 -2 5.98 -2 7 C-2.99 7 -3.98 7 -5 7 C-3.70700306 4.11562221 -2.34058637 2.12780579 0 0 Z " fill="#181664" transform="translate(151,66)"/>
<path d="M0 0 C0 3 0 3 -1.1875 4.625 C-3.41406801 6.31412056 -5.25851328 6.62952882 -8 7 C-5.4837822 4.39391727 -2.94865641 2.10618315 0 0 Z " fill="#D8D9F1" transform="translate(209,296)"/>
<path d="M0 0 C0.33 0.66 0.66 1.32 1 2 C0.67 2.99 0.34 3.98 0 5 C-0.66 5 -1.32 5 -2 5 C-2 5.66 -2 6.32 -2 7 C-2.99 6.67 -3.98 6.34 -5 6 C-3.35 4.02 -1.7 2.04 0 0 Z " fill="#D3D2E9" transform="translate(220,285)"/>
<path d="M0 0 C0.99 0.33 1.98 0.66 3 1 C3.33 1.99 3.66 2.98 4 4 C3.34 4.66 2.68 5.32 2 6 C0.68 5.01 -0.64 4.02 -2 3 C-1.34 2.34 -0.68 1.68 0 1 C0 0.67 0 0.34 0 0 Z " fill="#EBECF6" transform="translate(116,284)"/>
<path d="M0 0 C2.72426311 2.35277269 3.8141763 4.62496331 5 8 C4.01 8 3.02 8 2 8 C1.34 5.36 0.68 2.72 0 0 Z " fill="#24206E" transform="translate(87,255)"/>
<path d="M0 0 C2.475 0.99 2.475 0.99 5 2 C4.67 2.66 4.34 3.32 4 4 C2.35 4 0.7 4 -1 4 C-1 1 -1 1 0 0 Z " fill="#2A287D" transform="translate(231,171)"/>
<path d="M0 0 C3.465 1.485 3.465 1.485 7 3 C6.01 3.66 5.02 4.32 4 5 C1.3125 4.125 1.3125 4.125 -1 3 C-0.67 2.01 -0.34 1.02 0 0 Z " fill="#322F81" transform="translate(196,167)"/>
<path d="M0 0 C0.33 0 0.66 0 1 0 C1.33 1.98 1.66 3.96 2 6 C0.35 6.33 -1.3 6.66 -3 7 C-2.01 4.69 -1.02 2.38 0 0 Z " fill="#272872" transform="translate(103,142)"/>
<path d="M0 0 C0 2.62113708 -0.31292445 4.50935112 -1 7 C-2.32 6.67 -3.64 6.34 -5 6 C-3.86695008 2.60085025 -2.87481525 1.94745549 0 0 Z " fill="#D3D7EE" transform="translate(172,69)"/>
</svg>
