<?xml version="1.0" encoding="UTF-8"?>
<svg version="1.1" xmlns="http://www.w3.org/2000/svg" width="400" height="400">
<path d="M0 0 C132 0 264 0 400 0 C400 132 400 264 400 400 C268 400 136 400 0 400 C0 268 0 136 0 0 Z " fill="#010000" transform="translate(0,0)"/>
<path d="M0 0 C0.66 0 1.32 0 2 0 C2.58042236 20.98119342 1.27859428 41.26096998 -13 58 C-14.11375 59.485 -14.11375 59.485 -15.25 61 C-15.8275 61.66 -16.405 62.32 -17 63 C-17.66 63 -18.32 63 -19 63 C-19 63.66 -19 64.32 -19 65 C-32.20301347 75.91645806 -46.89728523 79.39642508 -63.42700195 82.10180664 C-72.87975212 83.68392321 -81.78508306 86.02507 -90.80711365 89.2303772 C-93.11503967 90.04037471 -95.43195349 90.81832867 -97.75317383 91.58935547 C-98.55193436 91.85489227 -99.35069489 92.12042908 -100.17366028 92.39401245 C-100.77635239 92.59398834 -101.37904449 92.79396423 -102 93 C-102.0093457 94.23226318 -102.01869141 95.46452637 -102.02832031 96.73413086 C-102.74430116 177.36356198 -102.74430116 177.36356198 -129.5546875 204.578125 C-133.21202774 207.85984651 -138.88365402 212 -144 212 C-144.0154612 210.7863678 -144.0154612 210.7863678 -144.03123474 209.54821777 C-144.12948589 201.89824717 -144.23203776 194.2483517 -144.33933926 186.59850311 C-144.3943455 182.66628136 -144.44772792 178.73405194 -144.49731445 174.80175781 C-144.54528933 171.00212123 -144.59764055 167.20256717 -144.65294075 163.4030304 C-144.67321533 161.95829848 -144.69195143 160.51354407 -144.70907402 159.06877136 C-144.7940413 151.97910136 -144.97291377 145.02450001 -146 138 C-146.90317791 123.58154322 -146.24675971 109.83695196 -142 96 C-141.79101074 95.30970703 -141.58202148 94.61941406 -141.36669922 93.90820312 C-135.04675811 73.74120004 -122.68174721 57.19568767 -103.875 47.0625 C-96.16728025 43.27508598 -88.05974825 41.58942035 -79.74560547 39.65625 C-52.55816812 33.15795447 -21.70888267 25.26800321 -2 4 C-0.74515307 1.85965827 -0.74515307 1.85965827 0 0 Z " fill="#FB7A16" transform="translate(271,126)"/>
<path d="M0 0 C0.33 0 0.66 0 1 0 C1 61.38 1 122.76 1 186 C-60.38 186 -121.76 186 -185 186 C-185 185.67 -185 185.34 -185 185 C-184.16452637 184.89977539 -183.32905273 184.79955078 -182.46826172 184.69628906 C-179.29487819 184.31007073 -176.12296914 183.9136145 -172.95166016 183.51074219 C-171.59277562 183.34012278 -170.23340725 183.17330314 -168.87353516 183.01074219 C-159.26925978 181.85908222 -150.23105739 179.94547201 -141 177 C-139.98808594 176.68466309 -138.97617187 176.36932617 -137.93359375 176.04443359 C-121.78648229 170.88129885 -107.40500361 163.8947459 -93 155 C-92.37319336 154.6198877 -91.74638672 154.23977539 -91.10058594 153.84814453 C-64.7515181 137.77034823 -41.96835783 113.93647903 -27 87 C-26.31357422 85.77434326 -26.31357422 85.77434326 -25.61328125 84.52392578 C-18.32603588 71.38955584 -12.42606998 58.34924144 -8 44 C-7.60296875 42.783125 -7.2059375 41.56625 -6.796875 40.3125 C-2.76652534 27.31913394 -0.88339883 13.55560269 0 0 Z " fill="#FDFDFD" transform="translate(399,214)"/>
<path d="M0 0 C0.33 0 0.66 0 1 0 C1.03738281 0.86238281 1.07476562 1.72476563 1.11328125 2.61328125 C1.94663585 18.08753242 4.09032679 33.25658251 9 48 C9.24814453 48.77085937 9.49628906 49.54171875 9.75195312 50.3359375 C13.46393301 61.74391349 17.99317479 72.52524734 23.5 83.1875 C24.02134521 84.20175049 24.54269043 85.21600098 25.07983398 86.26098633 C28.32210332 92.36842351 31.95808506 97.95684443 36.11230469 103.48413086 C38.05511651 106.07345779 39.90621363 108.71453721 41.75 111.375 C46.21013299 117.50222771 51.26544878 122.97825252 56.50488281 128.4375 C57.88858668 129.88356544 59.25374861 131.34731194 60.6171875 132.8125 C72.64264493 145.38623057 87.01734037 155.27437898 102 164 C102.61020996 164.35932617 103.22041992 164.71865234 103.84912109 165.08886719 C113.39565317 170.65020265 123.28883972 174.62677282 133.72363281 178.21386719 C135.8518961 178.94885301 137.96936306 179.70869382 140.0859375 180.4765625 C148.00376198 183.29983249 155.6749651 184.93322417 164 186 C165.98037555 186.34734336 167.95957733 186.70145062 169.9375 187.0625 C176.59036259 188.1935757 183.26807315 188.62157808 190 189 C190 189.33 190 189.66 190 190 C127.3 190 64.6 190 0 190 C0 127.3 0 64.6 0 0 Z " fill="#FDFDFD" transform="translate(0,210)"/>
<path d="M0 0 C61.38 0 122.76 0 186 0 C186 62.7 186 125.4 186 190 C185.67 190 185.34 190 185 190 C184.96132813 188.7934375 184.96132813 188.7934375 184.921875 187.5625 C183.9990705 168.43527955 180.47472076 150.16193794 173.81542969 132.20654297 C173.11274592 130.30508912 172.4472728 128.38995915 171.7890625 126.47265625 C166.05453102 110.34682836 157.09413841 95.7254111 147 82 C146.58733887 81.42507812 146.17467773 80.85015625 145.74951172 80.2578125 C139.94806081 72.21041435 133.36611102 65.09493445 126.375 58.0625 C125.58738281 57.26932373 124.79976563 56.47614746 123.98828125 55.65893555 C110.6331807 42.46687201 94.56640851 31.75503235 78 23 C76.53046875 22.19949219 76.53046875 22.19949219 75.03125 21.3828125 C65.79615414 16.52791397 56.25550903 13.04968369 46.35668945 9.78491211 C44.80306807 9.26746751 43.25444651 8.73472518 41.71166992 8.18579102 C36.4909188 6.35040167 31.41034512 5.22179749 25.9375 4.4375 C25.12692139 4.31528076 24.31634277 4.19306152 23.48120117 4.06713867 C15.67180782 2.90779506 7.84089441 1.91927728 0 1 C0 0.67 0 0.34 0 0 Z " fill="#FDFDFD" transform="translate(214,0)"/>
<path d="M0 0 C62.7 0 125.4 0 190 0 C190 0.33 190 0.66 190 1 C189.42258057 1.04487549 188.84516113 1.08975098 188.25024414 1.13598633 C168.54782734 2.70289142 150.95152903 5.48119528 132.30615234 12.17724609 C130.39660137 12.8585066 128.47504679 13.50601505 126.55078125 14.14453125 C83.88967771 29.03409288 48.44385909 63.71574631 26 102 C25.32582031 103.11761719 24.65164062 104.23523438 23.95703125 105.38671875 C13.81332185 123.14327194 6.98085918 143.4670848 3.9375 163.625 C3.76412109 164.72457031 3.59074219 165.82414063 3.41210938 166.95703125 C2.23934291 174.62270019 1.49111433 182.26156637 1 190 C0.67 190 0.34 190 0 190 C0 127.3 0 64.6 0 0 Z " fill="#FDFDFD" transform="translate(0,0)"/>
<path d="M0 0 C0.66 0 1.32 0 2 0 C2.5369466 22.70090886 -0.33695621 44.40985941 -16.4921875 61.578125 C-31.1962182 75.77827926 -51.53191634 80.70957295 -71.3125 83.3125 C-88.79227779 85.70741617 -106.70342617 92.75953474 -120.44140625 103.8984375 C-122 105 -122 105 -124 105 C-124 105.66 -124 106.32 -124 107 C-125.2684375 107.99 -125.2684375 107.99 -126.5625 109 C-137.01983479 117.45958923 -142.08143412 131.0568391 -144 144 C-144.33 144 -144.66 144 -145 144 C-145.10079067 139.32680172 -145.17234648 134.6542701 -145.21972656 129.98022461 C-145.23952916 128.39873199 -145.26657891 126.8173093 -145.30175781 125.23608398 C-145.82177214 101.21601061 -139.03302329 77.48004764 -122.125 59.6875 C-117.7910616 55.59951896 -113.0491447 52.15128947 -108 49 C-107.3704541 48.59885986 -106.7409082 48.19771973 -106.09228516 47.78442383 C-100.04241261 44.14539764 -94.11553481 42.52891453 -87.25 41.0625 C-85.02655618 40.55683604 -82.80390818 40.04766124 -80.58203125 39.53515625 C-79.47682129 39.28137207 -78.37161133 39.02758789 -77.23291016 38.76611328 C-50.90808212 32.52783278 -15.74587919 23.61881879 0 0 Z " fill="#FC7815" transform="translate(271,61)"/>
<path d="M0 0 C2.31 0.33 4.62 0.66 7 1 C7 1.66 7 2.32 7 3 C7.66 3 8.32 3 9 3 C9.33 2.34 9.66 1.68 10 1 C11.48221224 77.47645057 11.48221224 77.47645057 -15 106 C-19.1523547 110.12240983 -23.95761791 114 -30 114 C-30.33 85.29 -30.66 56.58 -31 27 C-29.68 27.33 -28.36 27.66 -27 28 C-26.67 29.32 -26.34 30.64 -26 32 C-25.2884375 30.30617187 -25.2884375 30.30617187 -24.5625 28.578125 C-21.75996662 22.97799228 -17.47670228 19.04076896 -13 14.75 C-12.19304687 13.96109375 -11.38609375 13.1721875 -10.5546875 12.359375 C-9.0553734 10.89469852 -7.55195926 9.43419752 -6.04296875 7.97949219 C-5.03169922 6.99964355 -5.03169922 6.99964355 -4 6 C-3.25363281 5.2977832 -2.50726563 4.59556641 -1.73828125 3.87207031 C0.22681215 2.18150702 0.22681215 2.18150702 0 0 Z " fill="#FC8018" transform="translate(158,223)"/>
<path d="M0 0 C1.13167948 3.80436931 0.64378139 5.36637798 -1 9 C-1.67795528 10.99620166 -2.34733531 12.99538701 -3 15 C-2.34 15.33 -1.68 15.66 -1 16 C-1 17.98 -1 19.96 -1 22 C0.32 20.68 1.64 19.36 3 18 C3.66 18.33 4.32 18.66 5 19 C5 18.34 5 17.68 5 17 C5.66 17 6.32 17 7 17 C7 17.66 7 18.32 7 19 C8.11375 19 9.2275 19 10.375 19 C12.25 19 14.125 19 16 19 C17.66965451 18.68197057 19.33678518 18.35015049 21 18 C21.0721875 17.37480469 21.144375 16.74960938 21.21875 16.10546875 C22 14 22 14 24.03125 12.98828125 C24.8459375 12.76527344 25.660625 12.54226562 26.5 12.3125 C29.51839757 11.63170957 29.51839757 11.63170957 32 10 C33.99958364 9.95919217 36.00045254 9.95745644 38 10 C35.4695485 12.5304515 32.56476538 13.73855599 29.375 15.25 C24.30398271 17.70177065 19.8048372 20.31032033 15.453125 23.93359375 C14 25 14 25 12 25 C12 25.66 12 26.32 12 27 C11.154375 27.66 10.30875 28.32 9.4375 29 C-1.01983479 37.45958923 -6.08143412 51.0568391 -8 64 C-8.33 64 -8.66 64 -9 64 C-9.10079067 59.32680172 -9.17234648 54.6542701 -9.21972656 49.98022461 C-9.23952916 48.39873199 -9.26657891 46.8173093 -9.30175781 45.23608398 C-9.65228367 29.04488233 -6.92786016 14.73589928 0 0 Z " fill="#F88C1F" transform="translate(135,141)"/>
<path d="M0 0 C0.33 0 0.66 0 1 0 C2.48221224 76.47645057 2.48221224 76.47645057 -24 105 C-28.1523547 109.12240983 -32.95761791 113 -39 113 C-39 95.51 -39 78.02 -39 60 C-38.67 60 -38.34 60 -38 60 C-37.83225327 65.90803224 -37.6717072 71.81619979 -37.51782227 77.72460938 C-37.4644628 79.73442852 -37.40913825 81.74419649 -37.35180664 83.75390625 C-37.26972679 86.64311694 -37.19472248 89.53243811 -37.12109375 92.421875 C-37.09405869 93.31992859 -37.06702362 94.21798218 -37.03916931 95.14324951 C-37.01907303 95.98381897 -36.99897675 96.82438843 -36.97827148 97.69042969 C-36.95828598 98.42767273 -36.93830048 99.16491577 -36.91770935 99.92449951 C-37.00303198 102.07647145 -37.40510841 103.93529165 -38 106 C-33.41173718 104.06273348 -31.19471406 102.51135667 -29 98 C-29.66 97.34 -30.32 96.68 -31 96 C-27.28400809 95.79913557 -26.22791555 95.8480563 -23 98 C-21.73964906 95.99414942 -21.73964906 95.99414942 -22.5 93.5625 C-23 91 -23 91 -22 88 C-18.86650268 86.95550089 -18.01031744 87.06576355 -15 88 C-15.020625 86.9275 -15.04125 85.855 -15.0625 84.75 C-15.01368553 81.82113155 -14.81358866 79.74586172 -14 77 C-14 76.34 -14 75.68 -14 75 C-12.6875 73.375 -12.6875 73.375 -11 72 C-10.01 72 -9.02 72 -8 72 C-6.51844938 66.159389 -6.51844938 66.159389 -6 60.1875 C-6 58 -6 58 -5.03125 56.19921875 C-3.80387613 53.58175099 -3.66126747 51.50362442 -3.5 48.625 C-3.32928404 45.59479164 -3.08070016 43.21364367 -2.00439453 40.36425781 C-0.78091623 36.26617054 -0.64903192 32.57184241 -0.5859375 28.3203125 C-0.56657135 27.50754852 -0.5472052 26.69478455 -0.5272522 25.85739136 C-0.46782117 23.28003188 -0.42121819 20.70262685 -0.375 18.125 C-0.33678657 16.36977298 -0.29773291 14.61456403 -0.2578125 12.859375 C-0.16215001 8.57306476 -0.07798551 4.28666681 0 0 Z M-27 97 C-26 99 -26 99 -26 99 Z " fill="#F7A92E" transform="translate(167,224)"/>
<path d="M0 0 C0.66 0.33 1.32 0.66 2 1 C1.67 1.33 1.34 1.66 1 2 C1.99 2.99 2.98 3.98 4 5 C3.34 5.33 2.68 5.66 2 6 C1.67 6.66 1.34 7.32 1 8 C-1.01822917 7.96744792 -3.03645833 7.93489583 -5.0546875 7.90234375 C-7.08185404 7.87350758 -7.08185404 7.87350758 -9 9 C-10.60875 8.938125 -10.60875 8.938125 -12.25 8.875 C-16.3163518 9.01054506 -18.52752657 9.96733263 -22 12 C-22 12.99 -22 13.98 -22 15 C-22 16.32 -22 17.64 -22 19 C-24.8125 19.25 -24.8125 19.25 -28 19 C-29.875 17 -29.875 17 -31 15 C-34.86509265 17.44789201 -35.13406332 18.33515829 -37 23 C-42.94 22.01 -42.94 22.01 -49 21 C-48.67 20.34 -48.34 19.68 -48 19 C-50.64 18.67 -53.28 18.34 -56 18 C-52.85316907 16.26928967 -49.81831253 15.33989293 -46.3359375 14.484375 C-45.22186523 14.20561523 -44.10779297 13.92685547 -42.95996094 13.63964844 C-41.77692383 13.34606445 -40.59388672 13.05248047 -39.375 12.75 C-31.08467055 10.64813295 -22.85755397 8.48107598 -14.75 5.75 C-13.70851807 5.39953613 -13.70851807 5.39953613 -12.64599609 5.04199219 C-9.40399778 3.92096482 -6.26105456 2.68283348 -3.140625 1.265625 C-2.10421875 0.84796875 -1.0678125 0.4303125 0 0 Z " fill="#F66B16" transform="translate(238,151)"/>
<path d="M0 0 C0.33 0 0.66 0 1 0 C1.103125 0.94875 1.20625 1.8975 1.3125 2.875 C1.68539295 6.29107501 1.68539295 6.29107501 5 8 C4.67 9.65 4.34 11.3 4 13 C4.66 13 5.32 13 6 13 C6 12.01 6 11.02 6 10 C6.99 10 7.98 10 9 10 C9.66 8.35 10.32 6.7 11 5 C12.32 5.33 13.64 5.66 15 6 C14.56429687 6.46148437 14.12859375 6.92296875 13.6796875 7.3984375 C6.40820655 15.36244044 1.65908339 23.88371063 -2 34 C-2.33 34 -2.66 34 -3 34 C-3.19622241 29.78121808 -2.80230168 26.82989106 -1 23 C-2.32 23 -3.64 23 -5 23 C-5.33 23.99 -5.66 24.98 -6 26 C-6.66 26 -7.32 26 -8 26 C-5.81916817 5.81916817 -5.81916817 5.81916817 0 0 Z " fill="#050203" transform="translate(134,182)"/>
<path d="M0 0 C0.99 0.66 1.98 1.32 3 2 C-13.80056587 22.2436448 -36.01310098 28.33400266 -61.18774414 31.82983398 C-67.62272711 32.78613927 -73.37275504 34.62352854 -79.41015625 37.01171875 C-82 38 -82 38 -84 38 C-84 37.34 -84 36.68 -84 36 C-73.86769601 32.36834983 -63.87036344 29.30262457 -53.28393555 27.29394531 C-50.21350949 26.70671437 -47.39384011 26.15925106 -44.48828125 24.984375 C-40.24335301 23.30506273 -35.73088353 22.85062245 -31.23828125 22.14453125 C-27.24785483 21.4877 -23.70659215 20.70620909 -20 19 C-20 18.34 -20 17.68 -20 17 C-17.09399739 15.74335022 -15.20395416 15 -12 15 C-10.5393715 12.35261084 -10 11.10551666 -10 8 C-9.67 7.01 -9.34 6.02 -9 5 C-8.01 5 -7.02 5 -6 5 C-6 5.66 -6 6.32 -6 7 C-5.01 7 -4.02 7 -3 7 C-3.20625 6.38125 -3.4125 5.7625 -3.625 5.125 C-3.74875 4.42375 -3.8725 3.7225 -4 3 C-3.34 2.34 -2.68 1.68 -2 1 C-1.505 1.99 -1.505 1.99 -1 3 C-0.67 2.01 -0.34 1.02 0 0 Z " fill="#D78434" transform="translate(258,113)"/>
<path d="M0 0 C0.98120464 3.05263664 0.98120464 4.94736336 0 8 C0.66 8 1.32 8 2 8 C2 9.65 2 11.3 2 13 C1.34 13 0.68 13 0 13 C-0.13277344 14.12019531 -0.26554688 15.24039063 -0.40234375 16.39453125 C-0.58056569 17.86720729 -0.75896011 19.33986247 -0.9375 20.8125 C-1.02451172 21.55048828 -1.11152344 22.28847656 -1.20117188 23.04882812 C-1.58216546 26.16733121 -2.00369374 29.01108122 -3 32 C-3.062671 34.87688125 -3.06653781 37.72676168 -3.02172852 40.60229492 C-3.01212097 41.48055435 -3.00251343 42.35881378 -2.99261475 43.26368713 C-2.95960904 46.16936215 -2.91928259 49.07488757 -2.87890625 51.98046875 C-2.85460668 53.99399791 -2.83076304 56.00753263 -2.80735779 58.02107239 C-2.74450071 63.32297076 -2.67543859 68.62477098 -2.60510254 73.92657471 C-2.53443381 79.33576993 -2.46960809 84.74503478 -2.40429688 90.15429688 C-2.27526358 100.76960778 -2.13967776 111.3848242 -2 122 C-2.66 122 -3.32 122 -4 122 C-4.0154612 120.7863678 -4.0154612 120.7863678 -4.03123474 119.54821777 C-4.12948589 111.89824717 -4.23203776 104.2483517 -4.33933926 96.59850311 C-4.3943455 92.66628136 -4.44772792 88.73405194 -4.49731445 84.80175781 C-4.54528933 81.00212123 -4.59764055 77.20256717 -4.65294075 73.4030304 C-4.67321533 71.95829848 -4.69195143 70.51354407 -4.70907402 69.06877136 C-4.7940413 61.97910136 -4.97291377 55.02450001 -6 48 C-7.05238606 31.19956379 -5.50374713 15.91624169 0 0 Z " fill="#C3772D" transform="translate(131,216)"/>
<path d="M0 0 C0.66 0 1.32 0 2 0 C2.0292483 3.20831391 2.04688189 6.41659307 2.0625 9.625 C2.07087891 10.52863281 2.07925781 11.43226563 2.08789062 12.36328125 C2.10491895 17.02904289 1.96829423 21.41013285 1 26 C0.67 26 0.34 26 0 26 C0 23.36 0 20.72 0 18 C-1.91635217 17.94576362 -3.83314925 17.90710037 -5.75 17.875 C-6.81734375 17.85179687 -7.8846875 17.82859375 -8.984375 17.8046875 C-11.97501594 17.99838186 -13.44057851 18.56313179 -16 20 C-18.75 20.125 -18.75 20.125 -21 20 C-21.268125 20.804375 -21.53625 21.60875 -21.8125 22.4375 C-22.204375 23.283125 -22.59625 24.12875 -23 25 C-26.28976808 26.09658936 -27.71303767 25.79953138 -31 25 C-27.71295655 22.35747488 -24.21856621 20.47653519 -20.5 18.5 C-15.20487645 15.57973551 -10.63490053 12.2860848 -6.1875 8.1875 C-5.67832031 7.71957031 -5.16914063 7.25164062 -4.64453125 6.76953125 C-2.30129021 4.52985888 -1.04132757 3.1239827 0 0 Z " fill="#F56713" transform="translate(271,126)"/>
<path d="M0 0 C1.13441522 3.82161154 0.61768994 5.33891223 -1 9 C-2.59592698 14.14029492 -3.701801 19.26352613 -4.625 24.5625 C-4.7590625 25.29146484 -4.893125 26.02042969 -5.03125 26.77148438 C-5.75986206 30.90152517 -6.14641767 34.78716426 -6 39 C-4.68 39.33 -3.36 39.66 -2 40 C-2.495 38.515 -2.495 38.515 -3 37 C-2.195625 36.7525 -1.39125 36.505 -0.5625 36.25 C2.171081 35.27761141 2.171081 35.27761141 2.8125 32.875 C2.874375 32.25625 2.93625 31.6375 3 31 C4.32 30.67 5.64 30.34 7 30 C6.46375 30.78375 5.9275 31.5675 5.375 32.375 C4.58150128 33.58213103 3.79008724 34.79063334 3 36 C2.27683594 37.07314453 2.27683594 37.07314453 1.5390625 38.16796875 C-3.59811695 46.16058551 -6.26286449 54.69514542 -8 64 C-8.33 64 -8.66 64 -9 64 C-9.10079067 59.32680172 -9.17234648 54.6542701 -9.21972656 49.98022461 C-9.23952916 48.39873199 -9.26657891 46.8173093 -9.30175781 45.23608398 C-9.65228367 29.04488233 -6.92786016 14.73589928 0 0 Z " fill="#F29426" transform="translate(135,141)"/>
<path d="M0 0 C0.66 0 1.32 0 2 0 C1.65930765 3.15140423 1.41923159 4.60781561 -0.9375 6.8125 C-3 8 -3 8 -5 8 C-4.79375 8.5775 -4.5875 9.155 -4.375 9.75 C-3.91338739 12.51967567 -4.57055055 13.64561267 -6 16 C-6.5775 15.79375 -7.155 15.5875 -7.75 15.375 C-10.02757055 14.76871373 -10.02757055 14.76871373 -12 16 C-14 17 -14 17 -15.9375 16.5 C-18.79284518 15.80779511 -20.35856754 16.84860636 -23 18 C-23.99 18 -24.98 18 -26 18 C-27.134375 18.350625 -28.26875 18.70125 -29.4375 19.0625 C-32.87065774 19.96596256 -33.81395751 20.00132764 -37 19 C-35.90300781 18.60167969 -34.80601562 18.20335938 -33.67578125 17.79296875 C-32.22125618 17.25807888 -30.76683452 16.72290775 -29.3125 16.1875 C-28.59126953 15.92646484 -27.87003906 15.66542969 -27.12695312 15.39648438 C-23.13255897 13.91910572 -19.6023071 12.30501323 -16 10 C-14.84338678 9.33623564 -13.68290926 8.67917875 -12.51953125 8.02734375 C-11.91302734 7.68509766 -11.30652344 7.34285156 -10.68164062 6.99023438 C-9.42497835 6.28245907 -8.16714342 5.57676222 -6.90820312 4.87304688 C-4.32576141 3.41196488 -2.10866999 2.10866999 0 0 Z " fill="#F96714" transform="translate(261,72)"/>
<path d="M0 0 C0.66 0 1.32 0 2 0 C2.64149902 27.12115293 2.64149902 27.12115293 -2 35 C-2.99 35 -3.98 35 -5 35 C-5.33 36.32 -5.66 37.64 -6 39 C-6.33 39 -6.66 39 -7 39 C-7.37570445 31.73638071 -7.37570445 31.73638071 -5.4375 27.9375 C-3.61268667 24.20853363 -4.12422953 21.98077487 -5 18 C-4.0409375 17.5359375 -4.0409375 17.5359375 -3.0625 17.0625 C0.09768575 13.90231425 -0.18099207 10.31666092 0 6 C-1.32 6.99 -2.64 7.98 -4 9 C-4.66 8.67 -5.32 8.34 -6 8 C-5.38125 7.236875 -4.7625 6.47375 -4.125 5.6875 C-1.94402948 3.00374191 -1.94402948 3.00374191 0 0 Z " fill="#F67316" transform="translate(271,61)"/>
<path d="M0 0 C0.33 0 0.66 0 1 0 C1.91741325 4.7149593 2.1894884 9.31976014 2.23828125 14.109375 C2.246353 14.8762262 2.25442474 15.64307739 2.26274109 16.4331665 C2.27651133 18.05014839 2.28726474 19.66715848 2.29516602 21.28417969 C2.30667228 22.92098647 2.32710286 24.55775613 2.35668945 26.19433594 C2.67139288 43.64191588 2.67139288 43.64191588 -2 52 C-1.34 52.33 -0.68 52.66 0 53 C-0.33 53.99 -0.66 54.98 -1 56 C-1.66 56 -2.32 56 -3 56 C-2.9175 56.969375 -2.835 57.93875 -2.75 58.9375 C-2.71005093 63.81128713 -4.83373385 67.73516351 -7 72 C-7.66 72 -8.32 72 -9 72 C-8.81824219 71.3915625 -8.63648438 70.783125 -8.44921875 70.15625 C-6.07258344 61.8684961 -4.44166238 53.49245934 -3 45 C-2.74621582 43.60793335 -2.74621582 43.60793335 -2.48730469 42.18774414 C-0.944806 33.1728051 -0.57289638 24.30619399 -0.375 15.1875 C-0.33669318 13.70505841 -0.29763481 12.22263603 -0.2578125 10.74023438 C-0.16324363 7.16033522 -0.07872982 3.58028674 0 0 Z " fill="#4E220C" transform="translate(168,232)"/>
<path d="M0 0 C0.94875 0.04125 1.8975 0.0825 2.875 0.125 C-5.03413599 8.66299695 -19.00030489 11.64933713 -30 13.4375 C-31.01835937 13.61861328 -32.03671875 13.79972656 -33.0859375 13.98632812 C-41.2521769 15.36706729 -41.2521769 15.36706729 -45.125 14.125 C-44.155625 13.83625 -43.18625 13.5475 -42.1875 13.25 C-39.01835797 12.48285318 -39.01835797 12.48285318 -38.125 10.125 C-37.073125 10.16625 -36.02125 10.2075 -34.9375 10.25 C-31.28720507 10.35300942 -31.28720507 10.35300942 -28.76171875 9.15234375 C-25.79090887 7.9948282 -23.30062418 7.75287543 -20.125 7.5625 C-16.36570495 7.32754406 -12.80426515 6.94336596 -9.125 6.125 C-9.62 4.64 -9.62 4.64 -10.125 3.125 C-9.34125 3.00125 -8.5575 2.8775 -7.75 2.75 C-4.20286101 1.9054431 -3.8004963 0.15201985 0 0 Z " fill="#E3872F" transform="translate(243.125,193.875)"/>
<path d="M0 0 C0.66 0.33 1.32 0.66 2 1 C0.576875 1.8971875 0.576875 1.8971875 -0.875 2.8125 C-4.13964197 4.81562526 -4.13964197 4.81562526 -6 8 C-6 9.32 -6 10.64 -6 12 C-6.66 12 -7.32 12 -8 12 C-8 13.65 -8 15.3 -8 17 C-10 18 -10 18 -13 18 C-14.56858296 18.30342192 -16.13113523 18.63910382 -17.6875 19 C-18.49574219 19.185625 -19.30398437 19.37125 -20.13671875 19.5625 C-20.75160156 19.706875 -21.36648437 19.85125 -22 20 C-18.24907283 11.72271359 -10.34517839 6.86682274 -3 2 C-2.01 1.34 -1.02 0.68 0 0 Z " fill="#F96C14" transform="translate(166,108)"/>
<path d="M0 0 C0.33 0 0.66 0 1 0 C2.08398184 55.92929359 2.08398184 55.92929359 -5 69 C-6.778697 59.43950362 -6.778697 59.43950362 -5.01953125 56.1875 C-3.80296939 53.57725232 -3.66066231 51.49282231 -3.5 48.625 C-3.32928404 45.59479164 -3.08070016 43.21364367 -2.00439453 40.36425781 C-0.78091623 36.26617054 -0.64903192 32.57184241 -0.5859375 28.3203125 C-0.56657135 27.50754852 -0.5472052 26.69478455 -0.5272522 25.85739136 C-0.46782117 23.28003188 -0.42121819 20.70262685 -0.375 18.125 C-0.33678657 16.36977298 -0.29773291 14.61456403 -0.2578125 12.859375 C-0.16215001 8.57306476 -0.07798551 4.28666681 0 0 Z " fill="#E18933" transform="translate(167,224)"/>
<path d="M0 0 C0.33 0 0.66 0 1 0 C1.16829962 5.85308693 1.32878371 11.70631788 1.48217773 17.55981445 C1.53539221 19.54913022 1.59070402 21.53839107 1.64819336 23.52758789 C1.73068106 26.3945736 1.80550711 29.26167518 1.87890625 32.12890625 C1.90594131 33.01147598 1.93297638 33.89404572 1.96083069 34.80335999 C2.07732246 39.67456085 1.84526558 44.19877766 1 49 C3.31 48.34 5.62 47.68 8 47 C8 46.01 8 45.02 8 44 C10.31 43.34 12.62 42.68 15 42 C15 42.99 15 43.98 15 45 C10.74755426 49.04994832 6.1209212 53 0 53 C0 35.51 0 18.02 0 0 Z " fill="#E99D34" transform="translate(128,284)"/>
<path d="M0 0 C0.33 0 0.66 0 1 0 C0.5202755 6.25758277 -0.98940111 10.95503351 -3.75 16.5625 C-4.08515625 17.27857422 -4.4203125 17.99464844 -4.765625 18.73242188 C-7.07758112 23.54461842 -9.7927736 27.7330432 -13 32 C-13.33 31.01 -13.66 30.02 -14 29 C-12.6875 26.5 -12.6875 26.5 -11 24 C-8.54342155 20.31513232 -8.92368659 18.34986453 -9 14 C-8.70955086 12.65667272 -8.39044206 11.31774196 -8 10 C-8 9.34 -8 8.68 -8 8 C-6.6875 6.375 -6.6875 6.375 -5 5 C-4.01 5 -3.02 5 -2 5 C-1.34 3.35 -0.68 1.7 0 0 Z " fill="#DFA43F" transform="translate(161,291)"/>
<path d="M0 0 C0.66 0.33 1.32 0.66 2 1 C-2.41626091 4.51036123 -5.50989469 5.48116794 -11.14453125 5.7265625 C-12.06298828 5.86191406 -12.06298828 5.86191406 -13 6 C-13.33 6.66 -13.66 7.32 -14 8 C-17.4568819 8.68835066 -20.89904341 9.21012998 -24.390625 9.6796875 C-28.3068838 10.28008955 -31.3625477 11.0174035 -34.76953125 13.08984375 C-37.88856582 14.93410966 -39.07227706 15.46388966 -42.5625 15.1875 C-46.19375421 15.00718087 -49.41733129 15.2650936 -53 16 C-50.03529948 13.50665282 -47.64839521 12.43923984 -43.87890625 11.60546875 C-42.87037598 11.37496826 -41.8618457 11.14446777 -40.82275391 10.90698242 C-39.74687012 10.66955322 -38.67098633 10.43212402 -37.5625 10.1875 C-29.01724447 8.22544549 -20.54704949 6.12751911 -12.125 3.6875 C-11.24658447 3.43315186 -10.36816895 3.17880371 -9.46313477 2.91674805 C-6.29005561 1.98946559 -3.13650466 1.04550155 0 0 Z " fill="#CE6123" transform="translate(221,92)"/>
<path d="M0 0 C0.625 1.8125 0.625 1.8125 1 4 C0.01 5.485 0.01 5.485 -1 7 C-1.39387788 9.32387947 -1.73486085 11.65793749 -2 14 C-2.99 14.33 -3.98 14.66 -5 15 C-4.34 16.32 -3.68 17.64 -3 19 C-1.68 18.01 -0.36 17.02 1 16 C0.67 17.98 0.34 19.96 0 22 C0.66 22 1.32 22 2 22 C1.54738642 23.43931117 1.08767021 24.87638999 0.625 26.3125 C0.24214844 27.51326172 0.24214844 27.51326172 -0.1484375 28.73828125 C-1 31 -1 31 -3 34 C-3.19622241 29.78121808 -2.80230168 26.82989106 -1 23 C-2.32 23 -3.64 23 -5 23 C-5.33 23.99 -5.66 24.98 -6 26 C-6.66 26 -7.32 26 -8 26 C-5.81916817 5.81916817 -5.81916817 5.81916817 0 0 Z " fill="#170904" transform="translate(134,182)"/>
<path d="M0 0 C1 2 1 2 0.43359375 4.1015625 C-1.96331549 10.17373258 -4.85682356 14.97695544 -9 20 C-9.7425 20.99 -10.485 21.98 -11.25 23 C-11.8275 23.66 -12.405 24.32 -13 25 C-13.66 25 -14.32 25 -15 25 C-15 25.66 -15 26.32 -15 27 C-18.46153846 30 -18.46153846 30 -21 30 C-21 29.01 -21 28.02 -21 27 C-20.34 27 -19.68 27 -19 27 C-18.79375 26.2575 -18.5875 25.515 -18.375 24.75 C-16.60767247 21.21534495 -14.25421712 20.14639853 -11 18 C-10.08531513 15.77862246 -10 14.37601523 -10 12 C-9.34 12 -8.68 12 -8 12 C-7.67 11.01 -7.34 10.02 -7 9 C-4.9375 8.3125 -4.9375 8.3125 -3 8 C-2.690625 6.865625 -2.38125 5.73125 -2.0625 4.5625 C-1 1 -1 1 0 0 Z " fill="#D98337" transform="translate(267,164)"/>
<path d="M0 0 C0.99 0 1.98 0 3 0 C3.33 0.99 3.66 1.98 4 3 C4.33 2.01 4.66 1.02 5 0 C5.99 0 6.98 0 8 0 C7.35534798 4.33304076 5.81074878 7.86672065 3.9375 11.8125 C3.38964844 12.97394531 2.84179688 14.13539062 2.27734375 15.33203125 C1.85582031 16.21246094 1.43429687 17.09289062 1 18 C0.67 18 0.34 18 0 18 C0 15.36 0 12.72 0 10 C-1.32 9.34 -2.64 8.68 -4 8 C-3.625 6.0625 -3.625 6.0625 -3 4 C-2.34 3.67 -1.68 3.34 -1 3 C-0.67 2.01 -0.34 1.02 0 0 Z " fill="#EE7922" transform="translate(261,96)"/>
<path d="M0 0 C2 3 2 3 2 5 C0.34928604 6.02611949 -1.31970006 7.02308143 -3 8 C-5.14694421 9.90839485 -6.37477365 11.56216047 -8 14 C-9.02419017 14.94414598 -10.08109183 15.85346802 -11.16015625 16.734375 C-15.11551782 20.05289977 -18.78623652 23.60260029 -22.4375 27.25 C-23.07365234 27.87390625 -23.70980469 28.4978125 -24.36523438 29.140625 C-24.96529297 29.73875 -25.56535156 30.336875 -26.18359375 30.953125 C-26.72556396 31.49098633 -27.26753418 32.02884766 -27.82592773 32.58300781 C-29.21267187 33.94997554 -29.21267187 33.94997554 -29 36 C-30.98 36 -32.96 36 -35 36 C-31.57572221 32.52600493 -28.06112549 29.2061581 -24.4375 25.9375 C-15.61646084 17.89690042 -6.82354228 9.85622774 0 0 Z " fill="#D8D8D8" transform="translate(357,323)"/>
<path d="M0 0 C4.37821909 -0.0740719 8.75610782 -0.12856375 13.13476562 -0.16479492 C14.62473909 -0.179896 16.11466801 -0.20037858 17.60449219 -0.22631836 C19.7442523 -0.26264584 21.88342566 -0.27971221 24.0234375 -0.29296875 C25.31169434 -0.3086792 26.59995117 -0.32438965 27.92724609 -0.34057617 C28.94125488 -0.22818604 29.95526367 -0.1157959 31 0 C31.66 0.99 32.32 1.98 33 3 C32.67 3.66 32.34 4.32 32 5 C24.76252805 4.33346916 17.57280969 3.4417338 10.375 2.4375 C8.86873047 2.22963867 8.86873047 2.22963867 7.33203125 2.01757812 C4.88778676 1.6800396 2.44378839 1.34082223 0 1 C0 0.67 0 0.34 0 0 Z " fill="#E0E0E0" transform="translate(214,0)"/>
<path d="M0 0 C0 3.30941204 -0.40339294 5.11090151 -2 8 C-4.625 8.8125 -4.625 8.8125 -7 9 C-6.67 9.99 -6.34 10.98 -6 12 C-6.66 12 -7.32 12 -8 12 C-8 14.97 -8 17.94 -8 21 C-8.99 21.33 -9.98 21.66 -11 22 C-11.33 20.35 -11.66 18.7 -12 17 C-12.33 17.66 -12.66 18.32 -13 19 C-13.66 18.67 -14.32 18.34 -15 18 C-10.58980237 11.27444862 -5.89289258 5.47962479 0 0 Z " fill="#DB6823" transform="translate(153,183)"/>
<path d="M0 0 C0 0.66 0 1.32 0 2 C-1.89925843 2.71222191 -3.79871471 3.42392112 -5.69921875 4.1328125 C-7.20574541 4.70063749 -8.70856867 5.27841105 -10.20703125 5.8671875 C-15.68125 8 -15.68125 8 -19 8 C-19 13.94 -19 19.88 -19 26 C-19.33 26 -19.66 26 -20 26 C-20.84023188 21.64667264 -21.10770995 17.55557481 -21.0625 13.125 C-21.05347656 11.97257813 -21.04445312 10.82015625 -21.03515625 9.6328125 C-21.02355469 8.76398438 -21.01195312 7.89515625 -21 7 C-3.97969543 0 -3.97969543 0 0 0 Z " fill="#250901" transform="translate(189,212)"/>
<path d="M0 0 C0.66 0 1.32 0 2 0 C2.0292483 3.20831391 2.04688189 6.41659307 2.0625 9.625 C2.07087891 10.52863281 2.07925781 11.43226563 2.08789062 12.36328125 C2.10491895 17.02904289 1.96829423 21.41013285 1 26 C0.67 26 0.34 26 0 26 C-0.33 20.06 -0.66 14.12 -1 8 C-1.99 8 -2.98 8 -4 8 C-4 8.99 -4 9.98 -4 11 C-5.65 11.33 -7.3 11.66 -9 12 C-8.60167969 11.55269531 -8.20335937 11.10539063 -7.79296875 10.64453125 C-5.35411675 7.86151035 -3.14996141 5.25172094 -1.25 2.0625 C-0.8375 1.381875 -0.425 0.70125 0 0 Z " fill="#B05928" transform="translate(271,126)"/>
<path d="M0 0 C-2.61188669 1.52360057 -5.07528425 2.28816945 -8 2.9375 C-10.5899127 3.53736949 -11.87369749 3.90132617 -14 5.5625 C-17.10455833 7.7939013 -20.22203079 7.63439008 -24 8 C-24.99 8.495 -24.99 8.495 -26 9 C-28.69565202 8.83219837 -31.32405554 8.38844355 -34 8 C-28.55667194 4.99698339 -22.41312462 3.86150607 -16.4375 2.3125 C-15.19291016 1.97927734 -13.94832031 1.64605469 -12.66601562 1.30273438 C-10.8803418 0.83770508 -10.8803418 0.83770508 -9.05859375 0.36328125 C-7.42361938 -0.06537231 -7.42361938 -0.06537231 -5.75561523 -0.50268555 C-3 -1 -3 -1 0 0 Z " fill="#D05D25" transform="translate(216,161)"/>
<path d="M0 0 C1.13441522 3.82161154 0.61768994 5.33891223 -1 9 C-2.36738671 13.4440068 -3.4440554 17.90581217 -4.42578125 22.4453125 C-5.52144809 27.31991193 -6.77096812 32.15761439 -8 37 C-8.33 37 -8.66 37 -9 37 C-9.17299283 31.28482944 -8.67537016 26.29323696 -7.3125 20.75 C-7.13750977 20.0185376 -6.96251953 19.2870752 -6.78222656 18.53344727 C-5.15794228 12.05260969 -2.84517841 6.0518344 0 0 Z " fill="#CF772C" transform="translate(135,141)"/>
<path d="M0 0 C0 3 0 3 -1.328125 4.40234375 C-1.96234375 4.90894531 -2.5965625 5.41554687 -3.25 5.9375 C-7.21457529 9.24606643 -10.86816454 12.7738725 -14.5 16.4375 C-15.04043945 16.98204834 -15.58087891 17.52659668 -16.13769531 18.08764648 C-17.42716016 19.38975721 -18.7138786 20.69458678 -20 22 C-20 18.40142046 -19.04169485 16.90548882 -17 14 C-16.34 14 -15.68 14 -15 14 C-14.731875 13.360625 -14.46375 12.72125 -14.1875 12.0625 C-13 10 -13 10 -10 9 C-9.67 8.01 -9.34 7.02 -9 6 C-6.93359375 4.39453125 -6.93359375 4.39453125 -4.4375 2.8125 C-3.61121094 2.28269531 -2.78492188 1.75289062 -1.93359375 1.20703125 C-1.29550781 0.80871094 -0.65742188 0.41039062 0 0 Z " fill="#F66109" transform="translate(156,226)"/>
<path d="M0 0 C0.33 0 0.66 0 1 0 C1 2.64 1 5.28 1 8 C2.32 8 3.64 8 5 8 C5 7.01 5 6.02 5 5 C5.66 5 6.32 5 7 5 C6.566875 6.216875 6.13375 7.43375 5.6875 8.6875 C3.67573096 14.68448771 2.34557312 20.82563257 1 27 C0.67 27 0.34 27 0 27 C0 18.09 0 9.18 0 0 Z " fill="#E49837" transform="translate(126,178)"/>
<path d="M0 0 C0 0.33 0 0.66 0 1 C-0.65371582 1.09498779 -1.30743164 1.18997559 -1.98095703 1.2878418 C-19.12176772 3.82405352 -19.12176772 3.82405352 -35.5859375 9.046875 C-38 10 -38 10 -40 10 C-40 9.34 -40 8.68 -40 8 C-26.53030146 3.28782823 -14.43501649 -0.50257311 0 0 Z " fill="#C7782F" transform="translate(214,141)"/>
<path d="M0 0 C0.66 0.99 1.32 1.98 2 3 C1.35561283 4.67540664 0.68753301 6.34183216 0 8 C0.28739925 10.24240782 0.28739925 10.24240782 1 12 C0.2575 12.433125 -0.485 12.86625 -1.25 13.3125 C-3.9759487 14.8981141 -3.9759487 14.8981141 -6.125 16.75 C-6.74375 17.1625 -7.3625 17.575 -8 18 C-8.99 17.67 -9.98 17.34 -11 17 C-10.54109375 16.443125 -10.0821875 15.88625 -9.609375 15.3125 C-5.66702243 10.40940605 -2.60339378 5.72746633 0 0 Z " fill="#231508" transform="translate(156,308)"/>
<path d="M0 0 C0.66 0 1.32 0 2 0 C1.72285156 1.15757812 1.44570312 2.31515625 1.16015625 3.5078125 C0.79416563 5.04684999 0.42828609 6.58591389 0.0625 8.125 C-0.11990234 8.88554687 -0.30230469 9.64609375 -0.49023438 10.4296875 C-2.27138226 17.94289313 -3.20837634 25.16555371 -3.5625 32.875 C-3.60568359 33.75414062 -3.64886719 34.63328125 -3.69335938 35.5390625 C-3.79869339 37.69255797 -3.89977649 39.84626064 -4 42 C-7.73961204 35.42729259 -6.00025719 27.25301701 -5.1875 20 C-5.10056885 19.21689453 -5.0136377 18.43378906 -4.92407227 17.62695312 C-4.16465743 11.34232113 -2.85662146 5.71324291 0 0 Z " fill="#1E0400" transform="translate(129,217)"/>
<path d="M0 0 C-0.639375 0.28875 -1.27875 0.5775 -1.9375 0.875 C-4.15206079 1.82823451 -4.15206079 1.82823451 -5 4 C-8.59809689 5.77668017 -11.83332501 6.3373488 -15.8125 6.625 C-16.78832031 6.69976562 -17.76414063 6.77453125 -18.76953125 6.8515625 C-19.87361328 6.92503906 -19.87361328 6.92503906 -21 7 C-18 5 -18 5 -15 5 C-14.77183594 4.36707031 -14.54367188 3.73414063 -14.30859375 3.08203125 C-13 1 -13 1 -10.72265625 0.13671875 C-9.84480469 -0.01152344 -8.96695313 -0.15976563 -8.0625 -0.3125 C-7.18722656 -0.47363281 -6.31195313 -0.63476562 -5.41015625 -0.80078125 C-3 -1 -3 -1 0 0 Z " fill="#F98A1F" transform="translate(239,196)"/>
<path d="M0 0 C1 3 1 3 -0.125 5.625 C-2 8 -2 8 -4.6875 8.8125 C-5.450625 8.874375 -6.21375 8.93625 -7 9 C-7.66 10.98 -8.32 12.96 -9 15 C-11.64 14.34 -14.28 13.68 -17 13 C-12.66011748 9.56425967 -7.88788003 6.27376137 -2.8125 4.03515625 C-0.6523439 3.06864474 -0.6523439 3.06864474 0 0 Z " fill="#2A1605" transform="translate(144,326)"/>
<path d="M0 0 C-0.0625 1.75 -0.0625 1.75 -1 4 C-4.09487075 6.28336223 -7.36308926 7.78769642 -11 9 C-11 9.66 -11 10.32 -11 11 C-14.98060777 12.17076699 -18.91621717 13.25749403 -23 14 C-20.66848725 10.50273087 -19.07413084 9.8713029 -15.3125 8.125 C-11.60641037 6.34536512 -8.17510006 4.58088842 -4.875 2.125 C-2 0 -2 0 0 0 Z " fill="#D56126" transform="translate(263,72)"/>
<path d="M0 0 C-3 2 -3 2 -5 2 C-5 2.66 -5 3.32 -5 4 C-4.34 4.33 -3.68 4.66 -3 5 C-8.28 5 -13.56 5 -19 5 C-17.69453228 2.38906455 -16.72009785 2.31003364 -14 1.375 C-9.1842075 -0.1632708 -5.02821785 -0.23943895 0 0 Z " fill="#E3661D" transform="translate(187,169)"/>
<path d="M0 0 C0.66 0 1.32 0 2 0 C2.18451025 16.70842825 2.18451025 16.70842825 1 25 C0.67 25 0.34 25 0 25 C0 18.73 0 12.46 0 6 C-1.32 6.99 -2.64 7.98 -4 9 C-4.66 8.67 -5.32 8.34 -6 8 C-5.38125 7.236875 -4.7625 6.47375 -4.125 5.6875 C-1.94402948 3.00374191 -1.94402948 3.00374191 0 0 Z " fill="#B55A29" transform="translate(271,61)"/>
<path d="M0 0 C1.67542976 0.28604898 3.34385343 0.61781233 5 1 C4.67 1.99 4.34 2.98 4 4 C6.64 4 9.28 4 12 4 C9.39104541 6.60895459 7.01733462 7.10973264 3.5 8.1875 C1.75203125 8.73470703 1.75203125 8.73470703 -0.03125 9.29296875 C-3 10 -3 10 -5 9 C-4.34 8.34 -3.68 7.68 -3 7 C-2.01 7 -1.02 7 0 7 C-0.185625 6.030625 -0.37125 5.06125 -0.5625 4.0625 C-0.706875 3.051875 -0.85125 2.04125 -1 1 C-0.67 0.67 -0.34 0.34 0 0 Z " fill="#DC7D25" transform="translate(172,209)"/>
<path d="M0 0 C0.33 0.99 0.66 1.98 1 3 C1.66 3.33 2.32 3.66 3 4 C2.67 4.99 2.34 5.98 2 7 C1.34 7 0.68 7 0 7 C0.0825 7.969375 0.165 8.93875 0.25 9.9375 C0.28994907 14.81128713 -1.83373385 18.73516351 -4 23 C-4.66 23 -5.32 23 -6 23 C-5.81824219 22.34515625 -5.63648438 21.6903125 -5.44921875 21.015625 C-3.52672958 14.03551046 -1.72994005 7.0301819 0 0 Z " fill="#2B1204" transform="translate(165,281)"/>
<path d="M0 0 C0.99 0.66 1.98 1.32 3 2 C1.76421715 3.51173435 0.51082994 5.0090916 -0.75 6.5 C-1.44609375 7.3353125 -2.1421875 8.170625 -2.859375 9.03125 C-5 11 -5 11 -9 11 C-9.33 9.35 -9.66 7.7 -10 6 C-8.68 5.67 -7.36 5.34 -6 5 C-6 5.66 -6 6.32 -6 7 C-5.01 7 -4.02 7 -3 7 C-3.20625 6.38125 -3.4125 5.7625 -3.625 5.125 C-3.74875 4.42375 -3.8725 3.7225 -4 3 C-3.34 2.34 -2.68 1.68 -2 1 C-1.67 1.66 -1.34 2.32 -1 3 C-0.67 2.01 -0.34 1.02 0 0 Z " fill="#EA8328" transform="translate(258,113)"/>
<path d="M0 0 C1.4540625 0.0309375 1.4540625 0.0309375 2.9375 0.0625 C0.3439286 2.6560714 -2.67980858 3.97678055 -5.9375 5.5625 C-6.56269531 5.87058594 -7.18789062 6.17867187 -7.83203125 6.49609375 C-9.57418509 7.35427947 -11.31828177 8.20851787 -13.0625 9.0625 C-14.39668476 9.72746109 -15.73050804 10.39315731 -17.0625 11.0625 C-17.0625 10.0725 -17.0625 9.0825 -17.0625 8.0625 C-16.0725 8.0625 -15.0825 8.0625 -14.0625 8.0625 C-13.95421875 7.12470703 -13.95421875 7.12470703 -13.84375 6.16796875 C-13.0625 4.0625 -13.0625 4.0625 -11.03125 3.05078125 C-10.2165625 2.82777344 -9.401875 2.60476562 -8.5625 2.375 C-0.19077129 0.00389329 -0.19077129 0.00389329 0 0 Z " fill="#E1852D" transform="translate(170.0625,150.9375)"/>
<path d="M0 0 C0.66 0.33 1.32 0.66 2 1 C3.00504101 6.29930714 3.08978181 10.66006913 2 16 C1.67 16.33 1.34 16.66 1 17 C0.76807135 18.51469448 0.58784762 20.03754562 0.4375 21.5625 C0.35371094 22.38878906 0.26992188 23.21507813 0.18359375 24.06640625 C0.12300781 24.70449219 0.06242187 25.34257813 0 26 C-0.66 26 -1.32 26 -2 26 C-1.34 17.42 -0.68 8.84 0 0 Z " fill="#280801" transform="translate(273,64)"/>
<path d="M0 0 C1 3 1 3 -0.3125 6.125 C-2 9 -2 9 -4 10 C-4.67784992 12.33010909 -5.34416793 14.66359824 -6 17 C-6.66 17.66 -7.32 18.32 -8 19 C-8.85297271 15.58810914 -9.0420556 13.3577347 -8 10 C-8 9.34 -8 8.68 -8 8 C-6.6875 6.375 -6.6875 6.375 -5 5 C-4.01 5 -3.02 5 -2 5 C-1.34 3.35 -0.68 1.7 0 0 Z " fill="#F6A428" transform="translate(161,291)"/>
<path d="M0 0 C-1 2 -1 2 -2.93359375 2.8515625 C-9.10587734 4.75813372 -14.5543339 5.37028295 -21 5 C-16.61480824 2.07653883 -12.47696697 0.74957245 -7.3125 -0.1875 C-6.35988281 -0.36667969 -5.40726563 -0.54585937 -4.42578125 -0.73046875 C-2 -1 -2 -1 0 0 Z " fill="#E88C31" transform="translate(229,136)"/>
<path d="M0 0 C1.08834774 3.31869418 0.86880039 5.54964205 0.125 8.9375 C-1.14006618 15.26283088 -1.61147565 21.56889957 -2 28 C-2.33 28 -2.66 28 -3 28 C-3.08714316 24.08347368 -3.14043985 20.16719689 -3.1875 16.25 C-3.21263672 15.13882813 -3.23777344 14.02765625 -3.26367188 12.8828125 C-3.27333984 11.81289062 -3.28300781 10.74296875 -3.29296875 9.640625 C-3.3086792 8.65610352 -3.32438965 7.67158203 -3.34057617 6.65722656 C-2.94965182 3.60717591 -2.03157056 2.25886277 0 0 Z " fill="#C5C5C5" transform="translate(3,162)"/>
<path d="M0 0 C0.05382106 2.62527189 0.09358313 5.24944713 0.125 7.875 C0.14175781 8.62136719 0.15851563 9.36773437 0.17578125 10.13671875 C0.1933959 12.09194461 0.10320189 14.04742021 0 16 C-0.66 16.66 -1.32 17.32 -2 18 C-2 14.7 -2 11.4 -2 8 C-2.66 8 -3.32 8 -4 8 C-4.33 6.35 -4.66 4.7 -5 3 C-1.125 0 -1.125 0 0 0 Z " fill="#EC7022" transform="translate(271,76)"/>
<path d="M0 0 C0.66 0.33 1.32 0.66 2 1 C1.360625 1.103125 0.72125 1.20625 0.0625 1.3125 C-0.618125 1.539375 -1.29875 1.76625 -2 2 C-2.33 2.99 -2.66 3.98 -3 5 C-6.23342024 7.22108774 -9.40374545 7.37415731 -13.25 7.625 C-14.32765625 7.69976562 -15.4053125 7.77453125 -16.515625 7.8515625 C-17.33546875 7.90054688 -18.1553125 7.94953125 -19 8 C-15.98333526 5.98889017 -13.50011273 5.08779834 -10.0625 4 C-5.8006436 2.65584013 -5.8006436 2.65584013 -1.74609375 0.8125 C-0.88177734 0.4103125 -0.88177734 0.4103125 0 0 Z " fill="#CA5B22" transform="translate(235,152)"/>
<path d="M0 0 C0 1.32 0 2.64 0 4 C-0.61875 3.814375 -1.2375 3.62875 -1.875 3.4375 C-4.04160178 2.76313824 -4.04160178 2.76313824 -6 4 C-10.16735187 4.15725856 -13.94441928 3.98317108 -18 3 C-18 2.67 -18 2.34 -18 2 C-11.88019467 0.59545452 -6.28260706 -0.23268915 0 0 Z " fill="#F76A13" transform="translate(208,100)"/>
<path d="M0 0 C1 2 1 2 0.29296875 4.3125 C-0.07183594 5.199375 -0.43664062 6.08625 -0.8125 7 C-1.16957031 7.886875 -1.52664063 8.77375 -1.89453125 9.6875 C-3 12 -3 12 -5 14 C-5.99 14 -6.98 14 -8 14 C-8.33 14.66 -8.66 15.32 -9 16 C-9.33 14.68 -9.66 13.36 -10 12 C-9.34 12 -8.68 12 -8 12 C-7.67 11.01 -7.34 10.02 -7 9 C-4.9375 8.3125 -4.9375 8.3125 -3 8 C-2.690625 6.865625 -2.38125 5.73125 -2.0625 4.5625 C-1 1 -1 1 0 0 Z " fill="#E47C26" transform="translate(267,164)"/>
<path d="M0 0 C0.66 0 1.32 0 2 0 C3.7610915 9.51372259 3.7610915 9.51372259 1.0625 14.125 C0.381875 15.07375 -0.29875 16.0225 -1 17 C-2.3357457 13.22628488 -1.72408671 10.14168653 -1.0625 6.25 C-0.86785156 5.07953125 -0.67320312 3.9090625 -0.47265625 2.703125 C-0.31667969 1.81109375 -0.16070312 0.9190625 0 0 Z " fill="#3F1C07" transform="translate(167,264)"/>
<path d="M0 0 C1.32 0.33 2.64 0.66 4 1 C3.54109375 1.49628906 3.0821875 1.99257812 2.609375 2.50390625 C-1.25719293 6.78474931 -4.33517615 10.88353821 -7 16 C-7.95465783 13.83032311 -8.14401212 12.43671207 -7.3984375 10.17578125 C-6.64129615 8.4315257 -5.82390802 6.71372869 -5 5 C-4.01 5 -3.02 5 -2 5 C-1.34 3.35 -0.68 1.7 0 0 Z " fill="#2A0A01" transform="translate(145,187)"/>
<path d="M0 0 C0.33 0.66 0.66 1.32 1 2 C1.66 2 2.32 2 3 2 C2.4375 4.875 2.4375 4.875 1 8 C-2.625 9.375 -2.625 9.375 -6 10 C-4.6302836 6.00499382 -2.74277578 3.19990508 0 0 Z " fill="#210E07" transform="translate(141,172)"/>
<path d="M0 0 C1.63001953 0.01353516 1.63001953 0.01353516 3.29296875 0.02734375 C4.12441406 0.03894531 4.95585937 0.05054688 5.8125 0.0625 C5.4825 1.3825 5.1525 2.7025 4.8125 4.0625 C4.1525 4.0625 3.4925 4.0625 2.8125 4.0625 C2.8125 3.4025 2.8125 2.7425 2.8125 2.0625 C2.02875 2.2275 1.245 2.3925 0.4375 2.5625 C-4.12716142 3.19210847 -8.58822601 3.14430527 -13.1875 3.0625 C-8.59994623 0.68962736 -5.17838862 -0.0556816 0 0 Z " fill="#200A02" transform="translate(203.1875,208.9375)"/>
<path d="M0 0 C0.33 0.66 0.66 1.32 1 2 C0.67 2.66 0.34 3.32 0 4 C-1.65 4 -3.3 4 -5 4 C-5.268125 4.804375 -5.53625 5.60875 -5.8125 6.4375 C-6.204375 7.283125 -6.59625 8.12875 -7 9 C-10.28976808 10.09658936 -11.71303767 9.79953138 -15 9 C-11.91730861 6.55586611 -8.71528889 4.66890476 -5.25 2.8125 C-4.26515625 2.28269531 -3.2803125 1.75289062 -2.265625 1.20703125 C-1.51796875 0.80871094 -0.7703125 0.41039062 0 0 Z " fill="#D16221" transform="translate(255,142)"/>
<path d="M0 0 C0.33 0.66 0.66 1.32 1 2 C0.67 2.969375 0.34 3.93875 0 4.9375 C-1.33339097 7.99162848 -1.33339097 7.99162848 0 11 C-0.66 11 -1.32 11 -2 11 C-2.33 11.66 -2.66 12.32 -3 13 C-3.33 12.34 -3.66 11.68 -4 11 C-4.33 11.66 -4.66 12.32 -5 13 C-5.66 13 -6.32 13 -7 13 C-5.58832253 7.73829306 -3.25149768 4.27828642 0 0 Z " fill="#DA6E23" transform="translate(143,128)"/>
<path d="M0 0 C-0.36512747 2.7019433 -0.69869237 4.58390852 -2.3125 6.8125 C-4 8 -4 8 -8 8 C-7.8125 5.6875 -7.8125 5.6875 -7 3 C-2.96551724 0 -2.96551724 0 0 0 Z " fill="#F56310" transform="translate(271,67)"/>
<path d="M0 0 C1.32 0.33 2.64 0.66 4 1 C3 6 2 11 1 16 C0.67 16 0.34 16 0 16 C0 10.72 0 5.44 0 0 Z " fill="#FB9626" transform="translate(127,250)"/>
<path d="M0 0 C0.625 1.8125 0.625 1.8125 1 4 C0.01 5.485 0.01 5.485 -1 7 C-1.39387788 9.32387947 -1.73486085 11.65793749 -2 14 C-2.99 14.33 -3.98 14.66 -5 15 C-5.33 15.99 -5.66 16.98 -6 18 C-5.61330541 11.03949747 -3.36561591 6.0605925 0 0 Z " fill="#311404" transform="translate(134,182)"/>
<path d="M0 0 C-3.08997556 2.05998371 -5.98032444 3.28294093 -9.4375 4.625 C-10.57058594 5.07101563 -11.70367187 5.51703125 -12.87109375 5.9765625 C-16 7 -16 7 -20 7 C-20 6.34 -20 5.68 -20 5 C-17.60712296 4.1572257 -15.21128981 3.32562998 -12.8125 2.5 C-11.80219727 2.14228516 -11.80219727 2.14228516 -10.77148438 1.77734375 C-7.06795533 0.51272408 -3.92059464 -0.30451221 0 0 Z " fill="#330800" transform="translate(232,88)"/>
<path d="M0 0 C-3.26651375 1.03502777 -6.53877363 2.05053935 -9.8125 3.0625 C-10.74126953 3.35705078 -11.67003906 3.65160156 -12.62695312 3.95507812 C-13.51962891 4.22900391 -14.41230469 4.50292969 -15.33203125 4.78515625 C-16.15421143 5.04176025 -16.9763916 5.29836426 -17.82348633 5.56274414 C-20 6 -20 6 -23 5 C-20.7596785 2.7596785 -19.89617917 2.58949837 -16.875 2 C-13.7707551 1.37515199 -10.73677169 0.66492304 -7.6875 -0.1875 C-4.24333737 -0.94638329 -3.16991554 -0.98666245 0 0 Z " fill="#260400" transform="translate(222,158)"/>
<path d="M0 0 C0.33 0.66 0.66 1.32 1 2 C1.66 2 2.32 2 3 2 C3.33 3.32 3.66 4.64 4 6 C3.34 6 2.68 6 2 6 C1.01 7.485 1.01 7.485 0 9 C-0.66 7.68 -1.32 6.36 -2 5 C-1.34 5 -0.68 5 0 5 C0 3.35 0 1.7 0 0 Z M-4 6 C-3.34 6 -2.68 6 -2 6 C-2 7.98 -2 9.96 -2 12 C-2.99 12 -3.98 12 -5 12 C-5.33 11.01 -5.66 10.02 -6 9 C-5.34 8.01 -4.68 7.02 -4 6 Z " fill="#F7841E" transform="translate(257,108)"/>
<path d="M0 0 C0.99 0 1.98 0 3 0 C3 0.66 3 1.32 3 2 C4.32 2.66 5.64 3.32 7 4 C3.3321148 5.96189209 0.12751449 7.39301257 -4 8 C-4 7.01 -4 6.02 -4 5 C-3.01 4.67 -2.02 4.34 -1 4 C-0.26676204 1.98491642 -0.26676204 1.98491642 0 0 Z " fill="#1F0805" transform="translate(240,78)"/>
<path d="M0 0 C2 3 2 3 2 5 C0.34928604 6.02611949 -1.31970006 7.02308143 -3 8 C-5.14694421 9.90839485 -6.37477365 11.56216047 -8 14 C-8.99 13.67 -9.98 13.34 -11 13 C-10.06027344 11.96939453 -10.06027344 11.96939453 -9.1015625 10.91796875 C-8.28429687 10.01691406 -7.46703125 9.11585938 -6.625 8.1875 C-5.81289063 7.29417969 -5.00078125 6.40085937 -4.1640625 5.48046875 C-1.90927093 3.00367326 -1.90927093 3.00367326 0 0 Z " fill="#E2E2E2" transform="translate(357,323)"/>
<path d="M0 0 C0.66 0.33 1.32 0.66 2 1 C1.360625 1.2475 0.72125 1.495 0.0625 1.75 C-2.19895007 2.79688294 -2.19895007 2.79688294 -2.5625 5.0625 C-2.706875 5.701875 -2.85125 6.34125 -3 7 C-6.00419641 8.0013988 -8.87709365 8.51421457 -12 9 C-8.33494586 5.00175912 -4.88887148 2.39831431 0 0 Z " fill="#D96527" transform="translate(166,174)"/>
<path d="M0 0 C0.99 0 1.98 0 3 0 C3.66 1.32 4.32 2.64 5 4 C4.01 5.485 4.01 5.485 3 7 C0.375 7.1875 0.375 7.1875 -2 7 C-2.33 5.35 -2.66 3.7 -3 2 C-2.01 2 -1.02 2 0 2 C0 1.34 0 0.68 0 0 Z " fill="#F9871E" transform="translate(205,134)"/>
<path d="M0 0 C0.66 0.33 1.32 0.66 2 1 C1.0925 1.556875 0.185 2.11375 -0.75 2.6875 C-4.04261883 4.79983178 -4.04261883 4.79983178 -6.0625 7.625 C-8.24469886 10.29995345 -9.71302843 11.07290546 -13 12 C-13.99 12 -14.98 12 -16 12 C-14.27427512 10.55836993 -12.5442653 9.12186835 -10.8125 7.6875 C-9.84957031 6.88699219 -8.88664063 6.08648437 -7.89453125 5.26171875 C-5.32832786 3.25654768 -2.90519673 1.47016 0 0 Z " fill="#D06229" transform="translate(166,108)"/>
<path d="M0 0 C0.33 0 0.66 0 1 0 C1.30659554 9.15244471 1.49409003 17.34796755 -2 26 C-3.10345222 22.65078938 -2.86110028 20.36087047 -2.125 16.9375 C-1.00208669 11.30775895 -0.42047954 5.72073479 0 0 Z " fill="#CBCBCB" transform="translate(399,214)"/>
<path d="M0 0 C1.04005702 3.38018531 1.08004482 6.4780279 1 10 C0.01 10.33 -0.98 10.66 -2 11 C-2.33 9.35 -2.66 7.7 -3 6 C-3.33 6.66 -3.66 7.32 -4 8 C-4.66 7.67 -5.32 7.34 -6 7 C-2.25 1.125 -2.25 1.125 0 0 Z " fill="#E47121" transform="translate(144,194)"/>
<path d="M0 0 C0.33 0.66 0.66 1.32 1 2 C-0.11799986 3.33920838 -1.24461897 4.67122556 -2.375 6 C-3.00148438 6.7425 -3.62796875 7.485 -4.2734375 8.25 C-4.84320313 8.8275 -5.41296875 9.405 -6 10 C-6.66 10 -7.32 10 -8 10 C-7.9375 7.25 -7.9375 7.25 -7 4 C-4.77488786 2.23488701 -2.59562397 1.22702224 0 0 Z " fill="#260703" transform="translate(269,62)"/>
<path d="M0 0 C-2.05927956 0.98592155 -4.12256688 1.96347494 -6.1875 2.9375 C-7.33605469 3.48277344 -8.48460937 4.02804688 -9.66796875 4.58984375 C-12.51466736 5.79460131 -14.96027845 6.54776271 -18 7 C-18 6.01 -18 5.02 -18 4 C-17.32453125 3.80664062 -16.6490625 3.61328125 -15.953125 3.4140625 C-14.61507812 3.02347656 -14.61507812 3.02347656 -13.25 2.625 C-12.36828125 2.36976563 -11.4865625 2.11453125 -10.578125 1.8515625 C-8.0178421 1.09663735 -8.0178421 1.09663735 -5.921875 -0.1640625 C-3.53812934 -1.20089496 -2.40134051 -0.85762161 0 0 Z " fill="#300901" transform="translate(244,149)"/>
<path d="M0 0 C0 0.66 0 1.32 0 2 C-2 4 -2 4 -5 6 C-5.33 5.67 -5.66 5.34 -6 5 C-7.68608966 4.92794489 -9.37500659 4.91613932 -11.0625 4.9375 C-11.98160156 4.94652344 -12.90070313 4.95554688 -13.84765625 4.96484375 C-14.55792969 4.97644531 -15.26820313 4.98804688 -16 5 C-13.02025837 3.01350558 -10.86336935 2.27822521 -7.4375 1.375 C-6.46683594 1.11460937 -5.49617187 0.85421875 -4.49609375 0.5859375 C-2 0 -2 0 0 0 Z " fill="#311305" transform="translate(234,136)"/>
<path d="M0 0 C0 0.99 0 1.98 0 3 C-1.134375 2.979375 -2.26875 2.95875 -3.4375 2.9375 C-6.81575674 2.58422523 -6.81575674 2.58422523 -8 4 C-9.66617115 4.04063832 -11.33388095 4.042721 -13 4 C-8.70699742 -0.75296714 -6.19220493 -1.54805123 0 0 Z " fill="#E96121" transform="translate(269,138)"/>
<path d="M0 0 C0.66 0.33 1.32 0.66 2 1 C-2.76000426 4.69388343 -6.42724952 5.73373956 -12.375 6.25 C-13.47908203 6.36601563 -13.47908203 6.36601563 -14.60546875 6.484375 C-16.40217018 6.67104528 -18.20094113 6.83761464 -20 7 C-16.67084676 4.78056451 -13.8506191 3.99240919 -10 2.9375 C-4.97338604 1.55609846 -4.97338604 1.55609846 0 0 Z " fill="#C25923" transform="translate(221,92)"/>
<path d="M0 0 C0.33 0 0.66 0 1 0 C1.06058594 0.97839844 1.12117187 1.95679688 1.18359375 2.96484375 C1.63321512 9.99968883 2.14049365 17.00116259 3 24 C0.89592904 22.30363829 0.06759322 21.45018536 -0.34057617 18.73168945 C-0.32486572 17.86761475 -0.30915527 17.00354004 -0.29296875 16.11328125 C-0.28330078 15.17548828 -0.27363281 14.23769531 -0.26367188 13.27148438 C-0.23853516 12.29501953 -0.21339844 11.31855469 -0.1875 10.3125 C-0.17396484 9.32443359 -0.16042969 8.33636719 -0.14648438 7.31835938 C-0.11112203 4.87835769 -0.06177033 2.43945281 0 0 Z " fill="#C9C9C9" transform="translate(0,210)"/>
<path d="M0 0 C-0.6875 2.4375 -0.6875 2.4375 -2 5 C-5.30476295 6.16113293 -8.51995162 6.09942995 -12 6 C-8.59780735 3.25207517 -4.51535412 0 0 0 Z " fill="#231005" transform="translate(246,130)"/>
<path d="M0 0 C-0.66 1.32 -1.32 2.64 -2 4 C-2.99 4 -3.98 4 -5 4 C-6.7015625 4.5259375 -6.7015625 4.5259375 -8.4375 5.0625 C-11.87065774 5.96596256 -12.81395751 6.00132764 -16 5 C-14.08717875 4.15787744 -12.16957527 3.32661136 -10.25 2.5 C-9.18265625 2.0359375 -8.1153125 1.571875 -7.015625 1.09375 C-4 0 -4 0 0 0 Z " fill="#D26425" transform="translate(240,86)"/>
<path d="M0 0 C0.33 1.32 0.66 2.64 1 4 C-0.06893218 5.03590338 -1.15578488 6.05333942 -2.25 7.0625 C-3.15492188 7.91521484 -3.15492188 7.91521484 -4.078125 8.78515625 C-6 10 -6 10 -8.234375 9.68359375 C-8.81703125 9.45800781 -9.3996875 9.23242188 -10 9 C-5.25 5 -5.25 5 -3 5 C-3 4.34 -3 3.68 -3 3 C-2.34 3 -1.68 3 -1 3 C-0.67 2.01 -0.34 1.02 0 0 Z " fill="#321204" transform="translate(255,186)"/>
<path d="M0 0 C-1.30986273 1.16962686 -2.6229626 2.33562944 -3.9375 3.5 C-4.66839844 4.1496875 -5.39929688 4.799375 -6.15234375 5.46875 C-8 7 -8 7 -9 7 C-9.3125 4.6875 -9.3125 4.6875 -9 2 C-5.69088913 -0.75759239 -4.02985981 -1.25717849 0 0 Z " fill="#F6821F" transform="translate(249,113)"/>
<path d="M0 0 C1.15431591 3.94897547 0.80958981 6.95205095 0 11 C-0.99 12.485 -0.99 12.485 -2 14 C-2.39387788 16.32387947 -2.73486085 18.65793749 -3 21 C-3.33 21 -3.66 21 -4 21 C-4.5939348 13.42733125 -2.43286286 7.12481267 0 0 Z " fill="#CA7931" transform="translate(131,216)"/>
<path d="M0 0 C1.32 0.33 2.64 0.66 4 1 C2.35687553 2.50296685 0.71042916 4.00230281 -0.9375 5.5 C-2.31228516 6.75296875 -2.31228516 6.75296875 -3.71484375 8.03125 C-6 10 -6 10 -7 10 C-7 8.35 -7 6.7 -7 5 C-6.01 5.33 -5.02 5.66 -4 6 C-3.34 4.68 -2.68 3.36 -2 2 C-1.34 2 -0.68 2 0 2 C0 1.34 0 0.68 0 0 Z " fill="#2C0C02" transform="translate(156,177)"/>
<path d="M0 0 C0.99 0 1.98 0 3 0 C1 6 -1 12 -3 18 C-3.33 18 -3.66 18 -4 18 C-2.28571429 2.28571429 -2.28571429 2.28571429 0 0 Z " fill="#2E0B01" transform="translate(132,142)"/>
<path d="M0 0 C1.32 0.99 2.64 1.98 4 3 C1.69 4.98 -0.62 6.96 -3 9 C-3.1875 5.625 -3.1875 5.625 -3 2 C-2.01 1.34 -1.02 0.68 0 0 Z " fill="#180301" transform="translate(147,117)"/>
<path d="M0 0 C-2.66666667 1.33333333 -5.33333333 2.66666667 -8 4 C-8.70125 4.3815625 -9.4025 4.763125 -10.125 5.15625 C-12.47993167 6.21596925 -13.61684275 5.85112759 -16 5 C-6.34877384 -1.89373297 -6.34877384 -1.89373297 0 0 Z " fill="#EF6918" transform="translate(178,107)"/>
<path d="M0 0 C-9.71428571 8 -9.71428571 8 -13 8 C-13 7.01 -13 6.02 -13 5 C-12.4225 4.731875 -11.845 4.46375 -11.25 4.1875 C-8.95215329 3.07576415 -8.95215329 3.07576415 -7.0625 1.375 C-4.53440331 -0.31039779 -2.97832406 -0.24819367 0 0 Z " fill="#310902" transform="translate(170,106)"/>
<path d="M0 0 C0.33 0.99 0.66 1.98 1 3 C0.07421875 4.75390625 0.07421875 4.75390625 -1.3125 6.5625 C-1.76238281 7.16191406 -2.21226563 7.76132813 -2.67578125 8.37890625 C-4.74341522 10.91008057 -5.8275714 11.9425238 -9 13 C-7.50923566 9.7173068 -5.61379679 7.06922559 -3.375 4.25 C-2.74335937 3.45078125 -2.11171875 2.6515625 -1.4609375 1.828125 C-0.97882812 1.22484375 -0.49671875 0.6215625 0 0 Z " fill="#1E1E1E" transform="translate(49,68)"/>
<path d="M0 0 C0.66 0.66 1.32 1.32 2 2 C1.34 3.32 0.68 4.64 0 6 C-2.64 5.34 -5.28 4.68 -8 4 C-5.42910583 1.88819408 -3.36939433 0.33693943 0 0 Z " fill="#190B06" transform="translate(135,335)"/>
<path d="M0 0 C-2.90600261 1.25664978 -4.79604584 2 -8 2 C-8.33 2.99 -8.66 3.98 -9 5 C-11.97 4.67 -14.94 4.34 -18 4 C-14.71589248 2.35794624 -11.93650218 1.28841217 -8.4375 0.3125 C-7.48746094 0.04050781 -6.53742188 -0.23148438 -5.55859375 -0.51171875 C-3 -1 -3 -1 0 0 Z " fill="#B34F1C" transform="translate(200,165)"/>
<path d="M0 0 C-5.59609791 2.93128938 -10.5744349 5.37797442 -17 5 C-14.65117776 2.65117776 -12.72876333 1.96496976 -9.625 0.8125 C-8.66851562 0.44769531 -7.71203125 0.08289063 -6.7265625 -0.29296875 C-3.94714704 -1.01370542 -2.64891897 -0.98549829 0 0 Z " fill="#381502" transform="translate(188,148)"/>
<path d="M0 0 C-0.33 2.31 -0.66 4.62 -1 7 C-1.66 7 -2.32 7 -3 7 C-3 6.34 -3 5.68 -3 5 C-4.32 5.33 -5.64 5.66 -7 6 C-7.33 5.34 -7.66 4.68 -8 4 C-6.68 4 -5.36 4 -4 4 C-4 3.34 -4 2.68 -4 2 C-1 0 -1 0 0 0 Z " fill="#E45E16" transform="translate(168,219)"/>
<path d="M0 0 C4.455 0.99 4.455 0.99 9 2 C9 2.33 9 2.66 9 3 C3.72 3.66 -1.56 4.32 -7 5 C-5 3 -5 3 -2.9375 2.5 C-2.298125 2.335 -1.65875 2.17 -1 2 C-0.67 1.34 -0.34 0.68 0 0 Z " fill="#DA8431" transform="translate(205,204)"/>
<path d="M0 0 C1.65 0 3.3 0 5 0 C3.02 0.99 3.02 0.99 1 2 C0.67 1.34 0.34 0.68 0 0 Z M1 3 C-0.43120744 3.55808089 -1.87030355 4.09596462 -3.3125 4.625 C-4.11300781 4.92664063 -4.91351563 5.22828125 -5.73828125 5.5390625 C-6.48464844 5.69117188 -7.23101562 5.84328125 -8 6 C-8.99 5.34 -9.98 4.68 -11 4 C-2.96428571 1.72321429 -2.96428571 1.72321429 1 3 Z " fill="#F36B21" transform="translate(215,160)"/>
<path d="M0 0 C0 0.66 0 1.32 0 2 C1.32 2.33 2.64 2.66 4 3 C0.32589215 4.17571451 -3.16929183 4.07366746 -7 4 C-7 3.34 -7 2.68 -7 2 C-4.35261084 0.5393715 -3.10551666 0 0 0 Z " fill="#140304" transform="translate(172,102)"/>
<path d="M0 0 C1.8871875 0.061875 1.8871875 0.061875 3.8125 0.125 C2.3275 2.105 2.3275 2.105 0.8125 4.125 C-1.8275 3.465 -4.4675 2.805 -7.1875 2.125 C-4.09861478 0.06574319 -3.47814073 -0.1140374 0 0 Z " fill="#F26C1C" transform="translate(212.1875,96.875)"/>
<path d="M0 0 C0.66 0.66 1.32 1.32 2 2 C1.01 4.31 0.02 6.62 -1 9 C-1.66 8.34 -2.32 7.68 -3 7 C-2.75 3.9375 -2.75 3.9375 -2 1 C-1.34 0.67 -0.68 0.34 0 0 Z " fill="#FBA720" transform="translate(147,311)"/>
<path d="M0 0 C0.33 0.99 0.66 1.98 1 3 C-0.65234375 5.48046875 -0.65234375 5.48046875 -2.9375 8.1875 C-3.68902344 9.08855469 -4.44054687 9.98960937 -5.21484375 10.91796875 C-5.80394531 11.60503906 -6.39304687 12.29210937 -7 13 C-7 9.16235973 -5.73464665 7.88513915 -3.5 4.8125 C-2.8503125 3.91144531 -2.200625 3.01039063 -1.53125 2.08203125 C-1.0259375 1.39496094 -0.520625 0.70789063 0 0 Z " fill="#D9D9D9" transform="translate(368,308)"/>
<path d="M0 0 C0.33 0 0.66 0 1 0 C1 4.29 1 8.58 1 13 C0.34 13 -0.32 13 -1 13 C-1.33 13.66 -1.66 14.32 -2 15 C-1.47462276 9.9697924 -0.89405214 4.98114761 0 0 Z " fill="#2E0A01" transform="translate(272,146)"/>
<path d="M0 0 C-1 3 -1 3 -3.125 4.1875 C-6.51418301 5.14531259 -9.49471861 5.13746202 -13 5 C-12 3 -12 3 -9.78515625 2.1484375 C-8.88667969 1.89320312 -7.98820313 1.63796875 -7.0625 1.375 C-6.16660156 1.11460938 -5.27070313 0.85421875 -4.34765625 0.5859375 C-2 0 -2 0 0 0 Z " fill="#F16C1F" transform="translate(235,89)"/>
<path d="M0 0 C1.27350058 3.01009228 0.99687398 4.00781505 -0.25 7.125 C-2 10 -2 10 -5 12 C-4.54738642 10.56068883 -4.08767021 9.12361001 -3.625 7.6875 C-3.24214844 6.48673828 -3.24214844 6.48673828 -2.8515625 5.26171875 C-2 3 -2 3 0 0 Z " fill="#CC6E28" transform="translate(137,203)"/>
<path d="M0 0 C0.66 0.33 1.32 0.66 2 1 C1.3503125 1.5878125 1.3503125 1.5878125 0.6875 2.1875 C-1.14560261 4.02238902 -1.14560261 4.02238902 -2.5625 6.6875 C-3.2740625 7.8321875 -3.2740625 7.8321875 -4 9 C-4.66 9 -5.32 9 -6 9 C-6 8.01 -6 7.02 -6 6 C-5.34 6 -4.68 6 -4 6 C-3.71125 5.195625 -3.4225 4.39125 -3.125 3.5625 C-2 1 -2 1 0 0 Z " fill="#E8852B" transform="translate(252,185)"/>
<path d="M0 0 C0 0.66 0 1.32 0 2 C-1.98 2.66 -3.96 3.32 -6 4 C-6 4.66 -6 5.32 -6 6 C-7.65 6 -9.3 6 -11 6 C-8.24029211 2.78034079 -4.3526723 0 0 0 Z " fill="#411A06" transform="translate(170,153)"/>
<path d="M0 0 C1 3 1 3 0.328125 4.97265625 C-0.02765625 5.66230469 -0.3834375 6.35195312 -0.75 7.0625 C-1.26820312 8.10083984 -1.26820312 8.10083984 -1.796875 9.16015625 C-3 11 -3 11 -6 13 C-4.58707905 8.1725201 -2.57025846 4.2837641 0 0 Z " fill="#282828" transform="translate(29,95)"/>
<path d="M0 0 C0.33 0.66 0.66 1.32 1 2 C-2.0684847 4.97550031 -3.46236331 5.96474513 -7.8125 6.25 C-8.864375 6.1675 -9.91625 6.085 -11 6 C-8.61542052 4.41028035 -6.3695876 3.13258407 -3.8125 1.875 C-3.09707031 1.52179688 -2.38164062 1.16859375 -1.64453125 0.8046875 C-1.10183594 0.53914062 -0.55914062 0.27359375 0 0 Z " fill="#3D1A03" transform="translate(243,196)"/>
<path d="M0 0 C0.66 0 1.32 0 2 0 C1.34 4.29 0.68 8.58 0 13 C-0.33 13 -0.66 13 -1 13 C-1.02696365 11.20841511 -1.04637917 9.41671527 -1.0625 7.625 C-1.07410156 6.62726563 -1.08570312 5.62953125 -1.09765625 4.6015625 C-1 2 -1 2 0 0 Z " fill="#BB8A4A" transform="translate(127,192)"/>
<path d="M0 0 C0.66 0.33 1.32 0.66 2 1 C-0.97 4.96 -0.97 4.96 -4 9 C-4.33 7.68 -4.66 6.36 -5 5 C-4.34 5 -3.68 5 -3 5 C-2.87625 4.360625 -2.7525 3.72125 -2.625 3.0625 C-2.41875 2.381875 -2.2125 1.70125 -2 1 C-1.34 0.67 -0.68 0.34 0 0 Z " fill="#DA8D39" transform="translate(140,171)"/>
<path d="M0 0 C0.66 0.33 1.32 0.66 2 1 C-0.44680851 4.79255319 -0.44680851 4.79255319 -3 5.75 C-5 6 -5 6 -8 6 C-5.38485683 3.87961365 -2.80362384 1.86908256 0 0 Z " fill="#3C1704" transform="translate(157,159)"/>
<path d="M0 0 C0.66 0.33 1.32 0.66 2 1 C1.67 3.31 1.34 5.62 1 8 C-0.32 8 -1.64 8 -3 8 C-2.5359375 7.13375 -2.5359375 7.13375 -2.0625 6.25 C-1.07416636 4.15705816 -0.4831387 2.25464725 0 0 Z " fill="#F87D1E" transform="translate(135,145)"/>
<path d="M0 0 C-0.33 1.32 -0.66 2.64 -1 4 C-3.64 4.66 -6.28 5.32 -9 6 C-3.28571429 0 -3.28571429 0 0 0 Z " fill="#CA5D22" transform="translate(263,72)"/>
<path d="M0 0 C0.66 0.33 1.32 0.66 2 1 C1.01 3.97 0.02 6.94 -1 10 C-1.33 10 -1.66 10 -2 10 C-2.17942163 6.05272412 -2.09350689 3.4019487 0 0 Z " fill="#311303" transform="translate(133,206)"/>
<path d="M0 0 C0.66 0.33 1.32 0.66 2 1 C2 1.66 2 2.32 2 3 C1.01 3 0.02 3 -1 3 C-1 3.99 -1 4.98 -1 6 C-2.65 6.33 -4.3 6.66 -6 7 C-4.02 4.69 -2.04 2.38 0 0 Z " fill="#CF5920" transform="translate(268,131)"/>
<path d="M0 0 C0 3.51716303 -0.82445585 4.37121748 -3 7 C-4.32 6.67 -5.64 6.34 -7 6 C-4.69 4.02 -2.38 2.04 0 0 Z " fill="#311202" transform="translate(253,123)"/>
<path d="M0 0 C1.32 0.66 2.64 1.32 4 2 C3.34 2 2.68 2 2 2 C1.87625 2.639375 1.7525 3.27875 1.625 3.9375 C1.41875 4.618125 1.2125 5.29875 1 6 C0.01 6.495 0.01 6.495 -1 7 C-1.04254356 5.00045254 -1.04080783 2.99958364 -1 1 C-0.67 0.67 -0.34 0.34 0 0 Z " fill="#1D0501" transform="translate(269,124)"/>
<path d="M0 0 C1 2 1 2 0.375 4.5625 C-1 7 -1 7 -3.625 7.8125 C-4.40875 7.874375 -5.1925 7.93625 -6 8 C-4.02 5.36 -2.04 2.72 0 0 Z " fill="#321202" transform="translate(260,115)"/>
<path d="M0 0 C0.99 0.66 1.98 1.32 3 2 C0.03 4.475 0.03 4.475 -3 7 C-3 3.48283697 -2.17554415 2.62878252 0 0 Z " fill="#DEDEDE" transform="translate(54,59)"/>
<path d="M0 0 C0.99 0.33 1.98 0.66 3 1 C0.69 2.65 -1.62 4.3 -4 6 C-4.33 5.01 -4.66 4.02 -5 3 C-4.01 3 -3.02 3 -2 3 C-2 2.34 -2 1.68 -2 1 C-1.34 0.67 -0.68 0.34 0 0 Z " fill="#D7873D" transform="translate(158,156)"/>
<path d="M0 0 C0.625 1.875 0.625 1.875 1 4 C-1.1385485 6.1385485 -2.13275314 6.42655063 -5 7 C-3.70700306 4.11562221 -2.34058637 2.12780579 0 0 Z " fill="#BE5B24" transform="translate(149,121)"/>
<path d="M0 0 C0.33 0.66 0.66 1.32 1 2 C0.06553465 4.03144641 -0.93224776 6.03533587 -2 8 C-2.66 8 -3.32 8 -4 8 C-2.25 2.25 -2.25 2.25 0 0 Z " fill="#200804" transform="translate(163,296)"/>
<path d="M0 0 C1.65 0 3.3 0 5 0 C4.67 1.32 4.34 2.64 4 4 C1.525 3.01 1.525 3.01 -1 2 C-0.67 1.34 -0.34 0.68 0 0 Z " fill="#FE6B0A" transform="translate(197,170)"/>
<path d="M0 0 C1.98 0 3.96 0 6 0 C6 0.66 6 1.32 6 2 C3.625 3.6875 3.625 3.6875 1 5 C0.34 4.67 -0.32 4.34 -1 4 C-0.67 2.68 -0.34 1.36 0 0 Z " fill="#F88B1F" transform="translate(232,130)"/>
</svg>
