<?xml version="1.0" standalone="no"?>
<!DOCTYPE svg PUBLIC "-//W3C//DTD SVG 20010904//EN"
 "http://www.w3.org/TR/2001/REC-SVG-20010904/DTD/svg10.dtd">
<svg version="1.0" xmlns="http://www.w3.org/2000/svg"
 width="800.000000pt" height="800.000000pt" viewBox="0 0 800.000000 800.000000"
 preserveAspectRatio="xMidYMid meet">
<metadata>
Created by potrace 1.16, written by Peter Selinger 2001-2019
</metadata>
<g transform="translate(0.000000,800.000000) scale(0.100000,-0.100000)"
fill="#000000" stroke="none">
<path d="M0 4000 l0 -4000 4000 0 4000 0 0 4000 0 4000 -4000 0 -4000 0 0
-4000z m3472 1493 c163 -32 331 -117 460 -232 31 -28 59 -51 63 -51 4 0 32 23
63 51 129 115 297 200 460 232 45 10 89 17 97 17 13 0 15 -35 15 -244 l0 -244
-63 -19 c-115 -35 -220 -121 -272 -223 -56 -109 -55 -102 -55 -785 0 -683 -1
-676 55 -785 52 -102 157 -188 272 -223 l63 -19 0 -244 c0 -209 -2 -244 -15
-244 -8 0 -52 7 -97 17 -163 32 -331 117 -460 232 -31 28 -59 51 -63 51 -4 0
-32 -23 -63 -51 -84 -74 -186 -138 -287 -179 -92 -38 -256 -77 -275 -65 -16
10 -14 470 3 482 6 5 38 17 69 26 99 30 205 123 256 222 52 104 52 102 52 780
0 678 0 676 -52 780 -51 99 -157 192 -256 222 -31 9 -63 21 -69 26 -10 7 -13
68 -13 242 0 127 3 235 7 238 9 9 12 9 105 -10z"/>
</g>
</svg>
