<?xml version="1.0" encoding="UTF-8"?>
<svg version="1.1" xmlns="http://www.w3.org/2000/svg" width="400" height="400">
<path d="M0 0 C132 0 264 0 400 0 C400 132 400 264 400 400 C268 400 136 400 0 400 C0 268 0 136 0 0 Z " fill="#B3DF7B" transform="translate(0,0)"/>
<path d="M0 0 C0.99112793 -0.011521 1.98225586 -0.02304199 3.00341797 -0.03491211 C4.58920654 -0.01956421 4.58920654 -0.01956421 6.20703125 -0.00390625 C7.29258301 0.00439209 8.37813477 0.01269043 9.49658203 0.02124023 C39.26170169 0.64143886 66.00103214 16.17555231 86.55859375 36.88623047 C99.87242499 50.98767806 108.59090693 68.25379181 113.76953125 86.80859375 C114.07246094 87.86175781 114.37539063 88.91492188 114.6875 90 C116.73168739 97.16828379 118.18081319 103.69002195 118.328125 111.171875 C118.35095047 112.29634285 118.35095047 112.29634285 118.37423706 113.44352722 C118.66907434 131.31018296 117.80673709 147.34097952 112.01953125 164.43359375 C111.46265625 166.27050781 111.46265625 166.27050781 110.89453125 168.14453125 C101.56421156 195.92967443 78.30335576 219.99778258 52.45703125 232.87109375 C49.98484467 234.07404859 47.50359682 235.25514626 45.01953125 236.43359375 C44.28863281 236.83707031 43.55773437 237.24054688 42.8046875 237.65625 C41.01953125 238.43359375 41.01953125 238.43359375 37.01953125 238.43359375 C39.0747265 233.03870621 41.61552695 227.87895059 44.09765625 222.671875 C46.89698325 216.77030874 49.0228339 211.62298663 50.01953125 205.12109375 C51.4871361 198.56090005 53.81830184 196.37435385 59.19921875 192.6328125 C74.34827033 180.8199094 82.22467698 161.38475149 87.01953125 143.43359375 C87.28765625 142.44746094 87.55578125 141.46132812 87.83203125 140.4453125 C90.90618412 126.71836599 89.56729495 111.89506811 86.01953125 98.43359375 C85.85324219 97.78825684 85.68695313 97.14291992 85.515625 96.47802734 C81.47848433 81.15558327 74.75121065 68.18733786 64.01953125 56.43359375 C63.36082031 55.70527344 62.70210937 54.97695312 62.0234375 54.2265625 C57.21053461 49.16187797 51.89096216 45.19685734 46.01953125 41.43359375 C45.33503906 40.98113281 44.65054688 40.52867188 43.9453125 40.0625 C33.5962567 33.73479159 20.92641883 30.94450562 9.01953125 29.43359375 C8.75140625 30.32046875 8.48328125 31.20734375 8.20703125 32.12109375 C7.01953125 35.43359375 7.01953125 35.43359375 5.64453125 37.62890625 C-2.33077614 51.39398007 -4.13246189 67.11173997 -0.98046875 82.55859375 C2.40770289 93.9897149 8.40336473 104.11713279 15.71875 113.44140625 C22.58852827 122.37561704 28.3230206 131.74057334 32.01953125 142.43359375 C32.24656738 143.03494141 32.47360352 143.63628906 32.70751953 144.25585938 C39.74647059 163.19772903 39.5777263 185.38462588 33.01953125 204.43359375 C32.66890625 205.60277344 32.31828125 206.77195312 31.95703125 207.9765625 C27.38558346 222.27820992 19.57079737 233.88232763 9.01953125 244.43359375 C-20.97147021 246.70338418 -49.63488958 235.01312649 -72.15942383 215.74755859 C-94.18402128 196.46508356 -104.59894985 171.40695089 -110.98046875 143.43359375 C-111.25552246 142.26509888 -111.25552246 142.26509888 -111.53613281 141.07299805 C-114.67379339 122.43494944 -112.81410472 101.25330221 -106.98046875 83.43359375 C-106.60792969 82.18578125 -106.23539062 80.93796875 -105.8515625 79.65234375 C-95.4505615 47.47084935 -72.37201906 24.86435631 -42.98046875 9.43359375 C-39.98281294 7.90065598 -37.14212027 6.61251466 -33.98046875 5.43359375 C-32.99046875 5.76359375 -32.00046875 6.09359375 -30.98046875 6.43359375 C-31.50833984 7.22056641 -31.50833984 7.22056641 -32.046875 8.0234375 C-38.37480278 17.95316229 -43.32770518 28.94155197 -45.41796875 40.55859375 C-46.76462146 47.16868787 -49.69528484 49.58119758 -54.98046875 53.43359375 C-69.80761773 66.45395282 -79.90754028 86.7718672 -81.98046875 106.43359375 C-82.28359402 111.53739394 -82.39176976 116.63439648 -82.41796875 121.74609375 C-82.43331665 123.64125732 -82.43331665 123.64125732 -82.44897461 125.57470703 C-82.37350538 133.62088767 -81.24728692 140.72860568 -78.98046875 148.43359375 C-78.58250439 150.0163928 -78.1863092 151.59963928 -77.79296875 153.18359375 C-73.28206624 167.77354407 -64.85086693 180.83495553 -53.98046875 191.43359375 C-53.98046875 192.09359375 -53.98046875 192.75359375 -53.98046875 193.43359375 C-53.38878906 193.70945312 -52.79710937 193.9853125 -52.1875 194.26953125 C-50.09305032 195.37421444 -48.4899024 196.5591633 -46.66796875 198.05859375 C-34.10195456 207.57053028 -19.74273667 213.34654079 -3.98046875 214.43359375 C-3.73296875 213.75296875 -3.48546875 213.07234375 -3.23046875 212.37109375 C-1.98046875 209.43359375 -1.98046875 209.43359375 -0.10546875 206.3046875 C7.91773518 192.35533635 10.73275288 175.84757625 6.62646484 160.26904297 C2.54606744 146.66881253 -5.37518052 135.4640209 -13.96850586 124.35620117 C-19.75182024 116.78206085 -23.74965065 108.86410574 -26.66796875 99.80859375 C-27.06371094 98.59945312 -27.45945312 97.3903125 -27.8671875 96.14453125 C-28.41826172 94.30761719 -28.41826172 94.30761719 -28.98046875 92.43359375 C-29.35042969 91.25925781 -29.72039062 90.08492188 -30.1015625 88.875 C-31.59499132 82.69529453 -31.36332279 76.31584448 -31.35546875 69.99609375 C-31.35565002 68.9962294 -31.35565002 68.9962294 -31.35583496 67.97616577 C-31.32819779 57.27688342 -30.33759048 47.59821232 -26.98046875 37.43359375 C-26.69171875 36.45390625 -26.40296875 35.47421875 -26.10546875 34.46484375 C-22.45830123 23.13257324 -15.77544822 12.37315249 -7.98046875 3.43359375 C-7.55636719 2.91104004 -7.13226563 2.38848633 -6.6953125 1.85009766 C-4.39610242 -0.04910748 -2.95965722 0.0324942 0 0 Z " fill="#232630" transform="translate(196.98046875,77.56640625)"/>
<path d="M0 0 C0.66 0.66 1.32 1.32 2 2 C2.99 2 3.98 2 5 2 C5.495 3.485 5.495 3.485 6 5 C8.97503122 6.15835673 8.97503122 6.15835673 12 7 C12.495 7.495 12.495 7.495 13 8 C13.33 7.34 13.66 6.68 14 6 C14.99 6 15.98 6 17 6 C15.86913964 9.58105781 14.57526188 13.03992639 13.125 16.5 C4.64647556 37.4581503 1.42566346 65.50017107 10 87 C10.2254248 87.61875 10.45084961 88.2375 10.68310547 88.875 C14.35136474 98.91601927 19.63154762 107.16831322 25.92578125 115.7578125 C33.02943842 125.46309199 39.68197522 135.33281505 43 147 C43.350625 148.09699219 43.70125 149.19398438 44.0625 150.32421875 C48.18809999 166.50000872 42.97511337 182.71443606 35.6875 197.1875 C32.82971398 201.60407839 32.82971398 201.60407839 30.1171875 202.8984375 C27.50465057 203.10704311 25.54267493 202.66533927 23 202 C21.81019531 201.70996094 20.62039062 201.41992188 19.39453125 201.12109375 C1.97438311 196.45532884 -13.83548757 187.35775221 -25 173 C-26.19109375 171.47052734 -26.19109375 171.47052734 -27.40625 169.91015625 C-36.92645837 157.32794538 -42.55673073 144.3651263 -46 129 C-46.1750708 128.24122559 -46.3501416 127.48245117 -46.53051758 126.70068359 C-50.86946008 101.74104658 -45.70897393 75.51856406 -31.9375 54.375 C-26.47798638 46.84691634 -19.95458164 40.16030007 -13 34 C-12.34 34 -11.68 34 -11 34 C-10.896875 32.88625 -10.79375 31.7725 -10.6875 30.625 C-9.25965564 19.69723118 -4.50132866 9.93992027 0 0 Z M1 3 C2 5 2 5 2 5 Z " fill="#B2DE7B" transform="translate(161,90)"/>
<path d="M0 0 C0.33 0 0.66 0 1 0 C1 62.37 1 124.74 1 189 C-62.36 189 -125.72 189 -191 189 C-191 188.67 -191 188.34 -191 188 C-190.18144531 187.99742187 -189.36289063 187.99484375 -188.51953125 187.9921875 C-166.31153279 187.29014329 -140.79131509 182.47775505 -121 172 C-119.68 172 -118.36 172 -117 172 C-117 171.34 -117 170.68 -117 170 C-113.04 169.01 -113.04 169.01 -109 168 C-109 167.34 -109 166.68 -109 166 C-108.12859375 165.5875 -107.2571875 165.175 -106.359375 164.75 C-98.93187729 161.16890376 -92.1536688 157.30173675 -85.42578125 152.50390625 C-83 151 -83 151 -80 151 C-79.67 150.01 -79.34 149.02 -79 148 C-76.890625 146.09765625 -76.890625 146.09765625 -74.25 144.0625 C-73.38890625 143.39347656 -72.5278125 142.72445312 -71.640625 142.03515625 C-70.76921875 141.36355469 -69.8978125 140.69195312 -69 140 C-64.27020592 136.27286694 -60.08584914 132.3903545 -56.3125 127.6875 C-55.549375 126.800625 -54.78625 125.91375 -54 125 C-53.34 125 -52.68 125 -52 125 C-51.77441406 124.46117187 -51.54882812 123.92234375 -51.31640625 123.3671875 C-49.58845928 120.25995941 -47.28538 117.76781567 -44.9375 115.125 C-40.02612316 109.46805235 -35.91323668 103.55896344 -31.984375 97.19140625 C-30.37989611 94.61097465 -28.70573624 92.15447475 -26.9375 89.6875 C-22.42436926 82.94905826 -19.26261896 75.39897335 -16 68 C-15.72124023 67.36787598 -15.44248047 66.73575195 -15.15527344 66.08447266 C-5.93811048 44.85758623 -1.22061049 23.06532923 0 0 Z " fill="#FEFEFD" transform="translate(399,211)"/>
<path d="M0 0 C0.33 0 0.66 0 1 0 C1.10489746 1.08547119 1.10489746 1.08547119 1.21191406 2.19287109 C2.64225684 16.70096211 4.2910853 30.88510194 8 45 C8.24621094 45.94359375 8.49242187 46.8871875 8.74609375 47.859375 C10.40570683 53.7477197 12.67833483 59.36847463 15.01171875 65.01953125 C15.96767779 67.90252236 16.20564835 69.99308761 16 73 C16.66 73 17.32 73 18 73 C19.42436585 75.61133738 20.84824096 78.222924 22.26953125 80.8359375 C23.40324943 82.90887594 24.54616392 84.97681731 25.69921875 87.0390625 C26.49779297 88.47378906 26.49779297 88.47378906 27.3125 89.9375 C27.80363281 90.81277344 28.29476563 91.68804687 28.80078125 92.58984375 C29.87804128 94.75489078 30.53427233 96.63848674 31 99 C31.66 99 32.32 99 33 99 C35.04169485 101.90548882 36 103.40142046 36 107 C36.66 107 37.32 107 38 107 C38 107.99 38 108.98 38 110 C38.99 110.33 39.98 110.66 41 111 C42.31640625 112.59375 42.31640625 112.59375 43.5625 114.5 C45.31619395 117.25536594 45.31619395 117.25536594 48 119 C48.33 119.99 48.66 120.98 49 122 C50.4648693 123.45074215 50.4648693 123.45074215 52.25 124.8125 C54.63401471 126.77580623 56.442018 128.53268835 58.4375 130.9375 C61.02982736 134.03564733 63.75105916 136.52684268 66.8203125 139.1328125 C69.13970535 141.11967591 71.37664229 143.18332777 73.625 145.25 C76.93290485 148.20819567 79.90211339 150.31881575 84 152 C84 152.66 84 153.32 84 154 C85.0828125 154.37125 85.0828125 154.37125 86.1875 154.75 C89.29348296 156.13043687 91.34321328 157.87457063 94 160 C114.01843349 173.07477021 137.69434809 182.4226306 161.26171875 186.4921875 C164 187 164 187 166 188 C167.73732806 188.22074841 169.48118407 188.39130638 171.2265625 188.53515625 C172.7734375 188.66567383 172.7734375 188.66567383 174.3515625 188.79882812 C175.97191406 188.9293457 175.97191406 188.9293457 177.625 189.0625 C179.25695312 189.19881836 179.25695312 189.19881836 180.921875 189.33789062 C183.61430157 189.56225951 186.30698709 189.78280114 189 190 C189 190.33 189 190.66 189 191 C126.63 191 64.26 191 0 191 C0 127.97 0 64.94 0 0 Z " fill="#FEFEFD" transform="translate(0,209)"/>
<path d="M0 0 C62.04 0 124.08 0 188 0 C188 62.04 188 124.08 188 188 C187.67 188 187.34 188 187 188 C186.89042969 186.741875 186.78085937 185.48375 186.66796875 184.1875 C183.98316128 154.61975025 175.96670356 129.00448492 162.2890625 102.7109375 C161 100 161 100 161 98 C160.34 98 159.68 98 159 98 C158.32845067 96.71086513 157.66291141 95.41859796 157 94.125 C156.62875 93.40570313 156.2575 92.68640625 155.875 91.9453125 C155 90 155 90 155 88 C154.34 88 153.68 88 153 88 C151.78125 86.28515625 151.78125 86.28515625 150.5 84.0625 C148.81545121 80.94567974 148.81545121 80.94567974 146 79 C145.57589844 78.278125 145.15179688 77.55625 144.71484375 76.8125 C142.69454015 73.49901802 140.21795024 70.80119784 137.5625 68 C134.90448765 65.17339577 132.28439863 62.35666812 129.86328125 59.3203125 C125.13662638 53.43428945 118.77128074 48.97153856 112.875 44.3125 C112.28928223 43.8489209 111.70356445 43.3853418 111.10009766 42.90771484 C108.32449674 40.73431531 105.5482241 38.68189039 102.5703125 36.79296875 C101.72210938 36.20128906 100.87390625 35.60960937 100 35 C100 34.34 100 33.68 100 33 C99.175 32.76023438 98.35 32.52046875 97.5 32.2734375 C93.38829403 30.77743734 89.78320817 28.80105583 86 26.625 C85.31421875 26.23828125 84.6284375 25.8515625 83.921875 25.453125 C80.88717002 23.72728133 78.01524715 22.01122803 75.19921875 19.9375 C70.66359542 17.1906512 65.87578149 15.8717974 60.8125 14.375 C58.83854991 13.78294257 56.86582969 13.1867648 54.89453125 12.5859375 C54.02675049 12.3286084 53.15896973 12.0712793 52.26489258 11.80615234 C50 11 50 11 47 9 C45.06226333 8.43729964 45.06226333 8.43729964 42.9375 8.0625 C39.72746753 7.42069544 36.70266055 6.59070957 33.60546875 5.5390625 C26.97819067 3.52206482 20.24812424 2.9601734 13.375 2.3125 C11.43947266 2.11817383 11.43947266 2.11817383 9.46484375 1.91992188 C6.31065355 1.60450285 3.15586793 1.29807904 0 1 C0 0.67 0 0.34 0 0 Z " fill="#FEFEFD" transform="translate(212,0)"/>
<path d="M0 0 C58.08 0 116.16 0 176 0 C176 0.66 176 1.32 176 2 C175.16984375 2.0515625 174.3396875 2.103125 173.484375 2.15625 C163.9289895 3.03582523 154.97547178 5.18013289 145.75 7.8125 C144.57920898 8.14378906 143.40841797 8.47507812 142.20214844 8.81640625 C131.65991578 11.90396524 121.7503686 15.96426337 112 21 C110.6446183 21.66948636 109.28781941 22.33611051 107.9296875 23 C107.26066406 23.33 106.59164062 23.66 105.90234375 24 C104.54449404 24.66976787 103.18509799 25.33640936 101.82421875 26 C98.61879006 27.58721421 95.58097727 29.21900232 92.6328125 31.25 C90 33 90 33 88 33 C88 33.66 88 34.32 88 35 C86.453125 36.15625 86.453125 36.15625 84.25 37.5 C77.0654506 42.12675887 70.28892855 47.61971232 64.328125 53.74609375 C62 56 62 56 59 57 C58.71125 57.5775 58.4225 58.155 58.125 58.75 C56.61160531 61.77678938 54.41266232 63.62840427 52 66 C50.25756535 67.84170379 48.52839388 69.69604357 46.8125 71.5625 C45.95269531 72.49191406 45.09289063 73.42132813 44.20703125 74.37890625 C42.35948198 76.57307539 41.10338356 78.38023455 40 81 C39.34 81 38.68 81 38 81 C37.71125 81.7425 37.4225 82.485 37.125 83.25 C36.17697356 85.56739797 35.15154089 87.77917115 34 90 C33.34 90 32.68 90 32 90 C31.75121094 90.68320313 31.50242187 91.36640625 31.24609375 92.0703125 C29.51656041 96.13661346 27.25677212 99.85869642 25.00976562 103.65234375 C22.67104274 107.66032459 20.80336032 111.71525355 19 116 C18.34176526 117.26996467 17.67742154 118.53677691 17.0078125 119.80078125 C14.66774454 124.419688 13.27594459 129.21748228 11.875 134.1875 C11.37448813 135.93159138 10.87194514 137.6751014 10.3671875 139.41796875 C10.13225586 140.23072266 9.89732422 141.04347656 9.65527344 141.88085938 C9 144 9 144 7.9453125 146.48046875 C6.40990951 150.57276183 5.76447081 154.831346 5 159.125 C4.82629883 160.08680176 4.65259766 161.04860352 4.47363281 162.03955078 C2.85091178 171.31767902 1.82308697 180.62114059 1 190 C0.67 190 0.34 190 0 190 C0 127.3 0 64.6 0 0 Z " fill="#FEFEFD" transform="translate(0,0)"/>
<path d="M0 0 C0.99 0 1.98 0 3 0 C1.85877078 4.69677738 0.44828817 9.30823639 -0.9375 13.9375 C-1.33485352 15.27844727 -1.33485352 15.27844727 -1.74023438 16.64648438 C-3.80075637 23.53363854 -3.80075637 23.53363854 -5.06640625 26.49609375 C-6.59072444 30.58432788 -7.23684524 34.83873757 -8 39.125 C-8.17370117 40.08680176 -8.34740234 41.04860352 -8.52636719 42.03955078 C-10.14908822 51.31767902 -11.17691303 60.62114059 -12 70 C-12.33 70 -12.66 70 -13 70 C-13.11765973 65.72940439 -13.18773631 61.45923403 -13.25 57.1875 C-13.28351562 55.99189453 -13.31703125 54.79628906 -13.3515625 53.56445312 C-13.4285845 46.49768503 -12.69104909 41.0253158 -9.984375 34.49438477 C-8.55253641 30.86613703 -7.95448513 27.2159463 -7.375 23.375 C-6.99219018 20.88217893 -6.54611632 18.46652536 -6 16 C-5.34 15.67 -4.68 15.34 -4 15 C-3.38202749 12.81853855 -3.38202749 12.81853855 -3 10.25 C-2.34341415 6.61272281 -1.57311761 3.37096631 0 0 Z " fill="#F0FCE2" transform="translate(13,120)"/>
<path d="M0 0 C-0.39832031 0.64066406 -0.79664063 1.28132813 -1.20703125 1.94140625 C-4.21716948 6.85576818 -6.89944118 11.63190525 -9 17 C-9.33 17 -9.66 17 -10 17 C-10 14.33333333 -10 11.66666667 -10 9 C-10.99 9.495 -10.99 9.495 -12 10 C-13.98570441 10 -15.97153763 9.99768251 -17.95703125 9.96875 C-20.39296825 10.00601099 -22.63993309 10.40998327 -25 11 C-20.81357267 7.30560298 -16.38653096 5.02649952 -11.375 2.6875 C-10.611875 2.31560547 -9.84875 1.94371094 -9.0625 1.56054688 C-8.32773438 1.21443359 -7.59296875 0.86832031 -6.8359375 0.51171875 C-6.17126465 0.19678467 -5.5065918 -0.11814941 -4.82177734 -0.44262695 C-3 -1 -3 -1 0 0 Z " fill="#26302C" transform="translate(166,84)"/>
<path d="M0 0 C-2.43920496 7.31761488 -8.27421917 11.63710958 -15 15 C-15.33 15.66 -15.66 16.32 -16 17 C-17.1446875 17.680625 -17.1446875 17.680625 -18.3125 18.375 C-21.08192857 19.85941763 -21.08192857 19.85941763 -22.9375 22.25 C-25 24 -25 24 -28.25 23.75 C-29.1575 23.5025 -30.065 23.255 -31 23 C-28.71035107 20.55624008 -26.27347809 18.68459771 -23.5 16.8125 C-22.7265625 16.28269531 -21.953125 15.75289063 -21.15625 15.20703125 C-19 14 -19 14 -16 14 C-15.67 13.01 -15.34 12.02 -15 11 C-12.8203125 9.0625 -12.8203125 9.0625 -10.125 7 C-6.56923502 4.2888718 -6.56923502 4.2888718 -3.3046875 1.25 C-2 0 -2 0 0 0 Z " fill="#F1FBE1" transform="translate(335,348)"/>
<path d="M0 0 C0.33 0.66 0.66 1.32 1 2 C0.67 2.99 0.34 3.98 0 5 C-0.99 5 -1.98 5 -3 5 C-3.12375 6.134375 -3.2475 7.26875 -3.375 8.4375 C-3.684375 10.2009375 -3.684375 10.2009375 -4 12 C-4.99 12.495 -4.99 12.495 -6 13 C-6.65213292 15.02463255 -6.65213292 15.02463255 -7 17 C-8.32 17.33 -9.64 17.66 -11 18 C-11.103125 18.763125 -11.20625 19.52625 -11.3125 20.3125 C-12 23 -12 23 -13.44921875 24.37890625 C-15.83146346 26.86916206 -16.26899082 29.77521622 -17.15625 33.0390625 C-17.4346875 33.68617188 -17.713125 34.33328125 -18 35 C-19.485 35.495 -19.485 35.495 -21 36 C-16.93075025 22.43583418 -10.29541027 9.88359386 0 0 Z " fill="#A7C87F" transform="translate(139,133)"/>
<path d="M0 0 C0.66 0 1.32 0 2 0 C8.20522671 15.03643341 8.45364201 29.2270095 8 45.25 C7.97398712 46.2548645 7.94797424 47.259729 7.9211731 48.29504395 C7.83924841 51.18197002 7.73788598 54.06725594 7.625 56.953125 C7.59437973 57.83556885 7.56375946 58.7180127 7.5322113 59.62719727 C7.23701937 65.76298063 7.23701937 65.76298063 5 68 C3.87012806 63.48051225 3.87012806 63.48051225 4.45556641 61.31445312 C5.2419249 57.97154797 5.22290737 54.63589139 5.2734375 51.21875 C5.28569366 50.45625443 5.29794983 49.69375885 5.31057739 48.90815735 C5.3426333 46.43873971 5.36137915 43.96958581 5.375 41.5 C5.38055908 40.66552338 5.38611816 39.83104675 5.3918457 38.97128296 C5.43577808 25.95804128 4.14865083 14.40150265 0 2 C0 1.34 0 0.68 0 0 Z " fill="#ACCD84" transform="translate(309,159)"/>
<path d="M0 0 C0.33 0 0.66 0 1 0 C1.10489746 1.08547119 1.10489746 1.08547119 1.21191406 2.19287109 C2.64397213 16.71836039 4.38755109 30.85124175 8 45 C8.30421875 46.24136719 8.6084375 47.48273438 8.921875 48.76171875 C9.59910052 51.51214882 10.29025971 54.2578216 11 57 C8 55 8 55 7.15625 51.8046875 C6.9396875 50.50789063 6.723125 49.21109375 6.5 47.875 C5.75701056 43.64321236 5.02868911 39.58915514 3.3125 35.625 C1.72822425 31.24938126 1.71291914 27.59329382 2 23 C1.34 23 0.68 23 0 23 C0 15.41 0 7.82 0 0 Z " fill="#ECFBDB" transform="translate(0,209)"/>
<path d="M0 0 C0.66 0 1.32 0 2 0 C2.16081055 0.6391333 2.32162109 1.2782666 2.48730469 1.93676758 C3.23566895 4.89686318 3.99279166 7.85465493 4.75 10.8125 C5.00265625 11.81732422 5.2553125 12.82214844 5.515625 13.85742188 C7.28585274 20.7391822 9.4491586 27.36830353 12 34 C11.01 34 10.02 34 9 34 C9 33.34 9 32.68 9 32 C7.02 32.495 7.02 32.495 5 33 C3.875 30.25 3.875 30.25 3 27 C3.32613281 26.35675781 3.65226562 25.71351563 3.98828125 25.05078125 C5.22591707 22.54206 5.01515137 21.60358853 4.3125 18.9375 C4.11527344 18.16019531 3.91804688 17.38289063 3.71484375 16.58203125 C3.47894531 15.72996094 3.24304688 14.87789062 3 14 C2.73316406 13.03449219 2.46632813 12.06898438 2.19140625 11.07421875 C1.66552172 9.17449233 1.13102284 7.27711896 0.5859375 5.3828125 C0 3 0 3 0 0 Z " fill="#A9CB7F" transform="translate(85,221)"/>
<path d="M0 0 C-3.21553945 2.14369297 -5.71401646 2.83700543 -9.4375 3.8125 C-15.30775089 5.43167044 -20.77815282 7.46798818 -26.35546875 9.89453125 C-29.53190081 11.22234554 -32.66424532 12.16606133 -36 13 C-35.67 12.01 -35.34 11.02 -35 10 C-32.66991749 8.8815604 -30.40447769 7.92219928 -28 7 C-26.39125 6.2884375 -26.39125 6.2884375 -24.75 5.5625 C-23.50174194 5.03750556 -22.25151043 4.51719339 -21 4 C-20.16339844 3.64421875 -19.32679688 3.2884375 -18.46484375 2.921875 C-12.1052696 0.38162316 -6.83275344 -0.53357728 0 0 Z " fill="#F1FCE3" transform="translate(149,6)"/>
<path d="M0 0 C5.6480462 -0.31378034 10.04006956 0.37044429 15.40234375 2.15234375 C17.1669304 2.72815624 18.9536191 3.23941926 20.75390625 3.69140625 C27.5417797 5.4204861 27.5417797 5.4204861 30.125 8.6875 C30.41375 9.450625 30.7025 10.21375 31 11 C21.61855109 8.28937644 21.61855109 8.28937644 17.1875 6.5625 C11.56741081 4.3839912 5.76935716 2.7325661 0 1 C0 0.67 0 0.34 0 0 Z " fill="#F0FBDF" transform="translate(248,5)"/>
<path d="M0 0 C0.99 0 1.98 0 3 0 C1.83706135 2.74876408 0.35270547 4.86660742 -1.5625 7.125 C-3.96006418 9.72238036 -3.96006418 9.72238036 -5 12 C-5.66 12 -6.32 12 -7 12 C-7.433125 13.11375 -7.433125 13.11375 -7.875 14.25 C-8.82302644 16.56739797 -9.84845911 18.77917115 -11 21 C-11.66 21 -12.32 21 -13 21 C-13.268125 21.721875 -13.53625 22.44375 -13.8125 23.1875 C-14.98982498 25.97590126 -16.39145884 28.44095724 -18 31 C-19.31223496 27.06329512 -18.24296256 24.87511856 -17 21 C-16.34 21 -15.68 21 -15 21 C-15 20.34 -15 19.68 -15 19 C-14.01 18.34 -13.02 17.68 -12 17 C-11.67 16.01 -11.34 15.02 -11 14 C-10.34 14 -9.68 14 -9 14 C-9 13.01 -9 12.02 -9 11 C-8.34 11 -7.68 11 -7 11 C-6.7525 10.21625 -6.505 9.4325 -6.25 8.625 C-4.79219136 5.56360186 -3.92006527 5.41293481 -1 4 C-0.19471111 1.94999129 -0.19471111 1.94999129 0 0 Z " fill="#F2FDE5" transform="translate(45,69)"/>
<path d="M0 0 C2.75739475 2.75739475 3.6234571 6.01363216 4.875 9.625 C5.13676025 10.37612061 5.39852051 11.12724121 5.66821289 11.90112305 C7.45878127 17.15429837 9.05053266 22.43878462 10.4375 27.8125 C10.6132959 28.47523926 10.7890918 29.13797852 10.97021484 29.82080078 C11.79653258 33.18441029 12.26599579 35.71503054 11 39 C9.35894977 34.89737441 7.94059467 31.03211006 7.125 26.6875 C6.38514135 23.00085388 5.10824398 19.99042411 3.4375 16.625 C0.78513911 11.10964956 0.12922777 6.07370506 0 0 Z " fill="#BFDD99" transform="translate(384,122)"/>
<path d="M0 0 C2.64 0 5.28 0 8 0 C8 1.32 8 2.64 8 4 C8.66 4.103125 9.32 4.20625 10 4.3125 C13.83841009 5.19213564 17.33096691 6.56969896 21 8 C21 7.01 21 6.02 21 5 C21.99 5 22.98 5 24 5 C25.04449911 8.13349732 24.93423645 8.98968256 24 12 C18.12105559 10.74163063 13.31231227 8.90079717 8.0625 6 C7.39154297 5.64421875 6.72058594 5.2884375 6.02929688 4.921875 C1.13455704 2.26911408 1.13455704 2.26911408 0 0 Z " fill="#ACCF84" transform="translate(152,277)"/>
<path d="M0 0 C0.99 0.33 1.98 0.66 3 1 C2 4 2 4 0 5 C-0.72159424 6.64363134 -1.39351421 8.31050386 -2 10 C-2.66 10 -3.32 10 -4 10 C-4 11.65 -4 13.3 -4 15 C-4.99 15 -5.98 15 -7 15 C-7.04125 15.721875 -7.0825 16.44375 -7.125 17.1875 C-8.34120072 21.0967166 -10.87466827 22.46066797 -14 25 C-14.94436349 27.16531168 -14.94436349 27.16531168 -15 29 C-15.66 28.67 -16.32 28.34 -17 28 C-17 24.00925958 -15.62313333 23.14295597 -13 20.1875 C-7.71600769 13.940498 -3.85328991 7.19210786 0 0 Z " fill="#B1D186" transform="translate(301,258)"/>
<path d="M0 0 C2.39456443 2.39456443 2.75546876 3.65807308 3 7 C1.625 8.8125 1.625 8.8125 0 10 C-0.33 10 -0.66 10 -1 10 C-3.44261593 17.02467506 -3.44261593 17.02467506 -4 24.375 C-4 28.36416099 -4.5388885 29.09024839 -7 32 C-7.42027979 24.59989633 -6.35806194 18.51801086 -4.0625 11.5 C-3.78470703 10.60796875 -3.50691406 9.7159375 -3.22070312 8.796875 C-1.22576531 2.45153061 -1.22576531 2.45153061 0 0 Z " fill="#263325" transform="translate(174,104)"/>
<path d="M0 0 C-0.66 0.99 -1.32 1.98 -2 3 C-4.93359375 3.44140625 -4.93359375 3.44140625 -8.4375 3.5625 C-13.54677482 3.67968079 -13.54677482 3.67968079 -18 6 C-20.63549805 6.22705078 -20.63549805 6.22705078 -23.76171875 6.1953125 C-24.87998047 6.18886719 -25.99824219 6.18242187 -27.15039062 6.17578125 C-28.90125977 6.15064453 -28.90125977 6.15064453 -30.6875 6.125 C-31.86634766 6.11597656 -33.04519531 6.10695313 -34.25976562 6.09765625 C-37.17338026 6.07406423 -40.08658892 6.0411454 -43 6 C-43 5.67 -43 5.34 -43 5 C-42.13503906 4.98582031 -41.27007812 4.97164063 -40.37890625 4.95703125 C-30.07657923 4.56687148 -20.32662216 2.83732222 -10.25610352 0.63989258 C-9.21510498 0.4158374 -8.17410645 0.19178223 -7.1015625 -0.0390625 C-5.69898193 -0.35157959 -5.69898193 -0.35157959 -4.26806641 -0.67041016 C-2 -1 -2 -1 0 0 Z " fill="#EBFAD9" transform="translate(251,394)"/>
<path d="M0 0 C1 2 1 2 0.29296875 4.3125 C-0.07183594 5.199375 -0.43664062 6.08625 -0.8125 7 C-1.16957031 7.886875 -1.52664063 8.77375 -1.89453125 9.6875 C-3 12 -3 12 -5 14 C-5.28875 15.134375 -5.5775 16.26875 -5.875 17.4375 C-7.04545887 21.14395308 -7.64201642 22.21607122 -11 24 C-11.66 24 -12.32 24 -13 24 C-13 24.66 -13 25.32 -13 26 C-13.66 26 -14.32 26 -15 26 C-13.31732238 22.43617509 -11.27466871 19.15276808 -9.1875 15.8125 C-5.96404641 10.62576354 -2.89123577 5.37936656 0 0 Z " fill="#E7F7D2" transform="translate(378,290)"/>
<path d="M0 0 C4.53942354 1.34955835 5.68178645 2.99581296 8 7 C8.99 7 9.98 7 11 7 C11.33 6.34 11.66 5.68 12 5 C12.99 5 13.98 5 15 5 C15 6.32 15 7.64 15 9 C14.01 9.495 14.01 9.495 13 10 C12.6626154 13.12498166 12.6626154 13.12498166 15 15.1875 C15.66 15.785625 16.32 16.38375 17 17 C14 17 14 17 12.421875 15.78515625 C0 2.98598131 0 2.98598131 0 0 Z " fill="#2B3628" transform="translate(109,275)"/>
<path d="M0 0 C0.66 0 1.32 0 2 0 C2.33 1.32 2.66 2.64 3 4 C3.66 4 4.32 4 5 4 C5.268125 4.9075 5.53625 5.815 5.8125 6.75 C6.77358396 9.9176348 6.77358396 9.9176348 8.46875 11.83203125 C10.33551839 14.47503241 10.9390308 16.79709747 11.6875 19.9375 C11.93886719 20.95714844 12.19023437 21.97679687 12.44921875 23.02734375 C12.95770635 25.77173428 13.10755868 28.21883996 13 31 C11.37472708 28.56209062 10.41901426 26.73558193 9.4140625 24.05078125 C9.12273437 23.28443359 8.83140625 22.51808594 8.53125 21.72851562 C7.93446949 20.13752965 7.33810459 18.5463877 6.7421875 16.95507812 C5.25448653 13.04333807 3.68412462 9.26922949 1.7734375 5.54296875 C0 2 0 2 0 0 Z " fill="#F1FCE1" transform="translate(379,110)"/>
<path d="M0 0 C0.33 0 0.66 0 1 0 C1 1.98 1 3.96 1 6 C1.66 6 2.32 6 3 6 C1.25 9.875 1.25 9.875 -1 11 C-2.91479324 15.61803076 -3.49026224 20.07253501 -4 25 C-4.99 24.67 -5.98 24.34 -7 24 C-5.96743943 15.30799763 -3.68466167 7.93186711 0 0 Z " fill="#A5C47B" transform="translate(157,99)"/>
<path d="M0 0 C0 0.66 0 1.32 0 2 C-3.75960806 5.75960806 -6.75900345 6.58894145 -12 7 C-12 7.66 -12 8.32 -12 9 C-14.64 9.66 -17.28 10.32 -20 11 C-20 11.66 -20 12.32 -20 13 C-22.31 13.33 -24.62 13.66 -27 14 C-26.67 13.34 -26.34 12.68 -26 12 C-24.68 12 -23.36 12 -22 12 C-22 11.34 -22 10.68 -22 10 C-19.36 9.34 -16.72 8.68 -14 8 C-14 7.34 -14 6.68 -14 6 C-12.04414675 4.99515796 -10.08523763 3.99626195 -8.125 3 C-7.03445313 2.443125 -5.94390625 1.88625 -4.8203125 1.3125 C-2 0 -2 0 0 0 Z " fill="#E7F7D2" transform="translate(304,371)"/>
<path d="M0 0 C3.1875 -0.25 3.1875 -0.25 6 0 C3.47211993 2.79872437 1.79588866 4.45773019 -2 5 C-2 5.66 -2 6.32 -2 7 C-3.86328125 8.4375 -3.86328125 8.4375 -6.3125 10 C-7.11300781 10.515625 -7.91351563 11.03125 -8.73828125 11.5625 C-9.48464844 12.036875 -10.23101562 12.51125 -11 13 C-11.99 13.66 -12.98 14.32 -14 15 C-13.42141121 11.0945257 -11.73020952 8.80399897 -9 6 C-7.00827818 5.30899447 -5.00838196 4.64097297 -3 4 C-2.505 3.29875 -2.01 2.5975 -1.5 1.875 C-1.005 1.25625 -0.51 0.6375 0 0 Z " fill="#F3FDE6" transform="translate(90,28)"/>
<path d="M0 0 C3.3 0 6.6 0 10 0 C3.625 4.25 3.625 4.25 -1.32421875 4.4140625 C-2.86625977 4.47207031 -2.86625977 4.47207031 -4.43945312 4.53125 C-5.51130859 4.5621875 -6.58316406 4.593125 -7.6875 4.625 C-8.77095703 4.66367188 -9.85441406 4.70234375 -10.97070312 4.7421875 C-13.64696467 4.83650509 -16.32321843 4.92210005 -19 5 C-15.27933528 2.51955685 -12.13459526 2.55618827 -7.8125 2.375 C-7.06291016 2.33632813 -6.31332031 2.29765625 -5.54101562 2.2578125 C-3.69440801 2.16371784 -1.8472381 2.08077681 0 2 C0 1.34 0 0.68 0 0 Z " fill="#C7E4A0" transform="translate(176,0)"/>
<path d="M0 0 C1.88297062 3.76594123 2.33070697 5.58377927 2.6328125 9.640625 C2.71660156 10.71054688 2.80039062 11.78046875 2.88671875 12.8828125 C2.96535156 13.99398437 3.04398437 15.10515625 3.125 16.25 C3.21136719 17.37664062 3.29773438 18.50328125 3.38671875 19.6640625 C3.59861325 22.44223487 3.80275103 25.22075574 4 28 C2 26 2 26 1.875 22.375 C1.91625 21.26125 1.9575 20.1475 2 19 C1.34 19 0.68 19 0 19 C0 12.73 0 6.46 0 0 Z " fill="#BDDE93" transform="translate(396,164)"/>
<path d="M0 0 C0.33 0 0.66 0 1 0 C1 2.64 1 5.28 1 8 C0.01 8.33 -0.98 8.66 -2 9 C-2.91276631 11.25325403 -3.45781522 13.51709989 -4.05859375 15.87109375 C-5 18 -5 18 -7.09765625 19.28515625 C-7.72542969 19.52105469 -8.35320313 19.75695312 -9 20 C-7.55676531 15.26210835 -5.62773267 11.01141849 -3.375 6.625 C-2.88773438 5.66400391 -2.88773438 5.66400391 -2.390625 4.68359375 C-1.59742593 3.12052499 -0.79922969 1.55999378 0 0 Z " fill="#C4E0A0" transform="translate(25,102)"/>
<path d="M0 0 C0.66 0 1.32 0 2 0 C0.87797799 3.36606602 -0.09274021 4.19481269 -2.75 6.4375 C-3.46671875 7.0459375 -4.1834375 7.654375 -4.921875 8.28125 C-7.26014318 10.21515601 -9.60876067 12.13184428 -12 14 C-12.36174071 7.60924751 -12.36174071 7.60924751 -10.8125 5 C-9 4 -9 4 -6.3125 4.3125 C-5.549375 4.539375 -4.78625 4.76625 -4 5 C-4 4.34 -4 3.68 -4 3 C-2.68 2.67 -1.36 2.34 0 2 C0 1.34 0 0.68 0 0 Z " fill="#AFD582" transform="translate(128,101)"/>
<path d="M0 0 C0.33 0 0.66 0 1 0 C1.08770383 3.85402129 1.14062735 7.70778291 1.1875 11.5625 C1.22520508 13.19155273 1.22520508 13.19155273 1.26367188 14.85351562 C1.32016075 21.04846255 0.98984306 25.53039208 -2 31 C-3.28298192 27.30465066 -2.75732706 24.37811738 -2.125 20.5625 C-1.06210028 13.71828763 -0.43616647 6.90979519 0 0 Z " fill="#EDFCDB" transform="translate(399,211)"/>
<path d="M0 0 C3.465 1.98 3.465 1.98 7 4 C7 5.32 7 6.64 7 8 C7.66 8 8.32 8 9 8 C12.57395876 11.4888645 13.90403216 12.80999877 14.3125 17.875 C14.1578125 19.421875 14.1578125 19.421875 14 21 C11.35534962 17.8745041 10.15585285 14.91211733 9 11 C8.34 11 7.68 11 7 11 C5.78125 9.28515625 5.78125 9.28515625 4.5 7.0625 C2.81545121 3.94567974 2.81545121 3.94567974 0 2 C0 1.34 0 0.68 0 0 Z " fill="#EEFBDD" transform="translate(358,77)"/>
<path d="M0 0 C2.56353377 0.42725563 4.69344896 0.83714476 7 2.0625 C9.48355489 3.22666636 11.28591836 3.2142696 14 3 C14.66 2.67 15.32 2.34 16 2 C15.67 3.65 15.34 5.3 15 7 C8.58076669 6.70887831 4.37899794 5.54784971 -1 2 C-0.67 1.34 -0.34 0.68 0 0 Z " fill="#2A342B" transform="translate(144,305)"/>
<path d="M0 0 C0.66 0 1.32 0 2 0 C0.07289294 18.82004556 0.07289294 18.82004556 -2 28 C-2.33 28 -2.66 28 -3 28 C-3.05411124 25.58303128 -3.09372278 23.16728213 -3.125 20.75 C-3.14175781 20.06808594 -3.15851563 19.38617188 -3.17578125 18.68359375 C-3.21308854 14.84094257 -2.88984595 12.32154742 -1 9 C-0.55188863 6.64435404 -0.55188863 6.64435404 -0.375 4.25 C-0.30023438 3.45078125 -0.22546875 2.6515625 -0.1484375 1.828125 C-0.09945313 1.22484375 -0.05046875 0.6215625 0 0 Z " fill="#C3E19B" transform="translate(397,220)"/>
<path d="M0 0 C0.33 0 0.66 0 1 0 C2.10228696 4.40914783 2.07654536 8.48382401 2 13 C0.02 13.99 0.02 13.99 -2 15 C-3.38766322 8.94474232 -2.49118146 5.67989374 0 0 Z " fill="#ABD17E" transform="translate(118,170)"/>
<path d="M0 0 C0.33 0.66 0.66 1.32 1 2 C1.66 2 2.32 2 3 2 C3 1.34 3 0.68 3 0 C3.66 0.33 4.32 0.66 5 1 C4.68546875 1.556875 4.3709375 2.11375 4.046875 2.6875 C1.2198903 7.72838838 -1.4531513 12.81197487 -4 18 C-4.33 18 -4.66 18 -5 18 C-4.67 15.69 -4.34 13.38 -4 11 C-3.34 11 -2.68 11 -2 11 C-2 10.34 -2 9.68 -2 9 C-2.66 9 -3.32 9 -4 9 C-4 8.34 -4 7.68 -4 7 C-3.34 7 -2.68 7 -2 7 C-2 5.68 -2 4.36 -2 3 C-1.34 3 -0.68 3 0 3 C0 2.01 0 1.02 0 0 Z " fill="#283429" transform="translate(125,144)"/>
<path d="M0 0 C3.77861924 1.88930962 4.36034779 7.27749206 5.68359375 11.09375 C6.11800781 12.0528125 6.55242187 13.011875 7 14 C7.99 14.33 8.98 14.66 10 15 C9.42655063 17.86724686 9.1385485 18.8614515 7 21 C6.78085938 20.39414063 6.56171875 19.78828125 6.3359375 19.1640625 C3.86943992 12.64689409 0.74560243 6.86811047 -3 1 C-2.01 0.67 -1.02 0.34 0 0 Z " fill="#ADCF80" transform="translate(220,197)"/>
<path d="M0 0 C1.65 0 3.3 0 5 0 C1.89638588 3.20373071 -1.32069758 6.25294919 -4.625 9.25 C-5.75808594 10.27867187 -5.75808594 10.27867187 -6.9140625 11.328125 C-9 13 -9 13 -12 14 C-11.62207203 11.32543283 -11.20233084 10.19388186 -9.22265625 8.296875 C-8.50980469 7.78640625 -7.79695313 7.2759375 -7.0625 6.75 C-6.35222656 6.22921875 -5.64195312 5.7084375 -4.91015625 5.171875 C-3 4 -3 4 -1 4 C-0.67 2.68 -0.34 1.36 0 0 Z " fill="#BEDC8F" transform="translate(331,346)"/>
<path d="M0 0 C0.66 0 1.32 0 2 0 C1.57534294 7.36072234 -0.98348917 13.32137824 -4 20 C-4.5625 18.0625 -4.5625 18.0625 -5 16 C-4.67 15.67 -4.34 15.34 -4 15 C-3.46178999 11.96974198 -3.03443179 8.92923012 -2.59765625 5.8828125 C-2 3 -2 3 0 0 Z " fill="#B9DB91" transform="translate(389,256)"/>
<path d="M0 0 C0 2.94885691 -0.6842806 5.3685612 -2 8 C-1.34 8 -0.68 8 0 8 C-0.33 8.66 -0.66 9.32 -1 10 C-2.15227823 9.23883449 -3.2966386 8.46567307 -4.4375 7.6875 C-5.07558594 7.25824219 -5.71367187 6.82898438 -6.37109375 6.38671875 C-8 5 -8 5 -9 2 C-7.35 2 -5.7 2 -4 2 C-4.66 1.34 -5.32 0.68 -6 0 C-2.25 -1.125 -2.25 -1.125 0 0 Z " fill="#ADD47F" transform="translate(151,266)"/>
<path d="M0 0 C0.33 0 0.66 0 1 0 C1.04937279 4.66307014 1.08570627 9.32598873 1.10986328 13.98925781 C1.11993188 15.57619883 1.13358767 17.16312125 1.15087891 18.75 C1.17509001 21.02869247 1.18647422 23.30714006 1.1953125 25.5859375 C1.20563507 26.29744965 1.21595764 27.00896179 1.22659302 27.74203491 C1.22699422 29.49631665 1.12202209 31.24996709 1 33 C0.34 33.66 -0.32 34.32 -1 35 C-2.12567751 30.49728997 -2.12567751 30.49728997 -1.54711914 28.20800781 C-0.85693767 25.42264359 -0.78199583 22.78959286 -0.68359375 19.921875 C-0.64169922 18.76171875 -0.59980469 17.6015625 -0.55664062 16.40625 C-0.51732422 15.1996875 -0.47800781 13.993125 -0.4375 12.75 C-0.39431641 11.52796875 -0.35113281 10.3059375 -0.30664062 9.046875 C-0.20062645 6.0313608 -0.09856064 3.01576552 0 0 Z " fill="#A0BF7A" transform="translate(315,192)"/>
<path d="M0 0 C1.98 0 3.96 0 6 0 C4.31955675 3.36088651 0.54837893 3.93782936 -2.8125 5.1875 C-3.53759766 5.47302734 -4.26269531 5.75855469 -5.00976562 6.05273438 C-5.71423828 6.31763672 -6.41871094 6.58253906 -7.14453125 6.85546875 C-7.78753174 7.09934326 -8.43053223 7.34321777 -9.09301758 7.59448242 C-11.36368384 8.07733694 -12.81416521 7.7102067 -15 7 C-10.3845737 3.61535404 -5.51913346 2.91092494 0 2 C0 1.34 0 0.68 0 0 Z " fill="#C2DF9C" transform="translate(272,383)"/>
<path d="M0 0 C0.66 0.66 1.32 1.32 2 2 C1.8125 4 1.8125 4 1 6 C0.01 6.66 -0.98 7.32 -2 8 C-2.433125 8.825 -2.86625 9.65 -3.3125 10.5 C-5.47069987 13.69733315 -7.33161355 14.10328331 -11 15 C-10.62488281 14.5875 -10.24976563 14.175 -9.86328125 13.75 C-6.04203965 9.43786842 -2.91486912 4.96559562 0 0 Z " fill="#ACCD7B" transform="translate(218,306)"/>
<path d="M0 0 C0.99 0.33 1.98 0.66 3 1 C2.67 2.98 2.34 4.96 2 7 C2.66 7 3.32 7 4 7 C4 13.93 4 20.86 4 28 C3.67 28 3.34 28 3 28 C2.91697632 27.15405273 2.91697632 27.15405273 2.83227539 26.29101562 C2.576765 23.69390274 2.319642 21.09695183 2.0625 18.5 C1.97548828 17.613125 1.88847656 16.72625 1.79882812 15.8125 C1.27446908 10.53006818 0.68264462 5.26435854 0 0 Z " fill="#EAFBD3" transform="translate(396,160)"/>
<path d="M0 0 C0.33 1.32 0.66 2.64 1 4 C0.34 4 -0.32 4 -1 4 C-0.731875 4.86625 -0.46375 5.7325 -0.1875 6.625 C0.01513813 10.27248636 -0.14107821 10.70834166 -2.3125 13.375 C-5 16 -5 16 -7 16 C-5.60668753 10.04675579 -3.11464243 5.24258516 0 0 Z " fill="#283327" transform="translate(101,136)"/>
<path d="M0 0 C0.33 0 0.66 0 1 0 C1.05416188 1.60379341 1.09286638 3.20811406 1.125 4.8125 C1.14820313 5.70582031 1.17140625 6.59914062 1.1953125 7.51953125 C1 10 1 10 -1 13 C-1.29991069 15.58885171 -1.50865225 18.09149082 -1.625 20.6875 C-1.66367188 21.38939453 -1.70234375 22.09128906 -1.7421875 22.81445312 C-1.8362334 24.54254655 -1.9191968 26.27123675 -2 28 C-2.33 28 -2.66 28 -3 28 C-3.57446809 8.46808511 -3.57446809 8.46808511 0 0 Z " fill="#9BB977" transform="translate(197,126)"/>
<path d="M0 0 C0.33 1.32 0.66 2.64 1 4 C1.66 4.33 2.32 4.66 3 5 C1.875 6.5625 1.875 6.5625 0 8 C-3.64734979 7.77669287 -5.38372835 7.61627165 -8 5 C-4.04 2.525 -4.04 2.525 0 0 Z " fill="#2A3232" transform="translate(140,95)"/>
<path d="M0 0 C1.98 0.66 3.96 1.32 6 2 C6 2.66 6 3.32 6 4 C6.99 4 7.98 4 9 4 C9.12375 4.928125 9.12375 4.928125 9.25 5.875 C9.77905978 8.1346633 9.77905978 8.1346633 11.75 8.9375 C12.4925 9.288125 13.235 9.63875 14 10 C15.70496537 11.62746694 17.37897032 13.28891311 19 15 C18.67 15.66 18.34 16.32 18 17 C17.62230469 16.59910156 17.24460937 16.19820312 16.85546875 15.78515625 C12.26800088 11.0472796 7.32274278 6.91980921 2.16015625 2.8203125 C1.44730469 2.21960937 0.73445313 1.61890625 0 1 C0 0.67 0 0.34 0 0 Z " fill="#EDFBDC" transform="translate(320,39)"/>
<path d="M0 0 C2.64 0.33 5.28 0.66 8 1 C8 1.66 8 2.32 8 3 C8.53625 3.12375 9.0725 3.2475 9.625 3.375 C12.4638286 4.12206016 15.22223202 5.05303364 18 6 C18 7.32 18 8.64 18 10 C13.85967154 8.45614871 10.06446947 6.48971062 6.1875 4.375 C5.59001953 4.05015625 4.99253906 3.7253125 4.37695312 3.390625 C2.91662865 2.59620849 1.45812509 1.79844624 0 1 C0 0.67 0 0.34 0 0 Z " fill="#EAF9D9" transform="translate(286,19)"/>
<path d="M0 0 C6.66666667 3.33333333 13.33333333 6.66666667 20 10 C20 10.66 20 11.32 20 12 C18.68 12 17.36 12 16 12 C15.67 11.34 15.34 10.68 15 10 C12.03806194 8.46349463 9.04867944 7.04245663 6.015625 5.65429688 C4.30784826 4.84098584 2.64951242 3.92578885 1 3 C0.67 2.01 0.34 1.02 0 0 Z " fill="#B5D48A" transform="translate(139,304)"/>
<path d="M0 0 C5.47113661 6.46588872 5.50123755 13.88854748 6 22 C3.29668983 19.29668983 2.80084314 16.28457204 1.875 12.6875 C1.69324219 12.02298828 1.51148437 11.35847656 1.32421875 10.67382812 C0.36795545 7.0393086 -0.21811505 3.75884943 0 0 Z " fill="#AECE86" transform="translate(115,214)"/>
<path d="M0 0 C0.66 0.33 1.32 0.66 2 1 C-1.02565098 4.25839336 -4.26926887 6.59575105 -8 9 C-8.33 9.33 -8.66 9.66 -9 10 C-10.66617115 10.04063832 -12.33388095 10.042721 -14 10 C-13.34 9.67 -12.68 9.34 -12 9 C-12 8.34 -12 7.68 -12 7 C-9.4453125 5.23828125 -9.4453125 5.23828125 -6.125 3.3125 C-5.03445312 2.66925781 -3.94390625 2.02601562 -2.8203125 1.36328125 C-1.88960937 0.91339844 -0.95890625 0.46351562 0 0 Z " fill="#C3E29D" transform="translate(100,26)"/>
<path d="M0 0 C1.13583456 3.71727674 0.66670026 5.47051709 -1 9 C0.98 9 2.96 9 5 9 C-1 13 -1 13 -6 13 C-4.31326082 8.50202887 -2.18326108 4.27113698 0 0 Z " fill="#32452C" transform="translate(240,303)"/>
<path d="M0 0 C0.33 0 0.66 0 1 0 C0.57581773 7.82543159 -0.46578376 14.93156751 -4 22 C-4.66 22 -5.32 22 -6 22 C-5.37798054 19.45757096 -4.75248241 16.91608125 -4.125 14.375 C-3.95097656 13.66214844 -3.77695312 12.94929688 -3.59765625 12.21484375 C-2.57145662 8.07203784 -1.41209271 4.03273322 0 0 Z " fill="#ECFBDC" transform="translate(395,244)"/>
<path d="M0 0 C4.39158329 1.4638611 4.87947433 3.97831338 7 8 C6.01 8 5.02 8 4 8 C3.67 7.67 3.34 7.34 3 7 C2.34 7.66 1.68 8.32 1 9 C0.01 9 -0.98 9 -2 9 C-1.34 6.03 -0.68 3.06 0 0 Z " fill="#21252C" transform="translate(204,182)"/>
<path d="M0 0 C0.33 0.66 0.66 1.32 1 2 C0.54625 2.4125 0.0925 2.825 -0.375 3.25 C-2.05950374 5.06408095 -2.99265971 6.75285627 -4 9 C-4.99 9 -5.98 9 -7 9 C-7.33 10.32 -7.66 11.64 -8 13 C-9.65 13.33 -11.3 13.66 -13 14 C-9.77966982 8.06781282 -5.29728986 4.08648075 0 0 Z " fill="#C0DF96" transform="translate(69,48)"/>
<path d="M0 0 C0.99 0.33 1.98 0.66 3 1 C-0.44965989 4.79462588 -3.66750367 6.17654444 -8.75 6.625 C-9.54921875 6.69976562 -10.3484375 6.77453125 -11.171875 6.8515625 C-12.07679688 6.92503906 -12.07679688 6.92503906 -13 7 C-12.1875 5.0625 -12.1875 5.0625 -11 3 C-8 2 -8 2 -6.0625 2.5 C-3.68227266 3.07702481 -2.30293321 2.74022853 0 2 C0 1.34 0 0.68 0 0 Z " fill="#20262A" transform="translate(251,306)"/>
<path d="M0 0 C1.09716797 1.74316406 1.09716797 1.74316406 2 4 C1.49267578 6.01464844 1.49267578 6.01464844 0.4453125 8.109375 C0.07792969 8.86347656 -0.28945312 9.61757812 -0.66796875 10.39453125 C-1.26544922 11.56048828 -1.26544922 11.56048828 -1.875 12.75 C-2.46087891 13.93916016 -2.46087891 13.93916016 -3.05859375 15.15234375 C-4.02515358 17.10903803 -5.00580848 19.05723951 -6 21 C-7.06546953 17.8035914 -7.07427838 15.34252724 -7 12 C-6.01 11.67 -5.02 11.34 -4 11 C-2.75049948 8.44598152 -2.75049948 8.44598152 -1.8125 5.4375 C-1.46832031 4.42558594 -1.12414062 3.41367188 -0.76953125 2.37109375 C-0.51558594 1.58863281 -0.26164062 0.80617187 0 0 Z " fill="#AAC983" transform="translate(99,133)"/>
<path d="M0 0 C-0.66 0.66 -1.32 1.32 -2 2 C-2.99 2 -3.98 2 -5 2 C-5 2.66 -5 3.32 -5 4 C-7.90600261 5.25664978 -9.79604584 6 -13 6 C-13 6.66 -13 7.32 -13 8 C-14.32 8 -15.64 8 -17 8 C-16.67 7.01 -16.34 6.02 -16 5 C-14.72125 4.9175 -13.4425 4.835 -12.125 4.75 C-9.9390249 4.53760757 -9.9390249 4.53760757 -8 4 C-6.6237206 2.08235826 -6.6237206 2.08235826 -6 0 C-3 -1 -3 -1 0 0 Z " fill="#BCDB91" transform="translate(295,375)"/>
<path d="M0 0 C0.33 0 0.66 0 1 0 C1.0291189 4.54165313 1.0468389 9.0832821 1.0625 13.625 C1.07087891 14.91019531 1.07925781 16.19539063 1.08789062 17.51953125 C1.09111328 18.76347656 1.09433594 20.00742187 1.09765625 21.2890625 C1.10289307 22.43068848 1.10812988 23.57231445 1.11352539 24.74853516 C1.00283445 27.91881886 0.59566756 30.88768854 0 34 C-0.33 34 -0.66 34 -1 34 C-1.87890625 27.84765625 -1.87890625 27.84765625 -2 26 C-1.67 25.67 -1.34 25.34 -1 25 C-0.84213692 23.14825294 -0.74892644 21.2909089 -0.68359375 19.43359375 C-0.62075195 17.7465332 -0.62075195 17.7465332 -0.55664062 16.02539062 C-0.51732422 14.84138672 -0.47800781 13.65738281 -0.4375 12.4375 C-0.39431641 11.24962891 -0.35113281 10.06175781 -0.30664062 8.83789062 C-0.20016454 5.89205216 -0.09815159 2.9461257 0 0 Z " fill="#536943" transform="translate(233,238)"/>
<path d="M0 0 C7.69733104 1.89410764 15.36174657 3.8799336 23 6 C20 8 20 8 18 8 C18 7.34 18 6.68 18 6 C16.865625 5.896875 15.73125 5.79375 14.5625 5.6875 C9.87477516 5.1015344 5.3078449 3.9701085 1 2 C0.67 1.34 0.34 0.68 0 0 Z " fill="#F1FDE3" transform="translate(134,389)"/>
<path d="M0 0 C0.66 0.33 1.32 0.66 2 1 C1.34 2.65 0.68 4.3 0 6 C-0.66 6 -1.32 6 -2 6 C-2.33 7.98 -2.66 9.96 -3 12 C-3.99 12.33 -4.98 12.66 -6 13 C-6 13.66 -6 14.32 -6 15 C-6.99 15.33 -7.98 15.66 -9 16 C-7.125 11.25 -7.125 11.25 -6 9 C-5.34 9 -4.68 9 -4 9 C-3.71125 8.071875 -3.4225 7.14375 -3.125 6.1875 C-2 3 -2 3 0 0 Z " fill="#C5E19F" transform="translate(38,81)"/>
<path d="M0 0 C-1 2 -1 2 -3.19921875 3.0859375 C-6.13815258 4.04508745 -8.73407133 4.40246299 -11.8125 4.625 C-12.78832031 4.69976563 -13.76414063 4.77453125 -14.76953125 4.8515625 C-15.87361328 4.92503906 -15.87361328 4.92503906 -17 5 C-13.93544025 2.41473159 -11.23938613 1.27078124 -7.375 0.25 C-6.41335937 -0.01296875 -5.45171875 -0.2759375 -4.4609375 -0.546875 C-2 -1 -2 -1 0 0 Z " fill="#BDDD97" transform="translate(145,9)"/>
<path d="M0 0 C2.97 0.495 2.97 0.495 6 1 C6 1.66 6 2.32 6 3 C8.97 3.495 8.97 3.495 12 4 C12 4.99 12 5.98 12 7 C12.99 7.33 13.98 7.66 15 8 C15 8.66 15 9.32 15 10 C10.50985376 8.50328459 6.52151236 6.16631659 3 3 C3 2.34 3 1.68 3 1 C2.01 0.67 1.02 0.34 0 0 Z " fill="#BEDC98" transform="translate(81,360)"/>
<path d="M0 0 C0.33 0 0.66 0 1 0 C0.91297874 2.27155498 0.80480478 4.54230743 0.6875 6.8125 C0.62949219 8.07707031 0.57148438 9.34164063 0.51171875 10.64453125 C0 14 0 14 -1.54296875 15.94921875 C-2.02378906 16.29597656 -2.50460938 16.64273437 -3 17 C-3.66 16.67 -4.32 16.34 -5 16 C-3.35 10.72 -1.7 5.44 0 0 Z " fill="#2C3C2C" transform="translate(204,264)"/>
<path d="M0 0 C10.55808656 3.07517084 10.55808656 3.07517084 15 5 C12 7 12 7 9.95703125 6.7578125 C7.97135417 6.171875 5.98567708 5.5859375 4 5 C4 4.34 4 3.68 4 3 C2.68 2.34 1.36 1.68 0 1 C0 0.67 0 0.34 0 0 Z " fill="#F4FDE9" transform="translate(118,383)"/>
<path d="M0 0 C0 0.66 0 1.32 0 2 C-1.36125 2.6496875 -1.36125 2.6496875 -2.75 3.3125 C-5.93777831 4.83388114 -5.93777831 4.83388114 -8.1875 6.75 C-8.785625 7.1625 -9.38375 7.575 -10 8 C-10.99 7.67 -11.98 7.34 -13 7 C-13 6.34 -13 5.68 -13 5 C-11.58957044 4.15615325 -10.17135868 3.32530504 -8.75 2.5 C-7.56664062 1.80390625 -7.56664062 1.80390625 -6.359375 1.09375 C-4 0 -4 0 0 0 Z " fill="#BEDE91" transform="translate(319,360)"/>
<path d="M0 0 C2.475 0.99 2.475 0.99 5 2 C4.53980469 2.38800781 4.07960937 2.77601563 3.60546875 3.17578125 C1.63207401 5.41805702 1.0950431 7.31817531 0.3125 10.1875 C0.06113281 11.08855469 -0.19023437 11.98960937 -0.44921875 12.91796875 C-0.63097656 13.60503906 -0.81273437 14.29210937 -1 15 C-1.33 15 -1.66 15 -2 15 C-2.19392201 9.47322267 -1.7479503 5.24385089 0 0 Z " fill="#314032" transform="translate(249,276)"/>
<path d="M0 0 C0 3.72295567 -1.3746498 4.80112485 -3.75390625 7.50390625 C-5.17673476 9.21219252 -6.1349787 10.95540419 -7 13 C-8.65 13 -10.3 13 -12 13 C-8.19524578 8.43969176 -4.25030379 4.14910608 0 0 Z " fill="#293727" transform="translate(127,104)"/>
<path d="M0 0 C4.78258866 0.48636495 8.56536328 1.11527939 13 3 C15.65390761 3.73194075 18.32061511 4.36421376 21 5 C21 5.33 21 5.66 21 6 C15.9697924 5.47462276 10.98114761 4.89405214 6 4 C6 3.34 6 2.68 6 2 C4.02 2 2.04 2 0 2 C0 1.34 0 0.68 0 0 Z " fill="#C1DD9E" transform="translate(240,4)"/>
<path d="M0 0 C1 2 1 2 -0.125 5.4375 C-1.70460115 8.96235071 -3.5234268 10.2617134 -7 12 C-7.33 12.66 -7.66 13.32 -8 14 C-8.66 13.67 -9.32 13.34 -10 13 C-5.05 6.565 -5.05 6.565 0 0 Z " fill="#E8F8D2" transform="translate(362,316)"/>
<path d="M0 0 C1.89668064 2.84502097 3.23263478 5.57299885 4.625 8.6875 C5.07101563 9.68136719 5.51703125 10.67523438 5.9765625 11.69921875 C6.31429687 12.45847656 6.65203125 13.21773437 7 14 C6.01 14.495 6.01 14.495 5 15 C5 14.01 5 13.02 5 12 C4.34 12 3.68 12 3 12 C3 11.34 3 10.68 3 10 C2.01 10 1.02 10 0 10 C0 6.7 0 3.4 0 0 Z " fill="#324130" transform="translate(196,163)"/>
<path d="M0 0 C5.27112904 2.79692561 9.59398317 5.98235547 14 10 C11 11 11 11 8.4375 10.3125 C5.6009643 8.78513462 5.29429071 7.84743956 4 5 C2.67607028 3.98758315 1.34400833 2.98560611 0 2 C0 1.34 0 0.68 0 0 Z " fill="#263323" transform="translate(263,98)"/>
<path d="M0 0 C6.15234375 0.5859375 6.15234375 0.5859375 8 1 C8.33 1.66 8.66 2.32 9 3 C11.32156597 3.40729228 13.6568787 3.74438677 16 4 C16 4.99 16 5.98 16 7 C4.29384966 4.29384966 4.29384966 4.29384966 0 0 Z " fill="#C6E1A0" transform="translate(112,379)"/>
<path d="M0 0 C0.33 0.66 0.66 1.32 1 2 C-1.82522609 6.67248931 -4.67760044 9.65996398 -9 13 C-9.66 12.67 -10.32 12.34 -11 12 C-9.38405168 9.95880212 -7.7143618 7.95927063 -6 6 C-5.34 6 -4.68 6 -4 6 C-3.71125 5.38125 -3.4225 4.7625 -3.125 4.125 C-2 2 -2 2 0 0 Z " fill="#E9F8D8" transform="translate(351,330)"/>
<path d="M0 0 C0.66 0.33 1.32 0.66 2 1 C2 4.63 2 8.26 2 12 C1.01 12 0.02 12 -1 12 C-1.02712066 10.56260487 -1.04645067 9.12506137 -1.0625 7.6875 C-1.07410156 6.88699219 -1.08570313 6.08648437 -1.09765625 5.26171875 C-1 3 -1 3 0 0 Z " fill="#B7DC87" transform="translate(163,141)"/>
<path d="M0 0 C0.33 0 0.66 0 1 0 C1.46450943 6.50313209 0.32575612 10.4174808 -3 16 C-4.49828872 12.11764181 -3.43110582 9.56550712 -2.0625 5.75 C-1.68222656 4.67234375 -1.30195313 3.5946875 -0.91015625 2.484375 C-0.45962891 1.25460938 -0.45962891 1.25460938 0 0 Z " fill="#BEDD99" transform="translate(13,128)"/>
<path d="M0 0 C4.55015893 1.51671964 6.50057264 5.16891053 9 9 C7.68 8.34 6.36 7.68 5 7 C5 6.34 5 5.68 5 5 C3.02 5.33 1.04 5.66 -1 6 C-1.33 5.01 -1.66 4.02 -2 3 C-1.34 2.01 -0.68 1.02 0 0 Z " fill="#2F3A2E" transform="translate(279,112)"/>
<path d="M0 0 C3.75563429 2.20919664 7.38776679 4.56384272 11 7 C10.34 7.66 9.68 8.32 9 9 C8.01 9 7.02 9 6 9 C6 8.34 6 7.68 6 7 C5.34 7 4.68 7 4 7 C4 6.34 4 5.68 4 5 C3.34 5 2.68 5 2 5 C1.34 3.35 0.68 1.7 0 0 Z " fill="#F2FCE5" transform="translate(86,364)"/>
<path d="M0 0 C1.65 0 3.3 0 5 0 C5.144375 1.051875 5.28875 2.10375 5.4375 3.1875 C5.87526966 6.15460549 6.37804866 9.06794366 7 12 C6.67 11.34 6.34 10.68 6 10 C5.34 10 4.68 10 4 10 C3.32845067 8.71086513 2.66291141 7.41859796 2 6.125 C1.62875 5.40570313 1.2575 4.68640625 0.875 3.9453125 C0 2 0 2 0 0 Z " fill="#BEDE92" transform="translate(27,298)"/>
<path d="M0 0 C1.32631089 3.97893268 0.35756641 6.06442857 -0.8125 10.0625 C-1.16957031 11.31160156 -1.52664063 12.56070313 -1.89453125 13.84765625 C-3 17 -3 17 -5 19 C-5 17.02 -5 15.04 -5 13 C-4.34 13 -3.68 13 -3 13 C-2.95101563 12.31292969 -2.90203125 11.62585938 -2.8515625 10.91796875 C-2.77679688 10.01691406 -2.70203125 9.11585938 -2.625 8.1875 C-2.52058594 6.84751953 -2.52058594 6.84751953 -2.4140625 5.48046875 C-2 3 -2 3 0 0 Z " fill="#283622" transform="translate(311,227)"/>
<path d="M0 0 C4.60210299 2.30105149 5.00288151 3.46109435 7 8 C7.4125 8.70125 7.825 9.4025 8.25 10.125 C9 12 9 12 8 16 C5.36 10.72 2.72 5.44 0 0 Z " fill="#263524" transform="translate(271,146)"/>
<path d="M0 0 C2.39456443 2.39456443 2.75546876 3.65807308 3 7 C1.75 8.8125 1.75 8.8125 0 10 C-0.99 10 -1.98 10 -3 10 C-1.125 2.25 -1.125 2.25 0 0 Z " fill="#2E3830" transform="translate(174,104)"/>
<path d="M0 0 C0.33 0.66 0.66 1.32 1 2 C-0.57701982 2.55978184 -2.16199242 3.09719401 -3.75 3.625 C-4.63171875 3.92664063 -5.5134375 4.22828125 -6.421875 4.5390625 C-9.41017471 5.07333427 -10.49923002 4.62433191 -13 3 C-4.57142857 -0.42857143 -4.57142857 -0.42857143 0 0 Z " fill="#F3FCE6" transform="translate(279,385)"/>
<path d="M0 0 C1.13115234 0.07831055 1.13115234 0.07831055 2.28515625 0.15820312 C4.1487937 0.28795004 6.01194996 0.42457488 7.875 0.5625 C7.875 0.8925 7.875 1.2225 7.875 1.5625 C5.25049914 1.78369939 2.62629514 1.98996669 0 2.1875 C-0.74636719 2.25195312 -1.49273437 2.31640625 -2.26171875 2.3828125 C-4.2120047 2.52337365 -6.16969467 2.55009849 -8.125 2.5625 C-8.785 1.9025 -9.445 1.2425 -10.125 0.5625 C-6.91158631 -1.04420684 -3.49541032 -0.26260855 0 0 Z " fill="#B6DA8C" transform="translate(192.125,321.4375)"/>
<path d="M0 0 C0.33 0 0.66 0 1 0 C1.3125 2.75 1.3125 2.75 1 6 C-1.375 8.375 -1.375 8.375 -4 10 C-4.66 10 -5.32 10 -6 10 C-6 10.66 -6 11.32 -6 12 C-6.66 12 -7.32 12 -8 12 C-6.79618552 9.50638429 -5.54571278 7.31856917 -4 5 C-3.01 5 -2.02 5 -1 5 C-0.67 3.35 -0.34 1.7 0 0 Z " fill="#EFFBE3" transform="translate(371,304)"/>
<path d="M0 0 C0.8184835 3.14750157 1.39827751 5.73412446 1 9 C-0.9375 11.625 -0.9375 11.625 -3 14 C-3.33 14.99 -3.66 15.98 -4 17 C-4.66 17 -5.32 17 -6 17 C-4.13236819 11.27789404 -2.14710968 5.62338249 0 0 Z " fill="#EAF8D4" transform="translate(388,266)"/>
<path d="M0 0 C0.33 0 0.66 0 1 0 C1.21192221 5.19209404 0.5912689 9.126739 -1 14 C-1.33 12.68 -1.66 11.36 -2 10 C-2.66 10 -3.32 10 -4 10 C-3.38819554 6.32917327 -2.72185913 2.72185913 0 0 Z " fill="#B0D386" transform="translate(284,214)"/>
<path d="M0 0 C0 5.36373351 -2.59801074 9.95001278 -6 14 C-6.50547389 8.6925242 -5.22743563 6.17668141 -2 2 C-1.34 1.34 -0.68 0.68 0 0 Z " fill="#F0FCE4" transform="translate(22,106)"/>
<path d="M0 0 C-1 1.9375 -1 1.9375 -3 4 C-5.69924572 4.66549451 -8.20631637 4.81680763 -11 5 C-8.10998474 1.78887193 -4.47884754 -2.23942377 0 0 Z " fill="#C1DF9B" transform="translate(122,17)"/>
<path d="M0 0 C16.8929385 0.96355353 16.8929385 0.96355353 24 2 C24 2.33 24 2.66 24 3 C21.12474331 3.05425013 18.25052354 3.09379277 15.375 3.125 C14.56675781 3.14175781 13.75851563 3.15851562 12.92578125 3.17578125 C8.19906185 3.21420986 4.44612298 2.82737094 0 1 C0 0.67 0 0.34 0 0 Z " fill="#C3DF9D" transform="translate(216,1)"/>
<path d="M0 0 C4.95 0.33 9.9 0.66 15 1 C15 1.66 15 2.32 15 3 C15.99 3.33 16.98 3.66 18 4 C11.58518742 4.42765417 6.11404596 2.85743168 0 1 C0 0.67 0 0.34 0 0 Z " fill="#C6E3A0" transform="translate(146,392)"/>
<path d="M0 0 C0.66 0.33 1.32 0.66 2 1 C0.35 4.63 -1.3 8.26 -3 12 C-3.33 12 -3.66 12 -4 12 C-4.49230769 4.61538462 -4.49230769 4.61538462 -2 1.5 C-1.34 1.005 -0.68 0.51 0 0 Z " fill="#BFDC94" transform="translate(382,278)"/>
<path d="M0 0 C0.99 0 1.98 0 3 0 C1.50829734 4.9723422 -0.60457417 9.41845739 -3 14 C-3.33 14 -3.66 14 -4 14 C-4.37169941 9.6635069 -3.31392722 7.60972647 -1 4 C-0.30420546 1.80869466 -0.30420546 1.80869466 0 0 Z " fill="#B0CF8A" transform="translate(175,96)"/>
<path d="M0 0 C2.31 0.66 4.62 1.32 7 2 C7 2.66 7 3.32 7 4 C7.66 4 8.32 4 9 4 C9.33 5.32 9.66 6.64 10 8 C6.05205855 6.32971708 3.18203882 3.8204435 0 1 C0 0.67 0 0.34 0 0 Z " fill="#C3DD99" transform="translate(70,351)"/>
<path d="M0 0 C0.66 0 1.32 0 2 0 C0.35821735 4.77609498 -2.26546702 8.79382904 -5 13 C-6.13583456 9.28272326 -5.66670026 7.52948291 -4 4 C-3.34 4 -2.68 4 -2 4 C-2 3.34 -2 2.68 -2 2 C-1.34 2 -0.68 2 0 2 C0 1.34 0 0.68 0 0 Z " fill="#BDDC8F" transform="translate(374,294)"/>
<path d="M0 0 C0.33 0 0.66 0 1 0 C1.3125 2.25 1.3125 2.25 1 5 C-0.62935241 6.37868281 -2.29749607 7.71274093 -4 9 C-4.86965506 11.12946603 -4.86965506 11.12946603 -5 13 C-5.66 12.67 -6.32 12.34 -7 12 C-7 8.21516391 -5.89417485 7.22592069 -3.5625 4.3125 C-2.92441406 3.50425781 -2.28632813 2.69601562 -1.62890625 1.86328125 C-1.09136719 1.24839844 -0.55382812 0.63351562 0 0 Z " fill="#AACA82" transform="translate(291,274)"/>
<path d="M0 0 C2.52758256 2.96716213 3.64590422 5.10494645 4 9 C3.78397966 11.69774239 3.40871505 14.32064576 3 17 C2.67 17 2.34 17 2 17 C0.7017874 11.23918159 -0.25706972 5.91260345 0 0 Z " fill="#212B23" transform="translate(284,172)"/>
<path d="M0 0 C4.75 0.875 4.75 0.875 7 2 C7.625 5.0625 7.625 5.0625 8 8 C7.01 8 6.02 8 5 8 C3.61328125 6.25 3.61328125 6.25 2.3125 4 C1.87550781 3.2575 1.43851563 2.515 0.98828125 1.75 C0.66214844 1.1725 0.33601562 0.595 0 0 Z " fill="#ACD080" transform="translate(130,254)"/>
<path d="M0 0 C0.99 0 1.98 0 3 0 C2.67 5.94 2.34 11.88 2 18 C1.67 18 1.34 18 1 18 C0.67 12.06 0.34 6.12 0 0 Z " fill="#B6D987" transform="translate(82,184)"/>
<path d="M0 0 C0.66 0 1.32 0 2 0 C2.625 2.3125 2.625 2.3125 3 5 C2.01 6.485 2.01 6.485 1 8 C0.36707617 10.11280345 0.36707617 10.11280345 0 12 C-0.66 12 -1.32 12 -2 12 C-1 3.42857143 -1 3.42857143 0 0 Z " fill="#202723" transform="translate(308,164)"/>
<path d="M0 0 C0.33 0 0.66 0 1 0 C1.06058594 0.63808594 1.12117187 1.27617187 1.18359375 1.93359375 C1.26738281 2.75988281 1.35117188 3.58617187 1.4375 4.4375 C1.51871094 5.26121094 1.59992188 6.08492187 1.68359375 6.93359375 C1.78930815 8.98662025 1.78930815 8.98662025 3 10 C3.07205511 11.68608966 3.08386068 13.37500659 3.0625 15.0625 C3.05347656 15.98160156 3.04445312 16.90070313 3.03515625 17.84765625 C3.02355469 18.55792969 3.01195312 19.26820313 3 20 C2.67 20 2.34 20 2 20 C-0.07965362 13.24112575 -0.21133202 7.04440079 0 0 Z " fill="#384832" transform="translate(166,150)"/>
<path d="M0 0 C1 3 1 3 0 6 C-1.875 7.75 -1.875 7.75 -4 9 C-4.99 8.67 -5.98 8.34 -7 8 C-4.69 5.36 -2.38 2.72 0 0 Z " fill="#C3E19A" transform="translate(47,71)"/>
<path d="M0 0 C0.99 0.33 1.98 0.66 3 1 C-2.64524422 6.80205656 -2.64524422 6.80205656 -6 9 C-6.66 9 -7.32 9 -8 9 C-7.67 8.01 -7.34 7.02 -7 6 C-6.01 6 -5.02 6 -4 6 C-4 5.01 -4 4.02 -4 3 C-3.01 2.34 -2.02 1.68 -1 1 C-0.67 0.67 -0.34 0.34 0 0 Z " fill="#2B3B25" transform="translate(270,293)"/>
<path d="M0 0 C-1.98 2.97 -1.98 2.97 -4 6 C-4.33 5.01 -4.66 4.02 -5 3 C-6.65 3 -8.3 3 -10 3 C-6.84439813 -0.15560187 -4.30999015 -1.43666338 0 0 Z " fill="#3D5431" transform="translate(166,84)"/>
<path d="M0 0 C4.14536674 0.4710644 6.9919792 0.9919792 10 4 C10 4.99 10 5.98 10 7 C7.0280615 5.87548273 4.66559313 4.77706209 2 3 C2 2.34 2 1.68 2 1 C1.34 0.67 0.68 0.34 0 0 Z " fill="#EEFBE0" transform="translate(310,32)"/>
<path d="M0 0 C1.29608947 0.93137592 2.58671632 1.8703566 3.875 2.8125 C4.59429687 3.33457031 5.31359375 3.85664063 6.0546875 4.39453125 C8 6 8 6 10 9 C9.01 9.33 8.02 9.66 7 10 C6 9 5 8 4 7 C3.46375 6.525625 2.9275 6.05125 2.375 5.5625 C0.76723224 3.73549119 0.51043718 2.34512175 0 0 Z " fill="#AACB85" transform="translate(118,287)"/>
<path d="M0 0 C2.64 0 5.28 0 8 0 C8 1.32 8 2.64 8 4 C8.99 4.33 9.98 4.66 11 5 C8 6 8 6 5.95703125 5.0390625 C5.24933594 4.57242187 4.54164063 4.10578125 3.8125 3.625 C3.09707031 3.16351563 2.38164062 2.70203125 1.64453125 2.2265625 C1.10183594 1.82179688 0.55914062 1.41703125 0 1 C0 0.67 0 0.34 0 0 Z " fill="#A5C77C" transform="translate(152,277)"/>
<path d="M0 0 C0.33 0.99 0.66 1.98 1 3 C-1.375 6.1875 -1.375 6.1875 -4 9 C-4.33 9 -4.66 9 -5 9 C-5 6.69 -5 4.38 -5 2 C-3.68 2.33 -2.36 2.66 -1 3 C-0.67 2.01 -0.34 1.02 0 0 Z " fill="#2C362B" transform="translate(289,274)"/>
<path d="M0 0 C2.31282587 3.46923881 2.42478586 4.92205575 2 9 C0.5 10.875 0.5 10.875 -1 12 C-2.36884358 7.48281619 -1.47075246 4.41225737 0 0 Z " fill="#293725" transform="translate(90,161)"/>
<path d="M0 0 C2.96404505 2.80804268 5.44499019 5.18315774 7 9 C6.34 9 5.68 9 5 9 C4.67 9.66 4.34 10.32 4 11 C3.67 9.68 3.34 8.36 3 7 C2.01 7.495 2.01 7.495 1 8 C0.67 5.36 0.34 2.72 0 0 Z " fill="#A2C579" transform="translate(264,137)"/>
<path d="M0 0 C5.29860806 1.2976183 9.34525646 3.15015702 14 6 C14 6.33 14 6.66 14 7 C12.35 7 10.7 7 9 7 C9 6.34 9 5.68 9 5 C7.35 4.67 5.7 4.34 4 4 C4 3.34 4 2.68 4 2 C2.68 1.67 1.36 1.34 0 1 C0 0.67 0 0.34 0 0 Z " fill="#C1DF9C" transform="translate(278,16)"/>
<path d="M0 0 C3.3114019 0.57093136 4.75054423 1.54604826 7 4 C7.66 4.33 8.32 4.66 9 5 C9 6.65 9 8.3 9 10 C4.3125 6.38671875 4.3125 6.38671875 3 5 C3 4.01 3 3.02 3 2 C2.01 1.67 1.02 1.34 0 1 C0 0.67 0 0.34 0 0 Z " fill="#C3E097" transform="translate(45,326)"/>
<path d="M0 0 C2.44839588 3.67259383 4 6.54648201 4 11 C3.01 11 2.02 11 1 11 C-1.42857143 3.57142857 -1.42857143 3.57142857 0 0 Z " fill="#F2FCE0" transform="translate(11,266)"/>
<path d="M0 0 C2.57619276 1.91315119 2.98395232 2.9016314 3.51171875 6.13671875 C3.56972656 7.30847656 3.62773437 8.48023438 3.6875 9.6875 C3.75324219 10.86699219 3.81898438 12.04648438 3.88671875 13.26171875 C3.92410156 14.16535156 3.96148437 15.06898438 4 16 C3.67 16 3.34 16 3 16 C2.49193553 14.27318563 1.99389533 12.54342021 1.5 10.8125 C1.08234375 9.36810547 1.08234375 9.36810547 0.65625 7.89453125 C0.03322392 5.14654124 -0.12302812 2.80401584 0 0 Z " fill="#EEFBE1" transform="translate(392,141)"/>
<path d="M0 0 C3.65316671 1.24976756 4.78065836 1.67098753 7 5 C7 5.99 7 6.98 7 8 C3.70851757 6.86500606 3.0040131 6.00716624 1.25 2.875 C0.8375 1.92625 0.425 0.9775 0 0 Z " fill="#AFD087" transform="translate(206,182)"/>
<path d="M0 0 C0.33 0 0.66 0 1 0 C1.125 7.625 1.125 7.625 0 11 C-0.66 11 -1.32 11 -2 11 C-1.85957123 9.35369672 -1.71250671 7.70795821 -1.5625 6.0625 C-1.48128906 5.14597656 -1.40007813 4.22945312 -1.31640625 3.28515625 C-1 1 -1 1 0 0 Z " fill="#BFDC95" transform="translate(8,144)"/>
<path d="M0 0 C0.33 0 0.66 0 1 0 C1 1.98 1 3.96 1 6 C1.66 6 2.32 6 3 6 C2.67 6.66 2.34 7.32 2 8 C-0.5625 8.625 -0.5625 8.625 -3 9 C-2.01 6.03 -1.02 3.06 0 0 Z " fill="#ACCE82" transform="translate(157,99)"/>
<path d="M0 0 C-1.9626228 2.04795423 -3.4277307 2.94976638 -6.26953125 3.19921875 C-8.51954383 3.18858877 -10.75385562 3.12958525 -13 3 C-10.37358828 1.24905885 -8.89308789 0.54725362 -5.9375 -0.1875 C-5.24527344 -0.36667969 -4.55304688 -0.54585938 -3.83984375 -0.73046875 C-2 -1 -2 -1 0 0 Z " fill="#F0FCDC" transform="translate(266,390)"/>
<path d="M0 0 C0.33 0.66 0.66 1.32 1 2 C1.66 2.33 2.32 2.66 3 3 C1.02 5.97 1.02 5.97 -1 9 C-2.1875 7.3125 -2.1875 7.3125 -3 5 C-1.625 2.25 -1.625 2.25 0 0 Z " fill="#29342D" transform="translate(214,306)"/>
<path d="M0 0 C0 0.99 0 1.98 0 3 C-0.66 3 -1.32 3 -2 3 C-2 4.65 -2 6.3 -2 8 C-4.97 7.505 -4.97 7.505 -8 7 C-5.42215154 4.35247996 -3.08351902 2.05567935 0 0 Z " fill="#A8C97F" transform="translate(272,295)"/>
<path d="M0 0 C0.33 0.66 0.66 1.32 1 2 C0.34 2 -0.32 2 -1 2 C-1.33 2.99 -1.66 3.98 -2 5 C-4.4375 6.75 -4.4375 6.75 -7 8 C-7.66 7.67 -8.32 7.34 -9 7 C-8.06894211 6.01470572 -7.12987519 5.03697556 -6.1875 4.0625 C-5.66542969 3.51722656 -5.14335937 2.97195313 -4.60546875 2.41015625 C-3 1 -3 1 0 0 Z " fill="#A7C682" transform="translate(282,287)"/>
<path d="M0 0 C0.33 0 0.66 0 1 0 C1 2.64 1 5.28 1 8 C0.01 8.33 -0.98 8.66 -2 9 C-2.33 9.66 -2.66 10.32 -3 11 C-2.69078116 9.54096742 -2.37751201 8.08279278 -2.0625 6.625 C-1.88847656 5.81289062 -1.71445312 5.00078125 -1.53515625 4.1640625 C-1 2 -1 2 0 0 Z " fill="#BDDC91" transform="translate(25,102)"/>
<path d="M0 0 C1.79260132 0.05995322 3.58425795 0.1487241 5.375 0.25 C6.87160156 0.31960938 6.87160156 0.31960938 8.3984375 0.390625 C11 1 11 1 12.3515625 3.046875 C12.56554687 3.69140625 12.77953125 4.3359375 13 5 C11.39402675 4.54803755 9.79027492 4.08817673 8.1875 3.625 C6.84751953 3.24214844 6.84751953 3.24214844 5.48046875 2.8515625 C3 2 3 2 0 0 Z " fill="#E7F7CF" transform="translate(266,11)"/>
<path d="M0 0 C1.98 0 3.96 0 6 0 C5 2 5 2 2.8125 3.125 C-0.26769331 4.08328236 -2.79309948 4.14915816 -6 4 C-3 2 -3 2 0 2 C0 1.34 0 0.68 0 0 Z " fill="#BCDC94" transform="translate(272,383)"/>
<path d="M0 0 C0.66 0 1.32 0 2 0 C2 0.66 2 1.32 2 2 C3.32 2.33 4.64 2.66 6 3 C6 4.65 6 6.3 6 8 C5.34 8 4.68 8 4 8 C0 2.58823529 0 2.58823529 0 0 Z " fill="#243222" transform="translate(101,262)"/>
<path d="M0 0 C2.875 -0.1875 2.875 -0.1875 6 0 C6.66 0.99 7.32 1.98 8 3 C7.67 3.99 7.34 4.98 7 6 C5.83054208 5.19152271 4.66449539 4.37810888 3.5 3.5625 C2.8503125 3.11003906 2.200625 2.65757813 1.53125 2.19140625 C1.0259375 1.79824219 0.520625 1.40507813 0 1 C0 0.67 0 0.34 0 0 Z " fill="#A6C682" transform="translate(264,98)"/>
<path d="M0 0 C0.66 0 1.32 0 2 0 C1.54917531 1.46067199 1.08906463 2.91848032 0.625 4.375 C0.36976563 5.18710938 0.11453125 5.99921875 -0.1484375 6.8359375 C-1 9 -1 9 -3 11 C-3.125 5.25 -3.125 5.25 -2 3 C-1.34 3 -0.68 3 0 3 C0 2.01 0 1.02 0 0 Z " fill="#2B3A28" transform="translate(159,90)"/>
<path d="M0 0 C0.66 0 1.32 0 2 0 C2.4125 0.45375 2.825 0.9075 3.25 1.375 C5.58139465 3.53986646 7.97828036 4.12705877 11 5 C11 5.66 11 6.32 11 7 C7.83869257 6.29748724 4.90280067 5.45140033 2 4 C0.6875 1.875 0.6875 1.875 0 0 Z " fill="#F4FDEA" transform="translate(277,12)"/>
<path d="M0 0 C1.32 0.66 2.64 1.32 4 2 C2.68 2.33 1.36 2.66 0 3 C0 3.66 0 4.32 0 5 C-1.65 4.67 -3.3 4.34 -5 4 C-3.35 2.68 -1.7 1.36 0 0 Z " fill="#A9CA7F" transform="translate(256,306)"/>
<path d="M0 0 C0.66 0 1.32 0 2 0 C2.6875 1.6875 2.6875 1.6875 3 4 C1.625 6.75 1.625 6.75 0 9 C-0.33 9 -0.66 9 -1 9 C-0.67 6.03 -0.34 3.06 0 0 Z " fill="#B2D585" transform="translate(195,279)"/>
<path d="M0 0 C4.59306496 1.4859916 7.43569245 3.85014682 11 7 C10.34 7.66 9.68 8.32 9 9 C7.49704815 7.69088122 5.99770689 6.37761608 4.5 5.0625 C3.6646875 4.33160156 2.829375 3.60070312 1.96875 2.84765625 C1.3190625 2.23792969 0.669375 1.62820312 0 1 C0 0.67 0 0.34 0 0 Z " fill="#A4C381" transform="translate(272,104)"/>
<path d="M0 0 C-1.49836105 3.11198065 -3.19933758 6.0534615 -5 9 C-6 6 -6 6 -5.1875 3.375 C-3.78269094 0.56538188 -3.13077071 0 0 0 Z " fill="#A9CA82" transform="translate(184,87)"/>
<path d="M0 0 C0.66 0.33 1.32 0.66 2 1 C-0.46153846 5.8 -0.46153846 5.8 -3.1875 6.8125 C-3.785625 6.874375 -4.38375 6.93625 -5 7 C-4.67 6.01 -4.34 5.02 -4 4 C-3.34 4 -2.68 4 -2 4 C-1.34 2.68 -0.68 1.36 0 0 Z " fill="#F8FEEE" transform="translate(356,326)"/>
<path d="M0 0 C0.66 0 1.32 0 2 0 C4.1519437 3.22791555 4.20086443 4.28400809 4 8 C3.34 7.67 2.68 7.34 2 7 C2 6.34 2 5.68 2 5 C1.34 5 0.68 5 0 5 C0 3.35 0 1.7 0 0 Z " fill="#C9E3A6" transform="translate(16,277)"/>
<path d="M0 0 C0.33 0 0.66 0 1 0 C1 2.31 1 4.62 1 7 C-0.65 7.33 -2.3 7.66 -4 8 C-2.68 5.36 -1.36 2.72 0 0 Z " fill="#344530" transform="translate(275,245)"/>
<path d="M0 0 C1.32 0 2.64 0 4 0 C5.16552619 4.19589427 5.08954032 4.82091936 3 9 C2.01 6.03 1.02 3.06 0 0 Z " fill="#283332" transform="translate(199,225)"/>
<path d="M0 0 C0.33 0 0.66 0 1 0 C1 2.97 1 5.94 1 9 C0.01 9.33 -0.98 9.66 -2 10 C-1.54177532 6.53058454 -1.10868317 3.32604951 0 0 Z " fill="#B8DC89" transform="translate(398,211)"/>
<path d="M0 0 C0.99 0 1.98 0 3 0 C2.40072174 3.35595828 1.15377564 5.37801226 -1 8 C-1.33 6.35 -1.66 4.7 -2 3 C-1.34 3 -0.68 3 0 3 C0 2.01 0 1.02 0 0 Z " fill="#B2DA8B" transform="translate(307,144)"/>
<path d="M0 0 C2.64465038 3.1254959 3.84414715 6.08788267 5 10 C4.34 10 3.68 10 3 10 C3 9.01 3 8.02 3 7 C2.34 7 1.68 7 1 7 C0.34 5.02 -0.32 3.04 -1 1 C-0.67 0.67 -0.34 0.34 0 0 Z " fill="#C7E2A5" transform="translate(35,309)"/>
<path d="M0 0 C3.3 1.65 6.6 3.3 10 5 C6 6 6 6 2.75 4.1875 C1.8425 3.465625 0.935 2.74375 0 2 C0 1.34 0 0.68 0 0 Z " fill="#ACCA87" transform="translate(139,304)"/>
<path d="M0 0 C0.99 0.33 1.98 0.66 3 1 C0.64722731 3.72426311 -1.62496331 4.8141763 -5 6 C-5.33 5.34 -5.66 4.68 -6 4 C-3 2 -3 2 0 2 C0 1.34 0 0.68 0 0 Z " fill="#2B3B24" transform="translate(251,306)"/>
<path d="M0 0 C6.42857143 4.14285714 6.42857143 4.14285714 9 7 C7.35 6.67 5.7 6.34 4 6 C4 5.34 4 4.68 4 4 C2.68 3.67 1.36 3.34 0 3 C0 2.01 0 1.02 0 0 Z " fill="#ABC987" transform="translate(128,296)"/>
<path d="M0 0 C1.99097846 2.98646769 2.94124926 5.59687262 4 9 C2.68 8.67 1.36 8.34 0 8 C0 5.36 0 2.72 0 0 Z " fill="#9EBB7D" transform="translate(169,174)"/>
<path d="M0 0 C0.33 0.66 0.66 1.32 1 2 C0.06553465 4.03144641 -0.93224776 6.03533587 -2 8 C-2.99 7.01 -3.98 6.02 -5 5 C-3.35 3.35 -1.7 1.7 0 0 Z " fill="#AFD284" transform="translate(145,127)"/>
<path d="M0 0 C0.66 0.33 1.32 0.66 2 1 C1.34 2.32 0.68 3.64 0 5 C-0.66 5 -1.32 5 -2 5 C-2.33 6.32 -2.66 7.64 -3 9 C-3.66 9 -4.32 9 -5 9 C-3.7508258 5.54074837 -2.32472205 2.85306797 0 0 Z " fill="#32422A" transform="translate(109,123)"/>
<path d="M0 0 C2.97 0.99 5.94 1.98 9 3 C8.01 3.66 7.02 4.32 6 5 C4.02 4.01 2.04 3.02 0 2 C0 1.34 0 0.68 0 0 Z " fill="#A9CA83" transform="translate(226,111)"/>
<path d="M0 0 C2.91227269 3.28804981 4.49701212 5.59885603 5 10 C2.5 8.375 2.5 8.375 0 6 C-0.3125 2.75 -0.3125 2.75 0 0 Z " fill="#C3E19B" transform="translate(372,98)"/>
<path d="M0 0 C1.125 3.75 1.125 3.75 0 6 C-1.65 6 -3.3 6 -5 6 C-3.35 4.02 -1.7 2.04 0 0 Z " fill="#C1DF97" transform="translate(53,64)"/>
<path d="M0 0 C-3.44450737 2.29633824 -5.93812283 2.54016485 -10 3 C-10 2.34 -10 1.68 -10 1 C-6.78548731 -0.60725635 -3.56387464 -0.05748185 0 0 Z " fill="#BDDB8F" transform="translate(256,391)"/>
<path d="M0 0 C4.95 0.99 4.95 0.99 10 2 C9.01 2.99 8.02 3.98 7 5 C6.01 4.67 5.02 4.34 4 4 C4.33 3.34 4.66 2.68 5 2 C3.35 1.67 1.7 1.34 0 1 C0 0.67 0 0.34 0 0 Z " fill="#2C3832" transform="translate(174,289)"/>
<path d="M0 0 C0.99 0.99 1.98 1.98 3 3 C2.03114628 4.68496298 1.03013277 6.35178756 0 8 C-0.33 8 -0.66 8 -1 8 C-1.125 2.25 -1.125 2.25 0 0 Z " fill="#2B3829" transform="translate(293,265)"/>
<path d="M0 0 C0.66 0 1.32 0 2 0 C2 0.66 2 1.32 2 2 C2.99 2.33 3.98 2.66 5 3 C5 3.66 5 4.32 5 5 C4.34 5 3.68 5 3 5 C2.67 5.66 2.34 6.32 2 7 C0.5393715 4.35261084 0 3.10551666 0 0 Z " fill="#262F2A" transform="translate(175,186)"/>
<path d="M0 0 C2.66735273 2.48952921 4.55746343 4.63408134 6 8 C5.01 8 4.02 8 3 8 C3 7.01 3 6.02 3 5 C2.01 4.67 1.02 4.34 0 4 C0 2.68 0 1.36 0 0 Z " fill="#2F3E2A" transform="translate(205,182)"/>
<path d="M0 0 C0.99 0.33 1.98 0.66 3 1 C-0.465 3.97 -0.465 3.97 -4 7 C-4 6.01 -4 5.02 -4 4 C-3.34 4 -2.68 4 -2 4 C-2 3.01 -2 2.02 -2 1 C-1.34 0.67 -0.68 0.34 0 0 Z " fill="#A2C380" transform="translate(120,108)"/>
<path d="M0 0 C1.33332095 2.6666419 0.67102033 4.16680303 0 7 C-1.32 7.33 -2.64 7.66 -4 8 C-2.87548273 5.0280615 -1.77706209 2.66559313 0 0 Z " fill="#2F3F2C" transform="translate(182,90)"/>
<path d="M0 0 C1.31602523 0.61754259 2.62773556 1.24428742 3.9375 1.875 C4.66839844 2.22304688 5.39929688 2.57109375 6.15234375 2.9296875 C8 4 8 4 9 6 C6.03 5.505 6.03 5.505 3 5 C3 4.34 3 3.68 3 3 C2.01 2.67 1.02 2.34 0 2 C0 1.34 0 0.68 0 0 Z " fill="#BCDD8E" transform="translate(293,23)"/>
<path d="M0 0 C-0.99 1.485 -0.99 1.485 -2 3 C-3.65 2.67 -5.3 2.34 -7 2 C-7 1.34 -7 0.68 -7 0 C-2.25 -1.125 -2.25 -1.125 0 0 Z " fill="#EAF9DC" transform="translate(251,394)"/>
<path d="M0 0 C1.98 0 3.96 0 6 0 C3.37801226 2.15377564 1.35595828 3.40072174 -2 4 C-1.34 2.68 -0.68 1.36 0 0 Z " fill="#B9DB8D" transform="translate(298,370)"/>
<path d="M0 0 C1.65 0 3.3 0 5 0 C6.125 3.75 6.125 3.75 5 6 C3.35 4.02 1.7 2.04 0 0 Z " fill="#BFDF90" transform="translate(56,338)"/>
<path d="M0 0 C3.25696479 0.41755959 4.63443291 0.63443291 7 3 C5.25 3.6875 5.25 3.6875 3 4 C0.75 2.5625 0.75 2.5625 -1 1 C-0.67 0.67 -0.34 0.34 0 0 Z " fill="#313E2B" transform="translate(144,305)"/>
<path d="M0 0 C0.99 0 1.98 0 3 0 C1.25 5.75 1.25 5.75 -1 8 C-0.67 5.36 -0.34 2.72 0 0 Z " fill="#27351F" transform="translate(220,297)"/>
<path d="M0 0 C2.97 0.33 5.94 0.66 9 1 C8.67 1.66 8.34 2.32 8 3 C5.6568787 2.74438677 3.32156597 2.40729228 1 2 C0.67 1.34 0.34 0.68 0 0 Z " fill="#AACA88" transform="translate(179,289)"/>
<path d="M0 0 C2.88437779 1.29299694 4.87219421 2.65941363 7 5 C6.01 5.495 6.01 5.495 5 6 C4.01 5.67 3.02 5.34 2 5 C0.8125 2.4375 0.8125 2.4375 0 0 Z " fill="#2D3A28" transform="translate(143,271)"/>
<path d="M0 0 C3.82946843 1.45255699 5.12050295 3.42895561 7 7 C4.625 6.3125 4.625 6.3125 2 5 C0.6875 2.375 0.6875 2.375 0 0 Z " fill="#B1D18B" transform="translate(106,274)"/>
<path d="M0 0 C3 1 3 1 4.1875 3.0625 C4.455625 3.701875 4.72375 4.34125 5 5 C3.35 5 1.7 5 0 5 C-0.33 4.01 -0.66 3.02 -1 2 C-0.67 1.34 -0.34 0.68 0 0 Z " fill="#A7CB7B" transform="translate(177,195)"/>
<path d="M0 0 C5.4611399 0.35233161 5.4611399 0.35233161 8 1 C9.5 3.0625 9.5 3.0625 10 5 C5 3 5 3 0 1 C0 0.67 0 0.34 0 0 Z " fill="#A1BE7F" transform="translate(243,86)"/>
<path d="M0 0 C1.65 1.65 3.3 3.3 5 5 C4.01 5.33 3.02 5.66 2 6 C1.34 5.67 0.68 5.34 0 5 C0 3.35 0 1.7 0 0 Z " fill="#C3E09A" transform="translate(339,56)"/>
</svg>
