<?xml version="1.0" encoding="UTF-8"?>
<svg version="1.1" xmlns="http://www.w3.org/2000/svg" width="400" height="400">
<path d="M0 0 C132 0 264 0 400 0 C400 132 400 264 400 400 C268 400 136 400 0 400 C0 268 0 136 0 0 Z " fill="#151412" transform="translate(0,0)"/>
<path d="M0 0 C3.75844204 2.48221094 6.7437269 5.26671659 9.875 8.5 C12.86931839 11.52647607 15.87310108 14.54354483 18.875 17.5625 C20.06609375 18.76616211 20.06609375 18.76616211 21.28125 19.99414062 C25.00641832 23.73483048 28.70707328 27.24978191 32.875 30.5 C33.93044917 31.63544654 34.95283637 32.80264903 35.9375 34 C39.14040549 37.74493565 42.52159188 41.26361022 46 44.75 C46.50281494 45.25724609 47.00562988 45.76449219 47.52368164 46.28710938 C49.77182602 48.52674786 52.03765148 50.62973678 54.51953125 52.609375 C56.78611439 54.42865566 58.56995995 56.28148375 60.4375 58.5 C62.81784487 61.28573111 65.2288236 63.95967066 67.875 66.5 C66.38846494 69.96629835 64.41777649 72.19022036 61.7421875 74.828125 C60.93652344 75.62734375 60.13085938 76.4265625 59.30078125 77.25 C58.45902344 78.075 57.61726562 78.9 56.75 79.75 C55.47576172 81.01070312 55.47576172 81.01070312 54.17578125 82.296875 C52.07995077 84.36915683 49.97959287 86.43662393 47.875 88.5 C49.36153506 91.96629835 51.33222351 94.19022036 54.0078125 96.828125 C54.81347656 97.62734375 55.61914062 98.4265625 56.44921875 99.25 C57.29097656 100.075 58.13273438 100.9 59 101.75 C59.84949219 102.59046875 60.69898438 103.4309375 61.57421875 104.296875 C63.67004923 106.36915683 65.77040713 108.43662393 67.875 110.5 C66.52711311 113.50585732 65.03186068 115.58847994 62.69799805 117.90405273 C62.05360275 118.54829697 61.40920746 119.1925412 60.74528503 119.85630798 C60.04945816 120.54181229 59.35363129 121.22731659 58.63671875 121.93359375 C57.91893753 122.64854507 57.20115631 123.3634964 56.46162415 124.10011292 C54.16657221 126.38398338 51.86467724 128.66081433 49.5625 130.9375 C48.02362939 132.46633485 46.4852127 133.99562674 44.94726562 135.52539062 C42.11437957 138.34195943 39.27890299 141.15586154 36.44018555 143.96655273 C33.57657323 146.80255698 30.72211419 149.64741819 27.875 152.5 C14.125 166.25 14.125 166.25 11.87548828 168.49414062 C10.27624595 170.09767675 8.69382458 171.71798259 7.1171875 173.34375 C-4.19564881 184.22299328 -18.55703512 188.26323596 -33.84350586 188.02148438 C-48.27571265 187.41094972 -62.80149651 181.42778595 -72.79296875 170.7109375 C-73.29441406 170.10507812 -73.79585937 169.49921875 -74.3125 168.875 C-78.64228908 163.80620972 -83.38005531 159.17628794 -88.125 154.5 C-91.38657234 151.24451521 -94.63734371 147.97856144 -97.8828125 144.70703125 C-99.67180769 142.9087872 -101.46087212 141.11061203 -103.25 139.3125 C-104.15621094 138.39791016 -105.06242187 137.48332031 -105.99609375 136.54101562 C-106.86621094 135.66767578 -107.73632812 134.79433594 -108.6328125 133.89453125 C-109.42316895 133.09893799 -110.21352539 132.30334473 -111.02783203 131.48364258 C-113.16125912 129.35393655 -113.16125912 129.35393655 -116.125 127.5 C-116.125 126.84 -116.125 126.18 -116.125 125.5 C-116.785 125.5 -117.445 125.5 -118.125 125.5 C-119.67578125 123.92578125 -119.67578125 123.92578125 -121.4375 121.8125 C-124.20999308 118.54699036 -127.05100859 115.48084015 -130.125 112.5 C-128.63846494 109.03370165 -126.66777649 106.80977964 -123.9921875 104.171875 C-123.18652344 103.37265625 -122.38085938 102.5734375 -121.55078125 101.75 C-120.70902344 100.925 -119.86726563 100.1 -119 99.25 C-118.15050781 98.40953125 -117.30101563 97.5690625 -116.42578125 96.703125 C-114.32995077 94.63084317 -112.22959287 92.56337607 -110.125 90.5 C-111.61153506 87.03370165 -113.58222351 84.80977964 -116.2578125 82.171875 C-117.06347656 81.37265625 -117.86914062 80.5734375 -118.69921875 79.75 C-119.54097656 78.925 -120.38273437 78.1 -121.25 77.25 C-122.52423828 75.98929688 -122.52423828 75.98929688 -123.82421875 74.703125 C-125.92004923 72.63084317 -128.02040713 70.56337607 -130.125 68.5 C-128.33618173 64.62843102 -125.85162354 61.996687 -122.8125 59.0625 C-122.33876953 58.59779297 -121.86503906 58.13308594 -121.37695312 57.65429688 C-119.96233614 56.26677242 -118.54368488 54.88336493 -117.125 53.5 C-115.45658168 51.83505635 -113.7903708 50.16798776 -112.125 48.5 C-110.73837869 47.11318382 -109.35164884 45.72647616 -107.96484375 44.33984375 C-107.18052979 43.55552979 -106.39621582 42.77121582 -105.58813477 41.96313477 C-76.28515625 12.66015625 -76.28515625 12.66015625 -74.08053589 10.45799255 C-72.89726655 9.27323672 -71.71658146 8.08588133 -70.540802 6.89369202 C-51.72209078 -12.16917328 -22.2035017 -13.51131861 0 0 Z " fill="#FAA7B5" transform="translate(231.125,110.5)"/>
<path d="M0 0 C8.24773497 6.35236506 15.44996372 14.31807972 22.7890625 21.69140625 C23.98524287 22.88945673 25.18164795 24.0872829 26.37826538 25.28489685 C29.49407528 28.40448528 32.60686779 31.527067 35.71899414 34.65032959 C38.90846561 37.85011669 42.10084711 41.04699773 45.29296875 44.24414062 C51.53146191 50.49328861 57.76676337 56.74560887 64 63 C62.3716862 67.09356119 59.43619203 69.85944435 56.3762207 72.91430664 C55.80195847 73.4952861 55.22769623 74.07626556 54.6360321 74.67485046 C52.73790816 76.59195596 50.83234287 78.50144416 48.92578125 80.41015625 C47.60004605 81.74231973 46.27446126 83.07463291 44.94902039 84.40708923 C42.16920169 87.19888145 39.38528086 89.98650954 36.59887695 92.77172852 C33.03560374 96.33479866 29.48627714 99.91141613 25.94038105 103.49176884 C23.20623997 106.24818956 20.46301357 108.99542908 17.71718407 111.74020195 C16.40509406 113.05464672 15.09623356 114.37232369 13.79073524 115.69331551 C11.96014126 117.54358787 10.11720471 119.38065936 8.27075195 121.21508789 C7.73801666 121.75906219 7.20528137 122.3030365 6.65640259 122.86349487 C0.96078117 128.4657188 -5.22199866 130.52219987 -13.125 131.3125 C-26.57479504 130.22783911 -33.72434056 122.21217179 -42.63671875 113.046875 C-44.00951013 111.66100715 -45.38387071 110.2766921 -46.75971985 108.89385986 C-50.35430464 105.27271188 -53.92735615 101.63103707 -57.49615479 97.98449707 C-61.1505444 94.25814541 -64.82515141 90.55184647 -68.49804688 86.84375 C-75.68515814 79.58185446 -82.84965394 72.29808622 -90 65 C-88.37237721 60.92438619 -85.46455478 58.15492186 -82.42382812 55.1015625 C-81.85438477 54.52218933 -81.28494141 53.94281616 -80.69824219 53.34588623 C-78.81483867 51.43330572 -76.92376108 49.52856662 -75.03125 47.625 C-73.71284799 46.29508656 -72.39444796 44.96517117 -71.0760498 43.63525391 C-68.30914272 40.84734355 -65.53761048 38.06411607 -62.76367188 35.28320312 C-59.224019 31.73260538 -55.70328435 28.16386234 -52.18677521 24.59036255 C-49.46869168 21.83487517 -46.73713185 19.09304711 -44.0018158 16.35467529 C-42.69878102 15.04561687 -41.40071397 13.73159282 -40.10792542 12.41241455 C-28.35188692 0.43376035 -16.91020907 -7.77056462 0 0 Z " fill="#161311" transform="translate(213,136)"/>
<path d="M0 0 C0 0.99 0 1.98 0 3 C-1.96876132 4.74503844 -3.93798077 6.376601 -6 8 C-9.03034148 10.54802744 -9.03034148 10.54802744 -10.4375 14.0625 C-11 16 -11 16 -13.4375 17.625 C-14.283125 18.07875 -15.12875 18.5325 -16 19 C-18.35953094 21.35953094 -18.49141413 22.77895617 -19 26 C-19.763125 26.0825 -20.52625 26.165 -21.3125 26.25 C-24.09543496 26.78247809 -24.09543496 26.78247809 -25.8125 28.875 C-27.24391068 31.03075628 -27.24391068 31.03075628 -27 34 C-27.99 34 -28.98 34 -30 34 C-32.14853436 34.53195637 -32.14853436 34.53195637 -34 36 C-34.495 37.5159375 -34.495 37.5159375 -35 39.0625 C-35.33 40.031875 -35.66 41.00125 -36 42 C-36.639375 42.144375 -37.27875 42.28875 -37.9375 42.4375 C-38.618125 42.623125 -39.29875 42.80875 -40 43 C-40.6496875 44.7015625 -40.6496875 44.7015625 -41.3125 46.4375 C-43 50 -43 50 -46.6875 51.4375 C-47.780625 51.623125 -48.87375 51.80875 -50 52 C-50 53.98 -50 55.96 -50 58 C-51.1446875 57.9071875 -51.1446875 57.9071875 -52.3125 57.8125 C-54.97487954 57.75537184 -54.97487954 57.75537184 -56.6171875 59.203125 C-58.37646128 61.48918698 -58.55893985 63.07957628 -58.8125 65.9375 C-58.90144531 66.79214844 -58.99039063 67.64679688 -59.08203125 68.52734375 C-58.99128506 71.26269309 -58.48248508 72.7180861 -57 75 C-54.9664052 76.26804566 -54.9664052 76.26804566 -53 77 C-53 76.34 -53 75.68 -53 75 C-52.34 75 -51.68 75 -51 75 C-51 77.33333333 -51 79.66666667 -51 82 C-50.34 82 -49.68 82 -49 82 C-47 82 -45 82 -43 82 C-41.68 79.69 -40.36 77.38 -39 75 C-37.68 75 -36.36 75 -35 75 C-34.67 72.03 -34.34 69.06 -34 66 C-31.69 66 -29.38 66 -27 66 C-26.67 63.69 -26.34 61.38 -26 59 C-23.36 58.67 -20.72 58.34 -18 58 C-18 61 -18 61 -20.5703125 63.91088867 C-21.74753841 65.08763873 -22.93304138 66.25614424 -24.125 67.41796875 C-24.74648926 68.03521317 -25.36797852 68.65245758 -26.00830078 69.28840637 C-27.99861833 71.26190579 -29.99910395 73.22473225 -32 75.1875 C-33.34964009 76.52209737 -34.69860736 77.85737551 -36.046875 79.19335938 C-39.35682227 82.47019575 -42.67592738 85.73749597 -46 89 C-44.34763349 93.29067546 -41.1094793 96.1429553 -37.8984375 99.296875 C-37.30197418 99.89050842 -36.70551086 100.48414185 -36.0909729 101.09576416 C-34.1903019 102.98526627 -32.28278526 104.86768392 -30.375 106.75 C-29.08287532 108.03209065 -27.79120324 109.31463761 -26.5 110.59765625 C-23.33855521 113.73708432 -20.1709539 116.87017801 -17 120 C-17.66 120.66 -18.32 121.32 -19 122 C-21.45098556 121.60467975 -23.63904279 120.78698574 -26 120 C-26.33 118.02 -26.66 116.04 -27 114 C-29.31 114 -31.62 114 -34 114 C-34 111.33333333 -34 108.66666667 -34 106 C-35.32 106 -36.64 106 -38 106 C-39.34164079 105.7018576 -40.67851173 105.37756808 -42 105 C-42.33 102.69 -42.66 100.38 -43 98 C-43.94875 98 -44.8975 98 -45.875 98 C-47.58333333 98 -49.29166667 98 -51 98 C-51 99.32 -51 100.64 -51 102 C-51 102.99 -51 103.98 -51 105 C-52.32 105 -53.64 105 -55 105 C-57.33333333 106.66666667 -57.33333333 106.66666667 -59 109 C-59 110.32 -59 111.64 -59 113 C-59.2981424 114.34164079 -59.62243192 115.67851173 -60 117 C-59.34 117 -58.68 117 -58 117 C-57.731875 117.804375 -57.46375 118.60875 -57.1875 119.4375 C-56.795625 120.283125 -56.40375 121.12875 -56 122 C-53 123.33333333 -53 123.33333333 -50 122 C-50.33 124.31 -50.66 126.62 -51 129 C-48.36 129.33 -45.72 129.66 -43 130 C-42.855625 130.598125 -42.71125 131.19625 -42.5625 131.8125 C-41.76769727 135.63973374 -41.76769727 135.63973374 -39.0625 138.1875 C-37.05932528 139.12217484 -37.05932528 139.12217484 -35 139 C-34 142 -34 142 -34.9375 144.1875 C-35.288125 144.785625 -35.63875 145.38375 -36 146 C-36.70346558 145.2886792 -36.70346558 145.2886792 -37.42114258 144.56298828 C-39.54896523 142.41436915 -41.68067923 140.26965202 -43.8125 138.125 C-44.55048828 137.37863281 -45.28847656 136.63226563 -46.04882812 135.86328125 C-47.11713867 134.79013672 -47.11713867 134.79013672 -48.20703125 133.6953125 C-48.8616333 133.03547363 -49.51623535 132.37563477 -50.19067383 131.69580078 C-52.0945646 129.81831708 -52.0945646 129.81831708 -55 128 C-55 127.34 -55 126.68 -55 126 C-55.66 126 -56.32 126 -57 126 C-58.55078125 124.42578125 -58.55078125 124.42578125 -60.3125 122.3125 C-63.08499308 119.04699036 -65.92600859 115.98084015 -69 113 C-67.51346494 109.53370165 -65.54277649 107.30977964 -62.8671875 104.671875 C-62.06152344 103.87265625 -61.25585938 103.0734375 -60.42578125 102.25 C-59.58402344 101.425 -58.74226563 100.6 -57.875 99.75 C-57.02550781 98.90953125 -56.17601563 98.0690625 -55.30078125 97.203125 C-53.20495077 95.13084317 -51.10459287 93.06337607 -49 91 C-50.48653506 87.53370165 -52.45722351 85.30977964 -55.1328125 82.671875 C-55.93847656 81.87265625 -56.74414062 81.0734375 -57.57421875 80.25 C-58.41597656 79.425 -59.25773437 78.6 -60.125 77.75 C-61.39923828 76.48929688 -61.39923828 76.48929688 -62.69921875 75.203125 C-64.79504923 73.13084317 -66.89540713 71.06337607 -69 69 C-67.21118173 65.12843102 -64.72662354 62.496687 -61.6875 59.5625 C-61.21376953 59.09779297 -60.74003906 58.63308594 -60.25195312 58.15429688 C-58.83733614 56.76677242 -57.41868488 55.38336493 -56 54 C-54.33158168 52.33505635 -52.6653708 50.66798776 -51 49 C-49.61337869 47.61318382 -48.22664884 46.22647616 -46.83984375 44.83984375 C-46.05552979 44.05552979 -45.27121582 43.27121582 -44.46313477 42.46313477 C-15.16015625 13.16015625 -15.16015625 13.16015625 -12.95829773 10.96000671 C-11.76684858 9.7675178 -10.57723127 8.57319005 -9.39094543 7.37556458 C-6.43407932 4.39239522 -3.54474212 2.22576831 0 0 Z " fill="#EEB69E" transform="translate(170,110)"/>
<path d="M0 0 C3.56764285 1.51376081 5.83706287 3.60513129 8.546875 6.3515625 C9.39121094 7.20234375 10.23554688 8.053125 11.10546875 8.9296875 C12.41451172 10.26386719 12.41451172 10.26386719 13.75 11.625 C14.63816406 12.5221875 15.52632812 13.419375 16.44140625 14.34375 C18.63216969 16.55807004 20.81812763 18.77692435 23 21 C21.48623919 24.56764285 19.39486871 26.83706287 16.6484375 29.546875 C15.79765625 30.39121094 14.946875 31.23554688 14.0703125 32.10546875 C13.18085938 32.97816406 12.29140625 33.85085937 11.375 34.75 C10.4778125 35.63816406 9.580625 36.52632812 8.65625 37.44140625 C6.44192996 39.63216969 4.22307565 41.81812763 2 44 C-1.56764285 42.48623919 -3.83706287 40.39486871 -6.546875 37.6484375 C-7.39121094 36.79765625 -8.23554688 35.946875 -9.10546875 35.0703125 C-9.97816406 34.18085938 -10.85085937 33.29140625 -11.75 32.375 C-12.63816406 31.4778125 -13.52632812 30.580625 -14.44140625 29.65625 C-16.63216969 27.44192996 -18.81812763 25.22307565 -21 23 C-19.48623919 19.43235715 -17.39486871 17.16293713 -14.6484375 14.453125 C-13.79765625 13.60878906 -12.946875 12.76445312 -12.0703125 11.89453125 C-11.18085938 11.02183594 -10.29140625 10.14914063 -9.375 9.25 C-8.4778125 8.36183594 -7.580625 7.47367188 -6.65625 6.55859375 C-4.44192996 4.36783031 -2.22307565 2.18187237 0 0 Z " fill="#F5A6B4" transform="translate(199,178)"/>
<path d="M0 0 C2.34057569 1.99197931 4.67250976 3.99280658 7 6 C8.10021484 6.93972656 8.10021484 6.93972656 9.22265625 7.8984375 C13.67093886 11.75921109 17.68672266 15.73861654 21.4921875 20.234375 C23.22671106 22.26547513 25.07365441 24.15070823 27 26 C25.51346494 29.46629835 23.54277649 31.69022036 20.8671875 34.328125 C20.06152344 35.12734375 19.25585938 35.9265625 18.42578125 36.75 C17.58402344 37.575 16.74226563 38.4 15.875 39.25 C15.02550781 40.09046875 14.17601562 40.9309375 13.30078125 41.796875 C11.20495077 43.86915683 9.10459287 45.93662393 7 48 C8.48653506 51.46629835 10.45722351 53.69022036 13.1328125 56.328125 C14.34130859 57.52695313 14.34130859 57.52695313 15.57421875 58.75 C16.41597656 59.575 17.25773437 60.4 18.125 61.25 C18.97449219 62.09046875 19.82398438 62.9309375 20.69921875 63.796875 C22.79504923 65.86915683 24.89540713 67.93662393 27 70 C25.65211311 73.00585732 24.15686068 75.08847994 21.82299805 77.40405273 C21.17860275 78.04829697 20.53420746 78.6925412 19.87028503 79.35630798 C19.17445816 80.04181229 18.47863129 80.72731659 17.76171875 81.43359375 C17.04393753 82.14854507 16.32615631 82.8634964 15.58662415 83.60011292 C13.29157221 85.88398338 10.98967724 88.16081433 8.6875 90.4375 C7.14862939 91.96633485 5.6102127 93.49562674 4.07226562 95.02539062 C1.23937957 97.84195943 -1.59609701 100.65586154 -4.43481445 103.46655273 C-7.29846356 106.30251492 -10.15299326 109.14731565 -13 112 C-16.66666667 115.66666667 -20.33333333 119.33333333 -24 123 C-24.33 122.01 -24.66 121.02 -25 120 C-24.34 120 -23.68 120 -23 120 C-22.67 118.02 -22.34 116.04 -22 114 C-21.05125 113.7525 -20.1025 113.505 -19.125 113.25 C-15.44034421 111.77613769 -15.62523341 111.34606878 -14 108 C-12.83899165 107.15007523 -11.64735875 106.34131596 -10.4375 105.5625 C-7.43675191 103.56817675 -7.43675191 103.56817675 -6.0625 100.1875 C-6.041875 99.465625 -6.02125 98.74375 -6 98 C-5.21625 97.896875 -4.4325 97.79375 -3.625 97.6875 C-0.66954819 97.22404978 -0.66954819 97.22404978 1 94 C1.16713569 91.37468476 1.16713569 91.37468476 1 89 C2.36125 89.185625 2.36125 89.185625 3.75 89.375 C4.8225 89.25125 5.895 89.1275 7 89 C9.28239171 86.07678035 9.28239171 86.07678035 11 83 C11.66 83 12.32 83 13 83 C13 82.34 13 81.68 13 81 C13.474375 80.5875 13.94875 80.175 14.4375 79.75 C17.16813551 76.69168822 17 72.95327694 17 69 C18.32 69 19.64 69 21 69 C20.67 68.34 20.34 67.68 20 67 C18.68 67 17.36 67 16 67 C16 66.01 16 65.02 16 64 C15.01 64.33 14.02 64.66 13 65 C10.3125 64.5625 10.3125 64.5625 8 64 C8.33 61.36 8.66 58.72 9 56 C8.401875 56.165 7.80375 56.33 7.1875 56.5 C5 57 5 57 2 57 C0.5393715 59.64738916 0 60.89448334 0 64 C-0.99 64.33 -1.98 64.66 -3 65 C-3 64.34 -3 63.68 -3 63 C-5.60140956 64.66369252 -5.60140956 64.66369252 -8 67 C-8.41870553 69.66928121 -8.41870553 69.66928121 -8 72 C-9.485 72.495 -9.485 72.495 -11 73 C-11 72.34 -11 71.68 -11 71 C-11.66 71 -12.32 71 -13 71 C-13 71.66 -13 72.32 -13 73 C-14 74 -15 75 -16 76 C-16.28875 76.680625 -16.5775 77.36125 -16.875 78.0625 C-18 80 -18 80 -20.4375 80.8125 C-23.40795672 81.8284589 -23.40795672 81.8284589 -24.375 85.5625 C-24.91125 86.696875 -25.4475 87.83125 -26 89 C-29.5 89.6875 -29.5 89.6875 -33 90 C-34.96287824 91.91738855 -34.96287824 91.91738855 -36 94 C-36.99 93.67 -37.98 93.34 -39 93 C-24.81 78.81 -10.62 64.62 4 50 C2.47524303 46.95048605 1.07114674 44.63600494 -1 42 C2.67410785 40.82428549 6.16929183 40.92633254 10 41 C9.505 37.535 9.505 37.535 9 34 C12.28696233 33.20046862 13.71023192 32.90341064 17 34 C17 33.34 17 32.68 17 32 C17.99 32 18.98 32 20 32 C20 31.01 20 30.02 20 29 C19.01 29.33 18.02 29.66 17 30 C16.06934867 27.39417629 15.85082593 26.35801776 16.9375 23.75 C17.4634375 22.88375 17.4634375 22.88375 18 22 C17.34 21.67 16.68 21.34 16 21 C16 20.01 16 19.02 16 18 C14.52486614 16.67917382 14.52486614 16.67917382 12.625 15.5625 C9.79979207 13.67902805 8.11019317 12.33057952 7 9 C5.02 9 3.04 9 1 9 C0.505 8.01 0.505 8.01 0 7 C0.66 7 1.32 7 2 7 C2 6.01 2 5.02 2 4 C1.34 4 0.68 4 0 4 C0 2.68 0 1.36 0 0 Z " fill="#EE9DC8" transform="translate(272,151)"/>
<path d="M0 0 C2.34057569 1.99197931 4.67250976 3.99280658 7 6 C8.10021484 6.93972656 8.10021484 6.93972656 9.22265625 7.8984375 C13.67093886 11.75921109 17.68672266 15.73861654 21.4921875 20.234375 C23.22671106 22.26547513 25.07365441 24.15070823 27 26 C24.84611526 30.81062969 21.36852511 33.99945672 17.6875 37.6875 C17.02298828 38.37650391 16.35847656 39.06550781 15.67382812 39.77539062 C15.02220703 40.43087891 14.37058594 41.08636719 13.69921875 41.76171875 C13.10971436 42.35944092 12.52020996 42.95716309 11.9128418 43.57299805 C9.5857476 45.30903705 7.88494407 45.79197803 5 46 C4.34 45.34 3.68 44.68 3 44 C3 43.01 3 42.02 3 41 C5.31 41 7.62 41 10 41 C9.67 38.69 9.34 36.38 9 34 C12.28696233 33.20046862 13.71023192 32.90341064 17 34 C17 33.34 17 32.68 17 32 C17.99 32 18.98 32 20 32 C20 31.01 20 30.02 20 29 C19.01 29.33 18.02 29.66 17 30 C16.06934867 27.39417629 15.85082593 26.35801776 16.9375 23.75 C17.4634375 22.88375 17.4634375 22.88375 18 22 C17.34 21.67 16.68 21.34 16 21 C16 20.01 16 19.02 16 18 C14.52486614 16.67917382 14.52486614 16.67917382 12.625 15.5625 C9.79979207 13.67902805 8.11019317 12.33057952 7 9 C5.02 9 3.04 9 1 9 C0.67 8.34 0.34 7.68 0 7 C0.66 7 1.32 7 2 7 C2 6.01 2 5.02 2 4 C1.34 4 0.68 4 0 4 C0 2.68 0 1.36 0 0 Z " fill="#ED9CCD" transform="translate(272,151)"/>
<path d="M0 0 C6.52878733 5.37193906 12.44579862 11.31785074 18.40234375 17.3046875 C19.49071139 18.39492365 20.57930257 19.48493669 21.66810608 20.57473755 C24.51269535 23.42311794 27.35426681 26.27449004 30.19519043 29.12652588 C33.10289665 32.04452 36.01348824 34.95963304 38.92382812 37.875 C44.61869081 43.58053984 50.31036412 49.28924794 56 55 C55.67 55.99 55.34 56.98 55 58 C54.01 57.67 53.02 57.34 52 57 C52 56.34 52 55.68 52 55 C51.236875 54.71125 50.47375 54.4225 49.6875 54.125 C47 53 47 53 44 51 C43.84515137 50.2152832 43.69030273 49.43056641 43.53076172 48.62207031 C42.88378744 45.42588645 41.80849928 44.31829388 39.5078125 42.046875 C38.45013672 40.995 38.45013672 40.995 37.37109375 39.921875 C36.62988281 39.20515625 35.88867188 38.4884375 35.125 37.75 C34.02478516 36.65171875 34.02478516 36.65171875 32.90234375 35.53125 C28.96017501 31.47873441 28.96017501 31.47873441 24 29 C23.31473614 27.67612853 22.65156985 26.3407755 22 25 C20.61773071 23.40862514 19.1742408 21.86923698 17.6875 20.375 C16.92824219 19.59898437 16.16898438 18.82296875 15.38671875 18.0234375 C12.98103646 15.98392289 10.97597826 14.97970258 8 14 C8 13.01 8 12.02 8 11 C5.62927102 8.20592655 3.36295835 6.44126786 0 5 C0 3.33333333 0 1.66666667 0 0 Z " fill="#261019" transform="translate(221,144)"/>
<path d="M0 0 C2.31 0.33 4.62 0.66 7 1 C7 1.66 7 2.32 7 3 C7.99 2.67 8.98 2.34 10 2 C11 6.75 11 6.75 11 9 C12.423125 8.938125 12.423125 8.938125 13.875 8.875 C17 9 17 9 19 11 C18.34 12.65 17.68 14.3 17 16 C17.78375 16.28875 18.5675 16.5775 19.375 16.875 C22 18 22 18 24 20 C24.99 19.67 25.98 19.34 27 19 C26.67 21.31 26.34 23.62 26 26 C20.02265091 21.04455862 14.53812065 15.68810448 9.0625 10.1875 C8.18787109 9.31673828 7.31324219 8.44597656 6.41210938 7.54882812 C5.58646484 6.72189453 4.76082031 5.89496094 3.91015625 5.04296875 C3.15871338 4.29039795 2.40727051 3.53782715 1.63305664 2.76245117 C0 1 0 1 0 0 Z " fill="#EC9DC7" transform="translate(245,167)"/>
<path d="M0 0 C4 0 4 0 5.625 1.375 C6.07875 1.91125 6.5325 2.4475 7 3 C7.66 3.66 8.32 4.32 9 5 C9 5.99 9 6.98 9 8 C11.64 8 14.28 8 17 8 C16.34 9.98 15.68 11.96 15 14 C15.66 14 16.32 14 17 14 C17.33 14.66 17.66 15.32 18 16 C20.48412207 16.82804069 22.35220307 17 25 17 C24.690625 18.175625 24.690625 18.175625 24.375 19.375 C24.25125 20.24125 24.1275 21.1075 24 22 C26.5654594 24.5654594 28.47686668 24.54046087 32 25 C30.68 26.32 29.36 27.64 28 29 C11.59375 12.59375 11.59375 12.59375 9.73120117 10.72924805 C8.65067155 9.64993747 7.56787906 8.57288191 6.48168945 7.49926758 C4.08492468 5.1270087 1.94348832 2.76179919 0 0 Z " fill="#EFB1A6" transform="translate(135,256)"/>
<path d="M0 0 C0.66 0.99 1.32 1.98 2 3 C1.13375 3.309375 1.13375 3.309375 0.25 3.625 C-2.8061502 5.49264734 -4.05636743 8.02381262 -6 11 C-9.4 14 -9.4 14 -12 14 C-12.2475 14.556875 -12.495 15.11375 -12.75 15.6875 C-14.27877922 18.51574155 -15.71707696 20.71707696 -18 23 C-21.1875 23.25 -21.1875 23.25 -24 23 C-24.33 23.33 -24.66 23.66 -25 24 C-27.33297433 24.04092937 -29.66705225 24.04241723 -32 24 C-29.14481314 22.09654209 -26.33818256 20.67280608 -23.25 19.1875 C-15.51575431 15.32503073 -10.1214339 11.52433884 -4.578125 4.8671875 C-3.12628048 3.14941106 -1.61355165 1.56495069 0 0 Z " fill="#30181E" transform="translate(249,272)"/>
<path d="M0 0 C0.66 0.66 1.32 1.32 2 2 C0.35 3.65 -1.3 5.3 -3 7 C-2.67 7.66 -2.34 8.32 -2 9 C-3.32 9.33 -4.64 9.66 -6 10 C-6 10.66 -6 11.32 -6 12 C-5.34 12 -4.68 12 -4 12 C-3.5875 12.721875 -3.175 13.44375 -2.75 14.1875 C-1.08876464 17.18761156 -1.08876464 17.18761156 1.9375 19.4375 C5.1742442 22.14579616 6.843719 24.43384295 9 28 C8.67 28.66 8.34 29.32 8 30 C2.06 24.06 -3.88 18.12 -10 12 C-8.16614077 8.33228155 -6.74937171 6.53165004 -3.875 3.75 C-3.15054688 3.04359375 -2.42609375 2.3371875 -1.6796875 1.609375 C-1.12539062 1.07828125 -0.57109375 0.5471875 0 0 Z " fill="#29150D" transform="translate(133,189)"/>
<path d="M0 0 C1.23782051 3.98853276 0.31067965 6.06796105 -1 10 C-0.79375 10.70125 -0.5875 11.4025 -0.375 12.125 C-0.25125 12.74375 -0.1275 13.3625 0 14 C-1.9375 16.25 -1.9375 16.25 -4 18 C-5.98 16.02 -7.96 14.04 -10 12 C-8.52278578 8.54798361 -6.56205999 6.35038064 -3.875 3.75 C-3.15054687 3.04359375 -2.42609375 2.3371875 -1.6796875 1.609375 C-1.12539063 1.07828125 -0.57109375 0.5471875 0 0 Z " fill="#21121A" transform="translate(288,189)"/>
<path d="M0 0 C0 0.99 0 1.98 0 3 C-1.96876132 4.74503844 -3.93798077 6.376601 -6 8 C-9.03034148 10.54802744 -9.03034148 10.54802744 -10.4375 14.0625 C-11 16 -11 16 -13.125 17.4375 C-14.548125 18.2109375 -14.548125 18.2109375 -16 19 C-18.36469903 20.62542459 -20.67709825 22.31475756 -23 24 C-23.66 23.67 -24.32 23.34 -25 23 C-14.55078125 12.55078125 -14.55078125 12.55078125 -12.7121582 10.71606445 C-11.21537197 9.21586334 -9.73156411 7.70273602 -8.25 6.1875 C-5.64923149 3.65897506 -3.05903236 1.92078776 0 0 Z " fill="#F2B4AA" transform="translate(170,110)"/>
<path d="M0 0 C0.66 0.99 1.32 1.98 2 3 C0.4375 4.20442708 -1.125 5.40885417 -2.6875 6.61328125 C-4.34370205 8.04491137 -4.34370205 8.04491137 -4 11 C-4.99 11.33 -5.98 11.66 -7 12 C-7.66 11.67 -8.32 11.34 -9 11 C-9 13.31 -9 15.62 -9 18 C-12.3 18.66 -15.6 19.32 -19 20 C-13.17371096 12.84198775 -6.5617015 6.47408234 0 0 Z " fill="#171015" transform="translate(285,236)"/>
<path d="M0 0 C0.78375 0.185625 1.5675 0.37125 2.375 0.5625 C4.97089775 1.25962266 4.97089775 1.25962266 7 0 C7.33 1.65 7.66 3.3 8 5 C8.99 5.33 9.98 5.66 11 6 C10.38253906 6.18433594 9.76507813 6.36867187 9.12890625 6.55859375 C1.65970106 9.11654073 -2.81329121 13.13676398 -8 19 C-8.33 18.01 -8.66 17.02 -9 16 C-8.34 16 -7.68 16 -7 16 C-6.67 14.02 -6.34 12.04 -6 10 C-5.21625 9.9175 -4.4325 9.835 -3.625 9.75 C-0.9244579 9.25587877 -0.9244579 9.25587877 0.375 7.25 C1.13838286 4.5018217 0.75566986 2.72041151 0 0 Z " fill="#ECAAAE" transform="translate(184,128)"/>
<path d="M0 0 C4.58694831 0.6795479 7.54352657 3.43149016 10.625 6.75 C12.06026027 8.3363364 12.06026027 8.3363364 15 8 C15 8.99 15 9.98 15 11 C15.99 11.66 16.98 12.32 18 13 C18.33 13.33 18.66 13.66 19 14 C19.66 13.67 20.32 13.34 21 13 C20.95875 13.9075 20.9175 14.815 20.875 15.75 C20.99793147 18.94621811 21.50035549 20.28410836 23 23 C17.58052896 18.47783954 12.53850008 13.69081573 7.5625 8.6875 C6.83095703 7.95982422 6.09941406 7.23214844 5.34570312 6.48242188 C4.65541016 5.79083984 3.96511719 5.09925781 3.25390625 4.38671875 C2.62814697 3.75983154 2.0023877 3.13294434 1.35766602 2.48706055 C0 1 0 1 0 0 Z " fill="#24120F" transform="translate(145,222)"/>
<path d="M0 0 C0.33 0.66 0.66 1.32 1 2 C1.66 2.33 2.32 2.66 3 3 C2.01 3.495 2.01 3.495 1 4 C1.515625 4.4125 2.03125 4.825 2.5625 5.25 C4 7 4 7 4.0625 9.0625 C3 11 3 11 -0.0625 12.25 C-1.031875 12.4975 -2.00125 12.745 -3 13 C-4.32 11.68 -5.64 10.36 -7 9 C-5.44499019 5.18315774 -2.96404505 2.80804268 0 0 Z " fill="#F6AAAA" transform="translate(185,192)"/>
<path d="M0 0 C1.65 0 3.3 0 5 0 C4.10698344 1.06486855 3.2104053 2.12675041 2.3125 3.1875 C1.81363281 3.77917969 1.31476563 4.37085938 0.80078125 4.98046875 C-1.37467812 7.42019216 -3.67497294 9.7023262 -6 12 C-6.96550246 12.96418459 -7.93033105 13.92904438 -8.89453125 14.89453125 C-11.59635417 17.59635417 -14.29817708 20.29817708 -17 23 C-17.33 22.01 -17.66 21.02 -18 20 C-17.34 20 -16.68 20 -16 20 C-15.67 18.02 -15.34 16.04 -15 14 C-14.05125 13.7525 -13.1025 13.505 -12.125 13.25 C-8.44034421 11.77613769 -8.62523341 11.34606878 -7 8 C-5.20936742 6.64129987 -3.36891311 5.43371122 -1.4609375 4.24609375 C-0.97882813 3.83488281 -0.49671875 3.42367187 0 3 C0 2.01 0 1.02 0 0 Z " fill="#F4A2C7" transform="translate(265,251)"/>
<path d="M0 0 C0.99 0.33 1.98 0.66 3 1 C2.34 1.5775 1.68 2.155 1 2.75 C-1.44290923 4.99653977 -1.44290923 4.99653977 -1 9 C-1.2981424 10.34164079 -1.62243192 11.67851173 -2 13 C-1.34 13 -0.68 13 0 13 C-0.33 14.32 -0.66 15.64 -1 17 C-1.33 16.34 -1.66 15.68 -2 15 C-2.99 14.67 -3.98 14.34 -5 14 C-5 13.01 -5 12.02 -5 11 C-5.99 10.67 -6.98 10.34 -8 10 C-7.4346089 6.49304707 -6.31277274 4.97267387 -3.625 2.6875 C-3.01914063 2.15511719 -2.41328125 1.62273437 -1.7890625 1.07421875 C-0.90347656 0.54248047 -0.90347656 0.54248047 0 0 Z " fill="#F9B895" transform="translate(112,214)"/>
<path d="M0 0 C1.98 1.65 3.96 3.3 6 5 C4.59155282 8.21524305 2.89655214 10.32183868 0.375 12.75 C-0.57246094 13.67039063 -0.57246094 13.67039063 -1.5390625 14.609375 C-2.02117187 15.06828125 -2.50328125 15.5271875 -3 16 C-3 12.30465565 -2.63342306 10.63342306 0 8 C-0.99 7.67 -1.98 7.34 -3 7 C-3.6875 4.9375 -3.6875 4.9375 -4 3 C-3.01 2.67 -2.02 2.34 -1 2 C-0.67 1.34 -0.34 0.68 0 0 Z " fill="#22160F" transform="translate(116,194)"/>
<path d="M0 0 C1.61823991 1.37722546 3.23479109 2.75647448 4.84375 4.14453125 C6.37718047 5.46405928 7.91986743 6.7728633 9.46875 8.07421875 C10.2834375 8.77160156 11.098125 9.46898437 11.9375 10.1875 C12.70964844 10.84105469 13.48179687 11.49460938 14.27734375 12.16796875 C16 14 16 14 16 17 C11.74921902 14.94789884 8.92653798 13.44585687 7 9 C5.02 9 3.04 9 1 9 C0.67 8.34 0.34 7.68 0 7 C0.66 7 1.32 7 2 7 C2 6.01 2 5.02 2 4 C1.34 4 0.68 4 0 4 C0 2.68 0 1.36 0 0 Z " fill="#F49CCD" transform="translate(272,151)"/>
<path d="M0 0 C1.37432457 3.81756824 0.67975039 7.07255329 0 11 C-2.84383123 9.7251791 -5.13754018 8.54862922 -7 6 C-7.0625 3.9375 -7.0625 3.9375 -6 2 C-2.9375 0.75 -2.9375 0.75 0 0 Z " fill="#F9BA95" transform="translate(111,173)"/>
<path d="M0 0 C1.093125 0.28875 2.18625 0.5775 3.3125 0.875 C3.6425 1.535 3.9725 2.195 4.3125 2.875 C1.82185112 3.56207555 -0.06636292 3.875 -2.6875 3.875 C-4.1481285 6.52238916 -4.6875 7.76948334 -4.6875 10.875 C-5.6775 11.205 -6.6675 11.535 -7.6875 11.875 C-7.6875 11.215 -7.6875 10.555 -7.6875 9.875 C-8.3475 9.875 -9.0075 9.875 -9.6875 9.875 C-8.07216331 3.9520988 -6.73150274 -0.22818653 0 0 Z " fill="#F49BCE" transform="translate(276.6875,204.125)"/>
<path d="M0 0 C0.103125 0.639375 0.20625 1.27875 0.3125 1.9375 C0.6528125 2.9584375 0.6528125 2.9584375 1 4 C1.99 4.33 2.98 4.66 4 5 C5.70993434 6.6222454 7.37347684 8.29413425 9 10 C9.763125 10.763125 10.52625 11.52625 11.3125 12.3125 C11.869375 12.869375 12.42625 13.42625 13 14 C12.34 14.66 11.68 15.32 11 16 C10.46632812 15.45730469 9.93265625 14.91460937 9.3828125 14.35546875 C3.94562844 9.13464323 -0.60232495 6.48262381 -8 5 C-8 4.67 -8 4.34 -8 4 C-5.36 3.67 -2.72 3.34 0 3 C0 2.01 0 1.02 0 0 Z " fill="#E1A2B1" transform="translate(211,129)"/>
<path d="M0 0 C0.54269531 0.34933594 1.08539063 0.69867188 1.64453125 1.05859375 C2.35996094 1.51363281 3.07539063 1.96867187 3.8125 2.4375 C4.87404297 3.11619141 4.87404297 3.11619141 5.95703125 3.80859375 C8.08134552 5.14086339 8.08134552 5.14086339 11 6 C10.67 6.99 10.34 7.98 10 9 C9.34 9 8.68 9 8 9 C8.33 9.99 8.66 10.98 9 12 C7.35 12.33 5.7 12.66 4 13 C3 10 3 10 3.6875 8.0625 C3.790625 7.381875 3.89375 6.70125 4 6 C2.10413616 3.85410577 2.10413616 3.85410577 0 2 C0 1.34 0 0.68 0 0 Z " fill="#F8AAAE" transform="translate(181,259)"/>
<path d="M0 0 C1.32 0.66 2.64 1.32 4 2 C-6.00244618 14.30797456 -6.00244618 14.30797456 -12 15 C-12 14.34 -12 13.68 -12 13 C-11.34 13 -10.68 13 -10 13 C-10 12.34 -10 11.68 -10 11 C-8.68 11 -7.36 11 -6 11 C-5.71125 10.4225 -5.4225 9.845 -5.125 9.25 C-4.08333333 7.16666667 -3.04166667 5.08333333 -2 3 C-1.01 3 -0.02 3 1 3 C0.67 2.01 0.34 1.02 0 0 Z " fill="#231114" transform="translate(221,250)"/>
<path d="M0 0 C0.99 0.33 1.98 0.66 3 1 C-1.62 5.62 -6.24 10.24 -11 15 C-11.92538169 11.29847322 -12.08174162 10.36541838 -11 7 C-9.02 7.495 -9.02 7.495 -7 8 C-6.67 7.01 -6.34 6.02 -6 5 C-5.01 4.67 -4.02 4.34 -3 4 C-2.67 3.34 -2.34 2.68 -2 2 C-1.34 2 -0.68 2 0 2 C0 1.34 0 0.68 0 0 Z " fill="#E5ACA5" transform="translate(172,147)"/>
<path d="M0 0 C1.32 0.33 2.64 0.66 4 1 C4 1.66 4 2.32 4 3 C8.43093198 4.81301758 8.43093198 4.81301758 13 4 C12.67 6.31 12.34 8.62 12 11 C12.66 11.33 13.32 11.66 14 12 C12.35 11.67 10.7 11.34 9 11 C8.67 10.01 8.34 9.02 8 8 C7.34 8 6.68 8 6 8 C4.4921875 6.25 4.4921875 6.25 2.875 4 C2.33617188 3.2575 1.79734375 2.515 1.2421875 1.75 C0.62730469 0.88375 0.62730469 0.88375 0 0 Z " fill="#E9B49A" transform="translate(107,228)"/>
<path d="M0 0 C0.33 0.99 0.66 1.98 1 3 C-4 8 -9 13 -14 18 C-14.33 17.01 -14.66 16.02 -15 15 C-14.34 15 -13.68 15 -13 15 C-13 14.01 -13 13.02 -13 12 C-11.68 11.67 -10.36 11.34 -9 11 C-9 10.34 -9 9.68 -9 9 C-8.34 9 -7.68 9 -7 9 C-7 8.34 -7 7.68 -7 7 C-6.34 7 -5.68 7 -5 7 C-5 6.01 -5 5.02 -5 4 C-4.34 4 -3.68 4 -3 4 C-2.67 3.01 -2.34 2.02 -2 1 C-1.34 0.67 -0.68 0.34 0 0 Z " fill="#3B2619" transform="translate(114,161)"/>
<path d="M0 0 C0.33 0.99 0.66 1.98 1 3 C-3.15286177 7.22207613 -7.48184983 11.2060511 -11.890625 15.15820312 C-14.84374738 17.75886077 -14.84374738 17.75886077 -17 21 C-17.99 20.67 -18.98 20.34 -20 20 C-13.4 13.4 -6.8 6.8 0 0 Z " fill="#250F11" transform="translate(221,201)"/>
<path d="M0 0 C1.11117187 0.16242188 2.22234375 0.32484375 3.3671875 0.4921875 C8.29369304 1.10610254 13.16611756 1.14730382 18.125 1.125 C18.99253906 1.12886719 19.86007813 1.13273437 20.75390625 1.13671875 C25.28329798 1.1298247 29.54313943 0.92059743 34 0 C33.67 0.99 33.34 1.98 33 3 C28.94328317 3.07431978 24.88683154 3.12868133 20.82958984 3.16479492 C19.45028782 3.17985422 18.07103347 3.20030613 16.69189453 3.22631836 C14.70626597 3.26282415 12.72028382 3.27814853 10.734375 3.29296875 C9.54038086 3.3086792 8.34638672 3.32438965 7.11621094 3.34057617 C3.76506629 2.97432368 2.42414608 2.2746046 0 0 Z " fill="#280E11" transform="translate(182,296)"/>
<path d="M0 0 C0.66 0.33 1.32 0.66 2 1 C2.59355614 3.64860427 2.74209269 6.29197322 3 9 C3.99 9.33 4.98 9.66 6 10 C5.34 10.66 4.68 11.32 4 12 C1.03 9.03 -1.94 6.06 -5 3 C-3 1 -3 1 0 0 Z " fill="#351C2A" transform="translate(273,144)"/>
<path d="M0 0 C0.99 0.99 1.98 1.98 3 3 C1.43902526 4.1063219 -0.12385327 5.20995785 -1.6875 6.3125 C-2.55761719 6.92738281 -3.42773438 7.54226563 -4.32421875 8.17578125 C-11.40042827 13 -11.40042827 13 -14 13 C-14 12.34 -14 11.68 -14 11 C-13.01 11 -12.02 11 -11 11 C-11 10.34 -11 9.68 -11 9 C-9.02 8.34 -7.04 7.68 -5 7 C-5 6.01 -5 5.02 -5 4 C-4.360625 3.71125 -3.72125 3.4225 -3.0625 3.125 C-0.84793921 2.17176549 -0.84793921 2.17176549 0 0 Z " fill="#E29EB4" transform="translate(237,280)"/>
<path d="M0 0 C0.66 0.99 1.32 1.98 2 3 C1.13375 3.309375 1.13375 3.309375 0.25 3.625 C-2.24805804 4.93018984 -2.24805804 4.93018984 -3.875 7.875 C-6.31785174 11.46742903 -8.31536604 12.82271629 -12 15 C-12.66 14.67 -13.32 14.34 -14 14 C-9.33333333 9.33333333 -4.66666667 4.66666667 0 0 Z " fill="#3A1D28" transform="translate(249,272)"/>
<path d="M0 0 C0.66 0.99 1.32 1.98 2 3 C0.4375 4.20442708 -1.125 5.40885417 -2.6875 6.61328125 C-4.34370205 8.04491137 -4.34370205 8.04491137 -4 11 C-6.31 11.33 -8.62 11.66 -11 12 C-7.49102731 7.81576108 -3.91939465 3.80411834 0 0 Z " fill="#3C1E31" transform="translate(285,236)"/>
<path d="M0 0 C0.66 0.33 1.32 0.66 2 1 C2.34342449 2.33076989 2.67619874 3.66431979 3 5 C3.66 5.66 4.32 6.32 5 7 C5 7.66 5 8.32 5 9 C5.99 9.66 6.98 10.32 8 11 C4 11 4 11 2.078125 9.5390625 C1.47484375 8.90742188 0.8715625 8.27578125 0.25 7.625 C-0.67039063 6.68527344 -0.67039063 6.68527344 -1.609375 5.7265625 C-3 4 -3 4 -3 2 C-2.01 1.34 -1.02 0.68 0 0 Z " fill="#DEA0A9" transform="translate(194,210)"/>
<path d="M0 0 C0.33 0.66 0.66 1.32 1 2 C3.01669827 3.13350534 3.01669827 3.13350534 5 4 C4.67 4.66 4.34 5.32 4 6 C3.01 6 2.02 6 1 6 C0.67 6.99 0.34 7.98 0 9 C0 8.34 0 7.68 0 7 C-0.99 7.33 -1.98 7.66 -3 8 C-3.75 6.25 -3.75 6.25 -4 4 C-2.0625 1.75 -2.0625 1.75 0 0 Z " fill="#FC96D6" transform="translate(292,173)"/>
<path d="M0 0 C2.97 0.495 2.97 0.495 6 1 C6 4 6 4 4.46875 5.60546875 C2.64583333 7.0703125 0.82291667 8.53515625 -1 10 C-0.67 6.7 -0.34 3.4 0 0 Z " fill="#F5A3C5" transform="translate(240,272)"/>
<path d="M0 0 C0.33 0.66 0.66 1.32 1 2 C-1.40983607 6.70491803 -1.40983607 6.70491803 -4 8 C-4.33 8.99 -4.66 9.98 -5 11 C-6.98 11.33 -8.96 11.66 -11 12 C-7.49102731 7.81576108 -3.91939465 3.80411834 0 0 Z " fill="#3F1F32" transform="translate(297,224)"/>
<path d="M0 0 C0.94875 0.04125 1.8975 0.0825 2.875 0.125 C1.94225891 1.25394876 1.00359878 2.37800876 0.0625 3.5 C-0.45957031 4.12648437 -0.98164063 4.75296875 -1.51953125 5.3984375 C-3.125 7.125 -3.125 7.125 -6.125 9.125 C-7.125 7.125 -7.125 7.125 -6.3125 4.625 C-4.61959362 1.06098656 -4.03656584 0.16146263 0 0 Z " fill="#210E19" transform="translate(272.125,201.875)"/>
<path d="M0 0 C0 0.99 0 1.98 0 3 C0.66 3.33 1.32 3.66 2 4 C2 4.99 2 5.98 2 7 C0.906875 7.0825 -0.18625 7.165 -1.3125 7.25 C-5.03276664 7.63689209 -5.03276664 7.63689209 -6.9375 10.0625 C-7.288125 10.701875 -7.63875 11.34125 -8 12 C-8.99 11.67 -9.98 11.34 -11 11 C-7.37 7.37 -3.74 3.74 0 0 Z " fill="#E59FBB" transform="translate(244,233)"/>
<path d="M0 0 C0.66 0.33 1.32 0.66 2 1 C2.36625971 5.51720311 2.36625971 5.51720311 0.625 7.8125 C-1 9 -1 9 -3 9 C-3.66 6.69 -4.32 4.38 -5 2 C-2.625 0.9375 -2.625 0.9375 0 0 Z " fill="#FC96D6" transform="translate(293,219)"/>
<path d="M0 0 C0.33 1.32 0.66 2.64 1 4 C-1.97 6.475 -1.97 6.475 -5 9 C-5.625 6.6875 -5.625 6.6875 -6 4 C-3.33333333 0 -3.33333333 0 0 0 Z " fill="#221116" transform="translate(255,218)"/>
<path d="M0 0 C3.76687864 1.88343932 4.79421646 2.69132469 7 6 C6.01 6.495 6.01 6.495 5 7 C5 6.34 5 5.68 5 5 C-0.13725982 4.51510163 -0.13725982 4.51510163 -4.4375 7 C-4.953125 7.66 -5.46875 8.32 -6 9 C-6.66 8.67 -7.32 8.34 -8 8 C-5.36 5.36 -2.72 2.72 0 0 Z " fill="#D49CA6" transform="translate(199,178)"/>
<path d="M0 0 C4.52615993 3.67832017 8.39424999 7.41086363 12 12 C11.401875 11.67 10.80375 11.34 10.1875 11 C7.94613529 9.79212012 7.94613529 9.79212012 5 10 C4.34 10 3.68 10 3 10 C3 8.35 3 6.7 3 5 C2.34 5 1.68 5 1 5 C0.67 3.35 0.34 1.7 0 0 Z " fill="#F3A2C6" transform="translate(247,126)"/>
<path d="M0 0 C5.43614072 2.7832093 9.93265026 5.40783094 14 10 C13.01 10.33 12.02 10.66 11 11 C8.3125 9.1875 8.3125 9.1875 6 7 C6 6.34 6 5.68 6 5 C5.195625 4.731875 4.39125 4.46375 3.5625 4.1875 C2.716875 3.795625 1.87125 3.40375 1 3 C0.67 2.01 0.34 1.02 0 0 Z " fill="#E39DB4" transform="translate(226,108)"/>
<path d="M0 0 C5.83186196 0.52070196 10.71188253 1.40232826 16 4 C16.72265625 6.609375 16.72265625 6.609375 17 9 C14.72791794 7.8774654 12.45732355 6.75208479 10.1875 5.625 C9.54490234 5.30789062 8.90230469 4.99078125 8.24023438 4.6640625 C5.36805539 3.23541389 2.6732179 1.78214527 0 0 Z " fill="#371921" transform="translate(217,104)"/>
<path d="M0 0 C0.33 0.66 0.66 1.32 1 2 C-0.18683026 5.14573827 -1.83526818 7.03039153 -4.375 9.1875 C-4.96023438 9.69667969 -5.54546875 10.20585937 -6.1484375 10.73046875 C-8.11024909 12.07559273 -9.676089 12.57514402 -12 13 C-11.0919838 11.86800647 -10.17316174 10.74467637 -9.25 9.625 C-8.48429687 8.68527344 -8.48429687 8.68527344 -7.703125 7.7265625 C-5.91098401 5.90975902 -4.27601946 5.10007607 -2 4 C-0.73195434 1.9664052 -0.73195434 1.9664052 0 0 Z " fill="#40202F" transform="translate(265,256)"/>
<path d="M0 0 C2.62113708 0 4.50935112 0.31292445 7 1 C7.33 2.65 7.66 4.3 8 6 C6.25 6.75 6.25 6.75 4 7 C1.75 5.25 1.75 5.25 0 3 C0 2.01 0 1.02 0 0 Z " fill="#EFA3BE" transform="translate(224,144)"/>
<path d="M0 0 C0 2 0 4 0 6 C-0.66 6 -1.32 6 -2 6 C-1.67 6.99 -1.34 7.98 -1 9 C-1.33 9.66 -1.66 10.32 -2 11 C-3.9375 10.6875 -3.9375 10.6875 -6 10 C-6.33 9.01 -6.66 8.02 -7 7 C-4.69 4.69 -2.38 2.38 0 0 Z " fill="#EAA0BA" transform="translate(232,245)"/>
<path d="M0 0 C1.17539996 0.92652701 2.34010577 1.86663387 3.5 2.8125 C4.1496875 3.33457031 4.799375 3.85664062 5.46875 4.39453125 C7 6 7 6 7 9 C5.68 9.33 4.36 9.66 3 10 C3 9.34 3 8.68 3 8 C2.34 8 1.68 8 1 8 C1.020625 7.236875 1.04125 6.47375 1.0625 5.6875 C1.12942841 2.89814214 1.12942841 2.89814214 0 0 Z " fill="#F7A2C5" transform="translate(239,118)"/>
<path d="M0 0 C1.98 1.65 3.96 3.3 6 5 C5.67 6.32 5.34 7.64 5 9 C2.03 8.505 2.03 8.505 -1 8 C-0.67 5.36 -0.34 2.72 0 0 Z " fill="#F99AD6" transform="translate(281,207)"/>
<path d="M0 0 C0.66 0 1.32 0 2 0 C1.43289338 3.96974635 0.38663899 6.76098995 -2 10 C-4.5625 11.875 -4.5625 11.875 -7 13 C-7.66 12.67 -8.32 12.34 -9 12 C-8.02546875 11.07767578 -8.02546875 11.07767578 -7.03125 10.13671875 C-6.1959375 9.32847656 -5.360625 8.52023438 -4.5 7.6875 C-3.6646875 6.88699219 -2.829375 6.08648437 -1.96875 5.26171875 C0.32828283 3.12262518 0.32828283 3.12262518 0 0 Z " fill="#301324" transform="translate(298,176)"/>
<path d="M0 0 C2.31 0.33 4.62 0.66 7 1 C8.23921302 3.97411124 9.30058404 6.85262818 10 10 C6.66666667 6.66666667 3.33333333 3.33333333 0 0 Z " fill="#311827" transform="translate(282,160)"/>
<path d="M0 0 C7.48291572 6.15034169 7.48291572 6.15034169 10 10 C8.35 9.67 6.7 9.34 5 9 C5 8.34 5 7.68 5 7 C4.34 7 3.68 7 3 7 C1.375 5.75 1.375 5.75 0 4 C0 2.68 0 1.36 0 0 Z " fill="#3D271E" transform="translate(144,266)"/>
<path d="M0 0 C3.21043882 1.38188453 5.04936365 2.92421903 7.25 5.625 C8.03117187 6.57246094 8.03117187 6.57246094 8.828125 7.5390625 C9.40820312 8.26222656 9.40820312 8.26222656 10 9 C8.02 9 6.04 9 4 9 C4 8.34 4 7.68 4 7 C3.34 6.67 2.68 6.34 2 6 C1.4375 4.0625 1.4375 4.0625 1 2 C0.67 1.34 0.34 0.68 0 0 Z " fill="#F39FCA" transform="translate(262,142)"/>
<path d="M0 0 C1.32 0.66 2.64 1.32 4 2 C0.535 4.97 0.535 4.97 -3 8 C-3.33 6.02 -3.66 4.04 -4 2 C-2.25 0.875 -2.25 0.875 0 0 Z " fill="#EBB0A6" transform="translate(156,161)"/>
<path d="M0 0 C0.66 0 1.32 0 2 0 C2.042721 1.66611905 2.04063832 3.33382885 2 5 C1.67 5.33 1.34 5.66 1 6 C1.66 6.66 2.32 7.32 3 8 C0 8 0 8 -1.38671875 6.6875 C-2.59114583 5.125 -3.79557292 3.5625 -5 2 C-4.360625 1.855625 -3.72125 1.71125 -3.0625 1.5625 C-1.02454854 1.18992819 -1.02454854 1.18992819 0 0 Z " fill="#EAA0BC" transform="translate(238,153)"/>
<path d="M0 0 C1.65 0 3.3 0 5 0 C5.1875 2.375 5.1875 2.375 5 5 C4.01 5.66 3.02 6.32 2 7 C0.68 5.35 -0.64 3.7 -2 2 C-1.34 1.67 -0.68 1.34 0 1 C0 0.67 0 0.34 0 0 Z " fill="#2B1D22" transform="translate(250,124)"/>
<path d="M0 0 C0.33 0.66 0.66 1.32 1 2 C1.66 2.33 2.32 2.66 3 3 C1.35 3.33 -0.3 3.66 -2 4 C-2.33 4.99 -2.66 5.98 -3 7 C-3.66 7 -4.32 7 -5 7 C-4.67 8.32 -4.34 9.64 -4 11 C-4.99 10.34 -5.98 9.68 -7 9 C-5.44499019 5.18315774 -2.96404505 2.80804268 0 0 Z " fill="#D19EA0" transform="translate(185,192)"/>
<path d="M0 0 C0 0.99 0 1.98 0 3 C-2.75 5.75 -2.75 5.75 -6 8 C-7.32 7.67 -8.64 7.34 -10 7 C-6.7 4.69 -3.4 2.38 0 0 Z " fill="#E0A7A4" transform="translate(170,110)"/>
<path d="M0 0 C1.65 0 3.3 0 5 0 C4.06409496 1.1055189 3.12620142 2.20935453 2.1875 3.3125 C1.40439453 4.23482422 1.40439453 4.23482422 0.60546875 5.17578125 C-0.87172469 6.85424679 -2.40039131 8.43882034 -4 10 C-4.33 9.01 -4.66 8.02 -5 7 C-4.175 6.21625 -3.35 5.4325 -2.5 4.625 C0.22988506 2.36278736 0.22988506 2.36278736 0 0 Z " fill="#EB9CC3" transform="translate(265,251)"/>
<path d="M0 0 C2.88575819 0.39803561 3.82189513 0.79009069 5.75 3.0625 C6.1625 3.701875 6.575 4.34125 7 5 C4.625 5.625 4.625 5.625 2 6 C1.34 5.34 0.68 4.68 0 4 C0 2.68 0 1.36 0 0 Z " fill="#EBADAA" transform="translate(169,249)"/>
<path d="M0 0 C3.81684226 1.55500981 6.19195732 4.03595495 9 7 C8.67 7.99 8.34 8.98 8 10 C6.33333333 8.33333333 4.66666667 6.66666667 3 5 C2.401875 4.443125 1.80375 3.88625 1.1875 3.3125 C0 2 0 2 0 0 Z " fill="#E49EC8" transform="translate(290,214)"/>
<path d="M0 0 C1.32 0.99 2.64 1.98 4 3 C3.34 3 2.68 3 2 3 C1.87625 3.639375 1.7525 4.27875 1.625 4.9375 C1.41875 5.618125 1.2125 6.29875 1 7 C0.01 7.495 0.01 7.495 -1 8 C-1.33 5.69 -1.66 3.38 -2 1 C-1.34 0.67 -0.68 0.34 0 0 Z " fill="#F899D5" transform="translate(283,184)"/>
<path d="M0 0 C1.32 0.66 2.64 1.32 4 2 C3.02433888 3.16959987 2.044375 4.33561177 1.0625 5.5 C0.51722656 6.1496875 -0.02804688 6.799375 -0.58984375 7.46875 C-1.05519531 7.9740625 -1.52054688 8.479375 -2 9 C-2.33 9 -2.66 9 -3 9 C-3 7.35 -3 5.7 -3 4 C-2.01 3.67 -1.02 3.34 0 3 C0 2.01 0 1.02 0 0 Z " fill="#271217" transform="translate(245,226)"/>
<path d="M0 0 C2.97 0.495 2.97 0.495 6 1 C6.33 1.99 6.66 2.98 7 4 C4.625 4.625 4.625 4.625 2 5 C1.34 4.34 0.68 3.68 0 3 C0 2.01 0 1.02 0 0 Z " fill="#F99AD4" transform="translate(275,192)"/>
<path d="M0 0 C0.54269531 0.34933594 1.08539063 0.69867188 1.64453125 1.05859375 C2.35996094 1.51363281 3.07539063 1.96867187 3.8125 2.4375 C4.87404297 3.11619141 4.87404297 3.11619141 5.95703125 3.80859375 C8.08134552 5.14086339 8.08134552 5.14086339 11 6 C10.67 6.99 10.34 7.98 10 9 C9.34 9 8.68 9 8 9 C7.67 8.34 7.34 7.68 7 7 C6.195625 6.54625 5.39125 6.0925 4.5625 5.625 C1.81006927 3.87955612 1.27590129 2.88413035 0 0 Z " fill="#E5ABB1" transform="translate(181,259)"/>
<path d="M0 0 C2.31 1.98 4.62 3.96 7 6 C5.02 6.99 5.02 6.99 3 8 C2.34 7.67 1.68 7.34 1 7 C0.59270772 4.67843403 0.25561323 2.3431213 0 0 Z " fill="#E3ADA4" transform="translate(160,238)"/>
<path d="M0 0 C1.9375 0.75 1.9375 0.75 4 2 C4.75 4.125 4.75 4.125 5 6 C3.35 6 1.7 6 0 6 C0 4.02 0 2.04 0 0 Z " fill="#F5B59E" transform="translate(136,218)"/>
<path d="M0 0 C1.98 1.65 3.96 3.3 6 5 C3.45297384 6.27351308 2.5717055 5.80191925 -0.125 5.0625 C-0.84945312 4.86785156 -1.57390625 4.67320312 -2.3203125 4.47265625 C-2.87460938 4.31667969 -3.42890625 4.16070312 -4 4 C-2.68 2.68 -1.36 1.36 0 0 Z " fill="#DE9CAB" transform="translate(209,187)"/>
<path d="M0 0 C4.75 0.75 4.75 0.75 7 3 C7 3.99 7 4.98 7 6 C4.50638429 4.79618552 2.31856917 3.54571278 0 2 C0 1.34 0 0.68 0 0 Z " fill="#DE8DBC" transform="translate(281,162)"/>
<path d="M0 0 C4 0 4 0 5.8125 1.75 C7 4 7 4 6 8 C4.02 5.36 2.04 2.72 0 0 Z " fill="#E3AF9D" transform="translate(135,256)"/>
<path d="M0 0 C3.53600465 1.91135386 5.78972846 3.62642766 8 7 C7.01 7.33 6.02 7.66 5 8 C3.5 6.6875 3.5 6.6875 2 5 C2 4.01 2 3.02 2 2 C1.34 2 0.68 2 0 2 C0 1.34 0 0.68 0 0 Z " fill="#372317" transform="translate(115,238)"/>
<path d="M0 0 C0.625 1.8125 0.625 1.8125 1 4 C0.01 5.485 0.01 5.485 -1 7 C-2.32 6.34 -3.64 5.68 -5 5 C-3.35 3.35 -1.7 1.7 0 0 Z " fill="#29101F" transform="translate(288,189)"/>
<path d="M0 0 C3.23486594 0.70177877 4.89181195 1.36476494 7 4 C7 4.66 7 5.32 7 6 C7.66 6.33 8.32 6.66 9 7 C6 7 6 7 4.39453125 5.46875 C3.87246094 4.8190625 3.35039062 4.169375 2.8125 3.5 C2.28269531 2.8503125 1.75289062 2.200625 1.20703125 1.53125 C0.80871094 1.0259375 0.41039062 0.520625 0 0 Z " fill="#E5A0BE" transform="translate(245,167)"/>
<path d="M0 0 C0.66 0 1.32 0 2 0 C2 0.66 2 1.32 2 2 C2.99 1.67 3.98 1.34 5 1 C6.125 5.75 6.125 5.75 5 8 C2.27573689 5.64722731 1.1858237 3.37503669 0 0 Z " fill="#F99FCB" transform="translate(250,168)"/>
<path d="M0 0 C0.66 0.33 1.32 0.66 2 1 C0.73058503 4.91402949 -0.51167694 6.79072873 -4 9 C-3.67 7.35 -3.34 5.7 -3 4 C-2.34 4 -1.68 4 -1 4 C-0.67 2.68 -0.34 1.36 0 0 Z " fill="#2E1A14" transform="translate(160,113)"/>
<path d="M0 0 C2.875 0.625 2.875 0.625 6 2 C7.375 5.125 7.375 5.125 8 8 C6.85073734 7.04578192 5.70569459 6.08647955 4.5625 5.125 C3.92441406 4.59132812 3.28632813 4.05765625 2.62890625 3.5078125 C1 2 1 2 0 0 Z " fill="#300F22" transform="translate(285,207)"/>
<path d="M0 0 C1.98 1.65 3.96 3.3 6 5 C5.38125 5.144375 4.7625 5.28875 4.125 5.4375 C1.96741678 5.93152225 1.96741678 5.93152225 0 7 C-1.125 2.25 -1.125 2.25 0 0 Z " fill="#2E2118" transform="translate(138,260)"/>
<path d="M0 0 C0.66 0 1.32 0 2 0 C1.375 1.875 1.375 1.875 0 4 C-3.125 5.25 -3.125 5.25 -6 6 C-6 5.34 -6 4.68 -6 4 C-5.34 4 -4.68 4 -4 4 C-4 3.34 -4 2.68 -4 2 C-2.68 2 -1.36 2 0 2 C0 1.34 0 0.68 0 0 Z " fill="#321C1E" transform="translate(215,259)"/>
<path d="M0 0 C0.33 0.66 0.66 1.32 1 2 C-0.57894208 4.36841312 -1.9754262 6.06745228 -4 8 C-4.99 7.67 -5.98 7.34 -7 7 C-4.69 4.69 -2.38 2.38 0 0 Z " fill="#4A2638" transform="translate(273,248)"/>
<path d="M0 0 C0.99 0.33 1.98 0.66 3 1 C-0.465 3.97 -0.465 3.97 -4 7 C-4 4 -4 4 -2 1.8125 C-1.34 1.214375 -0.68 0.61625 0 0 Z " fill="#2E101D" transform="translate(262,212)"/>
<path d="M0 0 C0.66 0 1.32 0 2 0 C2 1.65 2 3.3 2 5 C1.01 5.33 0.02 5.66 -1 6 C-1.66 4.68 -2.32 3.36 -3 2 C-2.01 2 -1.02 2 0 2 C0 1.34 0 0.68 0 0 Z " fill="#F7BB98" transform="translate(117,185)"/>
<path d="M0 0 C0.99 0.99 1.98 1.98 3 3 C-1.75 6 -1.75 6 -4 6 C-4 4.35 -4 2.7 -4 1 C-2.68 1.33 -1.36 1.66 0 2 C0 1.34 0 0.68 0 0 Z " fill="#E7A3AE" transform="translate(206,184)"/>
<path d="M0 0 C0.33 0.99 0.66 1.98 1 3 C-4.75 8 -4.75 8 -7 8 C-7 7.34 -7 6.68 -7 6 C-5.46875 4.4921875 -5.46875 4.4921875 -3.5 2.875 C-2.8503125 2.33617187 -2.200625 1.79734375 -1.53125 1.2421875 C-1.0259375 0.83226562 -0.520625 0.42234375 0 0 Z " fill="#E2A6B5" transform="translate(220,257)"/>
<path d="M0 0 C2.31 1.98 4.62 3.96 7 6 C6.01 6.33 5.02 6.66 4 7 C1.23609263 4.59660228 0.95934081 3.83736322 0 0 Z " fill="#432C1F" transform="translate(123,245)"/>
<path d="M0 0 C0.66 0.33 1.32 0.66 2 1 C1.125 5.75 1.125 5.75 0 8 C-0.66 8 -1.32 8 -2 8 C-2.6875 5.6875 -2.6875 5.6875 -3 3 C-1.5625 1.1875 -1.5625 1.1875 0 0 Z " fill="#F99ECD" transform="translate(263,216)"/>
<path d="M0 0 C1.98 0 3.96 0 6 0 C4.35 1.98 2.7 3.96 1 6 C0.34 5.34 -0.32 4.68 -1 4 C-0.625 1.875 -0.625 1.875 0 0 Z " fill="#2D111E" transform="translate(269,202)"/>
<path d="M0 0 C0.99 0 1.98 0 3 0 C3 0.99 3 1.98 3 3 C3.66 3 4.32 3 5 3 C5 3.66 5 4.32 5 5 C3.02 4.34 1.04 3.68 -1 3 C-0.67 2.01 -0.34 1.02 0 0 Z " fill="#1F1205" transform="translate(124,198)"/>
<path d="M0 0 C1.9375 0.6875 1.9375 0.6875 4 2 C4.75 4.625 4.75 4.625 5 7 C3.02 5.35 1.04 3.7 -1 2 C-0.67 1.34 -0.34 0.68 0 0 Z " fill="#432237" transform="translate(293,169)"/>
<path d="M0 0 C0.99 0.33 1.98 0.66 3 1 C-0.465 3.97 -0.465 3.97 -4 7 C-3.04065919 3.16263678 -2.76390737 2.40339772 0 0 Z " fill="#432A1F" transform="translate(131,144)"/>
<path d="M0 0 C0.66 0.66 1.32 1.32 2 2 C0.625 3.5 0.625 3.5 -1 5 C-1.66 5 -2.32 5 -3 5 C-3.33 5.99 -3.66 6.98 -4 8 C-4.33 7.01 -4.66 6.02 -5 5 C-3.35 3.35 -1.7 1.7 0 0 Z " fill="#271312" transform="translate(183,139)"/>
<path d="M0 0 C0.99 0.33 1.98 0.66 3 1 C1.35 2.98 -0.3 4.96 -2 7 C-2.33 6.01 -2.66 5.02 -3 4 C-2.67 3.34 -2.34 2.68 -2 2 C-1.34 2 -0.68 2 0 2 C0 1.34 0 0.68 0 0 Z " fill="#3D271D" transform="translate(149,125)"/>
<path d="M0 0 C3.465 1.98 3.465 1.98 7 4 C6.67 4.99 6.34 5.98 6 7 C3.69 5.35 1.38 3.7 -1 2 C-0.67 1.34 -0.34 0.68 0 0 Z " fill="#E0ACA9" transform="translate(165,284)"/>
<path d="M0 0 C0.33 1.32 0.66 2.64 1 4 C-1.97 3.67 -4.94 3.34 -8 3 C-8 2.67 -8 2.34 -8 2 C-5.36 1.34 -2.72 0.68 0 0 Z " fill="#DA9FAB" transform="translate(211,264)"/>
<path d="M0 0 C4.8 3.44615385 4.8 3.44615385 5.8125 6.25 C5.874375 6.8275 5.93625 7.405 6 8 C1.3125 4.38671875 1.3125 4.38671875 0 3 C0 2.01 0 1.02 0 0 Z " fill="#271212" transform="translate(178,253)"/>
<path d="M0 0 C0.99 0.33 1.98 0.66 3 1 C0.03 3.475 0.03 3.475 -3 6 C-2.625 3.5625 -2.625 3.5625 -2 1 C-1.34 0.67 -0.68 0.34 0 0 Z " fill="#D99EA8" transform="translate(205,214)"/>
<path d="M0 0 C2.1875 0.3125 2.1875 0.3125 4 1 C2.35 2.32 0.7 3.64 -1 5 C-1.66 4.34 -2.32 3.68 -3 3 C-1.75 1.4375 -1.75 1.4375 0 0 Z " fill="#382519" transform="translate(118,156)"/>
<path d="M0 0 C6.625 0.75 6.625 0.75 10 3 C8.02 3.99 8.02 3.99 6 5 C5.67 4.01 5.34 3.02 5 2 C3.35 1.67 1.7 1.34 0 1 C0 0.67 0 0.34 0 0 Z " fill="#E0A1B2" transform="translate(210,103)"/>
<path d="M0 0 C6.75 -0.125 6.75 -0.125 9 1 C9 1.66 9 2.32 9 3 C4.545 2.01 4.545 2.01 0 1 C0 0.67 0 0.34 0 0 Z " fill="#2A0F15" transform="translate(208,101)"/>
</svg>
