<?xml version="1.0" encoding="UTF-8"?>
<svg version="1.1" xmlns="http://www.w3.org/2000/svg" width="397" height="397">
<path d="M0 0 C131.01 0 262.02 0 397 0 C397 131.01 397 262.02 397 397 C265.99 397 134.98 397 0 397 C0 265.99 0 134.98 0 0 Z " fill="#FEFEFE" transform="translate(0,0)"/>
<path d="M0 0 C2.54312656 1.56120855 4.40711741 3.290719 6.41796875 5.484375 C8.7169147 4.34042834 11.0074718 3.18241488 13.29296875 2.01171875 C14.32421875 1.48707031 15.35546875 0.96242188 16.41796875 0.421875 C17.44921875 -0.10535156 18.48046875 -0.63257812 19.54296875 -1.17578125 C25.05042538 -3.74243563 30.11395572 -3.7622842 36.10546875 -3.828125 C36.96591797 -3.85712891 37.82636719 -3.88613281 38.71289062 -3.91601562 C48.08093816 -4.00779002 54.8568008 -0.70821467 61.6328125 5.63671875 C68.99139483 13.25293197 71.90178289 21.58742283 71.7787323 32.12147522 C71.78129557 32.94179196 71.78385885 33.76210871 71.7864998 34.60728353 C71.79140337 37.3296224 71.77500202 40.0513947 71.75854492 42.77368164 C71.75769791 44.73557523 71.75817525 46.69746976 71.75987244 48.65936279 C71.7607309 53.96659583 71.7431291 59.27362422 71.72215056 64.58080983 C71.70335905 70.13413907 71.70163137 75.68747334 71.69807434 81.24082947 C71.68876115 91.74849234 71.66415716 102.25606124 71.63402587 112.76368278 C71.60045928 124.72979327 71.58399017 136.69590831 71.56893957 148.66205418 C71.537607 173.26954826 71.48425417 197.87695239 71.41796875 222.484375 C61.51796875 222.484375 51.61796875 222.484375 41.41796875 222.484375 C41.41796875 220.504375 41.41796875 218.524375 41.41796875 216.484375 C40.58652344 216.90589844 39.75507813 217.32742188 38.8984375 217.76171875 C37.81175781 218.30957031 36.72507812 218.85742188 35.60546875 219.421875 C34.52652344 219.96714844 33.44757813 220.51242187 32.3359375 221.07421875 C24.08402348 225.06209152 13.06028872 224.6783363 4.1875 222.80078125 C-2.76034056 220.20476641 -8.43415318 216.12627283 -11.89453125 209.484375 C-12.47901989 208.16053322 -13.04364332 206.82762571 -13.58203125 205.484375 C-13.97390625 204.535625 -14.36578125 203.586875 -14.76953125 202.609375 C-17.14140928 193.48676721 -16.73491268 183.90109471 -16.70703125 174.546875 C-16.71283203 172.60651367 -16.71283203 172.60651367 -16.71875 170.62695312 C-16.6915254 143.74266292 -16.6915254 143.74266292 -8.75390625 134.3125 C0.30493934 125.96694934 9.51983249 123.98757451 21.60546875 124.1953125 C28.67498316 124.73132076 33.86202157 127.24875334 39.41796875 131.484375 C39.51066195 118.54968023 39.58173059 105.61506452 39.62521744 92.68010521 C39.6460893 86.67382447 39.67440021 80.66777102 39.71972656 74.66162109 C39.76319773 68.86500439 39.78710888 63.06860628 39.79747772 57.27183914 C39.80486673 55.0606403 39.81929571 52.84945338 39.84088898 50.63834763 C39.86993915 47.540374 39.87392398 44.44330283 39.87207031 41.34521484 C39.88645142 40.43171265 39.90083252 39.51821045 39.91564941 38.57702637 C39.87990696 33.05403113 39.14284466 29.84638799 35.41796875 25.484375 C31.78627372 23.1641254 28.49159822 23.22544283 24.3515625 23.8671875 C21.16484169 24.88436303 19.46804263 26.93731351 17.41796875 29.484375 C16.05114801 32.21801647 16.25531412 34.43474979 16.21264648 37.49462891 C16.19270126 38.75578522 16.17275604 40.01694153 16.15220642 41.3163147 C16.1352221 42.69785437 16.11834329 44.07939534 16.1015625 45.4609375 C16.08099315 46.87056082 16.05999668 48.28017797 16.03858948 49.68978882 C15.9833668 53.40184535 15.93395844 57.11395757 15.88574219 60.82611084 C15.82670173 65.27902321 15.76047269 69.73183372 15.6954422 74.18466187 C15.59743018 80.95117075 15.50857605 87.71774465 15.41796875 94.484375 C5.18796875 94.484375 -5.04203125 94.484375 -15.58203125 94.484375 C-15.61941406 89.99457031 -15.65679687 85.50476563 -15.6953125 80.87890625 C-15.73343235 77.29362363 -15.77450507 73.70840184 -15.81757355 70.12317657 C-15.86219278 66.34149706 -15.90163644 62.55992729 -15.9284668 58.77807617 C-15.95452143 55.13390322 -15.99493834 51.49014405 -16.04521751 47.84622765 C-16.06187178 46.45766036 -16.07339505 45.06902152 -16.07964516 43.68036842 C-16.08930097 41.7318648 -16.11907386 39.78349258 -16.1496582 37.83520508 C-16.16631279 36.17307732 -16.16631279 36.17307732 -16.18330383 34.47737122 C-16.63462102 31.08961665 -17.56129467 29.21850727 -19.58203125 26.484375 C-23.69297628 23.61627381 -26.85770171 23.0092259 -31.68359375 23.83203125 C-35.47112059 25.13350652 -37.83318664 27.98668579 -39.58203125 31.484375 C-39.70230597 33.48535018 -39.75940383 35.4902371 -39.78735352 37.49462891 C-39.80729874 38.75578522 -39.82724396 40.01694153 -39.84779358 41.3163147 C-39.8647779 42.69785437 -39.88165671 44.07939534 -39.8984375 45.4609375 C-39.91900685 46.87056082 -39.94000332 48.28017797 -39.96141052 49.68978882 C-40.0166332 53.40184535 -40.06604156 57.11395757 -40.11425781 60.82611084 C-40.17329827 65.27902321 -40.23952731 69.73183372 -40.3045578 74.18466187 C-40.40256982 80.95117075 -40.49142395 87.71774465 -40.58203125 94.484375 C-50.81203125 94.484375 -61.04203125 94.484375 -71.58203125 94.484375 C-71.58203125 62.474375 -71.58203125 30.464375 -71.58203125 -2.515625 C-61.68203125 -2.515625 -51.78203125 -2.515625 -41.58203125 -2.515625 C-41.58203125 -0.205625 -41.58203125 2.104375 -41.58203125 4.484375 C-41.00195312 4.07445313 -40.421875 3.66453125 -39.82421875 3.2421875 C-39.04304688 2.70335938 -38.261875 2.16453125 -37.45703125 1.609375 C-36.69132812 1.07570313 -35.925625 0.54203125 -35.13671875 -0.0078125 C-24.58189012 -6.23742083 -10.76687473 -4.92026434 0 0 Z " fill="#147AC9" transform="translate(233.58203125,98.515625)"/>
<path d="M0 0 C2.98760592 0.01610701 5.97385981 0.00002348 8.96142578 -0.01904297 C23.70172026 -0.03385217 38.05468939 1.34906836 52.48876953 4.39111328 C52.48876953 4.72111328 52.48876953 5.05111328 52.48876953 5.39111328 C51.67013428 5.43075195 50.85149902 5.47039063 50.00805664 5.51123047 C20.57336675 7.00117772 -7.1133745 10.851781 -34.51123047 22.39111328 C-35.17799805 22.67180664 -35.84476563 22.9525 -36.53173828 23.24169922 C-51.85998849 29.74605326 -66.65855055 37.11137923 -80.51123047 46.39111328 C-81.32205078 46.92736328 -82.13287109 47.46361328 -82.96826172 48.01611328 C-84.4859062 49.02284262 -86.00048612 50.03421485 -87.51123047 51.05126953 C-89.26769086 52.22796077 -91.04423801 53.37455208 -92.82373047 54.51611328 C-95.49281552 56.26016173 -95.49281552 56.26016173 -97.40576172 58.29345703 C-99.46310767 60.34316904 -101.5827686 62.06367407 -103.88623047 63.82861328 C-114.55084761 72.30359707 -124.32966956 81.4605479 -132.51123047 92.39111328 C-133.13513672 93.21095703 -133.75904297 94.03080078 -134.40185547 94.87548828 C-147.03751312 112.12590786 -152.53161802 132.68443732 -156.51123047 153.39111328 C-156.70031982 154.35057861 -156.88940918 155.31004395 -157.08422852 156.29858398 C-158.63945508 165.08474813 -158.85077921 173.72367587 -158.8269043 182.6184082 C-158.82375696 185.05807804 -158.84725186 187.49651513 -158.87255859 189.93603516 C-159.01076219 224.51196388 -146.98547633 257.87719563 -129.51123047 287.39111328 C-144.48413989 288.44184377 -159.56457098 282.36647492 -171.27685547 273.23486328 C-173.41335661 271.33889538 -175.46516467 269.38333524 -177.51123047 267.39111328 C-178.37748047 266.73111328 -179.24373047 266.07111328 -180.13623047 265.39111328 C-194.76143315 253.07515313 -205.43738585 233.64619371 -210.51123047 215.39111328 C-210.7397168 214.58109863 -210.96820313 213.77108398 -211.20361328 212.93652344 C-218.04781422 187.49999046 -219.12873267 157.5155405 -210.51123047 132.39111328 C-210.28129395 131.67810059 -210.05135742 130.96508789 -209.81445312 130.23046875 C-204.6689016 114.38595728 -196.57137567 100.58917283 -186.51123047 87.39111328 C-185.79580078 86.45009766 -185.08037109 85.50908203 -184.34326172 84.53955078 C-180.37719342 79.46114225 -176.16661823 74.83959492 -171.51123047 70.39111328 C-170.27373047 69.15361328 -170.27373047 69.15361328 -169.01123047 67.89111328 C-167.77373047 66.65361328 -167.77373047 66.65361328 -166.51123047 65.39111328 C-166.04716797 64.89224609 -165.58310547 64.39337891 -165.10498047 63.87939453 C-151.31794962 49.3827371 -133.00359128 38.76463865 -115.51123047 29.39111328 C-114.89231934 29.05370117 -114.2734082 28.71628906 -113.63574219 28.36865234 C-95.05802313 18.3014242 -74.89939667 11.70444786 -54.51123047 6.39111328 C-53.37041016 6.08560547 -52.22958984 5.78009766 -51.05419922 5.46533203 C-34.24438469 1.25748372 -17.27760921 -0.11026457 0 0 Z " fill="#137AC9" transform="translate(247.51123046875,35.60888671875)"/>
<path d="M0 0 C10.23 0 20.46 0 31 0 C31 41.91 31 83.82 31 127 C21.1 127 11.2 127 1 127 C1 125.02 1 123.04 1 121 C-0.24716797 121.63228516 -0.24716797 121.63228516 -1.51953125 122.27734375 C-2.60621094 122.82519531 -3.69289063 123.37304688 -4.8125 123.9375 C-5.89144531 124.48277344 -6.97039062 125.02804687 -8.08203125 125.58984375 C-16.33394527 129.57771652 -27.35768003 129.1939613 -36.23046875 127.31640625 C-43.17830931 124.72039141 -48.85212193 120.64189783 -52.3125 114 C-52.89698864 112.67615822 -53.46161207 111.34325071 -54 110 C-54.391875 109.05125 -54.78375 108.1025 -55.1875 107.125 C-57.55937803 98.00239221 -57.15288143 88.41671971 -57.125 79.0625 C-57.12886719 77.76892578 -57.13273438 76.47535156 -57.13671875 75.14257812 C-57.10949415 48.25828792 -57.10949415 48.25828792 -49.171875 38.828125 C-40.11302941 30.48257434 -30.89813626 28.50319951 -18.8125 28.7109375 C-11.65691211 29.25347183 -6.67152064 31.74635952 -1 36 C-0.67 24.12 -0.34 12.24 0 0 Z " fill="#637178" transform="translate(274,194)"/>
<path d="M0 0 C2.79600711 1.8293746 4.47361754 3.88532037 6.41796875 6.58203125 C4.76796875 6.58203125 3.11796875 6.58203125 1.41796875 6.58203125 C1.41796875 5.59203125 1.41796875 4.60203125 1.41796875 3.58203125 C-2.41192231 1.77972957 -5.36324933 1.38580884 -9.58203125 1.58203125 C-9.58203125 0.92203125 -9.58203125 0.26203125 -9.58203125 -0.41796875 C-14.86203125 -0.74796875 -20.14203125 -1.07796875 -25.58203125 -1.41796875 C-25.91203125 -0.42796875 -26.24203125 0.56203125 -26.58203125 1.58203125 C-28.91015625 2.75 -28.91015625 2.75 -31.83203125 3.76953125 C-32.7859375 4.11371094 -33.73984375 4.45789063 -34.72265625 4.8125 C-37.4929796 5.55806516 -39.73139594 5.73288604 -42.58203125 5.58203125 C-42.82953125 4.96328125 -43.07703125 4.34453125 -43.33203125 3.70703125 C-44.88492758 1.06710749 -45.71898946 0.64397649 -48.58203125 -0.41796875 C-52.18168575 -0.7731439 -52.18168575 -0.7731439 -56.08203125 -0.73046875 C-58.0465625 -0.75560547 -58.0465625 -0.75560547 -60.05078125 -0.78125 C-63.88308709 -0.3869973 -65.03802977 -0.23663352 -67.58203125 2.58203125 C-67.99241737 5.53908693 -68.14606288 8.13148203 -68.12792969 11.0925293 C-68.13826736 11.96103516 -68.14860504 12.82954102 -68.15925598 13.72436523 C-68.18877521 16.5976807 -68.19018507 19.47029456 -68.19140625 22.34375 C-68.20638175 24.33487804 -68.22310756 26.32599363 -68.24151611 28.3170929 C-68.28527262 33.55974892 -68.30520711 38.80223737 -68.32025146 44.04504395 C-68.33979265 49.39406274 -68.38176597 54.74289976 -68.421875 60.09179688 C-68.49726724 70.58851647 -68.54543131 81.08510462 -68.58203125 91.58203125 C-55.71203125 92.07703125 -55.71203125 92.07703125 -42.58203125 92.58203125 C-42.60821533 90.56811279 -42.63439941 88.55419434 -42.66137695 86.47924805 C-42.74417756 79.82973984 -42.79943521 73.18020902 -42.84109211 66.53032207 C-42.86720076 62.4978836 -42.90262033 58.46597269 -42.95922852 54.43383789 C-43.01350554 50.54345827 -43.04344223 46.65358642 -43.05641747 42.76285744 C-43.06566534 41.27760636 -43.08372466 39.79238348 -43.11068153 38.30734825 C-43.14691894 36.22861801 -43.15197947 34.15199266 -43.1496582 32.07299805 C-43.16076126 30.88941208 -43.17186432 29.70582611 -43.18330383 28.4863739 C-42.58203125 25.58203125 -42.58203125 25.58203125 -40.17155457 23.67634583 C-37.58203125 22.58203125 -37.58203125 22.58203125 -35.58203125 22.58203125 C-35.58203125 21.92203125 -35.58203125 21.26203125 -35.58203125 20.58203125 C-33.4784963 20.50101065 -31.37407173 20.44283218 -29.26953125 20.39453125 C-28.09777344 20.35972656 -26.92601562 20.32492188 -25.71875 20.2890625 C-22.58203125 20.58203125 -22.58203125 20.58203125 -20.8515625 22.03125 C-20.22314453 22.79888672 -20.22314453 22.79888672 -19.58203125 23.58203125 C-18.59203125 23.91203125 -17.60203125 24.24203125 -16.58203125 24.58203125 C-12.51675579 31.12321823 -13.19978629 38.12442884 -13.2890625 45.609375 C-13.29466602 46.96700062 -13.29893255 48.32463235 -13.30192566 49.68226624 C-13.3133151 53.23500669 -13.34273016 56.78737227 -13.3760376 60.33996582 C-13.40686681 63.97333618 -13.42062331 67.60676961 -13.43554688 71.24023438 C-13.46601046 78.35449646 -13.52474343 85.46773255 -13.58203125 92.58203125 C-4.67203125 92.58203125 4.23796875 92.58203125 13.41796875 92.58203125 C13.39178467 90.71023193 13.36560059 88.83843262 13.33862305 86.90991211 C13.25781448 80.70741938 13.20046305 74.50505174 13.15890789 68.30217648 C13.13287578 64.54335414 13.09759734 60.78510425 13.04077148 57.02661133 C12.98621959 53.39556359 12.95650023 49.76506446 12.94358253 46.13363838 C12.93438379 44.75216606 12.91642038 43.37072187 12.88931847 41.98948479 C12.66022203 29.82362652 12.66022203 29.82362652 15.80371094 25.24804688 C18.35516858 22.64607475 19.44410205 21.64269769 22.98046875 21.14453125 C23.72425781 21.02207031 24.46804688 20.89960937 25.234375 20.7734375 C27.28868293 20.593364 29.35578361 20.58203125 31.41796875 20.58203125 C31.41796875 21.24203125 31.41796875 21.90203125 31.41796875 22.58203125 C32.59359375 22.79859375 32.59359375 22.79859375 33.79296875 23.01953125 C36.41796875 23.58203125 36.41796875 23.58203125 38.41796875 24.58203125 C37.92296875 26.06703125 37.92296875 26.06703125 37.41796875 27.58203125 C36.92296875 27.10765625 36.42796875 26.63328125 35.91796875 26.14453125 C32.55028247 24.03972732 29.33131449 23.46138861 25.41796875 23.58203125 C21.84870046 24.79423558 20.01875373 25.76914667 17.77702332 28.80229187 C16.17860543 32.07161251 16.0219645 34.30325575 15.9855957 37.93286133 C15.96580154 39.19379105 15.94600739 40.45472076 15.9256134 41.75386047 C15.91884469 43.11975963 15.9123977 44.48566041 15.90625 45.8515625 C15.8893945 47.25690778 15.87124308 48.66223807 15.85185242 50.06755066 C15.80444024 53.75490635 15.77457449 57.44220122 15.74841309 61.12976074 C15.71856293 64.89717534 15.6722083 68.66438477 15.62695312 72.43164062 C15.53946632 79.81512029 15.47944846 87.19810582 15.41796875 94.58203125 C5.18796875 94.58203125 -5.04203125 94.58203125 -15.58203125 94.58203125 C-15.61941406 90.09222656 -15.65679687 85.60242188 -15.6953125 80.9765625 C-15.73343235 77.39127988 -15.77450507 73.80605809 -15.81757355 70.22083282 C-15.86219278 66.43915331 -15.90163644 62.65758354 -15.9284668 58.87573242 C-15.95452143 55.23155947 -15.99493834 51.5878003 -16.04521751 47.9438839 C-16.06187178 46.55531661 -16.07339505 45.16667777 -16.07964516 43.77802467 C-16.08930097 41.82952105 -16.11907386 39.88114883 -16.1496582 37.93286133 C-16.16631279 36.27073357 -16.16631279 36.27073357 -16.18330383 34.57502747 C-16.63462102 31.1872729 -17.56129467 29.31616352 -19.58203125 26.58203125 C-23.69297628 23.71393006 -26.85770171 23.10688215 -31.68359375 23.9296875 C-35.47112059 25.23116277 -37.83318664 28.08434204 -39.58203125 31.58203125 C-39.70230597 33.58300643 -39.75940383 35.58789335 -39.78735352 37.59228516 C-39.80729874 38.85344147 -39.82724396 40.11459778 -39.84779358 41.41397095 C-39.8647779 42.79551062 -39.88165671 44.17705159 -39.8984375 45.55859375 C-39.91900685 46.96821707 -39.94000332 48.37783422 -39.96141052 49.78744507 C-40.0166332 53.4995016 -40.06604156 57.21161382 -40.11425781 60.92376709 C-40.17329827 65.37667946 -40.23952731 69.82948997 -40.3045578 74.28231812 C-40.40256982 81.048827 -40.49142395 87.8154009 -40.58203125 94.58203125 C-50.81203125 94.58203125 -61.04203125 94.58203125 -71.58203125 94.58203125 C-71.58203125 62.57203125 -71.58203125 30.56203125 -71.58203125 -2.41796875 C-61.68203125 -2.41796875 -51.78203125 -2.41796875 -41.58203125 -2.41796875 C-41.58203125 -0.10796875 -41.58203125 2.20203125 -41.58203125 4.58203125 C-41.00195312 4.17210938 -40.421875 3.7621875 -39.82421875 3.33984375 C-39.04304688 2.80101563 -38.261875 2.2621875 -37.45703125 1.70703125 C-36.69132812 1.17335938 -35.925625 0.6396875 -35.13671875 0.08984375 C-24.59981466 -6.12918527 -10.7949241 -4.79605231 0 0 Z " fill="#2177B3" transform="translate(233.58203125,98.41796875)"/>
<path d="M0 0 C4.26835074 4.01727128 5.28873642 9.43856469 5.48828125 15.09375 C5.48696963 16.89591235 5.4698148 18.69812691 5.4375 20.5 C5.44233398 21.84771484 5.44233398 21.84771484 5.44726562 23.22265625 C5.39247168 30.06691843 5.22322339 36.53458752 0.625 41.9375 C-2.97634538 44.90860993 -5.13711154 45.30544323 -9.84375 45.203125 C-12.98667017 44.88883298 -14.53812604 44.13657048 -16.875 42 C-20.21118195 35.11811743 -20.29843623 28.93641339 -20.1875 21.375 C-20.19072266 20.26898438 -20.19394531 19.16296875 -20.19726562 18.0234375 C-20.11663624 5.82641091 -20.11663624 5.82641091 -16.4375 1.1875 C-11.87643606 -2.27890859 -5.15172245 -1.79190346 0 0 Z " fill="#FAFCFC" transform="translate(268.875,251)"/>
<path d="M0 0 C2.69226199 2.14216039 4.08999919 3.62546633 5.1875 6.91796875 C5.27661173 8.95763356 5.30510045 11.00014161 5.30102539 13.04174805 C5.30094986 14.30282883 5.30087433 15.56390961 5.30079651 16.86320496 C5.29568989 18.23953287 5.29047389 19.61586038 5.28515625 20.9921875 C5.28329086 22.40037486 5.28186753 23.80856286 5.28086853 25.2167511 C5.27705288 28.92064205 5.26723072 32.6244937 5.25616455 36.32836914 C5.24592997 40.10888121 5.24131172 43.88939983 5.23632812 47.66992188 C5.22613844 55.08597219 5.20656441 62.50191464 5.1875 69.91796875 C15.4175 69.91796875 25.6475 69.91796875 36.1875 69.91796875 C36.12949219 65.45136719 36.07148438 60.98476562 36.01171875 56.3828125 C35.9795363 52.80863899 35.9524323 49.23450673 35.92874908 45.66027069 C35.90240668 41.8940649 35.86724025 38.1284269 35.81030273 34.36254883 C35.75575084 30.73150109 35.72603148 27.10100196 35.71311378 23.46957588 C35.70391504 22.08810356 35.68595163 20.70665937 35.65884972 19.32542229 C35.4297351 7.15859873 35.4297351 7.15859873 38.57348633 2.60766602 C41.23472992 -0.13062862 42.46313724 -1.38912655 46.1875 -2.08203125 C50.46607466 -2.13431526 53.41281862 -1.57041734 57.0625 0.73046875 C60.95034433 4.73266145 61.43634108 7.71233445 61.41455078 13.24707031 C61.41439972 14.52809631 61.41424866 15.80912231 61.41409302 17.12896729 C61.40388051 18.52217769 61.39344853 19.91538651 61.3828125 21.30859375 C61.37908064 22.73777061 61.37623448 24.16695003 61.37423706 25.59613037 C61.36661419 29.35102446 61.34697739 33.10576294 61.3248291 36.8605957 C61.30434159 40.69480281 61.29522914 44.52903514 61.28515625 48.36328125 C61.26373012 55.88158123 61.22961056 63.39975315 61.1875 70.91796875 C60.5275 70.91796875 59.8675 70.91796875 59.1875 70.91796875 C59.17941315 70.19435654 59.17132629 69.47074432 59.16299438 68.72520447 C59.08484408 61.88423547 58.99749264 55.04343816 58.89997292 48.20271969 C58.85016478 44.68637424 58.80383438 41.17005658 58.765625 37.65356445 C58.72147607 33.60479368 58.66188977 29.55637477 58.6015625 25.5078125 C58.59001129 24.25338852 58.57846008 22.99896454 58.56655884 21.70652771 C58.42808391 13.1226543 58.42808391 13.1226543 56.1875 4.91796875 C53.51162681 2.86571007 51.01052509 2.59986986 47.6875 2.54296875 C46.9346875 2.51460938 46.181875 2.48625 45.40625 2.45703125 C42.27324965 3.10790104 41.18931347 4.45615832 39.1875 6.91796875 C38.59854296 9.61056545 38.59854296 9.61056545 38.70166016 12.60107422 C38.6955069 13.74260956 38.68935364 14.8841449 38.68301392 16.06027222 C38.69738495 17.28948395 38.71175598 18.51869568 38.7265625 19.78515625 C38.72747894 21.05263702 38.72839539 22.3201178 38.7293396 23.62600708 C38.73538375 26.30802032 38.74899757 28.98865801 38.77587891 31.67041016 C38.80979002 35.09563615 38.81750915 38.52027209 38.81598854 41.94564629 C38.81666574 45.22554068 38.83436275 48.50531293 38.8515625 51.78515625 C38.85378815 53.01031952 38.85601379 54.23548279 38.85830688 55.49777222 C38.87106659 56.64561188 38.88382629 57.79345154 38.89697266 58.97607422 C38.90459625 59.9810495 38.91221985 60.98602478 38.92007446 62.02145386 C39.13109967 65.50767014 39.13109967 65.50767014 41.1875 70.91796875 C28.6475 71.24796875 16.1075 71.57796875 3.1875 71.91796875 C3.13851562 67.2721875 3.08953125 62.62640625 3.0390625 57.83984375 C3.00367493 54.89581161 2.96771431 51.95180884 2.9296875 49.0078125 C2.86939104 44.33549209 2.81121206 39.66321276 2.765625 34.99072266 C2.72873683 31.22344539 2.68236748 27.45639299 2.62943649 23.68930817 C2.61091127 22.25245358 2.59579637 20.81555082 2.58415604 19.37862396 C2.56726235 17.36527552 2.53709317 15.35205174 2.50634766 13.33886719 C2.49302399 12.19303162 2.47970032 11.04719604 2.4659729 9.86663818 C2.19668425 7.01521816 1.66944267 5.33531419 0.1875 2.91796875 C-1.70760699 2.83636127 -3.60374504 2.77850416 -5.5 2.73046875 C-6.55574219 2.69566406 -7.61148438 2.66085938 -8.69921875 2.625 C-12.33005234 2.96667192 -13.97234292 3.64198125 -16.8125 5.91796875 C-17.53900586 8.83164897 -17.53900586 8.83164897 -17.38012695 12.2253418 C-17.3797493 13.52646408 -17.37937164 14.82758636 -17.37898254 16.1681366 C-17.35344909 17.58866326 -17.3273691 19.00918018 -17.30078125 20.4296875 C-17.29145464 21.8827035 -17.28433781 23.33573524 -17.27934265 24.78877258 C-17.26026018 28.61145512 -17.2111506 32.43318629 -17.15582275 36.25549316 C-17.10465602 40.15652597 -17.08183424 44.05771266 -17.05664062 47.95898438 C-17.00303136 55.61241269 -16.91770564 63.26505738 -16.8125 70.91796875 C-18.7925 71.90796875 -18.7925 71.90796875 -20.8125 72.91796875 C-20.79759694 64.43317558 -20.75587867 55.94910949 -20.68040943 47.46465969 C-20.64619355 43.52445886 -20.62103798 39.58464351 -20.61694336 35.64428711 C-20.61264862 31.83785194 -20.58409053 28.03228553 -20.53906822 24.2261219 C-20.52613041 22.77780286 -20.52177237 21.32937966 -20.52634621 19.88101006 C-20.56050596 5.77282901 -20.56050596 5.77282901 -14.8125 -0.08203125 C-10.27136228 -3.0276341 -4.60504233 -2.74913087 0 0 Z " fill="#E2FCFE" transform="translate(212.8125,123.08203125)"/>
<path d="M0 0 C0.83789062 -0.01998047 1.67578125 -0.03996094 2.5390625 -0.06054688 C11.74370427 -0.05342254 18.56651648 3.36447169 25.21484375 9.58984375 C35.02768173 19.74623842 35.43234366 30.58299456 35.29296875 44.06640625 C35.28736409 45.66779684 35.28309811 47.26919261 35.28010559 48.87059021 C35.2687252 53.05785665 35.23931786 57.24480419 35.20599365 61.4319458 C35.16970817 66.47059796 35.15609914 71.50935754 35.13863373 76.54810333 C35.1096754 84.17812309 35.05214161 91.807445 35 99.4375 C24.77 99.4375 14.54 99.4375 4 99.4375 C3.93941406 94.86390625 3.87882812 90.2903125 3.81640625 85.578125 C3.77590853 82.67967816 3.73513358 79.78124054 3.69335938 76.8828125 C3.62708874 72.28290967 3.56184168 67.68300835 3.50268555 63.08300781 C3.4549254 59.37415809 3.40257864 55.66539881 3.34705925 51.95665741 C3.32668841 50.5421143 3.30796675 49.12754644 3.29092598 47.71295929 C3.26676528 45.73078191 3.23618277 43.74868596 3.20532227 41.76660156 C3.18200584 40.07449554 3.18200584 40.07449554 3.15821838 38.34820557 C3.0981435 35.51863809 3.0981435 35.51863809 2.42466736 33.16693115 C2 31.4375 2 31.4375 3 29.4375 C3.66 29.4375 4.32 29.4375 5 29.4375 C5.06058594 30.04078125 5.12117188 30.6440625 5.18359375 31.265625 C5.26738281 32.06484375 5.35117187 32.8640625 5.4375 33.6875 C5.51871094 34.47640625 5.59992188 35.2653125 5.68359375 36.078125 C5.93458195 38.36936752 5.93458195 38.36936752 6.5146637 40.26596069 C7.07173009 42.75844179 7.1054417 44.98747201 7.08178711 47.54150391 C7.0752562 48.55580475 7.06872528 49.57010559 7.06199646 50.61514282 C7.05056107 51.70378632 7.03912567 52.79242981 7.02734375 53.9140625 C7.01470381 56.21614437 7.00234239 58.51822777 6.99023438 60.8203125 C6.9653461 64.45252265 6.93729723 68.08465322 6.90405273 71.71679688 C6.87397471 75.22005747 6.85611883 78.72321454 6.83984375 82.2265625 C6.82638412 83.31925446 6.8129245 84.41194641 6.79905701 85.53775024 C6.79567825 86.54574677 6.7922995 87.55374329 6.78881836 88.59228516 C6.78136093 89.48178864 6.7739035 90.37129211 6.76622009 91.28775024 C6.7961195 93.65129748 6.7961195 93.65129748 9 95.4375 C16.92 95.7675 24.84 96.0975 33 96.4375 C32.67 72.3475 32.34 48.2575 32 23.4375 C31.34 23.4375 30.68 23.4375 30 23.4375 C28.50178941 20.06652617 28 18.23307881 28 14.4375 C27.01 14.4375 26.02 14.4375 25 14.4375 C24.34 12.7875 23.68 11.1375 23 9.4375 C22.34 9.4375 21.68 9.4375 21 9.4375 C20.505 8.4475 20.505 8.4475 20 7.4375 C17.19019327 6.74522968 17.19019327 6.74522968 13.9375 6.3125 C12.83277344 6.14492187 11.72804688 5.97734375 10.58984375 5.8046875 C9.73519531 5.68351562 8.88054687 5.56234375 8 5.4375 C7.505 3.4575 7.505 3.4575 7 1.4375 C-2.87087394 2.45573336 -11.37250909 3.40731259 -20.25 8.1875 C-23.30052337 9.57410153 -23.95640855 9.40000328 -27 8.4375 C-25.86300618 7.65368682 -24.71464876 6.88636146 -23.5625 6.125 C-22.92441406 5.69574219 -22.28632813 5.26648438 -21.62890625 4.82421875 C-14.56011345 1.09550932 -7.93449465 -0.06713803 0 0 Z " fill="#2B79B0" transform="translate(270,94.5625)"/>
<path d="M0 0 C3.05847563 0.00313913 6.11596109 -0.02029521 9.17431641 -0.0456543 C24.06558094 -0.09231703 38.50916588 1.24720436 53.09228516 4.31567383 C53.09228516 4.64567383 53.09228516 4.97567383 53.09228516 5.31567383 C52.2736499 5.3553125 51.45501465 5.39495117 50.61157227 5.43579102 C21.17688237 6.92573826 -6.50985888 10.77634155 -33.90771484 22.31567383 C-34.57448242 22.59636719 -35.24125 22.87706055 -35.92822266 23.16625977 C-50.38548595 29.30102125 -64.38640668 36.16940088 -77.52490234 44.80786133 C-80.87011258 46.92466649 -84.32960098 48.62788427 -87.90771484 50.31567383 C-87.90771484 48.99567383 -87.90771484 47.67567383 -87.90771484 46.31567383 C-87.26833984 46.19192383 -86.62896484 46.06817383 -85.97021484 45.94067383 C-85.28958984 45.73442383 -84.60896484 45.52817383 -83.90771484 45.31567383 C-83.57771484 44.65567383 -83.24771484 43.99567383 -82.90771484 43.31567383 C-81.58771484 43.31567383 -80.26771484 43.31567383 -78.90771484 43.31567383 C-78.83166016 42.68790039 -78.75560547 42.06012695 -78.67724609 41.41333008 C-77.90771484 39.31567383 -77.90771484 39.31567383 -75.98193359 38.37426758 C-75.19431641 38.16930664 -74.40669922 37.9643457 -73.59521484 37.75317383 C-70.05870386 36.72680471 -67.80344564 35.61228791 -64.90771484 33.31567383 C-62.92757052 32.59215956 -60.92950169 31.91301994 -58.90771484 31.31567383 C-58.90771484 30.65567383 -58.90771484 29.99567383 -58.90771484 29.31567383 C-58.29283203 29.12231445 -57.67794922 28.92895508 -57.04443359 28.72973633 C-55.83207031 28.33915039 -55.83207031 28.33915039 -54.59521484 27.94067383 C-53.79470703 27.68543945 -52.99419922 27.43020508 -52.16943359 27.16723633 C-49.68046956 26.32735572 -49.68046956 26.32735572 -46.90771484 24.31567383 C-45.58771484 24.31567383 -44.26771484 24.31567383 -42.90771484 24.31567383 C-42.90771484 23.65567383 -42.90771484 22.99567383 -42.90771484 22.31567383 C-37.60731625 20.65013356 -32.43478397 19.04291977 -26.90771484 18.31567383 C-26.90771484 17.65567383 -26.90771484 16.99567383 -26.90771484 16.31567383 C-23.93771484 15.65567383 -20.96771484 14.99567383 -17.90771484 14.31567383 C-17.90771484 13.65567383 -17.90771484 12.99567383 -17.90771484 12.31567383 C-14.1890354 10.45633411 -9.77516934 10.49942653 -5.68115234 10.01098633 C-1.85163104 9.43986604 -1.85163104 9.43986604 1.74462891 7.81176758 C7.30267507 5.60148734 13.11686633 5.57619125 19.02978516 5.25317383 C21.28940244 5.12503158 23.54857939 4.98877359 25.80712891 4.84301758 C26.7983374 4.78879639 27.7895459 4.7345752 28.81079102 4.67871094 C29.56368408 4.55890869 30.31657715 4.43910645 31.09228516 4.31567383 C31.42228516 3.65567383 31.75228516 2.99567383 32.09228516 2.31567383 C-1.92043069 1.50951594 -1.92043069 1.50951594 -35.53564453 5.87573242 C-41.58005105 6.996772 -47.77543904 7.13531278 -53.90771484 7.31567383 C-50.17755504 5.06788922 -46.19962869 4.50603555 -41.97021484 3.81567383 C-41.28636719 3.69836914 -40.60251953 3.58106445 -39.89794922 3.46020508 C-38.40676159 3.20736925 -36.91391822 2.96418785 -35.41992188 2.72851562 C-33.69180551 2.44452682 -31.96866861 2.12902091 -30.25097656 1.78759766 C-20.20015585 -0.05926335 -10.19096489 -0.02178591 0 0 Z " fill="#317AAA" transform="translate(246.90771484375,35.684326171875)"/>
<path d="M0 0 C0.66 0 1.32 0 2 0 C2.12117188 1.05058594 2.24234375 2.10117188 2.3671875 3.18359375 C3.40466688 12.27263398 3.40466688 12.27263398 5.125 21.25 C6 25 6 25 6 29 C6.99 29 7.98 29 9 29 C9.18175781 29.70125 9.36351562 30.4025 9.55078125 31.125 C11.29645548 37.71380119 13.05957634 44.22128023 16.1875 50.3125 C17 52 17 52 17 55 C17.99 55 18.98 55 20 55 C20.37125 56.175625 20.7425 57.35125 21.125 58.5625 C23.20006251 64.10911258 26.62344802 68.24885643 31.375 71.75 C31.91125 72.1625 32.4475 72.575 33 73 C33 73.99 33 74.98 33 76 C33.66 76 34.32 76 35 76 C35 76.66 35 77.32 35 78 C35.61875 78.268125 36.2375 78.53625 36.875 78.8125 C39 80 39 80 41 83 C42.68913246 84.09891065 42.68913246 84.09891065 44.5625 85 C48 87 48 87 49 90 C50.0725 90.103125 51.145 90.20625 52.25 90.3125 C55.84739269 90.97202199 57.45776191 91.45776191 60 94 C60 94.66 60 95.32 60 96 C60.639375 96.103125 61.27875 96.20625 61.9375 96.3125 C64.52860254 96.89417608 66.87632276 97.62439516 69.375 98.5 C73.27179091 99.83809403 76.90861237 100.564746 81 101 C80.01 97.535 80.01 97.535 79 94 C78.01 94 77.02 94 76 94 C75.85304688 93.33355469 75.70609375 92.66710937 75.5546875 91.98046875 C73.99181883 85.55833601 71.71485404 80.29856425 68.4296875 74.578125 C65.78323045 69.80582541 64 65.53288828 64 60 C63.34 60 62.68 60 62 60 C62 58.35 62 56.7 62 55 C62.66 54.67 63.32 54.34 64 54 C64.29390625 54.93714844 64.5878125 55.87429688 64.890625 56.83984375 C70.13884386 72.88393611 77.39951187 88.47381669 86 103 C71.02709057 104.05073049 55.94665949 97.97536163 44.234375 88.84375 C42.09787386 86.9477821 40.0460658 84.99222196 38 83 C37.13375 82.34 36.2675 81.68 35.375 81 C13.48505793 62.56636457 3.77275493 33.36763703 0 6 C-0.03427151 4.00029366 -0.04325203 1.99953226 0 0 Z " fill="#387FB0" transform="translate(32,220)"/>
<path d="M0 0 C2.79600711 1.8293746 4.47361754 3.88532037 6.41796875 6.58203125 C4.76796875 6.58203125 3.11796875 6.58203125 1.41796875 6.58203125 C1.41796875 5.59203125 1.41796875 4.60203125 1.41796875 3.58203125 C-2.41192231 1.77972957 -5.36324933 1.38580884 -9.58203125 1.58203125 C-9.58203125 0.92203125 -9.58203125 0.26203125 -9.58203125 -0.41796875 C-14.86203125 -0.74796875 -20.14203125 -1.07796875 -25.58203125 -1.41796875 C-25.91203125 -0.42796875 -26.24203125 0.56203125 -26.58203125 1.58203125 C-28.91015625 2.75 -28.91015625 2.75 -31.83203125 3.76953125 C-32.7859375 4.11371094 -33.73984375 4.45789063 -34.72265625 4.8125 C-37.4929796 5.55806516 -39.73139594 5.73288604 -42.58203125 5.58203125 C-42.82953125 4.96328125 -43.07703125 4.34453125 -43.33203125 3.70703125 C-44.59242379 1.12334239 -44.59242379 1.12334239 -48.58203125 -0.41796875 C-55.84203125 -0.74796875 -63.10203125 -1.07796875 -70.58203125 -1.41796875 C-70.25203125 29.60203125 -69.92203125 60.62203125 -69.58203125 92.58203125 C-55.72203125 93.07703125 -55.72203125 93.07703125 -41.58203125 93.58203125 C-41.61683594 86.84732422 -41.61683594 86.84732422 -41.65234375 79.9765625 C-41.66521026 76.39132041 -41.67605425 72.80608486 -41.68553162 69.22083282 C-41.69608254 65.43908538 -41.71017697 61.65742793 -41.73291016 57.87573242 C-41.75467769 54.23177387 -41.76660811 50.58790246 -41.77178574 46.9438839 C-41.77547448 45.55525021 -41.78267771 44.16662116 -41.79349136 42.77802467 C-41.8080574 40.82968441 -41.80884861 38.88125603 -41.80908203 36.93286133 C-41.81352325 35.82477615 -41.81796448 34.71669098 -41.82254028 33.57502747 C-41.57762089 30.52714684 -40.87308619 28.3362991 -39.58203125 25.58203125 C-38.59203125 25.91203125 -37.60203125 26.24203125 -36.58203125 26.58203125 C-37.06811356 27.27604538 -37.55419586 27.97005951 -38.05500793 28.68510437 C-39.82561094 32.04412802 -39.97654219 34.15422326 -40.0144043 37.93286133 C-40.03419846 39.19379105 -40.05399261 40.45472076 -40.0743866 41.75386047 C-40.08115531 43.11975963 -40.0876023 44.48566041 -40.09375 45.8515625 C-40.1106055 47.25690778 -40.12875692 48.66223807 -40.14814758 50.06755066 C-40.19555976 53.75490635 -40.22542551 57.44220122 -40.25158691 61.12976074 C-40.28143707 64.89717534 -40.3277917 68.66438477 -40.37304688 72.43164062 C-40.46053368 79.81512029 -40.52055154 87.19810582 -40.58203125 94.58203125 C-50.81203125 94.58203125 -61.04203125 94.58203125 -71.58203125 94.58203125 C-71.58203125 62.57203125 -71.58203125 30.56203125 -71.58203125 -2.41796875 C-61.68203125 -2.41796875 -51.78203125 -2.41796875 -41.58203125 -2.41796875 C-41.58203125 -0.10796875 -41.58203125 2.20203125 -41.58203125 4.58203125 C-41.00195312 4.17210938 -40.421875 3.7621875 -39.82421875 3.33984375 C-39.04304688 2.80101563 -38.261875 2.2621875 -37.45703125 1.70703125 C-36.69132812 1.17335938 -35.925625 0.6396875 -35.13671875 0.08984375 C-24.59981466 -6.12918527 -10.7949241 -4.79605231 0 0 Z " fill="#37759D" transform="translate(233.58203125,98.41796875)"/>
<path d="M0 0 C2.31 0 4.62 0 7 0 C6.02688873 0.72319427 6.02688873 0.72319427 5.03411865 1.46099854 C2.19021374 5.01078101 2.42729456 8.26575226 2.45410156 12.62402344 C2.44376389 13.49267532 2.43342621 14.36132721 2.42277527 15.25630188 C2.39330474 18.12418119 2.3918472 20.99135605 2.390625 23.859375 C2.37564622 25.84907379 2.35891972 27.83876013 2.34051514 29.82843018 C2.29679551 35.06285162 2.27683226 40.29710532 2.26177979 45.53167725 C2.24222538 50.87408383 2.20025348 56.21630884 2.16015625 61.55859375 C2.0848039 72.03903728 2.03661473 82.51934946 2 93 C14.87 93.495 14.87 93.495 28 94 C27.97381592 91.98608154 27.94763184 89.97216309 27.9206543 87.8972168 C27.83785369 81.24770859 27.78259604 74.59817777 27.74093914 67.94829082 C27.71483049 63.91585235 27.67941092 59.88394144 27.62280273 55.85180664 C27.56852571 51.96142702 27.53858902 48.07155517 27.52561378 44.18082619 C27.51636591 42.69557511 27.49830659 41.21035223 27.47134972 39.725317 C27.43511231 37.64658676 27.43005178 35.56996141 27.43237305 33.4909668 C27.42126999 32.30738083 27.41016693 31.12379486 27.39872742 29.90434265 C28 27 28 27 30.41047668 25.09431458 C33 24 33 24 35 24 C35 23.34 35 22.68 35 22 C37.12472576 21.94613371 39.24983652 21.90726929 41.375 21.875 C43.15003906 21.84019531 43.15003906 21.84019531 44.9609375 21.8046875 C48 22 48 22 50 24 C46.37 23.67 42.74 23.34 39 23 C39 23.66 39 24.32 39 25 C35.91190305 26.76462683 34.76687864 27 31 27 C30.11260752 30.83082167 29.84978714 34.42231693 29.79467773 38.35083008 C29.77473251 39.6117598 29.75478729 40.87268951 29.73423767 42.17182922 C29.71725732 43.53772867 29.70037837 44.90362938 29.68359375 46.26953125 C29.66300526 47.67486659 29.6420083 49.080196 29.62062073 50.48551941 C29.56559565 54.17287373 29.51610067 57.86028212 29.46777344 61.54772949 C29.41741496 65.31507136 29.361804 69.08233534 29.30664062 72.84960938 C29.19929859 80.23300683 29.09780112 87.61646934 29 95 C25.03069011 95.02465881 21.06140966 95.04284023 17.09204102 95.05493164 C15.74079614 95.05997057 14.38955674 95.06680177 13.03833008 95.07543945 C11.09979566 95.08752419 9.161222 95.09269828 7.22265625 95.09765625 C5.47094116 95.10551147 5.47094116 95.10551147 3.68383789 95.11352539 C1 95 1 95 0 94 C-0.09525367 91.07805335 -0.12552736 88.17979671 -0.11352539 85.25756836 C-0.11367142 84.3405867 -0.11381744 83.42360504 -0.1139679 82.47883606 C-0.1132684 79.43248164 -0.10547428 76.38618755 -0.09765625 73.33984375 C-0.0957922 71.23377007 -0.09436824 69.12769597 -0.09336853 67.0216217 C-0.08954231 61.46657117 -0.07971114 55.91154659 -0.06866455 50.35650635 C-0.05845267 44.6927526 -0.05387139 39.02899467 -0.04882812 33.36523438 C-0.03808896 22.24347815 -0.0210113 11.12174123 0 0 Z " fill="#1F77B7" transform="translate(163,97)"/>
<path d="M0 0 C0.99 0 1.98 0 3 0 C1.66412374 2.95570689 0.1731348 5.03894662 -2.0625 7.375 C-21.03183591 28.78944781 -27.32422522 57.36720188 -31 85 C-31.33 85 -31.66 85 -32 85 C-31.88918111 81.47857223 -31.75877927 77.95812436 -31.625 74.4375 C-31.5940625 73.44685547 -31.563125 72.45621094 -31.53125 71.43554688 C-31.26294133 64.70547115 -30.1827666 59.33957628 -27.9375 53 C-26.89955158 49.67856504 -26.41400589 46.45004912 -26 43 C-25.34 43 -24.68 43 -24 43 C-23.896875 42.030625 -23.79375 41.06125 -23.6875 40.0625 C-23.05370121 35.51406161 -21.55244173 31.30582896 -20 27 C-19.34 27 -18.68 27 -18 27 C-17.9175 25.88625 -17.835 24.7725 -17.75 23.625 C-17.37875 21.830625 -17.37875 21.830625 -17 20 C-15.0625 18.875 -15.0625 18.875 -13 18 C-11.71745356 15.46229997 -11.71745356 15.46229997 -11 13 C-10.34 13 -9.68 13 -9 13 C-8.67 10.69 -8.34 8.38 -8 6 C-6.35 6 -4.7 6 -3 6 C-2.67 5.01 -2.34 4.02 -2 3 C-1.34 3 -0.68 3 0 3 C0 2.01 0 1.02 0 0 Z " fill="#327BAE" transform="translate(120,117)"/>
<path d="M0 0 C1.44435765 1.20192409 2.806951 2.50074207 4.15234375 3.8125 C3.82234375 4.4725 3.49234375 5.1325 3.15234375 5.8125 C2.53359375 5.3175 1.91484375 4.8225 1.27734375 4.3125 C-3.04084047 2.23977158 -7.12867174 2.06041184 -11.84765625 2.8125 C-14.55739359 3.84906185 -14.55739359 3.84906185 -16.84765625 5.8125 C-17.57416211 8.72618022 -17.57416211 8.72618022 -17.4152832 12.11987305 C-17.41490555 13.42099533 -17.41452789 14.72211761 -17.41413879 16.06266785 C-17.38860534 17.48319451 -17.36252535 18.90371143 -17.3359375 20.32421875 C-17.32661089 21.77723475 -17.31949406 23.23026649 -17.3144989 24.68330383 C-17.29541643 28.50598637 -17.24630685 32.32771754 -17.190979 36.15002441 C-17.13981227 40.05105722 -17.11699049 43.95224391 -17.09179688 47.85351562 C-17.03818761 55.50694394 -16.95286189 63.15958863 -16.84765625 70.8125 C-18.82765625 71.8025 -18.82765625 71.8025 -20.84765625 72.8125 C-20.83275319 64.32770683 -20.79103492 55.84364074 -20.71556568 47.35919094 C-20.6813498 43.41899011 -20.65619423 39.47917476 -20.65209961 35.53881836 C-20.64780487 31.73238319 -20.61924678 27.92681678 -20.57422447 24.12065315 C-20.56128666 22.67233411 -20.55692862 21.22391091 -20.56150246 19.77554131 C-20.59566221 5.66736026 -20.59566221 5.66736026 -14.84765625 -0.1875 C-10.30100192 -3.13668119 -4.53579298 -2.91518196 0 0 Z " fill="#DAF9FE" transform="translate(212.84765625,123.1875)"/>
<path d="M0 0 C0.33 0 0.66 0 1 0 C1.07366844 4.56744343 1.01971783 8.96046217 0.5078125 13.5 C-0.13887215 19.70886367 -0.18391091 25.88715544 -0.1875 32.125 C-0.19974609 33.25292969 -0.21199219 34.38085938 -0.22460938 35.54296875 C-0.23556617 41.78834284 0.2843117 47.01057549 2 53 C2.57738431 56.09256996 3.03616015 59.20111773 3.5 62.3125 C3.75977612 63.98838067 4.02018965 65.66416265 4.28125 67.33984375 C4.70193849 70.06062462 5.11854818 72.78189495 5.53125 75.50390625 C6.34087157 80.46283835 7.3545868 83.70120355 10 88 C10.61150838 90.52616219 11.07288006 93.05844236 11.52734375 95.6171875 C12.04758998 98.23991644 12.86971131 100.57795282 14 103 C13.01 103.495 13.01 103.495 12 104 C7.6163292 93.82988374 4.39478551 83.80619993 2 73 C1.71125 71.73285156 1.4225 70.46570313 1.125 69.16015625 C-0.87009883 60.17261968 -2.15430725 51.5599456 -2.16796875 42.36328125 C-2.17129715 41.56198288 -2.17462555 40.76068451 -2.17805481 39.93510437 C-2.1830866 38.24849007 -2.1854643 36.56186594 -2.18530273 34.87524414 C-2.18747936 32.33657813 -2.20564814 29.79835449 -2.22460938 27.25976562 C-2.25565822 17.95910104 -1.8217896 9.15229935 0 0 Z " fill="#CDF1F9" transform="translate(90,189)"/>
<path d="M0 0 C2.35546875 0.1953125 2.35546875 0.1953125 5 1 C6.36328125 3.1796875 6.36328125 3.1796875 7.3125 5.875 C7.80169922 7.20144531 7.80169922 7.20144531 8.30078125 8.5546875 C9 11 9 11 9 14 C9.66 14 10.32 14 11 14 C13.31426675 17.65515613 13.21645585 20.70546338 13.15112305 24.96826172 C13.14326782 25.66146515 13.1354126 26.35466858 13.12731934 27.06887817 C13.09878862 29.3560773 13.05550644 31.64273357 13.01171875 33.9296875 C12.9880695 35.52384339 12.96519781 37.11801099 12.94306946 38.71218872 C12.89456269 42.05289044 12.83921564 45.39338379 12.77856445 48.73388672 C12.70117177 53.00632848 12.63671695 57.27883721 12.57690716 61.55155754 C12.53006016 64.84423105 12.47832877 68.1368128 12.42493629 71.42938614 C12.39959879 73.00416572 12.37529384 74.57896229 12.3520565 76.15377426 C12.31836054 78.36027497 12.27858478 80.56658365 12.23706055 82.77294922 C12.21548386 84.026633 12.19390717 85.28031677 12.17167664 86.57199097 C12.0104421 89.7914939 11.60234398 92.83633492 11 96 C10.67 96 10.34 96 10 96 C9.99635437 95.04723679 9.99270874 94.09447357 9.98895264 93.11283875 C9.95186932 84.09506848 9.89395226 75.0776355 9.81609726 66.06012249 C9.77673655 61.42507789 9.74449249 56.79022002 9.72900391 52.1550293 C9.7137617 47.67438703 9.67918369 43.19425855 9.63169098 38.71384621 C9.61695468 37.01204733 9.60896348 35.31017507 9.60811615 33.60831261 C9.59521725 20.68103072 8.34584403 10.43230504 0 0 Z " fill="#D4F3FE" transform="translate(295,104)"/>
<path d="M0 0 C5.48125741 -0.34257859 10.13420243 0.2818648 15 3 C17.39010685 6.58516028 17.24326602 8.14266967 17.22705078 12.39916992 C17.22734283 13.04334366 17.22763489 13.6875174 17.22793579 14.35121155 C17.22654384 16.47776823 17.21098938 18.60397337 17.1953125 20.73046875 C17.19158188 22.20591541 17.18873514 23.68136455 17.18673706 25.15681458 C17.17910442 29.03830822 17.15945917 32.91965196 17.1373291 36.80108643 C17.11326369 41.45917411 17.10408792 46.11731195 17.09242249 50.77544403 C17.07303446 57.85040025 17.03470959 64.92502761 17 72 C26.57 72 36.14 72 46 72 C46 51.54 46 31.08 46 10 C46.33 10 46.66 10 47 10 C47 30.79 47 51.58 47 73 C36.77 73 26.54 73 16 73 C15.96261719 68.51019531 15.92523438 64.02039063 15.88671875 59.39453125 C15.8485989 55.80924863 15.80752618 52.22402684 15.7644577 48.63880157 C15.71983847 44.85712206 15.68039481 41.07555229 15.65356445 37.29370117 C15.62750982 33.64952822 15.58709291 30.00576905 15.53681374 26.36185265 C15.52015947 24.97328536 15.5086362 23.58464652 15.50238609 22.19599342 C15.49273028 20.2474898 15.46295739 18.29911758 15.43237305 16.35083008 C15.42126999 15.2427449 15.41016693 14.13465973 15.39872742 12.99299622 C14.9470901 9.60283863 14.03127451 7.73055495 12 5 C7.881354 2.34576147 4.86841035 1.6522564 0 2 C0 1.34 0 0.68 0 0 Z " fill="#38789D" transform="translate(202,120)"/>
<path d="M0 0 C10.89 0 21.78 0 33 0 C33.495 0.495 33.495 0.495 34 1 C36.02408755 0.90997602 38.04544287 0.75358962 40.0625 0.5625 C41.16722656 0.46066406 42.27195313 0.35882813 43.41015625 0.25390625 C44.26480469 0.17011719 45.11945313 0.08632812 46 0 C43.68686216 1.54209189 41.53951971 2.78288475 39.0625 4 C38.05896484 4.495 38.05896484 4.495 37.03515625 5 C36.02775391 5.495 36.02775391 5.495 35 6 C33.66620467 6.66574186 32.3327365 7.33214099 31 8 C31 5.69 31 3.38 31 1 C21.1 1 11.2 1 1 1 C1 33.01 1 65.02 1 98 C0.67 98 0.34 98 0 98 C0 65.66 0 33.32 0 0 Z " fill="#D5FDFE" transform="translate(161,95)"/>
<path d="M0 0 C1.26706235 3.80118706 0.57172296 5.3850372 -1 9 C-1.99 9.33 -2.98 9.66 -4 10 C-4.95001288 12.06758629 -4.95001288 12.06758629 -5.5625 14.5 C-6.25390625 16.96875 -6.25390625 16.96875 -7 19 C-7.66 19.33 -8.32 19.66 -9 20 C-9.33 20.99 -9.66 21.98 -10 23 C-10.66 23.33 -11.32 23.66 -12 24 C-12.80978274 26.5355308 -12.80978274 26.5355308 -13.4375 29.5625 C-14.63081824 34.58762907 -15.86692071 39.28944989 -18 44 C-19.485 44.495 -19.485 44.495 -21 45 C-21.12375 46.175625 -21.2475 47.35125 -21.375 48.5625 C-21.71671091 51.34500316 -22.20977393 53.72109788 -23 56.4375 C-24.0206041 60.07340209 -24.40190235 63.42805972 -24.65625 67.1796875 C-24.7696875 67.78039062 -24.883125 68.38109375 -25 69 C-25.99 69.495 -25.99 69.495 -27 70 C-26.895716 44.81541428 -14.08515164 20.16737621 0 0 Z " fill="#3280B1" transform="translate(59,125)"/>
<path d="M0 0 C2.79600711 1.8293746 4.47361754 3.88532037 6.41796875 6.58203125 C4.76796875 6.58203125 3.11796875 6.58203125 1.41796875 6.58203125 C1.41796875 5.59203125 1.41796875 4.60203125 1.41796875 3.58203125 C-2.41192231 1.77972957 -5.36324933 1.38580884 -9.58203125 1.58203125 C-9.58203125 0.92203125 -9.58203125 0.26203125 -9.58203125 -0.41796875 C-14.86203125 -0.74796875 -20.14203125 -1.07796875 -25.58203125 -1.41796875 C-25.91203125 -0.42796875 -26.24203125 0.56203125 -26.58203125 1.58203125 C-28.91015625 2.75 -28.91015625 2.75 -31.83203125 3.76953125 C-32.7859375 4.11371094 -33.73984375 4.45789063 -34.72265625 4.8125 C-37.4929796 5.55806516 -39.73139594 5.73288604 -42.58203125 5.58203125 C-42.82953125 4.96328125 -43.07703125 4.34453125 -43.33203125 3.70703125 C-44.84557017 1.13401508 -45.84341551 0.68386323 -48.58203125 -0.41796875 C-50.8959579 -0.77894619 -50.8959579 -0.77894619 -53.34765625 -0.83203125 C-54.68183594 -0.89003906 -54.68183594 -0.89003906 -56.04296875 -0.94921875 C-56.96335938 -0.98015625 -57.88375 -1.01109375 -58.83203125 -1.04296875 C-60.23582031 -1.10097656 -60.23582031 -1.10097656 -61.66796875 -1.16015625 C-63.97246179 -1.25421719 -66.27695138 -1.33986274 -68.58203125 -1.41796875 C-68.58203125 -1.74796875 -68.58203125 -2.07796875 -68.58203125 -2.41796875 C-59.67203125 -2.41796875 -50.76203125 -2.41796875 -41.58203125 -2.41796875 C-41.58203125 -0.10796875 -41.58203125 2.20203125 -41.58203125 4.58203125 C-41.00195312 4.17210938 -40.421875 3.7621875 -39.82421875 3.33984375 C-39.04304688 2.80101563 -38.261875 2.2621875 -37.45703125 1.70703125 C-36.69132812 1.17335938 -35.925625 0.6396875 -35.13671875 0.08984375 C-24.59981466 -6.12918527 -10.7949241 -4.79605231 0 0 Z " fill="#337CB0" transform="translate(233.58203125,98.41796875)"/>
<path d="M0 0 C0.66 0 1.32 0 2 0 C2.10877763 1.89454372 2.18594173 3.79091754 2.25 5.6875 C2.29640625 6.74324219 2.3428125 7.79898438 2.390625 8.88671875 C2 12 2 12 -0.0078125 14.484375 C-2.57975606 17.73208412 -2.36105343 19.48821771 -2.125 23.5625 C-1.80199137 29.63646666 -1.80199137 29.63646666 -3.01196289 31.85791016 C-4.26525313 34.5750756 -4.10327064 36.35981536 -3.86328125 39.33203125 C-3.78190918 40.37133789 -3.70053711 41.41064453 -3.61669922 42.48144531 C-3.51631348 43.58069336 -3.41592773 44.67994141 -3.3125 45.8125 C-3.21727051 46.93366211 -3.12204102 48.05482422 -3.02392578 49.20996094 C-2.34549486 56.64590684 -1.29244041 63.84406558 0.4140625 71.109375 C0.9662113 73.8333091 1.11279971 76.23127978 1 79 C-3.84669612 70.42345513 -4.53134046 59.64284545 -4 50 C-4.66 50 -5.32 50 -6 50 C-6.02886751 45.85418113 -6.04675327 41.70838784 -6.0625 37.5625 C-6.07087891 36.37849609 -6.07925781 35.19449219 -6.08789062 33.97460938 C-6.09111328 32.84990234 -6.09433594 31.72519531 -6.09765625 30.56640625 C-6.10289307 29.52427979 -6.10812988 28.48215332 -6.11352539 27.40844727 C-6 25 -6 25 -5 24 C-4.896875 22.80375 -4.79375 21.6075 -4.6875 20.375 C-4.00902592 13.39802491 -1.90413589 6.72204253 0 0 Z " fill="#2577B3" transform="translate(38,170)"/>
<path d="M0 0 C2.50065488 -0.00221384 5.00088575 -0.02054377 7.50146484 -0.03930664 C15.63973039 -0.06680282 23.16955305 0.14033606 31.10693359 2.18530273 C31.10693359 2.84530273 31.10693359 3.50530273 31.10693359 4.18530273 C30.00103882 4.08028442 30.00103882 4.08028442 28.87280273 3.97314453 C18.14296423 3.07348945 7.44618773 2.99915785 -3.31567383 3 C-6.4529358 2.99780458 -9.58985022 2.97955821 -12.72705078 2.96069336 C-22.05771765 2.9354656 -31.10528104 2.9294906 -40.28735352 4.75439453 C-43.19283107 5.23487498 -45.95334016 5.25351797 -48.89306641 5.18530273 C-48.89306641 4.85530273 -48.89306641 4.52530273 -48.89306641 4.18530273 C-46.56196726 3.69242406 -44.22909597 3.21631613 -41.89306641 2.74780273 C-41.26400391 2.6130957 -40.63494141 2.47838867 -39.98681641 2.33959961 C-26.91268044 -0.23751373 -13.27733583 -0.00131381 0 0 Z " fill="#C4EBF5" transform="translate(256.89306640625,33.814697265625)"/>
<path d="M0 0 C3 2.0625 3 2.0625 5 4 C4.67 4.66 4.34 5.32 4 6 C3.195625 5.67 2.39125 5.34 1.5625 5 C-1.29651489 4.1974695 -3.63355577 3.695916 -6.5625 3.5 C-7.28566406 3.4484375 -8.00882812 3.396875 -8.75390625 3.34375 C-11.57092013 4.16680797 -13.10273616 5.55202168 -14.91914368 7.82830811 C-17.36375685 12.7401049 -16.7232169 18.56554341 -16.70703125 23.9296875 C-16.72015857 25.28876958 -16.73546598 26.6478322 -16.75285339 28.00686646 C-16.79259707 31.56777297 -16.80288678 35.1281679 -16.80688477 38.68927002 C-16.81623657 42.32946182 -16.85366269 45.96935554 -16.88867188 49.609375 C-16.95313852 56.73953937 -16.986468 63.86954217 -17 71 C-17.33 71 -17.66 71 -18 71 C-18.11613847 62.90680755 -18.20483761 54.81396649 -18.25906086 46.72014523 C-18.28509297 42.96132289 -18.32037141 39.203073 -18.37719727 35.44458008 C-18.43174916 31.81353234 -18.46146852 28.18303321 -18.47438622 24.55160713 C-18.48358496 23.17013481 -18.50154837 21.78869062 -18.52865028 20.40745354 C-18.7577649 8.24062998 -18.7577649 8.24062998 -15.61401367 3.68969727 C-10.84315353 -1.21929369 -6.46073964 -1.86267292 0 0 Z " fill="#CDF9FD" transform="translate(267,122)"/>
<path d="M0 0 C0.33 0 0.66 0 1 0 C1.01458252 0.99628418 1.02916504 1.99256836 1.04418945 3.01904297 C1.21686657 28.68869928 1.21686657 28.68869928 5 54 C5.28488281 55.2684375 5.56976563 56.536875 5.86328125 57.84375 C6.37287027 60.06565475 6.89833076 62.2840666 7.44921875 64.49609375 C8 67 8 67 8 70 C7.34 70 6.68 70 6 70 C5.67 71.32 5.34 72.64 5 74 C4.95101562 73.18015625 4.90203125 72.3603125 4.8515625 71.515625 C4.77679688 70.43796875 4.70203125 69.3603125 4.625 68.25 C4.55539063 67.18265625 4.48578125 66.1153125 4.4140625 65.015625 C4.01663198 62.12113106 3.28550402 60.55582492 2 58 C1.65625 55.29296875 1.65625 55.29296875 1.5 52.1875 C1.21495755 47.4920735 0.69678818 42.95318438 -0.0625 38.3125 C-1.09535059 30.97463613 -1.18699182 23.71724427 -1.1875 16.3125 C-1.1882251 15.16499268 -1.1889502 14.01748535 -1.18969727 12.83520508 C-1.13003077 3.81617873 -1.13003077 3.81617873 0 0 Z " fill="#3983B0" transform="translate(87,204)"/>
<path d="M0 0 C0.66 0.33 1.32 0.66 2 1 C-1.625 5.875 -1.625 5.875 -5 7 C-5.309375 7.61875 -5.61875 8.2375 -5.9375 8.875 C-7.20298687 11.40597375 -8.67272837 12.44848558 -11 14 C-11.33 13.34 -11.66 12.68 -12 12 C-12.99 11.67 -13.98 11.34 -15 11 C-15 11.66 -15 12.32 -15 13 C-16.375 14.625 -16.375 14.625 -18 16 C-18.66 16 -19.32 16 -20 16 C-20 16.66 -20 17.32 -20 18 C-20.99 18.33 -21.98 18.66 -23 19 C-23.825 20.010625 -24.65 21.02125 -25.5 22.0625 C-26.325 23.031875 -27.15 24.00125 -28 25 C-28.99 25 -29.98 25 -31 25 C-31 25.66 -31 26.32 -31 27 C-32.98 27.33 -34.96 27.66 -37 28 C-33.50794062 24.40523299 -29.95966325 21.07973809 -26 18 C-25.34 18 -24.68 18 -24 18 C-23.67 17.01 -23.34 16.02 -23 15 C-19.88577568 12.37154144 -16.40989124 10.22517262 -13 8 C-12.43474609 7.63052246 -11.86949219 7.26104492 -11.28710938 6.88037109 C-9.53226457 5.74126979 -7.76848721 4.61778474 -6 3.5 C-4.906875 2.8090625 -3.81375 2.118125 -2.6875 1.40625 C-1.800625 0.9421875 -0.91375 0.478125 0 0 Z " fill="#D4F2FA" transform="translate(175,76)"/>
<path d="M0 0 C0.33 0 0.66 0 1 0 C1.33 18.81 1.66 37.62 2 57 C11.57 57.33 21.14 57.66 31 58 C31 58.66 31 59.32 31 60 C20.77 60 10.54 60 0 60 C0 40.2 0 20.4 0 0 Z " fill="#41799E" transform="translate(274,134)"/>
<path d="M0 0 C0 0.33 0 0.66 0 1 C-24.54160505 4.41174889 -24.54160505 4.41174889 -35.48828125 4.0078125 C-38.1299042 3.86598083 -38.1299042 3.86598083 -41 5 C-43.22574335 5.22451458 -45.45581519 5.40782878 -47.6875 5.5625 C-48.86699219 5.64628906 -50.04648438 5.73007812 -51.26171875 5.81640625 C-52.16535156 5.87699219 -53.06898438 5.93757813 -54 6 C-54.33 5.34 -54.66 4.68 -55 4 C-43.65025599 1.66466173 -32.29879405 0.50347904 -20.75 -0.25 C-19.72409256 -0.32018341 -19.72409256 -0.32018341 -18.67745972 -0.39178467 C-16.69699137 -0.52500069 -14.71568052 -0.64550084 -12.734375 -0.765625 C-11.58163086 -0.83555664 -10.42888672 -0.90548828 -9.24121094 -0.97753906 C-6.03168402 -0.99978044 -3.1419084 -0.62695408 0 0 Z " fill="#CCEAF1" transform="translate(306,41)"/>
<path d="M0 0 C0 0.66 0 1.32 0 2 C-1.65 2.33 -3.3 2.66 -5 3 C-5.33 3.99 -5.66 4.98 -6 6 C-8.1796875 6.7734375 -8.1796875 6.7734375 -10.875 7.375 C-15.02961712 8.36279061 -15.02961712 8.36279061 -17.6875 11.5625 C-18.3371875 12.7690625 -18.3371875 12.7690625 -19 14 C-21.30657014 14.75407101 -23.645752 15.411438 -26 16 C-27.70111534 17.00806835 -29.40211421 18.01655264 -31.08984375 19.046875 C-34.52233835 20.75961259 -38.24333245 21.35259244 -42 22 C-39.20828127 18.71013072 -35.5330069 16.86563739 -31.8125 14.8125 C-31.11213623 14.42247803 -30.41177246 14.03245605 -29.69018555 13.63061523 C-4.9920944 0 -4.9920944 0 0 0 Z " fill="#3980B2" transform="translate(155,55)"/>
<path d="M0 0 C1.32389892 3.96910214 1.08992019 7.9706695 1.02734375 12.09765625 C1.01468369 13.72070089 1.00232377 15.34374789 0.99023438 16.96679688 C0.96558017 19.50520343 0.93775247 22.04348396 0.90405273 24.58178711 C0.71155595 37.30678691 0.71155595 37.30678691 2.56469727 49.86889648 C3 52 3 52 3 56 C2.01 56 1.02 56 0 56 C-1.57427799 45.71369818 -2.31491315 35.40828976 -2.72781372 25.01809692 C-2.78389355 23.64031144 -2.8455651 22.26274123 -2.91305542 20.88546753 C-3.28042728 13.19831891 -3.44177922 6.98138679 0 0 Z " fill="#CDEFF7" transform="translate(32,185)"/>
<path d="M0 0 C5.42602205 -0.02482169 10.85201062 -0.0429175 16.27807617 -0.05493164 C18.12183203 -0.05994316 19.96558396 -0.06675415 21.80932617 -0.07543945 C24.46794612 -0.08764484 27.12651327 -0.09326025 29.78515625 -0.09765625 C31.01057884 -0.10539818 31.01057884 -0.10539818 32.26075745 -0.11329651 C36.9485648 -0.11375029 41.37608487 0.21898803 46 1 C45.67 1.99 45.34 2.98 45 4 C37.74 4.33 30.48 4.66 23 5 C23 4.34 23 3.68 23 3 C24.32 2.67 25.64 2.34 27 2 C18.09 1.67 9.18 1.34 0 1 C0 0.67 0 0.34 0 0 Z " fill="#1B79C1" transform="translate(233,37)"/>
<path d="M0 0 C0.33 0.66 0.66 1.32 1 2 C-0.75637275 4.12613543 -1.59808967 4.93654047 -4.375 5.375 C-7.22113351 5.79981093 -7.22113351 5.79981093 -9.25 8.375 C-13.641366 12.56675845 -18.56857597 13.87203031 -24.5625 14.1875 C-25.366875 14.125625 -26.17125 14.06375 -27 14 C-24.6733705 11.39058098 -22.37181605 10.03561841 -19.21875 8.5546875 C-18.29449219 8.11769531 -17.37023437 7.68070312 -16.41796875 7.23046875 C-15.45503906 6.78316406 -14.49210938 6.33585937 -13.5 5.875 C-12.05560547 5.19244141 -12.05560547 5.19244141 -10.58203125 4.49609375 C-3.49433992 1.16477997 -3.49433992 1.16477997 0 0 Z " fill="#F2FEFC" transform="translate(211,58)"/>
<path d="M0 0 C1.32 0.33 2.64 0.66 4 1 C3.814375 1.78375 3.62875 2.5675 3.4375 3.375 C2.74037734 5.97089775 2.74037734 5.97089775 4 8 C4.0396713 9.66619446 4.04384447 11.33391013 4 13 C3.01 12.67 2.02 12.34 1 12 C0.01413083 18.82652263 -0.31116525 25.61095558 -0.5625 32.5 C-0.60568359 33.60859375 -0.64886719 34.7171875 -0.69335938 35.859375 C-0.79862214 38.57281506 -0.90075846 41.28633417 -1 44 C-1.33 44 -1.66 44 -2 44 C-2.0250466 39.92896481 -2.04302089 35.85796054 -2.05493164 31.78686523 C-2.05990624 30.40697446 -2.06668832 29.02708879 -2.07543945 27.6472168 C-2.20530938 6.61592814 -2.20530938 6.61592814 0 0 Z " fill="#788186" transform="translate(219,244)"/>
<path d="M0 0 C0.625 1.8125 0.625 1.8125 1 4 C0.01 5.485 0.01 5.485 -1 7 C-2.11801603 10.94593893 -2.95299076 14.54557738 -3.375 18.625 C-4.11111525 22.60002236 -5.43028784 24.90122946 -8 28 C-8.99 28 -9.98 28 -11 28 C-9.66828994 22.12050007 -7.84106417 16.73650775 -5.5 11.1875 C-5.19191406 10.43791016 -4.88382812 9.68832031 -4.56640625 8.91601562 C-3.22189148 5.68744905 -1.95277771 2.92916657 0 0 Z " fill="#E9FCFB" transform="translate(107,138)"/>
<path d="M0 0 C0.99 0.33 1.98 0.66 3 1 C2.5875 1.58523437 2.175 2.17046875 1.75 2.7734375 C-4.50143261 12.06686187 -9.45481327 22.36443981 -13 33 C-13.66 33 -14.32 33 -15 33 C-14.85892253 31.54119891 -14.71197585 30.08296449 -14.5625 28.625 C-14.48128906 27.81289062 -14.40007813 27.00078125 -14.31640625 26.1640625 C-14 24 -14 24 -13 22 C-12.34 22 -11.68 22 -11 22 C-10.5978125 20.4221875 -10.5978125 20.4221875 -10.1875 18.8125 C-9.12305588 15.39507415 -7.86739831 13.00407554 -6 10 C-5.835 9.29875 -5.67 8.5975 -5.5 7.875 C-4.87035602 5.51383507 -3.77781908 4.63559356 -2 3 C-1.34 2.01 -0.68 1.02 0 0 Z " fill="#D9F6FC" transform="translate(52,132)"/>
<path d="M0 0 C2.31559651 1.47710683 4.01667741 3.06626048 6 5 C5.67 5.66 5.34 6.32 5 7 C4.38125 6.505 3.7625 6.01 3.125 5.5 C-1.29030756 3.38065237 -5.1812153 3.28915443 -10 4 C-12.65196771 5.08617826 -14.62713135 6.34930876 -17 8 C-15.73090537 4.08695821 -14.53743024 2.14389712 -11 0 C-7.14163997 -1.28612001 -3.86324025 -1.09858621 0 0 Z " fill="#CDEFF9" transform="translate(211,122)"/>
<path d="M0 0 C4.53897705 -0.02465392 9.07791543 -0.04283789 13.61694336 -0.05493164 C15.16219766 -0.0599714 16.70744716 -0.0668032 18.25268555 -0.07543945 C20.46925029 -0.08752076 22.68575218 -0.09323173 24.90234375 -0.09765625 C25.5971434 -0.10281754 26.29194305 -0.10797882 27.00779724 -0.11329651 C28.6722933 -0.11349277 30.33665499 -0.06189129 32 0 C32.495 0.495 32.495 0.495 33 1 C35.02408755 0.90997602 37.04544287 0.75358962 39.0625 0.5625 C40.16722656 0.46066406 41.27195313 0.35882813 42.41015625 0.25390625 C43.26480469 0.17011719 44.11945313 0.08632812 45 0 C42.68686216 1.54209189 40.53951971 2.78288475 38.0625 4 C37.05896484 4.495 37.05896484 4.495 36.03515625 5 C35.02775391 5.495 35.02775391 5.495 34 6 C32.66620467 6.66574186 31.3327365 7.33214099 30 8 C30 5.69 30 3.38 30 1 C20.1 1 10.2 1 0 1 C0 0.67 0 0.34 0 0 Z " fill="#BCE5F4" transform="translate(162,95)"/>
<path d="M0 0 C-0.33 0.66 -0.66 1.32 -1 2 C-3.06274414 2.57836914 -3.06274414 2.57836914 -5.78515625 3.03515625 C-6.78417969 3.2043457 -7.78320312 3.37353516 -8.8125 3.54785156 C-9.885 3.71768555 -10.9575 3.88751953 -12.0625 4.0625 C-13.14402344 4.2387793 -14.22554687 4.41505859 -15.33984375 4.59667969 C-23.89251328 5.94001763 -32.34712961 6.74550381 -41 7 C-37.27017962 4.75241993 -33.29166185 4.18922107 -29.0625 3.5 C-28.31049316 3.37326904 -27.55848633 3.24653809 -26.78369141 3.1159668 C-25.25265524 2.85971217 -23.72107593 2.60668109 -22.18896484 2.35693359 C-20.2041539 2.03328943 -18.22110266 1.698899 -16.23828125 1.36328125 C-10.76253545 0.46655633 -5.55014507 -0.25814628 0 0 Z " fill="#4183B0" transform="translate(234,36)"/>
<path d="M0 0 C0.66 0 1.32 0 2 0 C2.10877763 1.89454372 2.18594173 3.79091754 2.25 5.6875 C2.29640625 6.74324219 2.3428125 7.79898438 2.390625 8.88671875 C2 12 2 12 -0.01171875 14.484375 C-2.58591562 17.74131564 -2.33187108 19.48412729 -2.0625 23.5625 C-1.68530894 29.49468668 -1.68530894 29.49468668 -3.49609375 32.40234375 C-3.99238281 32.92957031 -4.48867188 33.45679688 -5 34 C-5.22691515 21.92307168 -3.27435163 11.55922274 0 0 Z " fill="#1D78BC" transform="translate(38,170)"/>
<path d="M0 0 C1.53166168 4.08443115 0.63081652 7.79455657 0 12 C-0.99 12.33 -1.98 12.66 -3 13 C-3.185625 14.7634375 -3.185625 14.7634375 -3.375 16.5625 C-3.71671091 19.34500316 -4.20977393 21.72109788 -5 24.4375 C-6.0206041 28.07340209 -6.40190235 31.42805972 -6.65625 35.1796875 C-6.7696875 35.78039062 -6.883125 36.38109375 -7 37 C-7.99 37.495 -7.99 37.495 -9 38 C-8.94683552 25.16077876 -5.07398994 11.74126174 0 0 Z " fill="#4083B1" transform="translate(41,157)"/>
<path d="M0 0 C-4.1549557 3.50191747 -8.57444763 6.34452383 -13.1875 9.1875 C-13.91130859 9.63802734 -14.63511719 10.08855469 -15.38085938 10.55273438 C-20.67446911 13.83723456 -20.67446911 13.83723456 -23 15 C-23.33 14.01 -23.66 13.02 -24 12 C-23.01 12 -22.02 12 -21 12 C-21.33 10.35 -21.66 8.7 -22 7 C-21.01 7 -20.02 7 -19 7 C-17.2984375 6.2575 -17.2984375 6.2575 -15.5625 5.5 C-12 4 -12 4 -8 4 C-8 3.34 -8 2.68 -8 2 C-3.61016949 -1.20338983 -3.61016949 -1.20338983 0 0 Z " fill="#F1FCFB" transform="translate(126,68)"/>
<path d="M0 0 C-0.93682617 0.33994995 -0.93682617 0.33994995 -1.89257812 0.68676758 C-4.7618772 1.72824244 -7.63093995 2.77036686 -10.5 3.8125 C-11.48226562 4.16892578 -12.46453125 4.52535156 -13.4765625 4.89257812 C-18.99617911 6.89803883 -24.50556952 8.92650659 -30 11 C-29.67 10.01 -29.34 9.02 -29 8 C-28.34 8 -27.68 8 -27 8 C-27 7.34 -27 6.68 -27 6 C-26.360625 5.896875 -25.72125 5.79375 -25.0625 5.6875 C-24.381875 5.460625 -23.70125 5.23375 -23 5 C-22.67 4.01 -22.34 3.02 -22 2 C-20.0509375 1.814375 -20.0509375 1.814375 -18.0625 1.625 C-13.9447918 1.18335306 -10.04199005 0.3681795 -6.04296875 -0.6953125 C-3.73410543 -1.0396554 -2.22762955 -0.61754341 0 0 Z " fill="#DBF5F9" transform="translate(175,48)"/>
<path d="M0 0 C0 3 0 3 -1.875 5.1875 C-4 7 -4 7 -6 7 C-6 7.721875 -6 8.44375 -6 9.1875 C-7.36981797 13.04011304 -9.59307903 13.89789029 -13.08984375 15.7890625 C-15.29844255 17.00811388 -15.29844255 17.00811388 -17 20 C-17.66 20 -18.32 20 -19 20 C-19.33 20.99 -19.66 21.98 -20 23 C-20.99 22.67 -21.98 22.34 -23 22 C-18.71321155 16.74868415 -14.15397802 12.38320293 -9 8 C-7.32990458 6.52470576 -5.66321084 5.04555142 -4 3.5625 C-3.236875 2.88316406 -2.47375 2.20382813 -1.6875 1.50390625 C-1.130625 1.00761719 -0.57375 0.51132813 0 0 Z " fill="#3A7EA8" transform="translate(94,89)"/>
<path d="M0 0 C1.16402344 0.39832031 1.16402344 0.39832031 2.3515625 0.8046875 C10.57592691 3.49379949 18.41375924 5.02165772 27 6 C27 6.33 27 6.66 27 7 C16.11 7.495 16.11 7.495 5 8 C5 6.68 5 5.36 5 4 C3.02 3.34 1.04 2.68 -1 2 C-0.67 1.34 -0.34 0.68 0 0 Z " fill="#DDF6FA" transform="translate(91,317)"/>
<path d="M0 0 C2.13953787 3.2093068 2.2756444 5.27956625 2.65625 9.03125 C2.90710913 11.17083898 2.90710913 11.17083898 4.4375 13.375 C6.41999227 16.70558701 6.85510036 19.83228776 7.52734375 23.6171875 C8.04758998 26.23991644 8.86971131 28.57795282 10 31 C9.34 31.33 8.68 31.66 8 32 C3.44165791 21.50721254 -0.21016603 11.64319794 0 0 Z " fill="#D9F5FB" transform="translate(94,261)"/>
<path d="M0 0 C0.33 0.66 0.66 1.32 1 2 C0.0625 4.125 0.0625 4.125 -1 6 C-1.66 6 -2.32 6 -3 6 C-3.33 8.31 -3.66 10.62 -4 13 C-4.804375 13.268125 -5.60875 13.53625 -6.4375 13.8125 C-7.283125 14.204375 -8.12875 14.59625 -9 15 C-9.33 15.99 -9.66 16.98 -10 18 C-10.66 17.67 -11.32 17.34 -12 17 C-10.55540661 12.67411378 -8.36311665 9.72505028 -5.4375 6.25 C-4.63183594 5.28578125 -3.82617188 4.3215625 -2.99609375 3.328125 C-1 1 -1 1 0 0 Z " fill="#DAF5FA" transform="translate(120,121)"/>
<path d="M0 0 C-1.375 1.5 -1.375 1.5 -3 3 C-3.66 3 -4.32 3 -5 3 C-5.25007813 3.5775 -5.50015625 4.155 -5.7578125 4.75 C-7.16681752 7.30216005 -8.78111763 8.97723062 -10.875 11 C-11.55304688 11.66 -12.23109375 12.32 -12.9296875 13 C-13.61289063 13.66 -14.29609375 14.32 -15 15 C-16.33564213 16.33102053 -17.66965284 17.66368716 -19 19 C-18.40312566 15.65750371 -17.26396123 13.53563658 -15 11 C-14.34 11 -13.68 11 -13 11 C-13 9.68 -13 8.36 -13 7 C-12.01 7 -11.02 7 -10 7 C-10 6.34 -10 5.68 -10 5 C-9.34 5 -8.68 5 -8 5 C-7.731875 4.195625 -7.46375 3.39125 -7.1875 2.5625 C-6.795625 1.716875 -6.40375 0.87125 -6 0 C-3 -1 -3 -1 0 0 Z " fill="#C9EDF9" transform="translate(82,101)"/>
<path d="M0 0 C0 0.66 0 1.32 0 2 C0.78375 2.144375 1.5675 2.28875 2.375 2.4375 C5 3 5 3 7 4 C6.67 4.99 6.34 5.98 6 7 C5.505 6.525625 5.01 6.05125 4.5 5.5625 C1.13231372 3.45769607 -2.08665426 2.87935736 -6 3 C-10.86910439 4.6536581 -12.59901979 6.55818662 -15 11 C-15.66 11 -16.32 11 -17 11 C-16.47024683 7.18577716 -15.89666482 4.62510249 -13 2 C-8.64970238 0.53889435 -4.58327916 0 0 0 Z " fill="#2D7CAE" transform="translate(265,119)"/>
<path d="M0 0 C-9.21153285 4.58250498 -18.7778529 7.01710124 -29 8 C-25.71943501 5.81295668 -22.46124018 4.69834565 -18.75 3.5 C-18.10675781 3.28730469 -17.46351563 3.07460938 -16.80078125 2.85546875 C-14.87146534 2.22271524 -12.93640346 1.6106664 -11 1 C-9.76765625 0.5978125 -8.5353125 0.195625 -7.265625 -0.21875 C-4.22344548 -0.94654414 -2.84583416 -1.13833366 0 0 Z " fill="#CBEFF9" transform="translate(250,47)"/>
<path d="M0 0 C0.66 0.33 1.32 0.66 2 1 C0.02 1.99 0.02 1.99 -2 3 C-2 3.99 -2 4.98 -2 6 C-3.32 6.33 -4.64 6.66 -6 7 C-6 7.66 -6 8.32 -6 9 C-8.47346304 11.47346304 -9.70761168 11.98313144 -13.25 12.1875 C-14.1575 12.125625 -15.065 12.06375 -16 12 C-13.04983186 8.82559105 -9.99784714 6.58078442 -6.3125 4.3125 C-2.97781689 2.39067278 -2.97781689 2.39067278 0 0 Z " fill="#3882B0" transform="translate(111,77)"/>
<path d="M0 0 C8.91 0 17.82 0 27 0 C27 2.64 27 5.28 27 8 C26.21625 7.195625 25.4325 6.39125 24.625 5.5625 C21.32323205 2.33934557 19.88483046 1.8809735 15.4296875 1.68359375 C14.53378906 1.64169922 13.63789063 1.59980469 12.71484375 1.55664062 C11.77769531 1.51732422 10.84054688 1.47800781 9.875 1.4375 C8.93011719 1.39431641 7.98523438 1.35113281 7.01171875 1.30664062 C4.67462908 1.20040928 2.3374317 1.09836824 0 1 C0 0.67 0 0.34 0 0 Z " fill="#2E74A5" transform="translate(165,96)"/>
<path d="M0 0 C-15.95744681 8.14893617 -15.95744681 8.14893617 -25 8 C-20.91249628 5.27499752 -16.555832 3.92745982 -11.9375 2.3125 C-11.01388672 1.97927734 -10.09027344 1.64605469 -9.13867188 1.30273438 C-8.25630859 0.99271484 -7.37394531 0.68269531 -6.46484375 0.36328125 C-5.25235962 -0.06537231 -5.25235962 -0.06537231 -4.01538086 -0.50268555 C-2 -1 -2 -1 0 0 Z " fill="#3F80B0" transform="translate(180,47)"/>
<path d="M0 0 C-0.66 1.65 -1.32 3.3 -2 5 C-2.99 5 -3.98 5 -5 5 C-8.20405699 6.71539544 -8.20405699 6.71539544 -11 9 C-12.99958364 9.04080783 -15.00045254 9.04254356 -17 9 C-14.41994017 6.00641141 -11.45675187 4.54433112 -7.9375 2.8125 C-6.87402344 2.28269531 -5.81054688 1.75289063 -4.71484375 1.20703125 C-2 0 -2 0 0 0 Z " fill="#D0F3F9" transform="translate(201,63)"/>
<path d="M0 0 C0.99 0.33 1.98 0.66 3 1 C2.2733313 2.01936646 2.2733313 2.01936646 1.53198242 3.05932617 C-0.31428167 6.60327056 -0.42696902 9.06754377 -0.51171875 13.05078125 C-0.52966995 13.70958786 -0.54762115 14.36839447 -0.56611633 15.04716492 C-0.61996656 17.13554631 -0.65403108 19.2237026 -0.6875 21.3125 C-0.7206957 22.7350572 -0.75518744 24.15758479 -0.79101562 25.58007812 C-0.87567601 29.05316915 -0.9426077 32.52633913 -1 36 C-1.33 36 -1.66 36 -2 36 C-2.0496011 31.67669221 -2.0858144 27.35353715 -2.10986328 23.0300293 C-2.11989352 21.56059888 -2.13352101 20.09118829 -2.15087891 18.62182617 C-2.17525898 16.50434463 -2.18651286 14.38712801 -2.1953125 12.26953125 C-2.20578613 10.99698486 -2.21625977 9.72443848 -2.22705078 8.41333008 C-2.00942228 5.14164829 -1.41502625 2.93042634 0 0 Z " fill="#337AA5" transform="translate(194,124)"/>
<path d="M0 0 C0.99 0 1.98 0 3 0 C1.58397787 3.14906415 -0.13735082 5.49523672 -2.4375 8.0625 C-3.03433594 8.73410156 -3.63117188 9.40570313 -4.24609375 10.09765625 C-5.78904226 11.77118837 -7.39043486 13.39043486 -9 15 C-8.67 12.03 -8.34 9.06 -8 6 C-6.35 6 -4.7 6 -3 6 C-2.67 5.01 -2.34 4.02 -2 3 C-1.34 3 -0.68 3 0 3 C0 2.01 0 1.02 0 0 Z " fill="#3884B9" transform="translate(120,117)"/>
<path d="M0 0 C0.33 0.66 0.66 1.32 1 2 C-3.03523352 6.81123996 -7.04467233 11.13242719 -12 15 C-12.66 14.34 -13.32 13.68 -14 13 C-9.52647956 8.40410362 -4.91935902 4.11619836 0 0 Z " fill="#D1EDF7" transform="translate(137,104)"/>
<path d="M0 0 C0.66 0.33 1.32 0.66 2 1 C-1.625 5.875 -1.625 5.875 -5 7 C-5.309375 7.61875 -5.61875 8.2375 -5.9375 8.875 C-7.20298687 11.40597375 -8.67272837 12.44848558 -11 14 C-11.33 12.68 -11.66 11.36 -12 10 C-11.34 10 -10.68 10 -10 10 C-10 9.34 -10 8.68 -10 8 C-9.01 8 -8.02 8 -7 8 C-6.773125 7.236875 -6.54625 6.47375 -6.3125 5.6875 C-4.72014048 2.42695432 -3.27263601 1.4726862 0 0 Z " fill="#E4F8FB" transform="translate(175,76)"/>
<path d="M0 0 C2.9375 2 2.9375 2 5 4 C4.67 4.66 4.34 5.32 4 6 C3.154375 5.67 2.30875 5.34 1.4375 5 C-2.20989216 3.93894046 -5.22274664 3.84890987 -9 4 C-9 3.01 -9 2.02 -9 1 C-5.89951072 -0.55024464 -3.42105782 -0.28992015 0 0 Z " fill="#D9F8FB" transform="translate(267,122)"/>
<path d="M0 0 C5.48125741 -0.34257859 10.13420243 0.2818648 15 3 C17.20914 6.31371 17.22481553 7.3446021 17.125 11.1875 C17.10695312 12.08855469 17.08890625 12.98960937 17.0703125 13.91796875 C17.04710937 14.60503906 17.02390625 15.29210937 17 16 C16.67 16 16.34 16 16 16 C15.91363281 15.39671875 15.82726562 14.7934375 15.73828125 14.171875 C15.04883629 10.25026145 14.50709692 7.61466294 11.9375 4.5 C8.00916048 2.49403939 4.36382176 2.19014474 0 2 C0 1.34 0 0.68 0 0 Z " fill="#327BA9" transform="translate(202,120)"/>
<path d="M0 0 C6.28260706 -0.23268915 11.88019467 0.59545452 18 2 C18 2.33 18 2.66 18 3 C11.4 3 4.8 3 -2 3 C-1.34 2.67 -0.68 2.34 0 2 C0 1.34 0 0.68 0 0 Z " fill="#3C749D" transform="translate(282,38)"/>
<path d="M0 0 C2.29296875 0.0234375 2.29296875 0.0234375 5 1 C6.40204546 3.60944686 7.37653799 5.85415731 8.3125 8.625 C8.57611328 9.32496094 8.83972656 10.02492188 9.11132812 10.74609375 C10.75422453 15.34620367 11.27510303 19.12491839 11 24 C10.67 24 10.34 24 10 24 C9.74476563 22.83984375 9.74476563 22.83984375 9.484375 21.65625 C7.60460551 13.57724071 5.37734509 6.4528141 0 0 Z " fill="#D1F3FB" transform="translate(295,104)"/>
<path d="M0 0 C4.28707628 3.81874022 5.77910393 8.94887309 6.1875 14.58984375 C6.1875 16.72747638 6.10167682 18.86478687 6 21 C3.89172945 17.83759418 3.66182535 16.49342531 3.375 12.8125 C3.30023438 11.91144531 3.22546875 11.01039062 3.1484375 10.08203125 C3.07496094 9.05142578 3.07496094 9.05142578 3 8 C2.34 8 1.68 8 1 8 C0.67 5.36 0.34 2.72 0 0 Z " fill="#3D83B0" transform="translate(299,110)"/>
<path d="M0 0 C-0.598125 0.268125 -1.19625 0.53625 -1.8125 0.8125 C-4.02601698 2.0141235 -5.26668144 3.1973487 -7 5 C-8.66270287 6.33827304 -10.32916181 7.67189785 -12 9 C-12.66 9.66 -13.32 10.32 -14 11 C-13.58565093 6.16592748 -11.62206046 4.10462326 -8 1 C-5.07175348 0.02391783 -3.04386724 -0.08226668 0 0 Z " fill="#C5E9F4" transform="translate(264,121)"/>
<path d="M0 0 C1.32 0.33 2.64 0.66 4 1 C0.88712582 3.07524945 -2.00517888 4.24407086 -5.5 5.5625 C-6.6446875 5.99691406 -7.789375 6.43132813 -8.96875 6.87890625 C-10.9675458 7.61815161 -12.97824296 8.32608099 -15 9 C-15.33 8.01 -15.66 7.02 -16 6 C-10.69960141 4.33445973 -5.52706913 2.72724594 0 2 C0 1.34 0 0.68 0 0 Z " fill="#3B82B1" transform="translate(220,52)"/>
<path d="M0 0 C0.33 0 0.66 0 1 0 C0.91224337 2.20904631 0.80405633 4.41728593 0.6875 6.625 C0.62949219 7.85476562 0.57148437 9.08453125 0.51171875 10.3515625 C-0.01996453 14.1423425 -1.10647796 16.70029671 -3 20 C-4.37344385 15.60155678 -3.24307502 12.07495445 -2.0625 7.75 C-1.86720703 7.00492188 -1.67191406 6.25984375 -1.47070312 5.4921875 C-0.98895802 3.65920614 -0.49560775 1.82928182 0 0 Z " fill="#C7EDF7" transform="translate(95,167)"/>
<path d="M0 0 C-1.44781793 3.44428265 -3.27694609 5.36130962 -6.125 7.75 C-7.21167969 8.67039062 -7.21167969 8.67039062 -8.3203125 9.609375 C-8.87460938 10.06828125 -9.42890625 10.5271875 -10 11 C-10.33 10.34 -10.66 9.68 -11 9 C-10.67 8.01 -10.34 7.02 -10 6 C-7.9375 5.3125 -7.9375 5.3125 -6 5 C-6 3.68 -6 2.36 -6 1 C-3 0 -3 0 0 0 Z " fill="#2F7DB5" transform="translate(134,106)"/>
<path d="M0 0 C-0.90492187 0.58007812 -0.90492187 0.58007812 -1.828125 1.171875 C-7.82801813 5.07616197 -7.82801813 5.07616197 -13 10 C-13.99 9.67 -14.98 9.34 -16 9 C-5.47552448 -1.82517483 -5.47552448 -1.82517483 0 0 Z " fill="#D6F4FC" transform="translate(103,84)"/>
<path d="M0 0 C3.21880117 3.7935871 5.6163187 7.65829477 8 12 C6.35 12.33 4.7 12.66 3 13 C1.93453047 9.8035914 1.92572162 7.34252724 2 4 C1.34 4 0.68 4 0 4 C0 2.68 0 1.36 0 0 Z " fill="#DBF3FA" transform="translate(47,275)"/>
<path d="M0 0 C2.31 0 4.62 0 7 0 C6.67 0.99 6.34 1.98 6 3 C0.06 3.33 -5.88 3.66 -12 4 C-7.60171741 1.8008587 -4.81449408 1.48144941 0 1 C0 0.67 0 0.34 0 0 Z " fill="#1F76BD" transform="translate(272,38)"/>
<path d="M0 0 C-0.7109375 1.921875 -0.7109375 1.921875 -2 4 C-4.1640625 4.828125 -4.1640625 4.828125 -6.625 5.25 C-7.85089844 5.47429687 -7.85089844 5.47429687 -9.1015625 5.703125 C-9.72804687 5.80109375 -10.35453125 5.8990625 -11 6 C-7.82056713 0.36373265 -6.43725245 -0.13994027 0 0 Z " fill="#2479B2" transform="translate(138,65)"/>
<path d="M0 0 C1.68762851 1.6454378 3.3540349 3.31288577 5 5 C5 5.33 5 5.66 5 6 C3.5629191 6.05422947 2.12524538 6.09289723 0.6875 6.125 C-0.11300781 6.14820313 -0.91351563 6.17140625 -1.73828125 6.1953125 C-4 6 -4 6 -7 4 C-4.69 4 -2.38 4 0 4 C0 2.68 0 1.36 0 0 Z " fill="#3E7CA7" transform="translate(113,317)"/>
<path d="M0 0 C1.96426666 2.94639999 3.5345824 5.90087274 5.125 9.0625 C5.66382813 10.12597656 6.20265625 11.18945312 6.7578125 12.28515625 C8 15 8 15 8 17 C7.01 17 6.02 17 5 17 C4.54625 15.7625 4.0925 14.525 3.625 13.25 C2.78864927 10.99462766 1.96149494 8.92906964 0.8125 6.8125 C-0.23755451 4.47007071 -0.140882 2.53587598 0 0 Z " fill="#C9EAF7" transform="translate(39,257)"/>
<path d="M0 0 C0.99 0 1.98 0 3 0 C1.68 5.61 0.36 11.22 -1 17 C-1.33 17 -1.66 17 -2 17 C-1.85978195 14.35375716 -1.71310224 11.70815422 -1.5625 9.0625 C-1.52318359 8.30775391 -1.48386719 7.55300781 -1.44335938 6.77539062 C-1.11328125 1.11328125 -1.11328125 1.11328125 0 0 Z " fill="#D0F2FB" transform="translate(35,166)"/>
<path d="M0 0 C-2.3125 2.5 -2.3125 2.5 -5 5 C-5.99 5 -6.98 5 -8 5 C-8 3.35 -8 1.7 -8 0 C-5.13822943 -1.43088528 -3.06624227 -0.59991697 0 0 Z " fill="#2D82BD" transform="translate(154,90)"/>
<path d="M0 0 C0.33 1.32 0.66 2.64 1 4 C0.2575 4.556875 -0.485 5.11375 -1.25 5.6875 C-3.91707995 7.93027178 -5.91556232 10.22074975 -8 13 C-8.66 12.67 -9.32 12.34 -10 12 C-8.52149287 10.18696196 -7.04217625 8.37458402 -5.5625 6.5625 C-4.32693359 5.04849609 -4.32693359 5.04849609 -3.06640625 3.50390625 C-1 1 -1 1 0 0 Z " fill="#4181AC" transform="translate(70,112)"/>
<path d="M0 0 C2.12472576 -0.05386629 4.24983652 -0.09273071 6.375 -0.125 C7.55835938 -0.14820312 8.74171875 -0.17140625 9.9609375 -0.1953125 C13 0 13 0 15 2 C11.37 1.67 7.74 1.34 4 1 C4 1.66 4 2.32 4 3 C2.35 3.66 0.7 4.32 -1 5 C-0.67 3.35 -0.34 1.7 0 0 Z " fill="#2377B3" transform="translate(198,119)"/>
<path d="M0 0 C2.62386487 3.06117568 3 3.73173127 3 8 C3.99 8 4.98 8 6 8 C6 9.65 6 11.3 6 13 C2.98669907 10.99113271 1.1871676 9.46257217 0 6 C-0.125 2.75 -0.125 2.75 0 0 Z " fill="#EEFBFD" transform="translate(41,266)"/>
<path d="M0 0 C0.66 0 1.32 0 2 0 C2.42589023 5.53657294 0.905247 9.89665983 -1 15 C-1.33 15 -1.66 15 -2 15 C-1.85930804 12.87465341 -1.71229079 10.74972471 -1.5625 8.625 C-1.48128906 7.44164062 -1.40007813 6.25828125 -1.31640625 5.0390625 C-1 2 -1 2 0 0 Z " fill="#2479B5" transform="translate(43,153)"/>
<path d="M0 0 C0.66 0 1.32 0 2 0 C1.77082032 1.60727327 1.51579198 3.21087416 1.25 4.8125 C1.04117188 6.15248047 1.04117188 6.15248047 0.828125 7.51953125 C-0.168841 10.50572658 -1.3582435 11.38380344 -4 13 C-3.67 11.02 -3.34 9.04 -3 7 C-2.34 7 -1.68 7 -1 7 C-0.67 4.69 -0.34 2.38 0 0 Z " fill="#2277B8" transform="translate(103,137)"/>
<path d="M0 0 C0.99 0 1.98 0 3 0 C3.33 0.66 3.66 1.32 4 2 C5.65051288 3.11634152 5.65051288 3.11634152 7.5625 4.125 C9.2640625 5.053125 9.2640625 5.053125 11 6 C11 6.99 11 7.98 11 9 C6.21495828 6.51545911 3.13922331 4.52048157 0 0 Z " fill="#2C76A8" transform="translate(69,301)"/>
<path d="M0 0 C0.66 0.33 1.32 0.66 2 1 C1.71743908 2.93884889 1.4236207 4.87605961 1.125 6.8125 C0.96257812 7.89144531 0.80015625 8.97039062 0.6328125 10.08203125 C0 13 0 13 -2 16 C-1.85975781 13.52039864 -1.7130815 11.04147598 -1.5625 8.5625 C-1.52318359 7.85544922 -1.48386719 7.14839844 -1.44335938 6.41992188 C-1.11328125 1.11328125 -1.11328125 1.11328125 0 0 Z " fill="#EAFEFC" transform="translate(92,186)"/>
<path d="M0 0 C1.19935725 3.47651527 0.80128318 5.69868278 -0.25 9.1875 C-0.62898438 10.50814453 -0.62898438 10.50814453 -1.015625 11.85546875 C-1.34046875 12.56316406 -1.6653125 13.27085937 -2 14 C-2.99 14.33 -3.98 14.66 -5 15 C-4.37321829 11.33827525 -3.35548154 8.1181005 -1.9375 4.6875 C-1.39416016 3.36298828 -1.39416016 3.36298828 -0.83984375 2.01171875 C-0.56269531 1.34785156 -0.28554687 0.68398437 0 0 Z " fill="#C6F0F9" transform="translate(102,148)"/>
<path d="M0 0 C1 4 1 4 0 7 C-0.99 7.495 -0.99 7.495 -2 8 C-2.65772428 11.02934491 -2.65772428 11.02934491 -3 14 C-3.33 13.34 -3.66 12.68 -4 12 C-4.66 11.67 -5.32 11.34 -6 11 C-4.02 7.37 -2.04 3.74 0 0 Z " fill="#3D85B4" transform="translate(49,141)"/>
<path d="M0 0 C0.91007813 0.00902344 1.82015625 0.01804687 2.7578125 0.02734375 C3.45648438 0.03894531 4.15515625 0.05054687 4.875 0.0625 C4.875 1.0525 4.875 2.0425 4.875 3.0625 C0.915 3.0625 -3.045 3.0625 -7.125 3.0625 C-7.125 2.4025 -7.125 1.7425 -7.125 1.0625 C-4.60024538 -0.19987731 -2.81299534 -0.03606404 0 0 Z " fill="#FAF9F0" transform="translate(206.125,124.9375)"/>
<path d="M0 0 C0.66 0 1.32 0 2 0 C1.67566492 5.35152885 -1.49704824 8.28280043 -5 12 C-5.33 11.01 -5.66 10.02 -6 9 C-4.1875 6.3125 -4.1875 6.3125 -2 4 C-1.34 4 -0.68 4 0 4 C0 2.68 0 1.36 0 0 Z " fill="#D9F6FD" transform="translate(69,108)"/>
<path d="M0 0 C0 0.66 0 1.32 0 2 C-1.58226965 2.19627391 -3.16589271 2.38165538 -4.75 2.5625 C-5.63171875 2.66691406 -6.5134375 2.77132812 -7.421875 2.87890625 C-9.88432451 2.99456676 -11.66538064 2.73638695 -14 2 C-9.126739 0.4087311 -5.19209404 -0.21192221 0 0 Z " fill="#2376B4" transform="translate(260,42)"/>
<path d="M0 0 C2.97 0.495 2.97 0.495 6 1 C5.67 2.32 5.34 3.64 5 5 C3.35 4.67 1.7 4.34 0 4 C0 2.68 0 1.36 0 0 Z " fill="#3382BB" transform="translate(277,95)"/>
<path d="M0 0 C0.33 0.99 0.66 1.98 1 3 C-1.10078511 6.07614963 -2.88621595 7.92414397 -6 10 C-8.1875 9.625 -8.1875 9.625 -10 9 C-8.02 8.34 -6.04 7.68 -4 7 C-3.8453125 5.824375 -3.8453125 5.824375 -3.6875 4.625 C-3 2 -3 2 0 0 Z " fill="#1B79BC" transform="translate(91,94)"/>
<path d="M0 0 C0.66 0.33 1.32 0.66 2 1 C-1.63 3.31 -5.26 5.62 -9 8 C-9.33 7.01 -9.66 6.02 -10 5 C-8.38007835 4.13624104 -6.75388139 3.28424146 -5.125 2.4375 C-4.22007813 1.96183594 -3.31515625 1.48617187 -2.3828125 0.99609375 C-1.20332031 0.50302734 -1.20332031 0.50302734 0 0 Z " fill="#D0F1FB" transform="translate(112,75)"/>
<path d="M0 0 C-3.46741134 2.95749791 -6.86873527 5.07848152 -11 7 C-10.67 6.01 -10.34 5.02 -10 4 C-9.34 4 -8.68 4 -8 4 C-8 3.34 -8 2.68 -8 2 C-3.61016949 -1.20338983 -3.61016949 -1.20338983 0 0 Z " fill="#D3F2FB" transform="translate(126,68)"/>
<path d="M0 0 C0.33 0.66 0.66 1.32 1 2 C0 3.5 0 3.5 -2 5 C-4.71846235 5.27345479 -7.25677199 5.13491285 -10 5 C-7.90217213 2.90217213 -6.6200793 2.3490604 -3.875 1.375 C-3.15054688 1.11460938 -2.42609375 0.85421875 -1.6796875 0.5859375 C-0.84824219 0.29589844 -0.84824219 0.29589844 0 0 Z " fill="#D4F0F9" transform="translate(211,58)"/>
<path d="M0 0 C1.39456452 0.00667256 2.78911118 0.01863093 4.18359375 0.03515625 C4.89451172 0.03966797 5.60542969 0.04417969 6.33789062 0.04882812 C8.09899388 0.06064761 9.86005411 0.07858362 11.62109375 0.09765625 C11.62109375 0.42765625 11.62109375 0.75765625 11.62109375 1.09765625 C10.62207031 1.14664062 9.62304688 1.195625 8.59375 1.24609375 C7.30339844 1.32085937 6.01304687 1.395625 4.68359375 1.47265625 C3.39582031 1.54226563 2.10804688 1.611875 0.78125 1.68359375 C-0.26160156 1.82023437 -1.30445313 1.956875 -2.37890625 2.09765625 C-2.70890625 2.75765625 -3.03890625 3.41765625 -3.37890625 4.09765625 C-3.70890625 3.10765625 -4.03890625 2.11765625 -4.37890625 1.09765625 C-3.37890625 0.09765625 -3.37890625 0.09765625 0 0 Z " fill="#DBE0E2" transform="translate(244.37890625,321.90234375)"/>
<path d="M0 0 C0.99 0.33 1.98 0.66 3 1 C2.8125 2.875 2.8125 2.875 2 5 C-0.5625 6.25 -0.5625 6.25 -3 7 C-3.33 6.34 -3.66 5.68 -4 5 C-3.67 4.34 -3.34 3.68 -3 3 C-2.34 3 -1.68 3 -1 3 C-0.67 2.01 -0.34 1.02 0 0 Z " fill="#F9F9F4" transform="translate(158,89)"/>
<path d="M0 0 C3.3 0.33 6.6 0.66 10 1 C10 1.99 10 2.98 10 4 C9.34 4 8.68 4 8 4 C8 4.66 8 5.32 8 6 C7.01 5.67 6.02 5.34 5 5 C5.66 4.01 6.32 3.02 7 2 C4.69 2 2.38 2 0 2 C0 1.34 0 0.68 0 0 Z " fill="#3B81B3" transform="translate(272,36)"/>
<path d="M0 0 C2.12508244 3.18762365 2.5020163 5.26512223 3 9 C2.34 9 1.68 9 1 9 C0.67 10.32 0.34 11.64 0 13 C0 8.71 0 4.42 0 0 Z " fill="#287AAD" transform="translate(92,265)"/>
<path d="M0 0 C0.66 0.33 1.32 0.66 2 1 C1 4 1 4 -0.8125 5.25 C-3 6 -3 6 -7 5 C-4.69 3.35 -2.38 1.7 0 0 Z " fill="#3C83B4" transform="translate(199,98)"/>
<path d="M0 0 C-3.44450737 2.29633824 -5.93812283 2.54016485 -10 3 C-10.33 2.34 -10.66 1.68 -11 1 C-3.375 -1.125 -3.375 -1.125 0 0 Z " fill="#3C84B3" transform="translate(192,44)"/>
<path d="M0 0 C4.455 0.99 4.455 0.99 9 2 C8.67 2.99 8.34 3.98 8 5 C8 4.34 8 3.68 8 3 C7.13375 3.309375 7.13375 3.309375 6.25 3.625 C3.48032433 4.08661261 2.35438733 3.42944945 0 2 C0 1.34 0 0.68 0 0 Z " fill="#757D84" transform="translate(256,223)"/>
<path d="M0 0 C0.66 0.33 1.32 0.66 2 1 C1.3503125 1.5878125 1.3503125 1.5878125 0.6875 2.1875 C-1.26366224 4.28319278 -2.59010162 6.51589333 -4 9 C-4.99 8.67 -5.98 8.34 -7 8 C-4.69 5.36 -2.38 2.72 0 0 Z " fill="#1F79BD" transform="translate(69,116)"/>
<path d="M0 0 C1.32 0.66 2.64 1.32 4 2 C4 3.65 4 5.3 4 7 C2.35 6.01 0.7 5.02 -1 4 C-0.67 2.68 -0.34 1.36 0 0 Z " fill="#E1F4F9" transform="translate(235,96)"/>
<path d="M0 0 C1.65 0 3.3 0 5 0 C2.42215154 2.64752004 0.08351902 4.94432065 -3 7 C-1.125 2.25 -1.125 2.25 0 0 Z " fill="#337FB3" transform="translate(141,96)"/>
<path d="M0 0 C2.31 0 4.62 0 7 0 C3.8745041 2.64465038 0.91211733 3.84414715 -3 5 C-2.67 4.01 -2.34 3.02 -2 2 C-1.34 2 -0.68 2 0 2 C0 1.34 0 0.68 0 0 Z " fill="#D4F5FC" transform="translate(148,54)"/>
<path d="M0 0 C-3.0469629 1.69433918 -5.82821466 2.49467112 -9.25 3.125 C-10.58804688 3.37636719 -10.58804688 3.37636719 -11.953125 3.6328125 C-12.62859375 3.75398438 -13.3040625 3.87515625 -14 4 C-12 1 -12 1 -8.6875 0.3125 C-5.75903238 0.06432478 -2.9340986 -0.08891208 0 0 Z " fill="#D3F6FD" transform="translate(189,43)"/>
<path d="M0 0 C6.52307692 0.49230769 6.52307692 0.49230769 8.9375 3.0625 C9.288125 3.701875 9.63875 4.34125 10 5 C9.01 5.495 9.01 5.495 8 6 C6.0546875 5.0390625 6.0546875 5.0390625 3.875 3.625 C3.15054688 3.16351563 2.42609375 2.70203125 1.6796875 2.2265625 C1.12539062 1.82179688 0.57109375 1.41703125 0 1 C0 0.67 0 0.34 0 0 Z " fill="#4787B2" transform="translate(78,309)"/>
<path d="M0 0 C-3.96 1.98 -3.96 1.98 -8 4 C-8 2.68 -8 1.36 -8 0 C-4.63458162 -1.08174162 -3.70152678 -0.92538169 0 0 Z " fill="#3D81B3" transform="translate(167,82)"/>
<path d="M0 0 C1.98 0 3.96 0 6 0 C3.64722731 2.72426311 1.37503669 3.8141763 -2 5 C-1.34 3.35 -0.68 1.7 0 0 Z " fill="#D6F4FB" transform="translate(129,63)"/>
<path d="M0 0 C0.99 0.33 1.98 0.66 3 1 C1.35 3.64 -0.3 6.28 -2 9 C-3 5 -3 5 -1.5625 2.25 C-1.046875 1.5075 -0.53125 0.765 0 0 Z " fill="#CBF2FA" transform="translate(52,132)"/>
<path d="M0 0 C1.85776765 3.13498292 2.20140476 5.37471432 2 9 C-0.89932357 6.60490662 -1.50168276 4.68754757 -2 1 C-1.34 0.67 -0.68 0.34 0 0 Z " fill="#F3FBFA" transform="translate(302,104)"/>
<path d="M0 0 C2.02045442 0.60183749 4.02111039 1.27306096 6 2 C6.33 2.66 6.66 3.32 7 4 C4.36 3.67 1.72 3.34 -1 3 C-0.67 2.01 -0.34 1.02 0 0 Z " fill="#3177A7" transform="translate(283,97)"/>
<path d="M0 0 C-0.33 0.99 -0.66 1.98 -1 3 C-2.98 3.33 -4.96 3.66 -7 4 C-7 3.01 -7 2.02 -7 1 C-4.50935112 0.31292445 -2.62113708 0 0 0 Z " fill="#2176B4" transform="translate(208,97)"/>
<path d="M0 0 C2.31 0 4.62 0 7 0 C4.06171403 2.50298434 1.82097239 3.46930939 -2 4 C-1.34 2.68 -0.68 1.36 0 0 Z " fill="#CDF0FA" transform="translate(137,59)"/>
<path d="M0 0 C3.63 0 7.26 0 11 0 C11 0.33 11 0.66 11 1 C7.04 1.66 3.08 2.32 -1 3 C-0.67 2.01 -0.34 1.02 0 0 Z " fill="#D0F0FA" transform="translate(192,40)"/>
<path d="M0 0 C-0.33 0.66 -0.66 1.32 -1 2 C-3.875 2.125 -3.875 2.125 -7 2 C-7.66 1.34 -8.32 0.68 -9 0 C-5.93109813 -1.53445094 -3.29905734 -0.54984289 0 0 Z " fill="#F5FBF5" transform="translate(289,34)"/>
<path d="M0 0 C3.3 1.65 6.6 3.3 10 5 C6.37673261 6.2077558 5.35853631 5.54311128 2 4 C2 3.34 2 2.68 2 2 C1.34 2 0.68 2 0 2 C0 1.34 0 0.68 0 0 Z " fill="#D0F1FA" transform="translate(80,311)"/>
<path d="M0 0 C3 6 3 6 4 9 C2.0625 8.25 2.0625 8.25 0 7 C-1.23843794 4.04680182 -1.04187157 3.12561472 0 0 Z " fill="#737C7F" transform="translate(229,309)"/>
<path d="M0 0 C2.64 1.98 5.28 3.96 8 6 C6 7 6 7 4 6.375 C1.42887169 4.60734929 0.92340297 2.92410941 0 0 Z " fill="#C6EEFA" transform="translate(70,303)"/>
<path d="M0 0 C0.66 0 1.32 0 2 0 C2.33 2.64 2.66 5.28 3 8 C2.67 7.34 2.34 6.68 2 6 C1.34 6 0.68 6 0 6 C-0.38218767 4.34385343 -0.71395102 2.67542976 -1 1 C-0.67 0.67 -0.34 0.34 0 0 Z " fill="#2277B2" transform="translate(39,249)"/>
<path d="M0 0 C3.375 -0.125 3.375 -0.125 7 0 C7.66 0.66 8.32 1.32 9 2 C5.56484998 2.62457273 2.50935186 3 -1 3 C-0.67 2.01 -0.34 1.02 0 0 Z " fill="#FBF7F6" transform="translate(256,125)"/>
<path d="M0 0 C0.66 0.33 1.32 0.66 2 1 C1.01 2.485 1.01 2.485 0 4 C-0.66 4 -1.32 4 -2 4 C-2.33 4.99 -2.66 5.98 -3 7 C-3.99 6.67 -4.98 6.34 -6 6 C-4.02 4.02 -2.04 2.04 0 0 Z " fill="#3074A2" transform="translate(77,105)"/>
<path d="M0 0 C0.78375 0.04125 1.5675 0.0825 2.375 0.125 C2.705 1.115 3.035 2.105 3.375 3.125 C1.375 4.125 1.375 4.125 -1.75 3.1875 C-2.69875 2.836875 -3.6475 2.48625 -4.625 2.125 C-2.625 0.125 -2.625 0.125 0 0 Z " fill="#2179BB" transform="translate(244.625,103.875)"/>
<path d="M0 0 C1.98 0 3.96 0 6 0 C6.33 2.31 6.66 4.62 7 7 C4.66666667 4.66666667 2.33333333 2.33333333 0 0 Z " fill="#2879B5" transform="translate(185,97)"/>
<path d="M0 0 C1.32 0.66 2.64 1.32 4 2 C2.68799596 3.35432675 1.35368596 4.68733482 0 6 C-0.33 6 -0.66 6 -1 6 C-1.042721 4.33388095 -1.04063832 2.66617115 -1 1 C-0.67 0.67 -0.34 0.34 0 0 Z " fill="#2F7DB1" transform="translate(155,84)"/>
<path d="M0 0 C3.625 -0.1875 3.625 -0.1875 7 0 C5.875 1.5 5.875 1.5 4 3 C0.8125 3.1875 0.8125 3.1875 -2 3 C-1.34 2.01 -0.68 1.02 0 0 Z " fill="#1F78B6" transform="translate(191,43)"/>
<path d="M0 0 C1.98 0.66 3.96 1.32 6 2 C6 2.66 6 3.32 6 4 C6.66 4 7.32 4 8 4 C8 4.66 8 5.32 8 6 C4.63408134 4.55746343 2.48952921 2.66735273 0 0 Z " fill="#EAFCFD" transform="translate(74,309)"/>
<path d="M0 0 C4.875 4.625 4.875 4.625 6 8 C3.53199953 6.84826645 1.95216435 5.95216435 0 4 C0 2.68 0 1.36 0 0 Z " fill="#C9F1FA" transform="translate(55,287)"/>
<path d="M0 0 C0.66 0 1.32 0 2 0 C2.99 2.97 3.98 5.94 5 9 C3.68 8.34 2.36 7.68 1 7 C0.25 3.375 0.25 3.375 0 0 Z " fill="#2D79B0" transform="translate(50,275)"/>
<path d="M0 0 C2.31 0 4.62 0 7 0 C4.44008376 2.01136276 1.95409701 3.62845496 -1 5 C-0.67 3.35 -0.34 1.7 0 0 Z " fill="#E4E9EB" transform="translate(230,225)"/>
<path d="M0 0 C0.6875 1.6875 0.6875 1.6875 1 4 C-0.3125 6.75 -0.3125 6.75 -2 9 C-2.66 9 -3.32 9 -4 9 C-2.94124926 5.59687262 -1.99097846 2.98646769 0 0 Z " fill="#BCE7F5" transform="translate(107,138)"/>
<path d="M0 0 C0.99 0.33 1.98 0.66 3 1 C1.625 3.5 1.625 3.5 0 6 C-0.66 6 -1.32 6 -2 6 C-1.125 1.125 -1.125 1.125 0 0 Z " fill="#3B82B4" transform="translate(250,124)"/>
<path d="M0 0 C0 0.66 0 1.32 0 2 C-0.99 2 -1.98 2 -3 2 C-3.66 3.32 -4.32 4.64 -5 6 C-5.33 4.68 -5.66 3.36 -6 2 C-3 0 -3 0 0 0 Z " fill="#EDFCFE" transform="translate(63,119)"/>
<path d="M0 0 C1.98 0.495 1.98 0.495 4 1 C3.67 1.99 3.34 2.98 3 4 C1.68 4 0.36 4 -1 4 C-0.67 2.68 -0.34 1.36 0 0 Z " fill="#0D7CD1" transform="translate(248,102)"/>
<path d="M0 0 C2.31 0.33 4.62 0.66 7 1 C3.55549263 3.29633824 1.06187717 3.54016485 -3 4 C-2.01 2.68 -1.02 1.36 0 0 Z " fill="#EAFEFC" transform="translate(209,35)"/>
</svg>
