<?xml version="1.0" encoding="UTF-8"?>
<svg version="1.1" xmlns="http://www.w3.org/2000/svg" width="400" height="400">
<path d="M0 0 C132 0 264 0 400 0 C400 132 400 264 400 400 C268 400 136 400 0 400 C0 268 0 136 0 0 Z " fill="#231F20" transform="translate(0,0)"/>
<path d="M0 0 C0 20.13 0 40.26 0 61 C-7.5178125 60.8453125 -7.5178125 60.8453125 -15.1875 60.6875 C-40.76333914 60.52065742 -64.67546213 66.61159933 -85.1640625 82.69921875 C-87 84 -87 84 -89 84 C-89 84.66 -89 85.32 -89 86 C-90.50390625 87.48046875 -90.50390625 87.48046875 -92.5625 89.1875 C-114.8945086 108.35157043 -128.38240743 135.60653748 -130.86376953 164.91894531 C-131.54668895 175.35121255 -130.86879717 185.57443398 -130 196 C-115.48 196 -100.96 196 -86 196 C-86.99 192.37 -87.98 188.74 -89 185 C-89.27181649 181.29583412 -89.43272955 177.81509934 -89.375 174.125 C-89.36339844 173.16319824 -89.35179688 172.20139648 -89.33984375 171.21044922 C-88.89784375 151.92169926 -81.74163665 136.38296424 -68 123 C-67.17242187 122.14792969 -66.34484375 121.29585938 -65.4921875 120.41796875 C-51.49494557 106.83757259 -33.79511636 101.31961064 -14.68530273 101.45947266 C4.27998988 102.06578991 20.54080213 109.64162009 34 123 C34.94875 123.9075 35.8975 124.815 36.875 125.75 C39.04723646 128.05001507 41.02368359 130.52960449 43 133 C43.33 92.41 43.66 51.82 44 10 C67.50830716 17.83610239 88.10499752 32.06992412 106 49 C106.80953125 49.75667969 107.6190625 50.51335937 108.453125 51.29296875 C131.37659254 73.38744296 145.77793399 101.5337399 154 132 C154.3403125 133.13953125 154.680625 134.2790625 155.03125 135.453125 C166.02351963 175.69901541 158.42083867 223.07600704 138.13671875 259.21484375 C130.22843928 272.85094624 121.28697439 285.14173436 110.38525391 296.54736328 C109.05117355 297.94633722 107.73419271 299.3615567 106.41796875 300.77734375 C82.73800696 325.52237129 50.95856217 340.35077124 18 348 C16.98607178 348.24991699 16.98607178 348.24991699 15.95166016 348.50488281 C-0.35844414 352.42320183 -17.37611323 351.19634512 -34 351 C-34 330.54 -34 310.08 -34 289 C-24.76 289 -15.52 289 -6 289 C-0.32087076 288.22926103 4.56790635 287.46363093 10 286 C11.26972656 285.68289063 12.53945312 285.36578125 13.84765625 285.0390625 C29.8160747 280.7567307 44.28059441 272.44372919 57 262 C57.86238281 261.3296875 58.72476563 260.659375 59.61328125 259.96875 C63.19896777 257.01099876 66.02229858 253.55343164 69 250 C69.63035156 249.28070313 70.26070313 248.56140625 70.91015625 247.8203125 C86.38074899 229.55086501 96.25505303 205.89004932 96.09765625 181.90625 C96.09664917 181.16729492 96.09564209 180.42833984 96.09460449 179.66699219 C96.08942946 176.94464534 96.0754689 174.22232087 96.0625 171.5 C96.0315625 162.3425 96.0315625 162.3425 96 153 C81.48 153 66.96 153 52 153 C52.99 156.3 53.98 159.6 55 163 C55.40405273 166.00854492 55.40405273 166.00854492 55.43359375 168.48046875 C55.44511475 169.40931885 55.45663574 170.33816895 55.46850586 171.29516602 C55.45827393 172.24963623 55.44804199 173.20410645 55.4375 174.1875 C55.42920166 175.19417725 55.42090332 176.20085449 55.41235352 177.23803711 C54.96462663 197.14993346 46.76157732 214.11240578 32.8125 228.2109375 C15.34435793 244.49374136 -4.1212172 247.71353341 -27.23144531 247.11865234 C-43.36548705 246.42719341 -58.00423462 237.028087 -69.265625 225.9921875 C-72 223 -72 223 -77 216 C-77.33 256.92 -77.66 297.84 -78 340 C-81.83468807 339.23306239 -84.28369966 338.56817686 -87.6953125 336.9609375 C-89.00810181 336.3431543 -89.00810181 336.3431543 -90.34741211 335.71289062 C-91.26401611 335.27138672 -92.18062012 334.82988281 -93.125 334.375 C-94.07060791 333.92060547 -95.01621582 333.46621094 -95.99047852 332.99804688 C-102.6515896 329.75213972 -108.94103901 326.28010061 -115 322 C-116.19648896 321.1742971 -117.39311333 320.3487904 -118.58984375 319.5234375 C-119.85271125 318.64226907 -121.11443986 317.75946608 -122.375 316.875 C-122.95886475 316.46701172 -123.54272949 316.05902344 -124.14428711 315.63867188 C-127.78427711 313.03725313 -130.89069539 310.20711386 -134 307 C-135.4484391 305.71790108 -136.90651057 304.4465839 -138.375 303.1875 C-142.65450576 299.40151221 -146.33959042 295.37557364 -150 291 C-150.73734375 290.17371094 -151.4746875 289.34742188 -152.234375 288.49609375 C-172.9015965 264.83409971 -190.30410315 230.18275691 -191.82421875 198.390625 C-191.91231192 195.85338417 -191.91231192 195.85338417 -193 193 C-193.1076737 190.7583964 -193.15422094 188.51367727 -193.16796875 186.26953125 C-193.17224884 185.60679703 -193.17652893 184.94406281 -193.18093872 184.26124573 C-193.19095235 182.11159552 -193.19098788 179.96216918 -193.1875 177.8125 C-193.18656342 177.08081604 -193.18562683 176.34913208 -193.18466187 175.59527588 C-193.15582171 165.26140741 -193.00098331 155.18116897 -191 145 C-190.83870605 144.16887695 -190.67741211 143.33775391 -190.51123047 142.48144531 C-188.07617602 130.20389644 -184.95653551 118.49985481 -180 107 C-179.71286133 106.32163086 -179.42572266 105.64326172 -179.12988281 104.94433594 C-172.58668177 89.67215102 -163.88829877 75.5752183 -153 63 C-151.99259766 61.82824219 -151.99259766 61.82824219 -150.96484375 60.6328125 C-148.68670978 58.0445877 -146.3584999 55.51524719 -144 53 C-143.52965332 52.4956543 -143.05930664 51.99130859 -142.57470703 51.47167969 C-119.79512609 27.23933816 -86.14165347 7.3168428 -53 2 C-52.18289551 1.86754883 -51.36579102 1.73509766 -50.52392578 1.59863281 C-15.55171667 -3.88792917 -15.55171667 -3.88792917 0 0 Z " fill="#FDFDFD" transform="translate(217,25)"/>
<path d="M0 0 C-0.66666667 1.33333333 -1.33333333 2.66666667 -2 4 C-2.268125 4.70125 -2.53625 5.4025 -2.8125 6.125 C-4.42580499 8.67232367 -6.18771058 9.1119086 -9 10 C-8.34 8.68 -7.68 7.36 -7 6 C-7.99 5.67 -8.98 5.34 -10 5 C-8.71186658 4.16121545 -7.41936744 3.32913217 -6.125 2.5 C-5.40570313 2.0359375 -4.68640625 1.571875 -3.9453125 1.09375 C-2 0 -2 0 0 0 Z " fill="#2D2B2C" transform="translate(243,259)"/>
<path d="M0 0 C2.72869407 0.03287583 5.2966618 0.56397771 8 1 C5.11980724 2.46652017 2.20691485 3.82047874 -0.75 5.125 C-1.54921875 5.47820312 -2.3484375 5.83140625 -3.171875 6.1953125 C-3.77515625 6.46085938 -4.3784375 6.72640625 -5 7 C-5 6.01 -5 5.02 -5 4 C-4.01 3.34 -3.02 2.68 -2 2 C-1.34 1.34 -0.68 0.68 0 0 Z " fill="#333132" transform="translate(170,129)"/>
<path d="M0 0 C-1.31224548 3.93673644 -2.91910327 6.22719294 -6 9 C-6.36521739 3.52173913 -6.36521739 3.52173913 -4.6875 1.125 C-3 0 -3 0 0 0 Z " fill="#292728" transform="translate(296,261)"/>
<path d="M0 0 C0.99 0 1.98 0 3 0 C3.66 2.31 4.32 4.62 5 7 C4.34 7 3.68 7 3 7 C2.67 7.66 2.34 8.32 2 9 C1.34 8.67 0.68 8.34 0 8 C0 5.36 0 2.72 0 0 Z " fill="#2D2B2C" transform="translate(33,263)"/>
<path d="M0 0 C0.99 0.33 1.98 0.66 3 1 C2.34 2.32 1.68 3.64 1 5 C0.34 5 -0.32 5 -1 5 C-1.28875 5.639375 -1.5775 6.27875 -1.875 6.9375 C-3 9 -3 9 -5 10 C-3.66511872 6.40608886 -2.03977277 3.24509304 0 0 Z " fill="#3B3839" transform="translate(353,286)"/>
<path d="M0 0 C0.598125 0.350625 1.19625 0.70125 1.8125 1.0625 C1.8125 2.3825 1.8125 3.7025 1.8125 5.0625 C-1.07187779 3.76950306 -3.05969421 2.40308637 -5.1875 0.0625 C-2.1875 -0.9375 -2.1875 -0.9375 0 0 Z " fill="#312D2E" transform="translate(301.1875,51.9375)"/>
<path d="M0 0 C0.763125 0.20625 1.52625 0.4125 2.3125 0.625 C-0.54056797 2.94972205 -3.22824837 4.3758258 -6.6875 5.625 C-6.375 3.75 -6.375 3.75 -5.6875 1.625 C-2.6875 -0.375 -2.6875 -0.375 0 0 Z " fill="#343233" transform="translate(117.6875,42.375)"/>
<path d="M0 0 C0 1.65 0 3.3 0 5 C-2.31 4.67 -4.62 4.34 -7 4 C-3.17391304 0 -3.17391304 0 0 0 Z " fill="#3B393A" transform="translate(286,354)"/>
<path d="M0 0 C4.875 4.625 4.875 4.625 6 8 C3.08482708 6.92598892 1.22189824 6.22189824 -1 4 C-0.625 1.875 -0.625 1.875 0 0 Z " fill="#E3E0E1" transform="translate(337,90)"/>
<path d="M0 0 C0.66 0.33 1.32 0.66 2 1 C0.515 3.475 0.515 3.475 -1 6 C-2.65 5.67 -4.3 5.34 -6 5 C-5.195625 4.360625 -4.39125 3.72125 -3.5625 3.0625 C-1.7249496 1.59396498 -1.7249496 1.59396498 0 0 Z " fill="#E8E7E7" transform="translate(110,48)"/>
<path d="M0 0 C0.66 0.33 1.32 0.66 2 1 C0.02 1.99 0.02 1.99 -2 3 C-2 3.66 -2 4.32 -2 5 C-3.98 5.99 -3.98 5.99 -6 7 C-6.66 6.34 -7.32 5.68 -8 5 C-6.71475739 4.13619741 -5.42157581 3.28419631 -4.125 2.4375 C-3.04605469 1.72400391 -3.04605469 1.72400391 -1.9453125 0.99609375 C-1.30335938 0.66738281 -0.66140625 0.33867187 0 0 Z " fill="#3E3B3C" transform="translate(294,348)"/>
<path d="M0 0 C1 3 1 3 1 6 C-0.98 6.99 -2.96 7.98 -5 9 C-3.7508258 5.54074837 -2.32472205 2.85306797 0 0 Z " fill="#3A3738" transform="translate(347,296)"/>
<path d="M0 0 C0.33 0.66 0.66 1.32 1 2 C0.34 1.67 -0.32 1.34 -1 1 C-0.67 0.67 -0.34 0.34 0 0 Z M-3 1 C-2.34 1.33 -1.68 1.66 -1 2 C-1.3125 3.875 -1.3125 3.875 -2 6 C-2.99 6.66 -3.98 7.32 -5 8 C-4.34 5.69 -3.68 3.38 -3 1 Z " fill="#423F40" transform="translate(371,250)"/>
<path d="M0 0 C0.66 0.66 1.32 1.32 2 2 C1 5 1 5 -1 6 C-1.99 5.01 -2.98 4.02 -4 3 C-3.01 3 -2.02 3 -1 3 C-0.67 2.01 -0.34 1.02 0 0 Z " fill="#322E2F" transform="translate(246,137)"/>
</svg>
