<?xml version="1.0" encoding="UTF-8"?>
<svg version="1.1" xmlns="http://www.w3.org/2000/svg" width="400" height="400">
<path d="M0 0 C132 0 264 0 400 0 C400 132 400 264 400 400 C268 400 136 400 0 400 C0 268 0 136 0 0 Z " fill="#151521" transform="translate(0,0)"/>
<path d="M0 0 C5.98570755 1.62324273 7.69589704 5.79261252 10.6875 11 C12.87041583 14.87479097 15.01549535 18.76946972 17.13427734 22.6796875 C20.9828927 29.77920176 24.98827335 36.77772276 29.0625 43.75 C29.64523682 44.74918457 30.22797363 45.74836914 30.82836914 46.77783203 C31.93307743 48.66393488 33.04590307 50.54531396 34.16796875 52.42114258 C35.13325687 54.05937176 36.06713026 55.71684414 36.95703125 57.3972168 C39.05799789 61.20866305 40.05258046 62.7148608 44.140625 64.55078125 C45.39359375 64.80214844 46.6465625 65.05351562 47.9375 65.3125 C49.26740328 65.60329945 50.59683462 65.89626576 51.92578125 66.19140625 C53.16714844 66.45824219 54.40851563 66.72507812 55.6875 67 C58.72364155 67.91919882 61.6936443 68.94952432 64.6875 70 C64.30259857 76.2867233 62.52243916 81.79660492 60.23950195 87.63110352 C58.83669848 91.45473225 58.83669848 91.45473225 59.44262695 95.37817383 C60.75875097 98.15006161 62.19721056 100.78607869 63.7421875 103.4375 C64.35143066 104.48760254 64.96067383 105.53770508 65.58837891 106.61962891 C66.23983887 107.73515137 66.89129883 108.85067383 67.5625 110 C68.57973557 111.74982759 69.59580969 113.50032597 70.61178589 115.25088501 C71.29917497 116.43516467 71.98694116 117.61922553 72.67507935 118.80307007 C76.40698788 125.22699626 80.08045526 131.68403409 83.74169922 138.1484375 C86.27954071 142.6099355 88.90131828 146.97658029 91.7277832 151.26220703 C93.24352509 154.0068142 93.30818496 155.96554022 92.6875 159 C90.44824374 161.97890171 89.30403894 162.9101565 85.57128906 163.45410156 C84.37729492 163.4331543 83.18330078 163.41220703 81.953125 163.390625 C80.00986328 163.37128906 80.00986328 163.37128906 78.02734375 163.3515625 C76.66405176 163.31814366 75.30077051 163.28428391 73.9375 163.25 C72.55861936 163.22992707 71.17971088 163.21167767 69.80078125 163.1953125 C66.42898256 163.14815448 63.05859313 163.08234538 59.6875 163 C59.54127197 161.70376709 59.39504395 160.40753418 59.24438477 159.07202148 C58.69936118 154.24312782 58.15298154 149.41438839 57.60620117 144.58569336 C57.37015642 142.49947191 57.13447487 140.41320932 56.89916992 138.3269043 C56.5600478 135.32069067 56.21960126 132.31462948 55.87890625 129.30859375 C55.72259483 127.91911781 55.72259483 127.91911781 55.56312561 126.50157166 C55.01240155 121.65445143 54.40650178 116.82510835 53.6875 112 C50.72682279 114.96067721 50.17398627 118.68909734 49.0625 122.625 C46.37816585 131.87436547 43.40486373 141.00586575 40.31591797 150.12744141 C39.98865723 151.09601074 39.66139648 152.06458008 39.32421875 153.0625 C39.03248779 153.91972656 38.74075684 154.77695312 38.44018555 155.66015625 C37.76876541 157.74737344 37.21927177 159.87291293 36.6875 162 C21.5075 162 6.3275 162 -9.3125 162 C-7.39555299 158.16610599 -5.15327155 155.06845793 -2.5 151.75 C-2.01789063 151.1415625 -1.53578125 150.533125 -1.0390625 149.90625 C3.20971956 144.55995646 7.52258883 139.26568742 11.84008789 133.97485352 C15.88405448 129.012213 19.85388083 123.99620689 23.79370117 118.95068359 C27.29727615 114.47213916 30.88473351 110.06831868 34.51953125 105.6953125 C37.33327431 102.19714545 40.01194429 98.60440462 42.6875 95 C41.69492188 95.75023437 40.70234375 96.50046875 39.6796875 97.2734375 C31.83224684 103.19038247 23.93389302 109.01669285 15.91796875 114.703125 C12.99306332 116.78274337 10.08623676 118.88413375 7.1875 121 C3.18361011 123.9198673 -0.83955492 126.81147548 -4.875 129.6875 C-12.58256503 135.18207579 -20.25336788 140.72705118 -27.92333984 146.27392578 C-30.42249127 148.07946437 -32.92388186 149.88186518 -35.42578125 151.68359375 C-36.25432617 152.28067139 -37.08287109 152.87774902 -37.93652344 153.49291992 C-39.53693526 154.64612015 -41.13783102 155.79864912 -42.73925781 156.95043945 C-43.4556543 157.46695068 -44.17205078 157.98346191 -44.91015625 158.515625 C-45.54445557 158.97227539 -46.17875488 159.42892578 -46.83227539 159.89941406 C-48.28426596 160.92325449 -48.28426596 160.92325449 -49.3125 162 C-52.30716894 162.13841228 -55.27709553 162.21319345 -58.2734375 162.23828125 C-59.62569931 162.25038887 -59.62569931 162.25038887 -61.00527954 162.26274109 C-62.91691148 162.27659799 -64.82856834 162.28731293 -66.74023438 162.29516602 C-69.66844387 162.31238792 -72.59552726 162.35625995 -75.5234375 162.40039062 C-77.37759584 162.41051623 -79.2317638 162.41903275 -81.0859375 162.42578125 C-81.96414154 162.44328934 -82.84234558 162.46079742 -83.74716187 162.47883606 C-89.79738545 162.45718153 -89.79738545 162.45718153 -92.39428711 160.15234375 C-93.73206907 157.01650601 -93.26403979 155.25143171 -92.3125 152 C-90.67578125 148.95703125 -90.67578125 148.95703125 -88.625 145.8125 C-87.89612828 144.674653 -87.16959888 143.53530249 -86.4453125 142.39453125 C-85.90438965 141.5449585 -85.90438965 141.5449585 -85.35253906 140.67822266 C-83.29076513 137.35131326 -81.47420177 133.89133628 -79.63671875 130.4375 C-79.19972656 129.633125 -78.76273438 128.82875 -78.3125 128 C-77.90386719 127.1440625 -77.49523437 126.288125 -77.07421875 125.40625 C-74.74453086 122.22423727 -71.96628851 121.00300251 -68.4375 119.5 C-67.77347168 119.20375732 -67.10944336 118.90751465 -66.42529297 118.60229492 C-61.10053141 116.25693972 -55.68591204 114.15531135 -50.23828125 112.11328125 C-44.50389745 109.9313061 -39.01347901 107.37111037 -33.5625 104.5625 C-28.71787415 102.10649184 -23.73771325 100.21414247 -18.65625 98.30859375 C-14.26779243 96.59114832 -10.02951299 94.60867217 -5.765625 92.60546875 C3.69358383 88.20757867 13.2978677 84.11561041 22.94140625 80.140625 C26.20164409 78.78644371 29.44452474 77.39500048 32.6875 76 C21.12441508 77.32166944 9.61646243 78.71761874 -1.8125 80.9375 C-15.11547815 83.50485046 -28.56021895 85.01256421 -42.00683594 86.60693359 C-45.77752895 87.05529517 -49.54532852 87.52308187 -53.3125 88 C-52.03970358 83.82579581 -50.47217241 80.24144883 -48.265625 76.48046875 C-47.6675 75.45759766 -47.069375 74.43472656 -46.453125 73.38085938 C-45.82921875 72.32705078 -45.2053125 71.27324219 -44.5625 70.1875 C-43.64984375 68.62418945 -43.64984375 68.62418945 -42.71875 67.02929688 C-39.10715612 60.8826419 -35.34807084 54.87728911 -31.3125 49 C-22.90458224 49.4517967 -15.08393704 50.78548768 -6.9375 52.875 C-4.75028798 53.41782832 -2.56278923 53.95950273 -0.375 54.5 C0.66527344 54.75910156 1.70554687 55.01820313 2.77734375 55.28515625 C12.62659893 57.93884255 12.62659893 57.93884255 22.6875 59 C14.43614501 52.55791222 6.06435303 46.33453871 -2.48486328 40.29394531 C-5.72691003 37.99861433 -8.95634308 35.68562173 -12.1875 33.375 C-13.37234327 32.52857224 -14.55723403 31.68221097 -15.7421875 30.8359375 C-16.59039062 30.23007813 -17.43859375 29.62421875 -18.3125 29 C-17.78736037 23.80008801 -15.15278596 19.93067831 -12.5 15.5625 C-12.06107422 14.82451172 -11.62214844 14.08652344 -11.16992188 13.32617188 C-9.90167256 11.20614144 -8.61106583 9.10156229 -7.3125 7 C-6.94954834 6.39397949 -6.58659668 5.78795898 -6.21264648 5.16357422 C-4.26141125 2.02530243 -3.67460633 1.10931512 0 0 Z " fill="#EAEEF8" transform="translate(199.3125,115)"/>
<path d="M0 0 C-7.24512727 3.40053554 -14.51797193 6.66045104 -21.921875 9.69921875 C-27.34553108 11.99119524 -32.67044261 14.49854645 -38 17 C-38.66 16.01 -39.32 15.02 -40 14 C-38.35 13.67 -36.7 13.34 -35 13 C-35.804375 12.7525 -36.60875 12.505 -37.4375 12.25 C-40 11 -40 11 -40.8125 8.875 C-40.874375 8.25625 -40.93625 7.6375 -41 7 C-39.68 6.34 -38.36 5.68 -37 5 C-37 4.67 -37 4.34 -37 4 C-32.37507588 3.2595096 -27.74867433 2.52941308 -23.12060547 1.80883789 C-21.54691547 1.56233094 -19.97366425 1.3130055 -18.40087891 1.06079102 C-16.13814402 0.69843897 -13.87401709 0.34630212 -11.609375 -0.00390625 C-10.90818542 -0.11843643 -10.20699585 -0.23296661 -9.48455811 -0.35096741 C-6.07142613 -0.86873558 -3.28275184 -1.21079076 0 0 Z " fill="#171723" transform="translate(233,191)"/>
<path d="M0 0 C0 4.16830024 -2.29482265 5.97869416 -4.9375 8.9375 C-10.28597991 15.07362544 -15.20212151 21.42512947 -20 28 C-20.66 27.67 -21.32 27.34 -22 27 C-22 26.34 -22 25.68 -22 25 C-22.99 24.67 -23.98 24.34 -25 24 C-25.33 23.34 -25.66 22.68 -26 22 C-26.66 22 -27.32 22 -28 22 C-28 22.66 -28 23.32 -28 24 C-28.66 24 -29.32 24 -30 24 C-30.33 24.66 -30.66 25.32 -31 26 C-31.66 25.34 -32.32 24.68 -33 24 C-32.29991821 23.49569458 -32.29991821 23.49569458 -31.58569336 22.98120117 C-21.02164464 15.3686249 -10.48703914 7.71833707 0 0 Z " fill="#20202B" transform="translate(242,209)"/>
<path d="M0 0 C4.08563666 0.58505537 6.60424135 2.76246697 9.8125 5.25 C10.87584774 6.06699793 11.93964809 6.88340712 13.00390625 7.69921875 C13.99261719 8.45847656 14.98132813 9.21773437 16 10 C18.31759999 11.69080333 20.65474672 13.34766246 23 15 C20.27946993 16.36026504 19.25684318 15.63806043 16.375 14.75 C9.01655542 12.62379165 1.53339528 11.33275876 -6 10 C-2.375 7 -2.375 7 1 7 C1.33 5.68 1.66 4.36 2 3 C1.01 2.67 0.02 2.34 -1 2 C-0.67 1.34 -0.34 0.68 0 0 Z " fill="#1E202A" transform="translate(202,160)"/>
<path d="M0 0 C-2.05927956 0.98592155 -4.12256688 1.96347494 -6.1875 2.9375 C-7.33605469 3.48277344 -8.48460937 4.02804688 -9.66796875 4.58984375 C-12.53963696 5.80516875 -14.9071509 6.70156719 -18 7 C-18.804375 6.505 -19.60875 6.01 -20.4375 5.5 C-23.80772684 3.52718429 -25.24033188 4.18909119 -29 5 C-31.67402843 5.09670989 -34.32304367 5.04615442 -37 5 C-37 4.67 -37 4.34 -37 4 C-32.37507588 3.2595096 -27.74867433 2.52941308 -23.12060547 1.80883789 C-21.54691547 1.56233094 -19.97366425 1.3130055 -18.40087891 1.06079102 C-16.13814402 0.69843897 -13.87401709 0.34630212 -11.609375 -0.00390625 C-10.90818542 -0.11843643 -10.20699585 -0.23296661 -9.48455811 -0.35096741 C-6.07142613 -0.86873558 -3.28275184 -1.21079076 0 0 Z " fill="#3C3D48" transform="translate(233,191)"/>
<path d="M0 0 C0 4.34296342 -2.63989078 6.45473214 -5.375 9.5625 C-6.13683594 10.44711914 -6.13683594 10.44711914 -6.9140625 11.34960938 C-8.88574686 13.630018 -10.86783709 15.86783709 -13 18 C-12.95875 17.21625 -12.9175 16.4325 -12.875 15.625 C-12.71271266 12.83883881 -12.71271266 12.83883881 -15 11 C-10.05 7.37 -5.1 3.74 0 0 Z " fill="#21202E" transform="translate(242,209)"/>
<path d="M0 0 C2 2 2 2 2.375 4.875 C2 8 2 8 0.39746094 10.17089844 C-2.79771462 12.60860264 -4.74565727 12.4606025 -8.734375 12.390625 C-10.02988281 12.37773437 -11.32539063 12.36484375 -12.66015625 12.3515625 C-14.02344824 12.31814366 -15.38672949 12.28428391 -16.75 12.25 C-18.12888064 12.22992707 -19.50778912 12.21167767 -20.88671875 12.1953125 C-24.25851744 12.14815448 -27.62890687 12.08234538 -31 12 C-31 11.67 -31 11.34 -31 11 C-29.78884521 10.970271 -29.78884521 10.970271 -28.55322266 10.93994141 C-24.91014125 10.84494101 -21.26765314 10.73516088 -17.625 10.625 C-16.35398437 10.5940625 -15.08296875 10.563125 -13.7734375 10.53125 C-12.56171875 10.49257813 -11.35 10.45390625 -10.1015625 10.4140625 C-8.98088379 10.3826416 -7.86020508 10.3512207 -6.70556641 10.31884766 C-3.85289588 10.26588797 -3.85289588 10.26588797 -2 8 C-1.32707499 6.03309626 -1.32707499 6.03309626 -0.875 3.875 C-0.58625 2.59625 -0.2975 1.3175 0 0 Z " fill="#A6A3BC" transform="translate(290,266)"/>
<path d="M0 0 C0.5775 0.226875 1.155 0.45375 1.75 0.6875 C0.9375 4.125 0.9375 4.125 -0.25 7.6875 C-3.53976808 8.78408936 -4.96303767 8.48703138 -8.25 7.6875 C-6.86345583 3.41232214 -5.12511737 -0.71182186 0 0 Z " fill="#1C1A27" transform="translate(228.25,221.3125)"/>
<path d="M0 0 C3.61861111 5.42791666 3.11082539 11.68295272 3 18 C1.10786631 15.61426621 -0.02391783 13.92824652 -1 11 C-0.67 10.34 -0.34 9.68 0 9 C-0.66 9 -1.32 9 -2 9 C-2.33 10.32 -2.66 11.64 -3 13 C-4 11 -4 11 -3.22265625 8.3984375 C-2.83980469 7.40070313 -2.45695313 6.40296875 -2.0625 5.375 C-1.68222656 4.37210938 -1.30195313 3.36921875 -0.91015625 2.3359375 C-0.60980469 1.56507813 -0.30945313 0.79421875 0 0 Z " fill="#3D3B4A" transform="translate(252,224)"/>
<path d="M0 0 C0.33 0.66 0.66 1.32 1 2 C1.66 2 2.32 2 3 2 C3.33 1.34 3.66 0.68 4 0 C5.48280196 0.78483659 6.9611498 1.57809334 8.4375 2.375 C9.67306641 3.03628906 9.67306641 3.03628906 10.93359375 3.7109375 C13 5 13 5 14 7 C8.72 5.68 3.44 4.36 -2 3 C-1.34 2.67 -0.68 2.34 0 2 C0 1.34 0 0.68 0 0 Z " fill="#252932" transform="translate(211,169)"/>
<path d="M0 0 C-5.445 2.475 -5.445 2.475 -11 5 C-12.32 3.68 -13.64 2.36 -15 1 C-13.25215171 0.63536268 -11.50159498 0.2836922 -9.75 -0.0625 C-8.28820312 -0.35833984 -8.28820312 -0.35833984 -6.796875 -0.66015625 C-4 -1 -4 -1 0 0 Z " fill="#4C4C56" transform="translate(233,191)"/>
<path d="M0 0 C-0.75 2.4375 -0.75 2.4375 -2 5 C-5.32002605 6.66001303 -8.47880922 5.72024357 -12 5 C-9.82600171 0.65200343 -4.43891837 0 0 0 Z " fill="#E3E7EE" transform="translate(196,208)"/>
<path d="M0 0 C1.94566951 3.47547073 2.07637127 5.12506344 1 9 C0.01 9 -0.98 9 -2 9 C-4.68767578 11.43750025 -4.68767578 11.43750025 -7 14 C-5.23570801 9.02790438 -2.6060834 4.56561939 0 0 Z " fill="#D4E3E5" transform="translate(189,127)"/>
<path d="M0 0 C1 4 1 4 0 6 C-0.66 6 -1.32 6 -2 6 C-2.0825 6.598125 -2.165 7.19625 -2.25 7.8125 C-3.20455872 10.5966296 -4.57132271 11.43311142 -7 13 C-7.66 12.67 -8.32 12.34 -9 12 C-6.03 8.04 -3.06 4.08 0 0 Z " fill="#D8D7E4" transform="translate(230,225)"/>
<path d="M0 0 C1.32 0.99 2.64 1.98 4 3 C3.25 4.9375 3.25 4.9375 2 7 C-0.0625 7.625 -0.0625 7.625 -2 8 C-2.33 8.66 -2.66 9.32 -3 10 C-3.66 9.67 -4.32 9.34 -5 9 C-3.35 6.03 -1.7 3.06 0 0 Z " fill="#DAE9EC" transform="translate(162,173)"/>
<path d="M0 0 C1.60875 0.185625 1.60875 0.185625 3.25 0.375 C3.25 0.705 3.25 1.035 3.25 1.375 C1.6 1.705 -0.05 2.035 -1.75 2.375 C-2.08 3.365 -2.41 4.355 -2.75 5.375 C-3.41 5.375 -4.07 5.375 -4.75 5.375 C-5.1521875 6.5815625 -5.1521875 6.5815625 -5.5625 7.8125 C-6.1503125 9.0809375 -6.1503125 9.0809375 -6.75 10.375 C-7.74 10.705 -8.73 11.035 -9.75 11.375 C-5.94512195 0.5945122 -5.94512195 0.5945122 0 0 Z " fill="#CCD8DC" transform="translate(199.75,115.625)"/>
<path d="M0 0 C1.9375 1.4375 1.9375 1.4375 2.8125 4.375 C2.9375 7.4375 2.9375 7.4375 0.9375 10.4375 C-0.7125 7.1375 -2.3625 3.8375 -4.0625 0.4375 C-2.0625 -0.5625 -2.0625 -0.5625 0 0 Z " fill="#1F222C" transform="translate(212.0625,123.5625)"/>
<path d="M0 0 C0 3.60053261 -1.17763629 5.08812377 -3.48828125 7.76953125 C-5 9 -5 9 -8.3125 9.375 C-9.199375 9.25125 -10.08625 9.1275 -11 9 C-7.67149253 5.40521193 -4.01028669 2.77635232 0 0 Z " fill="#383744" transform="translate(242,209)"/>
<path d="M0 0 C0.66 0.33 1.32 0.66 2 1 C1.34 2.98 0.68 4.96 0 7 C-1.32 7 -2.64 7 -4 7 C-2.79618552 4.50638429 -1.54571278 2.31856917 0 0 Z " fill="#DBD9E7" transform="translate(194,270)"/>
<path d="M0 0 C0.99 0 1.98 0 3 0 C2.25 2.9375 2.25 2.9375 1 6 C-1.125 6.875 -1.125 6.875 -3 7 C-1.125 2.25 -1.125 2.25 0 0 Z " fill="#D9E3E7" transform="translate(114,255)"/>
<path d="M0 0 C0.66 0 1.32 0 2 0 C2.33 1.98 2.66 3.96 3 6 C2.01 6 1.02 6 0 6 C-0.66 6.66 -1.32 7.32 -2 8 C-2.66 7.34 -3.32 6.68 -4 6 C-3.525625 5.566875 -3.05125 5.13375 -2.5625 4.6875 C-0.76313043 2.97690387 -0.76313043 2.97690387 0 0 Z " fill="#DBD9E6" transform="translate(243,208)"/>
<path d="M0 0 C0.33 0 0.66 0 1 0 C0.979375 1.051875 0.95875 2.10375 0.9375 3.1875 C0.98896802 6.32704904 1.26517187 8.96883396 2 12 C1.34 12 0.68 12 0 12 C-1.91384609 8.49128216 -2.04276246 7.18632214 -1.125 3.1875 C-0.75375 2.135625 -0.3825 1.08375 0 0 Z " fill="#2E2C3A" transform="translate(259,201)"/>
<path d="M0 0 C1.98 0 3.96 0 6 0 C5 3 5 3 2.9375 4.1875 C2.298125 4.455625 1.65875 4.72375 1 5 C0.67 3.35 0.34 1.7 0 0 Z " fill="#E1E1EB" transform="translate(217,222)"/>
<path d="M0 0 C0.66 0.33 1.32 0.66 2 1 C0.02 5.455 0.02 5.455 -2 10 C-2.33 10 -2.66 10 -3 10 C-3 7.69 -3 5.38 -3 3 C-2.34 3 -1.68 3 -1 3 C-0.67 2.01 -0.34 1.02 0 0 Z " fill="#262B34" transform="translate(148,194)"/>
<path d="M0 0 C1.32 1.32 2.64 2.64 4 4 C3.67 4.66 3.34 5.32 3 6 C1.35 5.67 -0.3 5.34 -2 5 C-1.34 3.35 -0.68 1.7 0 0 Z " fill="#151420" transform="translate(222,224)"/>
<path d="M0 0 C0.66 0 1.32 0 2 0 C2 0.66 2 1.32 2 2 C3.32 2.33 4.64 2.66 6 3 C3.69 3.66 1.38 4.32 -1 5 C-0.67 3.35 -0.34 1.7 0 0 Z " fill="#2C2D37" transform="translate(178,210)"/>
<path d="M0 0 C0.99 0.33 1.98 0.66 3 1 C0.53721199 3.46278801 -1.70676982 3.99771255 -5 5 C-5.33 4.01 -5.66 3.02 -6 2 C-3.50907189 0.75453595 -2.58919267 1.2232422 0 2 C0 1.34 0 0.68 0 0 Z " fill="#33333D" transform="translate(199,203)"/>
</svg>
