<?xml version="1.0" encoding="UTF-8"?>
<svg version="1.1" xmlns="http://www.w3.org/2000/svg" width="400" height="400">
<path d="M0 0 C132 0 264 0 400 0 C400 132 400 264 400 400 C268 400 136 400 0 400 C0 268 0 136 0 0 Z " fill="#000000" transform="translate(0,0)"/>
<path d="M0 0 C9.82047116 6.0259117 16.22377676 13.37625279 20.9375 23.875 C21.34137939 24.74415039 21.34137939 24.74415039 21.75341797 25.63085938 C24.1249833 31.19680666 24.3907656 36.24963715 24.3125 42.25 C24.32410156 43.13171875 24.33570313 44.0134375 24.34765625 44.921875 C24.29033165 57.95366851 19.25439846 69.56974059 10.4375 79.125 C0.66137442 88.41305879 -11.95211154 93.28116984 -25.375 93.1875 C-26.21732178 93.18186035 -27.05964355 93.1762207 -27.92749023 93.17041016 C-41.55024334 92.90440763 -52.02985689 87.37568979 -61.9609375 78.12890625 C-71.92195396 67.44580867 -75.70159807 55.20760943 -75.53320312 40.8828125 C-75.0177836 27.15291361 -69.27548341 15.56569274 -59.375 6.0625 C-42.31649543 -8.46978328 -19.49226759 -10.51460242 0 0 Z " fill="#FDFDFD" transform="translate(173.0625,147.125)"/>
<path d="M0 0 C11.42868783 0.04103658 21.3328087 3.20722087 32 7 C33.64355469 7.57234375 33.64355469 7.57234375 35.3203125 8.15625 C47.3624801 12.74999241 58.56293315 20.03899667 67.84765625 28.9375 C69.8050107 30.81315 71.82758905 32.48938253 73.9375 34.1875 C91.49556375 49.58184276 101.90625519 72.68013636 107 95 C107.17877686 95.71325439 107.35755371 96.42650879 107.54174805 97.16137695 C109.27166364 104.6535682 109.34653352 112.02324811 109.3125 119.6875 C109.31001251 120.35496246 109.30752502 121.02242493 109.30496216 121.71011353 C109.11942957 153.84869459 95.89835341 181.78153309 74 205 C73.37609375 205.68835938 72.7521875 206.37671875 72.109375 207.0859375 C52.40334498 228.0339442 21.71612604 239.08667789 -6.484375 240.27734375 C-22.39439518 240.68157857 -37.05385566 238.6731993 -52 233 C-52 232.67 -52 232.34 -52 232 C-50.88310791 231.97812622 -50.88310791 231.97812622 -49.74365234 231.95581055 C-30.14103808 231.73152477 -30.14103808 231.73152477 -11 228 C-9.26943359 227.52626953 -9.26943359 227.52626953 -7.50390625 227.04296875 C8.08574341 222.37432234 22.52042076 214.40914676 35 204 C36.19302734 203.03320312 36.19302734 203.03320312 37.41015625 202.046875 C43.40528309 196.98752267 48.21582727 191.19379505 53 185 C53.680625 184.15824219 54.36125 183.31648437 55.0625 182.44921875 C73.35455178 158.90534742 80.02673666 125.80443511 76.53515625 96.578125 C72.69602018 70.04372955 60.23975175 47.37348403 42 28 C41.44957031 27.38511719 40.89914063 26.77023438 40.33203125 26.13671875 C29.8922781 14.92365055 14.28062718 6.32734334 0 1 C0 0.67 0 0.34 0 0 Z " fill="#FBFBFB" transform="translate(195,79)"/>
<path d="M0 0 C132 0 264 0 400 0 C400 132 400 264 400 400 C268 400 136 400 0 400 C0 268 0 136 0 0 Z M3 3 C3 133.02 3 263.04 3 397 C133.02 397 263.04 397 397 397 C397 266.98 397 136.96 397 3 C266.98 3 136.96 3 3 3 Z " fill="#191919" transform="translate(0,0)"/>
<path d="M0 0 C6.27 0 12.54 0 19 0 C18.34 0.66 17.68 1.32 17 2 C17.99 2.99 18.98 3.98 20 5 C16.94371936 5.97812873 15.14722553 6.00835683 12.109375 5.00390625 C11.40039062 4.77509766 10.69140625 4.54628906 9.9609375 4.31054688 C9.23132813 4.06369141 8.50171875 3.81683594 7.75 3.5625 C7.00492188 3.31951172 6.25984375 3.07652344 5.4921875 2.82617188 C3.65841765 2.22667019 1.82877996 1.61455513 0 1 C0 0.67 0 0.34 0 0 Z " fill="#B7B7B7" transform="translate(143,311)"/>
<path d="M0 0 C4.29 0.33 8.58 0.66 13 1 C11 2 9 3 7 4 C4.64018187 3.06421005 2.30368736 2.06652192 0 1 C0 0.67 0 0.34 0 0 Z " fill="#CACACA" transform="translate(195,79)"/>
<path d="M0 0 C3.3 0 6.6 0 10 0 C10 0.99 10 1.98 10 3 C6.7 2.34 3.4 1.68 0 1 C0 0.67 0 0.34 0 0 Z " fill="#F0F0F0" transform="translate(146,312)"/>
</svg>
