<?xml version="1.0" encoding="UTF-8"?>
<svg version="1.1" xmlns="http://www.w3.org/2000/svg" width="400" height="400">
<path d="M0 0 C132 0 264 0 400 0 C400 132 400 264 400 400 C268 400 136 400 0 400 C0 268 0 136 0 0 Z " fill="#FEFEFE" transform="translate(0,0)"/>
<path d="M0 0 C0.86517242 0.00109772 1.73034485 0.00219543 2.62173462 0.00332642 C15.63506356 0.05079557 27.72009212 0.83202979 40 5.5 C41.17691406 5.93054688 42.35382813 6.36109375 43.56640625 6.8046875 C46.43775864 7.93913593 49.21611377 9.16780643 52 10.5 C53.04607422 10.97373047 53.04607422 10.97373047 54.11328125 11.45703125 C83.80309763 25.43920931 105.06007929 51.9547514 116.22021484 82.31005859 C116.47754395 83.03273926 116.73487305 83.75541992 117 84.5 C117.34538818 85.46993896 117.34538818 85.46993896 117.69775391 86.45947266 C124.17194165 105.89200385 125.3773571 139.74528579 116 158.5 C115.34 158.5 114.68 158.5 114 158.5 C112.66015625 156.91796875 112.66015625 156.91796875 111.0625 154.6875 C103.65178226 144.91394472 94.5687383 137.08712725 85 129.5 C83.14351156 127.98200174 81.28933986 126.46116571 79.4375 124.9375 C76.02082072 122.13939915 72.5848838 119.36943126 69.125 116.625 C64.56653974 112.99565266 60.13164552 109.23352159 55.70483398 105.44604492 C52.02379841 102.31394054 48.26130591 99.37847442 44.29296875 96.62109375 C43.86628906 96.25113281 43.43960938 95.88117188 43 95.5 C43 94.84 43 94.18 43 93.5 C42.41822998 93.2328418 41.83645996 92.96568359 41.23706055 92.69042969 C38.95110565 91.47398136 37.17893472 90.12607297 35.20703125 88.453125 C34.49353516 87.855 33.78003906 87.256875 33.04492188 86.640625 C31.57572008 85.39636661 30.10695799 84.15158881 28.63867188 82.90625 C14.73124954 71.25240281 1.44963421 64.80407913 -16.91699219 66.24316406 C-21.91512807 66.85943679 -26.41924316 68.47820016 -31 70.5 C-32.03125 70.9125 -33.0625 71.325 -34.125 71.75 C-45.87110248 78.89980151 -55.45286488 88.91481069 -59.25 102.375 C-61.84571254 116.01428952 -60.85120174 130.65235799 -53.6875 142.75 C-52.81296861 144.01499494 -51.91580204 145.26455515 -51 146.5 C-50.46246094 147.26183594 -49.92492187 148.02367187 -49.37109375 148.80859375 C-45.70932544 153.79744588 -42.11174328 157.05739738 -37 160.5 C-37 161.16 -37 161.82 -37 162.5 C-35.7934375 162.9021875 -35.7934375 162.9021875 -34.5625 163.3125 C-33.716875 163.704375 -32.87125 164.09625 -32 164.5 C-31.67 165.49 -31.34 166.48 -31 167.5 C-29.6853993 168.20288494 -28.34749801 168.86244895 -27 169.5 C-25.28286105 170.81638043 -23.59826524 172.17567542 -21.9375 173.5625 C-20.96296875 174.37203125 -19.9884375 175.1815625 -18.984375 176.015625 C-17.99953125 176.83546875 -17.0146875 177.6553125 -16 178.5 C-14.23012038 179.93867407 -12.45929859 181.3761899 -10.6875 182.8125 C-5.67523786 186.90885237 -0.75597259 191.10723931 4.1418457 195.33911133 C7.37621189 198.12973683 10.64701119 200.85146649 14 203.5 C39.78059072 223.99226442 39.78059072 223.99226442 42.75 235.375 C43.59509205 245.93865061 43.44211207 254.21736321 36.56640625 262.68359375 C30.60459651 269.59691427 24.10351322 273.85838286 15 275.5 C-1.7757656 275.5 -11.67786381 266.43105567 -24.03125 256.00390625 C-26.83250692 253.64126719 -29.65892072 251.31449993 -32.5 249 C-36.35259703 245.85592656 -40.18309436 242.68731295 -44 239.5 C-58.62105809 227.26910157 -58.62105809 227.26910157 -73.625 215.515625 C-74.8625 214.57976562 -74.8625 214.57976562 -76.125 213.625 C-77.24261719 212.79355469 -77.24261719 212.79355469 -78.3828125 211.9453125 C-78.91648438 211.46835938 -79.45015625 210.99140625 -80 210.5 C-80 209.84 -80 209.18 -80 208.5 C-80.57234375 208.24992188 -81.1446875 207.99984375 -81.734375 207.7421875 C-99.63465815 197.92789432 -110.43171 169.990563 -116 151.5 C-121.68769411 127.78625751 -120.32425728 105.85299674 -114 82.5 C-113.74089844 81.51386719 -113.48179688 80.52773437 -113.21484375 79.51171875 C-111.78678131 74.36913325 -109.85304555 70.01586351 -107 65.5 C-106.45601562 64.56671875 -105.91203125 63.6334375 -105.3515625 62.671875 C-88.13811731 33.58466557 -63.44011639 13.21457522 -31 3.5 C-30.16774902 3.23074707 -29.33549805 2.96149414 -28.47802734 2.68408203 C-19.04877851 -0.07014339 -9.73889431 -0.05059016 0 0 Z " fill="#71A9F4" transform="translate(197,19.5)"/>
<path d="M0 0 C2.48289126 2.18431573 4.91715233 4.41388935 7.34765625 6.65625 C10.75362146 9.66593944 14.34839034 12.39166093 17.97216797 15.12841797 C22.4931068 18.56169152 26.81257854 22.19139708 31.11767578 25.88964844 C34.87976023 29.10198569 38.74053615 32.14373941 42.6875 35.125 C47.47237234 38.74355529 51.94398275 42.58660838 56.33984375 46.66796875 C58.31967891 48.40359517 60.27144953 49.98680485 62.37890625 51.55078125 C70.22027275 57.37159449 76.32726924 63.25384137 81.85302734 71.32617188 C82.98659176 72.98043276 84.15919191 74.60772346 85.33203125 76.234375 C102.07609952 100.10538749 108.83821041 131.68795894 104.41796875 160.40234375 C103.74536059 163.6574795 102.92181667 166.80810208 102 170 C101.70996094 171.41732422 101.70996094 171.41732422 101.4140625 172.86328125 C95.35145195 201.95593836 74.54524893 228.78917119 50 245 C40.59616166 250.8169128 30.46884478 255.46789357 20 259 C18.78570312 259.41507812 17.57140625 259.83015625 16.3203125 260.2578125 C-10.78293736 268.2989518 -43.07678702 264.42563754 -68 252 C-68.60247559 251.70158203 -69.20495117 251.40316406 -69.82568359 251.09570312 C-76.71606686 247.64011448 -83.07207793 243.92247946 -89 239 C-89.50112305 238.5968457 -90.00224609 238.19369141 -90.51855469 237.77832031 C-99.40308286 230.61635501 -107.016007 223.02637078 -114 214 C-114.57105469 213.26652344 -115.14210938 212.53304687 -115.73046875 211.77734375 C-132.78607161 188.04582127 -140.24272856 155.20188813 -135.72460938 126.48828125 C-135.45874023 124.88533203 -135.45874023 124.88533203 -135.1875 123.25 C-134.9390332 121.62384766 -134.9390332 121.62384766 -134.68554688 119.96484375 C-133.75413043 114.20763566 -132.60629852 109.22753286 -130 104 C-129.46375 104.68835938 -128.9275 105.37671875 -128.375 106.0859375 C-125.69291426 109.37678613 -122.87740353 112.50543875 -120 115.625 C-119.47921875 116.19734375 -118.9584375 116.7696875 -118.421875 117.359375 C-116.24432601 119.72388527 -114.20804513 121.84465051 -111.625 123.7734375 C-111.08875 124.17820313 -110.5525 124.58296875 -110 125 C-110 125.66 -110 126.32 -110 127 C-109.443125 127.268125 -108.88625 127.53625 -108.3125 127.8125 C-103.37856916 130.34614016 -99.92313386 133.07121321 -96 137 C-94.03670936 138.73374497 -92.06710604 140.44098296 -90.0625 142.125 C-89.50183838 142.59800537 -88.94117676 143.07101074 -88.36352539 143.55834961 C-83.71240449 147.45673264 -78.95705846 151.21154615 -74.16894531 154.93945312 C-69.31487719 158.72654467 -64.58276276 162.6388245 -59.8671875 166.59765625 C-56.18691973 169.68125935 -52.47105092 172.71973537 -48.75 175.75390625 C-46.80824501 177.33985671 -44.8711833 178.93156174 -42.9375 180.52734375 C-41.9475 181.34332031 -40.9575 182.15929687 -39.9375 183 C-39.03902344 183.7425 -38.14054687 184.485 -37.21484375 185.25 C-35.12837766 187.02064794 -35.12837766 187.02064794 -33 188 C-33 188.66 -33 189.32 -33 190 C-32.30132812 190.27585937 -31.60265625 190.55171875 -30.8828125 190.8359375 C-28.94614005 191.61795429 -27.02385184 192.43648902 -25.1171875 193.2890625 C-11.72735437 198.80631904 2.05763691 199.15108235 15.55175781 193.69580078 C21.50932876 191.03025155 26.34374596 187.53113397 31 183 C31.55816406 182.48050781 32.11632812 181.96101562 32.69140625 181.42578125 C41.35261927 172.44797037 45.83840185 159.6029336 46.375 147.375 C46.05466567 132.58309141 40.61354939 120.17197527 30 110 C28.13614014 108.2588312 26.26100948 106.52965188 24.375 104.8125 C23.43398437 103.95269531 22.49296875 103.09289062 21.5234375 102.20703125 C19.01256804 99.91431852 19.01256804 99.91431852 16 98 C16 97.34 16 96.68 16 96 C15.41081787 95.72470459 14.82163574 95.44940918 14.21459961 95.16577148 C12.09624439 94.05066332 10.41370814 92.86085207 8.56640625 91.34765625 C7.92421143 90.82413574 7.2820166 90.30061523 6.62036133 89.76123047 C5.94126709 89.20064941 5.26217285 88.64006836 4.5625 88.0625 C3.85311279 87.48129395 3.14372559 86.90008789 2.4128418 86.30126953 C-3.58049823 81.37790492 -9.51244728 76.38370808 -15.41455078 71.3515625 C-18.14764786 69.02165405 -20.88547778 66.6973484 -23.625 64.375 C-24.16519775 63.91665771 -24.70539551 63.45831543 -25.26196289 62.98608398 C-28.68161204 60.09229582 -32.1407798 57.25358138 -35.625 54.4375 C-37.41862329 52.96070652 -39.21027184 51.48151159 -41 50 C-41.96292969 49.22140625 -42.92585938 48.4428125 -43.91796875 47.640625 C-51.67820218 41.06380099 -56.98328735 34.59811453 -58.56640625 24.32421875 C-59.1101132 12.9989186 -55.35675952 4.47778954 -48 -4 C-32.33709934 -17.73993068 -14.44519889 -11.60485079 0 0 Z " fill="#9C9CEA" transform="translate(214,117)"/>
<path d="M0 0 C2.48289126 2.18431573 4.91715233 4.41388935 7.34765625 6.65625 C10.75362146 9.66593944 14.34839034 12.39166093 17.97216797 15.12841797 C22.4931068 18.56169152 26.81257854 22.19139708 31.11767578 25.88964844 C34.87976023 29.10198569 38.74053615 32.14373941 42.6875 35.125 C47.47237234 38.74355529 51.94398275 42.58660838 56.33984375 46.66796875 C58.31967891 48.40359517 60.27144953 49.98680485 62.37890625 51.55078125 C70.22027275 57.37159449 76.32726924 63.25384137 81.85302734 71.32617188 C82.98659176 72.98043276 84.15919191 74.60772346 85.33203125 76.234375 C93.08661413 87.3013405 104.63170361 107.39677436 102.68359375 121.25 C102 123 102 123 100 124 C98.26508457 117.98562653 96.87763094 112.43815126 96.28125 106.21875 C96.01026314 104.08096476 95.56644149 102.07695214 95 100 C94.01 100.33 93.02 100.66 92 101 C91.67 97.7 91.34 94.4 91 91 C89.35 90.34 87.7 89.68 86 89 C86 88.01 86 87.02 86 86 C85.01 86.66 84.02 87.32 83 88 C82.67 84.04 82.34 80.08 82 76 C78.2236068 75.7018576 78.2236068 75.7018576 76 77 C73.69327905 73.53991858 73.51865994 71.07518521 73 67 C72.67 66.34 72.34 65.68 72 65 C71.01 64.67 70.02 64.34 69 64 C69 62.35 69 60.7 69 59 C67.515 59.495 67.515 59.495 66 60 C64.515 59.505 64.515 59.505 63 59 C62.6278958 57.67696283 62.29369827 56.34262065 62 55 C61.34 54.67 60.68 54.34 60 54 C60 53.01 60 52.02 60 51 C58.3603125 51.061875 58.3603125 51.061875 56.6875 51.125 C53 51 53 51 50 49 C50.66 48.67 51.32 48.34 52 48 C50.40406384 45.37842577 50.40406384 45.37842577 48 43 C44.83151973 42.58190799 44.83151973 42.58190799 42 43 C42 41.02 42 39.04 42 37 C40.02 36.505 40.02 36.505 38 36 C38 35.34 38 34.68 38 34 C36.35 34.33 34.7 34.66 33 35 C32.67 33.35 32.34 31.7 32 30 C31.21625 29.9175 30.4325 29.835 29.625 29.75 C27 29 27 29 25.6875 26.9375 C25.460625 26.298125 25.23375 25.65875 25 25 C23.02 25.33 21.04 25.66 19 26 C18 24 18 24 17.5625 21 C17.27284006 17.89638412 17.27284006 17.89638412 15 16 C13.35 16.66 11.7 17.32 10 18 C9.505 14.535 9.505 14.535 9 11 C8.071875 10.773125 7.14375 10.54625 6.1875 10.3125 C2.43614589 8.76782478 1.90169594 7.44116407 0 4 C-0.99 4 -1.98 4 -3 4 C-3.28875 3.360625 -3.5775 2.72125 -3.875 2.0625 C-4.82823451 -0.15206079 -4.82823451 -0.15206079 -7 -1 C-7 -1.99 -7 -2.98 -7 -4 C-8.60397277 -4.16852247 -10.2081869 -4.33474886 -11.8125 -4.5 C-12.70582031 -4.5928125 -13.59914062 -4.685625 -14.51953125 -4.78125 C-17.08305099 -5.04392401 -17.08305099 -5.04392401 -20 -5 C-22.1875 -6 -22.1875 -6 -24 -7 C-24 -7.99 -24 -8.98 -24 -10 C-24.969375 -9.360625 -25.93875 -8.72125 -26.9375 -8.0625 C-29.93199686 -6.31571017 -32.2368019 -5.72280998 -35.6875 -5.5 C-38.81277562 -5.26653289 -39.77395242 -5.16656137 -42.375 -3.25 C-44.05082772 -1.01136735 -44.05082772 -1.01136735 -45.4375 1.5 C-47 4 -47 4 -49.5 5.75 C-53.11580505 9.00422455 -54.21142999 12.2474575 -55 17 C-55.13109408 23.38264301 -54.79709763 29.65593667 -51 35 C-50.319375 35.33 -49.63875 35.66 -48.9375 36 C-47.9784375 36.495 -47.9784375 36.495 -47 37 C-46.71125 37.94875 -46.4225 38.8975 -46.125 39.875 C-44.67114374 43.91348961 -42.58321686 44.81891148 -39 47 C-39 47.66 -39 48.32 -39 49 C-38.34 49 -37.68 49 -37 49 C-37 49.66 -37 50.32 -37 51 C-35.02 51 -33.04 51 -31 51 C-30.01 54.465 -30.01 54.465 -29 58 C-26.69 58.33 -24.38 58.66 -22 59 C-21.67 59.99 -21.34 60.98 -21 62 C-18.43988649 64.22325647 -15.82180887 66.11879409 -13 68 C-13 68.66 -13 69.32 -13 70 C-12.401875 70.0825 -11.80375 70.165 -11.1875 70.25 C-9 71 -9 71 -7.5625 72.9375 C-5.65321839 75.45775173 -3.96203028 76.03934153 -1 77 C-1 77.99 -1 78.98 -1 80 C-0.34 80 0.32 80 1 80 C1.99 81.485 1.99 81.485 3 83 C6.06556598 83.73343428 6.06556598 83.73343428 9 84 C9.66 85.98 10.32 87.96 11 90 C12.98 90.33 14.96 90.66 17 91 C17 91.66 17 92.32 17 93 C17.66 93.33 18.32 93.66 19 94 C19.625 96.0625 19.625 96.0625 20 98 C21.98 98.33 23.96 98.66 26 99 C26 100.65 26 102.3 26 104 C22.40634583 102.28484687 18.99783113 100.65192754 16 98 C16 97.34 16 96.68 16 96 C15.11622681 95.58705688 15.11622681 95.58705688 14.21459961 95.16577148 C12.09624439 94.05066332 10.41370814 92.86085207 8.56640625 91.34765625 C7.92421143 90.82413574 7.2820166 90.30061523 6.62036133 89.76123047 C5.60171997 88.92035889 5.60171997 88.92035889 4.5625 88.0625 C3.85311279 87.48129395 3.14372559 86.90008789 2.4128418 86.30126953 C-3.58049823 81.37790492 -9.51244728 76.38370808 -15.41455078 71.3515625 C-18.14764786 69.02165405 -20.88547778 66.6973484 -23.625 64.375 C-24.16519775 63.91665771 -24.70539551 63.45831543 -25.26196289 62.98608398 C-28.68161204 60.09229582 -32.1407798 57.25358138 -35.625 54.4375 C-37.41862329 52.96070652 -39.21027184 51.48151159 -41 50 C-41.96292969 49.22140625 -42.92585937 48.4428125 -43.91796875 47.640625 C-51.67820218 41.06380099 -56.98328735 34.59811453 -58.56640625 24.32421875 C-59.1101132 12.9989186 -55.35675952 4.47778954 -48 -4 C-32.33709934 -17.73993068 -14.44519889 -11.60485079 0 0 Z " fill="#76ACE8" transform="translate(214,117)"/>
<path d="M0 0 C3.4297456 0.63513807 6.70466931 1.87659181 10 3 C9.67 4.32 9.34 5.64 9 7 C9.99 7.33 10.98 7.66 12 8 C12 8.66 12 9.32 12 10 C12.99 9.34 13.98 8.68 15 8 C15.99 8 16.98 8 18 8 C17.7525 8.5775 17.505 9.155 17.25 9.75 C17.1675 10.4925 17.085 11.235 17 12 C18.85055798 14.23343204 20.40383083 15.70191542 23 17 C25.09821215 16.60061233 25.09821215 16.60061233 27 16 C27 16.928125 27 17.85625 27 18.8125 C27.62420721 22.06092614 27.62420721 22.06092614 29.84765625 23.06640625 C31.88326804 23.80956611 33.90300196 24.45544926 36 25 C35.505 26.485 35.505 26.485 35 28 C36.32 28.66 37.64 29.32 39 30 C39 30.66 39 31.32 39 32 C39.78375 31.938125 40.5675 31.87625 41.375 31.8125 C42.674375 31.9053125 42.674375 31.9053125 44 32 C44.66 32.99 45.32 33.98 46 35 C46 34.34 46 33.68 46 33 C47.32 33.66 48.64 34.32 50 35 C50 38 50 38 49 40 C49.99 40 50.98 40 52 40 C52.66 40.66 53.32 41.32 54 42 C55.31747324 42.69748583 56.64914193 43.36959957 58 44 C58 44.99 58 45.98 58 47 C60.64 47.33 63.28 47.66 66 48 C66.33 48.99 66.66 49.98 67 51 C67.66 51 68.32 51 69 51 C69.66 50.01 70.32 49.02 71 48 C74.625 47.8125 74.625 47.8125 78 48 C78 48.33 78 48.66 78 49 C83.63281599 49.2396943 88.54538831 48.38529821 94 47 C94.33 45.02 94.66 43.04 95 41 C94.34 40.67 93.68 40.34 93 40 C93.34069235 36.84859577 93.58076841 35.39218439 95.9375 33.1875 C98 32 98 32 100 32 C100 31.34 100 30.68 100 30 C100.66 30 101.32 30 102 30 C102.66 28.68 103.32 27.36 104 26 C104.66 26 105.32 26 106 26 C106 23.36 106 20.72 106 18 C106.33 18 106.66 18 107 18 C107.47079027 30.76364727 104.9223419 37.14255148 96.625 46.75 C88.49998474 53.7142988 79.64017901 55.32265374 69.18359375 54.58203125 C57.9900948 52.53561242 48.37703276 42.60110368 39.96875 35.50390625 C37.16749308 33.14126719 34.34107928 30.81449993 31.5 28.5 C26.6375696 24.53180968 21.81524848 20.51743428 17 16.4921875 C13.15281104 13.29621542 9.26802493 10.14772248 5.375 7.0078125 C3.12451913 5.10526782 1.04931207 3.11572496 -1 1 C-0.67 0.67 -0.34 0.34 0 0 Z " fill="#A4A1E1" transform="translate(133,240)"/>
<path d="M0 0 C0.85078125 0.32871094 0.85078125 0.32871094 1.71875 0.6640625 C0.3884375 1.128125 0.3884375 1.128125 -0.96875 1.6015625 C-4.96973223 4.09274011 -5.94299774 6.35714989 -7.9921875 10.46875 C-9.29116456 12.68094729 -10.3371181 13.70649668 -12.40625 15.1640625 C-16.3039153 18.55333667 -17.49912163 21.6068053 -18.28125 26.6640625 C-18.40437609 33.05020257 -18.08138719 39.31572127 -14.28125 44.6640625 C-13.600625 44.9940625 -12.92 45.3240625 -12.21875 45.6640625 C-11.2596875 46.1590625 -11.2596875 46.1590625 -10.28125 46.6640625 C-9.9925 47.6128125 -9.70375 48.5615625 -9.40625 49.5390625 C-7.95239374 53.57755211 -5.86446686 54.48297398 -2.28125 56.6640625 C-2.28125 57.3240625 -2.28125 57.9840625 -2.28125 58.6640625 C-1.62125 58.6640625 -0.96125 58.6640625 -0.28125 58.6640625 C-0.28125 59.3240625 -0.28125 59.9840625 -0.28125 60.6640625 C1.69875 60.6640625 3.67875 60.6640625 5.71875 60.6640625 C6.70875 64.1290625 6.70875 64.1290625 7.71875 67.6640625 C10.02875 67.9940625 12.33875 68.3240625 14.71875 68.6640625 C15.04875 69.6540625 15.37875 70.6440625 15.71875 71.6640625 C18.27886351 73.88731897 20.89694113 75.78285659 23.71875 77.6640625 C23.71875 78.3240625 23.71875 78.9840625 23.71875 79.6640625 C24.316875 79.7465625 24.915 79.8290625 25.53125 79.9140625 C27.71875 80.6640625 27.71875 80.6640625 29.15625 82.6015625 C31.06553161 85.12181423 32.75671972 85.70340403 35.71875 86.6640625 C35.71875 87.6540625 35.71875 88.6440625 35.71875 89.6640625 C36.37875 89.6640625 37.03875 89.6640625 37.71875 89.6640625 C38.70875 91.1490625 38.70875 91.1490625 39.71875 92.6640625 C42.78431598 93.39749678 42.78431598 93.39749678 45.71875 93.6640625 C46.37875 95.6440625 47.03875 97.6240625 47.71875 99.6640625 C49.69875 99.9940625 51.67875 100.3240625 53.71875 100.6640625 C53.71875 101.3240625 53.71875 101.9840625 53.71875 102.6640625 C54.37875 102.9940625 55.03875 103.3240625 55.71875 103.6640625 C56.34375 105.7265625 56.34375 105.7265625 56.71875 107.6640625 C58.69875 107.9940625 60.67875 108.3240625 62.71875 108.6640625 C62.71875 110.3140625 62.71875 111.9640625 62.71875 113.6640625 C59.12509583 111.94890937 55.71658113 110.31599004 52.71875 107.6640625 C52.71875 107.0040625 52.71875 106.3440625 52.71875 105.6640625 C51.83497681 105.25111938 51.83497681 105.25111938 50.93334961 104.82983398 C48.81499439 103.71472582 47.13245814 102.52491457 45.28515625 101.01171875 C44.64296143 100.48819824 44.0007666 99.96467773 43.33911133 99.42529297 C42.32046997 98.58442139 42.32046997 98.58442139 41.28125 97.7265625 C40.57186279 97.14535645 39.86247559 96.56415039 39.1315918 95.96533203 C33.13825177 91.04196742 27.20630272 86.04777058 21.30419922 81.015625 C18.57110214 78.68571655 15.83327222 76.3614109 13.09375 74.0390625 C12.55355225 73.58072021 12.01335449 73.12237793 11.45678711 72.65014648 C8.03713796 69.75635832 4.5779702 66.91764388 1.09375 64.1015625 C-0.69987329 62.62476902 -2.49152184 61.14557409 -4.28125 59.6640625 C-5.24417969 58.88546875 -6.20710937 58.106875 -7.19921875 57.3046875 C-14.95945218 50.72786349 -20.26453735 44.26217703 -21.84765625 33.98828125 C-22.38978385 22.69587877 -18.6615617 14.09870444 -11.28125 5.6640625 C-9.0625 3.828125 -9.0625 3.828125 -6.78125 2.2890625 C-6.0284375 1.76570313 -5.275625 1.24234375 -4.5 0.703125 C-2.28125 -0.3359375 -2.28125 -0.3359375 0 0 Z " fill="#86A8E6" transform="translate(177.28125,107.3359375)"/>
<path d="M0 0 C0.99 0.33 1.98 0.66 3 1 C-12.39374133 22.27803836 -33.24010691 36.64620553 -58 45 C-59.21429688 45.41507812 -60.42859375 45.83015625 -61.6796875 46.2578125 C-88.51313789 54.21890622 -121.37672201 50.75134039 -146 38 C-146.66 37.34 -147.32 36.68 -148 36 C-144.51277367 35.90036496 -141.37713054 36.08726202 -138 37 C-137.34 37.66 -136.68 38.32 -136 39 C-135.67 38.34 -135.34 37.68 -135 37 C-133.68 37.66 -132.36 38.32 -131 39 C-131 39.99 -131 40.98 -131 42 C-130.35933594 42.04898438 -129.71867187 42.09796875 -129.05859375 42.1484375 C-123.78803915 42.6040145 -119.03013712 43.3597379 -114 45 C-114 45.66 -114 46.32 -114 47 C-111.03 46.505 -111.03 46.505 -108 46 C-108 45.67 -108 45.34 -108 45 C-105.36 45 -102.72 45 -100 45 C-100 45.66 -100 46.32 -100 47 C-96.22887069 46.86125385 -92.45818555 46.71278907 -88.6875 46.5625 C-87.61564453 46.52318359 -86.54378906 46.48386719 -85.43945312 46.44335938 C-84.41142578 46.40146484 -83.38339844 46.35957031 -82.32421875 46.31640625 C-81.37635498 46.27974854 -80.42849121 46.24309082 -79.4519043 46.20532227 C-76.863829 46.08569813 -76.863829 46.08569813 -74 45 C-71.60835693 44.61856216 -69.21175762 44.26767307 -66.8125 43.9375 C-65.54019531 43.76089844 -64.26789063 43.58429688 -62.95703125 43.40234375 C-61.98121094 43.26957031 -61.00539063 43.13679688 -60 43 C-60 41.02 -60 39.04 -60 37 C-59.29875 37.165 -58.5975 37.33 -57.875 37.5 C-53.1195042 38.32704275 -49.15538799 38.72249558 -45 36 C-44.54625 35.443125 -44.0925 34.88625 -43.625 34.3125 C-42 33 -42 33 -38.8125 33.3125 C-37.884375 33.539375 -36.95625 33.76625 -36 34 C-35.7215625 33.13375 -35.7215625 33.13375 -35.4375 32.25 C-33.68567584 29.50801436 -31.59012183 28.44726163 -28.75390625 26.94921875 C-26.67389905 25.82351329 -24.84463132 24.47570506 -23 23 C-23.66 22.67 -24.32 22.34 -25 22 C-23.68 22 -22.36 22 -21 22 C-19.47890069 20.73026102 -19.47890069 20.73026102 -18 19 C-17.13375 18.34 -16.2675 17.68 -15.375 17 C-12.76050088 15.15144408 -12.76050088 15.15144408 -12 12 C-10.68 12 -9.36 12 -8 12 C-7.71125 11.2575 -7.4225 10.515 -7.125 9.75 C-4.1027027 2.36216216 -4.1027027 2.36216216 0 0 Z " fill="#C09CD5" transform="translate(292,331)"/>
<path d="M0 0 C-0.20625 0.66 -0.4125 1.32 -0.625 2 C-1.05768955 5.46151637 -0.44359609 7.827759 0.52734375 11.1328125 C1 13 1 13 1 16 C1.66 16.66 2.32 17.32 3 18 C3.495 19.175625 3.99 20.35125 4.5 21.5625 C5.58995587 25.06202674 5.58995587 25.06202674 8 26 C9.33332095 28.6666419 8.67102033 30.16680303 8 33 C11.09354597 33.99435406 12.90279155 33.87840996 16 33 C16.01417969 33.73605469 16.02835938 34.47210938 16.04296875 35.23046875 C16.29503901 41.6154847 16.29503901 41.6154847 19.375 47.0625 C21.21645217 48.42166708 23.09566221 49.73044148 25 51 C25.2165625 52.485 25.2165625 52.485 25.4375 54 C25.64884672 57.07185818 25.64884672 57.07185818 27.8125 58.25 C28.534375 58.4975 29.25625 58.745 30 59 C31.33333333 59.66666667 32.66666667 60.33333333 34 61 C34 61.99 34 62.98 34 64 C36.31 64.33 38.62 64.66 41 65 C41 66.65 41 68.3 41 70 C42.3921875 70.185625 42.3921875 70.185625 43.8125 70.375 C47 71 47 71 50 73 C52.33199388 73.07905064 54.66832622 73.08798769 57 73 C57 75.31 57 77.62 57 80 C47.24059453 77.04649571 39.68542039 71.07363867 32.33203125 64.171875 C30.28229442 62.26290737 28.17522015 60.51110008 26 58.75 C20.4705287 53.9495665 16.2948226 47.88559427 12 42 C11.58024902 41.44513916 11.16049805 40.89027832 10.72802734 40.31860352 C7.57927283 36.08119028 5.19836589 31.73035869 3 26.9375 C2.6596875 26.20378174 2.319375 25.47006348 1.96875 24.71411133 C-6 7.24285334 -6 7.24285334 -6 0 C-3 -1 -3 -1 0 0 Z " fill="#D098D4" transform="translate(87,287)"/>
<path d="M0 0 C0.33 0 0.66 0 1 0 C0.9278125 1.22074219 0.855625 2.44148438 0.78125 3.69921875 C-1.51858395 29.03467758 -1.51858395 29.03467758 5 53 C5.66 53.66 6.32 54.32 7 55 C6.7215625 56.2684375 6.7215625 56.2684375 6.4375 57.5625 C5.91522941 61.66605461 6.82757716 64.06600441 8.30859375 67.8515625 C9 70 9 70 9 74 C11.99332739 73.0022242 12.94766315 72.2477975 15 70 C14.97679688 70.73605469 14.95359375 71.47210938 14.9296875 72.23046875 C14.91164063 73.20628906 14.89359375 74.18210937 14.875 75.1875 C14.85179688 76.15042969 14.82859375 77.11335938 14.8046875 78.10546875 C15.0113271 81.16786767 15.61605968 83.27056215 17 86 C19.01735205 87.34410262 19.01735205 87.34410262 21 88 C21 88.99 21 89.98 21 91 C21.66 91.33 22.32 91.66 23 92 C22.9175 92.721875 22.835 93.44375 22.75 94.1875 C23.07941399 97.89340735 24.40311527 99.40311527 27 102 C27.99 102 28.98 102 30 102 C30 102.66 30 103.32 30 104 C30.99 104.495 30.99 104.495 32 105 C31.505 106.98 31.505 106.98 31 109 C10.67063939 93.75297954 1.21658064 63.06192738 -2.29223633 38.99560547 C-4.04080577 26.06895946 -3.40876261 12.62163453 0 0 Z " fill="#92A3E4" transform="translate(80,114)"/>
<path d="M0 0 C5.50500767 4.0585435 10.85751576 8.2633653 16.125 12.625 C16.85493164 13.22747559 17.58486328 13.82995117 18.33691406 14.45068359 C23.75796589 18.93841061 29.12387227 23.48750682 34.44580078 28.09228516 C37.57770984 30.80011138 40.7518875 33.43294335 44 36 C69.15675676 55.9963964 69.15675676 55.9963964 72 65 C71.75 68 71.75 68 71 70 C70.67 70 70.34 70 70 70 C69.80664062 69.38511719 69.61328125 68.77023438 69.4140625 68.13671875 C69.02347656 66.92435547 69.02347656 66.92435547 68.625 65.6875 C68.36976563 64.88699219 68.11453125 64.08648437 67.8515625 63.26171875 C67.01168189 60.77275472 67.01168189 60.77275472 65 58 C63.515 57.505 63.515 57.505 62 57 C61.67 56.01 61.34 55.02 61 54 C60.030625 53.525625 59.06125 53.05125 58.0625 52.5625 C54.89788363 50.94789981 54.12529972 50.26336918 53 47 C51.02 47.495 51.02 47.495 49 48 C49 46.02 49 44.04 49 42 C47.7934375 41.814375 47.7934375 41.814375 46.5625 41.625 C45.716875 41.41875 44.87125 41.2125 44 41 C43.67 40.34 43.34 39.68 43 39 C42.34 39 41.68 39 41 39 C39.375 37.5 39.375 37.5 38 36 C37.01 36.33 36.02 36.66 35 37 C34.67 36.34 34.34 35.68 34 35 C33.67 35 33.34 35 33 35 C33 33.02 33 31.04 33 29 C32.01 29 31.02 29 30 29 C28.3125 27.5 28.3125 27.5 27 26 C27 26.66 27 27.32 27 28 C26.34 28 25.68 28 25 28 C25 26.02 25 24.04 25 22 C24.05125 21.896875 23.1025 21.79375 22.125 21.6875 C19 21 19 21 17 18 C17 17.01 17 16.02 17 15 C15.68 15 14.36 15 13 15 C12.67 14.34 12.34 13.68 12 13 C11.01 13.66 10.02 14.32 9 15 C7 13 7 13 6 10 C4.12046931 8.06271623 4.12046931 8.06271623 2.4375 6.6875 C0.61180591 4.54429389 0.37189037 2.75198877 0 0 Z " fill="#8FA4E6" transform="translate(167,187)"/>
<path d="M0 0 C0.33 0 0.66 0 1 0 C1.47079027 12.76364727 -1.0776581 19.14255148 -9.375 28.75 C-14.86495856 33.45567876 -20.97370621 36.22187375 -28.30078125 35.8984375 C-34.64823298 35.35176702 -34.64823298 35.35176702 -37 33 C-36.34 32.01 -35.68 31.02 -35 30 C-31.375 29.8125 -31.375 29.8125 -28 30 C-28 30.33 -28 30.66 -28 31 C-22.36718401 31.2396943 -17.45461169 30.38529821 -12 29 C-11.67 27.02 -11.34 25.04 -11 23 C-11.66 22.67 -12.32 22.34 -13 22 C-12.65930765 18.84859577 -12.41923159 17.39218439 -10.0625 15.1875 C-8 14 -8 14 -6 14 C-6 13.34 -6 12.68 -6 12 C-5.34 12 -4.68 12 -4 12 C-3.34 10.68 -2.68 9.36 -2 8 C-1.34 8 -0.68 8 0 8 C0 5.36 0 2.72 0 0 Z " fill="#99A0E1" transform="translate(239,258)"/>
<path d="M0 0 C0.99 0.33 1.98 0.66 3 1 C3 1.66 3 2.32 3 3 C3.69867188 3.27585937 4.39734375 3.55171875 5.1171875 3.8359375 C7.05385995 4.61795429 8.97614816 5.43648902 10.8828125 6.2890625 C24.65375869 11.96335599 38.00186591 11.86601692 51.83740234 6.48706055 C55.72353907 4.83341822 58.82856924 2.77349458 62 0 C62.66 0.33 63.32 0.66 64 1 C63.34 1.99 62.68 2.98 62 4 C61.01 4 60.02 4 59 4 C58.67 4.99 58.34 5.98 58 7 C56.3364521 7.67441131 54.66933058 8.3400321 53 9 C50.72808584 11.02040748 50.72808584 11.02040748 49 13 C49.66 13.66 50.32 14.32 51 15 C49.35 15.33 47.7 15.66 46 16 C45.505 14.515 45.505 14.515 45 13 C41.96638777 12.92945088 39.23019428 12.95291481 36.25 13.5625 C34 14 34 14 32 13 C31.1028125 13.2784375 31.1028125 13.2784375 30.1875 13.5625 C27.27253131 14.14549374 25.6372887 13.24538633 23 12 C22.67 12.99 22.34 13.98 22 15 C19.03 14.67 16.06 14.34 13 14 C12.67 13.01 12.34 12.02 12 11 C11.01 10.34 10.02 9.68 9 9 C9 8.34 9 7.68 9 7 C6.36 7.33 3.72 7.66 1 8 C0.67 5.36 0.34 2.72 0 0 Z " fill="#AF9FDB" transform="translate(178,304)"/>
<path d="M0 0 C3.48722633 -0.09963504 6.62286946 0.08726202 10 1 C10.66 1.66 11.32 2.32 12 3 C12.33 2.34 12.66 1.68 13 1 C14.32 1.66 15.64 2.32 17 3 C17 3.99 17 4.98 17 6 C17.96099609 6.07347656 17.96099609 6.07347656 18.94140625 6.1484375 C24.21196085 6.6040145 28.96986288 7.3597379 34 9 C34 9.66 34 10.32 34 11 C35.98 10.67 37.96 10.34 40 10 C40 9.67 40 9.34 40 9 C42.64 9 45.28 9 48 9 C48 9.66 48 10.32 48 11 C48.65597168 10.95399658 49.31194336 10.90799316 49.98779297 10.8605957 C52.94937508 10.66187937 55.91189135 10.4869085 58.875 10.3125 C60.42380859 10.20325195 60.42380859 10.20325195 62.00390625 10.09179688 C62.99003906 10.03701172 63.97617188 9.98222656 64.9921875 9.92578125 C65.90339355 9.86817627 66.81459961 9.81057129 67.75341797 9.7512207 C68.49479004 9.83331787 69.23616211 9.91541504 70 10 C70.99 11.485 70.99 11.485 72 13 C46.86632135 13.52844545 24.84124597 13.82850238 2 2 C1.34 1.34 0.68 0.68 0 0 Z " fill="#D495D2" transform="translate(144,367)"/>
<path d="M0 0 C5.24214548 3.86571622 10.36827637 7.85664871 15.44140625 11.94140625 C17.09009258 13.26790655 18.74340879 14.58868305 20.40234375 15.90234375 C25.32556782 19.80421826 30.18416108 23.77922659 35 27.8125 C35.56436768 28.28083252 36.12873535 28.74916504 36.71020508 29.23168945 C39.2506861 31.37269212 41.14278883 33.21418324 43 36 C39.625 36.125 39.625 36.125 36 36 C33.64046906 33.64046906 33.50858587 32.22104383 33 29 C31.88625 28.773125 30.7725 28.54625 29.625 28.3125 C26 27 26 27 24.6875 24.4375 C24.3471875 23.2309375 24.3471875 23.2309375 24 22 C23.34 21.67 22.68 21.34 22 21 C22 20.34 22 19.68 22 19 C20.02 18.34 18.04 17.68 16 17 C15.34 17.66 14.68 18.32 14 19 C12.68 18.34 11.36 17.68 10 17 C10 15.02 10 13.04 10 11 C7.69 11.33 5.38 11.66 3 12 C3.99 10.68 4.98 9.36 6 8 C4.68 7.67 3.36 7.34 2 7 C2 6.34 2 5.68 2 5 C1.34 4.34 0.68 3.68 0 3 C0 2.01 0 1.02 0 0 Z " fill="#B09CDD" transform="translate(134,268)"/>
<path d="M0 0 C0.33 0 0.66 0 1 0 C0.835 1.11375 0.67 2.2275 0.5 3.375 C-1.79551421 25.09673152 2.30359717 39.94857054 16 57 C15.01 57.495 15.01 57.495 14 58 C14 57.34 14 56.68 14 56 C13.360625 55.731875 12.72125 55.46375 12.0625 55.1875 C10 54 10 54 9 51 C8.21625 50.9175 7.4325 50.835 6.625 50.75 C4 50 4 50 2.8984375 48.2265625 C2.00628595 46.01557824 1.45912861 43.96163668 1 41.625 C0.48991351 39.04724148 -0.10585372 36.70759425 -1.00268555 34.23022461 C-2.65223913 28.88744776 -2.60075574 23.49501956 -2.8125 17.9375 C-2.87630859 16.76638672 -2.94011719 15.59527344 -3.00585938 14.38867188 C-3.05162109 13.25880859 -3.09738281 12.12894531 -3.14453125 10.96484375 C-3.18940674 9.9399585 -3.23428223 8.91507324 -3.28051758 7.85913086 C-2.95370141 4.52810893 -1.95947092 2.6831479 0 0 Z " fill="#91ADE1" transform="translate(137,118)"/>
<path d="M0 0 C0.33 0 0.66 0 1 0 C1.05847045 3.85410207 1.09375405 7.70808865 1.125 11.5625 C1.14175781 12.64853516 1.15851563 13.73457031 1.17578125 14.85351562 C1.21098659 20.64479442 0.98923674 25.54134642 -1 31 C-1.66 30.01 -2.32 29.02 -3 28 C-3.66 28.66 -4.32 29.32 -5 30 C-5.66 29.67 -6.32 29.34 -7 29 C-6.125 22.125 -6.125 22.125 -5 21 C-4.75454002 17.99538798 -4.61594001 14.99175646 -4.4765625 11.98046875 C-3.95815748 8.7383128 -3.07647397 7.46480157 -1 5 C-0.28566879 2.35065178 -0.28566879 2.35065178 0 0 Z " fill="#68ADEE" transform="translate(316,139)"/>
<path d="M0 0 C8.91 0 17.82 0 27 0 C26.67 0.66 26.34 1.32 26 2 C22.7 2 19.4 2 16 2 C15.67 2.66 15.34 3.32 15 4 C12.525 3.505 12.525 3.505 10 3 C9.01 4.485 9.01 4.485 8 6 C5.2114711 6.22107787 2.65346819 6.28107535 -0.125 6.1875 C-0.87910156 6.17396484 -1.63320312 6.16042969 -2.41015625 6.14648438 C-4.27374127 6.11109985 -6.13695978 6.05729167 -8 6 C-8 5.34 -8 4.68 -8 4 C-8.66 3.67 -9.32 3.34 -10 3 C-6.7 2.67 -3.4 2.34 0 2 C0 1.34 0 0.68 0 0 Z " fill="#58B4F2" transform="translate(184,20)"/>
<path d="M0 0 C1.010625 0.556875 2.02125 1.11375 3.0625 1.6875 C3.701875 2.120625 4.34125 2.55375 5 3 C5 3.66 5 4.32 5 5 C2.625 5.625 2.625 5.625 0 6 C-0.66 5.34 -1.32 4.68 -2 4 C-2.99 4.495 -2.99 4.495 -4 5 C-4 4.01 -4 3.02 -4 2 C-6.475 1.505 -6.475 1.505 -9 1 C-9 -0.32 -9 -1.64 -9 -3 C-12.34252724 -3.07427838 -14.8035914 -3.06546953 -18 -2 C-20.26171875 -2.33984375 -20.26171875 -2.33984375 -22.6875 -2.9375 C-23.49574219 -3.13214844 -24.30398437 -3.32679687 -25.13671875 -3.52734375 C-25.75160156 -3.68332031 -26.36648437 -3.83929687 -27 -4 C-27 -4.66 -27 -5.32 -27 -6 C-16.65705152 -9.63918558 -8.93689904 -5.40084253 0 0 Z " fill="#67BAEA" transform="translate(257,34)"/>
<path d="M0 0 C1.65 0 3.3 0 5 0 C5.33 0.99 5.66 1.98 6 3 C6.99 3 7.98 3 9 3 C9.66 3.66 10.32 4.32 11 5 C12.31747324 5.69748583 13.64914193 6.36959957 15 7 C15 7.99 15 8.98 15 10 C17.64 10.33 20.28 10.66 23 11 C23.33 11.99 23.66 12.98 24 14 C28.29 14.66 32.58 15.32 37 16 C36.67 16.66 36.34 17.32 36 18 C33.95756745 17.91212085 31.91600387 17.80393311 29.875 17.6875 C28.16957031 17.60048828 28.16957031 17.60048828 26.4296875 17.51171875 C16.43071629 16.01984491 7.37260582 7.57556735 0 1 C0 0.67 0 0.34 0 0 Z " fill="#ACA7DD" transform="translate(176,277)"/>
<path d="M0 0 C0.66 0 1.32 0 2 0 C4.36214538 2.64846603 5.87172132 4.61516396 7 8 C9.00016466 9.20882096 9.00016466 9.20882096 11 10 C11 10.99 11 11.98 11 13 C11.66 13.33 12.32 13.66 13 14 C12.9175 14.721875 12.835 15.44375 12.75 16.1875 C13.07941399 19.89340735 14.40311527 21.40311527 17 24 C17.99 24 18.98 24 20 24 C20 24.66 20 25.32 20 26 C20.66 26.33 21.32 26.66 22 27 C21.67 28.32 21.34 29.64 21 31 C11.71958583 24.03968937 2.45515575 11.57799765 0 0 Z " fill="#9AA2E0" transform="translate(90,192)"/>
<path d="M0 0 C1.13688763 3.41066288 0.82419418 4.59269483 0.00390625 8.0234375 C-0.22546631 9.0343042 -0.45483887 10.0451709 -0.69116211 11.08666992 C-0.93745361 12.17181885 -1.18374512 13.25696777 -1.4375 14.375 C-4.94182111 30.82382996 -5.11172097 46.46898236 -2 63 C-2.99 63.495 -2.99 63.495 -4 64 C-4.51347647 60.73113962 -5.00817571 57.45968231 -5.5 54.1875 C-5.71462891 52.82334961 -5.71462891 52.82334961 -5.93359375 51.43164062 C-7.57511761 40.37089652 -7.01338141 30.258405 -5.1875 19.25 C-5.02185547 18.16589844 -4.85621094 17.08179688 -4.68554688 15.96484375 C-3.75413043 10.20763566 -2.60629852 5.22753286 0 0 Z " fill="#C2A6D9" transform="translate(84,221)"/>
<path d="M0 0 C0.33 0 0.66 0 1 0 C2.15452931 39.69094139 2.15452931 39.69094139 -5 54 C-5.66 54 -6.32 54 -7 54 C-6.7161296 51.45724602 -6.42316578 48.91608446 -6.125 46.375 C-6.04636719 45.66214844 -5.96773438 44.94929688 -5.88671875 44.21484375 C-5.37182917 39.89769265 -4.45854557 36.11633971 -3 32 C-0.93082399 25.15236717 -0.57971021 18.63073903 -0.375 11.5 C-0.31699219 9.83710938 -0.31699219 9.83710938 -0.2578125 8.140625 C-0.16424757 5.42724203 -0.07850517 2.71385339 0 0 Z " fill="#8FA6E4" transform="translate(317,247)"/>
<path d="M0 0 C0.53625 0.226875 1.0725 0.45375 1.625 0.6875 C1.05910156 0.91824219 0.49320313 1.14898438 -0.08984375 1.38671875 C-2.30541285 2.37184877 -4.35157555 3.34853202 -6.375 4.6875 C-7.50315365 7.3022267 -7.50315365 7.3022267 -7.375 9.6875 C-9.025 10.0175 -10.675 10.3475 -12.375 10.6875 C-12.375 10.0275 -12.375 9.3675 -12.375 8.6875 C-16.13169241 9.73102567 -17.23602291 10.47692866 -19.4375 13.8125 C-20.076875 14.76125 -20.71625 15.71 -21.375 16.6875 C-22.695 16.6875 -24.015 16.6875 -25.375 16.6875 C-27.5726539 17.97390246 -27.5726539 17.97390246 -29.625 19.6875 C-30.33140625 20.244375 -31.0378125 20.80125 -31.765625 21.375 C-32.29671875 21.808125 -32.8278125 22.24125 -33.375 22.6875 C-34.035 22.3575 -34.695 22.0275 -35.375 21.6875 C-26.94947425 14.17199379 -18.23982171 8.1567719 -8.375 2.6875 C-7.32054687 2.08808594 -6.26609375 1.48867188 -5.1796875 0.87109375 C-2.375 -0.3125 -2.375 -0.3125 0 0 Z " fill="#6DB3E9" transform="translate(151.375,29.3125)"/>
<path d="M0 0 C0.061875 0.61875 0.12375 1.2375 0.1875 1.875 C0.455625 2.57625 0.72375 3.2775 1 4 C2.64551962 4.71727778 4.31422289 5.38325228 6 6 C7.79068573 8.6860286 8.66055791 10.6626589 9.625 13.6875 C9.88539063 14.49574219 10.14578125 15.30398437 10.4140625 16.13671875 C10.60742188 16.75160156 10.80078125 17.36648437 11 18 C11.66 18 12.32 18 13 18 C14.19287411 21.87684087 15 24.91621923 15 29 C15.66 29 16.32 29 17 29 C16.34 30.32 15.68 31.64 15 33 C15 32.01 15 31.02 15 30 C14.34 30 13.68 30 13 30 C12.74089844 29.06994141 12.74089844 29.06994141 12.4765625 28.12109375 C10.18003222 20.883863 6.7258193 15.1962216 2.26611328 9.12866211 C1.08800718 7.47944461 0.03422485 5.74305229 -1 4 C-0.62182617 1.79467773 -0.62182617 1.79467773 0 0 Z " fill="#8BA5E5" transform="translate(246,222)"/>
<path d="M0 0 C3.83923 2.18885062 7.25269894 4.65873189 10.6875 7.4375 C11.64011719 8.19933594 12.59273438 8.96117187 13.57421875 9.74609375 C15.79092132 11.80573527 16.91678965 13.21912665 18 16 C17.34 16.66 16.68 17.32 16 18 C12.625 17.4375 12.625 17.4375 9 16 C7.75 12.4375 7.75 12.4375 7 9 C6.01 8.67 5.02 8.34 4 8 C3.66666667 6.66666667 3.33333333 5.33333333 3 4 C2.01 3.67 1.02 3.34 0 3 C0 2.01 0 1.02 0 0 Z " fill="#54B6F5" transform="translate(264,39)"/>
<path d="M0 0 C0.99 0.33 1.98 0.66 3 1 C-3.93567272 10.58685137 -12.00065888 19.55598017 -22 26 C-22.66 25.67 -23.32 25.34 -24 25 C-23.67 24.34 -23.34 23.68 -23 23 C-23.66 22.67 -24.32 22.34 -25 22 C-23.68 22 -22.36 22 -21 22 C-19.47890069 20.73026102 -19.47890069 20.73026102 -18 19 C-17.13375 18.34 -16.2675 17.68 -15.375 17 C-12.76050088 15.15144408 -12.76050088 15.15144408 -12 12 C-10.68 12 -9.36 12 -8 12 C-7.566875 10.88625 -7.566875 10.88625 -7.125 9.75 C-4.1027027 2.36216216 -4.1027027 2.36216216 0 0 Z " fill="#AD9ED6" transform="translate(292,331)"/>
<path d="M0 0 C0.47050781 0.40992188 0.94101563 0.81984375 1.42578125 1.2421875 C2.04839844 1.78101563 2.67101562 2.31984375 3.3125 2.875 C4.23482422 3.67550781 4.23482422 3.67550781 5.17578125 4.4921875 C7.13498212 6.1640447 7.13498212 6.1640447 10 8 C10 8.66 10 9.32 10 10 C10.556875 10.268125 11.11375 10.53625 11.6875 10.8125 C17.71773813 13.90910877 22.19005222 17.28507832 26 23 C21.8911959 22.47470631 19.74480159 21.33192009 16.6875 18.5625 C15.99011719 17.94503906 15.29273437 17.32757813 14.57421875 16.69140625 C13 15 13 15 13 13 C12.01 13 11.02 13 10 13 C8.5 11.6875 8.5 11.6875 7 10 C6.1646875 9.2265625 6.1646875 9.2265625 5.3125 8.4375 C4 7 4 7 4 5 C3.01 5.33 2.02 5.66 1 6 C0 5 0 5 -0.0625 2.4375 C-0.041875 1.633125 -0.02125 0.82875 0 0 Z " fill="#ACA2D9" transform="translate(94,234)"/>
<path d="M0 0 C1.69769531 0.0009668 1.69769531 0.0009668 3.4296875 0.00195312 C12.54972843 0.05057894 12.54972843 0.05057894 16.375 1.1875 C16.375 1.8475 16.375 2.5075 16.375 3.1875 C16.96667969 3.28546875 17.55835938 3.3834375 18.16796875 3.484375 C23.19092883 4.43488621 26.69436326 5.38813304 30.375 9.1875 C30.375 9.8475 30.375 10.5075 30.375 11.1875 C31.035 11.1875 31.695 11.1875 32.375 11.1875 C32.045 11.8475 31.715 12.5075 31.375 13.1875 C30.88773438 12.81238281 30.40046875 12.43726562 29.8984375 12.05078125 C17.76771975 3.29460862 5.07266369 0.48641283 -9.625 2.1875 C-12.33795996 2.74484007 -14.95561802 3.43730123 -17.625 4.1875 C-17.955 3.5275 -18.285 2.8675 -18.625 2.1875 C-12.58698074 -0.51147327 -6.47352981 -0.07052584 0 0 Z " fill="#79B3E3" transform="translate(187.625,83.8125)"/>
<path d="M0 0 C0.66 0 1.32 0 2 0 C12.4731414 24.81016022 12.4731414 24.81016022 10 31 C9.34 31.33 8.68 31.66 8 32 C4.99049128 21.56703645 4.99049128 21.56703645 4.6875 16.875 C4.22355005 12.21230295 2.71680403 8.334654 0.83984375 4.06640625 C0 2 0 2 0 0 Z " fill="#85ABE0" transform="translate(306,209)"/>
<path d="M0 0 C3.63559661 3.43361902 6.36113346 6.7973607 9 11 C6.69 10.34 4.38 9.68 2 9 C1.566875 10.1446875 1.566875 10.1446875 1.125 11.3125 C0 14 0 14 -2 17 C-2.66 17 -3.32 17 -4 17 C-2.07289294 5.47835991 -2.07289294 5.47835991 0 0 Z " fill="#A79AE6" transform="translate(85,223)"/>
<path d="M0 0 C2.31 0.66 4.62 1.32 7 2 C7 2.99 7 3.98 7 5 C8.2375 5.061875 9.475 5.12375 10.75 5.1875 C14.05392763 5.609278 14.88031108 5.89527219 17.5 8.1875 C19.21511245 11.40333585 19.33419641 13.40738862 19 17 C4.85005903 4.95749705 4.85005903 4.95749705 0 0 Z " fill="#EDF8F7" transform="translate(269,42)"/>
<path d="M0 0 C0.33 0 0.66 0 1 0 C0.93941406 1.11632812 0.87882812 2.23265625 0.81640625 3.3828125 C0.14291453 15.91897325 -0.44570842 28.4580391 -1 41 C-1.33 41 -1.66 41 -2 41 C-4.20491632 27.49488755 -3.57180297 13.22532451 0 0 Z " fill="#96AFE2" transform="translate(80,114)"/>
<path d="M0 0 C-2.70222126 1.80148084 -5.09997299 2.80023624 -8.14257812 3.85302734 C-17.74900367 7.18591567 -26.29332092 11.78988619 -35 17 C-35.33 16.34 -35.66 15.68 -36 15 C-32.33112512 10.71964598 -27.48436902 8.80652486 -22 8 C-22 7.34 -22 6.68 -22 6 C-21.43152344 5.81824219 -20.86304688 5.63648438 -20.27734375 5.44921875 C-16.52773165 4.22856039 -12.88272051 2.99354553 -9.3125 1.3125 C-5.92224339 -0.03080922 -3.60547047 -0.26381491 0 0 Z " fill="#DCF6FD" transform="translate(166,23)"/>
<path d="M0 0 C0.33 0 0.66 0 1 0 C1.54702233 5.19671209 0.01824465 8.78442742 -1.9765625 13.453125 C-3.36761441 16.9148267 -4.191607 20.3622315 -5 24 C-5.99 23.67 -6.98 23.34 -8 23 C-6.99066855 18.18626539 -5.89905557 13.42172052 -4.5625 8.6875 C-4.33691406 7.88699219 -4.11132812 7.08648437 -3.87890625 6.26171875 C-2.91694178 3.78626352 -1.72521684 2.01045269 0 0 Z " fill="#89AFE5" transform="translate(89,88)"/>
<path d="M0 0 C0 0.66 0 1.32 0 2 C-1.30324219 2.29003906 -1.30324219 2.29003906 -2.6328125 2.5859375 C-4.36144531 2.97652344 -4.36144531 2.97652344 -6.125 3.375 C-7.83042969 3.75785156 -7.83042969 3.75785156 -9.5703125 4.1484375 C-12.96033236 4.93890052 -12.96033236 4.93890052 -16.03125 6.03125 C-19.14410771 7.04702462 -22.14194581 7.62208046 -25.375 8.125 C-26.43460938 8.29257812 -27.49421875 8.46015625 -28.5859375 8.6328125 C-29.38257813 8.75398438 -30.17921875 8.87515625 -31 9 C-28.1659406 6.66891498 -25.74655754 5.40532896 -22.2265625 4.39453125 C-21.3190625 4.13349609 -20.4115625 3.87246094 -19.4765625 3.60351562 C-18.53554687 3.34248047 -17.59453125 3.08144531 -16.625 2.8125 C-15.69171875 2.53986328 -14.7584375 2.26722656 -13.796875 1.98632812 C-9.09375533 0.65733043 -4.93848782 -0.37162534 0 0 Z " fill="#69B4E6" transform="translate(184,20)"/>
<path d="M0 0 C2.375 0.75 2.375 0.75 5 2 C5.66666667 3.33333333 6.33333333 4.66666667 7 6 C8.65816784 6.68753301 10.32459336 7.35561283 12 8 C12.33 8.99 12.66 9.98 13 11 C11.68 11 10.36 11 9 11 C8.67 11.99 8.34 12.98 8 14 C6.875 10.25 6.875 10.25 8 8 C5.36 8 2.72 8 0 8 C0 5.36 0 2.72 0 0 Z " fill="#8CA6E6" transform="translate(153,176)"/>
<path d="M0 0 C0.33 0 0.66 0 1 0 C1.28108109 7.62042066 1.44743139 14.54480274 -3.125 21 C-3.74375 21.66 -4.3625 22.32 -5 23 C-5.08226668 19.95613276 -4.97608217 17.92824652 -4 15 C-3.96125079 13.33378384 -3.9549714 11.66605828 -4 10 C-2.68 9.34 -1.36 8.68 0 8 C0 5.36 0 2.72 0 0 Z " fill="#93A0DF" transform="translate(239,258)"/>
<path d="M0 0 C3.625 -0.1875 3.625 -0.1875 7 0 C7 0.33 7 0.66 7 1 C8.65 1.33 10.3 1.66 12 2 C12 2.66 12 3.32 12 4 C9.52224905 5.23887548 7.76346293 5.16741669 5 5.1875 C3.6696875 5.20876953 3.6696875 5.20876953 2.3125 5.23046875 C0 5 0 5 -2 3 C-1.34 2.01 -0.68 1.02 0 0 Z " fill="#9E9AEC" transform="translate(204,288)"/>
<path d="M0 0 C3.52238047 1.56367357 6.27123994 3.69495889 9.25 6.125 C10.14203125 6.84945313 11.0340625 7.57390625 11.953125 8.3203125 C12.62859375 8.87460937 13.3040625 9.42890625 14 10 C13.01 11.485 13.01 11.485 12 13 C10.68 12.67 9.36 12.34 8 12 C8 10.68 8 9.36 8 8 C5.36 6.68 2.72 5.36 0 4 C0 2.68 0 1.36 0 0 Z " fill="#AC9FD7" transform="translate(120,257)"/>
<path d="M0 0 C5.86809507 0.52393706 10.54873741 1.76108858 16 4 C16.33 3.01 16.66 2.02 17 1 C17.66 1 18.32 1 19 1 C18.67 3.31 18.34 5.62 18 8 C13.78224268 6.64474464 9.70578678 5.09799886 5.625 3.375 C4.56539062 2.92898437 3.50578125 2.48296875 2.4140625 2.0234375 C1.61742187 1.68570312 0.82078125 1.34796875 0 1 C0 0.67 0 0.34 0 0 Z " fill="#DBF9FD" transform="translate(237,25)"/>
<path d="M0 0 C3.48722633 -0.09963504 6.62286946 0.08726202 10 1 C10.66 1.66 11.32 2.32 12 3 C12.33 2.34 12.66 1.68 13 1 C14.32 1.66 15.64 2.32 17 3 C17 3.99 17 4.98 17 6 C13.99353048 7.30230734 12.90644333 6.96485975 9.765625 5.78515625 C8.60546875 5.21667969 7.4453125 4.64820313 6.25 4.0625 C4.49429688 3.21365234 4.49429688 3.21365234 2.703125 2.34765625 C1.81109375 1.90292969 0.9190625 1.45820313 0 1 C0 0.67 0 0.34 0 0 Z " fill="#DB93D2" transform="translate(144,367)"/>
<path d="M0 0 C0.66 0 1.32 0 2 0 C0.49665796 5.34521615 -3.17120091 9.13508016 -7 13 C-7.99 13.495 -7.99 13.495 -9 14 C-9.33 12.02 -9.66 10.04 -10 8 C-9.2575 7.95875 -8.515 7.9175 -7.75 7.875 C-3.89702256 6.64905263 -2.98630467 4.40509373 -1 1 C-0.67 0.67 -0.34 0.34 0 0 Z " fill="#F1F5FB" transform="translate(252,288)"/>
<path d="M0 0 C1.17829199 3.53487596 0.75665474 5.14485405 0.00390625 8.76171875 C-0.22490234 9.87998047 -0.45371094 10.99824219 -0.68945312 12.15039062 C-0.93630859 13.31763672 -1.18316406 14.48488281 -1.4375 15.6875 C-1.68048828 16.86634766 -1.92347656 18.04519531 -2.17382812 19.25976562 C-2.77569172 22.17467364 -3.38468019 25.08790804 -4 28 C-4.33 28 -4.66 28 -5 28 C-5.5770336 18.72471922 -4.6541576 8.21559994 0 0 Z " fill="#AC9ED6" transform="translate(84,221)"/>
<path d="M0 0 C3.13506611 0.33589994 4.025249 1.02665172 6.25 3.375 C8 6 8 6 8 9 C6.35 9.66 4.7 10.32 3 11 C0.43383368 7.15075052 0.44902324 4.5650696 0 0 Z " fill="#6DABF5" transform="translate(287,183)"/>
<path d="M0 0 C5.96423753 1.52029584 10.49809407 2.7471411 14 8 C13.625 10.1875 13.625 10.1875 13 12 C11.39490066 10.56354149 9.79095576 9.12579294 8.1875 7.6875 C7.29417969 6.88699219 6.40085937 6.08648437 5.48046875 5.26171875 C3.60073214 3.54775419 1.77407253 1.82122396 0 0 Z " fill="#74B1E8" transform="translate(266,135)"/>
<path d="M0 0 C0.33 0 0.66 0 1 0 C0.75 3.375 0.75 3.375 0 7 C-0.928125 7.44859375 -0.928125 7.44859375 -1.875 7.90625 C-4.79292844 9.40812493 -5.3922856 11.18328547 -6.75 14.125 C-7.17796875 15.03507812 -7.6059375 15.94515625 -8.046875 16.8828125 C-8.36140625 17.58148438 -8.6759375 18.28015625 -9 19 C-9.99 18.34 -10.98 17.68 -12 17 C-10.56347677 14.91598726 -9.12581793 12.83277356 -7.6875 10.75 C-7.28337891 10.16347656 -6.87925781 9.57695313 -6.46289062 8.97265625 C-1.86274688 2.31553766 -1.86274688 2.31553766 0 0 Z " fill="#81AEE2" transform="translate(104,64)"/>
<path d="M0 0 C0.33 0 0.66 0 1 0 C1 4.29 1 8.58 1 13 C0.01 13 -0.98 13 -2 13 C-2.66 14.32 -3.32 15.64 -4 17 C-4.4026465 8.94706994 -4.4026465 8.94706994 -1 5 C-0.28566879 2.35065178 -0.28566879 2.35065178 0 0 Z " fill="#5FAFF9" transform="translate(316,139)"/>
<path d="M0 0 C8.57142857 -0.28571429 8.57142857 -0.28571429 12 2 C12 2.66 12 3.32 12 4 C12.66 4 13.32 4 14 4 C14.66 4.66 15.32 5.32 16 6 C16.99 6.33 17.98 6.66 19 7 C18.67 7.99 18.34 8.98 18 10 C15.27119497 8.79932579 13.0423147 7.29793285 10.6875 5.5 C7.22999722 2.96300121 4.16582398 1.93518497 0 1 C0 0.67 0 0.34 0 0 Z " fill="#DCF3FB" transform="translate(195,106)"/>
<path d="M0 0 C-0.87011719 0.41958984 -0.87011719 0.41958984 -1.7578125 0.84765625 C-6.82150926 3.44635211 -10.30506542 5.96587747 -13.7109375 10.546875 C-15 12 -15 12 -18 13 C-15.45024158 6.74150205 -7.27150814 -2.57764621 0 0 Z " fill="#8AB4E0" transform="translate(179,108)"/>
<path d="M0 0 C0.66 0.33 1.32 0.66 2 1 C1.20335937 1.8353125 1.20335937 1.8353125 0.390625 2.6875 C-4.10409911 7.54311436 -7.35280253 11.93350581 -10 18 C-10.85432111 14.89984991 -11.18380965 13.05817494 -10 10 C-8.5625 8.25 -8.5625 8.25 -7 7 C-6.34 7 -5.68 7 -5 7 C-5 5.68 -5 4.36 -5 3 C-4.01 3 -3.02 3 -2 3 C-2 2.34 -2 1.68 -2 1 C-1.34 0.67 -0.68 0.34 0 0 Z " fill="#7DABDF" transform="translate(150,98)"/>
<path d="M0 0 C-0.33 1.98 -0.66 3.96 -1 6 C-7.42857143 1.85714286 -7.42857143 1.85714286 -10 -1 C-5.92224809 -1.9267618 -3.57818963 -2.33958553 0 0 Z " fill="#F8F5FA" transform="translate(152,275)"/>
<path d="M0 0 C0.66 0.33 1.32 0.66 2 1 C-0.79129597 5.89367634 -3.25892502 9.74897716 -8 13 C-8.33 11.68 -8.66 10.36 -9 9 C-8.01 8.67 -7.02 8.34 -6 8 C-5.31513275 6.67592331 -4.65129797 5.34090759 -4 4 C-2.70529025 2.62913085 -1.37849103 1.28659163 0 0 Z " fill="#72A6F3" transform="translate(170,112)"/>
<path d="M0 0 C0 0.66 0 1.32 0 2 C0.66 2 1.32 2 2 2 C1.67 2.99 1.34 3.98 1 5 C-0.45880109 4.85892253 -1.91703551 4.71197585 -3.375 4.5625 C-4.59316406 4.44068359 -4.59316406 4.44068359 -5.8359375 4.31640625 C-8 4 -8 4 -10 3 C-10 2.34 -10 1.68 -10 1 C-8.71073008 0.63720544 -7.41846728 0.28503302 -6.125 -0.0625 C-5.40570313 -0.25972656 -4.68640625 -0.45695312 -3.9453125 -0.66015625 C-2 -1 -2 -1 0 0 Z " fill="#55B6F7" transform="translate(240,27)"/>
<path d="M0 0 C3.48670834 1.1094072 6.77484237 2.26337666 10 4 C10 4.66 10 5.32 10 6 C10.99 6.33 11.98 6.66 13 7 C12.67 8.32 12.34 9.64 12 11 C10.18401175 9.54601271 8.37230481 8.08667675 6.5625 6.625 C5.04849609 5.40683594 5.04849609 5.40683594 3.50390625 4.1640625 C1 2 1 2 0 0 Z " fill="#A4A6E2" transform="translate(119,230)"/>
<path d="M0 0 C4.64073925 0.28125692 7.14028602 2.45124187 10.546875 5.33203125 C12.18304197 7.21010463 12.59909978 8.56822368 13 11 C8.34148756 8.04582138 3.98497101 4.8317029 0 1 C0 0.67 0 0.34 0 0 Z " fill="#DEF4FB" transform="translate(247,144)"/>
<path d="M0 0 C0.33 0 0.66 0 1 0 C1.185625 1.2065625 1.185625 1.2065625 1.375 2.4375 C1.58125 3.283125 1.7875 4.12875 2 5 C2.66 5.33 3.32 5.66 4 6 C3 8 3 8 0 10 C-0.38384509 12.93597539 -0.603843 15.68027373 -0.6875 18.625 C-0.72166016 19.42679688 -0.75582031 20.22859375 -0.79101562 21.0546875 C-0.87356878 23.03596318 -0.93845916 25.01796037 -1 27 C-1.33 27 -1.66 27 -2 27 C-2.3690205 7.99544419 -2.3690205 7.99544419 0 0 Z " fill="#ECF8FC" transform="translate(138,118)"/>
<path d="M0 0 C0.33 0 0.66 0 1 0 C1 2.31 1 4.62 1 7 C0.34 7 -0.32 7 -1 7 C-1.66 12.61 -2.32 18.22 -3 24 C-3.33 24 -3.66 24 -4 24 C-4.41732107 15.20148083 -4.71248522 7.76297789 0 0 Z " fill="#92B7E5" transform="translate(160,121)"/>
<path d="M0 0 C0.99 0.33 1.98 0.66 3 1 C3.103125 1.78375 3.20625 2.5675 3.3125 3.375 C3.77595022 6.33045181 3.77595022 6.33045181 7 8 C7 8.66 7 9.32 7 10 C7.66 10.33 8.32 10.66 9 11 C6 11 6 11 3 9 C3 8.34 3 7.68 3 7 C2.360625 6.731875 1.72125 6.46375 1.0625 6.1875 C-1 5 -1 5 -2 2 C-1.34 2 -0.68 2 0 2 C0 1.34 0 0.68 0 0 Z " fill="#71B4EC" transform="translate(237,106)"/>
<path d="M0 0 C-4.30769231 4.92307692 -4.30769231 4.92307692 -7.8125 5.3125 C-8.8953125 5.1578125 -8.8953125 5.1578125 -10 5 C-10.33 3.68 -10.66 2.36 -11 1 C-9.5437328 0.63743142 -8.08488815 0.28520207 -6.625 -0.0625 C-5.40683594 -0.35833984 -5.40683594 -0.35833984 -4.1640625 -0.66015625 C-2 -1 -2 -1 0 0 Z " fill="#5AB2F8" transform="translate(167,27)"/>
<path d="M0 0 C0.99 0.33 1.98 0.66 3 1 C1.90751403 2.50852857 0.80061501 4.00662831 -0.3125 5.5 C-0.92738281 6.3353125 -1.54226563 7.170625 -2.17578125 8.03125 C-2.77777344 8.6809375 -3.37976563 9.330625 -4 10 C-4.99 10 -5.98 10 -7 10 C-6.2575 8.824375 -6.2575 8.824375 -5.5 7.625 C-3.83462035 5.21447673 -3.83462035 5.21447673 -4 3 C-2.1875 1.3125 -2.1875 1.3125 0 0 Z " fill="#A6A0DF" transform="translate(292,331)"/>
<path d="M0 0 C2.31 0.66 4.62 1.32 7 2 C7 2.66 7 3.32 7 4 C7.99 3.34 8.98 2.68 10 2 C10.99 2 11.98 2 13 2 C12.67 3.65 12.34 5.3 12 7 C11.01 7.33 10.02 7.66 9 8 C6.73828125 6.6015625 6.73828125 6.6015625 4.3125 4.625 C3.50425781 3.97789062 2.69601563 3.33078125 1.86328125 2.6640625 C1.24839844 2.11492187 0.63351563 1.56578125 0 1 C0 0.67 0 0.34 0 0 Z " fill="#A6A5DE" transform="translate(138,246)"/>
<path d="M0 0 C4.18423892 3.50897269 8.19588166 7.08060535 12 11 C8 11 8 11 5.859375 9.35546875 C5.16328125 8.64003906 4.4671875 7.92460937 3.75 7.1875 C3.04359375 6.47980469 2.3371875 5.77210938 1.609375 5.04296875 C0 3 0 3 0 0 Z " fill="#E8F4FC" transform="translate(194,184)"/>
<path d="M0 0 C5.875 3.75 5.875 3.75 7 6 C3.7 6 0.4 6 -3 6 C-3 4.68 -3 3.36 -3 2 C-2.01 1.34 -1.02 0.68 0 0 Z " fill="#FAFDFA" transform="translate(220,98)"/>
<path d="M0 0 C4.08963819 2.28538605 7.46362104 4.95706926 11 8 C10.01 8.66 9.02 9.32 8 10 C6.0625 9.25 6.0625 9.25 4 8 C3.63837971 6.67405895 3.30271961 5.34061543 3 4 C2.01 3.67 1.02 3.34 0 3 C0 2.01 0 1.02 0 0 Z " fill="#64B9EB" transform="translate(264,39)"/>
<path d="M0 0 C0.66 0.33 1.32 0.66 2 1 C1.01 2.98 0.02 4.96 -1 7 C-2.175625 6.690625 -2.175625 6.690625 -3.375 6.375 C-4.674375 6.189375 -4.674375 6.189375 -6 6 C-6.66 6.66 -7.32 7.32 -8 8 C-10.125 7.625 -10.125 7.625 -12 7 C-10.04754815 5.80285445 -8.08785003 4.61751926 -6.125 3.4375 C-5.03445313 2.77621094 -3.94390625 2.11492187 -2.8203125 1.43359375 C-1.88960938 0.96050781 -0.95890625 0.48742187 0 0 Z " fill="#F7EDFB" transform="translate(265,360)"/>
<path d="M0 0 C0.74507812 0.00451172 1.49015625 0.00902344 2.2578125 0.01367188 C4.0885764 0.02540754 5.91929873 0.0433415 7.75 0.0625 C7.75 0.7225 7.75 1.3825 7.75 2.0625 C6.450625 2.041875 5.15125 2.02125 3.8125 2 C-0.34090541 1.98028447 -4.30395099 2.38852397 -8.40234375 3.0390625 C-9.31693359 3.05066406 -9.31693359 3.05066406 -10.25 3.0625 C-10.91 2.4025 -11.57 1.7425 -12.25 1.0625 C-8.15996141 -0.08732602 -4.21822949 -0.04844256 0 0 Z " fill="#E4F7FD" transform="translate(187.25,103.9375)"/>
<path d="M0 0 C3.00617269 3.00617269 2.59585316 5.82381598 3 10 C2.01 9.67 1.02 9.34 0 9 C-0.6875 6.9375 -0.6875 6.9375 -1 5 C-1.66 5 -2.32 5 -3 5 C-3.33 5.66 -3.66 6.32 -4 7 C-4.66 6.67 -5.32 6.34 -6 6 C-6 5.34 -6 4.68 -6 4 C-5.01 3.67 -4.02 3.34 -3 3 C-1.33289654 1.50014391 -1.33289654 1.50014391 0 0 Z " fill="#64B5E6" transform="translate(310,97)"/>
<path d="M0 0 C0.99 0.33 1.98 0.66 3 1 C3 2.32 3 3.64 3 5 C4.65 5.33 6.3 5.66 8 6 C8.33 7.32 8.66 8.64 9 10 C6.69 9.67 4.38 9.34 2 9 C0 2.25 0 2.25 0 0 Z " fill="#59B6F1" transform="translate(288,63)"/>
<path d="M0 0 C0.99 0.33 1.98 0.66 3 1 C-3.435 5.95 -3.435 5.95 -10 11 C-10.33 10.01 -10.66 9.02 -11 8 C-9.5433323 6.85204994 -8.08461063 5.70670581 -6.625 4.5625 C-5.40683594 3.60537109 -5.40683594 3.60537109 -4.1640625 2.62890625 C-2 1 -2 1 0 0 Z " fill="#DBF5FD" transform="translate(127,40)"/>
<path d="M0 0 C-2.26118038 2.74415095 -3.47594492 3.89410286 -7.015625 4.609375 C-8.08296875 4.65578125 -9.1503125 4.7021875 -10.25 4.75 C-11.86648437 4.83507812 -11.86648437 4.83507812 -13.515625 4.921875 C-14.33546875 4.94765625 -15.1553125 4.9734375 -16 5 C-15 3 -15 3 -12.890625 2.1484375 C-12.01921875 1.89320312 -11.1478125 1.63796875 -10.25 1.375 C-8.95835937 0.98441406 -8.95835937 0.98441406 -7.640625 0.5859375 C-5.00270994 0.00060132 -2.69198424 -0.10651736 0 0 Z " fill="#6AADF1" transform="translate(188,107)"/>
<path d="M0 0 C0.66 0.33 1.32 0.66 2 1 C2 1.66 2 2.32 2 3 C-1.6208201 4.01382963 -5.27811418 4.49897691 -9 5 C-9 5.66 -9 6.32 -9 7 C-10.98 7.33 -12.96 7.66 -15 8 C-15 7.34 -15 6.68 -15 6 C-12.54524486 4.96971956 -10.08685649 3.95054496 -7.625 2.9375 C-6.57699219 2.49567383 -6.57699219 2.49567383 -5.5078125 2.04492188 C-3.69495092 1.30408902 -1.84876857 0.64603036 0 0 Z " fill="#FAEBFC" transform="translate(249,369)"/>
<path d="M0 0 C3.3 0.66 6.6 1.32 10 2 C9.67 2.99 9.34 3.98 9 5 C6.03 4.67 3.06 4.34 0 4 C0 2.68 0 1.36 0 0 Z " fill="#B594E9" transform="translate(191,314)"/>
<path d="M0 0 C0 0.66 0 1.32 0 2 C1.98 2 3.96 2 6 2 C6 2.33 6 2.66 6 3 C-3.41002278 5.29612756 -3.41002278 5.29612756 -8 5 C-8 3.68 -8 2.36 -8 1 C-5.10765685 0.17361624 -3.11257569 0 0 0 Z " fill="#60AFF8" transform="translate(176,81)"/>
<path d="M0 0 C6.625 0.75 6.625 0.75 10 3 C9.67 3.66 9.34 4.32 9 5 C8.401875 4.814375 7.80375 4.62875 7.1875 4.4375 C4.83591238 3.77906313 4.83591238 3.77906313 2 5 C1.34 4.34 0.68 3.68 0 3 C0 2.01 0 1.02 0 0 Z " fill="#67ACF3" transform="translate(190,107)"/>
<path d="M0 0 C0.66 0.99 1.32 1.98 2 3 C-2.455 6.96 -2.455 6.96 -7 11 C-7.66 10.67 -8.32 10.34 -9 10 C-6.03 6.7 -3.06 3.4 0 0 Z " fill="#E4F6FB" transform="translate(153,97)"/>
<path d="M0 0 C1.1446875 0.2475 1.1446875 0.2475 2.3125 0.5 C5.03596236 1.09145396 5.03596236 1.09145396 8 1 C8 1.99 8 2.98 8 4 C7.34 4.66 6.68 5.32 6 6 C2.875 5.625 2.875 5.625 0 5 C0 3.35 0 1.7 0 0 Z " fill="#C592DF" transform="translate(232,368)"/>
<path d="M0 0 C0.33 1.32 0.66 2.64 1 4 C0.12601562 4.38285156 0.12601562 4.38285156 -0.765625 4.7734375 C-3.21388223 6.11741087 -4.81743248 7.61810296 -6.75 9.625 C-7.36359375 10.25664062 -7.9771875 10.88828125 -8.609375 11.5390625 C-9.06828125 12.02117187 -9.5271875 12.50328125 -10 13 C-10.66 12.67 -11.32 12.34 -12 12 C-8.04 8.04 -4.08 4.08 0 0 Z " fill="#F1EDFC" transform="translate(290,338)"/>
<path d="M0 0 C0.33 0 0.66 0 1 0 C1.50610724 6.07328688 0.04157942 9.77228537 -3 15 C-3.66 15 -4.32 15 -5 15 C-3.33333333 10 -1.66666667 5 0 0 Z " fill="#9CA5DD" transform="translate(260,273)"/>
<path d="M0 0 C-0.804375 0.61875 -1.60875 1.2375 -2.4375 1.875 C-5.03874519 3.74164041 -5.03874519 3.74164041 -6 6 C-8.46278801 4.768606 -9.42497687 3.21935077 -11 1 C-3.57142857 -1.42857143 -3.57142857 -1.42857143 0 0 Z " fill="#FBF4F9" transform="translate(232,377)"/>
<path d="M0 0 C0.99 0 1.98 0 3 0 C3.9765625 6.0546875 3.9765625 6.0546875 4 8 C3.34 8.66 2.68 9.32 2 10 C0.4375 8.375 0.4375 8.375 -1 6 C-0.6875 2.75 -0.6875 2.75 0 0 Z " fill="#D18ED4" transform="translate(100,320)"/>
<path d="M0 0 C0.33 0 0.66 0 1 0 C0.67 3.63 0.34 7.26 0 11 C-0.66 10.67 -1.32 10.34 -2 10 C-2 9.34 -2 8.68 -2 8 C-2.66 8 -3.32 8 -4 8 C-3.4021799 4.65220745 -2.20964398 2.57791798 0 0 Z " fill="#909FF1" transform="translate(94,184)"/>
<path d="M0 0 C0.33 0 0.66 0 1 0 C0.03644647 9.41002278 0.03644647 9.41002278 -1 14 C-2.90185343 11.20315672 -2.99271185 9.89614391 -2.75 6.4375 C-2 3 -2 3 0 0 Z " fill="#84A9E3" transform="translate(137,118)"/>
<path d="M0 0 C0.66 0.33 1.32 0.66 2 1 C2 2.65 2 4.3 2 6 C0.35 6.33 -1.3 6.66 -3 7 C-3 7.99 -3 8.98 -3 10 C-3.66 9.67 -4.32 9.34 -5 9 C-3.46395304 5.85808576 -1.94268841 2.91403262 0 0 Z " fill="#979DF1" transform="translate(232,275)"/>
<path d="M0 0 C2 0 2 0 4.625 2.375 C7 5 7 5 7 7 C4.69 7 2.38 7 0 7 C0 4.69 0 2.38 0 0 Z " fill="#7EA3EF" transform="translate(144,169)"/>
<path d="M0 0 C0.66 0 1.32 0 2 0 C1.52060632 4.71403788 1.03165952 8.66579301 -1 13 C-1.66 13 -2.32 13 -3 13 C-2.68817931 11.58318366 -2.37551263 10.16655349 -2.0625 8.75 C-1.88847656 7.96109375 -1.71445312 7.1721875 -1.53515625 6.359375 C-1.052444 4.23121297 -0.53836822 2.11467158 0 0 Z " fill="#99A7DB" transform="translate(313,288)"/>
<path d="M0 0 C0.99 0.33 1.98 0.66 3 1 C2.67 5.29 2.34 9.58 2 14 C0.06604999 10.13209997 -0.23289353 8.8499541 -0.125 4.75 C-0.09792969 3.41195312 -0.09792969 3.41195312 -0.0703125 2.046875 C-0.04710938 1.37140625 -0.02390625 0.6959375 0 0 Z " fill="#EDFAFB" transform="translate(76,118)"/>
<path d="M0 0 C2.76460846 1.38230423 2.99120861 2.91132229 4.125 5.75 C4.47820312 6.61109375 4.83140625 7.4721875 5.1953125 8.359375 C6.01786806 11.05863498 6.15123996 13.19701945 6 16 C2.22805789 13.25676938 1.87184084 9.3089057 1 5 C0.79375 4.01 0.5875 3.02 0.375 2 C0.25125 1.34 0.1275 0.68 0 0 Z " fill="#72B9EA" transform="translate(304,83)"/>
<path d="M0 0 C-1.32 1.32 -2.64 2.64 -4 4 C-3.34 4.66 -2.68 5.32 -2 6 C-3.65 6.33 -5.3 6.66 -7 7 C-7.33 5.02 -7.66 3.04 -8 1 C-2.25 -1.125 -2.25 -1.125 0 0 Z " fill="#A997E8" transform="translate(231,313)"/>
<path d="M0 0 C4.69879518 4.3373494 4.69879518 4.3373494 5.9375 7.0625 C6.01661621 9.5151026 5.1411594 10.86421139 4 13 C3.32942113 11.2097939 2.6636531 9.41778511 2 7.625 C1.62875 6.62726563 1.2575 5.62953125 0.875 4.6015625 C0 2 0 2 0 0 Z " fill="#E6F7FC" transform="translate(310,214)"/>
<path d="M0 0 C0.66 0 1.32 0 2 0 C3.625 2.75 3.625 2.75 5 6 C4.3125 8.3125 4.3125 8.3125 3 10 C2.01 10.495 2.01 10.495 1 11 C0.67 7.37 0.34 3.74 0 0 Z " fill="#70ABF5" transform="translate(296,194)"/>
<path d="M0 0 C0.33 0 0.66 0 1 0 C1.125 5.75 1.125 5.75 0 8 C-0.66 8 -1.32 8 -2 8 C-3.98 4.535 -3.98 4.535 -6 1 C-5.01 1 -4.02 1 -3 1 C-2.67 1.66 -2.34 2.32 -2 3 C-1.34 2.01 -0.68 1.02 0 0 Z " fill="#8DB2DF" transform="translate(313,170)"/>
<path d="M0 0 C2.87255066 2.42195448 3.70838919 4.59742703 4.6875 8.1875 C4.93886719 9.08855469 5.19023437 9.98960937 5.44921875 10.91796875 C5.63097656 11.60503906 5.81273437 12.29210937 6 13 C5.34 13.66 4.68 14.32 4 15 C2.1866078 11.79989612 1.47786026 8.86716157 0.875 5.25 C0.70742187 4.26515625 0.53984375 3.2803125 0.3671875 2.265625 C0.24601563 1.51796875 0.12484375 0.7703125 0 0 Z " fill="#85A4E3" transform="translate(137,153)"/>
<path d="M0 0 C3.21852831 0.63065757 5.50801069 1.78020695 8.25 3.5625 C8.95640625 4.01753906 9.6628125 4.47257812 10.390625 4.94140625 C11.18726563 5.46541016 11.18726563 5.46541016 12 6 C9 7 9 7 5.4375 5.8125 C2.1047123 4.05521194 1.08336479 3.49084212 0 0 Z " fill="#E4F8FC" transform="translate(207,90)"/>
<path d="M0 0 C2.31 0.33 4.62 0.66 7 1 C7.33 2.32 7.66 3.64 8 5 C7.01 5.33 6.02 5.66 5 6 C5 5.34 5 4.68 5 4 C4.360625 3.71125 3.72125 3.4225 3.0625 3.125 C1 2 1 2 0 0 Z " fill="#9FA1E5" transform="translate(112,224)"/>
<path d="M0 0 C1.2989839 0.90626784 2.58893167 1.82549537 3.875 2.75 C4.59429687 3.26046875 5.31359375 3.7709375 6.0546875 4.296875 C8.08570565 6.07503547 8.97855012 7.52701607 10 10 C7.00779732 8.63629701 4.70973471 7.05091917 2.25 4.875 C1.63640625 4.33617187 1.0228125 3.79734375 0.390625 3.2421875 C-0.06828125 2.83226562 -0.5271875 2.42234375 -1 2 C-0.67 1.34 -0.34 0.68 0 0 Z " fill="#9AB1E7" transform="translate(237,218)"/>
<path d="M0 0 C4.13394782 2.06697391 5.23366131 2.87854305 7 7 C6.34 8.32 5.68 9.64 5 11 C3.35 7.37 1.7 3.74 0 0 Z " fill="#E5F7FE" transform="translate(302,198)"/>
<path d="M0 0 C4.63720719 3.27530896 8.68542782 6.30435607 12 11 C9 11 9 11 6.5625 8.75 C5.716875 7.8425 4.87125 6.935 4 6 C3.236875 5.278125 2.47375 4.55625 1.6875 3.8125 C0 2 0 2 0 0 Z " fill="#E3F9FE" transform="translate(287,153)"/>
<path d="M0 0 C3.93548431 3.06093224 6.68116787 5.49115974 9 10 C7.68 10 6.36 10 5 10 C5 8.68 5 7.36 5 6 C3.68 5.67 2.36 5.34 1 5 C0.67 3.35 0.34 1.7 0 0 Z " fill="#75C0EA" transform="translate(286,58)"/>
<path d="M0 0 C0.99 0 1.98 0 3 0 C2.49701212 4.40114397 0.91227269 6.71195019 -2 10 C-2.22036864 6.14354879 -1.60355101 3.50776784 0 0 Z " fill="#9FA6DF" transform="translate(236,271)"/>
<path d="M0 0 C1.65 0 3.3 0 5 0 C5.33 0.99 5.66 1.98 6 3 C6.99 3 7.98 3 9 3 C8.34 4.32 7.68 5.64 7 7 C5.83040013 6.02433888 4.66438823 5.044375 3.5 4.0625 C2.8503125 3.51722656 2.200625 2.97195313 1.53125 2.41015625 C1.0259375 1.94480469 0.520625 1.47945313 0 1 C0 0.67 0 0.34 0 0 Z " fill="#ABA6E1" transform="translate(176,277)"/>
<path d="M0 0 C2.64752004 2.57784846 4.94432065 4.91648098 7 8 C4.69 7.34 2.38 6.68 0 6 C0 4.02 0 2.04 0 0 Z " fill="#AAA1D9" transform="translate(87,226)"/>
<path d="M0 0 C1.32 0 2.64 0 4 0 C4 0.66 4 1.32 4 2 C4.66 2.33 5.32 2.66 6 3 C5.67 4.32 5.34 5.64 5 7 C3.02 5.35 1.04 3.7 -1 2 C-0.67 1.34 -0.34 0.68 0 0 Z " fill="#999DE1" transform="translate(106,216)"/>
<path d="M0 0 C2.54384726 1.27192363 2.69368156 2.19948469 3.6875 4.8125 C3.95949219 5.49957031 4.23148437 6.18664062 4.51171875 6.89453125 C5.06812731 9.29376496 4.77364938 10.6894364 4 13 C3.32694982 11.39850114 2.66177773 9.79368971 2 8.1875 C1.62875 7.29417969 1.2575 6.40085938 0.875 5.48046875 C0 3 0 3 0 0 Z " fill="#95A2DC" transform="translate(85,179)"/>
<path d="M0 0 C0.66 0 1.32 0 2 0 C2.66 2.97 3.32 5.94 4 9 C3.34 9 2.68 9 2 9 C1.67 9.66 1.34 10.32 1 11 C0.67 7.37 0.34 3.74 0 0 Z " fill="#51B6F4" transform="translate(296,74)"/>
<path d="M0 0 C-2.31 1.65 -4.62 3.3 -7 5 C-7.66 4.67 -8.32 4.34 -9 4 C-6.35287314 0.09233654 -4.86783735 -1.62261245 0 0 Z " fill="#F2F1FD" transform="translate(240,305)"/>
<path d="M0 0 C4.875 4.625 4.875 4.625 6 8 C4.02 8.99 4.02 8.99 2 10 C1.34 6.7 0.68 3.4 0 0 Z " fill="#EDF8FC" transform="translate(248,231)"/>
<path d="M0 0 C1.12588014 0.95729916 2.2506715 1.91587895 3.375 2.875 C4.00148437 3.40867188 4.62796875 3.94234375 5.2734375 4.4921875 C6.55836651 5.61432007 7.79371975 6.79371975 9 8 C5.62537285 7.45276317 3.91765 6.9451 1 5 C0.3125 2.375 0.3125 2.375 0 0 Z " fill="#E2F1FE" transform="translate(175,168)"/>
<path d="M0 0 C4.13937592 3.30015998 7.58662205 6.17324411 10 11 C9.34 11 8.68 11 8 11 C6.63360658 9.3603279 5.3050581 7.68889872 4 6 C3.2575 5.278125 2.515 4.55625 1.75 3.8125 C0 2 0 2 0 0 Z " fill="#DFF4FE" transform="translate(299,164)"/>
<path d="M0 0 C4.08963819 2.28538605 7.46362104 4.95706926 11 8 C9.68 8.33 8.36 8.66 7 9 C5.14453125 6.70507812 5.14453125 6.70507812 3.2890625 4.41015625 C2.0333609 2.86733563 2.0333609 2.86733563 0 2 C0 1.34 0 0.68 0 0 Z " fill="#E2FAFD" transform="translate(245,119)"/>
<path d="M0 0 C0.99 0.33 1.98 0.66 3 1 C0 4 -3 7 -6 10 C-5.58578031 5.16743695 -3.53586014 3.17320782 0 0 Z " fill="#E4F9FC" transform="translate(166,111)"/>
<path d="M0 0 C0.99 0.66 1.98 1.32 3 2 C3 3.32 3 4.64 3 6 C2.34 6 1.68 6 1 6 C0.67 5.34 0.34 4.68 0 4 C-0.99 4.66 -1.98 5.32 -3 6 C-3 4.35 -3 2.7 -3 1 C-2.01 1.33 -1.02 1.66 0 2 C0 1.34 0 0.68 0 0 Z " fill="#7BA6EB" transform="translate(84,110)"/>
<path d="M0 0 C0.66 0.33 1.32 0.66 2 1 C0.35 3.64 -1.3 6.28 -3 9 C-3.66 8.34 -4.32 7.68 -5 7 C-3.47793991 4.37098712 -2.15634036 2.15634036 0 0 Z " fill="#E7F8FE" transform="translate(96,72)"/>
<path d="M0 0 C0.66 0 1.32 0 2 0 C2.69710731 1.28650706 3.38242876 2.57940665 4.0625 3.875 C4.63677734 4.95394531 4.63677734 4.95394531 5.22265625 6.0546875 C5.47917969 6.69664063 5.73570312 7.33859375 6 8 C5.67 8.66 5.34 9.32 5 10 C3.02 7.03 1.04 4.06 -1 1 C-0.67 0.67 -0.34 0.34 0 0 Z " fill="#DEF9FD" transform="translate(291,60)"/>
<path d="M0 0 C0.99 0.33 1.98 0.66 3 1 C0.36 3.97 -2.28 6.94 -5 10 C-5.33 9.01 -5.66 8.02 -6 7 C-5.34 7 -4.68 7 -4 7 C-3.71125 6.401875 -3.4225 5.80375 -3.125 5.1875 C-2 3 -2 3 0 0 Z " fill="#E0F4FE" transform="translate(109,55)"/>
<path d="M0 0 C0.66 0.33 1.32 0.66 2 1 C-1.27681643 3.75550472 -4.54173703 6.47280783 -8 9 C-8.66 8.67 -9.32 8.34 -10 8 C-6.7 5.36 -3.4 2.72 0 0 Z " fill="#7BAEE0" transform="translate(126,43)"/>
<path d="M0 0 C0.33 0 0.66 0 1 0 C1 2.97 1 5.94 1 9 C0.34 9 -0.32 9 -1 9 C-1.33 10.32 -1.66 11.64 -2 13 C-2.19294408 8.17639811 -1.75747614 4.50353262 0 0 Z " fill="#88A2F0" transform="translate(314,279)"/>
<path d="M0 0 C1.41687119 4.25061356 0.19320039 6.71851625 -1 11 C-1.66 11 -2.32 11 -3 11 C-2.53199289 6.94393835 -2.12046792 3.53411321 0 0 Z " fill="#B5B0DA" transform="translate(84,221)"/>
<path d="M0 0 C2.97 1.98 2.97 1.98 6 4 C5.67 4.66 5.34 5.32 5 6 C3.35 5.67 1.7 5.34 0 5 C-0.5625 3.0625 -0.5625 3.0625 -1 1 C-0.67 0.67 -0.34 0.34 0 0 Z " fill="#ECF5FB" transform="translate(242,225)"/>
<path d="M0 0 C2.31 0.66 4.62 1.32 7 2 C7 2.99 7 3.98 7 5 C7.99 5 8.98 5 10 5 C9.67 5.99 9.34 6.98 9 8 C7.49712782 6.85793642 5.99776716 5.71125043 4.5 4.5625 C3.6646875 3.92441406 2.829375 3.28632812 1.96875 2.62890625 C1.3190625 2.09136719 0.669375 1.55382813 0 1 C0 0.67 0 0.34 0 0 Z " fill="#CDF4FE" transform="translate(269,42)"/>
<path d="M0 0 C7.42857143 -0.28571429 7.42857143 -0.28571429 11 2 C11 2.33 11 2.66 11 3 C6.78121808 3.19622241 3.82989106 2.80230168 0 1 C0 0.67 0 0.34 0 0 Z " fill="#6CB7ED" transform="translate(227,24)"/>
<path d="M0 0 C3.3 0.99 6.6 1.98 10 3 C10 3.33 10 3.66 10 4 C5.78121808 4.19622241 2.82989106 3.80230168 -1 2 C-0.67 1.34 -0.34 0.68 0 0 Z " fill="#FDEEFD" transform="translate(152,372)"/>
<path d="M0 0 C0.99 0 1.98 0 3 0 C3.33 0.99 3.66 1.98 4 3 C3.01 3.99 2.02 4.98 1 6 C0.34 5.34 -0.32 4.68 -1 4 C-1 1 -1 1 0 0 Z " fill="#85A2E9" transform="translate(175,196)"/>
<path d="M0 0 C1.65 0 3.3 0 5 0 C5 0.99 5 1.98 5 3 C3.02 3.99 3.02 3.99 1 5 C0.34 4.01 -0.32 3.02 -1 2 C-0.67 1.34 -0.34 0.68 0 0 Z " fill="#82A3F2" transform="translate(162,187)"/>
<path d="M0 0 C3.40312738 1.05875074 6.01353231 2.00902154 9 4 C9.6875 6.125 9.6875 6.125 10 8 C8 8 8 8 5.5625 5.6875 C4.716875 4.800625 3.87125 3.91375 3 3 C2.401875 2.401875 1.80375 1.80375 1.1875 1.1875 C0.795625 0.795625 0.40375 0.40375 0 0 Z " fill="#E7F1FD" transform="translate(152,174)"/>
<path d="M0 0 C0.99 0 1.98 0 3 0 C3.28875 0.763125 3.5775 1.52625 3.875 2.3125 C4.96269013 5.15029308 4.96269013 5.15029308 7 8 C4.04590299 6.62845496 1.55991624 5.01136276 -1 3 C-0.67 2.01 -0.34 1.02 0 0 Z " fill="#61ADF4" transform="translate(253,120)"/>
<path d="M0 0 C3.08089673 2.77280706 4.68775452 5.06326356 6 9 C4.68 8.67 3.36 8.34 2 8 C1.34 5.36 0.68 2.72 0 0 Z " fill="#6BB9E6" transform="translate(297,72)"/>
<path d="M0 0 C2.97 0.33 5.94 0.66 9 1 C9 1.66 9 2.32 9 3 C5.23375329 4.25541557 3.62811066 3.37061958 0 2 C0 1.34 0 0.68 0 0 Z " fill="#FCF0FC" transform="translate(171,378)"/>
<path d="M0 0 C2.64 1.98 5.28 3.96 8 6 C7.01 6.33 6.02 6.66 5 7 C4.01 6.34 3.02 5.68 2 5 C2 4.34 2 3.68 2 3 C1.34 3 0.68 3 0 3 C0 2.01 0 1.02 0 0 Z " fill="#BBA8DD" transform="translate(154,284)"/>
<path d="M0 0 C2 1 2 1 3 3 C2.0625 5.125 2.0625 5.125 1 7 C0.34 6.67 -0.32 6.34 -1 6 C-1.625 3.4375 -1.625 3.4375 -2 1 C-1.34 0.67 -0.68 0.34 0 0 Z " fill="#9E9BE3" transform="translate(158,256)"/>
<path d="M0 0 C2.31 1.98 4.62 3.96 7 6 C5.68 6.33 4.36 6.66 3 7 C2.896875 6.360625 2.79375 5.72125 2.6875 5.0625 C2.460625 4.381875 2.23375 3.70125 2 3 C1.01 2.67 0.02 2.34 -1 2 C-0.67 1.34 -0.34 0.68 0 0 Z " fill="#97ABE4" transform="translate(194,209)"/>
<path d="M0 0 C2.4375 0.8125 2.4375 0.8125 5 2 C5.33 2.99 5.66 3.98 6 5 C6.99 5.33 7.98 5.66 9 6 C8.67 6.66 8.34 7.32 8 8 C6.66372225 6.85760183 5.33104612 5.71098945 4 4.5625 C3.2575 3.92441406 2.515 3.28632813 1.75 2.62890625 C1.1725 2.09136719 0.595 1.55382812 0 1 C0 0.67 0 0.34 0 0 Z " fill="#88ABDE" transform="translate(164,158)"/>
<path d="M0 0 C3.72114571 2.31537955 6.61229661 4.28579473 9 8 C8.01 8 7.02 8 6 8 C6 7.34 6 6.68 6 6 C5.01 5.67 4.02 5.34 3 5 C3 4.34 3 3.68 3 3 C2.01 2.67 1.02 2.34 0 2 C0 1.34 0 0.68 0 0 Z " fill="#7FB1E2" transform="translate(257,153)"/>
<path d="M0 0 C0.66 0 1.32 0 2 0 C1.01 2.97 0.02 5.94 -1 9 C-1.66 9 -2.32 9 -3 9 C-2.44271087 5.65626525 -1.64826111 2.96687001 0 0 Z " fill="#E4F7FE" transform="translate(158,121)"/>
<path d="M0 0 C1.65 0 3.3 0 5 0 C5.66 1.98 6.32 3.96 7 6 C1.125 2.25 1.125 2.25 0 0 Z " fill="#D5ECFA" transform="translate(221,123)"/>
<path d="M0 0 C3.36591866 1.44253657 5.51047079 3.33264727 8 6 C5.21788056 5.62403791 3.4120716 5.32681541 1.1875 3.5625 C0 2 0 2 0 0 Z " fill="#79AFE5" transform="translate(211,116)"/>
<path d="M0 0 C0 0.66 0 1.32 0 2 C-0.5775 2.0825 -1.155 2.165 -1.75 2.25 C-4.6159304 3.20531013 -5.9990764 4.78469173 -8 7 C-8.66 6.34 -9.32 5.68 -10 5 C-4.03225806 0 -4.03225806 0 0 0 Z " fill="#E1F5FC" transform="translate(166,90)"/>
<path d="M0 0 C0.99 0.33 1.98 0.66 3 1 C2.67 1.99 2.34 2.98 2 4 C1.34 4 0.68 4 0 4 C-0.33 4.99 -0.66 5.98 -1 7 C-1.33 7 -1.66 7 -2 7 C-2 5.35 -2 3.7 -2 2 C-1.34 2 -0.68 2 0 2 C0 1.34 0 0.68 0 0 Z " fill="#58B5F2" transform="translate(283,56)"/>
<path d="M0 0 C0.33 1.32 0.66 2.64 1 4 C0.01 4.495 0.01 4.495 -1 5 C-3.625 3.625 -3.625 3.625 -6 2 C-6 1.67 -6 1.34 -6 1 C-4.02 0.67 -2.04 0.34 0 0 Z " fill="#DF8BD7" transform="translate(143,360)"/>
<path d="M0 0 C0.33 0.99 0.66 1.98 1 3 C1.66 3 2.32 3 3 3 C2.67 4.65 2.34 6.3 2 8 C1.01 7.67 0.02 7.34 -1 7 C-0.67 4.69 -0.34 2.38 0 0 Z " fill="#92B1EA" transform="translate(82,104)"/>
<path d="M0 0 C1.2065625 0.0309375 1.2065625 0.0309375 2.4375 0.0625 C1.0625 2.5625 1.0625 2.5625 -0.5625 5.0625 C-1.2225 5.0625 -1.8825 5.0625 -2.5625 5.0625 C-3.125 3.125 -3.125 3.125 -3.5625 1.0625 C-2.5625 0.0625 -2.5625 0.0625 0 0 Z " fill="#6CB4EF" transform="translate(130.5625,40.9375)"/>
<path d="M0 0 C0 0.66 0 1.32 0 2 C-5.41538462 3.23076923 -5.41538462 3.23076923 -8.375 2.0625 C-8.91125 1.711875 -9.4475 1.36125 -10 1 C-6.61981469 -0.04005702 -3.5219721 -0.08004482 0 0 Z " fill="#7EBEE9" transform="translate(184,20)"/>
<path d="M0 0 C0.66 0.66 1.32 1.32 2 2 C0.68 4.31 -0.64 6.62 -2 9 C-2.33 7.68 -2.66 6.36 -3 5 C-2.34 5 -1.68 5 -1 5 C-0.67 3.35 -0.34 1.7 0 0 Z " fill="#9EA5E0" transform="translate(306,309)"/>
<path d="M0 0 C0.99 0.33 1.98 0.66 3 1 C3 3.31 3 5.62 3 8 C0.37613513 4.93882432 0 4.26826873 0 0 Z " fill="#C097CC" transform="translate(83,293)"/>
<path d="M0 0 C1.65 0.33 3.3 0.66 5 1 C4.01 2.485 4.01 2.485 3 4 C1.68 3.67 0.36 3.34 -1 3 C-0.67 2.01 -0.34 1.02 0 0 Z " fill="#B09DE5" transform="translate(129,266)"/>
<path d="M0 0 C2.62187494 1.04874998 3.79371361 1.64931313 5.25 4.125 C5.4975 4.74375 5.745 5.3625 6 6 C4.125 5.8125 4.125 5.8125 2 5 C0.75 2.4375 0.75 2.4375 0 0 Z " fill="#9CACE2" transform="translate(231,242)"/>
<path d="M0 0 C2.475 0.495 2.475 0.495 5 1 C4.34 2.32 3.68 3.64 3 5 C2.01 4.67 1.02 4.34 0 4 C0 2.68 0 1.36 0 0 Z " fill="#989BEB" transform="translate(138,242)"/>
<path d="M0 0 C5.875 3.75 5.875 3.75 7 6 C4.69 5.67 2.38 5.34 0 5 C0 3.35 0 1.7 0 0 Z " fill="#97AEE4" transform="translate(185,202)"/>
<path d="M0 0 C3.34249629 0.59687434 5.46436342 1.73603877 8 4 C8 4.66 8 5.32 8 6 C4.63408134 4.55746343 2.48952921 2.66735273 0 0 Z " fill="#E8F4FE" transform="translate(181,198)"/>
<path d="M0 0 C0.99 0.33 1.98 0.66 3 1 C4.1875 4.5625 4.1875 4.5625 5 8 C2.5 5.6875 2.5 5.6875 0 3 C0 2.01 0 1.02 0 0 Z " fill="#E4F3FE" transform="translate(289,178)"/>
<path d="M0 0 C2.31 0.66 4.62 1.32 7 2 C7.33 3.65 7.66 5.3 8 7 C6.66382648 6.02471263 5.3311249 5.04466681 4 4.0625 C3.2575 3.51722656 2.515 2.97195312 1.75 2.41015625 C1.1725 1.94480469 0.595 1.47945312 0 1 C0 0.67 0 0.34 0 0 Z " fill="#D8EFFC" transform="translate(232,132)"/>
<path d="M0 0 C0.99 0.33 1.98 0.66 3 1 C0.69 2.65 -1.62 4.3 -4 6 C-4 5.01 -4 4.02 -4 3 C-3.34 3 -2.68 3 -2 3 C-2 2.34 -2 1.68 -2 1 C-1.34 0.67 -0.68 0.34 0 0 Z " fill="#8CB3DE" transform="translate(157,92)"/>
<path d="M0 0 C2.64 0 5.28 0 8 0 C7.67 0.99 7.34 1.98 7 3 C4.0625 2.625 4.0625 2.625 1 2 C0.67 1.34 0.34 0.68 0 0 Z " fill="#D6A0D1" transform="translate(159,373)"/>
<path d="M0 0 C1.9375 0.8125 1.9375 0.8125 4 2 C4.33 2.99 4.66 3.98 5 5 C5.66 5 6.32 5 7 5 C6.67 5.66 6.34 6.32 6 7 C4 5.625 4 5.625 2 4 C2 3.34 2 2.68 2 2 C1.34 2 0.68 2 0 2 C0 1.34 0 0.68 0 0 Z " fill="#A699D6" transform="translate(105,245)"/>
<path d="M0 0 C3.4375 0.8125 3.4375 0.8125 7 2 C7.33 2.99 7.66 3.98 8 5 C5 5 5 5 2.3125 2.5 C1.549375 1.675 0.78625 0.85 0 0 Z " fill="#ABAAE2" transform="translate(138,246)"/>
<path d="M0 0 C2.04119788 1.61594832 4.04072937 3.2856382 6 5 C6 5.66 6 6.32 6 7 C4.125 6.875 4.125 6.875 2 6 C0.75 2.9375 0.75 2.9375 0 0 Z " fill="#EBF5FC" transform="translate(232,216)"/>
<path d="M0 0 C2.875 0.6875 2.875 0.6875 6 2 C7.375 4.625 7.375 4.625 8 7 C6.66382648 6.02471263 5.3311249 5.04466681 4 4.0625 C3.2575 3.51722656 2.515 2.97195312 1.75 2.41015625 C1.1725 1.94480469 0.595 1.47945312 0 1 C0 0.67 0 0.34 0 0 Z " fill="#8FA9E3" transform="translate(192,182)"/>
<path d="M0 0 C5.875 3.75 5.875 3.75 7 6 C6.01 6 5.02 6 4 6 C3.67 5.34 3.34 4.68 3 4 C1.35636866 3.27840576 -0.31050386 2.60648579 -2 2 C-1.34 1.34 -0.68 0.68 0 0 Z " fill="#DCF4FC" transform="translate(220,98)"/>
<path d="M0 0 C0.33 0 0.66 0 1 0 C1.125 5.75 1.125 5.75 0 8 C-0.66 8 -1.32 8 -2 8 C-1.125 1.125 -1.125 1.125 0 0 Z " fill="#80AADE" transform="translate(89,88)"/>
<path d="M0 0 C2 2 2 2 2.125 5.625 C2.08375 6.73875 2.0425 7.8525 2 9 C1.01 8.34 0.02 7.68 -1 7 C-0.67 4.69 -0.34 2.38 0 0 Z " fill="#56B3F7" transform="translate(305,88)"/>
<path d="M0 0 C1.65 0.33 3.3 0.66 5 1 C5 1.66 5 2.32 5 3 C3.35 3.33 1.7 3.66 0 4 C0 2.68 0 1.36 0 0 Z " fill="#5DB6EE" transform="translate(257,36)"/>
<path d="M0 0 C0.66 0 1.32 0 2 0 C1.67 2.31 1.34 4.62 1 7 C0.34 7 -0.32 7 -1 7 C-1.04254356 5.00045254 -1.04080783 2.99958364 -1 1 C-0.67 0.67 -0.34 0.34 0 0 Z " fill="#EBFBFE" transform="translate(254,26)"/>
<path d="M0 0 C2.125 0.9375 2.125 0.9375 4 2 C1.35261084 3.4606285 0.10551666 4 -3 4 C-2.67 3.01 -2.34 2.02 -2 1 C-1.34 0.67 -0.68 0.34 0 0 Z " fill="#FBF8F5" transform="translate(147,25)"/>
<path d="M0 0 C0.66 0.33 1.32 0.66 2 1 C-1.465 3.97 -1.465 3.97 -5 7 C-5 6.01 -5 5.02 -5 4 C-2.5 1.8125 -2.5 1.8125 0 0 Z " fill="#EDE6F9" transform="translate(275,352)"/>
<path d="M0 0 C1.98 0.66 3.96 1.32 6 2 C5.34 2.66 4.68 3.32 4 4 C1.875 3.625 1.875 3.625 0 3 C0 2.01 0 1.02 0 0 Z " fill="#B495E4" transform="translate(179,308)"/>
<path d="M0 0 C2.5 1.3125 2.5 1.3125 5 3 C5 3.99 5 4.98 5 6 C4.01 6.495 4.01 6.495 3 7 C2.67 5.35 2.34 3.7 2 2 C1.34 2 0.68 2 0 2 C0 1.34 0 0.68 0 0 Z " fill="#B9A4DD" transform="translate(168,296)"/>
<path d="M0 0 C0.99 0.33 1.98 0.66 3 1 C3.33 2.65 3.66 4.3 4 6 C2.68 5.67 1.36 5.34 0 5 C0 3.35 0 1.7 0 0 Z " fill="#7CA4EE" transform="translate(164,153)"/>
<path d="M0 0 C0.66 0.33 1.32 0.66 2 1 C1.67 1.99 1.34 2.98 1 4 C0.34 4 -0.32 4 -1 4 C-1.33 4.66 -1.66 5.32 -2 6 C-2.66 5.67 -3.32 5.34 -4 5 C-4 4.34 -4 3.68 -4 3 C-3.01 2.67 -2.02 2.34 -1 2 C-0.67 1.34 -0.34 0.68 0 0 Z " fill="#57B4F8" transform="translate(308,98)"/>
<path d="M0 0 C0.99 0 1.98 0 3 0 C2.67 1.98 2.34 3.96 2 6 C1.01 6 0.02 6 -1 6 C-0.67 4.02 -0.34 2.04 0 0 Z " fill="#60B0F6" transform="translate(229,98)"/>
<path d="M0 0 C0.99 0.33 1.98 0.66 3 1 C3 2.65 3 4.3 3 6 C1.68 5.01 0.36 4.02 -1 3 C-0.67 2.01 -0.34 1.02 0 0 Z " fill="#FCF6EE" transform="translate(293,56)"/>
<path d="M0 0 C0.66 0 1.32 0 2 0 C2.33 1.98 2.66 3.96 3 6 C2.01 6.495 2.01 6.495 1 7 C0.67 4.69 0.34 2.38 0 0 Z " fill="#C8A3D5" transform="translate(81,287)"/>
<path d="M0 0 C0.99 0.33 1.98 0.66 3 1 C4.1875 3.5625 4.1875 3.5625 5 6 C3.02 4.68 1.04 3.36 -1 2 C-0.67 1.34 -0.34 0.68 0 0 Z " fill="#E7F2FB" transform="translate(225,233)"/>
<path d="M0 0 C1.98 1.65 3.96 3.3 6 5 C3 5 3 5 0.8125 3 C0.214375 2.34 -0.38375 1.68 -1 1 C-0.67 0.67 -0.34 0.34 0 0 Z " fill="#E5E7FD" transform="translate(107,220)"/>
<path d="M0 0 C2.97 0.495 2.97 0.495 6 1 C5.67 1.66 5.34 2.32 5 3 C3.35 2.67 1.7 2.34 0 2 C0 1.34 0 0.68 0 0 Z " fill="#7EA4F2" transform="translate(217,200)"/>
<path d="M0 0 C1.32 0.33 2.64 0.66 4 1 C4.33 2.65 4.66 4.3 5 6 C3.2925002 4.71937515 1.62626404 3.38232443 0 2 C0 1.34 0 0.68 0 0 Z " fill="#8BA6E1" transform="translate(207,193)"/>
<path d="M0 0 C1.98 0.66 3.96 1.32 6 2 C5.67 2.99 5.34 3.98 5 5 C3.68 4.67 2.36 4.34 1 4 C0.67 2.68 0.34 1.36 0 0 Z " fill="#6AA9F2" transform="translate(240,142)"/>
<path d="M0 0 C2.88437779 1.29299694 4.87219421 2.65941363 7 5 C4.61435923 4.42415568 2.33317216 3.77772405 0 3 C0 2.01 0 1.02 0 0 Z " fill="#7BAEE0" transform="translate(239,139)"/>
<path d="M0 0 C3.16115776 1.36983503 3.9927092 1.9890638 6 5 C4.125 4.75 4.125 4.75 2 4 C0.75 1.9375 0.75 1.9375 0 0 Z " fill="#7AAEE1" transform="translate(233,134)"/>
<path d="M0 0 C1.32 0 2.64 0 4 0 C4 1.65 4 3.3 4 5 C2 3.625 2 3.625 0 2 C0 1.34 0 0.68 0 0 Z " fill="#70B0E5" transform="translate(224,99)"/>
<path d="M0 0 C-0.33 0.99 -0.66 1.98 -1 3 C-2.65 3.33 -4.3 3.66 -6 4 C-6.33 3.34 -6.66 2.68 -7 2 C-4.35261084 0.5393715 -3.10551666 0 0 0 Z " fill="#62B0F4" transform="translate(224,90)"/>
<path d="M0 0 C1.65 0 3.3 0 5 0 C5.33 1.32 5.66 2.64 6 4 C1.125 2.25 1.125 2.25 0 0 Z " fill="#DEF7FE" transform="translate(256,33)"/>
<path d="M0 0 C0.99 0.33 1.98 0.66 3 1 C2.625 2.9375 2.625 2.9375 2 5 C1.01 5.495 1.01 5.495 0 6 C0 4.02 0 2.04 0 0 Z " fill="#7DAAE2" transform="translate(314,235)"/>
<path d="M0 0 C1.98 0.66 3.96 1.32 6 2 C6 2.99 6 3.98 6 5 C3.98079663 3.69593116 1.98075027 2.36176581 0 1 C0 0.67 0 0.34 0 0 Z " fill="#E0EEFD" transform="translate(170,189)"/>
<path d="M0 0 C2.35953094 2.35953094 2.49141413 3.77895617 3 7 C1.68 5.68 0.36 4.36 -1 3 C-0.67 2.01 -0.34 1.02 0 0 Z " fill="#DDE6FB" transform="translate(84,180)"/>
<path d="M0 0 C1.41377341 2.63904371 2.37240135 5.07120629 3 8 C2.34 8 1.68 8 1 8 C-1.125 3.375 -1.125 3.375 0 0 Z " fill="#EDF3FB" transform="translate(81,171)"/>
<path d="M0 0 C1.485 0.99 1.485 0.99 3 2 C2.67 3.32 2.34 4.64 2 6 C1.01 4.68 0.02 3.36 -1 2 C-0.67 1.34 -0.34 0.68 0 0 Z " fill="#EFFBFB" transform="translate(149,167)"/>
<path d="M0 0 C2.97 1.98 2.97 1.98 6 4 C4.68 4.33 3.36 4.66 2 5 C1.34 3.35 0.68 1.7 0 0 Z " fill="#DDF5FD" transform="translate(281,148)"/>
<path d="M0 0 C0.99 0 1.98 0 3 0 C3 0.66 3 1.32 3 2 C3.66 2.33 4.32 2.66 5 3 C3.68 3.33 2.36 3.66 1 4 C0.34 3.01 -0.32 2.02 -1 1 C-0.67 0.67 -0.34 0.34 0 0 Z " fill="#FCFAEF" transform="translate(261,151)"/>
<path d="M0 0 C2.125 0.9375 2.125 0.9375 4 2 C3.01 2.495 3.01 2.495 2 3 C1.67 3.66 1.34 4.32 1 5 C0.01 3.68 -0.98 2.36 -2 1 C-1.34 0.67 -0.68 0.34 0 0 Z " fill="#E0F2FB" transform="translate(243,138)"/>
<path d="M0 0 C0.6875 1.8125 0.6875 1.8125 1 4 C-0.4375 5.75 -0.4375 5.75 -2 7 C-2.125 4.625 -2.125 4.625 -2 2 C-1.34 1.34 -0.68 0.68 0 0 Z " fill="#F8FDF2" transform="translate(106,55)"/>
<path d="M0 0 C1.98 0.66 3.96 1.32 6 2 C6 2.66 6 3.32 6 4 C3.83125748 3.49396008 2.00032373 3.00016187 0 2 C0 1.34 0 0.68 0 0 Z " fill="#67B5E4" transform="translate(240,27)"/>
<path d="M0 0 C0 0.66 0 1.32 0 2 C-1.98 2 -3.96 2 -6 2 C-6 1.34 -6 0.68 -6 0 C-2.25 -1.125 -2.25 -1.125 0 0 Z " fill="#58B4EF" transform="translate(176,28)"/>
<path d="M0 0 C1.65 0.33 3.3 0.66 5 1 C2 3 2 3 -1 3 C-0.67 2.01 -0.34 1.02 0 0 Z " fill="#F5F0FD" transform="translate(220,311)"/>
<path d="M0 0 C0.33 0 0.66 0 1 0 C1 1.65 1 3.3 1 5 C-0.32 5.33 -1.64 5.66 -3 6 C-2.01 4.02 -1.02 2.04 0 0 Z " fill="#A5ACE3" transform="translate(254,288)"/>
<path d="M0 0 C1.32 1.32 2.64 2.64 4 4 C3.67 4.99 3.34 5.98 3 7 C0 3.375 0 3.375 0 0 Z " fill="#94A8DB" transform="translate(248,228)"/>
<path d="M0 0 C1.32 0.33 2.64 0.66 4 1 C4.33 2.32 4.66 3.64 5 5 C4.34 5 3.68 5 3 5 C1.375 2.5 1.375 2.5 0 0 Z " fill="#A2A7DD" transform="translate(101,212)"/>
<path d="M0 0 C4.875 2.75 4.875 2.75 6 5 C4.68 4.67 3.36 4.34 2 4 C2 3.34 2 2.68 2 2 C1.34 2 0.68 2 0 2 C0 1.34 0 0.68 0 0 Z " fill="#E1ECFD" transform="translate(222,208)"/>
<path d="M0 0 C0.99 0 1.98 0 3 0 C3.66 1.65 4.32 3.3 5 5 C3.0625 4.1875 3.0625 4.1875 1 3 C0.67 2.01 0.34 1.02 0 0 Z " fill="#77AFDF" transform="translate(307,171)"/>
<path d="M0 0 C0.66 0 1.32 0 2 0 C2.33 0.99 2.66 1.98 3 3 C1.68 3.33 0.36 3.66 -1 4 C-0.67 2.68 -0.34 1.36 0 0 Z " fill="#FCF9F1" transform="translate(297,164)"/>
<path d="M0 0 C1.65 1.32 3.3 2.64 5 4 C3.35 4 1.7 4 0 4 C-0.33 3.34 -0.66 2.68 -1 2 C-0.67 1.34 -0.34 0.68 0 0 Z " fill="#E1F7FD" transform="translate(276,144)"/>
<path d="M0 0 C0.99 0.33 1.98 0.66 3 1 C3 2.32 3 3.64 3 5 C2.01 4.67 1.02 4.34 0 4 C0 2.68 0 1.36 0 0 Z " fill="#66AFF8" transform="translate(283,144)"/>
<path d="M0 0 C2.97 1.98 2.97 1.98 6 4 C4.68 4.33 3.36 4.66 2 5 C1.34 3.35 0.68 1.7 0 0 Z " fill="#E2F5FE" transform="translate(270,139)"/>
<path d="M0 0 C1.32 0.99 2.64 1.98 4 3 C3.67 3.99 3.34 4.98 3 6 C2.34 5.67 1.68 5.34 1 5 C0.375 2.4375 0.375 2.4375 0 0 Z " fill="#6AB8E9" transform="translate(286,58)"/>
<path d="M0 0 C1.32 0 2.64 0 4 0 C4 1.32 4 2.64 4 4 C3.01 4 2.02 4 1 4 C0.67 2.68 0.34 1.36 0 0 Z " fill="#F8FBF6" transform="translate(260,32)"/>
<path d="M0 0 C0.66 1.32 1.32 2.64 2 4 C1.34 4.66 0.68 5.32 0 6 C-0.38218767 4.34385343 -0.71395102 2.67542976 -1 1 C-0.67 0.67 -0.34 0.34 0 0 Z " fill="#DB89DF" transform="translate(102,324)"/>
<path d="M0 0 C0.66 0 1.32 0 2 0 C2.33 1.65 2.66 3.3 3 5 C2.01 4.67 1.02 4.34 0 4 C0 2.68 0 1.36 0 0 Z " fill="#B093E2" transform="translate(160,291)"/>
<path d="M0 0 C1.32 0.66 2.64 1.32 4 2 C3.67 2.99 3.34 3.98 3 5 C3 4.34 3 3.68 3 3 C1.68 2.34 0.36 1.68 -1 1 C-0.67 0.67 -0.34 0.34 0 0 Z " fill="#A39CE6" transform="translate(187,282)"/>
<path d="M0 0 C0.99 1.32 1.98 2.64 3 4 C2.67 4.66 2.34 5.32 2 6 C1.01 5.34 0.02 4.68 -1 4 C-0.67 2.68 -0.34 1.36 0 0 Z " fill="#EEF5FA" transform="translate(91,196)"/>
<path d="M0 0 C1.65 0 3.3 0 5 0 C5 0.99 5 1.98 5 3 C3.0625 2.625 3.0625 2.625 1 2 C0.67 1.34 0.34 0.68 0 0 Z " fill="#76A6EA" transform="translate(194,176)"/>
<path d="M0 0 C1.98 0.99 1.98 0.99 4 2 C3.67 2.99 3.34 3.98 3 5 C2.01 4.34 1.02 3.68 0 3 C0 2.01 0 1.02 0 0 Z " fill="#80B0E0" transform="translate(290,153)"/>
<path d="M0 0 C3.875 1.75 3.875 1.75 5 4 C3.0625 3.6875 3.0625 3.6875 1 3 C0.67 2.01 0.34 1.02 0 0 Z " fill="#65B7EB" transform="translate(275,48)"/>
<path d="M0 0 C-1.98 0.99 -1.98 0.99 -4 2 C-4.99 1.34 -5.98 0.68 -7 0 C-3.86650268 -1.04449911 -3.01031744 -0.93423645 0 0 Z " fill="#F4DEF9" transform="translate(232,377)"/>
<path d="M0 0 C1.65 0 3.3 0 5 0 C5.33 0.99 5.66 1.98 6 3 C4.02 2.34 2.04 1.68 0 1 C0 0.67 0 0.34 0 0 Z " fill="#D191CD" transform="translate(131,359)"/>
<path d="M0 0 C0.99 0.99 1.98 1.98 3 3 C2.34 3.66 1.68 4.32 1 5 C0.34 3.68 -0.32 2.36 -1 1 C-0.67 0.67 -0.34 0.34 0 0 Z " fill="#FEECFE" transform="translate(106,338)"/>
<path d="M0 0 C1.32 0.33 2.64 0.66 4 1 C4 1.99 4 2.98 4 4 C2.68 2.68 1.36 1.36 0 0 Z " fill="#F9F2FC" transform="translate(171,297)"/>
<path d="M0 0 C0.99 0 1.98 0 3 0 C2.67 0.99 2.34 1.98 2 3 C1.01 3 0.02 3 -1 3 C-0.67 2.01 -0.34 1.02 0 0 Z " fill="#9E9BF1" transform="translate(148,248)"/>
<path d="M0 0 C1.32 0.33 2.64 0.66 4 1 C4 1.99 4 2.98 4 4 C2.68 2.68 1.36 1.36 0 0 Z " fill="#E8F0FD" transform="translate(231,240)"/>
<path d="M0 0 C1.98 0.99 1.98 0.99 4 2 C4 2.66 4 3.32 4 4 C2.68 3.67 1.36 3.34 0 3 C0 2.01 0 1.02 0 0 Z " fill="#EBEEFD" transform="translate(113,226)"/>
<path d="M0 0 C1.98 0.66 3.96 1.32 6 2 C5.34 2.66 4.68 3.32 4 4 C2.68 2.68 1.36 1.36 0 0 Z " fill="#D7E6F9" transform="translate(152,174)"/>
<path d="M0 0 C1.32 0 2.64 0 4 0 C3.67 1.32 3.34 2.64 3 4 C2.01 2.68 1.02 1.36 0 0 Z " fill="#E0F8FE" transform="translate(262,156)"/>
<path d="M0 0 C2.475 0.495 2.475 0.495 5 1 C4.67 1.66 4.34 2.32 4 3 C3.01 3 2.02 3 1 3 C0.67 2.01 0.34 1.02 0 0 Z " fill="#66A8FD" transform="translate(246,149)"/>
<path d="M0 0 C1.32 1.32 2.64 2.64 4 4 C3.01 4 2.02 4 1 4 C0.67 2.68 0.34 1.36 0 0 Z " fill="#E3F6FD" transform="translate(258,129)"/>
<path d="M0 0 C1.9375 0.375 1.9375 0.375 4 1 C4.33 1.66 4.66 2.32 5 3 C3.68 3 2.36 3 1 3 C0.67 2.01 0.34 1.02 0 0 Z " fill="#65AEF8" transform="translate(216,123)"/>
<path d="M0 0 C0.33 0.99 0.66 1.98 1 3 C0.67 3.66 0.34 4.32 0 5 C-0.66 5 -1.32 5 -2 5 C-1.125 1.125 -1.125 1.125 0 0 Z " fill="#EFFCFC" transform="translate(141,116)"/>
<path d="M0 0 C0.625 1.875 0.625 1.875 1 4 C0.34 4.66 -0.32 5.32 -1 6 C-1 2 -1 2 0 0 Z " fill="#FAFCF1" transform="translate(90,75)"/>
<path d="M0 0 C1.65 0 3.3 0 5 0 C4.01 0.99 3.02 1.98 2 3 C1.34 2.01 0.68 1.02 0 0 Z " fill="#FAF4FB" transform="translate(251,368)"/>
<path d="M0 0 C0.66 1.32 1.32 2.64 2 4 C1.01 4 0.02 4 -1 4 C-0.67 2.68 -0.34 1.36 0 0 Z " fill="#B696E9" transform="translate(169,298)"/>
<path d="M0 0 C1.32 0 2.64 0 4 0 C3.67 0.99 3.34 1.98 3 3 C2.01 2.67 1.02 2.34 0 2 C0 1.34 0 0.68 0 0 Z " fill="#AB96DC" transform="translate(136,273)"/>
<path d="M0 0 C0.66 0 1.32 0 2 0 C2 0.99 2 1.98 2 3 C0.68 2.67 -0.64 2.34 -2 2 C-1.34 1.34 -0.68 0.68 0 0 Z " fill="#87A3F7" transform="translate(229,208)"/>
<path d="M0 0 C0.99 0.33 1.98 0.66 3 1 C3 1.66 3 2.32 3 3 C1.68 3 0.36 3 -1 3 C-0.67 2.01 -0.34 1.02 0 0 Z " fill="#85A4FB" transform="translate(148,173)"/>
<path d="M0 0 C0.99 0 1.98 0 3 0 C2.67 0.99 2.34 1.98 2 3 C1.01 2.67 0.02 2.34 -1 2 C-0.67 1.34 -0.34 0.68 0 0 Z " fill="#FBFEF0" transform="translate(248,125)"/>
<path d="M0 0 C0.66 0 1.32 0 2 0 C2.33 1.32 2.66 2.64 3 4 C2.01 4.495 2.01 4.495 1 5 C0.67 3.35 0.34 1.7 0 0 Z " fill="#68AAF3" transform="translate(209,116)"/>
<path d="M0 0 C0.99 0.33 1.98 0.66 3 1 C2.67 1.66 2.34 2.32 2 3 C1.01 3 0.02 3 -1 3 C-0.67 2.01 -0.34 1.02 0 0 Z " fill="#68AEEF" transform="translate(109,60)"/>
<path d="M0 0 C0.66 0.99 1.32 1.98 2 3 C1.01 3.66 0.02 4.32 -1 5 C-0.67 3.35 -0.34 1.7 0 0 Z " fill="#EEF3F9" transform="translate(238,245)"/>
<path d="M0 0 C1.98 0.99 1.98 0.99 4 2 C3.01 2.33 2.02 2.66 1 3 C0.67 2.01 0.34 1.02 0 0 Z " fill="#9BABE1" transform="translate(219,231)"/>
<path d="M0 0 C0.66 0.66 1.32 1.32 2 2 C1.67 2.99 1.34 3.98 1 5 C0.34 4.01 -0.32 3.02 -1 2 C-0.67 1.34 -0.34 0.68 0 0 Z " fill="#E8F2FB" transform="translate(222,229)"/>
<path d="M0 0 C0.99 0.33 1.98 0.66 3 1 C2.67 1.99 2.34 2.98 2 4 C1.34 2.68 0.68 1.36 0 0 Z " fill="#E3F4F8" transform="translate(308,209)"/>
<path d="M0 0 C1.32 0.99 2.64 1.98 4 3 C2.35 2.67 0.7 2.34 -1 2 C-0.67 1.34 -0.34 0.68 0 0 Z " fill="#E7F4FD" transform="translate(216,203)"/>
<path d="M0 0 C1.485 0.99 1.485 0.99 3 2 C1.68 2.33 0.36 2.66 -1 3 C-0.67 2.01 -0.34 1.02 0 0 Z " fill="#EEF3FA" transform="translate(212,200)"/>
<path d="M0 0 C1.485 0.99 1.485 0.99 3 2 C3 2.66 3 3.32 3 4 C2.01 3.67 1.02 3.34 0 3 C0 2.01 0 1.02 0 0 Z " fill="#7FA3F7" transform="translate(198,183)"/>
<path d="M0 0 C0.99 0.99 1.98 1.98 3 3 C2.01 3.33 1.02 3.66 0 4 C0 2.68 0 1.36 0 0 Z " fill="#82A1F8" transform="translate(153,180)"/>
<path d="M0 0 C0.99 0.99 1.98 1.98 3 3 C2.01 3.495 2.01 3.495 1 4 C0.34 3.34 -0.32 2.68 -1 2 C-0.67 1.34 -0.34 0.68 0 0 Z " fill="#E4F4FD" transform="translate(166,161)"/>
<path d="M0 0 C1.98 0.99 1.98 0.99 4 2 C3.01 2.33 2.02 2.66 1 3 C0.67 2.01 0.34 1.02 0 0 Z " fill="#83AEE0" transform="translate(266,161)"/>
<path d="M0 0 C1.32 0.33 2.64 0.66 4 1 C4 1.66 4 2.32 4 3 C2.68 2.34 1.36 1.68 0 1 C0 0.67 0 0.34 0 0 Z " fill="#89B7E1" transform="translate(272,140)"/>
<path d="M0 0 C0.66 0.33 1.32 0.66 2 1 C1.67 1.99 1.34 2.98 1 4 C0.01 3.01 -0.98 2.02 -2 1 C-1.34 0.67 -0.68 0.34 0 0 Z " fill="#DBF0FB" transform="translate(230,128)"/>
<path d="M0 0 C1.98 0.99 1.98 0.99 4 2 C3.01 2.33 2.02 2.66 1 3 C0.67 2.01 0.34 1.02 0 0 Z " fill="#84AADD" transform="translate(211,116)"/>
<path d="M0 0 C0.99 0.33 1.98 0.66 3 1 C2.67 1.99 2.34 2.98 2 4 C1.34 2.68 0.68 1.36 0 0 Z " fill="#6FAEE6" transform="translate(235,108)"/>
<path d="M0 0 C0.33 0.66 0.66 1.32 1 2 C1.66 2.33 2.32 2.66 3 3 C2.01 3.33 1.02 3.66 0 4 C0 2.68 0 1.36 0 0 Z " fill="#FDF8F0" transform="translate(217,100)"/>
<path d="M0 0 C0.66 0.33 1.32 0.66 2 1 C1.67 1.99 1.34 2.98 1 4 C0.34 4 -0.32 4 -1 4 C-0.67 2.68 -0.34 1.36 0 0 Z " fill="#8CB3E4" transform="translate(91,83)"/>
<path d="M0 0 C0.99 0.33 1.98 0.66 3 1 C2.67 1.99 2.34 2.98 2 4 C1.34 2.68 0.68 1.36 0 0 Z " fill="#78A7E0" transform="translate(92,82)"/>
<path d="M0 0 C0.99 0 1.98 0 3 0 C2.67 0.99 2.34 1.98 2 3 C1.34 3 0.68 3 0 3 C0 2.01 0 1.02 0 0 Z " fill="#5AB3FC" transform="translate(128,43)"/>
<path d="M0 0 C0.66 0.33 1.32 0.66 2 1 C1.67 1.99 1.34 2.98 1 4 C0.34 3.34 -0.32 2.68 -1 2 C-0.67 1.34 -0.34 0.68 0 0 Z " fill="#939CE1" transform="translate(252,298)"/>
<path d="M0 0 C0.99 0.33 1.98 0.66 3 1 C2.67 1.66 2.34 2.32 2 3 C1.34 3 0.68 3 0 3 C0 2.01 0 1.02 0 0 Z " fill="#F7FDF2" transform="translate(192,186)"/>
<path d="M0 0 C0.99 0 1.98 0 3 0 C2.67 0.99 2.34 1.98 2 3 C1.34 2.67 0.68 2.34 0 2 C0 1.34 0 0.68 0 0 Z " fill="#F5FAF5" transform="translate(155,96)"/>
<path d="M0 0 C0.99 0.33 1.98 0.66 3 1 C3 1.66 3 2.32 3 3 C2.01 2.67 1.02 2.34 0 2 C0 1.34 0 0.68 0 0 Z " fill="#58B1FB" transform="translate(221,94)"/>
<path d="M0 0 C0.99 0.33 1.98 0.66 3 1 C2.67 1.66 2.34 2.32 2 3 C1.34 3 0.68 3 0 3 C0 2.01 0 1.02 0 0 Z " fill="#49B9FB" transform="translate(292,69)"/>
<path d="M0 0 C0.66 0.33 1.32 0.66 2 1 C1.67 1.99 1.34 2.98 1 4 C0.34 3.01 -0.32 2.02 -1 1 C-0.67 0.67 -0.34 0.34 0 0 Z " fill="#DBEEFD" transform="translate(98,68)"/>
<path d="M0 0 C0.66 0.66 1.32 1.32 2 2 C1.01 2.33 0.02 2.66 -1 3 C-0.67 2.01 -0.34 1.02 0 0 Z " fill="#F4F3FB" transform="translate(180,281)"/>
<path d="M0 0 C0.99 0.33 1.98 0.66 3 1 C2.34 1.66 1.68 2.32 1 3 C0.67 2.01 0.34 1.02 0 0 Z " fill="#B5A7DC" transform="translate(147,279)"/>
<path d="M0 0 C1.485 0.99 1.485 0.99 3 2 C2.01 2.33 1.02 2.66 0 3 C0 2.01 0 1.02 0 0 Z " fill="#F2F4FA" transform="translate(144,252)"/>
<path d="M0 0 C0.99 0.33 1.98 0.66 3 1 C2.34 1.66 1.68 2.32 1 3 C0.67 2.01 0.34 1.02 0 0 Z " fill="#A694E8" transform="translate(99,244)"/>
<path d="M0 0 C0.66 0.66 1.32 1.32 2 2 C1.01 2.33 0.02 2.66 -1 3 C-0.67 2.01 -0.34 1.02 0 0 Z " fill="#FAFCEE" transform="translate(177,173)"/>
<path d="M0 0 C0.66 0.66 1.32 1.32 2 2 C1.01 2 0.02 2 -1 2 C-0.67 1.34 -0.34 0.68 0 0 Z " fill="#F9DFFA" transform="translate(106,338)"/>
<path d="M0 0 C0.66 0.66 1.32 1.32 2 2 C1.01 2 0.02 2 -1 2 C-0.67 1.34 -0.34 0.68 0 0 Z " fill="#F2EFFB" transform="translate(169,272)"/>
<path d="M0 0 C0.66 0.66 1.32 1.32 2 2 C1.01 2 0.02 2 -1 2 C-0.67 1.34 -0.34 0.68 0 0 Z " fill="#A69BE2" transform="translate(95,237)"/>
</svg>
