<?xml version="1.0" encoding="UTF-8"?>
<svg version="1.1" xmlns="http://www.w3.org/2000/svg" width="150" height="150">
<path d="M0 0 C14.96826471 11.43953667 25.02008586 26.53026444 28.34765625 45.1875 C29.90355663 65.97647512 26.34208017 84.49522628 12.53515625 100.8125 C1.09703195 113.23103496 -13.73389874 123.0709652 -31.01733398 124.36450195 C-52.45809896 124.90218124 -70.3334259 121.21808223 -86.65234375 106.1875 C-99.609464 93.57135659 -107.58518829 77.83510465 -107.94482422 59.63623047 C-108.08928034 38.80988614 -102.08396452 21.95511052 -87.33984375 6.8125 C-63.39070491 -15.90847787 -27.23754765 -18.6129928 0 0 Z " fill="#3BD2F0" transform="translate(114.65234375,18.8125)"/>
<path d="M0 0 C4.7523233 0.1703051 7.0455348 2.49636501 10.375 5.6875 C13.38433313 8.54159375 16.3750089 11.35573137 19.625 13.9375 C23.66650669 17.33314848 26.81206378 21.48955368 30.08203125 25.609375 C31.9337932 28.00649095 31.9337932 28.00649095 34 30 C33.77976789 34.51096123 31.85371816 36.68605097 28.8125 39.875 C25.97045939 42.8980623 23.19568431 45.9182508 20.5625 49.125 C19.716875 50.07375 18.87125 51.0225 18 52 C17.34 52 16.68 52 16 52 C16 52.66 16 53.32 16 54 C14.31038731 55.5876533 12.54682629 57.09728694 10.75 58.5625 C9.77546875 59.36816406 8.8009375 60.17382812 7.796875 61.00390625 C3.70045711 63.92746706 3.70045711 63.92746706 1 64 C-2.35412851 62.18768863 -5.13035195 59.4938608 -8 57 C-9.4540625 55.74703125 -9.4540625 55.74703125 -10.9375 54.46875 C-18.59001155 47.73571677 -25.32194608 40.51708088 -31 32 C-22.74501959 21.73494162 -14.68430702 12.00311102 -4.28515625 3.8125 C-1.97440176 2.05079387 -1.97440176 2.05079387 0 0 Z " fill="#22D3EE" transform="translate(73,43)"/>
<path d="M0 0 C-0.62759865 2.92879371 -1.58622659 5.36095629 -3 8 C-3.495 6.515 -3.495 6.515 -4 5 C-4.33 5.33 -4.66 5.66 -5 6 C-4.67 6 -4.34 6 -4 6 C-4 7.65 -4 9.3 -4 11 C-5.16402344 11.29390625 -5.16402344 11.29390625 -6.3515625 11.59375 C-13.79179203 13.65357488 -19.82448603 16.26411104 -26.24072266 20.53320312 C-30.36818455 23.14205913 -30.36818455 23.14205913 -33.484375 22.44140625 C-34.31453125 21.96574219 -35.1446875 21.49007812 -36 21 C-37.06734375 20.46503906 -38.1346875 19.93007813 -39.234375 19.37890625 C-40.39453125 18.77949219 -41.5546875 18.18007813 -42.75 17.5625 C-51.55252976 13.1206151 -59.94566245 9.68008926 -70 10 C-72.75249035 10.90917658 -72.75249035 10.90917658 -75 12 C-75 11.34 -75 10.68 -75 10 C-74.34 10 -73.68 10 -73 10 C-72.94457031 9.24847656 -72.88914063 8.49695312 -72.83203125 7.72265625 C-71.40810541 3.06314306 -67.49575785 1.88020925 -63.4140625 -0.35546875 C-43.08806124 -10.14636867 -20.252569 -9.64408048 0 0 Z " fill="#21D1ED" transform="translate(107,14)"/>
<path d="M0 0 C0.66 0 1.32 0 2 0 C2.103125 0.598125 2.20625 1.19625 2.3125 1.8125 C3.08876455 4.28243264 4.07088921 5.32251235 6 7 C6.66 6.67 7.32 6.34 8 6 C8.17015625 6.845625 8.3403125 7.69125 8.515625 8.5625 C10.14774473 16.20220938 11.99307608 22.63669192 16.4375 29.0859375 C16.911875 29.77945313 17.38625 30.47296875 17.875 31.1875 C18.32617188 31.79980469 18.77734375 32.41210938 19.2421875 33.04296875 C20 35 20 35 19.4140625 37.16015625 C18.71410156 38.56587891 18.71410156 38.56587891 18 40 C17.30154444 41.44244752 16.60368866 42.88518553 15.90625 44.328125 C14.70521887 46.78964424 13.50065653 49.24868485 12.27734375 51.69921875 C9.66011391 57.09779515 8.09066186 62.09619993 7 68 C6.34 68 5.68 68 5 68 C5 67.34 5 66.68 5 66 C2.13275314 66.57344937 1.1385485 66.8614515 -1 69 C-4.34092784 66.32335021 -5.25715705 63.09426207 -6.625 59.125 C-7.05039063 57.91070312 -7.47578125 56.69640625 -7.9140625 55.4453125 C-13.13427531 38.88334235 -10.7647371 20.59023424 -3.3125 5.1875 C-1.22413793 1.22413793 -1.22413793 1.22413793 0 0 Z " fill="#21D1EC" transform="translate(17,39)"/>
<path d="M0 0 C1.8125 0.5625 1.8125 0.5625 4 2 C5.8125 5.5 5.8125 5.5 7 9 C6.67 9.66 6.34 10.32 6 11 C6.66 11 7.32 11 8 11 C11.33363018 18.560197 13.44002679 25.69866907 12 34 C10.34229729 37.21753368 8.28410335 39.35794832 5 41 C-7.40950744 42.5354563 -18.61956653 37.24074157 -29 31 C-29 30.01 -29 29.02 -29 28 C-27.34326172 26.48120117 -27.34326172 26.48120117 -25.0546875 24.85546875 C-19.96807912 21.06491942 -15.56643008 16.82927577 -11.125 12.3125 C-10.37992188 11.56677734 -9.63484375 10.82105469 -8.8671875 10.05273438 C-5.66950454 6.82917089 -2.66174243 3.68844377 0 0 Z " fill="#22D3EE" transform="translate(109,80)"/>
<path d="M0 0 C3.0646678 1.56836388 6.05752273 3.2132244 9 5 C7.67504335 8.01831588 6.37434571 9.75963026 3.8125 11.8125 C-0.57768025 15.53162139 -4.66867392 19.5117235 -8.75 23.5625 C-9.3999292 24.19969971 -10.0498584 24.83689941 -10.71948242 25.4934082 C-14.33914367 29.10465272 -17.3351679 32.63263628 -20 37 C-24.04883988 33.35742127 -26.17788764 30.08464601 -28.25 25.0625 C-28.75015625 23.87785156 -29.2503125 22.69320312 -29.765625 21.47265625 C-31.97116184 15.267839 -32.96717758 8.55767653 -32 2 C-25.46489681 -10.54033315 -9.91212852 -4.61319189 0 0 Z " fill="#22D3EE" transform="translate(61,34)"/>
<path d="M0 0 C1.010625 -0.01675781 2.02125 -0.03351562 3.0625 -0.05078125 C7.32228354 0.47602709 9.95711664 2.16173216 12.8125 5.3125 C16.10318402 13.625807 13.76887934 21.27998327 10.4375 29.2109375 C5.07868852 40.77315574 5.07868852 40.77315574 2 42.3125 C1.50371094 41.6834375 1.00742188 41.054375 0.49609375 40.40625 C-6.18526177 31.9879956 -12.74976097 24.22529794 -21 17.3125 C-22.33426974 16.16775721 -23.66766302 15.02199171 -25 13.875 C-25.99 13.029375 -26.98 12.18375 -28 11.3125 C-23.67800947 7.27864217 -18.64553724 4.94121251 -13 3.3125 C-12.34 3.6425 -11.68 3.9725 -11 4.3125 C-11 3.6525 -11 2.9925 -11 2.3125 C-7.20947276 0.56356188 -4.16690915 0.01594481 0 0 Z " fill="#21D3ED" transform="translate(107,28.6875)"/>
<path d="M0 0 C3.96772994 1.56693261 6.15379 4.14275934 8.9375 7.3125 C12.18990266 10.99721584 15.50188401 14.54746207 19 18 C19.59683594 18.62003906 20.19367187 19.24007812 20.80859375 19.87890625 C24.30116883 23.48873805 27.70982838 26.3840417 32 29 C27.76092004 34.08689595 23.16202333 35.8382107 17 38 C16.25363281 38.30164063 15.50726563 38.60328125 14.73828125 38.9140625 C8.57274655 41.28286757 1.28706321 42.88765014 -4.99609375 40.12109375 C-7.95435856 37.9715632 -8.96667631 36.12853423 -9.875 32.625 C-9.91625 31.42875 -9.9575 30.2325 -10 29 C-10.12375 27.96875 -10.2475 26.9375 -10.375 25.875 C-9.62844225 18.16056995 -5.67393199 5.67393199 0 0 Z " fill="#21D3ED" transform="translate(39,80)"/>
<path d="M0 0 C13.86 0 27.72 0 42 0 C35.25 7.875 35.25 7.875 32.3515625 10.74609375 C31.73925781 11.35517578 31.12695312 11.96425781 30.49609375 12.59179688 C29.87863281 13.20087891 29.26117188 13.80996094 28.625 14.4375 C27.66400391 15.39172852 27.66400391 15.39172852 26.68359375 16.36523438 C25.12469121 17.91250332 23.56348584 19.45736492 22 21 C18.54883098 19.5155686 16.31140759 17.55666933 13.671875 14.90234375 C12.87265625 14.10119141 12.0734375 13.30003906 11.25 12.47460938 C10.425 11.63736328 9.6 10.80011719 8.75 9.9375 C7.90953125 9.09638672 7.0690625 8.25527344 6.203125 7.38867188 C0 1.14023184 0 1.14023184 0 0 Z " fill="#0892B3" transform="translate(54,75)"/>
<path d="M0 0 C0.33 1.32 0.66 2.64 1 4 C0.01 4.495 0.01 4.495 -1 5 C-1.33 4.34 -1.66 3.68 -2 3 C-2.66 4.32 -3.32 5.64 -4 7 C-2.0745356 9.2236068 -2.0745356 9.2236068 1 10 C2.69321939 11.29944744 4.36395804 12.62926214 6 14 C6.33 11.69 6.66 9.38 7 7 C7.66 7 8.32 7 9 7 C8.34 6.34 7.68 5.68 7 5 C7.25 2.9375 7.25 2.9375 8 1 C8.66 0.67 9.32 0.34 10 0 C10.66 0.99 11.32 1.98 12 3 C13.32 2.67 14.64 2.34 16 2 C16.66 3.65 17.32 5.3 18 7 C18.99 6.67 19.98 6.34 21 6 C21.99 6.66 22.98 7.32 24 8 C25.32 8 26.64 8 28 8 C27.67 8.99 27.34 9.98 27 11 C23.37 11 19.74 11 16 11 C19.1964086 12.06546953 21.65747276 12.07427838 25 12 C24.67 12.99 24.34 13.98 24 15 C21.36 15 18.72 15 16 15 C16.495 16.98 16.495 16.98 17 19 C4.88846722 18.72810845 -6.092544 14.9352192 -16 8 C-15.67 6.02 -15.34 4.04 -15 2 C-12.36 2 -9.72 2 -7 2 C-7.33 2.99 -7.66 3.98 -8 5 C-7.01 5 -6.02 5 -5 5 C-5 3.68 -5 2.36 -5 1 C-3 0 -3 0 0 0 Z " fill="#1FCEE7" transform="translate(53,124)"/>
<path d="M0 0 C1.65 0.66 3.3 1.32 5 2 C4.690625 2.5775 4.38125 3.155 4.0625 3.75 C3.07416636 5.84294184 2.4831387 7.74535275 2 10 C2.33 9.67 2.66 9.34 3 9 C3.66 9.66 4.32 10.32 5 11 C4.67 11.66 4.34 12.32 4 13 C3.896875 14.010625 3.79375 15.02125 3.6875 16.0625 C2.98564427 20.08221916 1.71439833 22.99771662 -0.01171875 26.64453125 C-1.55079666 30.31276833 -2.29874788 34.09697832 -3 38 C-3.66 38 -4.32 38 -5 38 C-5 37.34 -5 36.68 -5 36 C-7.86724686 36.57344937 -8.8614515 36.8614515 -11 39 C-13.87770097 36.54403107 -14.96687126 34.09110405 -16.25 30.5625 C-16.60578125 29.61503906 -16.9615625 28.66757813 -17.328125 27.69140625 C-18.01466386 24.94125929 -17.96622898 23.61996705 -17 21 C-14.4375 22.5625 -14.4375 22.5625 -12 25 C-12.1875 28.75 -12.1875 28.75 -13 32 C-12.071875 31.4740625 -12.071875 31.4740625 -11.125 30.9375 C-10.42375 30.628125 -9.7225 30.31875 -9 30 C-8.34 30.33 -7.68 30.66 -7 31 C-7.33 30.01 -7.66 29.02 -8 28 C-6.68 27.34 -5.36 26.68 -4 26 C-6.15634036 26 -7.92446352 26.4465236 -10 27 C-9.67 26.01 -9.34 25.02 -9 24 C-9.66 24.33 -10.32 24.66 -11 25 C-12 18.125 -12 18.125 -12 17 C-12.66 16.67 -13.32 16.34 -14 16 C-13.67 15.01 -13.34 14.02 -13 13 C-11.02 12.67 -9.04 12.34 -7 12 C-6.01 13.32 -5.02 14.64 -4 16 C-1.34668279 11.84698176 0 8.92975386 0 4 C-0.33 3.01 -0.66 2.02 -1 1 C-0.67 0.67 -0.34 0.34 0 0 Z " fill="#20D1EB" transform="translate(27,69)"/>
<path d="M0 0 C8.43003468 0.6325964 16.64374749 3.27304562 24.20703125 7.0546875 C23.5794326 9.98348121 22.62080466 12.41564379 21.20703125 15.0546875 C20.71203125 13.5696875 20.71203125 13.5696875 20.20703125 12.0546875 C19.87703125 12.3846875 19.54703125 12.7146875 19.20703125 13.0546875 C19.53703125 13.0546875 19.86703125 13.0546875 20.20703125 13.0546875 C20.20703125 14.7046875 20.20703125 16.3546875 20.20703125 18.0546875 C18.55703125 18.0546875 16.90703125 18.0546875 15.20703125 18.0546875 C15.53703125 16.0746875 15.86703125 14.0946875 16.20703125 12.0546875 C14.88703125 11.7246875 13.56703125 11.3946875 12.20703125 11.0546875 C12.20703125 11.7146875 12.20703125 12.3746875 12.20703125 13.0546875 C11.54703125 13.0546875 10.88703125 13.0546875 10.20703125 13.0546875 C10.06265625 12.4153125 9.91828125 11.7759375 9.76953125 11.1171875 C9.39695944 9.07923604 9.39695944 9.07923604 8.20703125 8.0546875 C7.36140625 8.3846875 6.51578125 8.7146875 5.64453125 9.0546875 C1.95305556 10.12857134 -0.96841556 10.3488839 -4.79296875 10.0546875 C-5.45296875 9.3946875 -6.11296875 8.7346875 -6.79296875 8.0546875 C-8.11296875 8.0546875 -9.43296875 8.0546875 -10.79296875 8.0546875 C-11.12296875 8.0546875 -11.45296875 8.0546875 -11.79296875 8.0546875 C-11.79296875 8.7146875 -11.79296875 9.3746875 -11.79296875 10.0546875 C-15.09296875 9.0646875 -18.39296875 8.0746875 -21.79296875 7.0546875 C-21.79296875 6.3946875 -21.79296875 5.7346875 -21.79296875 5.0546875 C-21.21546875 4.9515625 -20.63796875 4.8484375 -20.04296875 4.7421875 C-17.47247717 3.95675952 -15.85639591 2.74964553 -13.79296875 1.0546875 C-13.46296875 1.7146875 -13.13296875 2.3746875 -12.79296875 3.0546875 C-11.98859375 2.5596875 -11.98859375 2.5596875 -11.16796875 2.0546875 C-8.25947444 0.83005832 -5.91961004 0.98520658 -2.79296875 1.0546875 C-1.79296875 0.0546875 -1.79296875 0.0546875 0 0 Z " fill="#1AC3E0" transform="translate(82.79296875,6.9453125)"/>
<path d="M0 0 C5.04820879 4.22958034 9.79646277 8.64199586 14.4375 13.3125 C15.07365234 13.94478516 15.70980469 14.57707031 16.36523438 15.22851562 C17.26532227 16.13053711 17.26532227 16.13053711 18.18359375 17.05078125 C18.72556396 17.59387939 19.26753418 18.13697754 19.82592773 18.6965332 C21 20 21 20 21 21 C14.07 21 7.14 21 0 21 C0 20.01 0 19.02 0 18 C-2.97 18 -5.94 18 -9 18 C-5 12 -5 12 -1 6 C-0.60986284 4.0103005 -0.26797351 2.00980131 0 0 Z " fill="#65E7F8" transform="translate(75,54)"/>
<path d="M0 0 C1.32 0 2.64 0 4 0 C13.01428871 16.72704909 13.01428871 16.72704909 13 24 C12.34 24.99 11.68 25.98 11 27 C10.731875 26.4225 10.46375 25.845 10.1875 25.25 C8.98280141 22.9674132 7.59201885 21.0262058 6 19 C3.9754262 20.93254772 2.57894208 22.63158688 1 25 C0.67 24.34 0.34 23.68 0 23 C-0.99 23.66 -1.98 24.32 -3 25 C-3.185625 23.576875 -3.185625 23.576875 -3.375 22.125 C-3.71687177 18.91332809 -3.71687177 18.91332809 -6 17 C-5.34 15.02 -4.68 13.04 -4 11 C-3.01 11 -2.02 11 -1 11 C-0.4254048 7.26513121 0 3.78706732 0 0 Z " fill="#25D5EF" transform="translate(129,38)"/>
<path d="M0 0 C1.32 0 2.64 0 4 0 C5.54571278 2.31856917 6.79618552 4.50638429 8 7 C-1.91410246 12.43166252 -12.43302622 17.28521931 -24 16 C-24.66 15.01 -25.32 14.02 -26 13 C-24.35 13 -22.7 13 -21 13 C-21.66 12.01 -22.32 11.02 -23 10 C-17.5 5 -17.5 5 -13 5 C-13 5.99 -13 6.98 -13 8 C-12.34 8 -11.68 8 -11 8 C-10.67 8.99 -10.34 9.98 -10 11 C-10 10.01 -10 9.02 -10 8 C-8.88820837 4.66462511 -7.52588702 3.36292656 -5 1 C-4.34 1.66 -3.68 2.32 -3 3 C-2.01 2.67 -1.02 2.34 0 2 C0 1.34 0 0.68 0 0 Z " fill="#24D5EB" transform="translate(102,127)"/>
<path d="M0 0 C6.93 0 13.86 0 21 0 C21 6.93 21 13.86 21 21 C13.11134235 14.23829344 13.11134235 14.23829344 10.25390625 11.38671875 C9.64482422 10.77892578 9.03574219 10.17113281 8.40820312 9.54492188 C7.79912109 8.93197266 7.19003906 8.31902344 6.5625 7.6875 C5.92634766 7.05521484 5.29019531 6.42292969 4.63476562 5.77148438 C4.03470703 5.17013672 3.43464844 4.56878906 2.81640625 3.94921875 C2.27443604 3.40612061 1.73246582 2.86302246 1.17407227 2.3034668 C0 1 0 1 0 0 Z " fill="#156077" transform="translate(54,75)"/>
<path d="M0 0 C0.598125 0.33 1.19625 0.66 1.8125 1 C4.05386471 2.20787988 4.05386471 2.20787988 7 2 C7.66 2.66 8.32 3.32 9 4 C13.26677606 4.37926898 16.11348605 3.68065468 20 2 C20.99 2 21.98 2 23 2 C23 2.66 23 3.32 23 4 C22.34 4 21.68 4 21 4 C21.33 5.32 21.66 6.64 22 8 C22.66 8 23.32 8 24 8 C24 7.34 24 6.68 24 6 C25.65 6 27.3 6 29 6 C29.1875 8.375 29.1875 8.375 29 11 C28.01 11.66 27.02 12.32 26 13 C25.505 12.01 25.505 12.01 25 11 C24.01 11 23.02 11 22 11 C21.34 10.34 20.68 9.68 20 9 C19.01 11.64 18.02 14.28 17 17 C15.66666667 15.66666667 14.33333333 14.33333333 13 13 C12.34 12.67 11.68 12.34 11 12 C9 11 9 11 7 9 C8.32 8.34 9.64 7.68 11 7 C8.69 7 6.38 7 4 7 C3.67 6.34 3.34 5.68 3 5 C2.67 5.66 2.34 6.32 2 7 C-1.94727588 7.17942163 -4.5980513 7.09350689 -8 5 C-8.66 5.66 -9.32 6.32 -10 7 C-10 5.35 -10 3.7 -10 2 C-8.35 2 -6.7 2 -5 2 C-5 2.66 -5 3.32 -5 4 C-3.01508358 3.73323796 -3.01508358 3.73323796 -1 3 C-0.67 2.01 -0.34 1.02 0 0 Z " fill="#23D6F2" transform="translate(71,12)"/>
<path d="M0 0 C4.80821918 3.32876712 4.80821918 3.32876712 5.75 6.625 C5.87375 7.800625 5.87375 7.800625 6 9 C6.33 9.66 6.66 10.32 7 11 C6.01 11.495 6.01 11.495 5 12 C5.99 13.485 5.99 13.485 7 15 C6.34 15 5.68 15 5 15 C5 15.66 5 16.32 5 17 C4.01 17 3.02 17 2 17 C1.67 18.32 1.34 19.64 1 21 C0.34 21 -0.32 21 -1 21 C-1.33 21.99 -1.66 22.98 -2 24 C-3.5 22.625 -3.5 22.625 -5 21 C-5 20.34 -5 19.68 -5 19 C-5.99 19 -6.98 19 -8 19 C-11.07692308 13.70769231 -11.07692308 13.70769231 -10.6875 10.125 C-10.460625 9.42375 -10.23375 8.7225 -10 8 C-9.01 8 -8.02 8 -7 8 C-7 8.66 -7 9.32 -7 10 C-7.66 10 -8.32 10 -9 10 C-7.4198632 12.15473199 -5.89353366 14.10646634 -4 16 C-3.01 16 -2.02 16 -1 16 C-1.495 14.8553125 -1.495 14.8553125 -2 13.6875 C-3 11 -3 11 -3 8 C-3.99 8.33 -4.98 8.66 -6 9 C-6 8.34 -6 7.68 -6 7 C-6.66 6.67 -7.32 6.34 -8 6 C-7.05125 5.38125 -6.1025 4.7625 -5.125 4.125 C-2.05554891 2.18029031 -2.05554891 2.18029031 0 0 Z " fill="#29DBF7" transform="translate(135,56)"/>
<path d="M0 0 C3.35319999 0.44709333 4.71377461 1.61437351 7 4 C7.99 4.33 8.98 4.66 10 5 C10.33 4.01 10.66 3.02 11 2 C12 5 12 5 10.953125 7.49609375 C7.51480659 13.43429045 3.87125352 18.62733501 -0.75 23.6875 C-1.22147461 24.2043335 -1.69294922 24.72116699 -2.17871094 25.25366211 C-4.43363131 27.63613597 -5.83823571 28.94607857 -9 30 C-9 29.34 -9 28.68 -9 28 C-9.66 27.67 -10.32 27.34 -11 27 C-10.030625 26.38125 -9.06125 25.7625 -8.0625 25.125 C-4.97164638 23.34321154 -4.97164638 23.34321154 -4 21 C-3.34 21 -2.68 21 -2 21 C-2 20.01 -2 19.02 -2 18 C-1.34 18 -0.68 18 0 18 C0.37125 17.0409375 0.37125 17.0409375 0.75 16.0625 C2 14 2 14 4.125 13.25 C5.053125 13.12625 5.053125 13.12625 6 13 C5.0409375 12.62875 5.0409375 12.62875 4.0625 12.25 C2 11 2 11 1.25 8.875 C1.1675 8.25625 1.085 7.6375 1 7 C0.34 7 -0.32 7 -1 7 C-1.04254356 5.00045254 -1.04080783 2.99958364 -1 1 C-0.67 0.67 -0.34 0.34 0 0 Z " fill="#1BC3DC" transform="translate(126,98)"/>
<path d="M0 0 C0.33 0.66 0.66 1.32 1 2 C1.99 2.33 2.98 2.66 4 3 C3.979375 3.7425 3.95875 4.485 3.9375 5.25 C3.99328688 7.70462279 4.3069904 9.66109261 5 12 C0.76554494 13.36498904 -2.91169458 12.64334579 -7.24609375 12.05859375 C-10.32386396 11.99310928 -12.24435314 12.68469125 -15 14 C-15 13.34 -15 12.68 -15 12 C-14.34 12 -13.68 12 -13 12 C-12.96003906 11.25363281 -12.92007813 10.50726563 -12.87890625 9.73828125 C-11.62028873 5.81698845 -9.50179833 5.10096542 -5.9375 3.1875 C-4.83277344 2.58292969 -3.72804688 1.97835938 -2.58984375 1.35546875 C-1.73519531 0.90816406 -0.88054688 0.46085938 0 0 Z " fill="#29CFED" transform="translate(47,12)"/>
<path d="M0 0 C0.99 0.33 1.98 0.66 3 1 C3 2.98 3 4.96 3 7 C2.34 7 1.68 7 1 7 C1.33 8.32 1.66 9.64 2 11 C2.33 10.34 2.66 9.68 3 9 C3 9.99 3 10.98 3 12 C3.31421071 14.00309329 3.6451046 16.00371336 4 18 C4.66 17.34 5.32 16.68 6 16 C6 16.99 6 17.98 6 19 C7.32 18.67 8.64 18.34 10 18 C10 18.99 10 19.98 10 21 C9.01 21.66 8.02 22.32 7 23 C7 23.66 7 24.32 7 25 C4.50935112 25.68707555 2.62113708 26 0 26 C0.33 23.69 0.66 21.38 1 19 C0.34 18.566875 -0.32 18.13375 -1 17.6875 C-1.66 17.130625 -2.32 16.57375 -3 16 C-3 13 -3 13 -2.0625 10.8125 C-0.69350332 7.18868526 -0.39165697 3.85129358 0 0 Z " fill="#29DBF6" transform="translate(13,75)"/>
<path d="M0 0 C5.27710326 2.08789738 7.06976002 6.33825458 10 11 C4.06 11 -1.88 11 -8 11 C-2.25 2.25 -2.25 2.25 0 0 Z " fill="#C2F7FD" transform="translate(74,61)"/>
<path d="M0 0 C2.125 0.375 2.125 0.375 4 1 C4.625 3.875 4.625 3.875 5 7 C4.34 7.66 3.68 8.32 3 9 C3 10.96365219 3.00519151 12.92780926 3.0625 14.890625 C2.97554873 17.82523025 2.08271558 20.29321105 1 23 C0.01 23 -0.98 23 -2 23 C-2.05789006 19.54173658 -2.09355821 16.08359707 -2.125 12.625 C-2.14175781 11.64015625 -2.15851562 10.6553125 -2.17578125 9.640625 C-2.18222656 8.69960937 -2.18867187 7.75859375 -2.1953125 6.7890625 C-2.20578613 5.91975098 -2.21625977 5.05043945 -2.22705078 4.15478516 C-2 2 -2 2 0 0 Z " fill="#29E2F6" transform="translate(9,62)"/>
<path d="M0 0 C1.32 0 2.64 0 4 0 C5.00484204 1.95585325 6.00373805 3.91476237 7 5.875 C7.556875 6.96554688 8.11375 8.05609375 8.6875 9.1796875 C10 12 10 12 10 14 C9.01 13.67 8.02 13.34 7 13 C6.67 12.34 6.34 11.68 6 11 C5.01 11.66 4.02 12.32 3 13 C2.67 12.34 2.34 11.68 2 11 C1.01 12.32 0.02 13.64 -1 15 C-1.33 14.34 -1.66 13.68 -2 13 C-2.99 13.495 -2.99 13.495 -4 14 C-4 13.01 -4 12.02 -4 11 C-3.01 11 -2.02 11 -1 11 C-0.4254048 7.26513121 0 3.78706732 0 0 Z " fill="#1BBCD6" transform="translate(129,38)"/>
<path d="M0 0 C2.9816071 0.61482589 5.95990672 1.24127826 8.9375 1.875 C10.21270508 2.13603516 10.21270508 2.13603516 11.51367188 2.40234375 C12.72700195 2.66337891 12.72700195 2.66337891 13.96484375 2.9296875 C14.7137085 3.08679199 15.46257324 3.24389648 16.23413086 3.40576172 C18 4 18 4 19 6 C18.01 7.485 18.01 7.485 17 9 C15.02 7.68 13.04 6.36 11 5 C11.33 5.99 11.66 6.98 12 8 C9.08517222 8.80967438 7.53886783 9.21845993 4.6875 8.0625 C4.130625 7.711875 3.57375 7.36125 3 7 C2.34 7.66 1.68 8.32 1 9 C0.34 8.34 -0.32 7.68 -1 7 C-0.67 6.01 -0.34 5.02 0 4 C0 3.34 0 2.68 0 2 C0 1.34 0 0.68 0 0 Z " fill="#20D1F0" transform="translate(91,122)"/>
<path d="M0 0 C0.556875 0.144375 1.11375 0.28875 1.6875 0.4375 C4.12167759 1.02959725 6.52635065 1.59886767 9 2 C9.33 1.67 9.66 1.34 10 1 C10 0.67 10 0.34 10 0 C11.65 0 13.3 0 15 0 C14.01 0.495 14.01 0.495 13 1 C15.76264289 1.59732819 18.16032769 2 21 2 C20.67 2.99 20.34 3.98 20 5 C17.23735711 5.59732819 14.83967231 6 12 6 C11.01 7.485 11.01 7.485 10 9 C7.03 8.01 4.06 7.02 1 6 C1.33 5.01 1.66 4.02 2 3 C1.34 3 0.68 3 0 3 C0 2.01 0 1.02 0 0 Z " fill="#1ECCE8" transform="translate(62,16)"/>
<path d="M0 0 C2.5625 1.5625 2.5625 1.5625 5 4 C4.8125 7.75 4.8125 7.75 4 11 C5.32 10.34 6.64 9.68 8 9 C8.6875 11.8125 8.6875 11.8125 9 15 C7.5625 16.875 7.5625 16.875 6 18 C3.12229903 15.54403107 2.03312874 13.09110405 0.75 9.5625 C0.39421875 8.61503906 0.0384375 7.66757813 -0.328125 6.69140625 C-1.01466386 3.94125929 -0.96622898 2.61996705 0 0 Z " fill="#0CBBC5" transform="translate(10,90)"/>
<path d="M0 0 C4.43458973 1.3937282 6.87378374 3.60582235 10 7 C8.4375 8.625 8.4375 8.625 6 10 C2.25 9.1875 2.25 9.1875 -1 8 C-1.625 5.6875 -1.625 5.6875 -2 3 C-1.34 2.01 -0.68 1.02 0 0 Z " fill="#18B8E1" transform="translate(107,15)"/>
<path d="M0 0 C0.33 0.99 0.66 1.98 1 3 C-0.98 3.99 -0.98 3.99 -3 5 C-3.33 3.68 -3.66 2.36 -4 1 C-2 0 -2 0 0 0 Z M-4 2 C-4.165 2.763125 -4.33 3.52625 -4.5 4.3125 C-5.09145396 7.03596236 -5.09145396 7.03596236 -5 10 C-6.093125 10.309375 -7.18625 10.61875 -8.3125 10.9375 C-10.55407994 11.58337897 -12.7869351 12.2623117 -15 13 C-15 12.34 -15 11.68 -15 11 C-14.34 11 -13.68 11 -13 11 C-12.95875 10.2575 -12.9175 9.515 -12.875 8.75 C-11.61880596 4.80196158 -8.29471953 2 -4 2 Z " fill="#20CAE5" transform="translate(47,13)"/>
<path d="M0 0 C0.66 0 1.32 0 2 0 C2.12375 0.556875 2.2475 1.11375 2.375 1.6875 C3.25541518 4.94503616 4.49201775 7.9840355 6 11 C3.69 11.33 1.38 11.66 -1 12 C-1.33 11.34 -1.66 10.68 -2 10 C-2.99 10.33 -3.98 10.66 -5 11 C-4.46968862 6.4923533 -2.74778884 3.58045212 0 0 Z " fill="#1AC6E0" transform="translate(17,39)"/>
<path d="M0 0 C1.18239258 0.00676758 1.18239258 0.00676758 2.38867188 0.01367188 C4.32164761 0.02538688 6.25458393 0.04332002 8.1875 0.0625 C7.5275 1.3825 6.8675 2.7025 6.1875 4.0625 C5.5275 3.4025 4.8675 2.7425 4.1875 2.0625 C0.50758362 1.67514038 -1.63163166 2.27326156 -4.8125 4.0625 C-7.4375 5.25 -7.4375 5.25 -9.8125 6.0625 C-10.4725 5.7325 -11.1325 5.4025 -11.8125 5.0625 C-12.1425 6.0525 -12.4725 7.0425 -12.8125 8.0625 C-13.49957555 5.57185112 -13.8125 3.68363708 -13.8125 1.0625 C-9.18790756 -0.11450048 -4.73383538 -0.05158412 0 0 Z " fill="#22EAEC" transform="translate(72.8125,6.9375)"/>
<path d="M0 0 C0.99 0 1.98 0 3 0 C2.67 1.65 2.34 3.3 2 5 C2.99 5 3.98 5 5 5 C5 5.66 5 6.32 5 7 C6.32 6.67 7.64 6.34 9 6 C9.33 6.99 9.66 7.98 10 9 C10.33 8.34 10.66 7.68 11 7 C13.475 7.99 13.475 7.99 16 9 C14.8125 11 14.8125 11 13 13 C10.3125 13.25 10.3125 13.25 8 13 C7.34 11.68 6.68 10.36 6 9 C5.34 9.66 4.68 10.32 4 11 C3.67 10.34 3.34 9.68 3 9 C2.01 9.495 2.01 9.495 1 10 C0.63883954 8.5225254 0.28624952 7.04295325 -0.0625 5.5625 C-0.25972656 4.73878906 -0.45695312 3.91507812 -0.66015625 3.06640625 C-0.82837891 2.04353516 -0.82837891 2.04353516 -1 1 C-0.67 0.67 -0.34 0.34 0 0 Z " fill="#27DAF8" transform="translate(123,90)"/>
<path d="M0 0 C0.598125 0.33 1.19625 0.66 1.8125 1 C4.05386471 2.20787988 4.05386471 2.20787988 7 2 C7.66 2.66 8.32 3.32 9 4 C11.06874034 4.6425235 11.06874034 4.6425235 13 5 C9.86501708 6.85776765 7.62528568 7.20140476 4 7 C3.67 6.34 3.34 5.68 3 5 C2.67 5.66 2.34 6.32 2 7 C-1.94727588 7.17942163 -4.5980513 7.09350689 -8 5 C-8.66 5.66 -9.32 6.32 -10 7 C-10 5.35 -10 3.7 -10 2 C-8.35 2 -6.7 2 -5 2 C-5 2.66 -5 3.32 -5 4 C-3.01508358 3.73323796 -3.01508358 3.73323796 -1 3 C-0.67 2.01 -0.34 1.02 0 0 Z " fill="#28DFFA" transform="translate(71,12)"/>
<path d="M0 0 C3.06006595 2.04004397 3.77157178 2.69269325 5 6 C5.125 8.6875 5.125 8.6875 5 11 C5 11.33 5 11.66 5 12 C5 13.66666667 5 15.33333333 5 17 C1.30187586 12.24526896 -1.24903069 7.79166771 -3 2 C-2.01 1.34 -1.02 0.68 0 0 Z " fill="#32E1F7" transform="translate(135,80)"/>
<path d="M0 0 C1.32 1.32 2.64 2.64 4 4 C3.67 4.66 3.34 5.32 3 6 C2.34 6 1.68 6 1 6 C1.309375 7.918125 1.309375 7.918125 1.625 9.875 C1.9765625 12.0546875 1.9765625 12.0546875 2 14 C1.34 14.66 0.68 15.32 0 16 C-0.99 16 -1.98 16 -3 16 C-2.814375 15.13375 -2.62875 14.2675 -2.4375 13.375 C-1.82048048 10.02945096 -1.82048048 10.02945096 -2.625 6.875 C-3 4 -3 4 -1.5625 1.625 C-0.7890625 0.820625 -0.7890625 0.820625 0 0 Z " fill="#1DDFF9" transform="translate(128,33)"/>
<path d="M0 0 C0.33 0.66 0.66 1.32 1 2 C0.34 2 -0.32 2 -1 2 C-0.67 3.32 -0.34 4.64 0 6 C0.66 6 1.32 6 2 6 C2 5.34 2 4.68 2 4 C3.65 4 5.3 4 7 4 C7.1875 6.375 7.1875 6.375 7 9 C6.01 9.66 5.02 10.32 4 11 C3.67 10.34 3.34 9.68 3 9 C2.01 9 1.02 9 0 9 C-1.9249647 7.17806158 -3.37535531 5.10764717 -5 3 C-3.35 2.01 -1.7 1.02 0 0 Z " fill="#25DAF6" transform="translate(93,14)"/>
<path d="M0 0 C-0.33 0.99 -0.66 1.98 -1 3 C-4.63 3 -8.26 3 -12 3 C-8.8035914 4.06546953 -6.34252724 4.07427838 -3 4 C-3.33 4.99 -3.66 5.98 -4 7 C-5.45792884 7.05399736 -6.91642712 7.09279177 -8.375 7.125 C-9.18710938 7.14820313 -9.99921875 7.17140625 -10.8359375 7.1953125 C-13 7 -13 7 -15 5 C-15.66 5 -16.32 5 -17 5 C-17 4.34 -17 3.68 -17 3 C-11.50168239 0.50076472 -6.00621094 -0.18200639 0 0 Z " fill="#1FC6DE" transform="translate(81,132)"/>
<path d="M0 0 C2.97 0.495 2.97 0.495 6 1 C5.67 1.99 5.34 2.98 5 4 C5 4.99 5 5.98 5 7 C1.94152152 7.54372951 -0.88772805 8 -4 8 C-4 6.68 -4 5.36 -4 4 C-4.99 3.67 -5.98 3.34 -7 3 C-5.35 2.34 -3.7 1.68 -2 1 C-1.67 1.99 -1.34 2.98 -1 4 C-0.34 3.67 0.32 3.34 1 3 C0.67 2.01 0.34 1.02 0 0 Z " fill="#16C0D8" transform="translate(88,8)"/>
<path d="M0 0 C0.66 0 1.32 0 2 0 C2.33 0.66 2.66 1.32 3 2 C3.99 1.34 4.98 0.68 6 0 C6 0.99 6 1.98 6 3 C5.67 3.33 5.34 3.66 5 4 C5 4.99 5 5.98 5 7 C4.835 7.639375 4.67 8.27875 4.5 8.9375 C3.84293332 11.29419326 3.84293332 11.29419326 4 15 C3.01 15 2.02 15 1 15 C0.93941406 14.31292969 0.87882812 13.62585938 0.81640625 12.91796875 C0.73261719 12.01691406 0.64882813 11.11585937 0.5625 10.1875 C0.48128906 9.29417969 0.40007813 8.40085937 0.31640625 7.48046875 C0.06510233 4.87256441 0.06510233 4.87256441 -1 2 C-0.67 1.34 -0.34 0.68 0 0 Z " fill="#25DAF7" transform="translate(16,66)"/>
<path d="M0 0 C2.97 0.495 2.97 0.495 6 1 C5.01 2.485 5.01 2.485 4 4 C4.969375 4.7425 5.93875 5.485 6.9375 6.25 C9.02387361 7.97309915 9.90112479 8.73868694 10.875 11.3125 C10.936875 12.1478125 10.936875 12.1478125 11 13 C7.93617261 12.67567593 7.01029035 12.01098513 4.859375 9.71484375 C4.16328125 8.79832031 3.4671875 7.88179688 2.75 6.9375 C2.04359375 6.01839844 1.3371875 5.09929687 0.609375 4.15234375 C0.07828125 3.44207031 -0.4528125 2.73179688 -1 2 C-0.67 1.34 -0.34 0.68 0 0 Z " fill="#0CACD1" transform="translate(18,110)"/>
<path d="M0 0 C3.61041621 4.81388828 3.60689687 7.23945431 3 13 C2 16.5625 2 16.5625 1 19 C0.01 19 -0.98 19 -2 19 C-2 16.03 -2 13.06 -2 10 C-1.01 10.495 -1.01 10.495 0 11 C0 7.37 0 3.74 0 0 Z " fill="#3DE0FF" transform="translate(9,66)"/>
<path d="M0 0 C3.69459731 0.19970796 4.78742451 0.76444338 7.3125 3.5625 C8.1478125 4.7690625 8.1478125 4.7690625 9 6 C7.68 7.32 6.36 8.64 5 10 C3 7 1 4 -1 1 C-0.67 0.67 -0.34 0.34 0 0 Z " fill="#1ECCE2" transform="translate(112,30)"/>
<path d="M0 0 C0.15384615 9.07692308 0.15384615 9.07692308 -1 13 C-1.66 13.66 -2.32 14.32 -3 15 C-3 14.34 -3 13.68 -3 13 C-4.32 13.33 -5.64 13.66 -7 14 C-7 12.02 -7 10.04 -7 8 C-5.68 8.33 -4.36 8.66 -3 9 C-2.7018576 5.2236068 -2.7018576 5.2236068 -4 3 C-1.125 0 -1.125 0 0 0 Z " fill="#1AC6DC" transform="translate(143,64)"/>
<path d="M0 0 C0.598125 0.165 1.19625 0.33 1.8125 0.5 C4.11344336 1.1114124 4.11344336 1.1114124 7 1 C7.99 1.33 8.98 1.66 10 2 C10.33 2.99 10.66 3.98 11 5 C6.97542684 6.34152439 3.1944205 6.27060777 -1 6 C-1.66 5.01 -2.32 4.02 -3 3 C-1.35 3 0.3 3 2 3 C1.34 2.01 0.68 1.02 0 0 Z " fill="#13B6D3" transform="translate(79,137)"/>
<path d="M0 0 C-1.39750048 3.15835107 -3.05198234 5.32272825 -5.5 7.75 C-6.41265625 8.67039062 -6.41265625 8.67039062 -7.34375 9.609375 C-9 11 -9 11 -11 11 C-11 10.34 -11 9.68 -11 9 C-11.66 8.67 -12.32 8.34 -13 8 C-11.63875 7.13375 -11.63875 7.13375 -10.25 6.25 C-7.02922083 4.1746558 -7.02922083 4.1746558 -4.8125 1.75 C-3 0 -3 0 0 0 Z " fill="#0EF7FF" transform="translate(128,117)"/>
<path d="M0 0 C3 1 3 1 4.25 2.75 C5.1804758 5.54142741 4.65296001 7.17050664 4 10 C4.33 10.99 4.66 11.98 5 13 C5.03874921 14.66621616 5.0450286 16.33394172 5 18 C3.2925002 16.71937515 1.62626404 15.38232443 0 14 C0 13.34 0 12.68 0 12 C0.66 12 1.32 12 2 12 C1.34 11.34 0.68 10.68 0 10 C-0.125 7.5625 -0.125 7.5625 0 5 C0 4.01 0 3.02 0 2 C0 1.34 0 0.68 0 0 Z " fill="#1ECDE7" transform="translate(20,57)"/>
<path d="M0 0 C0.66 0.66 1.32 1.32 2 2 C2.99 1.34 3.98 0.68 5 0 C4.37240135 2.92879371 3.41377341 5.36095629 2 8 C1.67 7.01 1.34 6.02 1 5 C0.67 5.33 0.34 5.66 0 6 C0.33 6 0.66 6 1 6 C1 7.65 1 9.3 1 11 C-0.65 11 -2.3 11 -4 11 C-3.56179109 6.44262737 -3.14958831 3.42346555 0 0 Z " fill="#1ECEE5" transform="translate(102,14)"/>
<path d="M0 0 C0.33 0.99 0.66 1.98 1 3 C0.34 3 -0.32 3 -1 3 C-1 3.99 -1 4.98 -1 6 C-3.45222505 8.94267006 -5.09333083 10.73807335 -8.8125 11.8125 C-9.534375 11.874375 -10.25625 11.93625 -11 12 C-9.60609461 8.84280428 -7.96365028 6.7187347 -5.5 4.3125 C-4.8915625 3.71050781 -4.283125 3.10851562 -3.65625 2.48828125 C-2 1 -2 1 0 0 Z " fill="#18FDFF" transform="translate(33,21)"/>
<path d="M0 0 C0.98871094 -0.02578125 1.97742188 -0.0515625 2.99609375 -0.078125 C3.84300781 0.03015625 4.68992187 0.1384375 5.5625 0.25 C6.2225 1.24 6.8825 2.23 7.5625 3.25 C5.9125 3.25 4.2625 3.25 2.5625 3.25 C2.8925 3.91 3.2225 4.57 3.5625 5.25 C0.9225 5.25 -1.7175 5.25 -4.4375 5.25 C-5.0975 3.93 -5.7575 2.61 -6.4375 1.25 C-4.69645647 -0.49104353 -2.36385979 0.03688728 0 0 Z " fill="#30EDFB" transform="translate(74.4375,137.75)"/>
<path d="M0 0 C0.99 0.33 1.98 0.66 3 1 C3 1.66 3 2.32 3 3 C3.66 3 4.32 3 5 3 C5 4.32 5 5.64 5 7 C1.625 7.125 1.625 7.125 -2 7 C-2.66 6.34 -3.32 5.68 -4 5 C-3 2 -3 2 0 0 Z " fill="#36DEF3" transform="translate(19,104)"/>
<path d="M0 0 C2.46800047 1.15173355 4.04783565 2.04783565 6 4 C5.01 5.485 5.01 5.485 4 7 C3.34 6.34 2.68 5.68 2 5 C1.01 5.99 0.02 6.98 -1 8 C-1.99 7.67 -2.98 7.34 -4 7 C-3.6875 4.625 -3.6875 4.625 -3 2 C-2.01 1.34 -1.02 0.68 0 0 Z " fill="#2FE2F3" transform="translate(15,48)"/>
<path d="M0 0 C0.99 0.33 1.98 0.66 3 1 C3 3.66666667 3 6.33333333 3 9 C2.01 9 1.02 9 0 9 C-2.1875 6.5 -2.1875 6.5 -4 4 C-2.68 2.68 -1.36 1.36 0 0 Z " fill="#1FCDED" transform="translate(34,30)"/>
<path d="M0 0 C0.33 0.66 0.66 1.32 1 2 C1.66 2.33 2.32 2.66 3 3 C3.33 3.99 3.66 4.98 4 6 C3.01 6 2.02 6 1 6 C1 6.99 1 7.98 1 9 C0.34 9 -0.32 9 -1 9 C-1.33 9.66 -1.66 10.32 -2 11 C-2.99 9.68 -3.98 8.36 -5 7 C-4.01 5.35 -3.02 3.7 -2 2 C-1.34 2.33 -0.68 2.66 0 3 C0 2.01 0 1.02 0 0 Z " fill="#27D9F8" transform="translate(53,124)"/>
<path d="M0 0 C1.32 0 2.64 0 4 0 C5.54571278 2.31856917 6.79618552 4.50638429 8 7 C6.02 7.99 4.04 8.98 2 10 C2.50603992 7.83125748 2.99983813 6.00032373 4 4 C3.01 4 2.02 4 1 4 C0.67 4.66 0.34 5.32 0 6 C0 4 0 2 0 0 Z " fill="#14C2D0" transform="translate(102,127)"/>
<path d="M0 0 C0.33 0 0.66 0 1 0 C1.22577402 5.4185766 0.46670113 9.77487721 -1 15 C-1.33 14.34 -1.66 13.68 -2 13 C-2.66 13 -3.32 13 -4 13 C-3.835 12.113125 -3.67 11.22625 -3.5 10.3125 C-3.07004243 7.46403108 -2.91558965 4.86995198 -3 2 C-2.01 2 -1.02 2 0 2 C0 1.34 0 0.68 0 0 Z " fill="#11C3C8" transform="translate(142,79)"/>
<path d="M0 0 C0.66 0 1.32 0 2 0 C2.39063507 1.43333021 2.76198474 2.87192679 3.125 4.3125 C3.33382812 5.11300781 3.54265625 5.91351563 3.7578125 6.73828125 C4 9 4 9 2 12 C1.71125 11.38125 1.4225 10.7625 1.125 10.125 C0.06279958 7.86674235 0.06279958 7.86674235 -2 6 C-1.64644564 3.73725212 -1.02455574 2.04911148 0 0 Z " fill="#13B7CD" transform="translate(138,53)"/>
<path d="M0 0 C0.66 0.66 1.32 1.32 2 2 C2.804375 2.61875 2.804375 2.61875 3.625 3.25 C5.61690775 5.78515532 5.2083333 7.87500056 5 11 C3.02 9.35 1.04 7.7 -1 6 C-0.67 5.01 -0.34 4.02 0 3 C-0.66 2.67 -1.32 2.34 -2 2 C-1.34 1.34 -0.68 0.68 0 0 Z " fill="#35E5FB" transform="translate(19,36)"/>
<path d="M0 0 C0.99 0 1.98 0 3 0 C3 0.66 3 1.32 3 2 C2.01 2.33 1.02 2.66 0 3 C0 2.01 0 1.02 0 0 Z M-5.5 1.75 C-4.30890625 1.71132812 -4.30890625 1.71132812 -3.09375 1.671875 C-2.4028125 1.78015625 -1.711875 1.8884375 -1 2 C-0.34 2.99 0.32 3.98 1 5 C0.01 5 -0.98 5 -2 5 C-2.33 5.66 -2.66 6.32 -3 7 C-3 6.01 -3 5.02 -3 4 C-4.11375 4.165 -5.2275 4.33 -6.375 4.5 C-10 5 -10 5 -12 5 C-12 4.34 -12 3.68 -12 3 C-9.65897141 1.82948571 -8.10647047 1.8007754 -5.5 1.75 Z " fill="#26DAFD" transform="translate(81,132)"/>
<path d="M0 0 C1.8125 1 1.8125 1 3.8125 5 C0.1825 4.67 -3.4475 4.34 -7.1875 4 C-2.82386364 0 -2.82386364 0 0 0 Z " fill="#14AAC8" transform="translate(66.1875,138)"/>
<path d="M0 0 C1.125 1.6875 1.125 1.6875 2 4 C1.125 6.75 1.125 6.75 0 9 C-0.99 8.67 -1.98 8.34 -3 8 C-3.33 6.35 -3.66 4.7 -4 3 C-2.68 2.01 -1.36 1.02 0 0 Z " fill="#1DC2D7" transform="translate(17,99)"/>
<path d="M0 0 C2.15377564 2.62198774 3.40072174 4.64404172 4 8 C1.57333205 9.21333397 -0.33499722 9 -3 9 C-3.33 9.66 -3.66 10.32 -4 11 C-4 9.35 -4 7.7 -4 6 C-3.01 5.67 -2.02 5.34 -1 5 C-0.67 3.35 -0.34 1.7 0 0 Z " fill="#15B8CF" transform="translate(136,90)"/>
<path d="M0 0 C0.99 0.99 1.98 1.98 3 3 C2.01 3.495 2.01 3.495 1 4 C1.3403125 4.86625 1.3403125 4.86625 1.6875 5.75 C2 8 2 8 0.5625 10.25 C0.046875 10.8275 -0.46875 11.405 -1 12 C-1.28875 11.21625 -1.5775 10.4325 -1.875 9.625 C-2.84912254 6.90328368 -2.84912254 6.90328368 -5 5 C-4.01 4.67 -3.02 4.34 -2 4 C-0.79117904 1.99983534 -0.79117904 1.99983534 0 0 Z " fill="#24DCF9" transform="translate(20,55)"/>
<path d="M0 0 C0.33 0.99 0.66 1.98 1 3 C1.66 3 2.32 3 3 3 C3.33 4.98 3.66 6.96 4 9 C2.02 9 0.04 9 -2 9 C-2 5.58012972 -1.52745657 3.05491313 0 0 Z " fill="#29E0ED" transform="translate(43,15)"/>
<path d="M0 0 C0 0.66 0 1.32 0 2 C-0.66 2 -1.32 2 -2 2 C-2.66 3.32 -3.32 4.64 -4 6 C-5.5 4.6875 -5.5 4.6875 -7 3 C-7 2.01 -7 1.02 -7 0 C-3.86650268 -1.04449911 -3.01031744 -0.93423645 0 0 Z " fill="#20D0EB" transform="translate(61,123)"/>
<path d="M0 0 C0.99 0.33 1.98 0.66 3 1 C3 1.66 3 2.32 3 3 C4.32 3.66 5.64 4.32 7 5 C6.01 5.495 6.01 5.495 5 6 C5 6.66 5 7.32 5 8 C4.01 8 3.02 8 2 8 C1.67 6.68 1.34 5.36 1 4 C0.34 4 -0.32 4 -1 4 C-0.67 2.68 -0.34 1.36 0 0 Z " fill="#23DBEA" transform="translate(135,65)"/>
<path d="M0 0 C0.66 0.66 1.32 1.32 2 2 C1.01 4.31 0.02 6.62 -1 9 C-3.2477975 6.94766315 -4.0022242 5.99332739 -5 3 C-3.35 2.01 -1.7 1.02 0 0 Z " fill="#12B8D1" transform="translate(24,32)"/>
<path d="M0 0 C2.97 0.495 2.97 0.495 6 1 C5.67 2.32 5.34 3.64 5 5 C4.34 5 3.68 5 3 5 C3 5.99 3 6.98 3 8 C2.01 8 1.02 8 0 8 C0.185625 7.360625 0.37125 6.72125 0.5625 6.0625 C0.706875 5.381875 0.85125 4.70125 1 4 C0.67 3.67 0.34 3.34 0 3 C0 2.01 0 1.02 0 0 Z " fill="#32DEF3" transform="translate(95,132)"/>
<path d="M0 0 C3.875 1.75 3.875 1.75 5 4 C3.5625 6.625 3.5625 6.625 2 9 C1.01 8.34 0.02 7.68 -1 7 C-0.67 6.01 -0.34 5.02 0 4 C0 3.34 0 2.68 0 2 C0 1.34 0 0.68 0 0 Z " fill="#1ECEE7" transform="translate(91,122)"/>
<path d="M0 0 C2.375 -0.125 2.375 -0.125 5 0 C5.66 0.66 6.32 1.32 7 2 C6.625 4.125 6.625 4.125 6 6 C4.125 5.8125 4.125 5.8125 2 5 C0.75 2.4375 0.75 2.4375 0 0 Z " fill="#26DBF7" transform="translate(129,90)"/>
<path d="M0 0 C0.33 0.99 0.66 1.98 1 3 C1.66 3 2.32 3 3 3 C2.67 3.66 2.34 4.32 2 5 C1.34 4.67 0.68 4.34 0 4 C0 2.68 0 1.36 0 0 Z M-1 4 C0.32 5.32 1.64 6.64 3 8 C2.67 8.99 2.34 9.98 2 11 C0.68 11 -0.64 11 -2 11 C-1.67 8.69 -1.34 6.38 -1 4 Z " fill="#15A8DD" transform="translate(10,52)"/>
<path d="M0 0 C0.598125 0.20625 1.19625 0.4125 1.8125 0.625 C1.8125 1.285 1.8125 1.945 1.8125 2.625 C2.4725 2.955 3.1325 3.285 3.8125 3.625 C1.8325 4.615 1.8325 4.615 -0.1875 5.625 C-0.8475 4.305 -1.5075 2.985 -2.1875 1.625 C-2.5175 2.285 -2.8475 2.945 -3.1875 3.625 C-3.8475 3.625 -4.5075 3.625 -5.1875 3.625 C-5.1875 2.965 -5.1875 2.305 -5.1875 1.625 C-2.1875 -0.375 -2.1875 -0.375 0 0 Z " fill="#34E8F1" transform="translate(86.1875,7.375)"/>
<path d="M0 0 C1.65 0.99 3.3 1.98 5 3 C4.34 4.65 3.68 6.3 3 8 C1.68 8 0.36 8 -1 8 C-1.33 7.34 -1.66 6.68 -2 6 C-1.01 6 -0.02 6 1 6 C0.67 4.02 0.34 2.04 0 0 Z " fill="#14B6D0" transform="translate(92,132)"/>
<path d="M0 0 C0.99 1.32 1.98 2.64 3 4 C2.01 4.99 1.02 5.98 0 7 C-2 5.625 -2 5.625 -4 4 C-4 3.34 -4 2.68 -4 2 C-2.68 1.34 -1.36 0.68 0 0 Z " fill="#13BAC7" transform="translate(52,10)"/>
<path d="M0 0 C0.33 0.99 0.66 1.98 1 3 C1.99 3.33 2.98 3.66 4 4 C3.67 5.65 3.34 7.3 3 9 C2.01 9 1.02 9 0 9 C0 6.03 0 3.06 0 0 Z " fill="#39E3F3" transform="translate(7,76)"/>
<path d="M0 0 C-2.12780579 2.34058637 -4.11562221 3.70700306 -7 5 C-7.66 4.01 -8.32 3.02 -9 2 C-5.5647952 -0.29013653 -4.014669 -0.17842973 0 0 Z " fill="#23D7F5" transform="translate(113,29)"/>
<path d="M0 0 C0.33 0.66 0.66 1.32 1 2 C0.34 2.66 -0.32 3.32 -1 4 C-1 4.99 -1 5.98 -1 7 C-2.98 6.01 -4.96 5.02 -7 4 C-4.77810176 1.77810176 -2.91517292 1.07401108 0 0 Z " fill="#1FCDE1" transform="translate(90,14)"/>
<path d="M0 0 C3.3 0 6.6 0 10 0 C9.67 0.99 9.34 1.98 9 3 C6.03 3 3.06 3 0 3 C0 2.01 0 1.02 0 0 Z " fill="#14C5D4" transform="translate(68,136)"/>
<path d="M0 0 C0.99 0 1.98 0 3 0 C3 2.31 3 4.62 3 7 C1.68 7 0.36 7 -1 7 C-1.04254356 5.00045254 -1.04080783 2.99958364 -1 1 C-0.67 0.67 -0.34 0.34 0 0 Z " fill="#1DCBE6" transform="translate(126,98)"/>
<path d="M0 0 C2 2 2 2 2 6 C2.66 6.33 3.32 6.66 4 7 C4.33 6.01 4.66 5.02 5 4 C5 5.32 5 6.64 5 8 C3.35 8.33 1.7 8.66 0 9 C-0.84454356 5.62182575 -1.10844919 3.32534757 0 0 Z " fill="#1BC9E6" transform="translate(20,72)"/>
<path d="M0 0 C2.32590854 3.63423209 2.16265833 6.77088331 2 11 C1.01 11.495 1.01 11.495 0 12 C-0.19573608 10.56359829 -0.38127816 9.12580496 -0.5625 7.6875 C-0.66691406 6.88699219 -0.77132813 6.08648437 -0.87890625 5.26171875 C-1 3 -1 3 0 0 Z " fill="#17C1CC" transform="translate(8,67)"/>
<path d="M0 0 C2.475 0.495 2.475 0.495 5 1 C5 6 5 6 4 8 C1 6 1 6 0.3125 2.875 C0.209375 1.92625 0.10625 0.9775 0 0 Z " fill="#23DAF8" transform="translate(94,123)"/>
<path d="M0 0 C2.475 0.99 2.475 0.99 5 2 C3.6875 4 3.6875 4 2 6 C1.01 6 0.02 6 -1 6 C-0.67 4.02 -0.34 2.04 0 0 Z " fill="#28E9F3" transform="translate(134,97)"/>
<path d="M0 0 C0.36923077 7.50769231 0.36923077 7.50769231 -1.5 10 C-1.995 10.33 -2.49 10.66 -3 11 C-2.79375 10.236875 -2.5875 9.47375 -2.375 8.6875 C-1.66608797 5.78114056 -1.66608797 5.78114056 -4 3 C-1.125 0 -1.125 0 0 0 Z " fill="#009BCA" transform="translate(143,64)"/>
<path d="M0 0 C0.99 0 1.98 0 3 0 C2.45276317 3.37462715 1.9451 5.08235 0 8 C-0.33 7.34 -0.66 6.68 -1 6 C-1.99 6.495 -1.99 6.495 -3 7 C-3 6.01 -3 5.02 -3 4 C-2.01 4 -1.02 4 0 4 C0 2.68 0 1.36 0 0 Z " fill="#1DC9E0" transform="translate(128,45)"/>
<path d="M0 0 C0.66 0.66 1.32 1.32 2 2 C2.99 1.34 3.98 0.68 5 0 C4.37240135 2.92879371 3.41377341 5.36095629 2 8 C0.26216175 5.39324263 -0.50215905 3.98704569 -1 1 C-0.67 0.67 -0.34 0.34 0 0 Z " fill="#10B1C5" transform="translate(102,14)"/>
<path d="M0 0 C0.33 0.99 0.66 1.98 1 3 C-0.98 3.99 -0.98 3.99 -3 5 C-3.33 3.68 -3.66 2.36 -4 1 C-2 0 -2 0 0 0 Z M-6 2 C-5.34 2 -4.68 2 -4 2 C-4.33 2.99 -4.66 3.98 -5 5 C-5.66 4.34 -6.32 3.68 -7 3 C-6.67 2.67 -6.34 2.34 -6 2 Z " fill="#1095C0" transform="translate(47,13)"/>
<path d="M0 0 C1.65 0 3.3 0 5 0 C5 0.99 5 1.98 5 3 C2.5 4.6875 2.5 4.6875 0 6 C0 4.02 0 2.04 0 0 Z " fill="#1CC6E3" transform="translate(32,112)"/>
<path d="M0 0 C0.66 0.66 1.32 1.32 2 2 C0 5 0 5 -2.125 5.6875 C-2.74375 5.790625 -3.3625 5.89375 -4 6 C-3.67 4.35 -3.34 2.7 -3 1 C-2.01 0.67 -1.02 0.34 0 0 Z " fill="#17BBC8" transform="translate(16,44)"/>
<path d="M0 0 C1.32 0.66 2.64 1.32 4 2 C2.68 3.32 1.36 4.64 0 6 C-0.66 5.67 -1.32 5.34 -2 5 C-1.125 1.125 -1.125 1.125 0 0 Z " fill="#2FF5FF" transform="translate(113,19)"/>
<path d="M0 0 C2.475 0.99 2.475 0.99 5 2 C3.93453047 4.13093906 2.70840281 5.36587557 1 7 C0 6 0 6 -0.0625 2.9375 C-0.041875 1.968125 -0.02125 0.99875 0 0 Z " fill="#2CFBFB" transform="translate(107,15)"/>
<path d="M0 0 C-0.33 0.99 -0.66 1.98 -1 3 C-2.8125 3.625 -2.8125 3.625 -5 4 C-6.11375 4.2784375 -6.11375 4.2784375 -7.25 4.5625 C-7.8275 4.706875 -8.405 4.85125 -9 5 C-6.3784932 1.13015663 -4.82784953 0 0 0 Z " fill="#33E3FF" transform="translate(68,136)"/>
<path d="M0 0 C2.2477975 2.05233685 3.0022242 3.00667261 4 6 C2.68 6.33 1.36 6.66 0 7 C0 6.01 0 5.02 0 4 C-0.33 3.01 -0.66 2.02 -1 1 C-0.67 0.67 -0.34 0.34 0 0 Z " fill="#26DBF6" transform="translate(77,126)"/>
<path d="M0 0 C0.99 0.33 1.98 0.66 3 1 C3.33 1.99 3.66 2.98 4 4 C2.68 4.99 1.36 5.98 0 7 C-1.33332095 4.3333581 -0.67102033 2.83319697 0 0 Z " fill="#14B8D9" transform="translate(38,126)"/>
<path d="M0 0 C0.99 0 1.98 0 3 0 C3 1.65 3 3.3 3 5 C1.68 4.67 0.36 4.34 -1 4 C-1 1 -1 1 0 0 Z " fill="#24F1FF" transform="translate(35,126)"/>
<path d="M0 0 C2.475 0.99 2.475 0.99 5 2 C4.67 3.32 4.34 4.64 4 6 C2.35 4.35 0.7 2.7 -1 1 C-0.67 0.67 -0.34 0.34 0 0 Z " fill="#21CEEC" transform="translate(112,114)"/>
<path d="M0 0 C-0.5859375 6.15234375 -0.5859375 6.15234375 -1 8 C-1.99 8.495 -1.99 8.495 -3 9 C-3.66 7.02 -4.32 5.04 -5 3 C-2.25 0 -2.25 0 0 0 Z " fill="#19B6CB" transform="translate(15,94)"/>
<path d="M0 0 C2 2 2 2 2 6 C0 7.75 0 7.75 -2 9 C-2.33 7.02 -2.66 5.04 -3 3 C-2.01 3 -1.02 3 0 3 C0 2.01 0 1.02 0 0 Z " fill="#0BABC5" transform="translate(10,82)"/>
<path d="M0 0 C0.66 0.33 1.32 0.66 2 1 C2.625 3.5625 2.625 3.5625 3 6 C1.02 5.34 -0.96 4.68 -3 4 C-2 2 -2 2 0 0 Z " fill="#1FD7F2" transform="translate(24,50)"/>
<path d="M0 0 C1.65 0.33 3.3 0.66 5 1 C5 1.99 5 2.98 5 4 C4.01 4.495 4.01 4.495 3 5 C2.67 4.34 2.34 3.68 2 3 C1.01 3.66 0.02 4.32 -1 5 C-0.67 3.35 -0.34 1.7 0 0 Z " fill="#27DDEA" transform="translate(100,12)"/>
<path d="M0 0 C1.98 0.99 3.96 1.98 6 3 C5.34 3.66 4.68 4.32 4 5 C3.34 4.67 2.68 4.34 2 4 C1.67 4.99 1.34 5.98 1 7 C0.31292445 4.50935112 0 2.62113708 0 0 Z " fill="#3EE2FB" transform="translate(59,8)"/>
<path d="M0 0 C0.66 0.33 1.32 0.66 2 1 C1.67 2.98 1.34 4.96 1 7 C-0.32 5.68 -1.64 4.36 -3 3 C-2.01 2.01 -1.02 1.02 0 0 Z " fill="#28DFF3" transform="translate(59,132)"/>
<path d="M0 0 C1.32 0.33 2.64 0.66 4 1 C2.68 2.32 1.36 3.64 0 5 C-0.99 4.67 -1.98 4.34 -3 4 C-2.01 2.68 -1.02 1.36 0 0 Z " fill="#1FC9E5" transform="translate(84,128)"/>
<path d="M0 0 C0.99 0.99 1.98 1.98 3 3 C2.34 4.32 1.68 5.64 1 7 C0.01 6.67 -0.98 6.34 -2 6 C-1.125 1.125 -1.125 1.125 0 0 Z " fill="#23D6F4" transform="translate(31,104)"/>
<path d="M0 0 C0.66 0.33 1.32 0.66 2 1 C1 4 1 4 -1 6 C-1.66 5.34 -2.32 4.68 -3 4 C-3 3.01 -3 2.02 -3 1 C-2.01 0.67 -1.02 0.34 0 0 Z " fill="#3CE9FF" transform="translate(56,9)"/>
<path d="M0 0 C3 1 3 1 5 4 C4.67 4.99 4.34 5.98 4 7 C3.34 7 2.68 7 2 7 C1.01 5.02 0.02 3.04 -1 1 C-0.67 0.67 -0.34 0.34 0 0 Z " fill="#30F0FA" transform="translate(93,10)"/>
<path d="M0 0 C0.66 0 1.32 0 2 0 C2.66666667 2 3.33333333 4 4 6 C2.35 5.67 0.7 5.34 -1 5 C-0.67 3.35 -0.34 1.7 0 0 Z " fill="#23DCF6" transform="translate(52,21)"/>
</svg>
