<?xml version="1.0" encoding="UTF-8"?>
<svg version="1.1" xmlns="http://www.w3.org/2000/svg" width="400" height="400">
<path d="M0 0 C132 0 264 0 400 0 C400 132 400 264 400 400 C268 400 136 400 0 400 C0 268 0 136 0 0 Z " fill="#000000" transform="translate(0,0)"/>
<path d="M0 0 C13.97438781 9.37255013 21.0623915 21.60123699 26.3359375 37.421875 C27.02498443 44.41400694 26.93400098 50.80064994 22.3359375 56.421875 C12.00250506 65.35450815 0.48747989 66.6156884 -12.6640625 66.484375 C-13.53417969 66.47986328 -14.40429688 66.47535156 -15.30078125 66.47070312 C-17.42190543 66.4590486 -19.5429936 66.44111857 -21.6640625 66.421875 C-21.6326416 68.29552734 -21.6326416 68.29552734 -21.60058594 70.20703125 C-21.52723388 74.91849941 -21.48192271 79.6299191 -21.44433594 84.34179688 C-21.42443435 86.36662328 -21.39730304 88.39139389 -21.36230469 90.41601562 C-21.14874705 103.10385193 -21.76249086 114.28395295 -25.6640625 126.421875 C-26.17815674 128.05709106 -26.17815674 128.05709106 -26.70263672 129.7253418 C-28.54453243 135.37859098 -30.82079123 139.87063271 -34.6640625 144.421875 C-35.3240625 144.421875 -35.9840625 144.421875 -36.6640625 144.421875 C-36.9940625 145.411875 -37.3240625 146.401875 -37.6640625 147.421875 C-40.17578125 148.9921875 -40.17578125 148.9921875 -43.3515625 150.546875 C-44.38667969 151.06507813 -45.42179687 151.58328125 -46.48828125 152.1171875 C-57.50354723 156.64252432 -69.60285292 154.48505204 -80.4140625 150.421875 C-101.94277505 141.03257843 -117.06724873 121.92954881 -125.828125 100.5859375 C-128.68232174 91.70325044 -129.58312802 80.01621543 -125.9765625 71.234375 C-121.09358979 62.28225836 -112.42788479 57.03019252 -102.9140625 54.109375 C-84.44692591 49.38476787 -63.5322753 50.56162867 -44.6640625 52.421875 C-44.82390625 51.48601562 -44.98375 50.55015625 -45.1484375 49.5859375 C-47.20675716 35.05361678 -47.78712256 16.5218111 -38.9765625 4.06640625 C-28.5747815 -8.96677768 -13.59981809 -8.05619723 0 0 Z " fill="#64C9F1" transform="translate(250.6640625,66.578125)"/>
<path d="M0 0 C2.18952412 0.00534267 4.37884161 0.00003721 6.56835938 -0.00634766 C14.36611813 -0.00965881 22.07229395 0.21802791 29.82617188 1.13037109 C34.07418205 14.76094286 35.10596182 29.23541496 35.20117188 43.44287109 C35.21486816 44.47331543 35.22856445 45.50375977 35.24267578 46.56542969 C35.19141018 55.05196424 34.02758062 62.52725246 28.07617188 68.94287109 C27.44195312 69.65056641 26.80773437 70.35826172 26.15429688 71.08740234 C20.48287294 76.064172 15.98667771 77.84530905 8.57617188 77.69287109 C7.83181885 77.68408936 7.08746582 77.67530762 6.32055664 77.66625977 C-0.35404279 77.42140648 -5.44171563 75.56197021 -11.17382812 72.13037109 C-12.17542969 71.62376953 -12.17542969 71.62376953 -13.19726562 71.10693359 C-23.52338454 65.50132618 -31.92284936 55.457296 -37.17382812 45.13037109 C-37.56054688 44.43169922 -37.94726562 43.73302734 -38.34570312 43.01318359 C-42.35495823 35.54667228 -44.40423638 27.62787814 -43.17382812 19.13037109 C-40.9280762 12.24273015 -37.6642889 7.43632305 -31.17382812 4.13037109 C-21.38830373 -0.61230637 -10.62094039 -0.0307922 0 0 Z " fill="#000101" transform="translate(178.173828125,130.86962890625)"/>
<path d="M0 0 C6.69961321 -0.72821883 11.3976601 1.37340693 17 5 C24.91719312 11.46892609 31.10325022 19.641011 32.21875 30.0390625 C32.42379564 34.60132803 31.8622776 37.4468278 29 41 C19.7563994 49.51384265 7.80640634 48.15114887 -4 48 C-5.94986539 32.5897735 -7.63832987 14.14751533 0 0 Z " fill="#010203" transform="translate(232,73)"/>
<path d="M0 0 C0.33 0 0.66 0 1 0 C1.01981934 0.57967529 1.03963867 1.15935059 1.06005859 1.7565918 C1.15572601 4.40065937 1.26523453 7.0439817 1.375 9.6875 C1.42140625 11.05551758 1.42140625 11.05551758 1.46875 12.45117188 C1.69680308 18.96826572 1.69680308 18.96826572 4 25 C4.66 25.33 5.32 25.66 6 26 C7.3749149 28.90259811 8 30.76138705 8 34 C8.99 33.505 8.99 33.505 10 33 C10 32.01 10 31.02 10 30 C10.66 30 11.32 30 12 30 C11.67 29.34 11.34 28.68 11 28 C10.86584528 25.3276379 10.95681459 22.67749512 11 20 C12.4746712 22.83890446 13.68075881 25.6968137 14.8125 28.6875 C18.69704809 38.37051586 23.66461526 45.54070673 31 53 C31.639375 53.65226562 32.27875 54.30453125 32.9375 54.9765625 C42.59939423 64.11510413 53.7173173 67.66138874 66.73828125 67.421875 C72.37621767 67.08160156 75.89864419 64.73759919 80 61 C81.32577283 59.98999793 82.65712349 58.98714763 84 58 C84.495 60.475 84.495 60.475 85 63 C82.75 65.0625 82.75 65.0625 80 67 C77.6875 66.75 77.6875 66.75 76 66 C76 67.32 76 68.64 76 70 C75.01 70 74.02 70 73 70 C73 70.66 73 71.32 73 72 C71.68 72 70.36 72 69 72 C68.67 72.66 68.34 73.32 68 74 C67.39671875 73.77183594 66.7934375 73.54367188 66.171875 73.30859375 C65.37265625 73.02113281 64.5734375 72.73367187 63.75 72.4375 C62.96109375 72.14746094 62.1721875 71.85742188 61.359375 71.55859375 C58.76348456 70.9440038 57.51454912 71.27265108 55 72 C50.50735835 70.97043629 48.01148016 69.47478479 45 66 C45.55255144 69.31530866 46.0747702 72.2084168 48 75 C53.00924022 77.46341064 58.24579727 77.78284877 63.72265625 78.4375 C66.60214365 78.93171476 68.52128599 79.51648039 71 81 C52.29533244 81.60337637 37.9037325 73.97812871 23.875 62.21875 C11.51264412 50.54319167 -0.55693942 32.23536124 -1.203125 14.87109375 C-1.39398137 4.18194411 -1.39398137 4.18194411 0 0 Z " fill="#66C2E5" transform="translate(124,140)"/>
<path d="M0 0 C3.54454136 1.96752084 5.75628231 4.63442346 8 8 C8.4673854 12.75175157 8.4911613 15.03586856 6.3125 19.3125 C2.95077759 23.21936658 0.71357583 24.78190853 -4.4375 25.4375 C-9.65512075 24.79673956 -12.59245374 22.73597372 -15.875 18.6875 C-17.33217435 15.20647239 -17.40121989 12.74471902 -17 9 C-13.64923435 1.41668827 -8.05980991 -1.67439713 0 0 Z " fill="#ECECEC" transform="translate(260,262)"/>
<path d="M0 0 C13.16981881 -0.49232968 13.16981881 -0.49232968 16.91796875 1.73046875 C19.23004095 4.25075759 19.68189749 5.19985805 19.625 8.5625 C19.41887107 11.77599712 19.32003733 12.6593151 17.0625 15.0625 C12.88234966 16.34213786 9.36634007 16.19550776 5 16 C5 18.97 5 21.94 5 25 C3.35 25 1.7 25 0 25 C0 16.75 0 8.5 0 0 Z " fill="#C7C7C7" transform="translate(170,262)"/>
<path d="M0 0 C2.78750144 1.39375072 2.89266287 3.16244861 4 6 C4.66 6.66 5.32 7.32 6 8 C4.32482761 11.53647504 3.50719183 12.7911563 -0.1875 14.3125 C-1.5796875 14.6528125 -1.5796875 14.6528125 -3 15 C-2.505 16.485 -2.505 16.485 -2 18 C-4.31 18.66 -6.62 19.32 -9 20 C-9 19.34 -9 18.68 -9 18 C-9.66 18 -10.32 18 -11 18 C-11 18.66 -11 19.32 -11 20 C-11.99 20 -12.98 20 -14 20 C-13.67 20.66 -13.34 21.32 -13 22 C-15.87695765 21.7436673 -18.75064267 21.47047937 -21.625 21.1875 C-22.43324219 21.11724609 -23.24148437 21.04699219 -24.07421875 20.97460938 C-28.96610649 20.47746631 -32.74049519 19.65718325 -37 17 C-38.25 14.9375 -38.25 14.9375 -39 13 C-39.66 12.34 -40.32 11.68 -41 11 C-40.34 11 -39.68 11 -39 11 C-39 10.01 -39 9.02 -39 8 C-37 9 -37 9 -35.875 10.4375 C-32.93343319 12.88880567 -29.71812405 13.20761291 -26 14 C-25.67 13.34 -25.34 12.68 -25 12 C-24.40832031 12.22816406 -23.81664062 12.45632812 -23.20703125 12.69140625 C-17.21347039 14.9576998 -17.21347039 14.9576998 -11 14 C-11 13.34 -11 12.68 -11 12 C-10.01 12 -9.02 12 -8 12 C-8 10.68 -8 9.36 -8 8 C-7.05125 7.87625 -6.1025 7.7525 -5.125 7.625 C-1.91332809 7.28312823 -1.91332809 7.28312823 0 5 C-0.495 4.01 -0.495 4.01 -1 3 C-0.67 2.01 -0.34 1.02 0 0 Z " fill="#65CAF2" transform="translate(208,198)"/>
<path d="M0 0 C1.65 0 3.3 0 5 0 C5.40992188 0.85464844 5.81984375 1.70929688 6.2421875 2.58984375 C6.78101563 3.69457031 7.31984375 4.79929687 7.875 5.9375 C8.67550781 7.59072266 8.67550781 7.59072266 9.4921875 9.27734375 C10.71659845 12.09404511 10.71659845 12.09404511 13 13 C13.2475 12.154375 13.495 11.30875 13.75 10.4375 C15.13973627 6.61572526 16.91120838 3.48131937 19 0 C20.65 0 22.3 0 24 0 C24 7.59 24 15.18 24 23 C22.68 23 21.36 23 20 23 C19.67 18.38 19.34 13.76 19 9 C17.02 12.63 15.04 16.26 13 20 C12.01 20 11.02 20 10 20 C8.35 16.7 6.7 13.4 5 10 C4.67 14.29 4.34 18.58 4 23 C2.68 23 1.36 23 0 23 C0 15.41 0 7.82 0 0 Z " fill="#F4F4F4" transform="translate(129,263)"/>
<path d="M0 0 C1.65 0 3.3 0 5 0 C6.82772325 1.92942962 8.21725018 3.64093851 9.6875 5.8125 C10.07744141 6.35970703 10.46738281 6.90691406 10.86914062 7.47070312 C12.62669562 9.94930632 14.31460993 12.4719149 16 15 C16.33 10.05 16.66 5.1 17 0 C18.32 0 19.64 0 21 0 C21 7.92 21 15.84 21 24 C15.21914495 22.84382899 13.88952316 20.93930737 10.6875 16.4375 C10.23310547 15.82197266 9.77871094 15.20644531 9.31054688 14.57226562 C8.19475681 13.05714017 7.09569629 11.52971967 6 10 C5.67 14.95 5.34 19.9 5 25 C3.35 25 1.7 25 0 25 C0 16.75 0 8.5 0 0 Z " fill="#E4E4E4" transform="translate(284,262)"/>
<path d="M0 0 C0.33 0 0.66 0 1 0 C1.10017076 5.97325964 1.17207253 11.946012 1.21972656 17.91992188 C1.23962815 19.94474828 1.26675946 21.96951889 1.30175781 23.99414062 C1.51531545 36.68197693 0.90157164 47.86207795 -3 60 C-3.51409424 61.63521606 -3.51409424 61.63521606 -4.03857422 63.3034668 C-5.88046993 68.95671598 -8.15672873 73.44875771 -12 78 C-12.66 78 -13.32 78 -14 78 C-14.33 78.99 -14.66 79.98 -15 81 C-17.51171875 82.60546875 -17.51171875 82.60546875 -20.6875 84.1875 C-21.72261719 84.71730469 -22.75773437 85.24710937 -23.82421875 85.79296875 C-27.15182815 87.0577059 -29.47393914 87.31491905 -33 87 C-33.33 86.67 -33.66 86.34 -34 86 C-36.32817964 85.63239269 -38.6618385 85.29758419 -41 85 C-41 84.67 -41 84.34 -41 84 C-33.25 83.875 -33.25 83.875 -31 85 C-31 84.34 -31 83.68 -31 83 C-30.34 83 -29.68 83 -29 83 C-29 83.66 -29 84.32 -29 85 C-27.02 84.01 -25.04 83.02 -23 82 C-23 81.34 -23 80.68 -23 80 C-22.0409375 79.814375 -22.0409375 79.814375 -21.0625 79.625 C-20.0415625 79.315625 -20.0415625 79.315625 -19 79 C-18.67 78.34 -18.34 77.68 -18 77 C-16.68 77 -15.36 77 -14 77 C-13.67 75.35 -13.34 73.7 -13 72 C-12.34 72 -11.68 72 -11 72 C-10.34 68.7 -9.68 65.4 -9 62 C-8.01 61.67 -7.02 61.34 -6 61 C-6.020625 59.865625 -6.04125 58.73125 -6.0625 57.5625 C-6 54 -6 54 -5 53 C-5.06446804 50.96925687 -5.13267836 48.93806533 -5.2578125 46.91015625 C-5.17273438 46.27980469 -5.08765625 45.64945313 -5 45 C-4.01 44.34 -3.02 43.68 -2 43 C-2.66 40.69 -3.32 38.38 -4 36 C-2.68 36 -1.36 36 0 36 C0 24.12 0 12.24 0 0 Z " fill="#6BBBDB" transform="translate(228,133)"/>
<path d="M0 0 C0 0.33 0 0.66 0 1 C-4.62 1.33 -9.24 1.66 -14 2 C-14 2.33 -14 2.66 -14 3 C-14.82612793 3.02505615 -15.65225586 3.0501123 -16.50341797 3.07592773 C-19.61597873 3.17198367 -22.72842171 3.27115022 -25.84082031 3.37231445 C-27.8313065 3.43609984 -29.8219031 3.49640927 -31.8125 3.55664062 C-38.91724439 3.78987718 -45.93741205 4.19855066 -53 5 C-53.33 5 -53.66 5 -54 5 C-57.07686575 5.76128637 -60.14529915 6.55349776 -63.21484375 7.34375 C-66 8 -66 8 -68 8 C-68.04125 8.5775 -68.0825 9.155 -68.125 9.75 C-69.47957626 13.23319609 -71.77732812 14.29387959 -75 16 C-77.375 15.75 -77.375 15.75 -79 15 C-69.0861276 4.12672059 -56.49487831 -0.16406762 -41.94140625 -0.9140625 C-27.93620084 -1.21942872 -13.95625105 -1.37596841 0 0 Z " fill="#6ABCDE" transform="translate(206,119)"/>
<path d="M0 0 C2.5625 2 2.5625 2 4 4 C3.67 4.66 3.34 5.32 3 6 C2.484375 5.835 1.96875 5.67 1.4375 5.5 C-1.73363876 4.84951 -4.77218334 4.9379266 -8 5 C-8 5.99 -8 6.98 -8 8 C-7.30132812 8.26554687 -6.60265625 8.53109375 -5.8828125 8.8046875 C-4.51769531 9.33449219 -4.51769531 9.33449219 -3.125 9.875 C-1.76761719 10.39707031 -1.76761719 10.39707031 -0.3828125 10.9296875 C2 12 2 12 4 14 C4.42037462 17.78337161 4.51868776 20.12048598 2.5625 23.4375 C-1.23259485 25.75158223 -4.66490274 25.67109157 -9 25 C-12.0625 23.5 -12.0625 23.5 -14 22 C-13.67 20.68 -13.34 19.36 -13 18 C-12.319375 18.33 -11.63875 18.66 -10.9375 19 C-7.49159762 20.17307315 -4.61602578 20.14180493 -1 20 C-1 18.68 -1 17.36 -1 16 C-1.77085938 15.74605469 -2.54171875 15.49210937 -3.3359375 15.23046875 C-4.33882812 14.88628906 -5.34171875 14.54210937 -6.375 14.1875 C-7.37273438 13.85105469 -8.37046875 13.51460938 -9.3984375 13.16796875 C-12 12 -12 12 -14 9 C-13.86294821 5.71075711 -13.57495811 3.71869763 -11.5 1.125 C-7.70209475 -0.58405736 -4.09083061 -0.71308057 0 0 Z " fill="#E5E5E5" transform="translate(70,262)"/>
<path d="M0 0 C3.4375 0.625 3.4375 0.625 5.875 2.6875 C7.84893691 6.39850139 8.10444827 8.47509967 7.4375 12.625 C5.375 15.625 5.375 15.625 2.4375 17.625 C-1.87442698 17.77629568 -3.77716844 17.32978473 -7 14.4375 C-8.87513988 11.06224821 -9.27485686 9.4242366 -8.5625 5.625 C-5.93038535 1.95599171 -4.47395674 0.78490469 0 0 Z " fill="#0C0C0C" transform="translate(255.5625,265.375)"/>
<path d="M0 0 C1.32 0 2.64 0 4 0 C4 2.97 4 5.94 4 9 C8.29 9 12.58 9 17 9 C17 6.03 17 3.06 17 0 C17.99 0 18.98 0 20 0 C20 7.59 20 15.18 20 23 C19.01 23 18.02 23 17 23 C17 19.7 17 16.4 17 13 C12.71 13 8.42 13 4 13 C4 16.3 4 19.6 4 23 C2.68 23 1.36 23 0 23 C0 15.41 0 7.82 0 0 Z " fill="#FBFBFB" transform="translate(206,263)"/>
<path d="M0 0 C2.1875 -0.5 2.1875 -0.5 5 0 C7.3981167 2.83885166 10 6.18795831 10 10 C13.33557632 7.0094833 15.15083921 4.06815373 17 0 C18.65 0 20.3 0 22 0 C21.37318777 3.73475622 19.66044989 6.11948407 17.5 9.1875 C14.11950577 14.33082865 13.10019116 17.88833927 13 24 C11.68 24 10.36 24 9 24 C9 22.783125 9 21.56625 9 20.3125 C8.38852134 14.21712542 5.01871288 9.67920675 1.71484375 4.72265625 C0 2 0 2 0 0 Z " fill="#F2F2F2" transform="translate(322,262)"/>
<path d="M0 0 C1.65 0 3.3 0 5 0 C6.65 2.97 8.3 5.94 10 9 C10.66 9 11.32 9 12 9 C13.65 6.03 15.3 3.06 17 0 C18.65 0 20.3 0 22 0 C20.95681673 4.06841476 19.3854047 6.96644322 16.9375 10.3125 C13.70810326 14.93265884 13.17732218 18.4143513 13 24 C11.68 24 10.36 24 9 24 C9.00902344 23.39414062 9.01804687 22.78828125 9.02734375 22.1640625 C8.78624697 15.35045781 6.81091632 11.53258733 2.59375 6.2265625 C1.04753908 4.0664149 0.42605472 2.5918329 0 0 Z " fill="#E7E7E7" transform="translate(90,262)"/>
<path d="M0 0 C2.66394414 0.36083524 5.3309347 0.67787143 8 1 C8.495 3.97 8.495 3.97 9 7 C8.01 6.67 7.02 6.34 6 6 C6 5.01 6 4.02 6 3 C-0.10147815 2.97514906 -6.20292637 2.95706883 -12.30444336 2.94506836 C-14.37703973 2.9400617 -16.44963261 2.93325441 -18.5222168 2.92456055 C-21.51351792 2.91233354 -24.50477206 2.90673487 -27.49609375 2.90234375 C-28.41208847 2.89718246 -29.32808319 2.89202118 -30.27183533 2.88670349 C-38.49704325 2.8859977 -46.14359442 3.49263652 -54 6 C-54 5.34 -54 4.68 -54 4 C-49.8794254 2.00214565 -46.54805635 1.82164485 -42 2 C-42 1.34 -42 0.68 -42 0 C-36.98312541 -0.16829771 -31.96608284 -0.32878159 -26.94873047 -0.48217773 C-25.24358475 -0.53539277 -23.53850308 -0.59070465 -21.83349609 -0.64819336 C-19.37611701 -0.73067981 -16.91860276 -0.80550596 -14.4609375 -0.87890625 C-13.32620499 -0.91945885 -13.32620499 -0.91945885 -12.16854858 -0.96083069 C-7.97189647 -1.07791777 -4.11415352 -0.82897123 0 0 Z " fill="#6AB0CB" transform="translate(202,129)"/>
<path d="M0 0 C1.32 0 2.64 0 4 0 C4 7.92 4 15.84 4 24 C-1.68883094 22.86223381 -1.68883094 22.86223381 -4.375 19.1875 C-4.89835937 18.50042969 -5.42171875 17.81335938 -5.9609375 17.10546875 C-7 15 -7 15 -6.6640625 12.73828125 C-6.44492187 12.16464844 -6.22578125 11.59101563 -6 11 C-2.125 12.75 -2.125 12.75 -1 15 C-0.67 10.05 -0.34 5.1 0 0 Z " fill="#E9E9E9" transform="translate(301,262)"/>
<path d="M0 0 C1.14284699 3.42854097 1.0629111 6.01547568 1 9.625 C0.95380715 15.19123886 1.24005178 20.4903754 2 26 C2.66 25.67 3.32 25.34 4 25 C4.33 29.95 4.66 34.9 5 40 C4.01 40 3.02 40 2 40 C2.185625 40.7425 2.37125 41.485 2.5625 42.25 C3.00371146 45.02332918 3.03135653 46.42160868 2 49 C1.0206121 50.02019573 0.02104551 51.02149805 -1 52 C-1.33 52.99 -1.66 53.98 -2 55 C-2.99 55 -3.98 55 -5 55 C-4.566875 53.9790625 -4.566875 53.9790625 -4.125 52.9375 C-1.20750328 45.31959191 -0.69162742 38.96033916 -0.75 30.8125 C-0.74226562 29.75224609 -0.73453125 28.69199219 -0.7265625 27.59960938 C-0.74235238 21.12181155 -1.33089514 15.02231309 -2.57128906 8.6628418 C-2.99081851 6.05702879 -3.07517814 3.63391983 -3 1 C-2.01 0.67 -1.02 0.34 0 0 Z " fill="#70B9D7" transform="translate(213,143)"/>
<path d="M0 0 C2.18952412 0.00534267 4.37884161 0.00003721 6.56835938 -0.00634766 C14.36611813 -0.00965881 22.07229395 0.21802791 29.82617188 1.13037109 C31.11860723 5.25000879 32.08869813 8.79868792 31.82617188 13.13037109 C29.70570395 9.59625789 29.29417899 6.18643274 28.82617188 2.13037109 C27.83617187 2.29537109 26.84617188 2.46037109 25.82617188 2.63037109 C21.14641604 3.29349439 16.30963432 3.70624644 11.66992188 2.63037109 C7.59289018 1.91353036 3.58224751 1.98618653 -0.54882812 2.00537109 C-1.37382812 2.00150391 -2.19882813 1.99763672 -3.04882812 1.99365234 C-12.04815729 1.84074673 -12.04815729 1.84074673 -20.17382812 5.13037109 C-23.09179688 5.54443359 -23.09179688 5.54443359 -26.36132812 5.75537109 C-27.44800781 5.83013672 -28.5346875 5.90490234 -29.65429688 5.98193359 C-30.90146484 6.05541016 -30.90146484 6.05541016 -32.17382812 6.13037109 C-30.75443729 3.29158943 -28.59946334 2.93395223 -25.76757812 1.81396484 C-17.37970433 -0.39669467 -8.6073414 -0.02495438 0 0 Z " fill="#010C18" transform="translate(178.173828125,130.86962890625)"/>
<path d="M0 0 C0 0.66 0 1.32 0 2 C-5.71905383 2.82536345 -11.2267149 3.12753701 -17 3.0625 C-17.77472656 3.05798828 -18.54945313 3.05347656 -19.34765625 3.04882812 C-21.23180524 3.03719758 -23.11591365 3.01926906 -25 3 C-24.83757812 3.70511719 -24.67515625 4.41023437 -24.5078125 5.13671875 C-23.08885501 13.13745598 -23.95252991 21.59930095 -24.375 29.6875 C-24.40577637 30.38270752 -24.43655273 31.07791504 -24.46826172 31.79418945 C-24.76559613 36.76559613 -24.76559613 36.76559613 -27 39 C-27 26.46 -27 13.92 -27 1 C-24.03 0.835 -21.06 0.67 -18 0.5 C-17.08089844 0.44779297 -16.16179687 0.39558594 -15.21484375 0.34179688 C-10.13431941 0.0672917 -5.08785598 -0.04710978 0 0 Z " fill="#0B2231" transform="translate(256,132)"/>
<path d="M0 0 C2.43375 -0.04125 4.8675 -0.0825 7.375 -0.125 C8.13989746 -0.14320801 8.90479492 -0.16141602 9.69287109 -0.18017578 C11.46287275 -0.1948117 13.23272455 -0.09928514 15 0 C15.66 0.66 16.32 1.32 17 2 C16.625 4.125 16.625 4.125 16 6 C15.34 5.690625 14.68 5.38125 14 5.0625 C10.29523985 3.75039745 6.90736009 3.39735865 3 3 C3.08378906 3.71027344 3.16757813 4.42054688 3.25390625 5.15234375 C3.35574219 6.07144531 3.45757812 6.99054688 3.5625 7.9375 C3.66691406 8.85402344 3.77132812 9.77054687 3.87890625 10.71484375 C3.91886719 11.46894531 3.95882812 12.22304688 4 13 C3.67 13.33 3.34 13.66 3 14 C2.92820036 15.51928038 2.91607993 17.04167482 2.9375 18.5625 C2.94652344 19.38878906 2.95554688 20.21507812 2.96484375 21.06640625 C2.97644531 21.70449219 2.98804688 22.34257812 3 23 C2.01 23 1.02 23 0 23 C0 15.41 0 7.82 0 0 Z " fill="#FAFAFA" transform="translate(171,263)"/>
<path d="M0 0 C0 1.65 0 3.3 0 5 C1.98 4.34 3.96 3.68 6 3 C6.33 3.99 6.66 4.98 7 6 C6.37351563 6.09796875 5.74703125 6.1959375 5.1015625 6.296875 C4.28429687 6.44640625 3.46703125 6.5959375 2.625 6.75 C1.81289062 6.88921875 1.00078125 7.0284375 0.1640625 7.171875 C-2.16320662 7.80108483 -2.16320662 7.80108483 -3.13671875 9.98046875 C-3.42160156 10.64691406 -3.70648438 11.31335938 -4 12 C-5.63631892 13.04892238 -7.30485863 14.04906703 -9 15 C-10.75149165 16.58245275 -10.75149165 16.58245275 -12 18 C-13.125 14.25 -13.125 14.25 -12 12 C-11.34 12 -10.68 12 -10 12 C-10 11.34 -10 10.68 -10 10 C-8.68 9.34 -7.36 8.68 -6 8 C-6.33 6.68 -6.66 5.36 -7 4 C-8.65 4 -10.3 4 -12 4 C-12 3.34 -12 2.68 -12 2 C-7.8803623 0.70756464 -4.33168317 -0.26252625 0 0 Z " fill="#61C6EC" transform="translate(150,125)"/>
<path d="M0 0 C2.5625 2 2.5625 2 4 4 C3.67 4.66 3.34 5.32 3 6 C2.484375 5.835 1.96875 5.67 1.4375 5.5 C-1.73363876 4.84951 -4.77218334 4.9379266 -8 5 C-8 5.99 -8 6.98 -8 8 C-6.02 8.66 -4.04 9.32 -2 10 C-5.01031744 10.93423645 -5.86650268 11.04449911 -9 10 C-9.33 10.99 -9.66 11.98 -10 13 C-12.0625 11.375 -12.0625 11.375 -14 9 C-14 5.61152175 -13.62525655 3.78157069 -11.5 1.125 C-7.70209475 -0.58405736 -4.09083061 -0.71308057 0 0 Z " fill="#E9E9E9" transform="translate(70,262)"/>
<path d="M0 0 C0.99 0.33 1.98 0.66 3 1 C3 12.88 3 24.76 3 37 C2.01 36.67 1.02 36.34 0 36 C-1.12367294 32.62898119 -1.12939944 30.05568464 -1.1328125 26.50390625 C-1.13410156 25.22322266 -1.13539063 23.94253906 -1.13671875 22.62304688 C-1.13462402 21.956521 -1.1325293 21.28999512 -1.13037109 20.60327148 C-1.1250285 18.57332858 -1.13031905 16.54360783 -1.13671875 14.51367188 C-1.13542969 13.23169922 -1.13414062 11.94972656 -1.1328125 10.62890625 C-1.13168457 9.45400635 -1.13055664 8.27910645 -1.12939453 7.06860352 C-1.02164956 4.51342124 -0.75266334 2.4272832 0 0 Z " fill="#6CBCDC" transform="translate(225,84)"/>
<path d="M0 0 C4 4 8 8 12 12 C11.01 13.32 10.02 14.64 9 16 C9 15.34 9 14.68 9 14 C8.01 14 7.02 14 6 14 C4.3125 12.5 4.3125 12.5 3 11 C3.33 12.32 3.66 13.64 4 15 C3.34 15 2.68 15 2 15 C1.67 15.66 1.34 16.32 1 17 C-0.4606285 14.35261084 -1 13.10551666 -1 10 C-0.34 9.67 0.32 9.34 1 9 C0.34 8.01 -0.32 7.02 -1 6 C-0.625 2.8125 -0.625 2.8125 0 0 Z " fill="#65BCDD" transform="translate(144,182)"/>
<path d="M0 0 C0.33 0 0.66 0 1 0 C1.22786458 1.98567708 1.45572917 3.97135417 1.68359375 5.95703125 C1.97170735 8.19396393 1.97170735 8.19396393 3 11 C2.360625 11.268125 1.72125 11.53625 1.0625 11.8125 C-1.33131686 12.88667752 -1.33131686 12.88667752 -2 16 C-8.03662621 19.82810443 -16.02961159 20.30306037 -23 20 C-22.505 18.515 -22.505 18.515 -22 17 C-21.443125 16.97421875 -20.88625 16.9484375 -20.3125 16.921875 C-13.79450727 16.43742959 -8.47779184 14.82005343 -3.34765625 10.66015625 C-1.663061 8.58493022 -1.30487646 6.92588276 -0.8125 4.3125 C-0.57466797 3.10013672 -0.57466797 3.10013672 -0.33203125 1.86328125 C-0.16767578 0.94095703 -0.16767578 0.94095703 0 0 Z " fill="#61B5D1" transform="translate(264,103)"/>
<path d="M0 0 C1.50433594 0.00676758 1.50433594 0.00676758 3.0390625 0.01367188 C4.63427734 0.04557617 4.63427734 0.04557617 6.26171875 0.078125 C7.87820312 0.09456055 7.87820312 0.09456055 9.52734375 0.11132812 C17.3616348 0.2194846 25.14954669 0.55914325 32.94921875 1.328125 C32.94921875 1.658125 32.94921875 1.988125 32.94921875 2.328125 C19.29550861 3.58985399 5.64887942 3.42930418 -8.05078125 3.328125 C-5.5638299 0.22135832 -3.91073517 -0.04058013 0 0 Z " fill="#6DBBDE" transform="translate(173.05078125,117.671875)"/>
<path d="M0 0 C2.44633323 1.43491643 3.99445687 2.94303269 6 5 C5.34 7.97 4.68 10.94 4 14 C3.67 14 3.34 14 3 14 C2.71125 12.88625 2.4225 11.7725 2.125 10.625 C1.30758671 6.99708908 1.30758671 6.99708908 -1 5 C-5.33643601 4.68462284 -7.32653229 4.55102153 -11 7 C-11.66 5.68 -12.32 4.36 -13 3 C-9.33356117 -0.82584921 -4.97307156 -0.96197585 0 0 Z " fill="#E6E6E6" transform="translate(260,262)"/>
<path d="M0 0 C0.33 0.66 0.66 1.32 1 2 C1.99 2.33 2.98 2.66 4 3 C2.90959673 5.00753698 1.80226428 7.00588751 0.6875 9 C0.07261719 10.11375 -0.54226562 11.2275 -1.17578125 12.375 C-1.77777344 13.24125 -2.37976563 14.1075 -3 15 C-3.99 15 -4.98 15 -6 15 C-6.67408308 13.73308493 -7.33900497 12.46129251 -8 11.1875 C-8.37125 10.47980469 -8.7425 9.77210938 -9.125 9.04296875 C-10 7 -10 7 -10 4 C-6.73045798 4.56371414 -5.17424117 5.49962266 -3 8 C-2.690625 7.05125 -2.38125 6.1025 -2.0625 5.125 C-1 2 -1 2 0 0 Z " fill="#F0F0F0" transform="translate(145,268)"/>
<path d="M0 0 C-6.0155001 4.0103334 -13.98192501 3.13257295 -21 3.0625 C-21.87011719 3.05798828 -22.74023438 3.05347656 -23.63671875 3.04882812 C-25.75784293 3.0371736 -27.8789311 3.01924357 -30 3 C-30 2.01 -30 1.02 -30 0 C-19.96033167 -1.46646841 -10.07002829 -0.67829206 0 0 Z " fill="#69BAD7" transform="translate(259,130)"/>
<path d="M0 0 C2.84574968 1.27568089 5.18089981 2.41496289 7 5 C6.71395102 6.67542976 6.38218767 8.34385343 6 10 C6.66 10.66 7.32 11.32 8 12 C7.34 12.66 6.68 13.32 6 14 C6.33 14.66 6.66 15.32 7 16 C4.02750614 15.68151851 2.96160897 14.96374181 0.75 12.875 C-1.42526165 9.30135585 -1.38145653 7.11973051 -1 3 C-0.67 2.01 -0.34 1.02 0 0 Z " fill="#63C8EC" transform="translate(138,179)"/>
<path d="M0 0 C1.07765625 0.00902344 2.1553125 0.01804687 3.265625 0.02734375 C4.08546875 0.03894531 4.9053125 0.05054687 5.75 0.0625 C5.75 0.3925 5.75 0.7225 5.75 1.0625 C14 1.3925 22.25 1.7225 30.75 2.0625 C30.75 2.3925 30.75 2.7225 30.75 3.0625 C29.92387207 3.08755615 29.09774414 3.1126123 28.24658203 3.13842773 C25.13402127 3.23448367 22.02157829 3.33365022 18.90917969 3.43481445 C16.9186935 3.49859984 14.9280969 3.55890927 12.9375 3.61914062 C5.83718417 3.8522318 -1.19478208 4.21466712 -8.25 5.0625 C-8.25 4.4025 -8.25 3.7425 -8.25 3.0625 C-8.91 2.4025 -9.57 1.7425 -10.25 1.0625 C-6.78777385 -0.00473961 -3.60960734 -0.03923486 0 0 Z " fill="#5CB4D7" transform="translate(161.25,118.9375)"/>
<path d="M0 0 C6.625 -0.25 6.625 -0.25 10 2 C9.125 6.875 9.125 6.875 8 8 C5.32941149 8.14115161 2.67567762 8.04247107 0 8 C0 5.36 0 2.72 0 0 Z " fill="#0B0B0B" transform="translate(175,266)"/>
<path d="M0 0 C6.64899151 -0.72271647 11.46641251 1.32911437 17 5 C19.30853329 7.21253487 21.07930334 9.42222291 23 12 C22.01 12.33 21.02 12.66 20 13 C19.608125 12.4225 19.21625 11.845 18.8125 11.25 C15.56635949 7.22030833 11.97453694 4.49236108 7 3 C4.29113059 2.83201738 4.29113059 2.83201738 2 3 C1.731875 3.969375 1.46375 4.93875 1.1875 5.9375 C0.795625 6.948125 0.40375 7.95875 0 9 C-0.99 9.33 -1.98 9.66 -3 10 C-2.49287967 6.28111761 -1.88391785 3.26545761 0 0 Z " fill="#041621" transform="translate(232,73)"/>
<path d="M0 0 C2 3 2 3 2 6 C4.70860665 6.05429278 7.41610901 6.09381211 10.125 6.125 C10.88554687 6.14175781 11.64609375 6.15851563 12.4296875 6.17578125 C17.0765525 6.21584043 20.58283338 5.59769856 25 4 C25.66 4.33 26.32 4.66 27 5 C27 4.34 27 3.68 27 3 C28.65 2.67 30.3 2.34 32 2 C26.84497735 7.72780294 21.4933578 8.58606097 14 9 C9.33189202 9.07401863 4.66818734 9.05976342 0 9 C0 6.03 0 3.06 0 0 Z " fill="#021324" transform="translate(228,112)"/>
<path d="M0 0 C0.99 0.33 1.98 0.66 3 1 C2.91621094 1.66386719 2.83242187 2.32773437 2.74609375 3.01171875 C1.94574958 9.54720848 1.94574958 9.54720848 3 16 C1.68 16 0.36 16 -1 16 C-3.33991708 12.34387956 -3.37437949 9.26792624 -3 5 C-1.5 2.0625 -1.5 2.0625 0 0 Z " fill="#F4F4F4" transform="translate(246,266)"/>
<path d="M0 0 C0.66 1.32 1.32 2.64 2 4 C-0.25 6.5625 -0.25 6.5625 -3 9 C-5.3125 8.8125 -5.3125 8.8125 -7 8 C-7 9.32 -7 10.64 -7 12 C-8.65 12.33 -10.3 12.66 -12 13 C-12 12.67 -12 12.34 -12 12 C-18.93 11.505 -18.93 11.505 -26 11 C-26 10.67 -26 10.34 -26 10 C-25.09378906 9.99742187 -24.18757812 9.99484375 -23.25390625 9.9921875 C-12.97951595 9.66601638 -7.09534143 7.33697845 0 0 Z " fill="#64AFD0" transform="translate(207,198)"/>
<path d="M0 0 C1.8780304 2.8170456 3.5235873 5.67793265 5.1875 8.625 C8.3766762 14.13235891 11.93709135 19.1096905 16 24 C15.34 24.66 14.68 25.32 14 26 C14 25.34 14 24.68 14 24 C13.34 24 12.68 24 12 24 C12 23.01 12 22.02 12 21 C11.01 20.67 10.02 20.34 9 20 C9 19.34 9 18.68 9 18 C8.34 18 7.68 18 7 18 C5.375 16.5 5.375 16.5 4 15 C3.01 15.495 3.01 15.495 2 16 C2.04125 14.88625 2.0825 13.7725 2.125 12.625 C2.41121859 8.95633975 2.41121859 8.95633975 0 7 C-0.125 3.375 -0.125 3.375 0 0 Z " fill="#061318" transform="translate(128,173)"/>
<path d="M0 0 C0.33 0 0.66 0 1 0 C1.01417969 1.26972656 1.02835937 2.53945312 1.04296875 3.84765625 C1.28156236 14.00223999 2.26957642 22.63207727 5.94140625 32.12890625 C7 35 7 35 7 38 C0.57052933 31.57052933 -1.13017072 21.41942778 -1.25317383 12.66357422 C-1.2400544 3.72016321 -1.2400544 3.72016321 0 0 Z " fill="#6CB9D5" transform="translate(124,140)"/>
<path d="M0 0 C0 0.33 0 0.66 0 1 C-7.62314474 1.23576736 -14.58569409 0.83717315 -22 -1 C-22 -0.34 -22 0.32 -22 1 C-23.98 1 -25.96 1 -28 1 C-21.42737063 -6.55852378 -8.11881307 -3.44434494 0 0 Z " fill="#6DB9D9" transform="translate(246,64)"/>
<path d="M0 0 C3.3 0.99 6.6 1.98 10 3 C10.33 4.65 10.66 6.3 11 8 C10 9 10 9 6.625 9.25 C3 9 3 9 1.0625 7.6875 C-0.4993846 5.20685976 0 2.88445528 0 0 Z " fill="#121212" transform="translate(59,274)"/>
<path d="M0 0 C0.66 0 1.32 0 2 0 C4.64408266 6.11444116 5.19237409 12.92831348 3.3125 19.34765625 C1.15469358 24.15776639 -1.40635093 26.49437324 -6 29 C-6 27.68 -6 26.36 -6 25 C-4.35 24.67 -2.7 24.34 -1 24 C0.6588964 19.65277348 1.24783029 16.08293226 1.1875 11.4375 C1.18105469 10.34308594 1.17460937 9.24867187 1.16796875 8.12109375 C1.01649324 5.30646735 0.63784164 2.7401677 0 0 Z " fill="#6BB0CB" transform="translate(273,98)"/>
<path d="M0 0 C1.00109515 3.31070838 1.10356134 6.30084769 1.0625 9.75 C1.05347656 10.73484375 1.04445312 11.7196875 1.03515625 12.734375 C1.02355469 13.48203125 1.01195312 14.2296875 1 15 C0.34 15 -0.32 15 -1 15 C-0.98839844 15.7734375 -0.97679687 16.546875 -0.96484375 17.34375 C-0.91290155 23.33936364 -1.08815844 29.07302983 -2 35 C-2.33 35 -2.66 35 -3 35 C-3.61916858 11.41761516 -3.61916858 11.41761516 0 0 Z " fill="#68ACC7" transform="translate(208,77)"/>
<path d="M0 0 C0.66 0.33 1.32 0.66 2 1 C1.21625 1.886875 0.4325 2.77375 -0.375 3.6875 C-2.57156991 6.30720519 -3.93790341 8.71715601 -5 12 C-5.33 12 -5.66 12 -6 12 C-6.33 16.95 -6.66 21.9 -7 27 C-9.48297267 22.03405465 -9.77128375 18.46131221 -9 13 C-7.05144709 7.49592028 -4.9330051 3.27812946 0 0 Z " fill="#09222F" transform="translate(144,137)"/>
<path d="M0 0 C0 0.66 0 1.32 0 2 C1.89666526 1.91227545 3.79238993 1.80408699 5.6875 1.6875 C6.74324219 1.62949219 7.79898438 1.57148438 8.88671875 1.51171875 C12.24196537 0.96022903 14.16615498 -0.1894879 17 -2 C19.3125 -1.6875 19.3125 -1.6875 21 -1 C15.61785355 2.57629468 11.91437197 3.61535826 5.5 3.4375 C4.77941406 3.44458984 4.05882812 3.45167969 3.31640625 3.45898438 C-1.79945578 3.39885218 -5.42149184 2.27118102 -10 0 C-10 -0.33 -10 -0.66 -10 -1 C-5.92224809 -1.9267618 -3.57818963 -2.33958553 0 0 Z " fill="#061724" transform="translate(181,205)"/>
<path d="M0 0 C0.66 0 1.32 0 2 0 C1.75 2.375 1.75 2.375 1 5 C-2.20360907 7.19506548 -4.9415021 7.21567852 -8.75 7.125 C-9.73484375 7.10695312 -10.7196875 7.08890625 -11.734375 7.0703125 C-12.85585937 7.03550781 -12.85585937 7.03550781 -14 7 C-14 6.34 -14 5.68 -14 5 C-10.45307425 2.63538283 -8.19852591 2.61566673 -4.05859375 2.34375 C-1.78100001 2.1683252 -1.78100001 2.1683252 0 0 Z " fill="#64C4EA" transform="translate(265,123)"/>
<path d="M0 0 C3.14581423 -0.02888514 6.29159469 -0.04675923 9.4375 -0.0625 C10.33533203 -0.07087891 11.23316406 -0.07925781 12.15820312 -0.08789062 C13.01220703 -0.09111328 13.86621094 -0.09433594 14.74609375 -0.09765625 C15.93223267 -0.10551147 15.93223267 -0.10551147 17.14233398 -0.11352539 C19 0 19 0 20 1 C21.91424457 0.8981629 21.91424457 0.8981629 24.0625 0.5625 C26.0115625 0.2840625 26.0115625 0.2840625 28 0 C24.32679785 2.44880143 21.86272372 3.12659546 17.55078125 3.09765625 C16.70322266 3.09443359 15.85566406 3.09121094 14.98242188 3.08789062 C14.10134766 3.07951172 13.22027344 3.07113281 12.3125 3.0625 C11.41982422 3.05798828 10.52714844 3.05347656 9.60742188 3.04882812 C7.40488013 3.03704983 5.20247401 3.02060164 3 3 C3 2.34 3 1.68 3 1 C2.01 0.67 1.02 0.34 0 0 Z " fill="#67C3E4" transform="translate(228,121)"/>
<path d="M0 0 C2.1875 -0.5 2.1875 -0.5 5 0 C7.13759072 2.41959477 8.79629341 5.00219739 10 8 C9.67 8.99 9.34 9.98 9 11 C8.01 11.33 7.02 11.66 6 12 C4.99466333 10.37829621 3.99588093 8.75252763 3 7.125 C2.443125 6.22007812 1.88625 5.31515625 1.3125 4.3828125 C0 2 0 2 0 0 Z " fill="#E0E0E0" transform="translate(322,262)"/>
<path d="M0 0 C0.99 0.309375 1.98 0.61875 3 0.9375 C11.60100836 3.34851825 20.12980542 3.11212325 29 3 C27.30577777 5.05410604 26.31132297 5.92137776 23.6953125 6.58203125 C18.85284672 7.01623411 15.42895758 7.27432957 11 5 C7.35358484 3.91247267 3.70022482 2.88805396 0 2 C0 1.34 0 0.68 0 0 Z " fill="#04101F" transform="translate(171,217)"/>
<path d="M0 0 C1.21077701 3.63233102 1.12444164 6.95121987 1.09765625 10.73046875 C1.0962413 11.48088943 1.09482635 12.23131012 1.09336853 13.00447083 C1.0877756 15.3988546 1.07522444 17.79314453 1.0625 20.1875 C1.05748408 21.81184761 1.05292134 23.43619668 1.04882812 25.06054688 C1.03780848 29.04040069 1.02054873 33.02018444 1 37 C0.67 37 0.34 37 0 37 C-0.04898438 35.76765625 -0.09796875 34.5353125 -0.1484375 33.265625 C-0.51553593 24.88425065 -0.95028452 16.69419574 -2.59765625 8.4453125 C-3.01307817 5.9205152 -3.06865538 3.55398013 -3 1 C-2.01 0.67 -1.02 0.34 0 0 Z " fill="#62A4BF" transform="translate(213,143)"/>
<path d="M0 0 C-0.63065327 5.6758794 -0.63065327 5.6758794 -2.53125 7.34375 C-4.65937098 9.743546 -4.29846013 11.54362957 -4.1875 14.6875 C-4.16042969 15.68136719 -4.13335937 16.67523438 -4.10546875 17.69921875 C-4.07066406 18.45847656 -4.03585938 19.21773437 -4 20 C-4.66 20 -5.32 20 -6 20 C-6.02690104 17.20826945 -6.04679053 14.41679652 -6.0625 11.625 C-6.07087891 10.8309375 -6.07925781 10.036875 -6.08789062 9.21875 C-6.11328125 3.2265625 -6.11328125 3.2265625 -5 1 C-2 0 -2 0 0 0 Z " fill="#62C0E4" transform="translate(131,134)"/>
<path d="M0 0 C0 0.33 0 0.66 0 1 C-1.04800781 1.12117187 -2.09601563 1.24234375 -3.17578125 1.3671875 C-4.55473886 1.53603945 -5.93364239 1.70533341 -7.3125 1.875 C-8.00279297 1.95363281 -8.69308594 2.03226563 -9.40429688 2.11328125 C-12.95639471 2.55943847 -14.9697029 2.97980193 -18 5 C-20.91796875 5.4140625 -20.91796875 5.4140625 -24.1875 5.625 C-25.27417969 5.69976562 -26.36085937 5.77453125 -27.48046875 5.8515625 C-28.72763672 5.92503906 -28.72763672 5.92503906 -30 6 C-28.53872099 3.07744198 -26.24949088 2.70061914 -23.296875 1.6640625 C-15.73766223 -0.52142419 -7.7941844 -0.11869316 0 0 Z " fill="#061924" transform="translate(176,131)"/>
<path d="M0 0 C0.33 0 0.66 0 1 0 C1.33 8.91 1.66 17.82 2 27 C-2.62 27 -7.24 27 -12 27 C-8 25 -8 25 -4 25 C-3.67 24.01 -3.34 23.02 -3 22 C-3 22.99 -3 23.98 -3 25 C-1.68 25 -0.36 25 1 25 C0.83701416 24.44280273 0.67402832 23.88560547 0.50610352 23.31152344 C-0.0427175 20.80489661 -0.11329385 18.58019076 -0.09765625 16.015625 C-0.09443359 15.08105469 -0.09121094 14.14648438 -0.08789062 13.18359375 C-0.07951172 12.21550781 -0.07113281 11.24742188 -0.0625 10.25 C-0.05798828 9.26644531 -0.05347656 8.28289062 -0.04882812 7.26953125 C-0.03706483 4.84629209 -0.02062684 2.42317727 0 0 Z " fill="#031624" transform="translate(204,92)"/>
<path d="M0 0 C1.22589844 0.01353516 1.22589844 0.01353516 2.4765625 0.02734375 C3.41628906 0.04474609 3.41628906 0.04474609 4.375 0.0625 C4.375 0.7225 4.375 1.3825 4.375 2.0625 C5.695 2.0625 7.015 2.0625 8.375 2.0625 C8.375 2.7225 8.375 3.3825 8.375 4.0625 C2.435 3.0725 2.435 3.0725 -3.625 2.0625 C-4.615 6.0225 -5.605 9.9825 -6.625 14.0625 C-6.955 14.0625 -7.285 14.0625 -7.625 14.0625 C-7.625 12.4125 -7.625 10.7625 -7.625 9.0625 C-8.285 9.0625 -8.945 9.0625 -9.625 9.0625 C-9.315625 8.485 -9.00625 7.9075 -8.6875 7.3125 C-7.5577131 5.1286063 -7.5577131 5.1286063 -7.125 2.875 C-6.96 2.276875 -6.795 1.67875 -6.625 1.0625 C-4.21954362 -0.14022819 -2.67503047 -0.03821472 0 0 Z " fill="#6CB3D0" transform="translate(235.625,70.9375)"/>
<path d="M0 0 C2.01616137 3.02424205 2.25469543 3.62707101 2.265625 7.01953125 C2.26820313 7.79490234 2.27078125 8.57027344 2.2734375 9.36914062 C2.26570312 10.17544922 2.25796875 10.98175781 2.25 11.8125 C2.25773438 12.60720703 2.26546875 13.40191406 2.2734375 14.22070312 C2.25804462 18.87320056 1.77527784 22.62520817 0 27 C-0.33 27 -0.66 27 -1 27 C-1.02913821 23.4375173 -1.04684529 19.87506546 -1.0625 16.3125 C-1.07087891 15.30509766 -1.07925781 14.29769531 -1.08789062 13.25976562 C-1.09111328 12.28330078 -1.09433594 11.30683594 -1.09765625 10.30078125 C-1.10289307 9.40528564 -1.10812988 8.50979004 -1.11352539 7.5871582 C-0.99840198 4.96358241 -0.58234285 2.55706947 0 0 Z " fill="#051721" transform="translate(228,85)"/>
<path d="M0 0 C6.875 1.875 6.875 1.875 8 3 C11.51938142 3.54179352 15.04806806 3.96654933 18.58203125 4.40234375 C21.52149576 4.91633012 23.47583488 5.48041445 26 7 C16.28467972 7.31339743 7.98931058 5.66231172 -1 2 C-0.67 1.34 -0.34 0.68 0 0 Z " fill="#63A7BE" transform="translate(169,214)"/>
<path d="M0 0 C3.37705625 0.53725895 6.696686 1.11064623 10 2 C10 2.66 10 3.32 10 4 C10.66 4 11.32 4 12 4 C11.67 4.66 11.34 5.32 11 6 C12.06281047 7.09807249 12.06281047 7.09807249 13.625 8.3125 C14.07875 8.869375 14.5325 9.42625 15 10 C14.5859375 12.10546875 14.5859375 12.10546875 14 14 C13.40832031 13.32453125 12.81664062 12.6490625 12.20703125 11.953125 C11.41683594 11.06109375 10.62664062 10.1690625 9.8125 9.25 C9.03519531 8.36828125 8.25789062 7.4865625 7.45703125 6.578125 C5.11544754 4.12113732 2.69841735 2.05137234 0 0 Z " fill="#68B2D1" transform="translate(244,75)"/>
<path d="M0 0 C2.475 0.495 2.475 0.495 5 1 C5.33 1.99 5.66 2.98 6 4 C6.66 4.33 7.32 4.66 8 5 C8.33 4.34 8.66 3.68 9 3 C10.32 4.32 11.64 5.64 13 7 C12.67 7.66 12.34 8.32 12 9 C12.66 9 13.32 9 14 9 C14 9.66 14 10.32 14 11 C14.66 11 15.32 11 16 11 C15.67 11.66 15.34 12.32 15 13 C13.05710718 11.59027312 11.12085734 10.17270125 9.1875 8.75 C8.64029297 8.35425781 8.09308594 7.95851562 7.52929688 7.55078125 C4.4921581 5.30513925 2.07206244 3.16989201 0 0 Z " fill="#68BBD8" transform="translate(146,199)"/>
<path d="M0 0 C0.99 0 1.98 0 3 0 C4.21380846 5.34075724 4.21380846 5.34075724 3.25 8.3125 C2 10 2 10 -1 11 C-1 10.34 -1 9.68 -1 9 C-1.66 8.67 -2.32 8.34 -3 8 C-2.01 5.36 -1.02 2.72 0 0 Z " fill="#66C8EF" transform="translate(263,82)"/>
<path d="M0 0 C0.54011719 0.32355469 1.08023438 0.64710937 1.63671875 0.98046875 C0.40308594 1.05394531 0.40308594 1.05394531 -0.85546875 1.12890625 C-7.83956309 1.59666315 -14.5436286 2.39486102 -21.36328125 3.98046875 C-21.36328125 3.32046875 -21.36328125 2.66046875 -21.36328125 1.98046875 C-14.99305094 -1.49420233 -6.87994365 -2.96804181 0 0 Z " fill="#041724" transform="translate(166.36328125,118.01953125)"/>
<path d="M0 0 C5.35514317 2.96293636 10.6931372 5.95137669 16 9 C13 10 13 10 11.09765625 9.22265625 C10.42605469 8.83980469 9.75445312 8.45695313 9.0625 8.0625 C5.85952067 6.24192408 4.92163967 6 1 6 C0.67 4.02 0.34 2.04 0 0 Z " fill="#05131E" transform="translate(154,207)"/>
<path d="M0 0 C0.33 0 0.66 0 1 0 C1.03738281 0.88300781 1.07476562 1.76601562 1.11328125 2.67578125 C1.49780416 9.69520921 2.27436027 16.07654688 4.37890625 22.79296875 C5 25 5 25 5 28 C4.34 28 3.68 28 3 28 C2.814375 26.576875 2.814375 26.576875 2.625 25.125 C2.28312823 21.91332809 2.28312823 21.91332809 0 20 C-0.22705078 17.93701172 -0.22705078 17.93701172 -0.1953125 15.4296875 C-0.18886719 14.53378906 -0.18242188 13.63789063 -0.17578125 12.71484375 C-0.15902344 11.77769531 -0.14226562 10.84054688 -0.125 9.875 C-0.11597656 8.93011719 -0.10695313 7.98523438 -0.09765625 7.01171875 C-0.07404522 4.67422708 -0.04111516 2.33723877 0 0 Z " fill="#091F2E" transform="translate(122,145)"/>
<path d="M0 0 C2 3 2 3 1.5 6.5 C0 10 0 10 -2.875 12 C-5.92508556 12.97602738 -7.11079425 13.22235628 -10 12 C-9.0925 11.505 -8.185 11.01 -7.25 10.5 C-3.27665704 7.90132072 -1.76626074 4.28058486 0 0 Z " fill="#07121E" transform="translate(276,115)"/>
<path d="M0 0 C3.3 0.99 6.6 1.98 10 3 C9.34 3.66 8.68 4.32 8 5 C9.65 5.33 11.3 5.66 13 6 C13 6.33 13 6.66 13 7 C7.49633208 7.32374517 3.56327794 7.53286034 -1 4 C-0.67 2.68 -0.34 1.36 0 0 Z " fill="#CDCDCD" transform="translate(57,280)"/>
<path d="M0 0 C0.36619718 5.49295775 0.36619718 5.49295775 -1.21875 7.6875 C-3.52043454 9.38347808 -4.86106749 9.31038837 -7.6875 9.1875 C-8.89986328 9.14689453 -8.89986328 9.14689453 -10.13671875 9.10546875 C-10.75160156 9.07066406 -11.36648437 9.03585937 -12 9 C-11.67 8.34 -11.34 7.68 -11 7 C-9.67203709 6.64587656 -8.33783393 6.31478446 -7 6 C-3.75150023 4.27773504 -3.75150023 4.27773504 -3 1 C-1 0 -1 0 0 0 Z " fill="#FAFAFA" transform="translate(74,277)"/>
<path d="M0 0 C8.19256018 -0.63019694 8.19256018 -0.63019694 11.5625 2 C12.036875 2.66 12.51125 3.32 13 4 C12.67 4.66 12.34 5.32 12 6 C8.7 5.34 5.4 4.68 2 4 C2.66 3.67 3.32 3.34 4 3 C4 2.34 4 1.68 4 1 C2.68 0.67 1.36 0.34 0 0 Z " fill="#DADADA" transform="translate(61,262)"/>
<path d="M0 0 C2.74172892 2.74172892 4.04915895 4.66582038 5.75 8.0625 C6.19859375 8.94035156 6.6471875 9.81820312 7.109375 10.72265625 C7.40328125 11.47417969 7.6971875 12.22570312 8 13 C7.67 13.66 7.34 14.32 7 15 C6.34 14.34 5.68 13.68 5 13 C5 12.01 5 11.02 5 10 C4.01 10.33 3.02 10.66 2 11 C1.01 10.34 0.02 9.68 -1 9 C-0.67 6.03 -0.34 3.06 0 0 Z " fill="#6CBDDA" transform="translate(266,82)"/>
<path d="M0 0 C3.96 0.33 7.92 0.66 12 1 C10.02 1.99 10.02 1.99 8 3 C6.41246851 3.86735992 4.8291761 4.74251924 3.25 5.625 C2.05117187 6.29402344 2.05117187 6.29402344 0.828125 6.9765625 C0.22484375 7.31429687 -0.3784375 7.65203125 -1 8 C-0.67 5.36 -0.34 2.72 0 0 Z " fill="#0D101C" transform="translate(133,121)"/>
<path d="M0 0 C1.65 0 3.3 0 5 0 C3.375 5.75 3.375 5.75 0 8 C0 7.34 0 6.68 0 6 C-0.66 6 -1.32 6 -2 6 C-2.33 6.99 -2.66 7.98 -3 9 C-3.33 8.34 -3.66 7.68 -4 7 C-3.22265625 5.2734375 -3.22265625 5.2734375 -2.0625 3.375 C-1.381875 2.26125 -0.70125 1.1475 0 0 Z " fill="#D9D9D9" transform="translate(107,262)"/>
<path d="M0 0 C1.65 1.65 3.3 3.3 5 5 C4.01 5.66 3.02 6.32 2 7 C1.30643577 9.32548007 0.63850788 11.65880445 0 14 C-0.99 14.495 -0.99 14.495 -2 15 C-2.33 12.69 -2.66 10.38 -3 8 C-2.01 8 -1.02 8 0 8 C0 5.36 0 2.72 0 0 Z " fill="#65BADD" transform="translate(261,76)"/>
<path d="M0 0 C-2.82506863 2.9297008 -5.78796065 5.50174717 -9 8 C-10.125 4.25 -10.125 4.25 -9 2 C-8.34 2 -7.68 2 -7 2 C-7 1.34 -7 0.68 -7 0 C-4.3333581 -1.33332095 -2.83319697 -0.67102033 0 0 Z " fill="#67B9D9" transform="translate(147,135)"/>
<path d="M0 0 C0.66 0 1.32 0 2 0 C2 0.66 2 1.32 2 2 C2.99 2.33 3.98 2.66 5 3 C5.33 4.65 5.66 6.3 6 8 C1.25 7.125 1.25 7.125 -1 6 C-0.67 5.34 -0.34 4.68 0 4 C-0.33 3.67 -0.66 3.34 -1 3 C-0.67 2.01 -0.34 1.02 0 0 Z " fill="#65CAF0" transform="translate(255,76)"/>
<path d="M0 0 C0.99 0 1.98 0 3 0 C3.08086147 1.79093191 3.13912702 3.58289628 3.1875 5.375 C3.22230469 6.37273437 3.25710938 7.37046875 3.29296875 8.3984375 C3.19628906 9.25695312 3.09960938 10.11546875 3 11 C2.01 11.66 1.02 12.32 0 13 C0 8.71 0 4.42 0 0 Z " fill="#FDFDFD" transform="translate(302,263)"/>
<path d="M0 0 C0.33 0 0.66 0 1 0 C1 4.95 1 9.9 1 15 C0.67 15 0.34 15 0 15 C-0.33 12.69 -0.66 10.38 -1 8 C-2.32 8.99 -3.64 9.98 -5 11 C-3.77782954 6.95743617 -2.37245704 3.50711041 0 0 Z " fill="#1D1D1D" transform="translate(148,271)"/>
<path d="M0 0 C1.65 0 3.3 0 5 0 C4.45773019 3.79588866 2.79872437 5.47211993 0 8 C-0.99 7.34 -1.98 6.68 -3 6 C-2.01 4.02 -1.02 2.04 0 0 Z " fill="#DDDDDD" transform="translate(339,262)"/>
<path d="M0 0 C1.98 0.99 3.96 1.98 6 3 C5.01 4.485 5.01 4.485 4 6 C4.33 6.66 4.66 7.32 5 8 C1.74456771 7.65120368 0.98126893 6.97866739 -1.25 4.4375 C-2.11625 3.2309375 -2.11625 3.2309375 -3 2 C-2.01 1.34 -1.02 0.68 0 0 Z " fill="#69C3E6" transform="translate(140,187)"/>
<path d="M0 0 C0.99 0.33 1.98 0.66 3 1 C2.236875 1.66 1.47375 2.32 0.6875 3 C-2.56776694 6.20902735 -3.61456414 9.69785705 -5 14 C-5.33 14 -5.66 14 -6 14 C-6 11.03 -6 8.06 -6 5 C-4.68 4.34 -3.36 3.68 -2 3 C-2 2.34 -2 1.68 -2 1 C-1.34 0.67 -0.68 0.34 0 0 Z " fill="#081926" transform="translate(129,129)"/>
<path d="M0 0 C1.65 0.33 3.3 0.66 5 1 C5 1.66 5 2.32 5 3 C4.01 3.495 4.01 3.495 3 4 C2.71125 4.639375 2.4225 5.27875 2.125 5.9375 C0.77090236 8.42001234 -0.42178493 8.96871397 -3 10 C-2.34 8.68 -1.68 7.36 -1 6 C-1.66 5.34 -2.32 4.68 -3 4 C-2.01 2.68 -1.02 1.36 0 0 Z " fill="#63BAE0" transform="translate(216,65)"/>
<path d="M0 0 C3.16115776 1.36983503 3.9927092 1.9890638 6 5 C8.05003955 6.19232613 8.05003955 6.19232613 10 7 C4.97745369 7.2954439 2.10457614 6.98514628 -2 4 C-1.34 2.68 -0.68 1.36 0 0 Z " fill="#D7D7D7" transform="translate(249,280)"/>
<path d="M0 0 C0.66 0.99 1.32 1.98 2 3 C2.33 3.33 2.66 3.66 3 4 C5 6 5 6 5.125 8.625 C5.08375 9.40875 5.0425 10.1925 5 11 C4.01 11 3.02 11 2 11 C0.68 8.36 -0.64 5.72 -2 3 C-1.34 2.01 -0.68 1.02 0 0 Z " fill="#66BBE3" transform="translate(133,176)"/>
<path d="M0 0 C0.33 0 0.66 0 1 0 C1.33 4.95 1.66 9.9 2 15 C1.01 15 0.02 15 -1 15 C-0.67 16.65 -0.34 18.3 0 20 C-2 18 -2 18 -2.01171875 15.8984375 C-1.90472656 15.06570312 -1.79773438 14.23296875 -1.6875 13.375 C-1.57921875 12.488125 -1.4709375 11.60125 -1.359375 10.6875 C-1.18148437 9.3571875 -1.18148437 9.3571875 -1 8 C-0.81223681 6.45836537 -0.62470671 4.91670231 -0.4375 3.375 C-0.293125 2.26125 -0.14875 1.1475 0 0 Z " fill="#5FBDE2" transform="translate(216,168)"/>
<path d="M0 0 C0.33 0 0.66 0 1 0 C1.34179688 2.97851562 1.34179688 2.97851562 1.68359375 5.95703125 C1.97170735 8.19396393 1.97170735 8.19396393 3 11 C2.360625 11.268125 1.72125 11.53625 1.0625 11.8125 C-1.33131686 12.88667752 -1.33131686 12.88667752 -2 16 C-2.66 15.67 -3.32 15.34 -4 15 C-3.79503906 14.41992188 -3.59007812 13.83984375 -3.37890625 13.2421875 C-1.85990187 8.8378016 -0.5952849 4.64322223 0 0 Z " fill="#65BEDC" transform="translate(264,103)"/>
<path d="M0 0 C0.66 1.32 1.32 2.64 2 4 C0.35 5.65 -1.3 7.3 -3 9 C-3.66 8.67 -4.32 8.34 -5 8 C-4.45773019 4.20411134 -2.79872437 2.52788007 0 0 Z " fill="#67B8D9" transform="translate(207,198)"/>
<path d="M0 0 C0.33 0 0.66 0 1 0 C1 3.63 1 7.26 1 11 C0.01 11.495 0.01 11.495 -1 12 C-1.99 9.03 -2.98 6.06 -4 3 C-2.68 3 -1.36 3 0 3 C0 2.01 0 1.02 0 0 Z " fill="#64B3D6" transform="translate(228,166)"/>
<path d="M0 0 C2.31 0 4.62 0 7 0 C7 0.66 7 1.32 7 2 C7.99 2.66 8.98 3.32 10 4 C10.6875 6.625 10.6875 6.625 11 9 C9.72689688 8.06558465 8.456612 7.12732889 7.1875 6.1875 C6.47980469 5.66542969 5.77210938 5.14335938 5.04296875 4.60546875 C3.21468607 3.16871123 1.60103312 1.68184237 0 0 Z " fill="#05131D" transform="translate(250,66)"/>
<path d="M0 0 C1 3 1 3 -0.125 6.5625 C-2 10 -2 10 -4.6875 11.4375 C-5.450625 11.623125 -6.21375 11.80875 -7 12 C-7 11.01 -7 10.02 -7 9 C-6.34 9 -5.68 9 -5 9 C-4.5978125 8.1646875 -4.5978125 8.1646875 -4.1875 7.3125 C-2.89877353 4.80287477 -1.47073522 2.40665764 0 0 Z " fill="#08192A" transform="translate(221,202)"/>
<path d="M0 0 C0.66 0.33 1.32 0.66 2 1 C1.690625 1.639375 1.38125 2.27875 1.0625 2.9375 C-0.31935403 6.92049104 -0.6536543 10.81650849 -1 15 C-1.33 15 -1.66 15 -2 15 C-2.144375 13.906875 -2.28875 12.81375 -2.4375 11.6875 C-2.88288104 8.06877013 -2.88288104 8.06877013 -4 5 C-3.34 5 -2.68 5 -2 5 C-1.7834375 4.0409375 -1.7834375 4.0409375 -1.5625 3.0625 C-1 1 -1 1 0 0 Z " fill="#6BBEDD" transform="translate(136,144)"/>
<path d="M0 0 C3 1 3 1 5 4 C4.625 6.6875 4.625 6.6875 4 9 C3.01 9 2.02 9 1 9 C0.67 6.03 0.34 3.06 0 0 Z " fill="#6AC7E5" transform="translate(209,135)"/>
<path d="M0 0 C1.32 0 2.64 0 4 0 C6 3 6 3 5.6875 5.4375 C5.460625 6.283125 5.23375 7.12875 5 8 C4.66496554 9.3329069 4.33133396 10.66616842 4 12 C3.3291288 10.3767313 2.66342971 8.75132422 2 7.125 C1.62875 6.22007813 1.2575 5.31515625 0.875 4.3828125 C0 2 0 2 0 0 Z " fill="#081A23" transform="translate(271,89)"/>
<path d="M0 0 C0.66 1.32 1.32 2.64 2 4 C1 5 1 5 -1.9375 5.25 C-2.948125 5.1675 -3.95875 5.085 -5 5 C-5.66 4.01 -6.32 3.02 -7 2 C-4.69 1.34 -2.38 0.68 0 0 Z " fill="#F6F6F6" transform="translate(260,281)"/>
<path d="M0 0 C0.66 0 1.32 0 2 0 C2 0.66 2 1.32 2 2 C3.32 2.33 4.64 2.66 6 3 C3.26752652 4.36623674 1.01801098 4.128426 -2 4 C-2.33 3.67 -2.66 3.34 -3 3 C-5.32817964 2.63239269 -7.6618385 2.29758419 -10 2 C-10 1.67 -10 1.34 -10 1 C-2.25 0.875 -2.25 0.875 0 2 C0 1.34 0 0.68 0 0 Z " fill="#5DB0D4" transform="translate(197,216)"/>
<path d="M0 0 C0.33 0 0.66 0 1 0 C2.01603857 5.79141983 1.96263236 9.4584498 0 15 C-0.66 15 -1.32 15 -2 15 C-1.47462276 9.9697924 -0.89405214 4.98114761 0 0 Z " fill="#04101E" transform="translate(229,171)"/>
<path d="M0 0 C0.66 0.33 1.32 0.66 2 1 C0.73046875 2.46484375 -0.5390625 3.9296875 -1.80859375 5.39453125 C-3.20871231 7.10712971 -3.20871231 7.10712971 -4 10 C-4.66 10 -5.32 10 -6 10 C-5.58578031 5.16743695 -3.53586014 3.17320782 0 0 Z " fill="#05131F" transform="translate(144,137)"/>
<path d="M0 0 C0.99 0.33 1.98 0.66 3 1 C-5.93918919 6.13175676 -5.93918919 6.13175676 -12 6 C-9.50939295 3.50939295 -7.37044767 2.91282958 -4 2 C-3.34 2.33 -2.68 2.66 -2 3 C-2 2.34 -2 1.68 -2 1 C-1.34 0.67 -0.68 0.34 0 0 Z " fill="#071A29" transform="translate(257,114)"/>
<path d="M0 0 C2.71224618 1.61268692 5.37352812 3.24901874 8 5 C5.69 4.67 3.38 4.34 1 4 C0.67 4.99 0.34 5.98 0 7 C-0.99 6.34 -1.98 5.68 -3 5 C-3 4.34 -3 3.68 -3 3 C-2.34 3 -1.68 3 -1 3 C-0.67 2.01 -0.34 1.02 0 0 Z " fill="#DADADA" transform="translate(60,268)"/>
<path d="M0 0 C1.875 0.5625 1.875 0.5625 4 2 C5.25 5.625 5.25 5.625 6 9 C5.01 9.495 5.01 9.495 4 10 C3.32845067 8.71086513 2.66291141 7.41859796 2 6.125 C1.62875 5.40570313 1.2575 4.68640625 0.875 3.9453125 C0 2 0 2 0 0 Z " fill="#06161F" transform="translate(137,166)"/>
<path d="M0 0 C2.475 0.495 2.475 0.495 5 1 C5.6875 3.8125 5.6875 3.8125 6 7 C5.01 7.99 4.02 8.98 3 10 C2.01 6.7 1.02 3.4 0 0 Z " fill="#62B6D4" transform="translate(260,91)"/>
<path d="M0 0 C2.64 0.33 5.28 0.66 8 1 C7.67 1.99 7.34 2.98 7 4 C5.02 4 3.04 4 1 4 C0.67 2.68 0.34 1.36 0 0 Z " fill="#F8F8F8" transform="translate(61,272)"/>
<path d="M0 0 C0.66 1.32 1.32 2.64 2 4 C2.66 3.34 3.32 2.68 4 2 C3.33333333 5.33333333 2.66666667 8.66666667 2 12 C-0.12055529 8.46574118 -0.61577388 5.07279689 -1 1 C-0.67 0.67 -0.34 0.34 0 0 Z " fill="#5CC1EB" transform="translate(211,128)"/>
<path d="M0 0 C0.33 1.98 0.66 3.96 1 6 C0.01 5.67 -0.98 5.34 -2 5 C-2 4.01 -2 3.02 -2 2 C-5.63 2 -9.26 2 -13 2 C-13 1.67 -13 1.34 -13 1 C-11.20843648 0.83222817 -9.4167455 0.66581706 -7.625 0.5 C-6.62726563 0.4071875 -5.62953125 0.314375 -4.6015625 0.21875 C-2 0 -2 0 0 0 Z " fill="#5699B6" transform="translate(210,130)"/>
<path d="M0 0 C3.65316671 1.24976756 4.78065836 1.67098753 7 5 C5.35 5.33 3.7 5.66 2 6 C1.01 4.68 0.02 3.36 -1 2 C-0.67 1.34 -0.34 0.68 0 0 Z " fill="#67BBDD" transform="translate(251,68)"/>
<path d="M0 0 C0.66 0.33 1.32 0.66 2 1 C1.625 3.4375 1.625 3.4375 1 6 C0.01 6.495 0.01 6.495 -1 7 C-1.33 7.99 -1.66 8.98 -2 10 C-2.99 10 -3.98 10 -5 10 C-4.1875 7.5625 -4.1875 7.5625 -3 5 C-2.01 4.67 -1.02 4.34 0 4 C0 2.68 0 1.36 0 0 Z " fill="#64BADC" transform="translate(213,188)"/>
<path d="M0 0 C-2.68092691 2.68092691 -4.39167363 2.38670257 -8.125 2.625 C-9.22070312 2.69976562 -10.31640625 2.77453125 -11.4453125 2.8515625 C-12.28835937 2.90054688 -13.13140625 2.94953125 -14 3 C-13.67 2.34 -13.34 1.68 -13 1 C-10.8203125 0.33203125 -10.8203125 0.33203125 -8.125 -0.1875 C-7.24070313 -0.36667969 -6.35640625 -0.54585937 -5.4453125 -0.73046875 C-3 -1 -3 -1 0 0 Z " fill="#040D1C" transform="translate(160,134)"/>
<path d="M0 0 C0 0.66 0 1.32 0 2 C0.66 2.33 1.32 2.66 2 3 C-2.06368679 3.77403558 -5.86425173 4.0984702 -10 4 C-6.86268382 1.90845588 -3.85464592 0 0 0 Z " fill="#071622" transform="translate(266,128)"/>
<path d="M0 0 C0.99 0 1.98 0 3 0 C3 2.31 3 4.62 3 7 C1.68 7 0.36 7 -1 7 C-0.67 4.69 -0.34 2.38 0 0 Z " fill="#FAFAFA" transform="translate(100,279)"/>
<path d="M0 0 C0.33 0.99 0.66 1.98 1 3 C-3.43076923 6.07692308 -3.43076923 6.07692308 -6.3125 5.6875 C-6.869375 5.460625 -7.42625 5.23375 -8 5 C-6.68 4.34 -5.36 3.68 -4 3 C-4 2.34 -4 1.68 -4 1 C-2 0 -2 0 0 0 Z " fill="#6DC2DD" transform="translate(209,212)"/>
<path d="M0 0 C0.66 0 1.32 0 2 0 C1.67 1.65 1.34 3.3 1 5 C-0.98 5.66 -2.96 6.32 -5 7 C-5 6.01 -5 5.02 -5 4 C-3.68 4 -2.36 4 -1 4 C-0.67 2.68 -0.34 1.36 0 0 Z " fill="#68BDDC" transform="translate(265,123)"/>
<path d="M0 0 C0.33 0 0.66 0 1 0 C1.33 1.98 1.66 3.96 2 6 C2.33 6 2.66 6 3 6 C3 7.65 3 9.3 3 11 C2.34 11 1.68 11 1 11 C0.67 12.32 0.34 13.64 0 15 C0 10.05 0 5.1 0 0 Z " fill="#67BEE2" transform="translate(206,104)"/>
<path d="M0 0 C1.32 0 2.64 0 4 0 C4.53229326 1.26607607 5.05044544 2.53810412 5.5625 3.8125 C5.85253906 4.52019531 6.14257812 5.22789063 6.44140625 5.95703125 C7 8 7 8 6 11 C4.02 7.37 2.04 3.74 0 0 Z " fill="#05131E" transform="translate(264,78)"/>
<path d="M0 0 C0.33 0 0.66 0 1 0 C1 2.97 1 5.94 1 9 C0.01 9 -0.98 9 -2 9 C-2.125 5.625 -2.125 5.625 -2 2 C-1.34 1.34 -0.68 0.68 0 0 Z " fill="#FBFBFB" transform="translate(131,277)"/>
<path d="M0 0 C0.66 0 1.32 0 2 0 C1.67 1.98 1.34 3.96 1 6 C-0.32 6.33 -1.64 6.66 -3 7 C-3.33 6.34 -3.66 5.68 -4 5 C-3.34 5 -2.68 5 -2 5 C-1.34 3.35 -0.68 1.7 0 0 Z " fill="#F4F4F4" transform="translate(105,268)"/>
<path d="M0 0 C3.3 0 6.6 0 10 0 C9.34 1.32 8.68 2.64 8 4 C5.36 3.01 2.72 2.02 0 1 C0 0.67 0 0.34 0 0 Z " fill="#5BC4E7" transform="translate(184,210)"/>
<path d="M0 0 C0.33 0.66 0.66 1.32 1 2 C1.99 2.33 2.98 2.66 4 3 C3.01 4.485 3.01 4.485 2 6 C1.34 6 0.68 6 0 6 C-0.66 6.66 -1.32 7.32 -2 8 C-2.33 7.34 -2.66 6.68 -3 6 C-2.06553465 3.96855359 -1.06775224 1.96466413 0 0 Z " fill="#E8E8E8" transform="translate(145,268)"/>
<path d="M0 0 C2.96404505 2.80804268 5.44499019 5.18315774 7 9 C6.01 9.495 6.01 9.495 5 10 C5 9.34 5 8.68 5 8 C4.34 8 3.68 8 3 8 C3 7.01 3 6.02 3 5 C2.01 4.67 1.02 4.34 0 4 C0 2.68 0 1.36 0 0 Z " fill="#0E2835" transform="translate(137,189)"/>
<path d="M0 0 C5.01113235 1.4317521 6.94469549 3.98445693 10 8 C7 8 7 8 5.17578125 6.50390625 C4.56089844 5.86324219 3.94601563 5.22257813 3.3125 4.5625 C2.68988281 3.92441406 2.06726563 3.28632813 1.42578125 2.62890625 C0 1 0 1 0 0 Z " fill="#011118" transform="translate(148,186)"/>
<path d="M0 0 C1.258125 -0.020625 2.51625 -0.04125 3.8125 -0.0625 C4.52019531 -0.07410156 5.22789062 -0.08570313 5.95703125 -0.09765625 C8 0 8 0 11 1 C11 1.99 11 2.98 11 4 C7.37 3.01 3.74 2.02 0 1 C0 0.67 0 0.34 0 0 Z " fill="#0A2330" transform="translate(237,61)"/>
<path d="M0 0 C0.66 0 1.32 0 2 0 C2.99 1.98 3.98 3.96 5 6 C3.02 6.99 3.02 6.99 1 8 C0.67 5.36 0.34 2.72 0 0 Z " fill="#63C4E8" transform="translate(269,92)"/>
<path d="M0 0 C0.33 0 0.66 0 1 0 C1.66 2.64 2.32 5.28 3 8 C2.01 8.66 1.02 9.32 0 10 C-1.6415049 6.7169902 -0.51888624 3.57454967 0 0 Z M-5 10 C-2 11 -2 11 -2 11 Z " fill="#373737" transform="translate(189,267)"/>
<path d="M0 0 C6.75 1.625 6.75 1.625 9 5 C5.7 4.01 2.4 3.02 -1 2 C-0.67 1.34 -0.34 0.68 0 0 Z " fill="#67B0C8" transform="translate(169,214)"/>
<path d="M0 0 C2.475 0.495 2.475 0.495 5 1 C5.33 1.99 5.66 2.98 6 4 C6.66 4.33 7.32 4.66 8 5 C7.67 5.66 7.34 6.32 7 7 C5.83040013 6.02433888 4.66438823 5.044375 3.5 4.0625 C2.8503125 3.51722656 2.200625 2.97195312 1.53125 2.41015625 C1.0259375 1.94480469 0.520625 1.47945312 0 1 C0 0.67 0 0.34 0 0 Z " fill="#62AFCA" transform="translate(146,199)"/>
<path d="M0 0 C1.32 1.32 2.64 2.64 4 4 C3.01 4.99 2.02 5.98 1 7 C1 6.34 1 5.68 1 5 C0.01 5 -0.98 5 -2 5 C-2.33 4.01 -2.66 3.02 -3 2 C-2.01 2 -1.02 2 0 2 C0 1.34 0 0.68 0 0 Z " fill="#5DACCC" transform="translate(152,191)"/>
<path d="M0 0 C0.33 0.66 0.66 1.32 1 2 C-2.44615385 6.8 -2.44615385 6.8 -5.25 7.8125 C-6.11625 7.9053125 -6.11625 7.9053125 -7 8 C-5.50902342 4.2047869 -3.24299151 2.38957269 0 0 Z " fill="#6CB1CE" transform="translate(134,127)"/>
<path d="M0 0 C2.72426311 2.35277269 3.8141763 4.62496331 5 8 C3.68 8.33 2.36 8.66 1 9 C0 2.25 0 2.25 0 0 Z " fill="#62ADCB" transform="translate(266,82)"/>
<path d="M0 0 C1.38125018 2.76250036 1.19079306 4.94731099 1 8 C0.34 8.66 -0.32 9.32 -1 10 C-1 9.01 -1 8.02 -1 7 C-1.66 7 -2.32 7 -3 7 C-1.125 1.125 -1.125 1.125 0 0 Z " fill="#64ABC6" transform="translate(212,70)"/>
<path d="M0 0 C0.6875 1.625 0.6875 1.625 1 4 C-0.4375 7.25 -0.4375 7.25 -2 10 C-2.66 9.67 -3.32 9.34 -4 9 C-4 8.34 -4 7.68 -4 7 C-3.34 7 -2.68 7 -2 7 C-1.855625 6.401875 -1.71125 5.80375 -1.5625 5.1875 C-1.1127561 3.43849596 -0.57107659 1.71322977 0 0 Z " fill="#05141B" transform="translate(211,186)"/>
<path d="M0 0 C0.33 0 0.66 0 1 0 C1.17835515 4.54805635 0.99785435 7.8794254 -1 12 C-1.66 12 -2.32 12 -3 12 C-2.01 8.04 -1.02 4.08 0 0 Z " fill="#0B1E2B" transform="translate(226,186)"/>
<path d="M0 0 C0.66 0 1.32 0 2 0 C2 0.66 2 1.32 2 2 C2.66 2 3.32 2 4 2 C4.66 3.32 5.32 4.64 6 6 C5.34 6.66 4.68 7.32 4 8 C0 2.25 0 2.25 0 0 Z " fill="#071826" transform="translate(143,178)"/>
<path d="M0 0 C1.99097846 2.98646769 2.94124926 5.59687262 4 9 C2.68 8.34 1.36 7.68 0 7 C0 4.69 0 2.38 0 0 Z " fill="#0D222F" transform="translate(128,173)"/>
<path d="M0 0 C0.99 0.33 1.98 0.66 3 1 C3.33 1.99 3.66 2.98 4 4 C2.02 4.33 0.04 4.66 -2 5 C-1 2 -1 2 0 0 Z " fill="#5EC5EA" transform="translate(202,212)"/>
<path d="M0 0 C2.64 0.66 5.28 1.32 8 2 C7.34 3.32 6.68 4.64 6 6 C3.97945196 4.35830472 1.97956942 2.69088222 0 1 C0 0.67 0 0.34 0 0 Z " fill="#091E2F" transform="translate(157,195)"/>
<path d="M0 0 C0.66 0.66 1.32 1.32 2 2 C-0.31 3.32 -2.62 4.64 -5 6 C-5 4.68 -5 3.36 -5 2 C-3.35 1.34 -1.7 0.68 0 0 Z " fill="#0A1C2B" transform="translate(137,123)"/>
<path d="M0 0 C0 0.33 0 0.66 0 1 C-2.64 1 -5.28 1 -8 1 C-8.33 0.34 -8.66 -0.32 -9 -1 C-5.38055101 -2.34053666 -3.42632833 -1.61798838 0 0 Z " fill="#6BBCDE" transform="translate(251,67)"/>
</svg>
