<?xml version="1.0" encoding="UTF-8"?>
<svg version="1.1" xmlns="http://www.w3.org/2000/svg" width="400" height="400">
<path d="M0 0 C132 0 264 0 400 0 C400 132 400 264 400 400 C268 400 136 400 0 400 C0 268 0 136 0 0 Z " fill="#D095C9" transform="translate(0,0)"/>
<path d="M0 0 C33 0 66 0 100 0 C99.14277344 7.29480469 98.28554687 14.58960937 97.40234375 22.10546875 C96.9652185 36.17894224 98.11349503 48.01839544 107.62576008 58.94979572 C112.43254181 63.91805524 117.49681984 68.5037939 122.75390625 72.98828125 C123.29700164 73.45570338 123.84009703 73.92312552 124.39964986 74.40471196 C129.49724844 78.7907455 134.6413774 83.11918078 139.83479786 87.39131641 C202.48051723 138.92821686 202.48051723 138.92821686 206.27103043 174.346035 C208.45712784 200.06619342 203.60331526 224.19443917 200 250 C167 250 134 250 100 250 C100 266.5 100 283 100 300 C67 300 34 300 0 300 C0.85722656 292.54277344 1.71445313 285.08554687 2.59765625 277.40234375 C3.03081224 263.16758715 1.9629897 251.06681963 -7.62576008 239.96764278 C-12.42737321 234.97654144 -17.49043387 230.37557266 -22.75390625 225.87890625 C-23.29700164 225.41083046 -23.84009703 224.94275466 -24.39964986 224.46049476 C-30.07706573 219.56978944 -35.82486744 214.76768528 -41.61427122 210.01034278 C-102.4843425 159.92215012 -102.4843425 159.92215012 -106.27103043 124.8491745 C-108.45438317 99.39003748 -103.60784434 75.54645336 -100 50 C-67 50 -34 50 0 50 C0 33.5 0 17 0 0 Z " fill="#000000" transform="translate(150,50)"/>
<path d="M0 0 C1.06424698 -0.01007584 1.06424698 -0.01007584 2.1499939 -0.02035522 C4.49232011 -0.03932988 6.83435954 -0.04325954 9.17675781 -0.04541016 C10.81097531 -0.05184001 12.44519165 -0.05856851 14.07940674 -0.06558228 C17.50576442 -0.0775548 20.93202131 -0.08126328 24.35839844 -0.08007812 C28.7341593 -0.07987529 33.10926811 -0.10714032 37.48487473 -0.14162254 C40.86166306 -0.16394113 44.23829593 -0.16791411 47.61515045 -0.16685867 C49.22739146 -0.1692086 50.83963715 -0.1779977 52.45180511 -0.19352341 C69.84345103 -0.34528648 69.84345103 -0.34528648 76.43656921 5.72338867 C81.80472561 12.33322257 80.57976849 21.66793721 80.50878906 29.70458984 C80.50961876 31.40514274 80.51208192 33.10569554 80.51609802 34.8062439 C80.51894715 38.35854421 80.50433908 41.9102109 80.47680664 45.46240234 C80.44267278 50.00648495 80.44876753 54.54943928 80.46746922 59.09357643 C80.47805499 62.60073186 80.46908803 66.10762635 80.4540844 69.61475754 C80.44891718 71.29002481 80.4493666 72.9653195 80.45562935 74.64058304 C80.46110301 76.98363821 80.44064239 79.32509587 80.41333008 81.66796875 C80.41985596 82.3538356 80.42638184 83.03970245 80.43310547 83.74635315 C80.33560518 88.6853776 78.93341561 91.46684887 75.87988281 95.29052734 C71.01325769 99.57779234 68.14671197 100.44428562 61.80322266 100.48339844 C61.07450958 100.49157593 60.34579651 100.49975342 59.59500122 100.50817871 C57.17694926 100.53304194 54.75895625 100.54955506 52.34082031 100.56396484 C51.51416492 100.56928852 50.68750954 100.5746122 49.83580399 100.5800972 C45.45646339 100.60683862 41.07715134 100.62620636 36.69775391 100.640625 C33.07965688 100.65394175 29.46212687 100.68175027 25.84423828 100.72265625 C21.47169587 100.77209457 17.09966619 100.79676036 12.72685623 100.80385208 C11.06434155 100.81054757 9.40183754 100.82572524 7.73948288 100.84974289 C-8.43672526 101.07003454 -8.43672526 101.07003454 -13.61875916 96.85133362 C-14.36193138 96.07873451 -14.36193138 96.07873451 -15.12011719 95.29052734 C-15.6331691 94.78782822 -16.14622101 94.28512909 -16.67481995 93.76719666 C-21.91226291 87.27062563 -20.82172883 78.45218704 -20.74902344 70.56787109 C-20.74985329 68.93697451 -20.75231707 67.30607801 -20.7563324 65.67518616 C-20.75918109 62.26830673 -20.74457959 58.86208812 -20.71704102 55.45532227 C-20.68293201 51.1018927 -20.68899398 46.74964164 -20.70770359 42.39615536 C-20.71830168 39.03221415 -20.70931089 35.66854438 -20.69431877 32.30462837 C-20.68915889 30.69996511 -20.68959197 29.09527324 -20.69586372 27.49061394 C-20.70135147 25.24353512 -20.68083203 22.99811062 -20.65356445 20.7512207 C-20.64736588 19.47629257 -20.6411673 18.20136444 -20.63478088 16.88780212 C-19.85725179 11.45321285 -17.69556779 7.74781915 -13.62011719 3.97802734 C-8.8391454 0.75087139 -5.87095444 0.03492364 0 0 Z " fill="#D095C9" transform="translate(170.1201171875,149.70947265625)"/>
</svg>
