<?xml version="1.0" encoding="UTF-8"?>
<svg version="1.1" xmlns="http://www.w3.org/2000/svg" width="400" height="400">
<path d="M0 0 C132 0 264 0 400 0 C400 132 400 264 400 400 C268 400 136 400 0 400 C0 268 0 136 0 0 Z " fill="#000000" transform="translate(0,0)"/>
<path d="M0 0 C0 4.16070918 -2.10970589 6.84528334 -4.1875 10.3125 C-15.01874831 28.92498852 -17.83692068 47.72994808 -12.3828125 68.58203125 C-7.15007554 86.38191517 4.73612736 100.60103823 16.7578125 114.27734375 C28.62647875 127.82993439 38.51564788 141.21460345 43 159 C43.17362061 159.6388916 43.34724121 160.2777832 43.52612305 160.93603516 C47.82483754 179.65902967 39.67341951 196.99074856 31 213 C30.42894531 214.08023438 29.85789062 215.16046875 29.26953125 216.2734375 C22.65180755 228.34019197 14.71831684 239.62230691 7 251 C6.47438477 251.77730469 5.94876953 252.55460938 5.40722656 253.35546875 C0.08958128 261.21033864 -5.35820576 268.97130126 -10.875 276.6875 C-11.41084717 277.44272949 -11.94669434 278.19795898 -12.4987793 278.97607422 C-15.40606155 283.01333265 -18.36496026 286.5996953 -22 290 C-20.41901634 285.72156483 -18.31767023 281.79871268 -16.125 277.8125 C-8.94346893 264.54456869 -4.61037033 252.02012517 -7.6484375 236.73828125 C-12.36417896 221.32143416 -23.90770272 208.81953662 -35.25 197.75 C-53.48801398 179.93256915 -65.68520133 157.55366935 -66.52539062 131.84863281 C-66.71427424 115.44061169 -63.70304229 100.586612 -56 86 C-54.90472724 89.28581829 -55.15279932 89.83306605 -56 93 C-57.65942946 119.18629975 -52.26972675 138.47443192 -36 159 C-36.27263672 158.01773438 -36.27263672 158.01773438 -36.55078125 157.015625 C-37.37772481 154.01318376 -38.19117141 151.00737174 -39 148 C-39.26296875 147.02804688 -39.5259375 146.05609375 -39.796875 145.0546875 C-43.07351729 132.51651546 -44.41139329 120.33004899 -44.375 107.375 C-44.37478851 106.67545197 -44.37457703 105.97590393 -44.37435913 105.25515747 C-44.33979475 93.75930753 -43.28775433 83.0478417 -40 72 C-39.66097656 70.76636719 -39.32195312 69.53273438 -38.97265625 68.26171875 C-33.43113401 49.90172868 -24.02746719 33.5515563 -13 18 C-11.8675588 16.37955633 -10.73606175 14.75845246 -9.60546875 13.13671875 C-1.38191106 1.38191106 -1.38191106 1.38191106 0 0 Z " fill="#FCFCFC" transform="translate(211,53)"/>
<path d="M0 0 C1.81821643 3.11694246 2.60984754 6.27648052 3.421875 9.7734375 C4.24194119 12.93180054 5.37079295 15.96444557 6.51171875 19.01953125 C7 21 7 21 6 24 C4.36763346 21.94297722 2.74412995 19.87990147 1.125 17.8125 C0.43470703 16.9452832 0.43470703 16.9452832 -0.26953125 16.06054688 C-2.78800269 12.83033351 -4.70744611 9.9445179 -6 6 C-5.195625 5.7525 -4.39125 5.505 -3.5625 5.25 C-0.828919 4.27761141 -0.828919 4.27761141 -0.1875 1.875 C-0.125625 1.25625 -0.06375 0.6375 0 0 Z " fill="#1B1B1B" transform="translate(169,189)"/>
<path d="M0 0 C2.08815538 3.43931474 2.08815538 3.43931474 1.69702148 5.92700195 C0.97342109 8.07904783 0.10468717 9.57773083 -1.21484375 11.41796875 C-1.65376953 12.03220703 -2.09269531 12.64644531 -2.54492188 13.27929688 C-3.23424805 14.22385742 -3.23424805 14.22385742 -3.9375 15.1875 C-4.39318359 15.82880859 -4.84886719 16.47011719 -5.31835938 17.13085938 C-8.73428468 21.86714234 -8.73428468 21.86714234 -11 23 C-9.36398217 18.56305113 -7.19721972 14.5144508 -4.9375 10.375 C-2.15558526 5.33187494 -2.15558526 5.33187494 0 0 Z " fill="#DFDFDF" transform="translate(200,320)"/>
<path d="M0 0 C1.09254745 3.27764236 0.8600268 3.84260181 0 7 C-0.1437323 8.7316239 -0.24574932 10.46698333 -0.31640625 12.203125 C-0.35830078 13.1828125 -0.40019531 14.1625 -0.44335938 15.171875 C-0.50233398 16.69554687 -0.50233398 16.69554687 -0.5625 18.25 C-0.60568359 19.28125 -0.64886719 20.3125 -0.69335938 21.375 C-0.79925682 23.9165387 -0.90133443 26.45817196 -1 29 C-1.33 29 -1.66 29 -2 29 C-2.33 23.72 -2.66 18.44 -3 13 C-3.66 13 -4.32 13 -5 13 C-4.54554036 11.58208592 -4.08625056 10.16571954 -3.625 8.75 C-3.24214844 7.56664062 -3.24214844 7.56664062 -2.8515625 6.359375 C-2.04826333 4.13372042 -1.10288338 2.09068328 0 0 Z " fill="#B1B1B1" transform="translate(155,139)"/>
<path d="M0 0 C0 3.88091967 -1.65317733 6.39673296 -3.5 9.6875 C-3.83386719 10.29400391 -4.16773438 10.90050781 -4.51171875 11.52539062 C-5.335537 13.02003231 -6.16703451 14.51043671 -7 16 C-8.32 15.67 -9.64 15.34 -11 15 C-7.37 10.05 -3.74 5.1 0 0 Z " fill="#BBBBBB" transform="translate(211,53)"/>
<path d="M0 0 C0.33 0.66 0.66 1.32 1 2 C0.06421005 4.35981813 -0.93347808 6.69631264 -2 9 C-2.99 8.67 -3.98 8.34 -5 8 C-5.99 8.495 -5.99 8.495 -7 9 C-5.64978174 4.58110387 -3.73884332 2.65654657 0 0 Z " fill="#E8E8E8" transform="translate(202,68)"/>
<path d="M0 0 C0.66 0.99 1.32 1.98 2 3 C-0.31 5.97 -2.62 8.94 -5 12 C-5 8.55639368 -4.20408468 7.25204608 -2.5 4.3125 C-2.0359375 3.50425781 -1.571875 2.69601562 -1.09375 1.86328125 C-0.7328125 1.24839844 -0.371875 0.63351562 0 0 Z " fill="#CDCDCD" transform="translate(195,331)"/>
<path d="M0 0 C0 3.67168136 -0.78368346 6.54310037 -2 10 C-2.99 10.33 -3.98 10.66 -5 11 C-4.46884894 6.48521602 -2.63379708 3.65333143 0 0 Z " fill="#323232" transform="translate(217,44)"/>
<path d="M0 0 C1.32940404 3.98821211 0.43803613 6.11730245 -1 10 C-1.99 10.33 -2.98 10.66 -4 11 C-3.52269162 9.5410574 -3.04308958 8.08286504 -2.5625 6.625 C-2.29566406 5.81289062 -2.02882812 5.00078125 -1.75390625 4.1640625 C-1 2 -1 2 0 0 Z " fill="#B8B8B8" transform="translate(155,139)"/>
<path d="M0 0 C1.98 1.65 3.96 3.3 6 5 C5.34 5.66 4.68 6.32 4 7 C2.35 5.02 0.7 3.04 -1 1 C-0.67 0.67 -0.34 0.34 0 0 Z " fill="#0E0E0E" transform="translate(173,248)"/>
</svg>
